G04 #@! TF.GenerationSoftware,KiCad,Pcbnew,10.0.1*
G04 #@! TF.CreationDate,2026-05-30T16:04:42-04:00*
G04 #@! TF.ProjectId,NYCpalette,4e594370-616c-4657-9474-652e6b696361,rev?*
G04 #@! TF.SameCoordinates,Original*
G04 #@! TF.FileFunction,Soldermask,Top*
G04 #@! TF.FilePolarity,Negative*
%FSLAX46Y46*%
G04 Gerber Fmt 4.6, Leading zero omitted, Abs format (unit mm)*
G04 Created by KiCad (PCBNEW 10.0.1) date 2026-05-30 16:04:42*
%MOMM*%
%LPD*%
G01*
G04 APERTURE LIST*
%ADD10C,0.000000*%
%ADD11C,0.700000*%
%ADD12C,4.400000*%
G04 APERTURE END LIST*
D10*
G04 #@! TO.C,svg2mod*
G36*
X105488362Y-64339845D02*
G01*
X96238281Y-64339845D01*
X96238281Y-55090281D01*
X105488362Y-55090281D01*
X105488362Y-64339845D01*
G37*
G36*
X105488362Y-87090207D02*
G01*
X96238281Y-87090207D01*
X96238281Y-77840641D01*
X105488362Y-77840641D01*
X105488362Y-87090207D01*
G37*
G36*
X115489302Y-64339845D02*
G01*
X106238187Y-64339845D01*
X106238187Y-55090281D01*
X115489302Y-55090281D01*
X115489302Y-64339845D01*
G37*
G36*
X115489302Y-87090207D02*
G01*
X106238187Y-87090207D01*
X106238187Y-77840641D01*
X115489302Y-77840641D01*
X115489302Y-87090207D01*
G37*
G36*
X128238723Y-64339846D02*
G01*
X118988641Y-64339846D01*
X118988641Y-55090281D01*
X128238723Y-55090281D01*
X128238723Y-64339846D01*
G37*
G36*
X128238723Y-87090207D02*
G01*
X118988641Y-87090207D01*
X118988641Y-77840642D01*
X128238723Y-77840642D01*
X128238723Y-87090207D01*
G37*
G36*
X138239662Y-64339846D02*
G01*
X128988548Y-64339846D01*
X128988548Y-55090281D01*
X138239662Y-55090281D01*
X138239662Y-64339846D01*
G37*
G36*
X138239662Y-87090207D02*
G01*
X128988548Y-87090207D01*
X128988548Y-77840642D01*
X138239662Y-77840642D01*
X138239662Y-87090207D01*
G37*
G04 #@! TD*
D11*
G04 #@! TO.C,REF\u002A\u002A*
X76074000Y-99568000D03*
X76557274Y-98401274D03*
X76557274Y-100734726D03*
X77724000Y-97918000D03*
D12*
X77724000Y-99568000D03*
D11*
X77724000Y-101218000D03*
X78890726Y-98401274D03*
X78890726Y-100734726D03*
X79374000Y-99568000D03*
G04 #@! TD*
G04 #@! TO.C,REF\u002A\u002A*
X154306000Y-99568000D03*
X154789274Y-98401274D03*
X154789274Y-100734726D03*
X155956000Y-97918000D03*
D12*
X155956000Y-99568000D03*
D11*
X155956000Y-101218000D03*
X157122726Y-98401274D03*
X157122726Y-100734726D03*
X157606000Y-99568000D03*
G04 #@! TD*
G04 #@! TO.C,REF\u002A\u002A*
X154306000Y-52832000D03*
X154789274Y-51665274D03*
X154789274Y-53998726D03*
X155956000Y-51182000D03*
D12*
X155956000Y-52832000D03*
D11*
X155956000Y-54482000D03*
X157122726Y-51665274D03*
X157122726Y-53998726D03*
X157606000Y-52832000D03*
G04 #@! TD*
G04 #@! TO.C,REF\u002A\u002A*
X76074000Y-52832000D03*
X76557274Y-51665274D03*
X76557274Y-53998726D03*
X77724000Y-51182000D03*
D12*
X77724000Y-52832000D03*
D11*
X77724000Y-54482000D03*
X78890726Y-51665274D03*
X78890726Y-53998726D03*
X79374000Y-52832000D03*
G04 #@! TD*
M02*
