M48
; DRILL file KiCad 10.0.1 date 2026-05-30T16:04:45
; FORMAT={-:-/ absolute / metric / decimal}
; #@! TF.CreationDate,2026-05-30T16:04:45-04:00
; #@! TF.GenerationSoftware,Kicad,Pcbnew,10.0.1
; #@! TF.FileFunction,Plated,1,2,PTH
FMAT,2
METRIC
; #@! TA.AperFunction,Plated,PTH,ComponentDrill
T1C0.400
; #@! TA.AperFunction,Plated,PTH,ComponentDrill
T2C2.200
%
G90
G05
T1
X76.074Y-52.832
X76.074Y-99.568
X76.557Y-51.665
X76.557Y-53.999
X76.557Y-98.401
X76.557Y-100.735
X77.724Y-51.182
X77.724Y-54.482
X77.724Y-97.918
X77.724Y-101.218
X78.891Y-51.665
X78.891Y-53.999
X78.891Y-98.401
X78.891Y-100.735
X79.374Y-52.832
X79.374Y-99.568
X154.306Y-52.832
X154.306Y-99.568
X154.789Y-51.665
X154.789Y-53.999
X154.789Y-98.401
X154.789Y-100.735
X155.956Y-51.182
X155.956Y-54.482
X155.956Y-97.918
X155.956Y-101.218
X157.123Y-51.665
X157.123Y-53.999
X157.123Y-98.401
X157.123Y-100.735
X157.606Y-52.832
X157.606Y-99.568
T2
X77.724Y-52.832
X77.724Y-99.568
X155.956Y-52.832
X155.956Y-99.568
M30
