G04 #@! TF.GenerationSoftware,KiCad,Pcbnew,10.0.1*
G04 #@! TF.CreationDate,2026-05-30T16:04:42-04:00*
G04 #@! TF.ProjectId,NYCpalette,4e594370-616c-4657-9474-652e6b696361,rev?*
G04 #@! TF.SameCoordinates,Original*
G04 #@! TF.FileFunction,Legend,Top*
G04 #@! TF.FilePolarity,Positive*
%FSLAX46Y46*%
G04 Gerber Fmt 4.6, Leading zero omitted, Abs format (unit mm)*
G04 Created by KiCad (PCBNEW 10.0.1) date 2026-05-30 16:04:42*
%MOMM*%
%LPD*%
G01*
G04 APERTURE LIST*
%ADD10C,0.100000*%
%ADD11C,0.000000*%
G04 APERTURE END LIST*
D10*
X75487884Y-92664531D02*
X75487884Y-91664531D01*
X75487884Y-91664531D02*
X75868836Y-91664531D01*
X75868836Y-91664531D02*
X75964074Y-91712150D01*
X75964074Y-91712150D02*
X76011693Y-91759769D01*
X76011693Y-91759769D02*
X76059312Y-91855007D01*
X76059312Y-91855007D02*
X76059312Y-91997864D01*
X76059312Y-91997864D02*
X76011693Y-92093102D01*
X76011693Y-92093102D02*
X75964074Y-92140721D01*
X75964074Y-92140721D02*
X75868836Y-92188340D01*
X75868836Y-92188340D02*
X75487884Y-92188340D01*
X76916455Y-92664531D02*
X76916455Y-92140721D01*
X76916455Y-92140721D02*
X76868836Y-92045483D01*
X76868836Y-92045483D02*
X76773598Y-91997864D01*
X76773598Y-91997864D02*
X76583122Y-91997864D01*
X76583122Y-91997864D02*
X76487884Y-92045483D01*
X76916455Y-92616912D02*
X76821217Y-92664531D01*
X76821217Y-92664531D02*
X76583122Y-92664531D01*
X76583122Y-92664531D02*
X76487884Y-92616912D01*
X76487884Y-92616912D02*
X76440265Y-92521673D01*
X76440265Y-92521673D02*
X76440265Y-92426435D01*
X76440265Y-92426435D02*
X76487884Y-92331197D01*
X76487884Y-92331197D02*
X76583122Y-92283578D01*
X76583122Y-92283578D02*
X76821217Y-92283578D01*
X76821217Y-92283578D02*
X76916455Y-92235959D01*
X77535503Y-92664531D02*
X77440265Y-92616912D01*
X77440265Y-92616912D02*
X77392646Y-92521673D01*
X77392646Y-92521673D02*
X77392646Y-91664531D01*
X78297408Y-92616912D02*
X78202170Y-92664531D01*
X78202170Y-92664531D02*
X78011694Y-92664531D01*
X78011694Y-92664531D02*
X77916456Y-92616912D01*
X77916456Y-92616912D02*
X77868837Y-92521673D01*
X77868837Y-92521673D02*
X77868837Y-92140721D01*
X77868837Y-92140721D02*
X77916456Y-92045483D01*
X77916456Y-92045483D02*
X78011694Y-91997864D01*
X78011694Y-91997864D02*
X78202170Y-91997864D01*
X78202170Y-91997864D02*
X78297408Y-92045483D01*
X78297408Y-92045483D02*
X78345027Y-92140721D01*
X78345027Y-92140721D02*
X78345027Y-92235959D01*
X78345027Y-92235959D02*
X77868837Y-92331197D01*
X78630742Y-91997864D02*
X79011694Y-91997864D01*
X78773599Y-91664531D02*
X78773599Y-92521673D01*
X78773599Y-92521673D02*
X78821218Y-92616912D01*
X78821218Y-92616912D02*
X78916456Y-92664531D01*
X78916456Y-92664531D02*
X79011694Y-92664531D01*
X79202171Y-91997864D02*
X79583123Y-91997864D01*
X79345028Y-91664531D02*
X79345028Y-92521673D01*
X79345028Y-92521673D02*
X79392647Y-92616912D01*
X79392647Y-92616912D02*
X79487885Y-92664531D01*
X79487885Y-92664531D02*
X79583123Y-92664531D01*
X80297409Y-92616912D02*
X80202171Y-92664531D01*
X80202171Y-92664531D02*
X80011695Y-92664531D01*
X80011695Y-92664531D02*
X79916457Y-92616912D01*
X79916457Y-92616912D02*
X79868838Y-92521673D01*
X79868838Y-92521673D02*
X79868838Y-92140721D01*
X79868838Y-92140721D02*
X79916457Y-92045483D01*
X79916457Y-92045483D02*
X80011695Y-91997864D01*
X80011695Y-91997864D02*
X80202171Y-91997864D01*
X80202171Y-91997864D02*
X80297409Y-92045483D01*
X80297409Y-92045483D02*
X80345028Y-92140721D01*
X80345028Y-92140721D02*
X80345028Y-92235959D01*
X80345028Y-92235959D02*
X79868838Y-92331197D01*
X80773600Y-92283578D02*
X81535505Y-92283578D01*
X81916457Y-91997864D02*
X82154552Y-92664531D01*
X82154552Y-92664531D02*
X82392647Y-91997864D01*
X83297409Y-92664531D02*
X82725981Y-92664531D01*
X83011695Y-92664531D02*
X83011695Y-91664531D01*
X83011695Y-91664531D02*
X82916457Y-91807388D01*
X82916457Y-91807388D02*
X82821219Y-91902626D01*
X82821219Y-91902626D02*
X82725981Y-91950245D01*
X75440265Y-93988760D02*
X75916455Y-93988760D01*
X75345027Y-94274475D02*
X75678360Y-93274475D01*
X75678360Y-93274475D02*
X76011693Y-94274475D01*
X76345027Y-94179236D02*
X76392646Y-94226856D01*
X76392646Y-94226856D02*
X76345027Y-94274475D01*
X76345027Y-94274475D02*
X76297408Y-94226856D01*
X76297408Y-94226856D02*
X76345027Y-94179236D01*
X76345027Y-94179236D02*
X76345027Y-94274475D01*
X77440265Y-93274475D02*
X78011693Y-93274475D01*
X77725979Y-94274475D02*
X77725979Y-93274475D01*
X78773598Y-94274475D02*
X78773598Y-93750665D01*
X78773598Y-93750665D02*
X78725979Y-93655427D01*
X78725979Y-93655427D02*
X78630741Y-93607808D01*
X78630741Y-93607808D02*
X78440265Y-93607808D01*
X78440265Y-93607808D02*
X78345027Y-93655427D01*
X78773598Y-94226856D02*
X78678360Y-94274475D01*
X78678360Y-94274475D02*
X78440265Y-94274475D01*
X78440265Y-94274475D02*
X78345027Y-94226856D01*
X78345027Y-94226856D02*
X78297408Y-94131617D01*
X78297408Y-94131617D02*
X78297408Y-94036379D01*
X78297408Y-94036379D02*
X78345027Y-93941141D01*
X78345027Y-93941141D02*
X78440265Y-93893522D01*
X78440265Y-93893522D02*
X78678360Y-93893522D01*
X78678360Y-93893522D02*
X78773598Y-93845903D01*
X79249789Y-94274475D02*
X79249789Y-93607808D01*
X79249789Y-93274475D02*
X79202170Y-93322094D01*
X79202170Y-93322094D02*
X79249789Y-93369713D01*
X79249789Y-93369713D02*
X79297408Y-93322094D01*
X79297408Y-93322094D02*
X79249789Y-93274475D01*
X79249789Y-93274475D02*
X79249789Y-93369713D01*
X79583122Y-93607808D02*
X79964074Y-93607808D01*
X79725979Y-93274475D02*
X79725979Y-94131617D01*
X79725979Y-94131617D02*
X79773598Y-94226856D01*
X79773598Y-94226856D02*
X79868836Y-94274475D01*
X79868836Y-94274475D02*
X79964074Y-94274475D01*
X75964074Y-94884419D02*
X75487884Y-94884419D01*
X75487884Y-94884419D02*
X75440265Y-95360609D01*
X75440265Y-95360609D02*
X75487884Y-95312990D01*
X75487884Y-95312990D02*
X75583122Y-95265371D01*
X75583122Y-95265371D02*
X75821217Y-95265371D01*
X75821217Y-95265371D02*
X75916455Y-95312990D01*
X75916455Y-95312990D02*
X75964074Y-95360609D01*
X75964074Y-95360609D02*
X76011693Y-95455847D01*
X76011693Y-95455847D02*
X76011693Y-95693942D01*
X76011693Y-95693942D02*
X75964074Y-95789180D01*
X75964074Y-95789180D02*
X75916455Y-95836800D01*
X75916455Y-95836800D02*
X75821217Y-95884419D01*
X75821217Y-95884419D02*
X75583122Y-95884419D01*
X75583122Y-95884419D02*
X75487884Y-95836800D01*
X75487884Y-95836800D02*
X75440265Y-95789180D01*
X77154550Y-94836800D02*
X76297408Y-96122514D01*
X77440265Y-94979657D02*
X77487884Y-94932038D01*
X77487884Y-94932038D02*
X77583122Y-94884419D01*
X77583122Y-94884419D02*
X77821217Y-94884419D01*
X77821217Y-94884419D02*
X77916455Y-94932038D01*
X77916455Y-94932038D02*
X77964074Y-94979657D01*
X77964074Y-94979657D02*
X78011693Y-95074895D01*
X78011693Y-95074895D02*
X78011693Y-95170133D01*
X78011693Y-95170133D02*
X77964074Y-95312990D01*
X77964074Y-95312990D02*
X77392646Y-95884419D01*
X77392646Y-95884419D02*
X78011693Y-95884419D01*
X78868836Y-94884419D02*
X78678360Y-94884419D01*
X78678360Y-94884419D02*
X78583122Y-94932038D01*
X78583122Y-94932038D02*
X78535503Y-94979657D01*
X78535503Y-94979657D02*
X78440265Y-95122514D01*
X78440265Y-95122514D02*
X78392646Y-95312990D01*
X78392646Y-95312990D02*
X78392646Y-95693942D01*
X78392646Y-95693942D02*
X78440265Y-95789180D01*
X78440265Y-95789180D02*
X78487884Y-95836800D01*
X78487884Y-95836800D02*
X78583122Y-95884419D01*
X78583122Y-95884419D02*
X78773598Y-95884419D01*
X78773598Y-95884419D02*
X78868836Y-95836800D01*
X78868836Y-95836800D02*
X78916455Y-95789180D01*
X78916455Y-95789180D02*
X78964074Y-95693942D01*
X78964074Y-95693942D02*
X78964074Y-95455847D01*
X78964074Y-95455847D02*
X78916455Y-95360609D01*
X78916455Y-95360609D02*
X78868836Y-95312990D01*
X78868836Y-95312990D02*
X78773598Y-95265371D01*
X78773598Y-95265371D02*
X78583122Y-95265371D01*
X78583122Y-95265371D02*
X78487884Y-95312990D01*
X78487884Y-95312990D02*
X78440265Y-95360609D01*
X78440265Y-95360609D02*
X78392646Y-95455847D01*
X141353217Y-60308609D02*
X141019884Y-60308609D01*
X141019884Y-60832419D02*
X141019884Y-59832419D01*
X141019884Y-59832419D02*
X141496074Y-59832419D01*
X141877027Y-60737180D02*
X141924646Y-60784800D01*
X141924646Y-60784800D02*
X141877027Y-60832419D01*
X141877027Y-60832419D02*
X141829408Y-60784800D01*
X141829408Y-60784800D02*
X141877027Y-60737180D01*
X141877027Y-60737180D02*
X141877027Y-60832419D01*
X142353217Y-60832419D02*
X142353217Y-59832419D01*
X142353217Y-59832419D02*
X142686550Y-60546704D01*
X142686550Y-60546704D02*
X143019883Y-59832419D01*
X143019883Y-59832419D02*
X143019883Y-60832419D01*
X143924645Y-60832419D02*
X143924645Y-60308609D01*
X143924645Y-60308609D02*
X143877026Y-60213371D01*
X143877026Y-60213371D02*
X143781788Y-60165752D01*
X143781788Y-60165752D02*
X143591312Y-60165752D01*
X143591312Y-60165752D02*
X143496074Y-60213371D01*
X143924645Y-60784800D02*
X143829407Y-60832419D01*
X143829407Y-60832419D02*
X143591312Y-60832419D01*
X143591312Y-60832419D02*
X143496074Y-60784800D01*
X143496074Y-60784800D02*
X143448455Y-60689561D01*
X143448455Y-60689561D02*
X143448455Y-60594323D01*
X143448455Y-60594323D02*
X143496074Y-60499085D01*
X143496074Y-60499085D02*
X143591312Y-60451466D01*
X143591312Y-60451466D02*
X143829407Y-60451466D01*
X143829407Y-60451466D02*
X143924645Y-60403847D01*
X144353217Y-60784800D02*
X144448455Y-60832419D01*
X144448455Y-60832419D02*
X144638931Y-60832419D01*
X144638931Y-60832419D02*
X144734169Y-60784800D01*
X144734169Y-60784800D02*
X144781788Y-60689561D01*
X144781788Y-60689561D02*
X144781788Y-60641942D01*
X144781788Y-60641942D02*
X144734169Y-60546704D01*
X144734169Y-60546704D02*
X144638931Y-60499085D01*
X144638931Y-60499085D02*
X144496074Y-60499085D01*
X144496074Y-60499085D02*
X144400836Y-60451466D01*
X144400836Y-60451466D02*
X144353217Y-60356228D01*
X144353217Y-60356228D02*
X144353217Y-60308609D01*
X144353217Y-60308609D02*
X144400836Y-60213371D01*
X144400836Y-60213371D02*
X144496074Y-60165752D01*
X144496074Y-60165752D02*
X144638931Y-60165752D01*
X144638931Y-60165752D02*
X144734169Y-60213371D01*
X145210360Y-60832419D02*
X145210360Y-59832419D01*
X145305598Y-60451466D02*
X145591312Y-60832419D01*
X145591312Y-60165752D02*
X145210360Y-60546704D01*
X141353217Y-69452609D02*
X141019884Y-69452609D01*
X141019884Y-69976419D02*
X141019884Y-68976419D01*
X141019884Y-68976419D02*
X141496074Y-68976419D01*
X141877027Y-69881180D02*
X141924646Y-69928800D01*
X141924646Y-69928800D02*
X141877027Y-69976419D01*
X141877027Y-69976419D02*
X141829408Y-69928800D01*
X141829408Y-69928800D02*
X141877027Y-69881180D01*
X141877027Y-69881180D02*
X141877027Y-69976419D01*
X142305598Y-69928800D02*
X142448455Y-69976419D01*
X142448455Y-69976419D02*
X142686550Y-69976419D01*
X142686550Y-69976419D02*
X142781788Y-69928800D01*
X142781788Y-69928800D02*
X142829407Y-69881180D01*
X142829407Y-69881180D02*
X142877026Y-69785942D01*
X142877026Y-69785942D02*
X142877026Y-69690704D01*
X142877026Y-69690704D02*
X142829407Y-69595466D01*
X142829407Y-69595466D02*
X142781788Y-69547847D01*
X142781788Y-69547847D02*
X142686550Y-69500228D01*
X142686550Y-69500228D02*
X142496074Y-69452609D01*
X142496074Y-69452609D02*
X142400836Y-69404990D01*
X142400836Y-69404990D02*
X142353217Y-69357371D01*
X142353217Y-69357371D02*
X142305598Y-69262133D01*
X142305598Y-69262133D02*
X142305598Y-69166895D01*
X142305598Y-69166895D02*
X142353217Y-69071657D01*
X142353217Y-69071657D02*
X142400836Y-69024038D01*
X142400836Y-69024038D02*
X142496074Y-68976419D01*
X142496074Y-68976419D02*
X142734169Y-68976419D01*
X142734169Y-68976419D02*
X142877026Y-69024038D01*
X143305598Y-69976419D02*
X143305598Y-69309752D01*
X143305598Y-68976419D02*
X143257979Y-69024038D01*
X143257979Y-69024038D02*
X143305598Y-69071657D01*
X143305598Y-69071657D02*
X143353217Y-69024038D01*
X143353217Y-69024038D02*
X143305598Y-68976419D01*
X143305598Y-68976419D02*
X143305598Y-69071657D01*
X143924645Y-69976419D02*
X143829407Y-69928800D01*
X143829407Y-69928800D02*
X143781788Y-69833561D01*
X143781788Y-69833561D02*
X143781788Y-68976419D01*
X144305598Y-69976419D02*
X144305598Y-68976419D01*
X144400836Y-69595466D02*
X144686550Y-69976419D01*
X144686550Y-69309752D02*
X144305598Y-69690704D01*
X145067503Y-69928800D02*
X145210360Y-69976419D01*
X145210360Y-69976419D02*
X145448455Y-69976419D01*
X145448455Y-69976419D02*
X145543693Y-69928800D01*
X145543693Y-69928800D02*
X145591312Y-69881180D01*
X145591312Y-69881180D02*
X145638931Y-69785942D01*
X145638931Y-69785942D02*
X145638931Y-69690704D01*
X145638931Y-69690704D02*
X145591312Y-69595466D01*
X145591312Y-69595466D02*
X145543693Y-69547847D01*
X145543693Y-69547847D02*
X145448455Y-69500228D01*
X145448455Y-69500228D02*
X145257979Y-69452609D01*
X145257979Y-69452609D02*
X145162741Y-69404990D01*
X145162741Y-69404990D02*
X145115122Y-69357371D01*
X145115122Y-69357371D02*
X145067503Y-69262133D01*
X145067503Y-69262133D02*
X145067503Y-69166895D01*
X145067503Y-69166895D02*
X145115122Y-69071657D01*
X145115122Y-69071657D02*
X145162741Y-69024038D01*
X145162741Y-69024038D02*
X145257979Y-68976419D01*
X145257979Y-68976419D02*
X145496074Y-68976419D01*
X145496074Y-68976419D02*
X145638931Y-69024038D01*
X141353217Y-82152609D02*
X141019884Y-82152609D01*
X141019884Y-82676419D02*
X141019884Y-81676419D01*
X141019884Y-81676419D02*
X141496074Y-81676419D01*
X141877027Y-82581180D02*
X141924646Y-82628800D01*
X141924646Y-82628800D02*
X141877027Y-82676419D01*
X141877027Y-82676419D02*
X141829408Y-82628800D01*
X141829408Y-82628800D02*
X141877027Y-82581180D01*
X141877027Y-82581180D02*
X141877027Y-82676419D01*
X142353217Y-82676419D02*
X142353217Y-81676419D01*
X142353217Y-81676419D02*
X142686550Y-82390704D01*
X142686550Y-82390704D02*
X143019883Y-81676419D01*
X143019883Y-81676419D02*
X143019883Y-82676419D01*
X143924645Y-82676419D02*
X143924645Y-82152609D01*
X143924645Y-82152609D02*
X143877026Y-82057371D01*
X143877026Y-82057371D02*
X143781788Y-82009752D01*
X143781788Y-82009752D02*
X143591312Y-82009752D01*
X143591312Y-82009752D02*
X143496074Y-82057371D01*
X143924645Y-82628800D02*
X143829407Y-82676419D01*
X143829407Y-82676419D02*
X143591312Y-82676419D01*
X143591312Y-82676419D02*
X143496074Y-82628800D01*
X143496074Y-82628800D02*
X143448455Y-82533561D01*
X143448455Y-82533561D02*
X143448455Y-82438323D01*
X143448455Y-82438323D02*
X143496074Y-82343085D01*
X143496074Y-82343085D02*
X143591312Y-82295466D01*
X143591312Y-82295466D02*
X143829407Y-82295466D01*
X143829407Y-82295466D02*
X143924645Y-82247847D01*
X144353217Y-82628800D02*
X144448455Y-82676419D01*
X144448455Y-82676419D02*
X144638931Y-82676419D01*
X144638931Y-82676419D02*
X144734169Y-82628800D01*
X144734169Y-82628800D02*
X144781788Y-82533561D01*
X144781788Y-82533561D02*
X144781788Y-82485942D01*
X144781788Y-82485942D02*
X144734169Y-82390704D01*
X144734169Y-82390704D02*
X144638931Y-82343085D01*
X144638931Y-82343085D02*
X144496074Y-82343085D01*
X144496074Y-82343085D02*
X144400836Y-82295466D01*
X144400836Y-82295466D02*
X144353217Y-82200228D01*
X144353217Y-82200228D02*
X144353217Y-82152609D01*
X144353217Y-82152609D02*
X144400836Y-82057371D01*
X144400836Y-82057371D02*
X144496074Y-82009752D01*
X144496074Y-82009752D02*
X144638931Y-82009752D01*
X144638931Y-82009752D02*
X144734169Y-82057371D01*
X145210360Y-82676419D02*
X145210360Y-81676419D01*
X145305598Y-82295466D02*
X145591312Y-82676419D01*
X145591312Y-82009752D02*
X145210360Y-82390704D01*
X141353217Y-91296609D02*
X141019884Y-91296609D01*
X141019884Y-91820419D02*
X141019884Y-90820419D01*
X141019884Y-90820419D02*
X141496074Y-90820419D01*
X141877027Y-91725180D02*
X141924646Y-91772800D01*
X141924646Y-91772800D02*
X141877027Y-91820419D01*
X141877027Y-91820419D02*
X141829408Y-91772800D01*
X141829408Y-91772800D02*
X141877027Y-91725180D01*
X141877027Y-91725180D02*
X141877027Y-91820419D01*
X142305598Y-91772800D02*
X142448455Y-91820419D01*
X142448455Y-91820419D02*
X142686550Y-91820419D01*
X142686550Y-91820419D02*
X142781788Y-91772800D01*
X142781788Y-91772800D02*
X142829407Y-91725180D01*
X142829407Y-91725180D02*
X142877026Y-91629942D01*
X142877026Y-91629942D02*
X142877026Y-91534704D01*
X142877026Y-91534704D02*
X142829407Y-91439466D01*
X142829407Y-91439466D02*
X142781788Y-91391847D01*
X142781788Y-91391847D02*
X142686550Y-91344228D01*
X142686550Y-91344228D02*
X142496074Y-91296609D01*
X142496074Y-91296609D02*
X142400836Y-91248990D01*
X142400836Y-91248990D02*
X142353217Y-91201371D01*
X142353217Y-91201371D02*
X142305598Y-91106133D01*
X142305598Y-91106133D02*
X142305598Y-91010895D01*
X142305598Y-91010895D02*
X142353217Y-90915657D01*
X142353217Y-90915657D02*
X142400836Y-90868038D01*
X142400836Y-90868038D02*
X142496074Y-90820419D01*
X142496074Y-90820419D02*
X142734169Y-90820419D01*
X142734169Y-90820419D02*
X142877026Y-90868038D01*
X143305598Y-91820419D02*
X143305598Y-91153752D01*
X143305598Y-90820419D02*
X143257979Y-90868038D01*
X143257979Y-90868038D02*
X143305598Y-90915657D01*
X143305598Y-90915657D02*
X143353217Y-90868038D01*
X143353217Y-90868038D02*
X143305598Y-90820419D01*
X143305598Y-90820419D02*
X143305598Y-90915657D01*
X143924645Y-91820419D02*
X143829407Y-91772800D01*
X143829407Y-91772800D02*
X143781788Y-91677561D01*
X143781788Y-91677561D02*
X143781788Y-90820419D01*
X144305598Y-91820419D02*
X144305598Y-90820419D01*
X144400836Y-91439466D02*
X144686550Y-91820419D01*
X144686550Y-91153752D02*
X144305598Y-91534704D01*
X145067503Y-91772800D02*
X145210360Y-91820419D01*
X145210360Y-91820419D02*
X145448455Y-91820419D01*
X145448455Y-91820419D02*
X145543693Y-91772800D01*
X145543693Y-91772800D02*
X145591312Y-91725180D01*
X145591312Y-91725180D02*
X145638931Y-91629942D01*
X145638931Y-91629942D02*
X145638931Y-91534704D01*
X145638931Y-91534704D02*
X145591312Y-91439466D01*
X145591312Y-91439466D02*
X145543693Y-91391847D01*
X145543693Y-91391847D02*
X145448455Y-91344228D01*
X145448455Y-91344228D02*
X145257979Y-91296609D01*
X145257979Y-91296609D02*
X145162741Y-91248990D01*
X145162741Y-91248990D02*
X145115122Y-91201371D01*
X145115122Y-91201371D02*
X145067503Y-91106133D01*
X145067503Y-91106133D02*
X145067503Y-91010895D01*
X145067503Y-91010895D02*
X145115122Y-90915657D01*
X145115122Y-90915657D02*
X145162741Y-90868038D01*
X145162741Y-90868038D02*
X145257979Y-90820419D01*
X145257979Y-90820419D02*
X145496074Y-90820419D01*
X145496074Y-90820419D02*
X145638931Y-90868038D01*
X82469639Y-60308609D02*
X82136306Y-60308609D01*
X82136306Y-60832419D02*
X82136306Y-59832419D01*
X82136306Y-59832419D02*
X82612496Y-59832419D01*
X82993449Y-60737180D02*
X83041068Y-60784800D01*
X83041068Y-60784800D02*
X82993449Y-60832419D01*
X82993449Y-60832419D02*
X82945830Y-60784800D01*
X82945830Y-60784800D02*
X82993449Y-60737180D01*
X82993449Y-60737180D02*
X82993449Y-60832419D01*
X84041067Y-60737180D02*
X83993448Y-60784800D01*
X83993448Y-60784800D02*
X83850591Y-60832419D01*
X83850591Y-60832419D02*
X83755353Y-60832419D01*
X83755353Y-60832419D02*
X83612496Y-60784800D01*
X83612496Y-60784800D02*
X83517258Y-60689561D01*
X83517258Y-60689561D02*
X83469639Y-60594323D01*
X83469639Y-60594323D02*
X83422020Y-60403847D01*
X83422020Y-60403847D02*
X83422020Y-60260990D01*
X83422020Y-60260990D02*
X83469639Y-60070514D01*
X83469639Y-60070514D02*
X83517258Y-59975276D01*
X83517258Y-59975276D02*
X83612496Y-59880038D01*
X83612496Y-59880038D02*
X83755353Y-59832419D01*
X83755353Y-59832419D02*
X83850591Y-59832419D01*
X83850591Y-59832419D02*
X83993448Y-59880038D01*
X83993448Y-59880038D02*
X84041067Y-59927657D01*
X84898210Y-60165752D02*
X84898210Y-60832419D01*
X84469639Y-60165752D02*
X84469639Y-60689561D01*
X84469639Y-60689561D02*
X84517258Y-60784800D01*
X84517258Y-60784800D02*
X84612496Y-60832419D01*
X84612496Y-60832419D02*
X84755353Y-60832419D01*
X84755353Y-60832419D02*
X84850591Y-60784800D01*
X84850591Y-60784800D02*
X84898210Y-60737180D01*
X86136306Y-60451466D02*
X86898211Y-60451466D01*
X86517258Y-60832419D02*
X86517258Y-60070514D01*
X88469639Y-60308609D02*
X88136306Y-60308609D01*
X88136306Y-60832419D02*
X88136306Y-59832419D01*
X88136306Y-59832419D02*
X88612496Y-59832419D01*
X88993449Y-60737180D02*
X89041068Y-60784800D01*
X89041068Y-60784800D02*
X88993449Y-60832419D01*
X88993449Y-60832419D02*
X88945830Y-60784800D01*
X88945830Y-60784800D02*
X88993449Y-60737180D01*
X88993449Y-60737180D02*
X88993449Y-60832419D01*
X89469639Y-60832419D02*
X89469639Y-59832419D01*
X89469639Y-59832419D02*
X89802972Y-60546704D01*
X89802972Y-60546704D02*
X90136305Y-59832419D01*
X90136305Y-59832419D02*
X90136305Y-60832419D01*
X91041067Y-60832419D02*
X91041067Y-60308609D01*
X91041067Y-60308609D02*
X90993448Y-60213371D01*
X90993448Y-60213371D02*
X90898210Y-60165752D01*
X90898210Y-60165752D02*
X90707734Y-60165752D01*
X90707734Y-60165752D02*
X90612496Y-60213371D01*
X91041067Y-60784800D02*
X90945829Y-60832419D01*
X90945829Y-60832419D02*
X90707734Y-60832419D01*
X90707734Y-60832419D02*
X90612496Y-60784800D01*
X90612496Y-60784800D02*
X90564877Y-60689561D01*
X90564877Y-60689561D02*
X90564877Y-60594323D01*
X90564877Y-60594323D02*
X90612496Y-60499085D01*
X90612496Y-60499085D02*
X90707734Y-60451466D01*
X90707734Y-60451466D02*
X90945829Y-60451466D01*
X90945829Y-60451466D02*
X91041067Y-60403847D01*
X91469639Y-60784800D02*
X91564877Y-60832419D01*
X91564877Y-60832419D02*
X91755353Y-60832419D01*
X91755353Y-60832419D02*
X91850591Y-60784800D01*
X91850591Y-60784800D02*
X91898210Y-60689561D01*
X91898210Y-60689561D02*
X91898210Y-60641942D01*
X91898210Y-60641942D02*
X91850591Y-60546704D01*
X91850591Y-60546704D02*
X91755353Y-60499085D01*
X91755353Y-60499085D02*
X91612496Y-60499085D01*
X91612496Y-60499085D02*
X91517258Y-60451466D01*
X91517258Y-60451466D02*
X91469639Y-60356228D01*
X91469639Y-60356228D02*
X91469639Y-60308609D01*
X91469639Y-60308609D02*
X91517258Y-60213371D01*
X91517258Y-60213371D02*
X91612496Y-60165752D01*
X91612496Y-60165752D02*
X91755353Y-60165752D01*
X91755353Y-60165752D02*
X91850591Y-60213371D01*
X92326782Y-60832419D02*
X92326782Y-59832419D01*
X92422020Y-60451466D02*
X92707734Y-60832419D01*
X92707734Y-60165752D02*
X92326782Y-60546704D01*
X90231544Y-69452609D02*
X89898211Y-69452609D01*
X89898211Y-69976419D02*
X89898211Y-68976419D01*
X89898211Y-68976419D02*
X90374401Y-68976419D01*
X90755354Y-69881180D02*
X90802973Y-69928800D01*
X90802973Y-69928800D02*
X90755354Y-69976419D01*
X90755354Y-69976419D02*
X90707735Y-69928800D01*
X90707735Y-69928800D02*
X90755354Y-69881180D01*
X90755354Y-69881180D02*
X90755354Y-69976419D01*
X91802972Y-69881180D02*
X91755353Y-69928800D01*
X91755353Y-69928800D02*
X91612496Y-69976419D01*
X91612496Y-69976419D02*
X91517258Y-69976419D01*
X91517258Y-69976419D02*
X91374401Y-69928800D01*
X91374401Y-69928800D02*
X91279163Y-69833561D01*
X91279163Y-69833561D02*
X91231544Y-69738323D01*
X91231544Y-69738323D02*
X91183925Y-69547847D01*
X91183925Y-69547847D02*
X91183925Y-69404990D01*
X91183925Y-69404990D02*
X91231544Y-69214514D01*
X91231544Y-69214514D02*
X91279163Y-69119276D01*
X91279163Y-69119276D02*
X91374401Y-69024038D01*
X91374401Y-69024038D02*
X91517258Y-68976419D01*
X91517258Y-68976419D02*
X91612496Y-68976419D01*
X91612496Y-68976419D02*
X91755353Y-69024038D01*
X91755353Y-69024038D02*
X91802972Y-69071657D01*
X92660115Y-69309752D02*
X92660115Y-69976419D01*
X92231544Y-69309752D02*
X92231544Y-69833561D01*
X92231544Y-69833561D02*
X92279163Y-69928800D01*
X92279163Y-69928800D02*
X92374401Y-69976419D01*
X92374401Y-69976419D02*
X92517258Y-69976419D01*
X92517258Y-69976419D02*
X92612496Y-69928800D01*
X92612496Y-69928800D02*
X92660115Y-69881180D01*
X82469639Y-82152609D02*
X82136306Y-82152609D01*
X82136306Y-82676419D02*
X82136306Y-81676419D01*
X82136306Y-81676419D02*
X82612496Y-81676419D01*
X82993449Y-82581180D02*
X83041068Y-82628800D01*
X83041068Y-82628800D02*
X82993449Y-82676419D01*
X82993449Y-82676419D02*
X82945830Y-82628800D01*
X82945830Y-82628800D02*
X82993449Y-82581180D01*
X82993449Y-82581180D02*
X82993449Y-82676419D01*
X84041067Y-82581180D02*
X83993448Y-82628800D01*
X83993448Y-82628800D02*
X83850591Y-82676419D01*
X83850591Y-82676419D02*
X83755353Y-82676419D01*
X83755353Y-82676419D02*
X83612496Y-82628800D01*
X83612496Y-82628800D02*
X83517258Y-82533561D01*
X83517258Y-82533561D02*
X83469639Y-82438323D01*
X83469639Y-82438323D02*
X83422020Y-82247847D01*
X83422020Y-82247847D02*
X83422020Y-82104990D01*
X83422020Y-82104990D02*
X83469639Y-81914514D01*
X83469639Y-81914514D02*
X83517258Y-81819276D01*
X83517258Y-81819276D02*
X83612496Y-81724038D01*
X83612496Y-81724038D02*
X83755353Y-81676419D01*
X83755353Y-81676419D02*
X83850591Y-81676419D01*
X83850591Y-81676419D02*
X83993448Y-81724038D01*
X83993448Y-81724038D02*
X84041067Y-81771657D01*
X84898210Y-82009752D02*
X84898210Y-82676419D01*
X84469639Y-82009752D02*
X84469639Y-82533561D01*
X84469639Y-82533561D02*
X84517258Y-82628800D01*
X84517258Y-82628800D02*
X84612496Y-82676419D01*
X84612496Y-82676419D02*
X84755353Y-82676419D01*
X84755353Y-82676419D02*
X84850591Y-82628800D01*
X84850591Y-82628800D02*
X84898210Y-82581180D01*
X86136306Y-82295466D02*
X86898211Y-82295466D01*
X86517258Y-82676419D02*
X86517258Y-81914514D01*
X88469639Y-82152609D02*
X88136306Y-82152609D01*
X88136306Y-82676419D02*
X88136306Y-81676419D01*
X88136306Y-81676419D02*
X88612496Y-81676419D01*
X88993449Y-82581180D02*
X89041068Y-82628800D01*
X89041068Y-82628800D02*
X88993449Y-82676419D01*
X88993449Y-82676419D02*
X88945830Y-82628800D01*
X88945830Y-82628800D02*
X88993449Y-82581180D01*
X88993449Y-82581180D02*
X88993449Y-82676419D01*
X89469639Y-82676419D02*
X89469639Y-81676419D01*
X89469639Y-81676419D02*
X89802972Y-82390704D01*
X89802972Y-82390704D02*
X90136305Y-81676419D01*
X90136305Y-81676419D02*
X90136305Y-82676419D01*
X91041067Y-82676419D02*
X91041067Y-82152609D01*
X91041067Y-82152609D02*
X90993448Y-82057371D01*
X90993448Y-82057371D02*
X90898210Y-82009752D01*
X90898210Y-82009752D02*
X90707734Y-82009752D01*
X90707734Y-82009752D02*
X90612496Y-82057371D01*
X91041067Y-82628800D02*
X90945829Y-82676419D01*
X90945829Y-82676419D02*
X90707734Y-82676419D01*
X90707734Y-82676419D02*
X90612496Y-82628800D01*
X90612496Y-82628800D02*
X90564877Y-82533561D01*
X90564877Y-82533561D02*
X90564877Y-82438323D01*
X90564877Y-82438323D02*
X90612496Y-82343085D01*
X90612496Y-82343085D02*
X90707734Y-82295466D01*
X90707734Y-82295466D02*
X90945829Y-82295466D01*
X90945829Y-82295466D02*
X91041067Y-82247847D01*
X91469639Y-82628800D02*
X91564877Y-82676419D01*
X91564877Y-82676419D02*
X91755353Y-82676419D01*
X91755353Y-82676419D02*
X91850591Y-82628800D01*
X91850591Y-82628800D02*
X91898210Y-82533561D01*
X91898210Y-82533561D02*
X91898210Y-82485942D01*
X91898210Y-82485942D02*
X91850591Y-82390704D01*
X91850591Y-82390704D02*
X91755353Y-82343085D01*
X91755353Y-82343085D02*
X91612496Y-82343085D01*
X91612496Y-82343085D02*
X91517258Y-82295466D01*
X91517258Y-82295466D02*
X91469639Y-82200228D01*
X91469639Y-82200228D02*
X91469639Y-82152609D01*
X91469639Y-82152609D02*
X91517258Y-82057371D01*
X91517258Y-82057371D02*
X91612496Y-82009752D01*
X91612496Y-82009752D02*
X91755353Y-82009752D01*
X91755353Y-82009752D02*
X91850591Y-82057371D01*
X92326782Y-82676419D02*
X92326782Y-81676419D01*
X92422020Y-82295466D02*
X92707734Y-82676419D01*
X92707734Y-82009752D02*
X92326782Y-82390704D01*
X90231544Y-91296609D02*
X89898211Y-91296609D01*
X89898211Y-91820419D02*
X89898211Y-90820419D01*
X89898211Y-90820419D02*
X90374401Y-90820419D01*
X90755354Y-91725180D02*
X90802973Y-91772800D01*
X90802973Y-91772800D02*
X90755354Y-91820419D01*
X90755354Y-91820419D02*
X90707735Y-91772800D01*
X90707735Y-91772800D02*
X90755354Y-91725180D01*
X90755354Y-91725180D02*
X90755354Y-91820419D01*
X91802972Y-91725180D02*
X91755353Y-91772800D01*
X91755353Y-91772800D02*
X91612496Y-91820419D01*
X91612496Y-91820419D02*
X91517258Y-91820419D01*
X91517258Y-91820419D02*
X91374401Y-91772800D01*
X91374401Y-91772800D02*
X91279163Y-91677561D01*
X91279163Y-91677561D02*
X91231544Y-91582323D01*
X91231544Y-91582323D02*
X91183925Y-91391847D01*
X91183925Y-91391847D02*
X91183925Y-91248990D01*
X91183925Y-91248990D02*
X91231544Y-91058514D01*
X91231544Y-91058514D02*
X91279163Y-90963276D01*
X91279163Y-90963276D02*
X91374401Y-90868038D01*
X91374401Y-90868038D02*
X91517258Y-90820419D01*
X91517258Y-90820419D02*
X91612496Y-90820419D01*
X91612496Y-90820419D02*
X91755353Y-90868038D01*
X91755353Y-90868038D02*
X91802972Y-90915657D01*
X92660115Y-91153752D02*
X92660115Y-91820419D01*
X92231544Y-91153752D02*
X92231544Y-91677561D01*
X92231544Y-91677561D02*
X92279163Y-91772800D01*
X92279163Y-91772800D02*
X92374401Y-91820419D01*
X92374401Y-91820419D02*
X92517258Y-91820419D01*
X92517258Y-91820419D02*
X92612496Y-91772800D01*
X92612496Y-91772800D02*
X92660115Y-91725180D01*
D11*
G04 #@! TO.C,svg2mod*
G36*
X116238094Y-74715441D02*
G01*
X116238094Y-75090095D01*
X115489302Y-75090095D01*
X105488362Y-75090095D01*
X105488362Y-74339753D01*
X105488362Y-65090187D01*
X96238281Y-65090187D01*
X96238281Y-74339753D01*
X105488362Y-74339753D01*
X105488362Y-75090095D01*
X95488456Y-75090095D01*
X95488456Y-64339845D01*
X96238281Y-64339845D01*
X105488362Y-64339845D01*
X106238187Y-64339845D01*
X115489302Y-64339845D01*
X115489302Y-55090280D01*
X106238187Y-55090280D01*
X106238187Y-64339845D01*
X105488362Y-64339845D01*
X105488362Y-55090280D01*
X96238281Y-55090280D01*
X96238281Y-64339845D01*
X95488456Y-64339845D01*
X95488456Y-54339938D01*
X116238094Y-54339938D01*
X116238094Y-74715441D01*
G37*
G36*
X116238094Y-97465802D02*
G01*
X116238094Y-97840456D01*
X115489302Y-97840456D01*
X105488362Y-97840456D01*
X105488362Y-97090114D01*
X105488362Y-87840549D01*
X96238281Y-87840549D01*
X96238281Y-97090114D01*
X105488362Y-97090114D01*
X105488362Y-97840456D01*
X95488456Y-97840456D01*
X95488456Y-87090207D01*
X96238281Y-87090207D01*
X105488362Y-87090207D01*
X106238187Y-87090207D01*
X115489302Y-87090207D01*
X115489302Y-77840641D01*
X106238187Y-77840641D01*
X106238187Y-87090207D01*
X105488362Y-87090207D01*
X105488362Y-77840641D01*
X96238281Y-77840641D01*
X96238281Y-87090207D01*
X95488456Y-87090207D01*
X95488456Y-77090300D01*
X116238094Y-77090300D01*
X116238094Y-97465802D01*
G37*
G36*
X138988453Y-97465802D02*
G01*
X138988453Y-97840456D01*
X138239662Y-97840456D01*
X128238720Y-97840456D01*
X128238720Y-97090114D01*
X128238720Y-87840549D01*
X118988638Y-87840549D01*
X118988638Y-97090114D01*
X128238720Y-97090114D01*
X128238720Y-97840456D01*
X118238813Y-97840456D01*
X118238813Y-87090207D01*
X118988638Y-87090207D01*
X128238720Y-87090207D01*
X128988545Y-87090207D01*
X138239662Y-87090207D01*
X138239662Y-77840643D01*
X128988545Y-77840643D01*
X128988545Y-87090207D01*
X128238720Y-87090207D01*
X128238720Y-77840643D01*
X118988638Y-77840643D01*
X118988638Y-87090207D01*
X118238813Y-87090207D01*
X118238813Y-77090301D01*
X138988453Y-77090301D01*
X138988453Y-97465802D01*
G37*
G36*
X138988453Y-74715440D02*
G01*
X138988453Y-75090094D01*
X138239662Y-75090094D01*
X128238723Y-75090094D01*
X118238816Y-75090094D01*
X118238816Y-65090187D01*
X118988641Y-65090187D01*
X118988641Y-74339752D01*
X128238723Y-74339752D01*
X128238723Y-65090187D01*
X118988641Y-65090187D01*
X118238816Y-65090187D01*
X118238816Y-64339845D01*
X118988641Y-64339845D01*
X128238723Y-64339845D01*
X128988548Y-64339845D01*
X138239662Y-64339845D01*
X138239662Y-55090280D01*
X128988548Y-55090280D01*
X128988548Y-64339845D01*
X128238723Y-64339845D01*
X128238723Y-55090280D01*
X118988641Y-55090280D01*
X118988641Y-64339845D01*
X118238816Y-64339845D01*
X118238816Y-54339938D01*
X138988453Y-54339938D01*
X138988453Y-74715440D01*
G37*
G04 #@! TD*
M02*
