G04 #@! TF.GenerationSoftware,KiCad,Pcbnew,10.0.1*
G04 #@! TF.CreationDate,2026-05-30T16:04:42-04:00*
G04 #@! TF.ProjectId,NYCpalette,4e594370-616c-4657-9474-652e6b696361,rev?*
G04 #@! TF.SameCoordinates,Original*
G04 #@! TF.FileFunction,Legend,Bot*
G04 #@! TF.FilePolarity,Positive*
%FSLAX46Y46*%
G04 Gerber Fmt 4.6, Leading zero omitted, Abs format (unit mm)*
G04 Created by KiCad (PCBNEW 10.0.1) date 2026-05-30 16:04:42*
%MOMM*%
%LPD*%
G01*
G04 APERTURE LIST*
%ADD10C,0.250000*%
%ADD11C,0.000000*%
G04 APERTURE END LIST*
D10*
X91148669Y-63546731D02*
X90862955Y-63641969D01*
X90862955Y-63641969D02*
X90767717Y-63737207D01*
X90767717Y-63737207D02*
X90672479Y-63927683D01*
X90672479Y-63927683D02*
X90672479Y-64213397D01*
X90672479Y-64213397D02*
X90767717Y-64403873D01*
X90767717Y-64403873D02*
X90862955Y-64499112D01*
X90862955Y-64499112D02*
X91053431Y-64594350D01*
X91053431Y-64594350D02*
X91815336Y-64594350D01*
X91815336Y-64594350D02*
X91815336Y-62594350D01*
X91815336Y-62594350D02*
X91148669Y-62594350D01*
X91148669Y-62594350D02*
X90958193Y-62689588D01*
X90958193Y-62689588D02*
X90862955Y-62784826D01*
X90862955Y-62784826D02*
X90767717Y-62975302D01*
X90767717Y-62975302D02*
X90767717Y-63165778D01*
X90767717Y-63165778D02*
X90862955Y-63356254D01*
X90862955Y-63356254D02*
X90958193Y-63451492D01*
X90958193Y-63451492D02*
X91148669Y-63546731D01*
X91148669Y-63546731D02*
X91815336Y-63546731D01*
X89815336Y-64403873D02*
X89720098Y-64499112D01*
X89720098Y-64499112D02*
X89815336Y-64594350D01*
X89815336Y-64594350D02*
X89910574Y-64499112D01*
X89910574Y-64499112D02*
X89815336Y-64403873D01*
X89815336Y-64403873D02*
X89815336Y-64594350D01*
X87720098Y-64403873D02*
X87815336Y-64499112D01*
X87815336Y-64499112D02*
X88101050Y-64594350D01*
X88101050Y-64594350D02*
X88291526Y-64594350D01*
X88291526Y-64594350D02*
X88577241Y-64499112D01*
X88577241Y-64499112D02*
X88767717Y-64308635D01*
X88767717Y-64308635D02*
X88862955Y-64118159D01*
X88862955Y-64118159D02*
X88958193Y-63737207D01*
X88958193Y-63737207D02*
X88958193Y-63451492D01*
X88958193Y-63451492D02*
X88862955Y-63070540D01*
X88862955Y-63070540D02*
X88767717Y-62880064D01*
X88767717Y-62880064D02*
X88577241Y-62689588D01*
X88577241Y-62689588D02*
X88291526Y-62594350D01*
X88291526Y-62594350D02*
X88101050Y-62594350D01*
X88101050Y-62594350D02*
X87815336Y-62689588D01*
X87815336Y-62689588D02*
X87720098Y-62784826D01*
X86005812Y-63261016D02*
X86005812Y-64594350D01*
X86862955Y-63261016D02*
X86862955Y-64308635D01*
X86862955Y-64308635D02*
X86767717Y-64499112D01*
X86767717Y-64499112D02*
X86577241Y-64594350D01*
X86577241Y-64594350D02*
X86291526Y-64594350D01*
X86291526Y-64594350D02*
X86101050Y-64499112D01*
X86101050Y-64499112D02*
X86005812Y-64403873D01*
X91815336Y-67052333D02*
X90291527Y-67052333D01*
X91053431Y-67814238D02*
X91053431Y-66290428D01*
X87148669Y-66766619D02*
X86862955Y-66861857D01*
X86862955Y-66861857D02*
X86767717Y-66957095D01*
X86767717Y-66957095D02*
X86672479Y-67147571D01*
X86672479Y-67147571D02*
X86672479Y-67433285D01*
X86672479Y-67433285D02*
X86767717Y-67623761D01*
X86767717Y-67623761D02*
X86862955Y-67719000D01*
X86862955Y-67719000D02*
X87053431Y-67814238D01*
X87053431Y-67814238D02*
X87815336Y-67814238D01*
X87815336Y-67814238D02*
X87815336Y-65814238D01*
X87815336Y-65814238D02*
X87148669Y-65814238D01*
X87148669Y-65814238D02*
X86958193Y-65909476D01*
X86958193Y-65909476D02*
X86862955Y-66004714D01*
X86862955Y-66004714D02*
X86767717Y-66195190D01*
X86767717Y-66195190D02*
X86767717Y-66385666D01*
X86767717Y-66385666D02*
X86862955Y-66576142D01*
X86862955Y-66576142D02*
X86958193Y-66671380D01*
X86958193Y-66671380D02*
X87148669Y-66766619D01*
X87148669Y-66766619D02*
X87815336Y-66766619D01*
X85815336Y-67623761D02*
X85720098Y-67719000D01*
X85720098Y-67719000D02*
X85815336Y-67814238D01*
X85815336Y-67814238D02*
X85910574Y-67719000D01*
X85910574Y-67719000D02*
X85815336Y-67623761D01*
X85815336Y-67623761D02*
X85815336Y-67814238D01*
X84862955Y-67814238D02*
X84862955Y-65814238D01*
X84862955Y-65814238D02*
X84196288Y-67242809D01*
X84196288Y-67242809D02*
X83529622Y-65814238D01*
X83529622Y-65814238D02*
X83529622Y-67814238D01*
X81720098Y-67814238D02*
X81720098Y-66766619D01*
X81720098Y-66766619D02*
X81815336Y-66576142D01*
X81815336Y-66576142D02*
X82005812Y-66480904D01*
X82005812Y-66480904D02*
X82386765Y-66480904D01*
X82386765Y-66480904D02*
X82577241Y-66576142D01*
X81720098Y-67719000D02*
X81910574Y-67814238D01*
X81910574Y-67814238D02*
X82386765Y-67814238D01*
X82386765Y-67814238D02*
X82577241Y-67719000D01*
X82577241Y-67719000D02*
X82672479Y-67528523D01*
X82672479Y-67528523D02*
X82672479Y-67338047D01*
X82672479Y-67338047D02*
X82577241Y-67147571D01*
X82577241Y-67147571D02*
X82386765Y-67052333D01*
X82386765Y-67052333D02*
X81910574Y-67052333D01*
X81910574Y-67052333D02*
X81720098Y-66957095D01*
X80862955Y-67719000D02*
X80672479Y-67814238D01*
X80672479Y-67814238D02*
X80291527Y-67814238D01*
X80291527Y-67814238D02*
X80101050Y-67719000D01*
X80101050Y-67719000D02*
X80005812Y-67528523D01*
X80005812Y-67528523D02*
X80005812Y-67433285D01*
X80005812Y-67433285D02*
X80101050Y-67242809D01*
X80101050Y-67242809D02*
X80291527Y-67147571D01*
X80291527Y-67147571D02*
X80577241Y-67147571D01*
X80577241Y-67147571D02*
X80767717Y-67052333D01*
X80767717Y-67052333D02*
X80862955Y-66861857D01*
X80862955Y-66861857D02*
X80862955Y-66766619D01*
X80862955Y-66766619D02*
X80767717Y-66576142D01*
X80767717Y-66576142D02*
X80577241Y-66480904D01*
X80577241Y-66480904D02*
X80291527Y-66480904D01*
X80291527Y-66480904D02*
X80101050Y-66576142D01*
X79148669Y-67814238D02*
X79148669Y-65814238D01*
X78958193Y-67052333D02*
X78386764Y-67814238D01*
X78386764Y-66480904D02*
X79148669Y-67242809D01*
X92143520Y-87086619D02*
X91857806Y-87181857D01*
X91857806Y-87181857D02*
X91762568Y-87277095D01*
X91762568Y-87277095D02*
X91667330Y-87467571D01*
X91667330Y-87467571D02*
X91667330Y-87753285D01*
X91667330Y-87753285D02*
X91762568Y-87943761D01*
X91762568Y-87943761D02*
X91857806Y-88039000D01*
X91857806Y-88039000D02*
X92048282Y-88134238D01*
X92048282Y-88134238D02*
X92810187Y-88134238D01*
X92810187Y-88134238D02*
X92810187Y-86134238D01*
X92810187Y-86134238D02*
X92143520Y-86134238D01*
X92143520Y-86134238D02*
X91953044Y-86229476D01*
X91953044Y-86229476D02*
X91857806Y-86324714D01*
X91857806Y-86324714D02*
X91762568Y-86515190D01*
X91762568Y-86515190D02*
X91762568Y-86705666D01*
X91762568Y-86705666D02*
X91857806Y-86896142D01*
X91857806Y-86896142D02*
X91953044Y-86991380D01*
X91953044Y-86991380D02*
X92143520Y-87086619D01*
X92143520Y-87086619D02*
X92810187Y-87086619D01*
X90810187Y-87943761D02*
X90714949Y-88039000D01*
X90714949Y-88039000D02*
X90810187Y-88134238D01*
X90810187Y-88134238D02*
X90905425Y-88039000D01*
X90905425Y-88039000D02*
X90810187Y-87943761D01*
X90810187Y-87943761D02*
X90810187Y-88134238D01*
X88714949Y-87943761D02*
X88810187Y-88039000D01*
X88810187Y-88039000D02*
X89095901Y-88134238D01*
X89095901Y-88134238D02*
X89286377Y-88134238D01*
X89286377Y-88134238D02*
X89572092Y-88039000D01*
X89572092Y-88039000D02*
X89762568Y-87848523D01*
X89762568Y-87848523D02*
X89857806Y-87658047D01*
X89857806Y-87658047D02*
X89953044Y-87277095D01*
X89953044Y-87277095D02*
X89953044Y-86991380D01*
X89953044Y-86991380D02*
X89857806Y-86610428D01*
X89857806Y-86610428D02*
X89762568Y-86419952D01*
X89762568Y-86419952D02*
X89572092Y-86229476D01*
X89572092Y-86229476D02*
X89286377Y-86134238D01*
X89286377Y-86134238D02*
X89095901Y-86134238D01*
X89095901Y-86134238D02*
X88810187Y-86229476D01*
X88810187Y-86229476D02*
X88714949Y-86324714D01*
X87000663Y-86800904D02*
X87000663Y-88134238D01*
X87857806Y-86800904D02*
X87857806Y-87848523D01*
X87857806Y-87848523D02*
X87762568Y-88039000D01*
X87762568Y-88039000D02*
X87572092Y-88134238D01*
X87572092Y-88134238D02*
X87286377Y-88134238D01*
X87286377Y-88134238D02*
X87095901Y-88039000D01*
X87095901Y-88039000D02*
X87000663Y-87943761D01*
X150023330Y-64226619D02*
X149737616Y-64321857D01*
X149737616Y-64321857D02*
X149642378Y-64417095D01*
X149642378Y-64417095D02*
X149547140Y-64607571D01*
X149547140Y-64607571D02*
X149547140Y-64893285D01*
X149547140Y-64893285D02*
X149642378Y-65083761D01*
X149642378Y-65083761D02*
X149737616Y-65179000D01*
X149737616Y-65179000D02*
X149928092Y-65274238D01*
X149928092Y-65274238D02*
X150689997Y-65274238D01*
X150689997Y-65274238D02*
X150689997Y-63274238D01*
X150689997Y-63274238D02*
X150023330Y-63274238D01*
X150023330Y-63274238D02*
X149832854Y-63369476D01*
X149832854Y-63369476D02*
X149737616Y-63464714D01*
X149737616Y-63464714D02*
X149642378Y-63655190D01*
X149642378Y-63655190D02*
X149642378Y-63845666D01*
X149642378Y-63845666D02*
X149737616Y-64036142D01*
X149737616Y-64036142D02*
X149832854Y-64131380D01*
X149832854Y-64131380D02*
X150023330Y-64226619D01*
X150023330Y-64226619D02*
X150689997Y-64226619D01*
X148689997Y-65083761D02*
X148594759Y-65179000D01*
X148594759Y-65179000D02*
X148689997Y-65274238D01*
X148689997Y-65274238D02*
X148785235Y-65179000D01*
X148785235Y-65179000D02*
X148689997Y-65083761D01*
X148689997Y-65083761D02*
X148689997Y-65274238D01*
X147737616Y-65274238D02*
X147737616Y-63274238D01*
X147737616Y-63274238D02*
X147070949Y-64702809D01*
X147070949Y-64702809D02*
X146404283Y-63274238D01*
X146404283Y-63274238D02*
X146404283Y-65274238D01*
X144594759Y-65274238D02*
X144594759Y-64226619D01*
X144594759Y-64226619D02*
X144689997Y-64036142D01*
X144689997Y-64036142D02*
X144880473Y-63940904D01*
X144880473Y-63940904D02*
X145261426Y-63940904D01*
X145261426Y-63940904D02*
X145451902Y-64036142D01*
X144594759Y-65179000D02*
X144785235Y-65274238D01*
X144785235Y-65274238D02*
X145261426Y-65274238D01*
X145261426Y-65274238D02*
X145451902Y-65179000D01*
X145451902Y-65179000D02*
X145547140Y-64988523D01*
X145547140Y-64988523D02*
X145547140Y-64798047D01*
X145547140Y-64798047D02*
X145451902Y-64607571D01*
X145451902Y-64607571D02*
X145261426Y-64512333D01*
X145261426Y-64512333D02*
X144785235Y-64512333D01*
X144785235Y-64512333D02*
X144594759Y-64417095D01*
X143737616Y-65179000D02*
X143547140Y-65274238D01*
X143547140Y-65274238D02*
X143166188Y-65274238D01*
X143166188Y-65274238D02*
X142975711Y-65179000D01*
X142975711Y-65179000D02*
X142880473Y-64988523D01*
X142880473Y-64988523D02*
X142880473Y-64893285D01*
X142880473Y-64893285D02*
X142975711Y-64702809D01*
X142975711Y-64702809D02*
X143166188Y-64607571D01*
X143166188Y-64607571D02*
X143451902Y-64607571D01*
X143451902Y-64607571D02*
X143642378Y-64512333D01*
X143642378Y-64512333D02*
X143737616Y-64321857D01*
X143737616Y-64321857D02*
X143737616Y-64226619D01*
X143737616Y-64226619D02*
X143642378Y-64036142D01*
X143642378Y-64036142D02*
X143451902Y-63940904D01*
X143451902Y-63940904D02*
X143166188Y-63940904D01*
X143166188Y-63940904D02*
X142975711Y-64036142D01*
X142023330Y-65274238D02*
X142023330Y-63274238D01*
X141832854Y-64512333D02*
X141261425Y-65274238D01*
X141261425Y-63940904D02*
X142023330Y-64702809D01*
X150626568Y-87086619D02*
X150340854Y-87181857D01*
X150340854Y-87181857D02*
X150245616Y-87277095D01*
X150245616Y-87277095D02*
X150150378Y-87467571D01*
X150150378Y-87467571D02*
X150150378Y-87753285D01*
X150150378Y-87753285D02*
X150245616Y-87943761D01*
X150245616Y-87943761D02*
X150340854Y-88039000D01*
X150340854Y-88039000D02*
X150531330Y-88134238D01*
X150531330Y-88134238D02*
X151293235Y-88134238D01*
X151293235Y-88134238D02*
X151293235Y-86134238D01*
X151293235Y-86134238D02*
X150626568Y-86134238D01*
X150626568Y-86134238D02*
X150436092Y-86229476D01*
X150436092Y-86229476D02*
X150340854Y-86324714D01*
X150340854Y-86324714D02*
X150245616Y-86515190D01*
X150245616Y-86515190D02*
X150245616Y-86705666D01*
X150245616Y-86705666D02*
X150340854Y-86896142D01*
X150340854Y-86896142D02*
X150436092Y-86991380D01*
X150436092Y-86991380D02*
X150626568Y-87086619D01*
X150626568Y-87086619D02*
X151293235Y-87086619D01*
X149293235Y-87943761D02*
X149197997Y-88039000D01*
X149197997Y-88039000D02*
X149293235Y-88134238D01*
X149293235Y-88134238D02*
X149388473Y-88039000D01*
X149388473Y-88039000D02*
X149293235Y-87943761D01*
X149293235Y-87943761D02*
X149293235Y-88134238D01*
X148436092Y-88039000D02*
X148150378Y-88134238D01*
X148150378Y-88134238D02*
X147674187Y-88134238D01*
X147674187Y-88134238D02*
X147483711Y-88039000D01*
X147483711Y-88039000D02*
X147388473Y-87943761D01*
X147388473Y-87943761D02*
X147293235Y-87753285D01*
X147293235Y-87753285D02*
X147293235Y-87562809D01*
X147293235Y-87562809D02*
X147388473Y-87372333D01*
X147388473Y-87372333D02*
X147483711Y-87277095D01*
X147483711Y-87277095D02*
X147674187Y-87181857D01*
X147674187Y-87181857D02*
X148055140Y-87086619D01*
X148055140Y-87086619D02*
X148245616Y-86991380D01*
X148245616Y-86991380D02*
X148340854Y-86896142D01*
X148340854Y-86896142D02*
X148436092Y-86705666D01*
X148436092Y-86705666D02*
X148436092Y-86515190D01*
X148436092Y-86515190D02*
X148340854Y-86324714D01*
X148340854Y-86324714D02*
X148245616Y-86229476D01*
X148245616Y-86229476D02*
X148055140Y-86134238D01*
X148055140Y-86134238D02*
X147578949Y-86134238D01*
X147578949Y-86134238D02*
X147293235Y-86229476D01*
X146436092Y-88134238D02*
X146436092Y-86800904D01*
X146436092Y-86134238D02*
X146531330Y-86229476D01*
X146531330Y-86229476D02*
X146436092Y-86324714D01*
X146436092Y-86324714D02*
X146340854Y-86229476D01*
X146340854Y-86229476D02*
X146436092Y-86134238D01*
X146436092Y-86134238D02*
X146436092Y-86324714D01*
X145197997Y-88134238D02*
X145388473Y-88039000D01*
X145388473Y-88039000D02*
X145483711Y-87848523D01*
X145483711Y-87848523D02*
X145483711Y-86134238D01*
X144436092Y-88134238D02*
X144436092Y-86134238D01*
X144245616Y-87372333D02*
X143674187Y-88134238D01*
X143674187Y-86800904D02*
X144436092Y-87562809D01*
X142912282Y-88039000D02*
X142626568Y-88134238D01*
X142626568Y-88134238D02*
X142150377Y-88134238D01*
X142150377Y-88134238D02*
X141959901Y-88039000D01*
X141959901Y-88039000D02*
X141864663Y-87943761D01*
X141864663Y-87943761D02*
X141769425Y-87753285D01*
X141769425Y-87753285D02*
X141769425Y-87562809D01*
X141769425Y-87562809D02*
X141864663Y-87372333D01*
X141864663Y-87372333D02*
X141959901Y-87277095D01*
X141959901Y-87277095D02*
X142150377Y-87181857D01*
X142150377Y-87181857D02*
X142531330Y-87086619D01*
X142531330Y-87086619D02*
X142721806Y-86991380D01*
X142721806Y-86991380D02*
X142817044Y-86896142D01*
X142817044Y-86896142D02*
X142912282Y-86705666D01*
X142912282Y-86705666D02*
X142912282Y-86515190D01*
X142912282Y-86515190D02*
X142817044Y-86324714D01*
X142817044Y-86324714D02*
X142721806Y-86229476D01*
X142721806Y-86229476D02*
X142531330Y-86134238D01*
X142531330Y-86134238D02*
X142055139Y-86134238D01*
X142055139Y-86134238D02*
X141769425Y-86229476D01*
D11*
G04 #@! TO.C,svg2mod*
G36*
X120512637Y-84157647D02*
G01*
X120512637Y-84764900D01*
X120202549Y-84764900D01*
X119892461Y-84764900D01*
X119892461Y-84157647D01*
X119892461Y-83550395D01*
X120202549Y-83550395D01*
X120512637Y-83550395D01*
X120512637Y-84157647D01*
G37*
G36*
X122902884Y-80850210D02*
G01*
X122902884Y-81754628D01*
X122004923Y-81754628D01*
X121106966Y-81754628D01*
X121106966Y-80850210D01*
X121106966Y-79945793D01*
X122004923Y-79945793D01*
X122902884Y-79945793D01*
X122902884Y-80850210D01*
G37*
G36*
X124117384Y-92265255D02*
G01*
X124117384Y-92568879D01*
X123813761Y-92568879D01*
X123510132Y-92568879D01*
X123510132Y-92265255D01*
X123510132Y-91961626D01*
X123813761Y-91961626D01*
X124117384Y-91961626D01*
X124117384Y-92265255D01*
G37*
G36*
X124724636Y-86257190D02*
G01*
X124724636Y-86560813D01*
X124414553Y-86560813D01*
X124104465Y-86560813D01*
X124104465Y-86257190D01*
X124104465Y-85953562D01*
X124414553Y-85953562D01*
X124724636Y-85953562D01*
X124724636Y-86257190D01*
G37*
G36*
X125318970Y-81451002D02*
G01*
X125318970Y-81754628D01*
X125015347Y-81754628D01*
X124711718Y-81754628D01*
X124711718Y-81451002D01*
X124711718Y-81147376D01*
X125015347Y-81147376D01*
X125318970Y-81147376D01*
X125318970Y-81451002D01*
G37*
G36*
X125318970Y-82652585D02*
G01*
X125318970Y-82956214D01*
X125015347Y-82956214D01*
X124711718Y-82956214D01*
X124711718Y-82652585D01*
X124711718Y-82348962D01*
X125015347Y-82348962D01*
X125318970Y-82348962D01*
X125318970Y-82652585D01*
G37*
G36*
X129530973Y-90462877D02*
G01*
X129530973Y-90772964D01*
X129220885Y-90772964D01*
X128910799Y-90772964D01*
X128910799Y-90462877D01*
X128910799Y-90152794D01*
X129220885Y-90152794D01*
X129530973Y-90152794D01*
X129530973Y-90462877D01*
G37*
G36*
X136133220Y-80850299D02*
G01*
X136132881Y-81754568D01*
X135231694Y-81751368D01*
X134330508Y-81748168D01*
X134327408Y-80846981D01*
X134324208Y-79945793D01*
X135228714Y-79945793D01*
X136133220Y-79945793D01*
X136133220Y-80850299D01*
G37*
G36*
X136133220Y-94073828D02*
G01*
X136133220Y-94971945D01*
X135228804Y-94971945D01*
X134324383Y-94971945D01*
X134324383Y-94073988D01*
X134324383Y-93176030D01*
X135228804Y-93176030D01*
X136133220Y-93176030D01*
X136133220Y-94073828D01*
G37*
G36*
X126520555Y-95572838D02*
G01*
X126520555Y-96186549D01*
X125913304Y-96186549D01*
X125306052Y-96186549D01*
X125306052Y-95876461D01*
X125306052Y-95566378D01*
X125609675Y-95566378D01*
X125913304Y-95566378D01*
X125913304Y-95262751D01*
X125913304Y-94959126D01*
X126216927Y-94959126D01*
X126520555Y-94959126D01*
X126520555Y-95572838D01*
G37*
G36*
X124104465Y-80850210D02*
G01*
X124104465Y-82956214D01*
X123510132Y-82956214D01*
X122004923Y-82956214D01*
X119905385Y-82956214D01*
X119905385Y-80850210D01*
X120499713Y-80850210D01*
X120499713Y-82348962D01*
X122004923Y-82348962D01*
X123510132Y-82348962D01*
X123510132Y-80850210D01*
X123510132Y-79351461D01*
X122004923Y-79351461D01*
X120499713Y-79351461D01*
X120499713Y-80850210D01*
X119905385Y-80850210D01*
X119905385Y-78744210D01*
X122004923Y-78744210D01*
X124104465Y-78744210D01*
X124104465Y-80850210D01*
G37*
G36*
X137321883Y-80850210D02*
G01*
X137321883Y-82956214D01*
X136727554Y-82956214D01*
X135222345Y-82956214D01*
X133122801Y-82956214D01*
X133122801Y-80850210D01*
X133717135Y-80850210D01*
X133717135Y-82348962D01*
X135222345Y-82348962D01*
X136727554Y-82348962D01*
X136727554Y-80850210D01*
X136727554Y-79351461D01*
X135222345Y-79351461D01*
X133717135Y-79351461D01*
X133717135Y-80850210D01*
X133122801Y-80850210D01*
X133122801Y-78744210D01*
X135222345Y-78744210D01*
X137321883Y-78744210D01*
X137321883Y-80850210D01*
G37*
G36*
X137321883Y-94067628D02*
G01*
X137321883Y-96173631D01*
X136710337Y-96173631D01*
X135222345Y-96173631D01*
X133122801Y-96173631D01*
X133122801Y-94067628D01*
X133122801Y-92568749D01*
X133717207Y-92568749D01*
X133720307Y-94070728D01*
X133723714Y-95573141D01*
X135217025Y-95576241D01*
X136710337Y-95579341D01*
X136719037Y-95570641D01*
X136727737Y-95561941D01*
X136727737Y-94065342D01*
X136727737Y-92568749D01*
X135222470Y-92568749D01*
X133717207Y-92568749D01*
X133122801Y-92568749D01*
X133122801Y-91961626D01*
X135222345Y-91961626D01*
X137321883Y-91961626D01*
X137321883Y-94067628D01*
G37*
G36*
X124117384Y-87452311D02*
G01*
X124117384Y-87749476D01*
X124421012Y-87749476D01*
X124724636Y-87749476D01*
X124724636Y-88059564D01*
X124724636Y-88369652D01*
X124414553Y-88369652D01*
X124104465Y-88369652D01*
X124104465Y-88066024D01*
X124104465Y-87762399D01*
X123813761Y-87762399D01*
X123523055Y-87762399D01*
X123523055Y-88066024D01*
X123523055Y-88369652D01*
X122915803Y-88369652D01*
X122308551Y-88369652D01*
X122308551Y-88059564D01*
X122308551Y-87749476D01*
X122909344Y-87749476D01*
X123510132Y-87749476D01*
X123510132Y-87452311D01*
X123510132Y-87155147D01*
X123813761Y-87155147D01*
X124117384Y-87155147D01*
X124117384Y-87452311D01*
G37*
G36*
X137334806Y-83854024D02*
G01*
X137334806Y-84157647D01*
X137037636Y-84157647D01*
X136740472Y-84157647D01*
X136740472Y-84454812D01*
X136740472Y-84751981D01*
X137037636Y-84751981D01*
X137334806Y-84751981D01*
X137334806Y-85055604D01*
X137334806Y-85359233D01*
X137037636Y-85359233D01*
X136740472Y-85359233D01*
X136740472Y-85662857D01*
X136740472Y-85966485D01*
X136727554Y-85966485D01*
X136133220Y-85966485D01*
X135525969Y-85966485D01*
X135525969Y-85359233D01*
X135525969Y-85055604D01*
X136133220Y-85055604D01*
X136133220Y-85346309D01*
X136430384Y-85346309D01*
X136727554Y-85346309D01*
X136727554Y-85055604D01*
X136727554Y-84764900D01*
X136430384Y-84764900D01*
X136133220Y-84764900D01*
X136133220Y-85055604D01*
X135525969Y-85055604D01*
X135525969Y-84751981D01*
X135823132Y-84751981D01*
X136120301Y-84751981D01*
X136120301Y-84151188D01*
X136120301Y-83550395D01*
X136727554Y-83550395D01*
X137334806Y-83550395D01*
X137334806Y-83854024D01*
G37*
G36*
X139988585Y-76090033D02*
G01*
X139988585Y-98840582D01*
X137988188Y-98840582D01*
X137988188Y-96840187D01*
X137988188Y-78090428D01*
X119238428Y-78090428D01*
X119238428Y-96840187D01*
X137988188Y-96840187D01*
X137988188Y-98840582D01*
X117238550Y-98840582D01*
X115238155Y-98840582D01*
X115238155Y-96840187D01*
X115238155Y-78090428D01*
X96488394Y-78090428D01*
X96488394Y-96840187D01*
X115238155Y-96840187D01*
X115238155Y-98840582D01*
X94488000Y-98840582D01*
X94488000Y-77090489D01*
X94488000Y-76090033D01*
X94488000Y-74089638D01*
X96488394Y-74089638D01*
X115238155Y-74089638D01*
X119238945Y-74089638D01*
X137988188Y-74089638D01*
X137988188Y-55340395D01*
X119238945Y-55340395D01*
X119238945Y-74089638D01*
X115238155Y-74089638D01*
X115238155Y-55340395D01*
X96488394Y-55340395D01*
X96488394Y-74089638D01*
X94488000Y-74089638D01*
X94488000Y-54339939D01*
X94488000Y-53340000D01*
X117238550Y-53340000D01*
X139988585Y-53340000D01*
X139988585Y-76090033D01*
G37*
G36*
X127722135Y-79351461D02*
G01*
X127722135Y-79958713D01*
X127121343Y-79958713D01*
X126520555Y-79958713D01*
X126520555Y-80553045D01*
X126520555Y-81147376D01*
X127121343Y-81147376D01*
X127722135Y-81147376D01*
X127722135Y-81444542D01*
X127722135Y-81741708D01*
X128025764Y-81741708D01*
X128329388Y-81741708D01*
X128329388Y-82045333D01*
X128329388Y-82348962D01*
X128620092Y-82348962D01*
X128910799Y-82348962D01*
X128910799Y-82051794D01*
X129530973Y-82051794D01*
X129530973Y-82348962D01*
X129821679Y-82348962D01*
X130112383Y-82348962D01*
X130112383Y-82051794D01*
X130732554Y-82051794D01*
X130732554Y-82348962D01*
X131023258Y-82348962D01*
X131313964Y-82348962D01*
X131313964Y-82051794D01*
X131313964Y-81754628D01*
X131023258Y-81754628D01*
X130732554Y-81754628D01*
X130732554Y-82051794D01*
X130112383Y-82051794D01*
X130112383Y-81754628D01*
X129821679Y-81754628D01*
X129530973Y-81754628D01*
X129530973Y-82051794D01*
X128910799Y-82051794D01*
X128910799Y-82045333D01*
X128910799Y-81741708D01*
X129214427Y-81741708D01*
X129518049Y-81741708D01*
X129518049Y-81451002D01*
X129518049Y-81160297D01*
X128917256Y-81160297D01*
X128316470Y-81160297D01*
X128316470Y-80850210D01*
X128316470Y-80540125D01*
X128923721Y-80540125D01*
X129530973Y-80540125D01*
X129530973Y-80843750D01*
X129530973Y-81147376D01*
X129821679Y-81147376D01*
X130112383Y-81147376D01*
X130112383Y-80553045D01*
X130112383Y-79958713D01*
X129815219Y-79958713D01*
X129518049Y-79958713D01*
X129518049Y-79655087D01*
X129518049Y-79351461D01*
X128917256Y-79351461D01*
X128316470Y-79351461D01*
X128316470Y-79047835D01*
X128316470Y-78744210D01*
X128923721Y-78744210D01*
X129530973Y-78744210D01*
X129530973Y-79041376D01*
X129530973Y-79338541D01*
X129821679Y-79338541D01*
X130112383Y-79338541D01*
X130112383Y-79041376D01*
X130112383Y-78744210D01*
X131320428Y-78744210D01*
X132528468Y-78744210D01*
X132528468Y-79047835D01*
X132528468Y-79351461D01*
X131630511Y-79351461D01*
X130732554Y-79351461D01*
X130732554Y-79945793D01*
X130732554Y-80540125D01*
X131023258Y-80540125D01*
X131313964Y-80540125D01*
X131313964Y-80242959D01*
X131313964Y-79945793D01*
X131624052Y-79945793D01*
X131934140Y-79945793D01*
X131934140Y-80249419D01*
X131934140Y-80553045D01*
X131630511Y-80553045D01*
X131326887Y-80553045D01*
X131326887Y-81147376D01*
X131326887Y-81741708D01*
X131630511Y-81741708D01*
X131934140Y-81741708D01*
X131934140Y-82045333D01*
X131934140Y-82348962D01*
X132231304Y-82348962D01*
X132528468Y-82348962D01*
X132528468Y-82956214D01*
X132528468Y-83563466D01*
X132231304Y-83563466D01*
X131934140Y-83563466D01*
X131934140Y-83860630D01*
X131934140Y-84157794D01*
X131921216Y-84157794D01*
X131630511Y-84157794D01*
X131326887Y-84157794D01*
X131326887Y-84454959D01*
X131326887Y-84752128D01*
X131630511Y-84752128D01*
X131934140Y-84752128D01*
X131934140Y-85049292D01*
X131934140Y-85346457D01*
X132224844Y-85346457D01*
X132515549Y-85346457D01*
X132515549Y-84745669D01*
X132515549Y-84454959D01*
X133135720Y-84454959D01*
X133135720Y-84752128D01*
X133426426Y-84752128D01*
X133717135Y-84752128D01*
X133717135Y-84454959D01*
X133717135Y-84157794D01*
X133426426Y-84157794D01*
X133135720Y-84157794D01*
X133135720Y-84454959D01*
X132515549Y-84454959D01*
X132515549Y-84144876D01*
X132819173Y-84144876D01*
X133122801Y-84144876D01*
X133122801Y-83847708D01*
X133122801Y-83550543D01*
X133426426Y-83550543D01*
X133730053Y-83550543D01*
X133730053Y-83847708D01*
X133730053Y-84144876D01*
X134027219Y-84144876D01*
X134324383Y-84144876D01*
X134324383Y-83847708D01*
X134324383Y-83550543D01*
X134931634Y-83550543D01*
X135538887Y-83550543D01*
X135538887Y-83854171D01*
X135538887Y-84157794D01*
X134938099Y-84157794D01*
X134337306Y-84157794D01*
X134337306Y-84461424D01*
X134337306Y-84765047D01*
X134033678Y-84765047D01*
X133730053Y-84765047D01*
X133730053Y-85055752D01*
X133730053Y-85346457D01*
X134330846Y-85346457D01*
X134931634Y-85346457D01*
X134931634Y-85656545D01*
X134931634Y-85966633D01*
X134330846Y-85966633D01*
X133730053Y-85966633D01*
X133730053Y-86263797D01*
X133730053Y-86560961D01*
X133717135Y-86560961D01*
X133432889Y-86560961D01*
X133135720Y-86560961D01*
X133135720Y-86858130D01*
X133135720Y-87155294D01*
X133432889Y-87155294D01*
X133730053Y-87155294D01*
X133730053Y-87452458D01*
X133730053Y-87749623D01*
X134027219Y-87749623D01*
X134324383Y-87749623D01*
X134324383Y-87148836D01*
X134324383Y-86548043D01*
X134628011Y-86548043D01*
X134931634Y-86548043D01*
X134931634Y-86851666D01*
X134931634Y-87155294D01*
X135235263Y-87155294D01*
X135538887Y-87155294D01*
X135538887Y-87458917D01*
X135538887Y-87762546D01*
X134938099Y-87762546D01*
X134337306Y-87762546D01*
X134337306Y-88356874D01*
X134337306Y-88951209D01*
X134628011Y-88951209D01*
X134918716Y-88951209D01*
X134918716Y-88654044D01*
X134918716Y-88356874D01*
X135823132Y-88356874D01*
X136727554Y-88356874D01*
X136727554Y-87762546D01*
X136727554Y-87168213D01*
X136423926Y-87168213D01*
X136120301Y-87168213D01*
X136120301Y-86858130D01*
X136120301Y-86548043D01*
X136727554Y-86548043D01*
X137334806Y-86548043D01*
X137334806Y-87458917D01*
X137334806Y-88369798D01*
X137037636Y-88369798D01*
X136740472Y-88369798D01*
X136740472Y-88660504D01*
X136740472Y-88951209D01*
X137037636Y-88951209D01*
X137334806Y-88951209D01*
X137334806Y-90159254D01*
X137334806Y-91367293D01*
X136430384Y-91367293D01*
X136120301Y-91367293D01*
X135525969Y-91367293D01*
X135525969Y-91070128D01*
X135525969Y-90772964D01*
X135228804Y-90772964D01*
X134931634Y-90772964D01*
X134931634Y-91070128D01*
X134931634Y-91367293D01*
X134628011Y-91367293D01*
X134324383Y-91367293D01*
X134324383Y-91063669D01*
X134324383Y-90760040D01*
X134621551Y-90760040D01*
X134918716Y-90760040D01*
X134918716Y-90165713D01*
X134918716Y-89862083D01*
X135538887Y-89862083D01*
X135538887Y-90152794D01*
X135829596Y-90152794D01*
X136120301Y-90152794D01*
X136120301Y-89862083D01*
X136120301Y-89571379D01*
X135829596Y-89571379D01*
X135538887Y-89571379D01*
X135538887Y-89862083D01*
X134918716Y-89862083D01*
X134918716Y-89571379D01*
X134628011Y-89571379D01*
X134337306Y-89571379D01*
X134337306Y-89868549D01*
X134337306Y-90165713D01*
X133736514Y-90165713D01*
X133135720Y-90165713D01*
X133135720Y-90462877D01*
X133135720Y-90760040D01*
X133432889Y-90760040D01*
X133730053Y-90760040D01*
X133730053Y-91063669D01*
X133730053Y-91367293D01*
X133426426Y-91367293D01*
X133122801Y-91367293D01*
X133122801Y-91070128D01*
X133122801Y-90772964D01*
X132825637Y-90772964D01*
X132528468Y-90772964D01*
X132528468Y-91373757D01*
X132528468Y-91974545D01*
X132231304Y-91974545D01*
X131934140Y-91974545D01*
X131934140Y-92568879D01*
X131934140Y-93163213D01*
X132231304Y-93163213D01*
X132528468Y-93163213D01*
X132528468Y-93770463D01*
X132528468Y-94377716D01*
X132231304Y-94377716D01*
X131934140Y-94377716D01*
X131934140Y-94668421D01*
X131934140Y-94959126D01*
X132231304Y-94959126D01*
X132528468Y-94959126D01*
X132528468Y-95572838D01*
X132528468Y-96186549D01*
X132224844Y-96186549D01*
X131921216Y-96186549D01*
X131921216Y-95882926D01*
X131921216Y-95579297D01*
X131921216Y-94364793D01*
X131921216Y-93770463D01*
X131921216Y-93176131D01*
X131624052Y-93176131D01*
X131326887Y-93176131D01*
X131326887Y-93770463D01*
X131326887Y-94364793D01*
X131624052Y-94364793D01*
X131921216Y-94364793D01*
X131921216Y-95579297D01*
X131326887Y-95579297D01*
X131313964Y-95579297D01*
X130732554Y-95579297D01*
X130732554Y-95882926D01*
X130732554Y-96186549D01*
X130719636Y-96186549D01*
X130422471Y-96186549D01*
X130112383Y-96186549D01*
X130112383Y-95579297D01*
X130112383Y-94972046D01*
X129815219Y-94972046D01*
X129518049Y-94972046D01*
X129518049Y-94674881D01*
X129518049Y-94668421D01*
X130732554Y-94668421D01*
X130732554Y-94959126D01*
X131023258Y-94959126D01*
X131313964Y-94959126D01*
X131313964Y-94377716D01*
X131023258Y-94377716D01*
X130732554Y-94377716D01*
X130732554Y-94668421D01*
X129518049Y-94668421D01*
X129518049Y-94377716D01*
X129220885Y-94377716D01*
X128923721Y-94377716D01*
X128923721Y-94674881D01*
X128923721Y-94972046D01*
X128626552Y-94972046D01*
X128329388Y-94972046D01*
X128329388Y-95269209D01*
X128329388Y-95566378D01*
X128930180Y-95566378D01*
X129530973Y-95566378D01*
X129530973Y-95876461D01*
X129530973Y-96186549D01*
X128620092Y-96186549D01*
X128316470Y-96186549D01*
X127709217Y-96186549D01*
X127709217Y-95882926D01*
X127709217Y-95579297D01*
X127412048Y-95579297D01*
X127114884Y-95579297D01*
X127114884Y-94668421D01*
X127114884Y-93770463D01*
X127722135Y-93770463D01*
X127722135Y-94364793D01*
X127722135Y-94959126D01*
X128019300Y-94959126D01*
X128316470Y-94959126D01*
X128316470Y-94661958D01*
X128316470Y-94364793D01*
X128613634Y-94364793D01*
X128910799Y-94364793D01*
X128910799Y-94067628D01*
X130125301Y-94067628D01*
X130125301Y-94364793D01*
X130422471Y-94364793D01*
X130719636Y-94364793D01*
X130719636Y-94067628D01*
X130719636Y-93770463D01*
X130422471Y-93770463D01*
X130125301Y-93770463D01*
X130125301Y-94067628D01*
X128910799Y-94067628D01*
X128910799Y-93770463D01*
X128316470Y-93770463D01*
X127722135Y-93770463D01*
X127114884Y-93770463D01*
X127114884Y-93757540D01*
X127412048Y-93757540D01*
X127709217Y-93757540D01*
X127709217Y-93466835D01*
X128923721Y-93466835D01*
X128923721Y-93757540D01*
X129220885Y-93757540D01*
X129518049Y-93757540D01*
X129518049Y-93466835D01*
X129518049Y-93176131D01*
X129220885Y-93176131D01*
X128923721Y-93176131D01*
X128923721Y-93466835D01*
X127709217Y-93466835D01*
X127709217Y-92866043D01*
X127709217Y-92568879D01*
X128329388Y-92568879D01*
X128329388Y-93163213D01*
X128620092Y-93163213D01*
X128910799Y-93163213D01*
X128910799Y-92568879D01*
X129530973Y-92568879D01*
X129530973Y-92866043D01*
X129530973Y-93163213D01*
X130422471Y-93163213D01*
X131313964Y-93163213D01*
X131313964Y-92568879D01*
X131313964Y-91974545D01*
X130719636Y-91974545D01*
X130125301Y-91974545D01*
X130125301Y-92271714D01*
X130125301Y-92568879D01*
X130112383Y-92568879D01*
X129828137Y-92568879D01*
X129530973Y-92568879D01*
X128910799Y-92568879D01*
X128910799Y-91974545D01*
X128620092Y-91974545D01*
X128329388Y-91974545D01*
X128329388Y-92568879D01*
X127709217Y-92568879D01*
X127709217Y-91974545D01*
X127418512Y-91974545D01*
X127127807Y-91974545D01*
X127127807Y-92575337D01*
X127127807Y-93176131D01*
X126824179Y-93176131D01*
X126520555Y-93176131D01*
X126520555Y-93473295D01*
X126520555Y-93770463D01*
X126507631Y-93770463D01*
X126223385Y-93770463D01*
X125926221Y-93770463D01*
X125926221Y-94074089D01*
X125926221Y-94377716D01*
X125913304Y-94377716D01*
X125616135Y-94377716D01*
X125306052Y-94377716D01*
X125306052Y-94074089D01*
X125306052Y-93770463D01*
X124711718Y-93770463D01*
X124414553Y-93770463D01*
X123523055Y-93770463D01*
X123523055Y-94364793D01*
X123523055Y-94959126D01*
X123813761Y-94959126D01*
X124104465Y-94959126D01*
X124104465Y-94661958D01*
X124104465Y-94364793D01*
X124414553Y-94364793D01*
X124724636Y-94364793D01*
X124724636Y-94668421D01*
X124724636Y-94972046D01*
X124421012Y-94972046D01*
X124117384Y-94972046D01*
X124117384Y-95269209D01*
X124117384Y-95566378D01*
X124421012Y-95566378D01*
X124724636Y-95566378D01*
X124724636Y-95876461D01*
X124724636Y-96186549D01*
X123510132Y-96186549D01*
X123212967Y-96186549D01*
X122308551Y-96186549D01*
X122308551Y-94668421D01*
X122321471Y-94668421D01*
X122321471Y-95566378D01*
X122915803Y-95566378D01*
X123510132Y-95566378D01*
X123510132Y-95269209D01*
X123510132Y-94972046D01*
X123206509Y-94972046D01*
X122902884Y-94972046D01*
X122902884Y-94371252D01*
X122902884Y-93770463D01*
X122612175Y-93770463D01*
X122321471Y-93770463D01*
X122321471Y-94668421D01*
X122308551Y-94668421D01*
X122308551Y-93163213D01*
X122308551Y-92866043D01*
X122308551Y-92568879D01*
X122011387Y-92568879D01*
X121714218Y-92568879D01*
X121714218Y-92866043D01*
X121714218Y-93163213D01*
X122011387Y-93163213D01*
X122308551Y-93163213D01*
X122308551Y-96186549D01*
X121701299Y-96186549D01*
X121701299Y-95579297D01*
X121701299Y-94972046D01*
X121410594Y-94972046D01*
X121119888Y-94972046D01*
X121119888Y-95275673D01*
X121119888Y-95579297D01*
X120809801Y-95579297D01*
X120499713Y-95579297D01*
X120499713Y-95275673D01*
X120499713Y-94972046D01*
X120196090Y-94972046D01*
X119892461Y-94972046D01*
X119892461Y-94668421D01*
X119892461Y-94364793D01*
X120196090Y-94364793D01*
X120499713Y-94364793D01*
X120499713Y-93764001D01*
X120499713Y-93466835D01*
X121119888Y-93466835D01*
X121119888Y-93757540D01*
X121410594Y-93757540D01*
X121701299Y-93757540D01*
X121701299Y-93466835D01*
X121701299Y-93176131D01*
X121410594Y-93176131D01*
X121119888Y-93176131D01*
X121119888Y-93466835D01*
X120499713Y-93466835D01*
X120499713Y-93163213D01*
X120803341Y-93163213D01*
X121106966Y-93163213D01*
X121106966Y-92859583D01*
X121106966Y-92555961D01*
X121404135Y-92555961D01*
X121701299Y-92555961D01*
X121701299Y-92265255D01*
X122915803Y-92265255D01*
X122915803Y-93163213D01*
X123813761Y-93163213D01*
X124711718Y-93163213D01*
X124711718Y-92866043D01*
X125318970Y-92866043D01*
X125318970Y-93163213D01*
X125616135Y-93163213D01*
X125913304Y-93163213D01*
X125913304Y-92866043D01*
X125913304Y-92568879D01*
X125616135Y-92568879D01*
X125318970Y-92568879D01*
X125318970Y-92866043D01*
X124711718Y-92866043D01*
X124711718Y-92265255D01*
X125926221Y-92265255D01*
X125926221Y-92555961D01*
X126216927Y-92555961D01*
X126507631Y-92555961D01*
X126507631Y-92265255D01*
X126507631Y-91974545D01*
X126216927Y-91974545D01*
X125926221Y-91974545D01*
X125926221Y-92265255D01*
X124711718Y-92265255D01*
X124711718Y-91367293D01*
X123813761Y-91367293D01*
X122915803Y-91367293D01*
X122915803Y-92265255D01*
X121701299Y-92265255D01*
X121701299Y-91974545D01*
X121404135Y-91974545D01*
X121106966Y-91974545D01*
X121106966Y-91670922D01*
X121106966Y-91367293D01*
X121714218Y-91367293D01*
X121714218Y-91961626D01*
X122011387Y-91961626D01*
X122308551Y-91961626D01*
X122308551Y-91367293D01*
X122308551Y-90772964D01*
X122011387Y-90772964D01*
X121714218Y-90772964D01*
X121714218Y-91367293D01*
X121106966Y-91367293D01*
X120809801Y-91367293D01*
X120512637Y-91367293D01*
X120512637Y-91670922D01*
X120512637Y-91974545D01*
X120202549Y-91974545D01*
X119892461Y-91974545D01*
X119892461Y-91063669D01*
X119892461Y-90152794D01*
X120202549Y-90152794D01*
X120512637Y-90152794D01*
X120512637Y-90456418D01*
X120512637Y-90760040D01*
X120809801Y-90760040D01*
X121106966Y-90760040D01*
X121106966Y-90456418D01*
X121106966Y-90152794D01*
X122004923Y-90152794D01*
X122902884Y-90152794D01*
X122902884Y-89862083D01*
X122902884Y-89571379D01*
X122302092Y-89571379D01*
X121701299Y-89571379D01*
X121701299Y-89267755D01*
X121701299Y-88964127D01*
X121410594Y-88964127D01*
X121119888Y-88964127D01*
X121119888Y-89267755D01*
X121119888Y-89571379D01*
X120506177Y-89571379D01*
X119892461Y-89571379D01*
X119892461Y-89261297D01*
X119892461Y-88951209D01*
X120499713Y-88951209D01*
X121106966Y-88951209D01*
X121106966Y-88356874D01*
X121106966Y-87762546D01*
X120803341Y-87762546D01*
X120499713Y-87762546D01*
X120499713Y-87458917D01*
X120499713Y-87155294D01*
X120803341Y-87155294D01*
X121106966Y-87155294D01*
X121106966Y-86560961D01*
X121106966Y-85966633D01*
X120809801Y-85966633D01*
X120512637Y-85966633D01*
X120512637Y-86263797D01*
X120512637Y-86560961D01*
X120202549Y-86560961D01*
X119892461Y-86560961D01*
X119892461Y-86257337D01*
X119892461Y-85953709D01*
X120196090Y-85953709D01*
X120499713Y-85953709D01*
X120499713Y-85650085D01*
X120499713Y-85346457D01*
X120809801Y-85346457D01*
X121119888Y-85346457D01*
X121119888Y-85650085D01*
X121119888Y-85953709D01*
X121410594Y-85953709D01*
X121701299Y-85953709D01*
X121701299Y-85359380D01*
X121701299Y-84765047D01*
X121404135Y-84765047D01*
X121106966Y-84765047D01*
X121106966Y-84454959D01*
X121106966Y-84144876D01*
X122308551Y-84144876D01*
X123510132Y-84144876D01*
X123510132Y-83847708D01*
X123510132Y-83550543D01*
X123813761Y-83550543D01*
X124117384Y-83550543D01*
X124117384Y-84157794D01*
X124117384Y-84765047D01*
X123219427Y-84765047D01*
X122321471Y-84765047D01*
X122321471Y-85055752D01*
X122321471Y-85346457D01*
X122618639Y-85346457D01*
X122915803Y-85346457D01*
X122915803Y-85953709D01*
X122915803Y-86560961D01*
X122315011Y-86560961D01*
X121714218Y-86560961D01*
X121714218Y-87756088D01*
X121714218Y-88951209D01*
X122315011Y-88951209D01*
X122915803Y-88951209D01*
X122915803Y-89254831D01*
X122915803Y-89558461D01*
X123212967Y-89558461D01*
X123510132Y-89558461D01*
X123510132Y-89254831D01*
X123510132Y-88951209D01*
X124718177Y-88951209D01*
X125926221Y-88951209D01*
X125926221Y-89261297D01*
X125926221Y-89571379D01*
X125622592Y-89571379D01*
X125318970Y-89571379D01*
X125318970Y-89868549D01*
X125318970Y-90165713D01*
X125015347Y-90165713D01*
X124711718Y-90165713D01*
X124711718Y-89868549D01*
X124711718Y-89571379D01*
X124414553Y-89571379D01*
X124117384Y-89571379D01*
X124117384Y-90165713D01*
X124117384Y-90760040D01*
X125318970Y-90760040D01*
X126520555Y-90760040D01*
X126520555Y-91360834D01*
X126520555Y-91961626D01*
X126817719Y-91961626D01*
X127114884Y-91961626D01*
X127114884Y-91664462D01*
X127722135Y-91664462D01*
X127722135Y-91961626D01*
X128019300Y-91961626D01*
X128316470Y-91961626D01*
X128316470Y-91664462D01*
X128316470Y-91367293D01*
X128019300Y-91367293D01*
X127722135Y-91367293D01*
X127722135Y-91664462D01*
X127114884Y-91664462D01*
X127114884Y-91658004D01*
X127114884Y-91354375D01*
X127412048Y-91354375D01*
X127709217Y-91354375D01*
X127709217Y-91063669D01*
X127709217Y-90772964D01*
X127412048Y-90772964D01*
X127114884Y-90772964D01*
X127114884Y-90469336D01*
X127114884Y-90165713D01*
X126811261Y-90165713D01*
X126507631Y-90165713D01*
X126507631Y-89862083D01*
X127127807Y-89862083D01*
X127127807Y-90152794D01*
X127418512Y-90152794D01*
X127709217Y-90152794D01*
X127709217Y-89862083D01*
X127709217Y-89571379D01*
X128329388Y-89571379D01*
X128329388Y-90462877D01*
X128329388Y-91354375D01*
X128626552Y-91354375D01*
X128923721Y-91354375D01*
X128923721Y-91658004D01*
X128923721Y-91961626D01*
X129518049Y-91961626D01*
X130112383Y-91961626D01*
X130112383Y-91658004D01*
X130112383Y-91354375D01*
X130416007Y-91354375D01*
X130719636Y-91354375D01*
X130719636Y-91063669D01*
X130719636Y-90772964D01*
X130416007Y-90772964D01*
X130112383Y-90772964D01*
X130112383Y-90172171D01*
X130112383Y-89571379D01*
X129815219Y-89571379D01*
X129518049Y-89571379D01*
X129518049Y-89267755D01*
X129518049Y-88964127D01*
X129220885Y-88964127D01*
X128923721Y-88964127D01*
X128923721Y-89267755D01*
X128923721Y-89571379D01*
X128910799Y-89571379D01*
X128626552Y-89571379D01*
X128329388Y-89571379D01*
X127709217Y-89571379D01*
X127418512Y-89571379D01*
X127127807Y-89571379D01*
X127127807Y-89862083D01*
X126507631Y-89862083D01*
X126507631Y-89558461D01*
X126507631Y-88951209D01*
X127108425Y-88951209D01*
X127709217Y-88951209D01*
X127709217Y-88660504D01*
X128329388Y-88660504D01*
X128329388Y-88951209D01*
X128620092Y-88951209D01*
X128910799Y-88951209D01*
X128910799Y-88660504D01*
X128910799Y-88369798D01*
X128620092Y-88369798D01*
X128329388Y-88369798D01*
X128329388Y-88660504D01*
X127709217Y-88660504D01*
X127709217Y-88059711D01*
X127709217Y-87458917D01*
X128923721Y-87458917D01*
X128923721Y-87749623D01*
X129220885Y-87749623D01*
X129518049Y-87749623D01*
X129518049Y-87458917D01*
X129518049Y-87168213D01*
X129220885Y-87168213D01*
X128923721Y-87168213D01*
X128923721Y-87458917D01*
X127709217Y-87458917D01*
X127709217Y-87168213D01*
X127418512Y-87168213D01*
X127127807Y-87168213D01*
X127127807Y-87769005D01*
X127127807Y-88369798D01*
X127114884Y-88369798D01*
X126507631Y-88369798D01*
X126216927Y-88369798D01*
X125306052Y-88369798D01*
X125306052Y-88059711D01*
X125306052Y-87749623D01*
X125609675Y-87749623D01*
X125913304Y-87749623D01*
X125913304Y-87458917D01*
X125913304Y-87168213D01*
X125609675Y-87168213D01*
X125306052Y-87168213D01*
X125306052Y-86858130D01*
X126520555Y-86858130D01*
X126520555Y-87155294D01*
X126817719Y-87155294D01*
X127114884Y-87155294D01*
X127114884Y-86858130D01*
X127114884Y-86560961D01*
X127722135Y-86560961D01*
X127722135Y-86858130D01*
X127722135Y-87155294D01*
X128316470Y-87155294D01*
X128910799Y-87155294D01*
X128910799Y-86851666D01*
X128910799Y-86548043D01*
X129214427Y-86548043D01*
X129518049Y-86548043D01*
X129518049Y-86250879D01*
X129518049Y-85953709D01*
X129821679Y-85953709D01*
X130125301Y-85953709D01*
X130125301Y-87155294D01*
X130125301Y-88356874D01*
X130422471Y-88356874D01*
X130719636Y-88356874D01*
X130719636Y-88053252D01*
X130719636Y-87749623D01*
X131023258Y-87749623D01*
X131326887Y-87749623D01*
X131326887Y-88053252D01*
X131326887Y-88356874D01*
X131630511Y-88356874D01*
X131934140Y-88356874D01*
X131934140Y-88660504D01*
X131934140Y-88964127D01*
X131333346Y-88964127D01*
X130732554Y-88964127D01*
X130732554Y-89261297D01*
X130732554Y-89558461D01*
X131029718Y-89558461D01*
X131326887Y-89558461D01*
X131326887Y-89862083D01*
X131326887Y-90165713D01*
X131029718Y-90165713D01*
X130732554Y-90165713D01*
X130732554Y-90462877D01*
X130732554Y-90760040D01*
X131029718Y-90760040D01*
X131326887Y-90760040D01*
X131326887Y-91360834D01*
X131326887Y-91961626D01*
X131624052Y-91961626D01*
X131921216Y-91961626D01*
X131921216Y-91057210D01*
X131921216Y-90152794D01*
X132218385Y-90152794D01*
X132515549Y-90152794D01*
X132515549Y-89855625D01*
X132515549Y-89558461D01*
X133419966Y-89558461D01*
X134324383Y-89558461D01*
X134324383Y-89261297D01*
X134931634Y-89261297D01*
X134931634Y-89558461D01*
X135228804Y-89558461D01*
X135525969Y-89558461D01*
X135525969Y-89261297D01*
X135525969Y-88964127D01*
X135228804Y-88964127D01*
X134931634Y-88964127D01*
X134931634Y-89261297D01*
X134324383Y-89261297D01*
X134324383Y-88964127D01*
X133723595Y-88964127D01*
X133122801Y-88964127D01*
X133122801Y-88660504D01*
X133122801Y-88356874D01*
X133419966Y-88356874D01*
X133717135Y-88356874D01*
X133717135Y-88059711D01*
X133717135Y-87762546D01*
X133116343Y-87762546D01*
X132515549Y-87762546D01*
X132515549Y-87465376D01*
X132515549Y-87168213D01*
X132218385Y-87168213D01*
X131921216Y-87168213D01*
X131921216Y-86864590D01*
X131921216Y-86560961D01*
X131624052Y-86560961D01*
X131326887Y-86560961D01*
X131326887Y-86864590D01*
X131326887Y-87168213D01*
X131023258Y-87168213D01*
X130719636Y-87168213D01*
X130719636Y-86560961D01*
X130719636Y-86257337D01*
X131934140Y-86257337D01*
X131934140Y-86548043D01*
X132224844Y-86548043D01*
X132515549Y-86548043D01*
X132515549Y-86257337D01*
X132515549Y-85966633D01*
X132224844Y-85966633D01*
X131934140Y-85966633D01*
X131934140Y-86257337D01*
X130719636Y-86257337D01*
X130719636Y-85953709D01*
X131320428Y-85953709D01*
X131921216Y-85953709D01*
X131921216Y-85656545D01*
X133135720Y-85656545D01*
X133135720Y-85953709D01*
X133426426Y-85953709D01*
X133717135Y-85953709D01*
X133717135Y-85359380D01*
X133426426Y-85359380D01*
X133135720Y-85359380D01*
X133135720Y-85656545D01*
X131921216Y-85656545D01*
X131921216Y-85359380D01*
X131617593Y-85359380D01*
X131313964Y-85359380D01*
X131313964Y-85062210D01*
X131313964Y-84765047D01*
X131016799Y-84765047D01*
X130719636Y-84765047D01*
X130719636Y-84454959D01*
X130719636Y-84144876D01*
X131016799Y-84144876D01*
X131313964Y-84144876D01*
X131313964Y-83550543D01*
X131313964Y-82956214D01*
X131016799Y-82956214D01*
X130719636Y-82956214D01*
X130719636Y-82659045D01*
X130719636Y-82652585D01*
X131326887Y-82652585D01*
X131326887Y-82943291D01*
X131624052Y-82943291D01*
X131921216Y-82943291D01*
X131921216Y-82652585D01*
X131921216Y-82361881D01*
X131624052Y-82361881D01*
X131326887Y-82361881D01*
X131326887Y-82652585D01*
X130719636Y-82652585D01*
X130719636Y-82361881D01*
X130422471Y-82361881D01*
X130125301Y-82361881D01*
X130125301Y-83259838D01*
X130125301Y-84157794D01*
X130112383Y-84157794D01*
X129518049Y-84157794D01*
X129227344Y-84157794D01*
X128329388Y-84157794D01*
X128329388Y-84752128D01*
X128329388Y-85346457D01*
X128620092Y-85346457D01*
X128910799Y-85346457D01*
X128910799Y-85049292D01*
X128910799Y-84752128D01*
X129518049Y-84752128D01*
X130125301Y-84752128D01*
X130125301Y-85055752D01*
X130125301Y-85359380D01*
X129524509Y-85359380D01*
X128923721Y-85359380D01*
X128923721Y-85663003D01*
X128923721Y-85966633D01*
X128626552Y-85966633D01*
X128329388Y-85966633D01*
X128329388Y-86263797D01*
X128329388Y-86560961D01*
X128316470Y-86560961D01*
X128025764Y-86560961D01*
X127722135Y-86560961D01*
X127114884Y-86560961D01*
X126817719Y-86560961D01*
X126520555Y-86560961D01*
X126520555Y-86858130D01*
X125306052Y-86858130D01*
X125306052Y-86263797D01*
X125306052Y-85359380D01*
X125008882Y-85359380D01*
X124711718Y-85359380D01*
X124711718Y-85055752D01*
X124711718Y-84752128D01*
X125008882Y-84752128D01*
X125306052Y-84752128D01*
X125306052Y-84454959D01*
X125306052Y-84157794D01*
X125926221Y-84157794D01*
X125926221Y-85352921D01*
X125926221Y-86548043D01*
X126216927Y-86548043D01*
X126507631Y-86548043D01*
X126507631Y-85947249D01*
X126507631Y-85656545D01*
X127127807Y-85656545D01*
X127127807Y-85953709D01*
X127418512Y-85953709D01*
X127709217Y-85953709D01*
X127709217Y-85656545D01*
X127709217Y-85359380D01*
X127418512Y-85359380D01*
X127127807Y-85359380D01*
X127127807Y-85656545D01*
X126507631Y-85656545D01*
X126507631Y-85346457D01*
X126811261Y-85346457D01*
X127114884Y-85346457D01*
X127114884Y-85049292D01*
X127114884Y-84752128D01*
X127412048Y-84752128D01*
X127709217Y-84752128D01*
X127709217Y-84157794D01*
X127709217Y-83563466D01*
X127114884Y-83563466D01*
X126520555Y-83563466D01*
X126520555Y-83860630D01*
X126520555Y-84157794D01*
X126223385Y-84157794D01*
X125926221Y-84157794D01*
X125306052Y-84157794D01*
X125008882Y-84157794D01*
X124711718Y-84157794D01*
X124711718Y-83854171D01*
X124711718Y-83550543D01*
X125312510Y-83550543D01*
X125913304Y-83550543D01*
X125913304Y-82956214D01*
X128923721Y-82956214D01*
X128923721Y-83550543D01*
X129220885Y-83550543D01*
X129518049Y-83550543D01*
X129518049Y-82956214D01*
X129518049Y-82361881D01*
X129220885Y-82361881D01*
X128923721Y-82361881D01*
X128923721Y-82956214D01*
X125913304Y-82956214D01*
X125913304Y-82949750D01*
X125913304Y-82348962D01*
X126216927Y-82348962D01*
X126520555Y-82348962D01*
X126520555Y-82646126D01*
X126520555Y-82943291D01*
X126817719Y-82943291D01*
X127114884Y-82943291D01*
X127114884Y-82652585D01*
X127722135Y-82652585D01*
X127722135Y-82943291D01*
X128019300Y-82943291D01*
X128316470Y-82943291D01*
X128316470Y-82652585D01*
X128316470Y-82361881D01*
X128019300Y-82361881D01*
X127722135Y-82361881D01*
X127722135Y-82652585D01*
X127114884Y-82652585D01*
X127114884Y-82348962D01*
X127114884Y-81754628D01*
X126811261Y-81754628D01*
X126507631Y-81754628D01*
X126507631Y-81457463D01*
X126507631Y-81160297D01*
X126210467Y-81160297D01*
X125913304Y-81160297D01*
X125913304Y-80559505D01*
X125913304Y-79958713D01*
X125616135Y-79958713D01*
X125318970Y-79958713D01*
X125318970Y-80255879D01*
X125318970Y-80553045D01*
X125015347Y-80553045D01*
X124711718Y-80553045D01*
X124711718Y-80249419D01*
X124711718Y-79945793D01*
X125008882Y-79945793D01*
X125306052Y-79945793D01*
X125306052Y-79648627D01*
X125926221Y-79648627D01*
X125926221Y-79945793D01*
X126216927Y-79945793D01*
X126507631Y-79945793D01*
X126507631Y-79648627D01*
X126507631Y-79351461D01*
X126216927Y-79351461D01*
X125926221Y-79351461D01*
X125926221Y-79648627D01*
X125306052Y-79648627D01*
X125306052Y-79345001D01*
X125306052Y-78744210D01*
X126514091Y-78744210D01*
X127722135Y-78744210D01*
X127722135Y-79351461D01*
G37*
G04 #@! TD*
M02*
