G04 #@! TF.GenerationSoftware,KiCad,Pcbnew,10.0.1*
G04 #@! TF.CreationDate,2026-05-30T16:04:42-04:00*
G04 #@! TF.ProjectId,NYCpalette,4e594370-616c-4657-9474-652e6b696361,rev?*
G04 #@! TF.SameCoordinates,Original*
G04 #@! TF.FileFunction,Copper,L1,Top*
G04 #@! TF.FilePolarity,Positive*
%FSLAX46Y46*%
G04 Gerber Fmt 4.6, Leading zero omitted, Abs format (unit mm)*
G04 Created by KiCad (PCBNEW 10.0.1) date 2026-05-30 16:04:42*
%MOMM*%
%LPD*%
G01*
G04 APERTURE LIST*
G04 #@! TA.AperFunction,EtchedComponent*
%ADD10C,0.000000*%
G04 #@! TD*
G04 #@! TA.AperFunction,ComponentPad*
%ADD11C,0.700000*%
G04 #@! TD*
G04 #@! TA.AperFunction,ComponentPad*
%ADD12C,4.400000*%
G04 #@! TD*
G04 APERTURE END LIST*
D10*
G04 #@! TA.AperFunction,EtchedComponent*
G04 #@! TO.C,svg2mod*
G36*
X105863627Y-74715110D02*
G01*
X95863627Y-74715110D01*
X95863627Y-54715110D01*
X105863627Y-54715110D01*
X105863627Y-74715110D01*
G37*
G04 #@! TD.AperFunction*
G04 #@! TA.AperFunction,EtchedComponent*
G36*
X105863627Y-97465472D02*
G01*
X95863627Y-97465472D01*
X95863627Y-77465472D01*
X105863627Y-77465472D01*
X105863627Y-97465472D01*
G37*
G04 #@! TD.AperFunction*
G04 #@! TA.AperFunction,EtchedComponent*
G36*
X128613990Y-74715110D02*
G01*
X118613990Y-74715110D01*
X118613990Y-54715110D01*
X128613990Y-54715110D01*
X128613990Y-74715110D01*
G37*
G04 #@! TD.AperFunction*
G04 #@! TA.AperFunction,EtchedComponent*
G36*
X128613990Y-97465472D02*
G01*
X118613990Y-97465472D01*
X118613990Y-77465472D01*
X128613990Y-77465472D01*
X128613990Y-97465472D01*
G37*
G04 #@! TD.AperFunction*
G04 #@! TD*
D11*
G04 #@! TO.P,REF\u002A\u002A,1*
G04 #@! TO.N,N/C*
X76074000Y-99568000D03*
X76557274Y-98401274D03*
X76557274Y-100734726D03*
X77724000Y-97918000D03*
D12*
X77724000Y-99568000D03*
D11*
X77724000Y-101218000D03*
X78890726Y-98401274D03*
X78890726Y-100734726D03*
X79374000Y-99568000D03*
G04 #@! TD*
G04 #@! TO.P,REF\u002A\u002A,1*
G04 #@! TO.N,N/C*
X154306000Y-99568000D03*
X154789274Y-98401274D03*
X154789274Y-100734726D03*
X155956000Y-97918000D03*
D12*
X155956000Y-99568000D03*
D11*
X155956000Y-101218000D03*
X157122726Y-98401274D03*
X157122726Y-100734726D03*
X157606000Y-99568000D03*
G04 #@! TD*
G04 #@! TO.P,REF\u002A\u002A,1*
G04 #@! TO.N,N/C*
X154306000Y-52832000D03*
X154789274Y-51665274D03*
X154789274Y-53998726D03*
X155956000Y-51182000D03*
D12*
X155956000Y-52832000D03*
D11*
X155956000Y-54482000D03*
X157122726Y-51665274D03*
X157122726Y-53998726D03*
X157606000Y-52832000D03*
G04 #@! TD*
G04 #@! TO.P,REF\u002A\u002A,1*
G04 #@! TO.N,N/C*
X76074000Y-52832000D03*
X76557274Y-51665274D03*
X76557274Y-53998726D03*
X77724000Y-51182000D03*
D12*
X77724000Y-52832000D03*
D11*
X77724000Y-54482000D03*
X78890726Y-51665274D03*
X78890726Y-53998726D03*
X79374000Y-52832000D03*
G04 #@! TD*
M02*
