%TF.GenerationSoftware,KiCad,Pcbnew,10.0.1*%
%TF.CreationDate,2026-05-30T16:30:33-04:00*%
%TF.ProjectId,pcb-artwork-zoo,7063622d-6172-4747-976f-726b2d7a6f6f,rev?*%
%TF.SameCoordinates,Original*%
%TF.FileFunction,Soldermask,Top*%
%TF.FilePolarity,Negative*%
%FSLAX46Y46*%
G04 Gerber Fmt 4.6, Leading zero omitted, Abs format (unit mm)*
G04 Created by KiCad (PCBNEW 10.0.1) date 2026-05-30 16:30:33*
%MOMM*%
%LPD*%
G01*
G04 APERTURE LIST*
%ADD10C,0.000000*%
G04 APERTURE END LIST*
D10*
%TO.C,svg2mod*%
G36*
X177657231Y-61454394D02*
G01*
X177868998Y-61606308D01*
X178083973Y-61755915D01*
X178302162Y-61903065D01*
X178523574Y-62047606D01*
X178748215Y-62189389D01*
X178976092Y-62328263D01*
X179207213Y-62464077D01*
X179453702Y-62603704D01*
X179701260Y-62738903D01*
X179949758Y-62869632D01*
X180199065Y-62995850D01*
X180449051Y-63117513D01*
X180699587Y-63234582D01*
X180950542Y-63347014D01*
X181201787Y-63454766D01*
X181453190Y-63557798D01*
X181704623Y-63656067D01*
X181955955Y-63749532D01*
X182207057Y-63838152D01*
X182457797Y-63921883D01*
X182708046Y-64000684D01*
X182957675Y-64074514D01*
X183206552Y-64143331D01*
X183454549Y-64207093D01*
X183701534Y-64265758D01*
X183947379Y-64319284D01*
X184191952Y-64367630D01*
X184435124Y-64410754D01*
X184676765Y-64448613D01*
X184916745Y-64481167D01*
X185154934Y-64508373D01*
X185391201Y-64530190D01*
X185625417Y-64546576D01*
X185857452Y-64557489D01*
X186027938Y-64561812D01*
X186196450Y-64563173D01*
X186469441Y-64558929D01*
X186736190Y-64546261D01*
X186996612Y-64525270D01*
X187250621Y-64496055D01*
X187498132Y-64458717D01*
X187739058Y-64413353D01*
X187973314Y-64360065D01*
X188200815Y-64298952D01*
X188421475Y-64230113D01*
X188635208Y-64153648D01*
X188841929Y-64069657D01*
X189041551Y-63978239D01*
X189233990Y-63879494D01*
X189233990Y-65983758D01*
X188982608Y-66004478D01*
X188732981Y-66033013D01*
X188485261Y-66069267D01*
X188239601Y-66113145D01*
X187996152Y-66164549D01*
X187755065Y-66223385D01*
X187516493Y-66289555D01*
X187280588Y-66362964D01*
X187047502Y-66443516D01*
X186817386Y-66531115D01*
X186590392Y-66625664D01*
X186366672Y-66727067D01*
X186146378Y-66835229D01*
X185929662Y-66950053D01*
X185716675Y-67071443D01*
X185507571Y-67199303D01*
X185302499Y-67333537D01*
X185101613Y-67474048D01*
X184905064Y-67620742D01*
X184713004Y-67773521D01*
X184525586Y-67932289D01*
X184342959Y-68096951D01*
X184165278Y-68267410D01*
X183992693Y-68443570D01*
X183825356Y-68625335D01*
X183663420Y-68812609D01*
X183507035Y-69005296D01*
X183356355Y-69203299D01*
X183211531Y-69406524D01*
X183072714Y-69614873D01*
X182940057Y-69828250D01*
X182813711Y-70046560D01*
X182569798Y-70041392D01*
X182527940Y-70041392D01*
X182266974Y-70043976D01*
X182130028Y-69827906D01*
X181987511Y-69616116D01*
X181839531Y-69408696D01*
X181686198Y-69205736D01*
X181527620Y-69007325D01*
X181363906Y-68813556D01*
X181195165Y-68624516D01*
X181021504Y-68440297D01*
X180843033Y-68260989D01*
X180659861Y-68086682D01*
X180472095Y-67917466D01*
X180279845Y-67753432D01*
X180083219Y-67594669D01*
X179882326Y-67441268D01*
X179677275Y-67293318D01*
X179468174Y-67150911D01*
X179255131Y-67014136D01*
X179038256Y-66883083D01*
X178817657Y-66757843D01*
X178593442Y-66638505D01*
X178365721Y-66525161D01*
X178134602Y-66417899D01*
X177900194Y-66316811D01*
X177662604Y-66221987D01*
X177448664Y-61300323D01*
X177657231Y-61454394D01*
G37*
G36*
X181456041Y-53139488D02*
G01*
X181680746Y-53221437D01*
X181905884Y-53307903D01*
X182131331Y-53398872D01*
X182356960Y-53494333D01*
X182582647Y-53594274D01*
X182808266Y-53698682D01*
X183033692Y-53807546D01*
X183258799Y-53920854D01*
X183483462Y-54038592D01*
X183707556Y-54160750D01*
X183930955Y-54287315D01*
X184176858Y-54432267D01*
X184418658Y-54580613D01*
X184656213Y-54732224D01*
X184889380Y-54886974D01*
X185118017Y-55044735D01*
X185341982Y-55205379D01*
X185561132Y-55368778D01*
X185775325Y-55534807D01*
X185984418Y-55703336D01*
X186188270Y-55874239D01*
X186386738Y-56047389D01*
X186579679Y-56222657D01*
X186766952Y-56399916D01*
X186948414Y-56579039D01*
X187123922Y-56759899D01*
X187293334Y-56942368D01*
X187456508Y-57126318D01*
X187613302Y-57311623D01*
X187763572Y-57498154D01*
X187907178Y-57685785D01*
X188043976Y-57874387D01*
X188173824Y-58063834D01*
X188296580Y-58253998D01*
X188463919Y-58535280D01*
X188611096Y-58811562D01*
X188737982Y-59082077D01*
X188844444Y-59346062D01*
X188930351Y-59602752D01*
X188995573Y-59851381D01*
X189039978Y-60091186D01*
X189063435Y-60321402D01*
X189065814Y-60541263D01*
X189046983Y-60750006D01*
X189006811Y-60946865D01*
X188945167Y-61131076D01*
X188861920Y-61301874D01*
X188756250Y-61459723D01*
X188627935Y-61605434D01*
X188477735Y-61738763D01*
X188306413Y-61859468D01*
X188114729Y-61967303D01*
X187903445Y-62062026D01*
X187673322Y-62143393D01*
X187425123Y-62211160D01*
X187159607Y-62265084D01*
X186877538Y-62304920D01*
X186579675Y-62330426D01*
X186266781Y-62341357D01*
X185939618Y-62337469D01*
X185713047Y-62326232D01*
X185483610Y-62308508D01*
X185251484Y-62284354D01*
X185016848Y-62253828D01*
X184779880Y-62216989D01*
X184540759Y-62173894D01*
X184299664Y-62124600D01*
X184056773Y-62069167D01*
X183812264Y-62007651D01*
X183566317Y-61940110D01*
X183319109Y-61866603D01*
X183070819Y-61787186D01*
X182821626Y-61701919D01*
X182571708Y-61610858D01*
X182321244Y-61514063D01*
X182070413Y-61411589D01*
X181819391Y-61303496D01*
X181568360Y-61189841D01*
X181317496Y-61070682D01*
X181066978Y-60946077D01*
X180816986Y-60816084D01*
X180567697Y-60680760D01*
X180319289Y-60540163D01*
X180090730Y-60405587D01*
X179865778Y-60268047D01*
X179644536Y-60127649D01*
X179427106Y-59984499D01*
X179213592Y-59838704D01*
X179004095Y-59690371D01*
X178798719Y-59539604D01*
X178597567Y-59386511D01*
X178400740Y-59231198D01*
X178208341Y-59073772D01*
X178020474Y-58914337D01*
X177837241Y-58753001D01*
X177658745Y-58589871D01*
X177485087Y-58425051D01*
X177316372Y-58258649D01*
X177308251Y-58206264D01*
X177287350Y-58061555D01*
X177258864Y-57843190D01*
X177227985Y-57569838D01*
X177199907Y-57260167D01*
X177179823Y-56932844D01*
X177172929Y-56606539D01*
X177184416Y-56299919D01*
X177219479Y-56031653D01*
X177293671Y-55765533D01*
X177407720Y-55471609D01*
X177546293Y-55169386D01*
X177694057Y-54878371D01*
X177835676Y-54618070D01*
X177955817Y-54407990D01*
X178039147Y-54267637D01*
X178070331Y-54216518D01*
X178220821Y-54061200D01*
X178384799Y-53917384D01*
X178561792Y-53784997D01*
X178751324Y-53663964D01*
X178952922Y-53554214D01*
X179166110Y-53455672D01*
X179390413Y-53368266D01*
X179625357Y-53291922D01*
X179870467Y-53226567D01*
X180125269Y-53172128D01*
X180389287Y-53128531D01*
X180662047Y-53095705D01*
X180943075Y-53073574D01*
X181231895Y-53062066D01*
X181456041Y-53139488D01*
G37*
G36*
X189965124Y-67949253D02*
G01*
X190207255Y-67965403D01*
X190447454Y-67992188D01*
X190685484Y-68029503D01*
X190921107Y-68077239D01*
X191154087Y-68135290D01*
X191384186Y-68203549D01*
X191611165Y-68281909D01*
X191834789Y-68370262D01*
X192054820Y-68468503D01*
X192271020Y-68576522D01*
X192483151Y-68694215D01*
X192690977Y-68821473D01*
X192894261Y-68958190D01*
X193092764Y-69104259D01*
X193286249Y-69259572D01*
X193474480Y-69424023D01*
X193657218Y-69597504D01*
X193834226Y-69779909D01*
X194002558Y-69969974D01*
X194162751Y-70165854D01*
X194314699Y-70367281D01*
X194458297Y-70573989D01*
X194593441Y-70785710D01*
X194720026Y-71002176D01*
X194837947Y-71223120D01*
X194947099Y-71448276D01*
X195047377Y-71677374D01*
X195138677Y-71910148D01*
X195220893Y-72146331D01*
X195293920Y-72385655D01*
X195357655Y-72627853D01*
X195411991Y-72872657D01*
X195456825Y-73119800D01*
X195492050Y-73369014D01*
X195517563Y-73620033D01*
X195533259Y-73872589D01*
X195539031Y-74126413D01*
X195539031Y-89203012D01*
X195285090Y-89163656D01*
X195033044Y-89116233D01*
X194783074Y-89060823D01*
X194535361Y-88997503D01*
X194290085Y-88926353D01*
X194047429Y-88847451D01*
X193807573Y-88760876D01*
X193570697Y-88666708D01*
X193336984Y-88565024D01*
X193106614Y-88455904D01*
X192879768Y-88339426D01*
X192656627Y-88215669D01*
X192437373Y-88084711D01*
X192222185Y-87946633D01*
X192011247Y-87801511D01*
X191804737Y-87649426D01*
X191602838Y-87490455D01*
X191591469Y-87504925D01*
X191517572Y-87425343D01*
X191325024Y-87239399D01*
X191139247Y-87053118D01*
X190960502Y-86865777D01*
X190789047Y-86676657D01*
X190625141Y-86485035D01*
X190469044Y-86290191D01*
X190321015Y-86091402D01*
X190181313Y-85887948D01*
X190050197Y-85679108D01*
X189927926Y-85464159D01*
X189814760Y-85242380D01*
X189710958Y-85013051D01*
X189616779Y-84775449D01*
X189532482Y-84528854D01*
X189458327Y-84272544D01*
X189394572Y-84005798D01*
X189341477Y-83727894D01*
X189341477Y-77123647D01*
X189335863Y-76864121D01*
X189321061Y-76605665D01*
X189297151Y-76348508D01*
X189264213Y-76092876D01*
X189222329Y-75838997D01*
X189171578Y-75587100D01*
X189112041Y-75337411D01*
X189043799Y-75090158D01*
X188966932Y-74845569D01*
X188881520Y-74603872D01*
X188787643Y-74365293D01*
X188685383Y-74130062D01*
X188574820Y-73898405D01*
X188456034Y-73670550D01*
X188329105Y-73446725D01*
X188194114Y-73227157D01*
X188051142Y-73012074D01*
X187900269Y-72801704D01*
X187741575Y-72596274D01*
X187573370Y-72393523D01*
X187398680Y-72197843D01*
X187217741Y-72009373D01*
X187030791Y-71828252D01*
X186838067Y-71654618D01*
X186639805Y-71488609D01*
X186436244Y-71330365D01*
X186227620Y-71180024D01*
X186014170Y-71037725D01*
X185796132Y-70903606D01*
X185573742Y-70777805D01*
X185347238Y-70660462D01*
X185116857Y-70551715D01*
X184882835Y-70451703D01*
X185031655Y-70250482D01*
X185188044Y-70056618D01*
X185351718Y-69870259D01*
X185522398Y-69691549D01*
X185699800Y-69520635D01*
X185883643Y-69357663D01*
X186073646Y-69202779D01*
X186269525Y-69056130D01*
X186471000Y-68917861D01*
X186677788Y-68788118D01*
X186889607Y-68667048D01*
X187106176Y-68554796D01*
X187327213Y-68451510D01*
X187552436Y-68357334D01*
X187781563Y-68272415D01*
X188014312Y-68196899D01*
X188250402Y-68130932D01*
X188489550Y-68074661D01*
X188731474Y-68028231D01*
X188975893Y-67991788D01*
X189222525Y-67965479D01*
X189471087Y-67949449D01*
X189721299Y-67943846D01*
X189965124Y-67949253D01*
G37*
G36*
X177261694Y-68253161D02*
G01*
X177400088Y-68266203D01*
X177623593Y-68372284D01*
X177843002Y-68485668D01*
X178058150Y-68606228D01*
X178268870Y-68733834D01*
X178474997Y-68868355D01*
X178676364Y-69009663D01*
X178872806Y-69157629D01*
X179064157Y-69312122D01*
X179250250Y-69473014D01*
X179430920Y-69640174D01*
X179606000Y-69813475D01*
X179775326Y-69992785D01*
X179938730Y-70177975D01*
X180096047Y-70368917D01*
X179912079Y-70444365D01*
X179707725Y-70517382D01*
X179505163Y-70595110D01*
X179304474Y-70677516D01*
X179105739Y-70764565D01*
X178909040Y-70856226D01*
X178708984Y-70938408D01*
X178510903Y-71025167D01*
X178314873Y-71116468D01*
X178120974Y-71212276D01*
X177907142Y-71343536D01*
X177696967Y-71480453D01*
X177490563Y-71622950D01*
X177288041Y-71770950D01*
X177089513Y-71924377D01*
X176895489Y-72059437D01*
X176704945Y-72199330D01*
X176517971Y-72343990D01*
X176348894Y-72503570D01*
X176183890Y-72667257D01*
X176023035Y-72834973D01*
X175866401Y-73006637D01*
X175714062Y-73182172D01*
X175566091Y-73361499D01*
X175434100Y-73503178D01*
X175305068Y-73647543D01*
X175179035Y-73794547D01*
X175038994Y-73997645D01*
X174904411Y-74204298D01*
X174775351Y-74414394D01*
X174651881Y-74627823D01*
X174534067Y-74844475D01*
X174421975Y-75064237D01*
X174292642Y-75282927D01*
X174169278Y-75505037D01*
X174077029Y-75730622D01*
X173990724Y-75958459D01*
X173910404Y-76188429D01*
X173836106Y-76420416D01*
X173767872Y-76654301D01*
X173705740Y-76889966D01*
X173647740Y-77058588D01*
X173592959Y-77228274D01*
X173541409Y-77398979D01*
X173505336Y-77641527D01*
X173475647Y-77884897D01*
X173452354Y-78128962D01*
X173435472Y-78373596D01*
X173398334Y-78621908D01*
X173367858Y-78871080D01*
X173344059Y-79120978D01*
X173326952Y-79371468D01*
X173333153Y-80489229D01*
X173333153Y-84377364D01*
X173106436Y-84342588D01*
X172881069Y-84300707D01*
X172657218Y-84251761D01*
X172435047Y-84195794D01*
X172214722Y-84132845D01*
X171996410Y-84062958D01*
X171780276Y-83986173D01*
X171762189Y-83984726D01*
X171524269Y-83889135D01*
X171290582Y-83785624D01*
X171061275Y-83674341D01*
X170836494Y-83555432D01*
X170616385Y-83429046D01*
X170401095Y-83295329D01*
X170190769Y-83154429D01*
X169985554Y-83006491D01*
X169853715Y-82780086D01*
X169729308Y-82550072D01*
X169612386Y-82316634D01*
X169503002Y-82079957D01*
X169401207Y-81840228D01*
X169307054Y-81597631D01*
X169220596Y-81352351D01*
X169141885Y-81104574D01*
X169070975Y-80854486D01*
X169007917Y-80602271D01*
X168952764Y-80348115D01*
X168905568Y-80092203D01*
X168866383Y-79834721D01*
X168835260Y-79575854D01*
X168812253Y-79315787D01*
X168797414Y-79054706D01*
X168790795Y-78792795D01*
X168790795Y-76571742D01*
X168794477Y-76321717D01*
X168805457Y-76073522D01*
X168823631Y-75827260D01*
X168848895Y-75583034D01*
X168881147Y-75340948D01*
X168920283Y-75101104D01*
X168966200Y-74863605D01*
X169018796Y-74628555D01*
X169077966Y-74396057D01*
X169143608Y-74166213D01*
X169215618Y-73939128D01*
X169293894Y-73714903D01*
X169378332Y-73493642D01*
X169468830Y-73275449D01*
X169565283Y-73060425D01*
X169667589Y-72848675D01*
X169775645Y-72640302D01*
X169889347Y-72435407D01*
X170008593Y-72234096D01*
X170133279Y-72036470D01*
X170263301Y-71842633D01*
X170398558Y-71652687D01*
X170538946Y-71466737D01*
X170684361Y-71284884D01*
X170834700Y-71107233D01*
X170989861Y-70933886D01*
X171149740Y-70764946D01*
X171314234Y-70600517D01*
X171483239Y-70440701D01*
X171656654Y-70285601D01*
X171834373Y-70135322D01*
X172016296Y-69989965D01*
X172202317Y-69849633D01*
X172392334Y-69714431D01*
X172586245Y-69584461D01*
X172783945Y-69459826D01*
X172985331Y-69340629D01*
X173190301Y-69226973D01*
X173398752Y-69118962D01*
X173610579Y-69016698D01*
X173825681Y-68920284D01*
X174043953Y-68829825D01*
X174265293Y-68745422D01*
X174489597Y-68667179D01*
X174716763Y-68595198D01*
X174946687Y-68529584D01*
X175179266Y-68470439D01*
X175414397Y-68417866D01*
X175651977Y-68371968D01*
X175891902Y-68332849D01*
X176134070Y-68300611D01*
X176378377Y-68275358D01*
X176624720Y-68257192D01*
X176872996Y-68246217D01*
X177123102Y-68242535D01*
X177123102Y-68242432D01*
X177261694Y-68253161D01*
G37*
G36*
X180955145Y-73113510D02*
G01*
X180965954Y-73420984D01*
X180975964Y-73725901D01*
X180985173Y-74028242D01*
X180993578Y-74327990D01*
X181001176Y-74625127D01*
X181007964Y-74919635D01*
X181013940Y-75211496D01*
X181019101Y-75500692D01*
X181023444Y-75787206D01*
X181026966Y-76071020D01*
X181029665Y-76352115D01*
X181031537Y-76630475D01*
X181032581Y-76906080D01*
X181032793Y-77178914D01*
X181032170Y-77448958D01*
X181030710Y-77716194D01*
X181028409Y-77980605D01*
X181025266Y-78242173D01*
X181021277Y-78500880D01*
X181016440Y-78756708D01*
X181010752Y-79009639D01*
X181004210Y-79259656D01*
X180996811Y-79506740D01*
X180988552Y-79750873D01*
X180979431Y-79992039D01*
X180969445Y-80230218D01*
X180958592Y-80465394D01*
X180946867Y-80697547D01*
X180934270Y-80926661D01*
X180920796Y-81152718D01*
X180906443Y-81375699D01*
X180891209Y-81595587D01*
X180875090Y-81812364D01*
X180858084Y-82026012D01*
X180840188Y-82236513D01*
X180807628Y-82586783D01*
X180772688Y-82928853D01*
X180735374Y-83262697D01*
X180695688Y-83588291D01*
X180653636Y-83905613D01*
X180609222Y-84214636D01*
X180562451Y-84515338D01*
X180513326Y-84807694D01*
X180461852Y-85091681D01*
X180408033Y-85367273D01*
X180351874Y-85634448D01*
X180293379Y-85893180D01*
X180232552Y-86143446D01*
X180169398Y-86385222D01*
X180103921Y-86618484D01*
X180036126Y-86843207D01*
X179966016Y-87059367D01*
X179893597Y-87266941D01*
X179818872Y-87465904D01*
X179741846Y-87656232D01*
X179662523Y-87837901D01*
X179580908Y-88010887D01*
X179497005Y-88175166D01*
X179410818Y-88330714D01*
X179254033Y-88575431D01*
X179095184Y-88815657D01*
X178934287Y-89051380D01*
X178771357Y-89282586D01*
X178606410Y-89509262D01*
X178439462Y-89731395D01*
X178270529Y-89948970D01*
X178099628Y-90161975D01*
X177926772Y-90370396D01*
X177751980Y-90574220D01*
X177575265Y-90773434D01*
X177396645Y-90968024D01*
X177216135Y-91157977D01*
X177033751Y-91343280D01*
X176849509Y-91523918D01*
X176663425Y-91699880D01*
X176475514Y-91871151D01*
X176285793Y-92037718D01*
X176094277Y-92199567D01*
X175900982Y-92356687D01*
X175705924Y-92509062D01*
X175509120Y-92656680D01*
X175310584Y-92799527D01*
X175110332Y-92937590D01*
X174908381Y-93070856D01*
X174704746Y-93199311D01*
X174499444Y-93322941D01*
X174292489Y-93441735D01*
X174083899Y-93555677D01*
X173873688Y-93664755D01*
X173648349Y-93775381D01*
X173420495Y-93880778D01*
X173190148Y-93980956D01*
X172957331Y-94075921D01*
X172722067Y-94165683D01*
X172484375Y-94250249D01*
X172244280Y-94329628D01*
X172001803Y-94403826D01*
X171756966Y-94472853D01*
X171509790Y-94536716D01*
X171260299Y-94595424D01*
X171008514Y-94648984D01*
X170754457Y-94697404D01*
X170498151Y-94740692D01*
X170239616Y-94778856D01*
X169978876Y-94811905D01*
X169715953Y-94839846D01*
X169450868Y-94862688D01*
X169183643Y-94880438D01*
X168914301Y-94893104D01*
X168860098Y-94683041D01*
X168820961Y-94474446D01*
X168797230Y-94267829D01*
X168789244Y-94063698D01*
X168800522Y-93852123D01*
X168833997Y-93643275D01*
X168889127Y-93437407D01*
X168965373Y-93234776D01*
X169062196Y-93035636D01*
X169179054Y-92840244D01*
X169315408Y-92648854D01*
X169470718Y-92461722D01*
X169644443Y-92279104D01*
X169836045Y-92101253D01*
X170044981Y-91928427D01*
X169995889Y-91856080D01*
X170073804Y-91775536D01*
X170166179Y-91686485D01*
X170272246Y-91589153D01*
X170391239Y-91483764D01*
X170522390Y-91370544D01*
X170664934Y-91249717D01*
X170818103Y-91121510D01*
X170981130Y-90986147D01*
X171153249Y-90843854D01*
X171333692Y-90694855D01*
X171521694Y-90539375D01*
X171716487Y-90377641D01*
X171917304Y-90209876D01*
X172123379Y-90036307D01*
X172333945Y-89857158D01*
X172548235Y-89672654D01*
X172765483Y-89483021D01*
X172984920Y-89288484D01*
X173205782Y-89089267D01*
X173427300Y-88885597D01*
X173648708Y-88677698D01*
X173869240Y-88465795D01*
X174088128Y-88250113D01*
X174304606Y-88030879D01*
X174517907Y-87808316D01*
X174727263Y-87582650D01*
X174931909Y-87354106D01*
X175131078Y-87122910D01*
X175324002Y-86889286D01*
X175509916Y-86653459D01*
X175688051Y-86415656D01*
X175857642Y-86176100D01*
X176017921Y-85935017D01*
X176168122Y-85692632D01*
X176254520Y-85542159D01*
X176338651Y-85384201D01*
X176420516Y-85218761D01*
X176500114Y-85045837D01*
X176577446Y-84865430D01*
X176652512Y-84677540D01*
X176725312Y-84482167D01*
X176795847Y-84279310D01*
X176864115Y-84068971D01*
X176930117Y-83851148D01*
X176993854Y-83625842D01*
X177055326Y-83393053D01*
X177114532Y-83152782D01*
X177171473Y-82905027D01*
X177226148Y-82649790D01*
X177278559Y-82387069D01*
X177328704Y-82116866D01*
X177376585Y-81839180D01*
X177422201Y-81554012D01*
X177465552Y-81261360D01*
X177506639Y-80961226D01*
X177545461Y-80653609D01*
X177582019Y-80338510D01*
X177616312Y-80015928D01*
X177648342Y-79685864D01*
X177678107Y-79348317D01*
X177683455Y-79111757D01*
X177695518Y-78875444D01*
X177714287Y-78639569D01*
X177739746Y-78404323D01*
X177771874Y-78169894D01*
X177810647Y-77936471D01*
X177856031Y-77704244D01*
X177907992Y-77473400D01*
X177966487Y-77244123D01*
X178031468Y-77016601D01*
X178102884Y-76791015D01*
X178180677Y-76567548D01*
X178264784Y-76346380D01*
X178355137Y-76127690D01*
X178451664Y-75911653D01*
X178554286Y-75698444D01*
X178662921Y-75488236D01*
X178777482Y-75281197D01*
X178897875Y-75077494D01*
X179024003Y-74877293D01*
X179155766Y-74680753D01*
X179293056Y-74488034D01*
X179435764Y-74299291D01*
X179583773Y-74114677D01*
X179736965Y-73934340D01*
X179895216Y-73758426D01*
X180058398Y-73587076D01*
X180226380Y-73420429D01*
X180399026Y-73258619D01*
X180576198Y-73101777D01*
X180757751Y-72950028D01*
X180943541Y-72803497D01*
X180955145Y-73113510D01*
G37*
G36*
X182896341Y-72063979D02*
G01*
X183145429Y-72069519D01*
X183313939Y-72078993D01*
X183548428Y-72133541D01*
X183778602Y-72199836D01*
X184004179Y-72277523D01*
X184224871Y-72366244D01*
X184440396Y-72465644D01*
X184650469Y-72575365D01*
X184854804Y-72695050D01*
X185053116Y-72824343D01*
X185245123Y-72962888D01*
X185430538Y-73110327D01*
X185609077Y-73266304D01*
X185780456Y-73430463D01*
X185944389Y-73602446D01*
X186100592Y-73781897D01*
X186248781Y-73968459D01*
X186388670Y-74161775D01*
X186519976Y-74361490D01*
X186642413Y-74567245D01*
X186755696Y-74778685D01*
X186859542Y-74995453D01*
X186953665Y-75217192D01*
X187037781Y-75443546D01*
X187111605Y-75674157D01*
X187174853Y-75908669D01*
X187227239Y-76146726D01*
X187268480Y-76387971D01*
X187298290Y-76632046D01*
X187316384Y-76878596D01*
X187322479Y-77127264D01*
X187322479Y-83458143D01*
X187323874Y-83844029D01*
X187334881Y-83966640D01*
X187386219Y-84261001D01*
X187446685Y-84546001D01*
X187515839Y-84821889D01*
X187593242Y-85088918D01*
X187678453Y-85347339D01*
X187771031Y-85597402D01*
X187870538Y-85839359D01*
X187976532Y-86073460D01*
X188088574Y-86299958D01*
X188206223Y-86519103D01*
X188329039Y-86731146D01*
X188456582Y-86936338D01*
X188588411Y-87134931D01*
X188724088Y-87327176D01*
X188863171Y-87513324D01*
X189005220Y-87693625D01*
X189149795Y-87868332D01*
X189296456Y-88037695D01*
X189444763Y-88201965D01*
X189594275Y-88361394D01*
X189744553Y-88516233D01*
X189685709Y-88758786D01*
X189620389Y-88997631D01*
X189548519Y-89232923D01*
X189470029Y-89464819D01*
X189384846Y-89693475D01*
X189292898Y-89919047D01*
X189194113Y-90141690D01*
X189088419Y-90361561D01*
X188975744Y-90578815D01*
X188856016Y-90793608D01*
X188729163Y-91006097D01*
X188595113Y-91216437D01*
X188453794Y-91424785D01*
X188305133Y-91631296D01*
X188149060Y-91836126D01*
X187985501Y-92039431D01*
X187814384Y-92241368D01*
X187635638Y-92442091D01*
X187491709Y-92596928D01*
X187343100Y-92751042D01*
X187189782Y-92904450D01*
X187031730Y-93057172D01*
X186868918Y-93209225D01*
X186701318Y-93360627D01*
X186528904Y-93511396D01*
X186351649Y-93661552D01*
X186169527Y-93811111D01*
X185982511Y-93960093D01*
X185790575Y-94108516D01*
X185593691Y-94256397D01*
X185391834Y-94403755D01*
X185184976Y-94550608D01*
X184973092Y-94696975D01*
X184756154Y-94842873D01*
X184534135Y-94988322D01*
X184307011Y-95133338D01*
X184074752Y-95277940D01*
X183837334Y-95422147D01*
X183594729Y-95565977D01*
X183346911Y-95709448D01*
X183093854Y-95852578D01*
X182835530Y-95995385D01*
X182571912Y-96137888D01*
X182302976Y-96280104D01*
X182028693Y-96422053D01*
X181749037Y-96563752D01*
X181463982Y-96705219D01*
X181173501Y-96846473D01*
X180837967Y-96965137D01*
X180504989Y-97076973D01*
X180174884Y-97182180D01*
X179847970Y-97280959D01*
X179524566Y-97373507D01*
X179204990Y-97460025D01*
X178889560Y-97540711D01*
X178578594Y-97615764D01*
X178272409Y-97685383D01*
X177971325Y-97749769D01*
X177675659Y-97809118D01*
X177385729Y-97863632D01*
X177101853Y-97913509D01*
X176824350Y-97958947D01*
X176553537Y-98000147D01*
X176289733Y-98037307D01*
X176033256Y-98070627D01*
X175784423Y-98100305D01*
X175543553Y-98126541D01*
X175310964Y-98149534D01*
X175086974Y-98169483D01*
X174871901Y-98186587D01*
X174666063Y-98201045D01*
X174469779Y-98213056D01*
X174283365Y-98222820D01*
X174107142Y-98230535D01*
X173941425Y-98236401D01*
X173786535Y-98240617D01*
X173642788Y-98243382D01*
X173510502Y-98244894D01*
X173389997Y-98245354D01*
X173115754Y-98241941D01*
X172843809Y-98231743D01*
X172574348Y-98214827D01*
X172307559Y-98191258D01*
X172043625Y-98161101D01*
X171782733Y-98124423D01*
X171525070Y-98081287D01*
X171270820Y-98031761D01*
X171020171Y-97975908D01*
X170773307Y-97913795D01*
X170530414Y-97845488D01*
X170291679Y-97771051D01*
X170057287Y-97690550D01*
X169827424Y-97604050D01*
X169843898Y-97415267D01*
X169862564Y-97225262D01*
X170117463Y-97250702D01*
X170370064Y-97270680D01*
X170621691Y-97288307D01*
X170415655Y-97110880D01*
X170222177Y-96929033D01*
X170040766Y-96743347D01*
X169870932Y-96554403D01*
X169712185Y-96362782D01*
X169961981Y-96339041D01*
X170210083Y-96311124D01*
X170456488Y-96279030D01*
X170701192Y-96242762D01*
X170944193Y-96202319D01*
X171185488Y-96157702D01*
X171425073Y-96108913D01*
X171662946Y-96055952D01*
X171899104Y-95998820D01*
X172133543Y-95937518D01*
X172366261Y-95872046D01*
X172597254Y-95802406D01*
X172826520Y-95728598D01*
X173054055Y-95650623D01*
X173279857Y-95568481D01*
X173503922Y-95482175D01*
X173726247Y-95391703D01*
X173946830Y-95297068D01*
X174165667Y-95198270D01*
X174382756Y-95095310D01*
X174598093Y-94988188D01*
X174811675Y-94876906D01*
X175023499Y-94761464D01*
X175233563Y-94641863D01*
X175441863Y-94518104D01*
X175648396Y-94390188D01*
X175853159Y-94258115D01*
X176056149Y-94121886D01*
X176257363Y-93981503D01*
X176456799Y-93836966D01*
X176654452Y-93688275D01*
X176850320Y-93535432D01*
X177044401Y-93378437D01*
X177236690Y-93217291D01*
X177427185Y-93051995D01*
X177615883Y-92882551D01*
X177802781Y-92708957D01*
X177987876Y-92531216D01*
X178171165Y-92349329D01*
X178352644Y-92163295D01*
X178532312Y-91973116D01*
X178710164Y-91778793D01*
X178886197Y-91580326D01*
X179060410Y-91377716D01*
X179232798Y-91170965D01*
X179403358Y-90960072D01*
X179572089Y-90745039D01*
X179738985Y-90525867D01*
X179904046Y-90302556D01*
X180067267Y-90075107D01*
X180228645Y-89843520D01*
X180388178Y-89607798D01*
X180545862Y-89367940D01*
X180701695Y-89123947D01*
X180715648Y-89101210D01*
X180784159Y-88980367D01*
X180851345Y-88855577D01*
X180917207Y-88726834D01*
X180981746Y-88594136D01*
X181044963Y-88457476D01*
X181106860Y-88316851D01*
X181167437Y-88172257D01*
X181226696Y-88023688D01*
X181284637Y-87871141D01*
X181341262Y-87714611D01*
X181396572Y-87554093D01*
X181450568Y-87389584D01*
X181503251Y-87221078D01*
X181554622Y-87048571D01*
X181604682Y-86872060D01*
X181653433Y-86691539D01*
X181700876Y-86507003D01*
X181747011Y-86318450D01*
X181791840Y-86125873D01*
X181835364Y-85929270D01*
X181877583Y-85728634D01*
X181918500Y-85523963D01*
X181958115Y-85315250D01*
X181996429Y-85102493D01*
X182033444Y-84885687D01*
X182069160Y-84664826D01*
X182103579Y-84439908D01*
X182136702Y-84210926D01*
X182168529Y-83977878D01*
X182199063Y-83740758D01*
X182228303Y-83499561D01*
X182256252Y-83254285D01*
X182282910Y-83004924D01*
X182308279Y-82751473D01*
X182332359Y-82493928D01*
X182355151Y-82232286D01*
X182376657Y-81966541D01*
X182396878Y-81696689D01*
X182415816Y-81422725D01*
X182433470Y-81144646D01*
X182449842Y-80862446D01*
X182464934Y-80576122D01*
X182478746Y-80285668D01*
X182491279Y-79991081D01*
X182502535Y-79692356D01*
X182512515Y-79389488D01*
X182521220Y-79082474D01*
X182528650Y-78771308D01*
X182534808Y-78455987D01*
X182539694Y-78136505D01*
X182543309Y-77812859D01*
X182545655Y-77485044D01*
X182546732Y-77153055D01*
X182546541Y-76816889D01*
X182545085Y-76476540D01*
X182542363Y-76132004D01*
X182538377Y-75783278D01*
X182533128Y-75430356D01*
X182526617Y-75073233D01*
X182518846Y-74711907D01*
X182509815Y-74346371D01*
X182499525Y-73976622D01*
X182487978Y-73602656D01*
X182475175Y-73224467D01*
X182461116Y-72842052D01*
X182445804Y-72455406D01*
X182429238Y-72064524D01*
X182605972Y-72061940D01*
X182896341Y-72063979D01*
G37*
G36*
X176286593Y-135458170D02*
G01*
X176383193Y-135468970D01*
X176480083Y-135509203D01*
X176552476Y-135571191D01*
X176598984Y-135648703D01*
X176618220Y-135735507D01*
X176608798Y-135825370D01*
X176569331Y-135912062D01*
X176498433Y-135989350D01*
X176387950Y-136071811D01*
X176308800Y-136104037D01*
X176237649Y-136088620D01*
X176151163Y-136028150D01*
X176074265Y-135946330D01*
X176029119Y-135855656D01*
X176013250Y-135762064D01*
X176024188Y-135671492D01*
X176059459Y-135589878D01*
X176116591Y-135523160D01*
X176193113Y-135477274D01*
X176286553Y-135458160D01*
X176286593Y-135458170D01*
G37*
G36*
X161637158Y-135461780D02*
G01*
X161721645Y-135509821D01*
X161782863Y-135583142D01*
X161816232Y-135676222D01*
X161817172Y-135783539D01*
X161787455Y-135882540D01*
X161735073Y-135960030D01*
X161666099Y-136015910D01*
X161586611Y-136050078D01*
X161502684Y-136062436D01*
X161420392Y-136052881D01*
X161345812Y-136021315D01*
X161285018Y-135967636D01*
X161244086Y-135891744D01*
X161229092Y-135793539D01*
X161241422Y-135672245D01*
X161277905Y-135575830D01*
X161337782Y-135505181D01*
X161420294Y-135461182D01*
X161524682Y-135444719D01*
X161524982Y-135444539D01*
X161533982Y-135444539D01*
X161637158Y-135461780D01*
G37*
G36*
X170118269Y-118223887D02*
G01*
X170249633Y-118237773D01*
X170377462Y-118260922D01*
X170501773Y-118293336D01*
X170622583Y-118335019D01*
X170707354Y-118370459D01*
X170788531Y-118410270D01*
X170866503Y-118453870D01*
X170937916Y-118533328D01*
X171003543Y-118617930D01*
X171063227Y-118707814D01*
X171116815Y-118803118D01*
X171164152Y-118903980D01*
X171202875Y-119005202D01*
X171234537Y-119110424D01*
X171259149Y-119219636D01*
X171276718Y-119332828D01*
X171287253Y-119449993D01*
X171290763Y-119571120D01*
X171286789Y-119695472D01*
X171274874Y-119817178D01*
X171255023Y-119936239D01*
X171227244Y-120052656D01*
X171191543Y-120166430D01*
X171149889Y-120274041D01*
X171099882Y-120376389D01*
X171041504Y-120473455D01*
X170974740Y-120565221D01*
X170899573Y-120651669D01*
X170816230Y-120729927D01*
X170724950Y-120801551D01*
X170625733Y-120866553D01*
X170518577Y-120924939D01*
X170403483Y-120976720D01*
X170301507Y-121012085D01*
X170194019Y-121041022D01*
X170081020Y-121063530D01*
X169962509Y-121079607D01*
X169838487Y-121089254D01*
X169708953Y-121092470D01*
X169585588Y-121089741D01*
X169463571Y-121081535D01*
X169342932Y-121067815D01*
X169223702Y-121048550D01*
X169112083Y-121021680D01*
X169112083Y-118219260D01*
X169983353Y-118219260D01*
X170118269Y-118223887D01*
G37*
G36*
X163813703Y-136272420D02*
G01*
X163839288Y-136311779D01*
X163881282Y-136392992D01*
X163935494Y-136507185D01*
X163997735Y-136645482D01*
X164063813Y-136799010D01*
X164265872Y-137278050D01*
X164764033Y-137311640D01*
X164924885Y-137324629D01*
X165072234Y-137340718D01*
X165196465Y-137358529D01*
X165287966Y-137376682D01*
X165337123Y-137393800D01*
X165378316Y-137443063D01*
X165434924Y-137541103D01*
X165499475Y-137673754D01*
X165564502Y-137826850D01*
X165626044Y-137978717D01*
X165681160Y-138102577D01*
X165733892Y-138201638D01*
X165788282Y-138279109D01*
X165848374Y-138338198D01*
X165918208Y-138382114D01*
X166001828Y-138414066D01*
X166103276Y-138437261D01*
X166226593Y-138454910D01*
X166375822Y-138470219D01*
X166529763Y-138487296D01*
X166670926Y-138508157D01*
X166790101Y-138531021D01*
X166878080Y-138554108D01*
X166925652Y-138575640D01*
X166968936Y-138636641D01*
X167025461Y-138749132D01*
X167087026Y-138891811D01*
X167145432Y-139043377D01*
X167192478Y-139182529D01*
X167219965Y-139287967D01*
X167219693Y-139338390D01*
X167180300Y-139349840D01*
X167091174Y-139365670D01*
X166965540Y-139383750D01*
X166816623Y-139401949D01*
X166671876Y-139415737D01*
X166555731Y-139417823D01*
X166460964Y-139403811D01*
X166380349Y-139369305D01*
X166306660Y-139309908D01*
X166232673Y-139221224D01*
X166151162Y-139098857D01*
X166054903Y-138938410D01*
X165977962Y-138818105D01*
X165897055Y-138709970D01*
X165821822Y-138625879D01*
X165761903Y-138577710D01*
X165697612Y-138559641D01*
X165590563Y-138547804D01*
X165451374Y-138542573D01*
X165290661Y-138544320D01*
X165119043Y-138553420D01*
X164595562Y-138592179D01*
X164308243Y-138121920D01*
X164021442Y-137651670D01*
X163675212Y-137696630D01*
X163554362Y-137710724D01*
X163426792Y-137723114D01*
X163302183Y-137733055D01*
X163190213Y-137739805D01*
X163100563Y-137742619D01*
X162872673Y-137744690D01*
X162717123Y-137178310D01*
X162669450Y-136996262D01*
X162630405Y-136831228D01*
X162602174Y-136693863D01*
X162586945Y-136594821D01*
X162586903Y-136544760D01*
X162618997Y-136519081D01*
X162692841Y-136487695D01*
X162799742Y-136452531D01*
X162931006Y-136415517D01*
X163077941Y-136378582D01*
X163231854Y-136343656D01*
X163384052Y-136312666D01*
X163525841Y-136287543D01*
X163648529Y-136270214D01*
X163743423Y-136262610D01*
X163813703Y-136272420D01*
G37*
G36*
X174019283Y-136247100D02*
G01*
X174085983Y-136251976D01*
X174191170Y-136267018D01*
X174324826Y-136290142D01*
X174476935Y-136319267D01*
X174637478Y-136352310D01*
X174796438Y-136387188D01*
X174943797Y-136421821D01*
X175069540Y-136454125D01*
X175163647Y-136482019D01*
X175216102Y-136503420D01*
X175238671Y-136539768D01*
X175243021Y-136612133D01*
X175228750Y-136723995D01*
X175195452Y-136878834D01*
X175142723Y-137080130D01*
X175087644Y-137278133D01*
X175041374Y-137435558D01*
X174999606Y-137556667D01*
X174958031Y-137645724D01*
X174912343Y-137706992D01*
X174858234Y-137744735D01*
X174791398Y-137763216D01*
X174707527Y-137766698D01*
X174602314Y-137759445D01*
X174471453Y-137745720D01*
X174336583Y-137730220D01*
X174207943Y-137713514D01*
X174094337Y-137696909D01*
X174004571Y-137681715D01*
X173947453Y-137669240D01*
X173902593Y-137669476D01*
X173850933Y-137695862D01*
X173789945Y-137751065D01*
X173717106Y-137837751D01*
X173629890Y-137958587D01*
X173525772Y-138116240D01*
X173218293Y-138595280D01*
X172669492Y-138550840D01*
X172515264Y-138538667D01*
X172387584Y-138531264D01*
X172281813Y-138531150D01*
X172193310Y-138540846D01*
X172117434Y-138562870D01*
X172049545Y-138599741D01*
X171985002Y-138653979D01*
X171919165Y-138728104D01*
X171847393Y-138824634D01*
X171765046Y-138946090D01*
X171667483Y-139094989D01*
X171582460Y-139216772D01*
X171506125Y-139306873D01*
X171435042Y-139368329D01*
X171365779Y-139404175D01*
X171294903Y-139417449D01*
X171139998Y-139417716D01*
X170976197Y-139408797D01*
X170820107Y-139392824D01*
X170688338Y-139371932D01*
X170597497Y-139348253D01*
X170564192Y-139323920D01*
X170579272Y-139277047D01*
X170618943Y-139183567D01*
X170677100Y-139057039D01*
X170747642Y-138911020D01*
X170928513Y-138544640D01*
X171428743Y-138475909D01*
X171590010Y-138451950D01*
X171737406Y-138426770D01*
X171861323Y-138402253D01*
X171952151Y-138380282D01*
X172000283Y-138362740D01*
X172032235Y-138324634D01*
X172078075Y-138245475D01*
X172133520Y-138133899D01*
X172194284Y-137998542D01*
X172256083Y-137848039D01*
X172312469Y-137706255D01*
X172362093Y-137592422D01*
X172410268Y-137503267D01*
X172462305Y-137435515D01*
X172523519Y-137385892D01*
X172599222Y-137351123D01*
X172694726Y-137327933D01*
X172815346Y-137313049D01*
X172966394Y-137303196D01*
X173153183Y-137295100D01*
X173577443Y-137278050D01*
X173775363Y-136777820D01*
X173839161Y-136618841D01*
X173897419Y-136477800D01*
X173946310Y-136363539D01*
X173982004Y-136284898D01*
X174000673Y-136250720D01*
X174018763Y-136246590D01*
X174019283Y-136247100D01*
G37*
G36*
X160416957Y-135452843D02*
G01*
X160448894Y-135586983D01*
X160488743Y-135769309D01*
X160523456Y-135911800D01*
X160564937Y-136042139D01*
X160613280Y-136160401D01*
X160668579Y-136266662D01*
X160730926Y-136360997D01*
X160800417Y-136443482D01*
X160877145Y-136514193D01*
X160961203Y-136573205D01*
X161052687Y-136620594D01*
X161151688Y-136656434D01*
X161258301Y-136680803D01*
X161372621Y-136693774D01*
X161494740Y-136695425D01*
X161624753Y-136685829D01*
X161752048Y-136670633D01*
X161882698Y-136653661D01*
X162007067Y-136636257D01*
X162115517Y-136619765D01*
X162198413Y-136605529D01*
X162401153Y-136567229D01*
X162557003Y-137171709D01*
X162601607Y-137334667D01*
X162648103Y-137486656D01*
X162694076Y-137621053D01*
X162737116Y-137731236D01*
X162774809Y-137810582D01*
X162804743Y-137852469D01*
X162858558Y-137878643D01*
X162945656Y-137894698D01*
X163067481Y-137900717D01*
X163225475Y-137896780D01*
X163421083Y-137882969D01*
X163945523Y-137837269D01*
X164218343Y-138269240D01*
X164310424Y-138407209D01*
X164402221Y-138530777D01*
X164487152Y-138632097D01*
X164558633Y-138703324D01*
X164610082Y-138736609D01*
X164669754Y-138745004D01*
X164764093Y-138747005D01*
X164883822Y-138742938D01*
X165019664Y-138733131D01*
X165162343Y-138717910D01*
X165337083Y-138699416D01*
X165492539Y-138688760D01*
X165611801Y-138686803D01*
X165677963Y-138694410D01*
X165726183Y-138734737D01*
X165796643Y-138821891D01*
X165879875Y-138943044D01*
X165966413Y-139085370D01*
X166048579Y-139222752D01*
X166124535Y-139333526D01*
X166198393Y-139419911D01*
X166274266Y-139484127D01*
X166356265Y-139528392D01*
X166448505Y-139554928D01*
X166555098Y-139565953D01*
X166680156Y-139563687D01*
X166827792Y-139550350D01*
X167010069Y-139533352D01*
X167152680Y-139530247D01*
X167262045Y-139543539D01*
X167344581Y-139575731D01*
X167406707Y-139629329D01*
X167454841Y-139706837D01*
X167495402Y-139810760D01*
X167527580Y-139935964D01*
X167538277Y-140053447D01*
X167527021Y-140164709D01*
X167493337Y-140271247D01*
X167436751Y-140374564D01*
X167356787Y-140476158D01*
X167252972Y-140577530D01*
X167252923Y-140577559D01*
X167144673Y-140661252D01*
X167036990Y-140723113D01*
X166934868Y-140760770D01*
X166843302Y-140771849D01*
X166833075Y-140769808D01*
X166813665Y-140764146D01*
X166785327Y-140754960D01*
X166748318Y-140742351D01*
X166702892Y-140726419D01*
X166649304Y-140707261D01*
X166587811Y-140684978D01*
X166518667Y-140659668D01*
X166442128Y-140631432D01*
X166358449Y-140600367D01*
X166267886Y-140566574D01*
X166170694Y-140530152D01*
X166067128Y-140491200D01*
X165957444Y-140449817D01*
X165841897Y-140406102D01*
X165720743Y-140360155D01*
X165594237Y-140312075D01*
X165462634Y-140261961D01*
X165326190Y-140209913D01*
X165185160Y-140156029D01*
X165039799Y-140100410D01*
X164890363Y-140043153D01*
X164737108Y-139984359D01*
X164580288Y-139924127D01*
X164420159Y-139862556D01*
X164256976Y-139799745D01*
X164090995Y-139735794D01*
X163922472Y-139670801D01*
X163751661Y-139604866D01*
X163578818Y-139538089D01*
X163404198Y-139470568D01*
X163228057Y-139402403D01*
X163050650Y-139333693D01*
X162872232Y-139264537D01*
X162693059Y-139195034D01*
X162513387Y-139125285D01*
X162333470Y-139055387D01*
X162153564Y-138985441D01*
X161973925Y-138915545D01*
X161794807Y-138845799D01*
X161616466Y-138776302D01*
X161439158Y-138707153D01*
X161263138Y-138638452D01*
X161088661Y-138570298D01*
X160915982Y-138502789D01*
X160745358Y-138436026D01*
X160577043Y-138370108D01*
X160411294Y-138305133D01*
X160248364Y-138241201D01*
X160088510Y-138178412D01*
X159931986Y-138116864D01*
X159779050Y-138056657D01*
X159629955Y-137997891D01*
X159484957Y-137940663D01*
X159344311Y-137885074D01*
X159208273Y-137831223D01*
X159077099Y-137779209D01*
X158951043Y-137729131D01*
X158830362Y-137681089D01*
X158715310Y-137635182D01*
X158606142Y-137591509D01*
X158503115Y-137550169D01*
X158406483Y-137511261D01*
X158316503Y-137474886D01*
X158233428Y-137441142D01*
X158157516Y-137410128D01*
X158089020Y-137381943D01*
X158028197Y-137356688D01*
X157975302Y-137334461D01*
X157930590Y-137315361D01*
X157894317Y-137299487D01*
X157866737Y-137286940D01*
X157848108Y-137277817D01*
X157838683Y-137272219D01*
X157842814Y-137236424D01*
X157868527Y-137148277D01*
X157912421Y-137017883D01*
X157971093Y-136855346D01*
X158041143Y-136670769D01*
X158267203Y-136088269D01*
X159326853Y-135734259D01*
X159516916Y-135671082D01*
X159696500Y-135612004D01*
X159862506Y-135558011D01*
X160011835Y-135510086D01*
X160141386Y-135469214D01*
X160248062Y-135436378D01*
X160328763Y-135412563D01*
X160380389Y-135398752D01*
X160399843Y-135395929D01*
X160416957Y-135452843D01*
G37*
G36*
X177500210Y-135430994D02*
G01*
X177587374Y-135452113D01*
X177699962Y-135482470D01*
X177834758Y-135521140D01*
X177988545Y-135567202D01*
X178158106Y-135619733D01*
X178340224Y-135677810D01*
X178531683Y-135740510D01*
X179595643Y-136093429D01*
X179812433Y-136649029D01*
X179878211Y-136826641D01*
X179930566Y-136986018D01*
X179966698Y-137117013D01*
X179983807Y-137209482D01*
X179979093Y-137253279D01*
X179961347Y-137263878D01*
X179921797Y-137282925D01*
X179861892Y-137309822D01*
X179783082Y-137343971D01*
X179686817Y-137384774D01*
X179574548Y-137431632D01*
X179447722Y-137483949D01*
X179307792Y-137541125D01*
X179156206Y-137602563D01*
X178994414Y-137667664D01*
X178823866Y-137735831D01*
X178646012Y-137806466D01*
X178462303Y-137878969D01*
X178260809Y-137958244D01*
X178065078Y-138035249D01*
X177874961Y-138110046D01*
X177690304Y-138182693D01*
X177510957Y-138253251D01*
X177336768Y-138321778D01*
X177167586Y-138388334D01*
X177003260Y-138452979D01*
X176843638Y-138515772D01*
X176688569Y-138576773D01*
X176537901Y-138636041D01*
X176391483Y-138693635D01*
X176249164Y-138749616D01*
X176110792Y-138804043D01*
X175976216Y-138856974D01*
X175845284Y-138908471D01*
X175717846Y-138958592D01*
X175593749Y-139007397D01*
X175472843Y-139054945D01*
X175354976Y-139101295D01*
X175239996Y-139146508D01*
X175127753Y-139190643D01*
X175018095Y-139233760D01*
X174910870Y-139275917D01*
X174805927Y-139317175D01*
X174703116Y-139357592D01*
X174602283Y-139397229D01*
X174503279Y-139436145D01*
X174405951Y-139474399D01*
X174310149Y-139512052D01*
X174215720Y-139549161D01*
X174122514Y-139585788D01*
X174030380Y-139621991D01*
X173939165Y-139657831D01*
X173848718Y-139693365D01*
X173758888Y-139728655D01*
X173669525Y-139763760D01*
X173580475Y-139798738D01*
X173491588Y-139833650D01*
X173402713Y-139868555D01*
X173313698Y-139903513D01*
X173224392Y-139938583D01*
X173134643Y-139973824D01*
X173044300Y-140009297D01*
X172953212Y-140045060D01*
X172861228Y-140081174D01*
X172768195Y-140117697D01*
X172673963Y-140154690D01*
X172673953Y-140155160D01*
X172500605Y-140222850D01*
X172330722Y-140288489D01*
X172165387Y-140351691D01*
X172005686Y-140412066D01*
X171852703Y-140469226D01*
X171707523Y-140522784D01*
X171571231Y-140572352D01*
X171444910Y-140617541D01*
X171329647Y-140657964D01*
X171226525Y-140693233D01*
X171136629Y-140722959D01*
X171061045Y-140746755D01*
X171000855Y-140764232D01*
X170957147Y-140775003D01*
X170931003Y-140778679D01*
X170844168Y-140761227D01*
X170744862Y-140713379D01*
X170640821Y-140641897D01*
X170539778Y-140553542D01*
X170449470Y-140455078D01*
X170377629Y-140353267D01*
X170331993Y-140254869D01*
X170310927Y-140141831D01*
X170310138Y-140012525D01*
X170327258Y-139879252D01*
X170359913Y-139754310D01*
X170405735Y-139650000D01*
X170462353Y-139578620D01*
X170529095Y-139545660D01*
X170631755Y-139529144D01*
X170773089Y-139528866D01*
X170955853Y-139544619D01*
X171087898Y-139556874D01*
X171216078Y-139563359D01*
X171331456Y-139564016D01*
X171425094Y-139558789D01*
X171488053Y-139547620D01*
X171541327Y-139515484D01*
X171608049Y-139451949D01*
X171682453Y-139363843D01*
X171758773Y-139257994D01*
X171831243Y-139141229D01*
X171902499Y-139023717D01*
X171975439Y-138915775D01*
X172044702Y-138824480D01*
X172104926Y-138756906D01*
X172150753Y-138720130D01*
X172207767Y-138704472D01*
X172299158Y-138695957D01*
X172415882Y-138694670D01*
X172548892Y-138700699D01*
X172689143Y-138714130D01*
X172836592Y-138728204D01*
X172973395Y-138733917D01*
X173093140Y-138731402D01*
X173189416Y-138720795D01*
X173255813Y-138702230D01*
X173311765Y-138661604D01*
X173383178Y-138587050D01*
X173463804Y-138486368D01*
X173547395Y-138367360D01*
X173627703Y-138237830D01*
X173859783Y-137837260D01*
X174437703Y-137882460D01*
X174592349Y-137894756D01*
X174720632Y-137903308D01*
X174825877Y-137905252D01*
X174911409Y-137897725D01*
X174980555Y-137877866D01*
X175036641Y-137842812D01*
X175082993Y-137789700D01*
X175122936Y-137715667D01*
X175159796Y-137617851D01*
X175196900Y-137493390D01*
X175237574Y-137339420D01*
X175285143Y-137153079D01*
X175328947Y-136987426D01*
X175370531Y-136839750D01*
X175407072Y-136719378D01*
X175435747Y-136635636D01*
X175453733Y-136597849D01*
X175500956Y-136590739D01*
X175603340Y-136597587D01*
X175745808Y-136616792D01*
X175913283Y-136646749D01*
X176035624Y-136667563D01*
X176161995Y-136683057D01*
X176286295Y-136692862D01*
X176402427Y-136696609D01*
X176504292Y-136693928D01*
X176585793Y-136684450D01*
X176683563Y-136657418D01*
X176778935Y-136614325D01*
X176870803Y-136556680D01*
X176958060Y-136485993D01*
X177039597Y-136403773D01*
X177114308Y-136311531D01*
X177181085Y-136210775D01*
X177238822Y-136103016D01*
X177286412Y-135989763D01*
X177322746Y-135872527D01*
X177346719Y-135752815D01*
X177357223Y-135632139D01*
X177376298Y-135495861D01*
X177415023Y-135420159D01*
X177441687Y-135420035D01*
X177500210Y-135430994D01*
G37*
G36*
X176891137Y-132044984D02*
G01*
X176953629Y-132086929D01*
X177035165Y-132161615D01*
X177141851Y-132273422D01*
X177279792Y-132426729D01*
X177679773Y-132878379D01*
X177427072Y-134378029D01*
X177376964Y-134675046D01*
X177332705Y-134935609D01*
X177293546Y-135162523D01*
X177258739Y-135358595D01*
X177227535Y-135526632D01*
X177199183Y-135669439D01*
X177172934Y-135789823D01*
X177148040Y-135890591D01*
X177123751Y-135974547D01*
X177099317Y-136044500D01*
X177073990Y-136103254D01*
X177047019Y-136153616D01*
X177017657Y-136198392D01*
X176985153Y-136240389D01*
X176948758Y-136282413D01*
X176907722Y-136327270D01*
X176850946Y-136384708D01*
X176793398Y-136433433D01*
X176733012Y-136473471D01*
X176667719Y-136504847D01*
X176595454Y-136527587D01*
X176514150Y-136541719D01*
X176421739Y-136547267D01*
X176358952Y-136545478D01*
X176316154Y-136544258D01*
X176195329Y-136532718D01*
X176057196Y-136512674D01*
X175899689Y-136484151D01*
X175720741Y-136447175D01*
X175518284Y-136401772D01*
X175290252Y-136347970D01*
X175123650Y-136308893D01*
X174960120Y-136272288D01*
X174802223Y-136238622D01*
X174652518Y-136208366D01*
X174513565Y-136181988D01*
X174387923Y-136159960D01*
X174278151Y-136142749D01*
X174186809Y-136130826D01*
X174116456Y-136124659D01*
X174069652Y-136124720D01*
X173986461Y-136137637D01*
X173921046Y-136164783D01*
X173865215Y-136216467D01*
X173810775Y-136303000D01*
X173749535Y-136434690D01*
X173673302Y-136621850D01*
X173609378Y-136778585D01*
X173552021Y-136902656D01*
X173495755Y-136997882D01*
X173435103Y-137068083D01*
X173364589Y-137117077D01*
X173278737Y-137148684D01*
X173172069Y-137166722D01*
X173039110Y-137175011D01*
X172874383Y-137177370D01*
X172724060Y-137181639D01*
X172601145Y-137195903D01*
X172500655Y-137223757D01*
X172417607Y-137268791D01*
X172347022Y-137334599D01*
X172283915Y-137424772D01*
X172223306Y-137542905D01*
X172160212Y-137692590D01*
X172090944Y-137862316D01*
X172029072Y-137998112D01*
X171970218Y-138103719D01*
X171910001Y-138182873D01*
X171844041Y-138239313D01*
X171767961Y-138276777D01*
X171677379Y-138299004D01*
X171567916Y-138309732D01*
X171435193Y-138312700D01*
X171279535Y-138316990D01*
X171146496Y-138330105D01*
X171033296Y-138353740D01*
X170937156Y-138389590D01*
X170855297Y-138439349D01*
X170784939Y-138504712D01*
X170723304Y-138587375D01*
X170667611Y-138689033D01*
X170615082Y-138811379D01*
X170556364Y-138950022D01*
X170492434Y-139081103D01*
X170431048Y-139189848D01*
X170379963Y-139261480D01*
X170310643Y-139328445D01*
X170243451Y-139363129D01*
X170164308Y-139366091D01*
X170059132Y-139337888D01*
X169913843Y-139279080D01*
X169813474Y-139224909D01*
X169722145Y-139155007D01*
X169641130Y-139072035D01*
X169571704Y-138978655D01*
X169515142Y-138877531D01*
X169472721Y-138771323D01*
X169445714Y-138662695D01*
X169435397Y-138554309D01*
X169443045Y-138448826D01*
X169469932Y-138348910D01*
X169472848Y-138343377D01*
X169478109Y-138335917D01*
X169485759Y-138326491D01*
X169495843Y-138315063D01*
X169508403Y-138301592D01*
X169523485Y-138286043D01*
X169541133Y-138268375D01*
X169561390Y-138248551D01*
X169584301Y-138226533D01*
X169609910Y-138202283D01*
X169638261Y-138175762D01*
X169669398Y-138146932D01*
X169703366Y-138115756D01*
X169740207Y-138082195D01*
X169779968Y-138046210D01*
X169822691Y-138007765D01*
X169868420Y-137966819D01*
X169917201Y-137923336D01*
X169969077Y-137877278D01*
X170024091Y-137828605D01*
X170082289Y-137777281D01*
X170143714Y-137723266D01*
X170208411Y-137666522D01*
X170276423Y-137607012D01*
X170347795Y-137544698D01*
X170422571Y-137479540D01*
X170500795Y-137411501D01*
X170582511Y-137340544D01*
X170667763Y-137266628D01*
X170756595Y-137189718D01*
X170849052Y-137109773D01*
X170945177Y-137026757D01*
X171045015Y-136940631D01*
X171148609Y-136851356D01*
X171256005Y-136758895D01*
X171367245Y-136663210D01*
X171482375Y-136564262D01*
X171601438Y-136462013D01*
X171724478Y-136356425D01*
X171851540Y-136247460D01*
X171982667Y-136135080D01*
X172117904Y-136019247D01*
X172257295Y-135899921D01*
X172400884Y-135777066D01*
X172477501Y-135711544D01*
X175842587Y-135711544D01*
X175844448Y-135803545D01*
X175868039Y-135896335D01*
X175914582Y-135987248D01*
X175985302Y-136073620D01*
X176074872Y-136147909D01*
X176168817Y-136198539D01*
X176264416Y-136226583D01*
X176358952Y-136233116D01*
X176449704Y-136219209D01*
X176533955Y-136185938D01*
X176608985Y-136134374D01*
X176672075Y-136065592D01*
X176720505Y-135980665D01*
X176751557Y-135880666D01*
X176762512Y-135766670D01*
X176748817Y-135636668D01*
X176709189Y-135525340D01*
X176645819Y-135435020D01*
X176560896Y-135368043D01*
X176456611Y-135326745D01*
X176335153Y-135313460D01*
X176219184Y-135325324D01*
X176116376Y-135356632D01*
X176027952Y-135404718D01*
X175955138Y-135466917D01*
X175899156Y-135540564D01*
X175861231Y-135622995D01*
X175842587Y-135711544D01*
X172477501Y-135711544D01*
X172548715Y-135650643D01*
X172700832Y-135520614D01*
X172857279Y-135386941D01*
X173018101Y-135249585D01*
X173183342Y-135108509D01*
X173353045Y-134963674D01*
X173527255Y-134815042D01*
X173706015Y-134662575D01*
X173889371Y-134506235D01*
X174077366Y-134345984D01*
X174270044Y-134181783D01*
X174467450Y-134013594D01*
X174669627Y-133841379D01*
X174876620Y-133665101D01*
X175088472Y-133484720D01*
X175305228Y-133300199D01*
X175526932Y-133111500D01*
X175669742Y-132990012D01*
X175809050Y-132871600D01*
X175943669Y-132757271D01*
X176072413Y-132648031D01*
X176194094Y-132544886D01*
X176307524Y-132448842D01*
X176411516Y-132360905D01*
X176504883Y-132282082D01*
X176586437Y-132213379D01*
X176654992Y-132155802D01*
X176709359Y-132110357D01*
X176748352Y-132078051D01*
X176770782Y-132059890D01*
X176841583Y-132031490D01*
X176841583Y-132031399D01*
X176891137Y-132044984D01*
G37*
G36*
X161353633Y-132299130D02*
G01*
X161386506Y-132327192D01*
X161428529Y-132363057D01*
X161479271Y-132406358D01*
X161538303Y-132456729D01*
X161605196Y-132513803D01*
X161679522Y-132577214D01*
X161760849Y-132646597D01*
X161848751Y-132721584D01*
X161942796Y-132801810D01*
X162042556Y-132886909D01*
X162147603Y-132976513D01*
X162257505Y-133070258D01*
X162371835Y-133167776D01*
X162490163Y-133268702D01*
X162612060Y-133372669D01*
X162737097Y-133479311D01*
X162864844Y-133588261D01*
X162994872Y-133699155D01*
X163126752Y-133811624D01*
X163260055Y-133925304D01*
X163394352Y-134039828D01*
X163529213Y-134154830D01*
X163620502Y-134232675D01*
X163714245Y-134312612D01*
X163810250Y-134394477D01*
X163908325Y-134478107D01*
X164008281Y-134563340D01*
X164109926Y-134650013D01*
X164213070Y-134737963D01*
X164317522Y-134827029D01*
X164423090Y-134917046D01*
X164529585Y-135007853D01*
X164636815Y-135099287D01*
X164744590Y-135191184D01*
X164852718Y-135283384D01*
X164961009Y-135375722D01*
X165069272Y-135468036D01*
X165177316Y-135560164D01*
X165284950Y-135651943D01*
X165391984Y-135743209D01*
X165498227Y-135833802D01*
X165603488Y-135923557D01*
X165707576Y-136012313D01*
X165810300Y-136099906D01*
X165911469Y-136186174D01*
X166010894Y-136270954D01*
X166108381Y-136354084D01*
X166203742Y-136435401D01*
X166296785Y-136514742D01*
X166387320Y-136591945D01*
X166475155Y-136666846D01*
X166560099Y-136739284D01*
X166641962Y-136809096D01*
X166720554Y-136876119D01*
X166795683Y-136940190D01*
X166945494Y-137068525D01*
X167091901Y-137195064D01*
X167234111Y-137319076D01*
X167371332Y-137439828D01*
X167502774Y-137556588D01*
X167627645Y-137668623D01*
X167745153Y-137775201D01*
X167854506Y-137875590D01*
X167954914Y-137969057D01*
X168045585Y-138054870D01*
X168125727Y-138132297D01*
X168194548Y-138200606D01*
X168251258Y-138259064D01*
X168295065Y-138306938D01*
X168325177Y-138343498D01*
X168340803Y-138368010D01*
X168373954Y-138468629D01*
X168387348Y-138573820D01*
X168382104Y-138681144D01*
X168359341Y-138788164D01*
X168320179Y-138892440D01*
X168265737Y-138991534D01*
X168197137Y-139083008D01*
X168115496Y-139164425D01*
X168021934Y-139233344D01*
X167917573Y-139287330D01*
X167800224Y-139333144D01*
X167701794Y-139365848D01*
X167643693Y-139378330D01*
X167570444Y-139357555D01*
X167493262Y-139297342D01*
X167414721Y-139200851D01*
X167337399Y-139071246D01*
X167263872Y-138911690D01*
X167200121Y-138767592D01*
X167134852Y-138646830D01*
X167065717Y-138547700D01*
X166990364Y-138468496D01*
X166906443Y-138407515D01*
X166811605Y-138363052D01*
X166703499Y-138333403D01*
X166579775Y-138316864D01*
X166438083Y-138311730D01*
X166281215Y-138308005D01*
X166153733Y-138294493D01*
X166050638Y-138267687D01*
X165966930Y-138224080D01*
X165897610Y-138160164D01*
X165837678Y-138072434D01*
X165782136Y-137957381D01*
X165725982Y-137811500D01*
X165665827Y-137654069D01*
X165606481Y-137523786D01*
X165545264Y-137418350D01*
X165479494Y-137335454D01*
X165406493Y-137272796D01*
X165323578Y-137228073D01*
X165228070Y-137198980D01*
X165117289Y-137183213D01*
X164988552Y-137178470D01*
X164825508Y-137175398D01*
X164688957Y-137164947D01*
X164575645Y-137145262D01*
X164482318Y-137114489D01*
X164405720Y-137070773D01*
X164342596Y-137012261D01*
X164289692Y-136937097D01*
X164243752Y-136843428D01*
X164201522Y-136729400D01*
X164138377Y-136553746D01*
X164075783Y-136410458D01*
X164012205Y-136297588D01*
X163946105Y-136213188D01*
X163875948Y-136155313D01*
X163800196Y-136122016D01*
X163717312Y-136111350D01*
X163676421Y-136114482D01*
X163611786Y-136123542D01*
X163525889Y-136138028D01*
X163421208Y-136157437D01*
X163300224Y-136181263D01*
X163165416Y-136209005D01*
X163019264Y-136240159D01*
X162864248Y-136274222D01*
X162702848Y-136310690D01*
X162537542Y-136349060D01*
X162352016Y-136391728D01*
X162178596Y-136429641D01*
X162018036Y-136462675D01*
X161871088Y-136490707D01*
X161738506Y-136513615D01*
X161621044Y-136531274D01*
X161560854Y-136538556D01*
X161519456Y-136543563D01*
X161434494Y-136550359D01*
X161366911Y-136551539D01*
X161317462Y-136546980D01*
X161226436Y-136521026D01*
X161137466Y-136478218D01*
X161051689Y-136419973D01*
X160970246Y-136347706D01*
X160894275Y-136262835D01*
X160824916Y-136166774D01*
X160763307Y-136060941D01*
X160710587Y-135946752D01*
X160667896Y-135825623D01*
X160660467Y-135795774D01*
X161036756Y-135795774D01*
X161056684Y-135889718D01*
X161108525Y-135983964D01*
X161192412Y-136081379D01*
X161280266Y-136153815D01*
X161372788Y-136202672D01*
X161467233Y-136229073D01*
X161560854Y-136234141D01*
X161650904Y-136219000D01*
X161734636Y-136184773D01*
X161809304Y-136132584D01*
X161872160Y-136063555D01*
X161920458Y-135978811D01*
X161951451Y-135879475D01*
X161962392Y-135766669D01*
X161945604Y-135632142D01*
X161898931Y-135517812D01*
X161827914Y-135425661D01*
X161738090Y-135357670D01*
X161635000Y-135315823D01*
X161524182Y-135302099D01*
X161512312Y-135302099D01*
X161420095Y-135315590D01*
X161329786Y-135350252D01*
X161244440Y-135407087D01*
X161167112Y-135487100D01*
X161092104Y-135597331D01*
X161048607Y-135699268D01*
X161036756Y-135795774D01*
X160660467Y-135795774D01*
X160636372Y-135698970D01*
X160607017Y-135548518D01*
X160577346Y-135392008D01*
X160547548Y-135230671D01*
X160517811Y-135065742D01*
X160488323Y-134898453D01*
X160459273Y-134730037D01*
X160430848Y-134561728D01*
X160403236Y-134394757D01*
X160376627Y-134230359D01*
X160351207Y-134069766D01*
X160327165Y-133914212D01*
X160304689Y-133764929D01*
X160283968Y-133623150D01*
X160265188Y-133490109D01*
X160248539Y-133367038D01*
X160234209Y-133255171D01*
X160222385Y-133155740D01*
X160213257Y-133069978D01*
X160207011Y-132999120D01*
X160203836Y-132944397D01*
X160203921Y-132907042D01*
X160207452Y-132888290D01*
X160240301Y-132842785D01*
X160304442Y-132762470D01*
X160392984Y-132655608D01*
X160499031Y-132530463D01*
X160615692Y-132395300D01*
X160977953Y-131978779D01*
X161353633Y-132299130D01*
G37*
G36*
X187147391Y-107376015D02*
G01*
X187267593Y-107386786D01*
X187385605Y-107404485D01*
X187501220Y-107428907D01*
X187614232Y-107459845D01*
X187724436Y-107497094D01*
X187831625Y-107540447D01*
X187935593Y-107589700D01*
X188036134Y-107644644D01*
X188133043Y-107705076D01*
X188226113Y-107770788D01*
X188315138Y-107841574D01*
X188399913Y-107917230D01*
X188480231Y-107997548D01*
X188555887Y-108082323D01*
X188626673Y-108171348D01*
X188692385Y-108264418D01*
X188752817Y-108361327D01*
X188807761Y-108461868D01*
X188857014Y-108565836D01*
X188900367Y-108673025D01*
X188937616Y-108783229D01*
X188968554Y-108896241D01*
X188992976Y-109011856D01*
X189010675Y-109129868D01*
X189021446Y-109250070D01*
X189025081Y-109372257D01*
X189025081Y-145372640D01*
X189021446Y-145494827D01*
X189010675Y-145615030D01*
X188992976Y-145733041D01*
X188968554Y-145848657D01*
X188937616Y-145961669D01*
X188900367Y-146071873D01*
X188857014Y-146179062D01*
X188807761Y-146283030D01*
X188752817Y-146383571D01*
X188692385Y-146480480D01*
X188626673Y-146573550D01*
X188555887Y-146662576D01*
X188480231Y-146747350D01*
X188399913Y-146827669D01*
X188315138Y-146903324D01*
X188226113Y-146974111D01*
X188133043Y-147039823D01*
X188036134Y-147100254D01*
X187935593Y-147155199D01*
X187831625Y-147204451D01*
X187724436Y-147247805D01*
X187614232Y-147285054D01*
X187501220Y-147315992D01*
X187385605Y-147340414D01*
X187267593Y-147358113D01*
X187147391Y-147368884D01*
X187025204Y-147372519D01*
X173726273Y-147372519D01*
X169554432Y-147372519D01*
X165376226Y-147372519D01*
X151025332Y-147372519D01*
X150903145Y-147368884D01*
X150782942Y-147358113D01*
X150664931Y-147340414D01*
X150549315Y-147315992D01*
X150436303Y-147285054D01*
X150326099Y-147247805D01*
X150218910Y-147204451D01*
X150114942Y-147155199D01*
X150014401Y-147100254D01*
X149917492Y-147039823D01*
X149824422Y-146974111D01*
X149735396Y-146903324D01*
X149650622Y-146827669D01*
X149570303Y-146747350D01*
X149494648Y-146662576D01*
X149423861Y-146573550D01*
X149358149Y-146480480D01*
X149297718Y-146383571D01*
X149242773Y-146283030D01*
X149193521Y-146179062D01*
X149150167Y-146071873D01*
X149112918Y-145961669D01*
X149081980Y-145848657D01*
X149057558Y-145733041D01*
X149039859Y-145615030D01*
X149029088Y-145494827D01*
X149025453Y-145372640D01*
X149025453Y-143907619D01*
X164630193Y-143907619D01*
X164660350Y-143941530D01*
X164741811Y-144006115D01*
X164862158Y-144092120D01*
X165008972Y-144190289D01*
X165170480Y-144291345D01*
X165289234Y-144354829D01*
X165376226Y-144384476D01*
X165442442Y-144384021D01*
X165498872Y-144357199D01*
X165517375Y-144343250D01*
X167962803Y-144343250D01*
X167968510Y-144394173D01*
X167990132Y-144425252D01*
X168034415Y-144435388D01*
X168108106Y-144423484D01*
X168217953Y-144388441D01*
X168370702Y-144329162D01*
X168573103Y-144244549D01*
X168723768Y-144181514D01*
X168859752Y-144126637D01*
X168972339Y-144083279D01*
X169052811Y-144054799D01*
X169092452Y-144044560D01*
X169108428Y-144069065D01*
X169128350Y-144138157D01*
X169150950Y-144245203D01*
X169174962Y-144383568D01*
X169199119Y-144546619D01*
X169222153Y-144727719D01*
X169236066Y-144845848D01*
X169251130Y-144972963D01*
X169267027Y-145106405D01*
X169283432Y-145243516D01*
X169300028Y-145381636D01*
X169316491Y-145518106D01*
X169332501Y-145650267D01*
X169347736Y-145775461D01*
X169361878Y-145891028D01*
X169374603Y-145994309D01*
X169401857Y-146198283D01*
X169427634Y-146351427D01*
X169453856Y-146459895D01*
X169482448Y-146529838D01*
X169515332Y-146567412D01*
X169554432Y-146578770D01*
X169597229Y-146571530D01*
X169671495Y-146550616D01*
X169772379Y-146517737D01*
X169895031Y-146474602D01*
X170034600Y-146422919D01*
X170186234Y-146364399D01*
X170345083Y-146300750D01*
X171027212Y-146022219D01*
X170993622Y-145783470D01*
X170988001Y-145741264D01*
X170980427Y-145680344D01*
X170971045Y-145602051D01*
X170959999Y-145507724D01*
X170947436Y-145398704D01*
X170933500Y-145276330D01*
X170918335Y-145141943D01*
X170902087Y-144996883D01*
X170889622Y-144884908D01*
X170884901Y-144842491D01*
X170866921Y-144680105D01*
X170848292Y-144511068D01*
X170829159Y-144336718D01*
X170809668Y-144158396D01*
X170789962Y-143977441D01*
X170770188Y-143795196D01*
X170750489Y-143612998D01*
X170731011Y-143432189D01*
X170711899Y-143254109D01*
X170693297Y-143080097D01*
X170675351Y-142911495D01*
X170658205Y-142749641D01*
X170642004Y-142595877D01*
X170626894Y-142451543D01*
X170613018Y-142317978D01*
X170600523Y-142196523D01*
X170589552Y-142088518D01*
X170580251Y-141995304D01*
X170572765Y-141918219D01*
X170567238Y-141858605D01*
X170563815Y-141817802D01*
X170562643Y-141797150D01*
X170549180Y-141746364D01*
X170505955Y-141720515D01*
X170428710Y-141720167D01*
X170313186Y-141745884D01*
X170155126Y-141798230D01*
X169950273Y-141877770D01*
X169789087Y-141940449D01*
X169653274Y-141988014D01*
X169557182Y-142015855D01*
X169515163Y-142019359D01*
X169509218Y-141999764D01*
X169499796Y-141950848D01*
X169487259Y-141875150D01*
X169471967Y-141775208D01*
X169454280Y-141653561D01*
X169434560Y-141512746D01*
X169413167Y-141355302D01*
X169405919Y-141300540D01*
X171376542Y-141300540D01*
X171378794Y-141324417D01*
X171391148Y-141375534D01*
X171412657Y-141451174D01*
X171442371Y-141548621D01*
X171479340Y-141665161D01*
X171522615Y-141798077D01*
X171571247Y-141944654D01*
X171624286Y-142102177D01*
X171680783Y-142267929D01*
X171739788Y-142439195D01*
X171800352Y-142613261D01*
X171861527Y-142787409D01*
X171922361Y-142958925D01*
X171981906Y-143125093D01*
X172039213Y-143283197D01*
X172093332Y-143430523D01*
X172143313Y-143564353D01*
X172188208Y-143681973D01*
X172227067Y-143780667D01*
X172258940Y-143857720D01*
X172282878Y-143910416D01*
X172297933Y-143936040D01*
X172350827Y-143928067D01*
X172437935Y-143851232D01*
X172540303Y-143722100D01*
X172639791Y-143585112D01*
X172719424Y-143487790D01*
X172761993Y-143451310D01*
X172787127Y-143471989D01*
X172841025Y-143529343D01*
X172918940Y-143617878D01*
X173016123Y-143732099D01*
X173127826Y-143866511D01*
X173249302Y-144015619D01*
X173370394Y-144164645D01*
X173481028Y-144298830D01*
X173576569Y-144412708D01*
X173652380Y-144500816D01*
X173703827Y-144557688D01*
X173726273Y-144577860D01*
X173762095Y-144547662D01*
X173827749Y-144467475D01*
X173912567Y-144352903D01*
X174005884Y-144219552D01*
X174097031Y-144083027D01*
X174175343Y-143958935D01*
X174230152Y-143862881D01*
X174250793Y-143810470D01*
X174238888Y-143782496D01*
X174204860Y-143729034D01*
X174151240Y-143653171D01*
X174080559Y-143557992D01*
X173995347Y-143446586D01*
X173898134Y-143322037D01*
X173791452Y-143187434D01*
X173677831Y-143045861D01*
X173559802Y-142900406D01*
X173439895Y-142754155D01*
X173320641Y-142610195D01*
X173204570Y-142471612D01*
X173094213Y-142341493D01*
X172992101Y-142222923D01*
X172900764Y-142118991D01*
X172822733Y-142032782D01*
X172760539Y-141967383D01*
X172716712Y-141925880D01*
X172693782Y-141911360D01*
X172646024Y-141938762D01*
X172574734Y-142010604D01*
X172495343Y-142111340D01*
X172417450Y-142211867D01*
X172350091Y-142283132D01*
X172307753Y-142309780D01*
X172280133Y-142290330D01*
X172225399Y-142236203D01*
X172148220Y-142152577D01*
X172053266Y-142044629D01*
X171945207Y-141917537D01*
X171828713Y-141776480D01*
X171707672Y-141630928D01*
X171598157Y-141505122D01*
X171505236Y-141404445D01*
X171433981Y-141334283D01*
X171389463Y-141300020D01*
X171376542Y-141300540D01*
X169405919Y-141300540D01*
X169390463Y-141183768D01*
X169366808Y-141000681D01*
X169342562Y-140808579D01*
X169317741Y-140616489D01*
X169292421Y-140433440D01*
X169267057Y-140261974D01*
X169242105Y-140104629D01*
X169218020Y-139963946D01*
X169195258Y-139842464D01*
X169174275Y-139742724D01*
X169155526Y-139667265D01*
X169139467Y-139618627D01*
X169126552Y-139599349D01*
X169125003Y-139598840D01*
X169124493Y-139598840D01*
X169122933Y-139599349D01*
X169105233Y-139620810D01*
X169081283Y-139672421D01*
X169051870Y-139751598D01*
X169017777Y-139855755D01*
X168979790Y-139982309D01*
X168938695Y-140128675D01*
X168895277Y-140292266D01*
X168858986Y-140436149D01*
X168850321Y-140470500D01*
X168804613Y-140660790D01*
X168781688Y-140758571D01*
X168757159Y-140863175D01*
X168731194Y-140973887D01*
X168703959Y-141089995D01*
X168675623Y-141210783D01*
X168646352Y-141335537D01*
X168616313Y-141463545D01*
X168585674Y-141594091D01*
X168554601Y-141726462D01*
X168523263Y-141859943D01*
X168491826Y-141993822D01*
X168460458Y-142127383D01*
X168429325Y-142259914D01*
X168398595Y-142390699D01*
X168368435Y-142519025D01*
X168339013Y-142644178D01*
X168310495Y-142765444D01*
X168283049Y-142882109D01*
X168256843Y-142993460D01*
X168213546Y-143178465D01*
X168172170Y-143357396D01*
X168133179Y-143528124D01*
X168097037Y-143688520D01*
X168064208Y-143836457D01*
X168035157Y-143969806D01*
X168010347Y-144086440D01*
X167990242Y-144184229D01*
X167975307Y-144261046D01*
X167966006Y-144314762D01*
X167962803Y-144343250D01*
X165517375Y-144343250D01*
X165542531Y-144324285D01*
X165606594Y-144272859D01*
X165688459Y-144205207D01*
X165785523Y-144123614D01*
X165895182Y-144030366D01*
X166014833Y-143927746D01*
X166141874Y-143818040D01*
X166273700Y-143703532D01*
X166407709Y-143586509D01*
X166541298Y-143469253D01*
X166671863Y-143354051D01*
X166796800Y-143243188D01*
X166913508Y-143138947D01*
X167019382Y-143043615D01*
X167111820Y-142959476D01*
X167188218Y-142888815D01*
X167245974Y-142833917D01*
X167282483Y-142797067D01*
X167295143Y-142780549D01*
X167260908Y-142740877D01*
X167171967Y-142670645D01*
X167047612Y-142585220D01*
X166801113Y-142425540D01*
X167316333Y-141952180D01*
X167452909Y-141825168D01*
X167575805Y-141707890D01*
X167680016Y-141605361D01*
X167760540Y-141522600D01*
X167812373Y-141464623D01*
X167830512Y-141436449D01*
X167822763Y-141433870D01*
X167787664Y-141440821D01*
X167726627Y-141458784D01*
X167642327Y-141486693D01*
X167537441Y-141523483D01*
X167414648Y-141568089D01*
X167276625Y-141619445D01*
X167126049Y-141676488D01*
X166965596Y-141738151D01*
X166828502Y-141791482D01*
X166797945Y-141803369D01*
X166625773Y-141871078D01*
X166451756Y-141940212D01*
X166278573Y-142009706D01*
X166108900Y-142078495D01*
X165945416Y-142145514D01*
X165790796Y-142209698D01*
X165647718Y-142269982D01*
X165518861Y-142325300D01*
X165406900Y-142374587D01*
X165314514Y-142416779D01*
X165244379Y-142450810D01*
X165199173Y-142475615D01*
X165181573Y-142490130D01*
X165208984Y-142538807D01*
X165298078Y-142613242D01*
X165429623Y-142697359D01*
X165563668Y-142780495D01*
X165659280Y-142852337D01*
X165695752Y-142897340D01*
X165676619Y-142926685D01*
X165622674Y-142984956D01*
X165539101Y-143067185D01*
X165431084Y-143168400D01*
X165303807Y-143283631D01*
X165162452Y-143407910D01*
X165021139Y-143531786D01*
X164893981Y-143645886D01*
X164786144Y-143745365D01*
X164702790Y-143825376D01*
X164649085Y-143881076D01*
X164630193Y-143907619D01*
X149025453Y-143907619D01*
X149025453Y-134444669D01*
X150459212Y-134444669D01*
X150474977Y-134527377D01*
X150508577Y-134598658D01*
X150559936Y-134661792D01*
X150628973Y-134720060D01*
X150644701Y-134729628D01*
X150671285Y-134743346D01*
X150708381Y-134761074D01*
X150755644Y-134782671D01*
X150812730Y-134808000D01*
X150879295Y-134836920D01*
X150954996Y-134869292D01*
X151039486Y-134904977D01*
X151132423Y-134943834D01*
X151233462Y-134985726D01*
X151342259Y-135030512D01*
X151458470Y-135078053D01*
X151581750Y-135128209D01*
X151711756Y-135180842D01*
X151848142Y-135235811D01*
X151990565Y-135292977D01*
X152138681Y-135352202D01*
X152292145Y-135413345D01*
X152450613Y-135476267D01*
X152613742Y-135540828D01*
X152781185Y-135606890D01*
X152952601Y-135674313D01*
X153127644Y-135742957D01*
X153305969Y-135812683D01*
X153487234Y-135883352D01*
X153671093Y-135954824D01*
X153857202Y-136026960D01*
X154171835Y-136148759D01*
X154464217Y-136262056D01*
X154735179Y-136367217D01*
X154985552Y-136464611D01*
X155216166Y-136554604D01*
X155427850Y-136637565D01*
X155621436Y-136713862D01*
X155797754Y-136783860D01*
X155957634Y-136847930D01*
X156101907Y-136906436D01*
X156231403Y-136959748D01*
X156346952Y-137008234D01*
X156449384Y-137052259D01*
X156539531Y-137092193D01*
X156618222Y-137128402D01*
X156686287Y-137161255D01*
X156744558Y-137191118D01*
X156793864Y-137218359D01*
X156835036Y-137243347D01*
X156868904Y-137266448D01*
X156896298Y-137288030D01*
X156918050Y-137308461D01*
X156934989Y-137328108D01*
X156947945Y-137347339D01*
X156957749Y-137366521D01*
X156965231Y-137386022D01*
X156971223Y-137406210D01*
X157009142Y-137511380D01*
X157058703Y-137600659D01*
X157109203Y-137654769D01*
X157218483Y-137699314D01*
X157342353Y-137711695D01*
X157465068Y-137694156D01*
X157570882Y-137648940D01*
X157644052Y-137578289D01*
X157719261Y-137484130D01*
X157783062Y-137444960D01*
X157788767Y-137445968D01*
X157799488Y-137448984D01*
X157815188Y-137453992D01*
X157835829Y-137460978D01*
X157861373Y-137469927D01*
X157891782Y-137480823D01*
X157927018Y-137493653D01*
X157967043Y-137508401D01*
X158011819Y-137525052D01*
X158061309Y-137543592D01*
X158115474Y-137564006D01*
X158174276Y-137586278D01*
X158237678Y-137610395D01*
X158305641Y-137636341D01*
X158378127Y-137664102D01*
X158455099Y-137693662D01*
X158536519Y-137725007D01*
X158622348Y-137758122D01*
X158712549Y-137792993D01*
X158807084Y-137829603D01*
X158905914Y-137867939D01*
X159009003Y-137907986D01*
X159116311Y-137949729D01*
X159227802Y-137993152D01*
X159343436Y-138038242D01*
X159463176Y-138084983D01*
X159586985Y-138133361D01*
X159714824Y-138183360D01*
X159846655Y-138234966D01*
X159982440Y-138288165D01*
X160122142Y-138342940D01*
X160265722Y-138399278D01*
X160413142Y-138457163D01*
X160564365Y-138516581D01*
X160719353Y-138577517D01*
X160878067Y-138639957D01*
X161040470Y-138703884D01*
X161206523Y-138769285D01*
X161376190Y-138836144D01*
X161549431Y-138904447D01*
X161726209Y-138974179D01*
X161906486Y-139045325D01*
X162090224Y-139117870D01*
X162277385Y-139191800D01*
X162467931Y-139267100D01*
X162661824Y-139343754D01*
X162859026Y-139421748D01*
X163059500Y-139501067D01*
X163263207Y-139581697D01*
X163470109Y-139663622D01*
X163680169Y-139746827D01*
X163893348Y-139831299D01*
X164109608Y-139917021D01*
X164328912Y-140003980D01*
X164514648Y-140077392D01*
X164696398Y-140148736D01*
X164873738Y-140217858D01*
X165046244Y-140284603D01*
X165213492Y-140348818D01*
X165375059Y-140410350D01*
X165530521Y-140469045D01*
X165679453Y-140524749D01*
X165821432Y-140577308D01*
X165956033Y-140626568D01*
X166082833Y-140672376D01*
X166201408Y-140714579D01*
X166311334Y-140753021D01*
X166412187Y-140787551D01*
X166503543Y-140818013D01*
X166584978Y-140844254D01*
X166656069Y-140866121D01*
X166716390Y-140883460D01*
X166765519Y-140896117D01*
X166803031Y-140903938D01*
X166828502Y-140906770D01*
X166940663Y-140900730D01*
X167047664Y-140879425D01*
X167148788Y-140844031D01*
X167243318Y-140795724D01*
X167330535Y-140735681D01*
X167409723Y-140665078D01*
X167480164Y-140585091D01*
X167541140Y-140496898D01*
X167591934Y-140401675D01*
X167631827Y-140300597D01*
X167660103Y-140194842D01*
X167676044Y-140085586D01*
X167678932Y-139974005D01*
X167668049Y-139861276D01*
X167642679Y-139748575D01*
X167602103Y-139637080D01*
X167594838Y-139567697D01*
X167660607Y-139522285D01*
X167818103Y-139487730D01*
X167920655Y-139461397D01*
X168022785Y-139416582D01*
X168122132Y-139355635D01*
X168216337Y-139280907D01*
X168303040Y-139194751D01*
X168379880Y-139099518D01*
X168444497Y-138997559D01*
X168494531Y-138891225D01*
X168527623Y-138782870D01*
X168535347Y-138748009D01*
X168542589Y-138714794D01*
X168549032Y-138682901D01*
X168554358Y-138652008D01*
X168558252Y-138621792D01*
X168560396Y-138591932D01*
X168560474Y-138562105D01*
X168558170Y-138531988D01*
X168553166Y-138501259D01*
X168545146Y-138469596D01*
X168533794Y-138436676D01*
X168518792Y-138402178D01*
X168499825Y-138365778D01*
X168476575Y-138327154D01*
X168448725Y-138285984D01*
X168415961Y-138241945D01*
X168377963Y-138194716D01*
X168334417Y-138143973D01*
X168285005Y-138089395D01*
X168229411Y-138030659D01*
X168167317Y-137967442D01*
X168098409Y-137899423D01*
X168022368Y-137826278D01*
X167938878Y-137747686D01*
X167847622Y-137663324D01*
X167748285Y-137572870D01*
X167640548Y-137476001D01*
X167571971Y-137414989D01*
X167524097Y-137372395D01*
X167398613Y-137261730D01*
X167263780Y-137143683D01*
X167119283Y-137017932D01*
X166964803Y-136884154D01*
X166800025Y-136742027D01*
X166624631Y-136591229D01*
X166438306Y-136431438D01*
X166240732Y-136262330D01*
X166031593Y-136083585D01*
X165810572Y-135894878D01*
X165577353Y-135695888D01*
X165331618Y-135486293D01*
X165073052Y-135265770D01*
X164809714Y-135041183D01*
X164558063Y-134826592D01*
X164317841Y-134621766D01*
X164088790Y-134426475D01*
X164035393Y-134380947D01*
X163870652Y-134240487D01*
X163663167Y-134063571D01*
X163466077Y-133895497D01*
X163279124Y-133736033D01*
X163102049Y-133584950D01*
X162934594Y-133442015D01*
X162776499Y-133306998D01*
X162627507Y-133179669D01*
X162586939Y-133144970D01*
X165168653Y-133144970D01*
X165735543Y-134177980D01*
X165828009Y-134345848D01*
X165917452Y-134506921D01*
X166002551Y-134658895D01*
X166081981Y-134799468D01*
X166154421Y-134926338D01*
X166218549Y-135037202D01*
X166273041Y-135129758D01*
X166316576Y-135201703D01*
X166347830Y-135250734D01*
X166365482Y-135274550D01*
X166425264Y-135283740D01*
X166520738Y-135234142D01*
X166645052Y-135129339D01*
X166862093Y-134921090D01*
X167189203Y-135516400D01*
X167283226Y-135684521D01*
X167364981Y-135824078D01*
X167434599Y-135935204D01*
X167492215Y-136018033D01*
X167537961Y-136072699D01*
X167571971Y-136099336D01*
X167594378Y-136098077D01*
X167605315Y-136069055D01*
X167604915Y-136012405D01*
X167593313Y-135928260D01*
X167586428Y-135888270D01*
X167575668Y-135824759D01*
X167561395Y-135739899D01*
X167543972Y-135635863D01*
X167523765Y-135514822D01*
X167501135Y-135378950D01*
X167476448Y-135230419D01*
X167450066Y-135071401D01*
X167422354Y-134904068D01*
X167393675Y-134730593D01*
X167364393Y-134553150D01*
X167362973Y-134544645D01*
X168106937Y-134544645D01*
X168107460Y-134597134D01*
X168111346Y-134636824D01*
X168118437Y-134665073D01*
X168128575Y-134683238D01*
X168141603Y-134692680D01*
X168194714Y-134701502D01*
X168286214Y-134704693D01*
X168406763Y-134702438D01*
X168547019Y-134694925D01*
X168697642Y-134682340D01*
X169160143Y-134636870D01*
X169126043Y-134823930D01*
X169105392Y-134940004D01*
X169083299Y-135070813D01*
X169060113Y-135213798D01*
X169036184Y-135366399D01*
X169011860Y-135526056D01*
X168987490Y-135690210D01*
X168963424Y-135856300D01*
X168940010Y-136021769D01*
X168917597Y-136184055D01*
X168896536Y-136340599D01*
X168877174Y-136488841D01*
X168859862Y-136626223D01*
X168844947Y-136750184D01*
X168832780Y-136858164D01*
X168823708Y-136947605D01*
X168818082Y-137015945D01*
X168816251Y-137060627D01*
X168818562Y-137079090D01*
X168827361Y-137088553D01*
X168835331Y-137097674D01*
X168842944Y-137105663D01*
X168850672Y-137111729D01*
X168858986Y-137115081D01*
X168868358Y-137114928D01*
X168879259Y-137110480D01*
X168892162Y-137100945D01*
X168907539Y-137085533D01*
X168925860Y-137063453D01*
X168947598Y-137033914D01*
X168973224Y-136996126D01*
X169003209Y-136949297D01*
X169038027Y-136892637D01*
X169078148Y-136825355D01*
X169124044Y-136746661D01*
X169176186Y-136655762D01*
X169235047Y-136551870D01*
X169301099Y-136434192D01*
X169374812Y-136301939D01*
X169456658Y-136154319D01*
X169547110Y-135990541D01*
X169646639Y-135809815D01*
X169755716Y-135611350D01*
X169874814Y-135394355D01*
X170004404Y-135158039D01*
X170127404Y-134933636D01*
X171659083Y-134933636D01*
X171671103Y-134976900D01*
X171690138Y-134967695D01*
X171730814Y-134941400D01*
X171791052Y-134899604D01*
X171868776Y-134843901D01*
X171961908Y-134775880D01*
X172068370Y-134697135D01*
X172186086Y-134609255D01*
X172312977Y-134513834D01*
X172446966Y-134412462D01*
X172585977Y-134306731D01*
X172727931Y-134198232D01*
X172870752Y-134088557D01*
X173012361Y-133979298D01*
X173150682Y-133872045D01*
X173283636Y-133768391D01*
X173409148Y-133669928D01*
X173525138Y-133578245D01*
X173629531Y-133494936D01*
X173720248Y-133421591D01*
X173795212Y-133359802D01*
X173852346Y-133311161D01*
X173889572Y-133277259D01*
X173926846Y-133226920D01*
X173910564Y-133187708D01*
X173829265Y-133150639D01*
X173671493Y-133106729D01*
X173510636Y-133061114D01*
X173388653Y-133016961D01*
X173331983Y-132983740D01*
X173337670Y-132951040D01*
X173367771Y-132881621D01*
X173419012Y-132781566D01*
X173488120Y-132656962D01*
X173571821Y-132513894D01*
X173666842Y-132358450D01*
X173762794Y-132202655D01*
X173849147Y-132058594D01*
X173922401Y-131932449D01*
X173979058Y-131830405D01*
X174015618Y-131758644D01*
X174028582Y-131723349D01*
X173992456Y-131689607D01*
X173897100Y-131642694D01*
X173762053Y-131589303D01*
X173606853Y-131536126D01*
X173451038Y-131489856D01*
X173314145Y-131457187D01*
X173215713Y-131444810D01*
X173192780Y-131459470D01*
X173152885Y-131501447D01*
X173098055Y-131567734D01*
X173030314Y-131655327D01*
X172951690Y-131761220D01*
X172864207Y-131882405D01*
X172769893Y-132015879D01*
X172670772Y-132158634D01*
X172568871Y-132307666D01*
X172466216Y-132459968D01*
X172364833Y-132612534D01*
X172266748Y-132762360D01*
X172173986Y-132906438D01*
X172088575Y-133041764D01*
X172012539Y-133165331D01*
X171947905Y-133274134D01*
X171896698Y-133365167D01*
X171860946Y-133435424D01*
X171842673Y-133481899D01*
X171869860Y-133529907D01*
X171959728Y-133585208D01*
X172092782Y-133635890D01*
X172228427Y-133680694D01*
X172325134Y-133720475D01*
X172362013Y-133746480D01*
X172349374Y-133775087D01*
X172314184Y-133839488D01*
X172260530Y-133932891D01*
X172192502Y-134048502D01*
X172114188Y-134179526D01*
X172029675Y-134319170D01*
X171943053Y-134460640D01*
X171858409Y-134597142D01*
X171779833Y-134721883D01*
X171711413Y-134828069D01*
X171659083Y-134933636D01*
X170127404Y-134933636D01*
X170144957Y-134901612D01*
X170296946Y-134624282D01*
X170460842Y-134325259D01*
X170559498Y-134144577D01*
X170654414Y-133969352D01*
X170744967Y-133800803D01*
X170830533Y-133640144D01*
X170910488Y-133488593D01*
X170984210Y-133347365D01*
X171051074Y-133217678D01*
X171110457Y-133100748D01*
X171161736Y-132997790D01*
X171204287Y-132910022D01*
X171237487Y-132838659D01*
X171260712Y-132784919D01*
X171273338Y-132750017D01*
X171274742Y-132735170D01*
X171233334Y-132727327D01*
X171140680Y-132728065D01*
X171007133Y-132736704D01*
X170843043Y-132752562D01*
X170658763Y-132774960D01*
X170475107Y-132797848D01*
X170312742Y-132815288D01*
X170181796Y-132826399D01*
X170092394Y-132830303D01*
X170054663Y-132826120D01*
X170053064Y-132805811D01*
X170056521Y-132755130D01*
X170064680Y-132676713D01*
X170077186Y-132573193D01*
X170093684Y-132447205D01*
X170113819Y-132301383D01*
X170137237Y-132138362D01*
X170163584Y-131960776D01*
X170192504Y-131771261D01*
X170223643Y-131572450D01*
X170254366Y-131373187D01*
X170282097Y-131182428D01*
X170306546Y-131002869D01*
X170327427Y-130837210D01*
X170344450Y-130688147D01*
X170357328Y-130558380D01*
X170365772Y-130450606D01*
X170369495Y-130367525D01*
X170368208Y-130311833D01*
X170361623Y-130286230D01*
X170296746Y-130270700D01*
X170154403Y-130267620D01*
X170154403Y-130267110D01*
X170101692Y-130269170D01*
X170007267Y-130273274D01*
X169901969Y-130279805D01*
X169787194Y-130288728D01*
X169664340Y-130300011D01*
X169534802Y-130313619D01*
X169112603Y-130360903D01*
X168764302Y-130399910D01*
X168726583Y-130605590D01*
X168721499Y-130634196D01*
X168713651Y-130679428D01*
X168703192Y-130740375D01*
X168690274Y-130816128D01*
X168675052Y-130905776D01*
X168657678Y-131008409D01*
X168638306Y-131123118D01*
X168617090Y-131248991D01*
X168594183Y-131385120D01*
X168569739Y-131530595D01*
X168543910Y-131684504D01*
X168516851Y-131845939D01*
X168488714Y-132013988D01*
X168459653Y-132187743D01*
X168429822Y-132366294D01*
X168399374Y-132548729D01*
X168368463Y-132734139D01*
X168321538Y-133017047D01*
X168279718Y-133272217D01*
X168242844Y-133501008D01*
X168210759Y-133704778D01*
X168183304Y-133884884D01*
X168160320Y-134042685D01*
X168141650Y-134179539D01*
X168127135Y-134296804D01*
X168116617Y-134395838D01*
X168109937Y-134477999D01*
X168106937Y-134544645D01*
X167362973Y-134544645D01*
X167332157Y-134360074D01*
X167300600Y-134175718D01*
X167270206Y-134002661D01*
X167241461Y-133843481D01*
X167214850Y-133700758D01*
X167190860Y-133577072D01*
X167169975Y-133475002D01*
X167152682Y-133397127D01*
X167139466Y-133346026D01*
X167130812Y-133324280D01*
X167077631Y-133338747D01*
X166974401Y-133412828D01*
X166843493Y-133530470D01*
X166593893Y-133774389D01*
X166314842Y-133259690D01*
X166206674Y-133059466D01*
X166117036Y-132895494D01*
X166042478Y-132765883D01*
X165979547Y-132668745D01*
X165924789Y-132602190D01*
X165874751Y-132564327D01*
X165825983Y-132553270D01*
X165764393Y-132572508D01*
X165693760Y-132624155D01*
X165608236Y-132704953D01*
X165501973Y-132811650D01*
X165168653Y-133144970D01*
X162586939Y-133144970D01*
X162487358Y-133059796D01*
X162355795Y-132947148D01*
X162232558Y-132841495D01*
X162117390Y-132742605D01*
X162010031Y-132650249D01*
X161910223Y-132564194D01*
X161817708Y-132484211D01*
X161732227Y-132410067D01*
X161653521Y-132341533D01*
X161581331Y-132278378D01*
X161515400Y-132220370D01*
X161455469Y-132167279D01*
X161401279Y-132118873D01*
X161352571Y-132074923D01*
X161309088Y-132035196D01*
X161270570Y-131999463D01*
X161236759Y-131967492D01*
X161207396Y-131939053D01*
X161182223Y-131913914D01*
X161160981Y-131891845D01*
X161143412Y-131872615D01*
X161129257Y-131855992D01*
X161118258Y-131841747D01*
X161110155Y-131829648D01*
X161104692Y-131819465D01*
X161101608Y-131810965D01*
X161100645Y-131803920D01*
X161101545Y-131798097D01*
X161104050Y-131793266D01*
X161107900Y-131789196D01*
X161112838Y-131785656D01*
X161118603Y-131782415D01*
X161124939Y-131779243D01*
X161131587Y-131775908D01*
X161138287Y-131772180D01*
X161144782Y-131767827D01*
X161150812Y-131762619D01*
X161198951Y-131689113D01*
X161223091Y-131595776D01*
X161224155Y-131492093D01*
X161203064Y-131387550D01*
X161160739Y-131291630D01*
X161098103Y-131213820D01*
X161000100Y-131148547D01*
X160887292Y-131124145D01*
X160743603Y-131137340D01*
X160684149Y-131146263D01*
X160628518Y-131147292D01*
X160571735Y-131137282D01*
X160508825Y-131113088D01*
X160434810Y-131071566D01*
X160344716Y-131009570D01*
X160233567Y-130923958D01*
X160096387Y-130811583D01*
X159928201Y-130669302D01*
X159724033Y-130493969D01*
X159501670Y-130302335D01*
X159286707Y-130117106D01*
X159079029Y-129938183D01*
X158878519Y-129765467D01*
X158685061Y-129598859D01*
X158498539Y-129438260D01*
X158318838Y-129283572D01*
X158145840Y-129134695D01*
X157979431Y-128991531D01*
X157819494Y-128853980D01*
X157665913Y-128721944D01*
X157518573Y-128595324D01*
X157377356Y-128474020D01*
X157242148Y-128357935D01*
X157112832Y-128246968D01*
X156989292Y-128141022D01*
X156871412Y-128039997D01*
X156759076Y-127943795D01*
X156652168Y-127852315D01*
X156550572Y-127765461D01*
X156454173Y-127683132D01*
X156362853Y-127605229D01*
X156276497Y-127531655D01*
X156194990Y-127462309D01*
X156118214Y-127397093D01*
X156046055Y-127335908D01*
X155978396Y-127278655D01*
X155915120Y-127225236D01*
X155856113Y-127175551D01*
X155801257Y-127129501D01*
X155750438Y-127086988D01*
X155703538Y-127047912D01*
X155660443Y-127012175D01*
X155621035Y-126979677D01*
X155585199Y-126950321D01*
X155552820Y-126924006D01*
X155523780Y-126900635D01*
X155497964Y-126880107D01*
X155475256Y-126862325D01*
X155455540Y-126847189D01*
X155438699Y-126834600D01*
X155424619Y-126824460D01*
X155413183Y-126816669D01*
X155298334Y-126757615D01*
X155192581Y-126744114D01*
X155075212Y-126773260D01*
X155012270Y-126792828D01*
X154956296Y-126793814D01*
X154898526Y-126768733D01*
X154830197Y-126710100D01*
X154742545Y-126610431D01*
X154626808Y-126462243D01*
X154474222Y-126258050D01*
X154397569Y-126153568D01*
X154321775Y-126048139D01*
X154246848Y-125941787D01*
X154172796Y-125834533D01*
X154099628Y-125726400D01*
X154027353Y-125617410D01*
X153955978Y-125507588D01*
X153885513Y-125396954D01*
X153815965Y-125285533D01*
X153747343Y-125173345D01*
X153679655Y-125060415D01*
X153612910Y-124946765D01*
X153547116Y-124832417D01*
X153482281Y-124717395D01*
X153418414Y-124601720D01*
X153355523Y-124485416D01*
X153293617Y-124368505D01*
X153232704Y-124251010D01*
X153172792Y-124132953D01*
X153113890Y-124014358D01*
X153056005Y-123895246D01*
X152999148Y-123775641D01*
X152943325Y-123655565D01*
X152888546Y-123535041D01*
X152834818Y-123414091D01*
X152782150Y-123292739D01*
X152730550Y-123171007D01*
X152680028Y-123048917D01*
X152630590Y-122926492D01*
X152582246Y-122803755D01*
X152535004Y-122680729D01*
X152488873Y-122557436D01*
X152443859Y-122433899D01*
X152399974Y-122310140D01*
X152357223Y-122186182D01*
X152315617Y-122062049D01*
X152275162Y-121937762D01*
X152235868Y-121813344D01*
X152197744Y-121688818D01*
X152160796Y-121564207D01*
X152125035Y-121439532D01*
X152090467Y-121314818D01*
X152057102Y-121190087D01*
X152024948Y-121065360D01*
X151994014Y-120940662D01*
X151964307Y-120816014D01*
X151935836Y-120691439D01*
X151908609Y-120566960D01*
X151882636Y-120442600D01*
X151857923Y-120318381D01*
X151834481Y-120194326D01*
X151812316Y-120070457D01*
X151791437Y-119946798D01*
X151771854Y-119823370D01*
X151753573Y-119700198D01*
X151736604Y-119577302D01*
X151720955Y-119454707D01*
X151706634Y-119332434D01*
X151693650Y-119210506D01*
X151682011Y-119088946D01*
X151671725Y-118967777D01*
X151662801Y-118847021D01*
X151655248Y-118726701D01*
X151649073Y-118606840D01*
X151643885Y-118474967D01*
X151640417Y-118343325D01*
X151638658Y-118211931D01*
X151638600Y-118080800D01*
X151640234Y-117949949D01*
X151641899Y-117884400D01*
X159825313Y-117884400D01*
X160160693Y-117884400D01*
X160160693Y-118153119D01*
X162471142Y-118153119D01*
X162471142Y-124719640D01*
X162806523Y-124719640D01*
X162806523Y-124988359D01*
X164035393Y-124988359D01*
X164035393Y-118153119D01*
X166681223Y-118153119D01*
X166681223Y-117679240D01*
X166346363Y-117679240D01*
X166346363Y-117410530D01*
X167547843Y-117410530D01*
X167548352Y-124719640D01*
X167883733Y-124719640D01*
X167883733Y-124988359D01*
X169112603Y-124988359D01*
X169112603Y-124719640D01*
X174074573Y-124719640D01*
X174409433Y-124719640D01*
X174409433Y-124988359D01*
X179320763Y-124988359D01*
X179320763Y-124513969D01*
X178985903Y-124513969D01*
X178985903Y-124245250D01*
X175638823Y-124245250D01*
X175638823Y-117679240D01*
X175303443Y-117679240D01*
X175303443Y-117410530D01*
X174074573Y-117410530D01*
X174074573Y-124719640D01*
X169112603Y-124719640D01*
X169112603Y-121609239D01*
X169189206Y-121623893D01*
X169279322Y-121638506D01*
X169382873Y-121653159D01*
X169496129Y-121667253D01*
X169615473Y-121680226D01*
X169740983Y-121691919D01*
X169838507Y-121699855D01*
X169938130Y-121707115D01*
X170039819Y-121713624D01*
X170143543Y-121719310D01*
X170247266Y-121721885D01*
X170348955Y-121723650D01*
X170448578Y-121724665D01*
X170546103Y-121724990D01*
X170673331Y-121722629D01*
X170799886Y-121715546D01*
X170925767Y-121703740D01*
X171050974Y-121687208D01*
X171175506Y-121665948D01*
X171299363Y-121639959D01*
X171422543Y-121609239D01*
X171543452Y-121572118D01*
X171660506Y-121530045D01*
X171773717Y-121483021D01*
X171883097Y-121431048D01*
X171988660Y-121374124D01*
X172090418Y-121312251D01*
X172188383Y-121245429D01*
X172283180Y-121173547D01*
X172372373Y-121096491D01*
X172455956Y-121014260D01*
X172533924Y-120926855D01*
X172606271Y-120834275D01*
X172672992Y-120736520D01*
X172734083Y-120633589D01*
X172789660Y-120525474D01*
X172836727Y-120412169D01*
X172875268Y-120293681D01*
X172905270Y-120170015D01*
X172926717Y-120041177D01*
X172939596Y-119907173D01*
X172943893Y-119768010D01*
X172940534Y-119644425D01*
X172930458Y-119524468D01*
X172913664Y-119408137D01*
X172890152Y-119295426D01*
X172859923Y-119186332D01*
X172822975Y-119080852D01*
X172779308Y-118978983D01*
X172728923Y-118880719D01*
X172665692Y-118771498D01*
X172595697Y-118667467D01*
X172518942Y-118568621D01*
X172435435Y-118474952D01*
X172345182Y-118386455D01*
X172248189Y-118303123D01*
X172144463Y-118224950D01*
X172058672Y-118169139D01*
X171980195Y-118094541D01*
X171897440Y-118023295D01*
X171809083Y-117956230D01*
X171714672Y-117890757D01*
X171616103Y-117829398D01*
X171513384Y-117772159D01*
X171406523Y-117719046D01*
X171295527Y-117670066D01*
X171180404Y-117625225D01*
X171061164Y-117584531D01*
X170937813Y-117547989D01*
X170825461Y-117519082D01*
X170711340Y-117493596D01*
X170595449Y-117471525D01*
X170477789Y-117452865D01*
X170358359Y-117437610D01*
X170237159Y-117425754D01*
X170114190Y-117417292D01*
X169989451Y-117412219D01*
X169862943Y-117410530D01*
X167547843Y-117410530D01*
X166346363Y-117410530D01*
X159825313Y-117410530D01*
X159825313Y-117884400D01*
X151641899Y-117884400D01*
X151643550Y-117819393D01*
X151648541Y-117689151D01*
X151655197Y-117559236D01*
X151663509Y-117429667D01*
X151673468Y-117300459D01*
X151685065Y-117171628D01*
X151698292Y-117043190D01*
X151713139Y-116915163D01*
X151729598Y-116787562D01*
X151747659Y-116660403D01*
X151767314Y-116533703D01*
X151788554Y-116407478D01*
X151811370Y-116281745D01*
X151835752Y-116156518D01*
X151861693Y-116031816D01*
X151889183Y-115907654D01*
X151918212Y-115784048D01*
X151948773Y-115661014D01*
X151980856Y-115538570D01*
X152014453Y-115416730D01*
X152049554Y-115295513D01*
X152086151Y-115174932D01*
X152124234Y-115055006D01*
X152163795Y-114935750D01*
X152204824Y-114817180D01*
X152247314Y-114699314D01*
X152291254Y-114582166D01*
X152336636Y-114465753D01*
X152383451Y-114350092D01*
X152431691Y-114235199D01*
X152481345Y-114121090D01*
X152532406Y-114007782D01*
X152584865Y-113895290D01*
X152638711Y-113783631D01*
X152693938Y-113672821D01*
X152750534Y-113562876D01*
X152808493Y-113453814D01*
X152867804Y-113345649D01*
X152928459Y-113238398D01*
X152990449Y-113132078D01*
X153053765Y-113026705D01*
X153118398Y-112922295D01*
X153184339Y-112818864D01*
X153251579Y-112716429D01*
X153320110Y-112615006D01*
X153389922Y-112514611D01*
X153461006Y-112415260D01*
X153533354Y-112316970D01*
X153606956Y-112219757D01*
X153681804Y-112123637D01*
X153757889Y-112028626D01*
X153835201Y-111934742D01*
X153913733Y-111841999D01*
X153993474Y-111750415D01*
X154074417Y-111660005D01*
X154156551Y-111570786D01*
X154239869Y-111482774D01*
X154324361Y-111395985D01*
X154410018Y-111310437D01*
X154496832Y-111226144D01*
X154584793Y-111143123D01*
X154673893Y-111061390D01*
X154764123Y-110980963D01*
X154855473Y-110901856D01*
X154947935Y-110824086D01*
X155041500Y-110747670D01*
X155136159Y-110672624D01*
X155231902Y-110598964D01*
X155328722Y-110526706D01*
X155426610Y-110455867D01*
X155525555Y-110386463D01*
X155625550Y-110318509D01*
X155726585Y-110252024D01*
X155828651Y-110187021D01*
X155931741Y-110123519D01*
X156035843Y-110061533D01*
X156140951Y-110001080D01*
X156247054Y-109942175D01*
X156354144Y-109884835D01*
X156462213Y-109829076D01*
X156572137Y-109774416D01*
X156682608Y-109721471D01*
X156793624Y-109670242D01*
X156905182Y-109620728D01*
X157017280Y-109572930D01*
X157129917Y-109526848D01*
X157243090Y-109482482D01*
X157356797Y-109439831D01*
X157471036Y-109398896D01*
X157585805Y-109359678D01*
X157701101Y-109322175D01*
X157816924Y-109286388D01*
X157933270Y-109252318D01*
X158050137Y-109219963D01*
X158167524Y-109189325D01*
X158285429Y-109160403D01*
X158403849Y-109133197D01*
X158522782Y-109107708D01*
X158642226Y-109083935D01*
X158762179Y-109061879D01*
X158882639Y-109041539D01*
X159003604Y-109022915D01*
X159125071Y-109006009D01*
X159247040Y-108990819D01*
X159369507Y-108977346D01*
X159492470Y-108965589D01*
X159615928Y-108955550D01*
X159739878Y-108947227D01*
X159864319Y-108940621D01*
X159989248Y-108935733D01*
X160114662Y-108932561D01*
X160240561Y-108931107D01*
X160366941Y-108931369D01*
X160493802Y-108933349D01*
X160621140Y-108937046D01*
X160748954Y-108942461D01*
X160877241Y-108949593D01*
X161005999Y-108958442D01*
X161135228Y-108969009D01*
X161264923Y-108981293D01*
X161395083Y-108995295D01*
X161525707Y-109011015D01*
X161656792Y-109028452D01*
X161788335Y-109047607D01*
X161920336Y-109068480D01*
X162052791Y-109091071D01*
X162185699Y-109115380D01*
X162319057Y-109141406D01*
X162452864Y-109169151D01*
X162587117Y-109198614D01*
X162721815Y-109229795D01*
X162856955Y-109262694D01*
X162992534Y-109297311D01*
X163128552Y-109333647D01*
X163265006Y-109371701D01*
X163401894Y-109411473D01*
X163539214Y-109452964D01*
X163676963Y-109496173D01*
X163815140Y-109541101D01*
X163953743Y-109587748D01*
X164055882Y-109623480D01*
X164161825Y-109662044D01*
X164271262Y-109703291D01*
X164383886Y-109747072D01*
X164499387Y-109793238D01*
X164617456Y-109841641D01*
X164737785Y-109892132D01*
X164860065Y-109944562D01*
X164983987Y-109998784D01*
X165109242Y-110054648D01*
X165235522Y-110112006D01*
X165362518Y-110170709D01*
X165489921Y-110230608D01*
X165617423Y-110291555D01*
X165744713Y-110353402D01*
X165871485Y-110415999D01*
X165997428Y-110479199D01*
X166122235Y-110542852D01*
X166245597Y-110606810D01*
X166367204Y-110670924D01*
X166486747Y-110735046D01*
X166603920Y-110799027D01*
X166718411Y-110862718D01*
X166829913Y-110925971D01*
X166938117Y-110988638D01*
X167042714Y-111050569D01*
X167143396Y-111111616D01*
X167239853Y-111171631D01*
X167403104Y-111272672D01*
X167547726Y-111357920D01*
X167675251Y-111428089D01*
X167787213Y-111483896D01*
X167885143Y-111526056D01*
X167970577Y-111555284D01*
X168045045Y-111572296D01*
X168110083Y-111577808D01*
X168240052Y-111566719D01*
X168355169Y-111536079D01*
X168438537Y-111495125D01*
X169029923Y-111495125D01*
X169087564Y-111555059D01*
X169236623Y-111578325D01*
X169289926Y-111572824D01*
X169355108Y-111556153D01*
X169432674Y-111528059D01*
X169523130Y-111488291D01*
X169626980Y-111436595D01*
X169744731Y-111372718D01*
X169876888Y-111296410D01*
X170023956Y-111207416D01*
X170186442Y-111105485D01*
X170284421Y-111043908D01*
X170386638Y-110981228D01*
X170492746Y-110917613D01*
X170602398Y-110853235D01*
X170715249Y-110788265D01*
X170830951Y-110722873D01*
X170949158Y-110657230D01*
X171069523Y-110591507D01*
X171191698Y-110525874D01*
X171315339Y-110460503D01*
X171440097Y-110395563D01*
X171565626Y-110331227D01*
X171691580Y-110267664D01*
X171817611Y-110205045D01*
X171943374Y-110143541D01*
X172068521Y-110083323D01*
X172192705Y-110024562D01*
X172315580Y-109967428D01*
X172436800Y-109912092D01*
X172556017Y-109858725D01*
X172672885Y-109807497D01*
X172787057Y-109758579D01*
X172898187Y-109712143D01*
X173005927Y-109668358D01*
X173109932Y-109627396D01*
X173209854Y-109589427D01*
X173305346Y-109554623D01*
X173396063Y-109523153D01*
X173527375Y-109479667D01*
X173658580Y-109437804D01*
X173789668Y-109397563D01*
X173920634Y-109358942D01*
X174051468Y-109321941D01*
X174182164Y-109286557D01*
X174312714Y-109252790D01*
X174443109Y-109220638D01*
X174573344Y-109190100D01*
X174703409Y-109161175D01*
X174833298Y-109133860D01*
X174963002Y-109108155D01*
X175092515Y-109084059D01*
X175221828Y-109061570D01*
X175350934Y-109040686D01*
X175479825Y-109021407D01*
X175608494Y-109003731D01*
X175736933Y-108987657D01*
X175865134Y-108973184D01*
X175993090Y-108960309D01*
X176120794Y-108949032D01*
X176248237Y-108939352D01*
X176375412Y-108931267D01*
X176502311Y-108924775D01*
X176628927Y-108919876D01*
X176755252Y-108916568D01*
X176881279Y-108914850D01*
X177007000Y-108914720D01*
X177132407Y-108916178D01*
X177257493Y-108919221D01*
X177382250Y-108923848D01*
X177506670Y-108930059D01*
X177630746Y-108937851D01*
X177754470Y-108947224D01*
X177877835Y-108958176D01*
X178000833Y-108970705D01*
X178123457Y-108984811D01*
X178245698Y-109000492D01*
X178367549Y-109017747D01*
X178489003Y-109036574D01*
X178610052Y-109056973D01*
X178730688Y-109078940D01*
X178850904Y-109102477D01*
X178970692Y-109127580D01*
X179090045Y-109154249D01*
X179208954Y-109182483D01*
X179327413Y-109212280D01*
X179445413Y-109243638D01*
X179562948Y-109276557D01*
X179680009Y-109311034D01*
X179796588Y-109347070D01*
X179912679Y-109384662D01*
X180028274Y-109423808D01*
X180143364Y-109464509D01*
X180257943Y-109506762D01*
X180372002Y-109550566D01*
X180485535Y-109595920D01*
X180598533Y-109642822D01*
X180710989Y-109691271D01*
X180822895Y-109741266D01*
X180934244Y-109792805D01*
X181045029Y-109845887D01*
X181155240Y-109900511D01*
X181264872Y-109956675D01*
X181373915Y-110014378D01*
X181482363Y-110073619D01*
X181590209Y-110134396D01*
X181697443Y-110196708D01*
X181804060Y-110260554D01*
X181910050Y-110325933D01*
X182015407Y-110392842D01*
X182120123Y-110461281D01*
X182224191Y-110531248D01*
X182327602Y-110602742D01*
X182430349Y-110675762D01*
X182532425Y-110750307D01*
X182633821Y-110826374D01*
X182734531Y-110903963D01*
X182834546Y-110983072D01*
X182933860Y-111063700D01*
X183032464Y-111145846D01*
X183130351Y-111229509D01*
X183224621Y-111312267D01*
X183317596Y-111396205D01*
X183409273Y-111481308D01*
X183499645Y-111567560D01*
X183588707Y-111654943D01*
X183676455Y-111743443D01*
X183762884Y-111833044D01*
X183847988Y-111923728D01*
X183931762Y-112015481D01*
X184014202Y-112108287D01*
X184095302Y-112202129D01*
X184175058Y-112296991D01*
X184253464Y-112392858D01*
X184330515Y-112489712D01*
X184406207Y-112587540D01*
X184480534Y-112686324D01*
X184553491Y-112786048D01*
X184625073Y-112886696D01*
X184695276Y-112988253D01*
X184764094Y-113090703D01*
X184831522Y-113194029D01*
X184897555Y-113298215D01*
X184962188Y-113403245D01*
X185025416Y-113509105D01*
X185087235Y-113615776D01*
X185147638Y-113723244D01*
X185206621Y-113831493D01*
X185264180Y-113940506D01*
X185320308Y-114050267D01*
X185375001Y-114160761D01*
X185428254Y-114271971D01*
X185480062Y-114383882D01*
X185530420Y-114496477D01*
X185579323Y-114609741D01*
X185626765Y-114723657D01*
X185672743Y-114838210D01*
X185717249Y-114953383D01*
X185760281Y-115069161D01*
X185801833Y-115185528D01*
X185841899Y-115302466D01*
X185880474Y-115419962D01*
X185917555Y-115537998D01*
X185953135Y-115656558D01*
X185987209Y-115775627D01*
X186019773Y-115895188D01*
X186050822Y-116015227D01*
X186080350Y-116135725D01*
X186108352Y-116256668D01*
X186134824Y-116378040D01*
X186159761Y-116499824D01*
X186183156Y-116622005D01*
X186205007Y-116744567D01*
X186225306Y-116867493D01*
X186244050Y-116990767D01*
X186261233Y-117114374D01*
X186276850Y-117238298D01*
X186290897Y-117362523D01*
X186303368Y-117487032D01*
X186314258Y-117611809D01*
X186323562Y-117736840D01*
X186331275Y-117862106D01*
X186337393Y-117987594D01*
X186341909Y-118113286D01*
X186344820Y-118239167D01*
X186346120Y-118365220D01*
X186345803Y-118491430D01*
X186343866Y-118617781D01*
X186340302Y-118744256D01*
X186335108Y-118870840D01*
X186328277Y-118997517D01*
X186319806Y-119124271D01*
X186309688Y-119251085D01*
X186297919Y-119377943D01*
X186284494Y-119504831D01*
X186269407Y-119631731D01*
X186252655Y-119758628D01*
X186234231Y-119885505D01*
X186214131Y-120012348D01*
X186192349Y-120139138D01*
X186168881Y-120265862D01*
X186143722Y-120392503D01*
X186116867Y-120519044D01*
X186088310Y-120645470D01*
X186058148Y-120772561D01*
X186026696Y-120900232D01*
X185993982Y-121028402D01*
X185960039Y-121156991D01*
X185924896Y-121285918D01*
X185888584Y-121415103D01*
X185851133Y-121544467D01*
X185812575Y-121673928D01*
X185772940Y-121803407D01*
X185732258Y-121932824D01*
X185690561Y-122062098D01*
X185647878Y-122191150D01*
X185604240Y-122319898D01*
X185559679Y-122448263D01*
X185514224Y-122576165D01*
X185467906Y-122703524D01*
X185420756Y-122830259D01*
X185372804Y-122956289D01*
X185324081Y-123081536D01*
X185274618Y-123205919D01*
X185224445Y-123329357D01*
X185173593Y-123451771D01*
X185122092Y-123573080D01*
X185069973Y-123693204D01*
X185017267Y-123812063D01*
X184964005Y-123929576D01*
X184910216Y-124045664D01*
X184855931Y-124160247D01*
X184801182Y-124273243D01*
X184745998Y-124384574D01*
X184690411Y-124494158D01*
X184634450Y-124601916D01*
X184578147Y-124707767D01*
X184521533Y-124811632D01*
X184464637Y-124913430D01*
X184400976Y-125023663D01*
X184330212Y-125142246D01*
X184253393Y-125267665D01*
X184171565Y-125398405D01*
X184085777Y-125532953D01*
X183997074Y-125669795D01*
X183906505Y-125807415D01*
X183815117Y-125944300D01*
X183723957Y-126078936D01*
X183634073Y-126209808D01*
X183546511Y-126335403D01*
X183462319Y-126454206D01*
X183382545Y-126564703D01*
X183308235Y-126665379D01*
X183240437Y-126754721D01*
X183180199Y-126831215D01*
X183128567Y-126893346D01*
X183086589Y-126939599D01*
X183055312Y-126968462D01*
X183035784Y-126978419D01*
X182971165Y-126949174D01*
X182895740Y-126878680D01*
X182874707Y-126854333D01*
X182853650Y-126832616D01*
X182832041Y-126813899D01*
X182809357Y-126798551D01*
X182785071Y-126786942D01*
X182758658Y-126779444D01*
X182729593Y-126776424D01*
X182697351Y-126778254D01*
X182661406Y-126785304D01*
X182621233Y-126797943D01*
X182576306Y-126816541D01*
X182526101Y-126841469D01*
X182470092Y-126873097D01*
X182407754Y-126911794D01*
X182338561Y-126957931D01*
X182261989Y-127011877D01*
X182177511Y-127074003D01*
X182084602Y-127144678D01*
X181982738Y-127224273D01*
X181871393Y-127313157D01*
X181750041Y-127411701D01*
X181618158Y-127520275D01*
X181475217Y-127639248D01*
X181320695Y-127768991D01*
X181154064Y-127909873D01*
X180974801Y-128062265D01*
X180782379Y-128226537D01*
X180576273Y-128403058D01*
X180355959Y-128592199D01*
X180120911Y-128794329D01*
X179870603Y-129009820D01*
X179630813Y-129216222D01*
X179405707Y-129409739D01*
X179320763Y-129482647D01*
X179194808Y-129590753D01*
X178997638Y-129759644D01*
X178813719Y-129916792D01*
X178642573Y-130062579D01*
X178483722Y-130197384D01*
X178336689Y-130321588D01*
X178200995Y-130435572D01*
X178076164Y-130539716D01*
X177961716Y-130634401D01*
X177857176Y-130720008D01*
X177762063Y-130796918D01*
X177675902Y-130865510D01*
X177598214Y-130926165D01*
X177528521Y-130979264D01*
X177466346Y-131025188D01*
X177411210Y-131064317D01*
X177362636Y-131097032D01*
X177320147Y-131123713D01*
X177283263Y-131144741D01*
X177251509Y-131160497D01*
X177224405Y-131171361D01*
X177201474Y-131177713D01*
X177182239Y-131179935D01*
X177166221Y-131178407D01*
X177152943Y-131173510D01*
X177049098Y-131142863D01*
X176939439Y-131151613D01*
X176833899Y-131194056D01*
X176742413Y-131264490D01*
X176674916Y-131357212D01*
X176641343Y-131466520D01*
X176641617Y-131573953D01*
X176662965Y-131676026D01*
X176700772Y-131750740D01*
X176750245Y-131825673D01*
X176755543Y-131868560D01*
X176748566Y-131874347D01*
X176731316Y-131888882D01*
X176704126Y-131911881D01*
X176667330Y-131943059D01*
X176621264Y-131982131D01*
X176566260Y-132028815D01*
X176502655Y-132082824D01*
X176430781Y-132143876D01*
X176350973Y-132211685D01*
X176263566Y-132285967D01*
X176168893Y-132366438D01*
X176067290Y-132452815D01*
X175959090Y-132544811D01*
X175844628Y-132642144D01*
X175724238Y-132744529D01*
X175598254Y-132851681D01*
X175467010Y-132963316D01*
X175330842Y-133079151D01*
X175190083Y-133198900D01*
X175045067Y-133322279D01*
X174896129Y-133449004D01*
X174743604Y-133578791D01*
X174587824Y-133711356D01*
X174429126Y-133846413D01*
X174267842Y-133983680D01*
X174154463Y-134080181D01*
X174040061Y-134177545D01*
X173924799Y-134275635D01*
X173808837Y-134374314D01*
X173692336Y-134473446D01*
X173575457Y-134572893D01*
X173458362Y-134672519D01*
X173341212Y-134772187D01*
X173224166Y-134871760D01*
X173107388Y-134971101D01*
X172991037Y-135070073D01*
X172875275Y-135168540D01*
X172760262Y-135266365D01*
X172646161Y-135363410D01*
X172533131Y-135459540D01*
X172421334Y-135554616D01*
X172310931Y-135648503D01*
X172202084Y-135741063D01*
X172094952Y-135832160D01*
X171989698Y-135921657D01*
X171886482Y-136009417D01*
X171785465Y-136095303D01*
X171686809Y-136179178D01*
X171671103Y-136192530D01*
X171590674Y-136260905D01*
X171497221Y-136340349D01*
X171406612Y-136417371D01*
X171319008Y-136491835D01*
X171234569Y-136563604D01*
X171153458Y-136632541D01*
X171075833Y-136698510D01*
X171001858Y-136761373D01*
X170931693Y-136820994D01*
X170865499Y-136877236D01*
X170803437Y-136929962D01*
X170745667Y-136979036D01*
X170692352Y-137024320D01*
X170552079Y-137143918D01*
X170414707Y-137261957D01*
X170281435Y-137377359D01*
X170153460Y-137489050D01*
X170031980Y-137595954D01*
X169918192Y-137696996D01*
X169813293Y-137791101D01*
X169718481Y-137877194D01*
X169634954Y-137954198D01*
X169563909Y-138021039D01*
X169506544Y-138076642D01*
X169464056Y-138119930D01*
X169437643Y-138149830D01*
X169379451Y-138238580D01*
X169337828Y-138334081D01*
X169311956Y-138434765D01*
X169301021Y-138539068D01*
X169304207Y-138645425D01*
X169320700Y-138752269D01*
X169349684Y-138858035D01*
X169390343Y-138961158D01*
X169441863Y-139060073D01*
X169503428Y-139153213D01*
X169574222Y-139239014D01*
X169653432Y-139315909D01*
X169740240Y-139382334D01*
X169833833Y-139436723D01*
X169933394Y-139477511D01*
X170038109Y-139503131D01*
X170147163Y-139512020D01*
X170240179Y-139520896D01*
X170264466Y-139558366D01*
X170230883Y-139640690D01*
X170190836Y-139735106D01*
X170166133Y-139837828D01*
X170156178Y-139946654D01*
X170160380Y-140059383D01*
X170178143Y-140173815D01*
X170208875Y-140287749D01*
X170251982Y-140398985D01*
X170306871Y-140505322D01*
X170372948Y-140604558D01*
X170449620Y-140694494D01*
X170536293Y-140772930D01*
X170536293Y-140772410D01*
X170587911Y-140810024D01*
X170640515Y-140841487D01*
X170695546Y-140866514D01*
X170754446Y-140884825D01*
X170818658Y-140896137D01*
X170889622Y-140900168D01*
X170968783Y-140896636D01*
X171057581Y-140885258D01*
X171157459Y-140865754D01*
X171269859Y-140837839D01*
X171396223Y-140801234D01*
X171537993Y-140755655D01*
X171696612Y-140700819D01*
X171873521Y-140636447D01*
X172070163Y-140562254D01*
X172287979Y-140477959D01*
X172528413Y-140383279D01*
X172682469Y-140322235D01*
X172838182Y-140260563D01*
X172995414Y-140198316D01*
X173154025Y-140135549D01*
X173313879Y-140072317D01*
X173474837Y-140008673D01*
X173636760Y-139944672D01*
X173799510Y-139880368D01*
X173962950Y-139815815D01*
X174126940Y-139751068D01*
X174291343Y-139686179D01*
X174456020Y-139621205D01*
X174620834Y-139556199D01*
X174785646Y-139491214D01*
X174950317Y-139426306D01*
X175114710Y-139361529D01*
X175278686Y-139296936D01*
X175442107Y-139232582D01*
X175604834Y-139168521D01*
X175766731Y-139104807D01*
X175927658Y-139041495D01*
X176087476Y-138978639D01*
X176246049Y-138916293D01*
X176403238Y-138854511D01*
X176558903Y-138793347D01*
X176712909Y-138732855D01*
X176865115Y-138673091D01*
X177015383Y-138614107D01*
X177163577Y-138555958D01*
X177309556Y-138498699D01*
X177453184Y-138442383D01*
X177594321Y-138387065D01*
X177732830Y-138332799D01*
X177868573Y-138279638D01*
X178001410Y-138227639D01*
X178131204Y-138176853D01*
X178257818Y-138127337D01*
X178381111Y-138079143D01*
X178500947Y-138032326D01*
X178617187Y-137986941D01*
X178729692Y-137943041D01*
X178838325Y-137900681D01*
X178942948Y-137859915D01*
X179043421Y-137820797D01*
X179139608Y-137783381D01*
X179231369Y-137747722D01*
X179318566Y-137713873D01*
X179401062Y-137681890D01*
X179478717Y-137651825D01*
X179551394Y-137623734D01*
X179618955Y-137597670D01*
X179681261Y-137573688D01*
X179738174Y-137551842D01*
X179789556Y-137532186D01*
X179835268Y-137514774D01*
X179875172Y-137499661D01*
X179909131Y-137486901D01*
X179937006Y-137476547D01*
X179958658Y-137468654D01*
X179973950Y-137463277D01*
X179982743Y-137460470D01*
X180059462Y-137460088D01*
X180135417Y-137497608D01*
X180203403Y-137569500D01*
X180271107Y-137639861D01*
X180353151Y-137684754D01*
X180443579Y-137705678D01*
X180536434Y-137704133D01*
X180625762Y-137681619D01*
X180705606Y-137639638D01*
X180770011Y-137579689D01*
X180813022Y-137503273D01*
X180828682Y-137411889D01*
X180845639Y-137320733D01*
X180890386Y-137238843D01*
X180953743Y-137182960D01*
X180971486Y-137174588D01*
X181003659Y-137160677D01*
X181049635Y-137141475D01*
X181108790Y-137117227D01*
X181180498Y-137088181D01*
X181264133Y-137054583D01*
X181359069Y-137016681D01*
X181464682Y-136974720D01*
X181580345Y-136928949D01*
X181705433Y-136879613D01*
X181839320Y-136826960D01*
X181981381Y-136771236D01*
X182130991Y-136712688D01*
X182287522Y-136651564D01*
X182450351Y-136588109D01*
X182618852Y-136522570D01*
X182792398Y-136455195D01*
X182970365Y-136386231D01*
X183152126Y-136315923D01*
X183337057Y-136244520D01*
X183605484Y-136140913D01*
X183862456Y-136041609D01*
X184108188Y-135946520D01*
X184342893Y-135855559D01*
X184566783Y-135768640D01*
X184780072Y-135685673D01*
X184982973Y-135606574D01*
X185175700Y-135531254D01*
X185358465Y-135459627D01*
X185531483Y-135391605D01*
X185694966Y-135327102D01*
X185849127Y-135266029D01*
X185994180Y-135208301D01*
X186130339Y-135153830D01*
X186257816Y-135102529D01*
X186376824Y-135054311D01*
X186487578Y-135009089D01*
X186590289Y-134966775D01*
X186685172Y-134927282D01*
X186772440Y-134890525D01*
X186852306Y-134856414D01*
X186924983Y-134824864D01*
X186990685Y-134795787D01*
X187049625Y-134769096D01*
X187102015Y-134744704D01*
X187148071Y-134722524D01*
X187188003Y-134702469D01*
X187222027Y-134684451D01*
X187250355Y-134668384D01*
X187273201Y-134654180D01*
X187290777Y-134641753D01*
X187303297Y-134631015D01*
X187310974Y-134621880D01*
X187340928Y-134558626D01*
X187355356Y-134483672D01*
X187353508Y-134392591D01*
X187334634Y-134280960D01*
X187297983Y-134144354D01*
X187242804Y-133978349D01*
X187168348Y-133778519D01*
X187104818Y-133623294D01*
X187042882Y-133490432D01*
X186982575Y-133379990D01*
X186923932Y-133292020D01*
X186866988Y-133226579D01*
X186811780Y-133183720D01*
X186772643Y-133164277D01*
X186730193Y-133150929D01*
X186681927Y-133144402D01*
X186625341Y-133145428D01*
X186557933Y-133154733D01*
X186477198Y-133173046D01*
X186380635Y-133201098D01*
X186265739Y-133239616D01*
X186130008Y-133289329D01*
X185970939Y-133350966D01*
X185786027Y-133425256D01*
X185572771Y-133512928D01*
X185328667Y-133614710D01*
X185287965Y-133631400D01*
X185227158Y-133655819D01*
X185148186Y-133687201D01*
X185052993Y-133724784D01*
X184943523Y-133767804D01*
X184821717Y-133815498D01*
X184689519Y-133867103D01*
X184548872Y-133921855D01*
X184401719Y-133978990D01*
X184250003Y-134037746D01*
X184095667Y-134097360D01*
X184006491Y-134131766D01*
X183909894Y-134169054D01*
X183806520Y-134208975D01*
X183697016Y-134251277D01*
X183582026Y-134295714D01*
X183462197Y-134342034D01*
X183338174Y-134389989D01*
X183210602Y-134439329D01*
X183080127Y-134489806D01*
X182947395Y-134541170D01*
X182813051Y-134593170D01*
X182677740Y-134645560D01*
X182542109Y-134698088D01*
X182406802Y-134750505D01*
X182272466Y-134802563D01*
X182139745Y-134854012D01*
X182009286Y-134904602D01*
X181881734Y-134954085D01*
X181757734Y-135002210D01*
X181637933Y-135048730D01*
X181364275Y-135154717D01*
X181127191Y-135245721D01*
X180923946Y-135322552D01*
X180751806Y-135386024D01*
X180608038Y-135436947D01*
X180489908Y-135476133D01*
X180394681Y-135504396D01*
X180319625Y-135522547D01*
X180262004Y-135531397D01*
X180219085Y-135531760D01*
X180188135Y-135524446D01*
X180166418Y-135510269D01*
X180151203Y-135490040D01*
X180092488Y-135430510D01*
X180004007Y-135394143D01*
X179898155Y-135381064D01*
X179787328Y-135391399D01*
X179683922Y-135425273D01*
X179600333Y-135482809D01*
X179547492Y-135557023D01*
X179509807Y-135650943D01*
X179495433Y-135744290D01*
X179494411Y-135786442D01*
X179487284Y-135818092D01*
X179467955Y-135838159D01*
X179430329Y-135845559D01*
X179368309Y-135839213D01*
X179275799Y-135818038D01*
X179146705Y-135780953D01*
X178974929Y-135726876D01*
X178754377Y-135654725D01*
X178478952Y-135563420D01*
X178296651Y-135502830D01*
X178124502Y-135445502D01*
X177965468Y-135392427D01*
X177822515Y-135344594D01*
X177698604Y-135302995D01*
X177596700Y-135268619D01*
X177519766Y-135242457D01*
X177470766Y-135225501D01*
X177452663Y-135218739D01*
X177453432Y-135196966D01*
X177460586Y-135138913D01*
X177473340Y-135049291D01*
X177490913Y-134932806D01*
X177512522Y-134794169D01*
X177537386Y-134638088D01*
X177564723Y-134469271D01*
X177593750Y-134292426D01*
X177623685Y-134112264D01*
X177653745Y-133933492D01*
X177683149Y-133760818D01*
X177711115Y-133598953D01*
X177736861Y-133452603D01*
X177759603Y-133326478D01*
X177778561Y-133225287D01*
X177792951Y-133153738D01*
X177801993Y-133116539D01*
X177843215Y-133059037D01*
X177911033Y-133100010D01*
X178007670Y-133156701D01*
X178129504Y-133175130D01*
X178251526Y-133155480D01*
X178348733Y-133097940D01*
X178389055Y-133024978D01*
X178417844Y-132910611D01*
X178428833Y-132779610D01*
X178432937Y-132695283D01*
X178449445Y-132620961D01*
X178484653Y-132548372D01*
X178544854Y-132469243D01*
X178636343Y-132375301D01*
X178765415Y-132258274D01*
X178938363Y-132109890D01*
X179076107Y-131992922D01*
X179205215Y-131882714D01*
X179320013Y-131784145D01*
X179414823Y-131702095D01*
X179483972Y-131641447D01*
X179521782Y-131607080D01*
X179543525Y-131587273D01*
X179585530Y-131550159D01*
X179646103Y-131497202D01*
X179723548Y-131429866D01*
X179816169Y-131349617D01*
X179922269Y-131257918D01*
X180040154Y-131156237D01*
X180168128Y-131046036D01*
X180304494Y-130928781D01*
X180447558Y-130805938D01*
X180595623Y-130678970D01*
X180722717Y-130569993D01*
X180849346Y-130461293D01*
X180974297Y-130353917D01*
X181096358Y-130248914D01*
X181214316Y-130147329D01*
X181326959Y-130050211D01*
X181433075Y-129958607D01*
X181531450Y-129873564D01*
X181620873Y-129796130D01*
X181700131Y-129727353D01*
X181768012Y-129668278D01*
X181823303Y-129619955D01*
X181864793Y-129583430D01*
X181936865Y-129520052D01*
X182023397Y-129444713D01*
X182120317Y-129360922D01*
X182223549Y-129272184D01*
X182329020Y-129182008D01*
X182432658Y-129093901D01*
X182530388Y-129011369D01*
X182676862Y-128887642D01*
X182816839Y-128768350D01*
X182949067Y-128654608D01*
X183072296Y-128547529D01*
X183185274Y-128448226D01*
X183286753Y-128357815D01*
X183375480Y-128277407D01*
X183450206Y-128208117D01*
X183509679Y-128151058D01*
X183552651Y-128107345D01*
X183577869Y-128078090D01*
X183618076Y-127986825D01*
X183627073Y-127874883D01*
X183606871Y-127754313D01*
X183559482Y-127637165D01*
X183486919Y-127535489D01*
X183344809Y-127384589D01*
X183764938Y-126897800D01*
X183839501Y-126810362D01*
X183913604Y-126721207D01*
X183987234Y-126630370D01*
X184060376Y-126537888D01*
X184133014Y-126443799D01*
X184205134Y-126348137D01*
X184276721Y-126250939D01*
X184347760Y-126152243D01*
X184418237Y-126052084D01*
X184488137Y-125950499D01*
X184557445Y-125847524D01*
X184626147Y-125743196D01*
X184694227Y-125637552D01*
X184761672Y-125530627D01*
X184828465Y-125422458D01*
X184894593Y-125313081D01*
X184960041Y-125202534D01*
X185024794Y-125090853D01*
X185088837Y-124978073D01*
X185152155Y-124864232D01*
X185214735Y-124749366D01*
X185276560Y-124633511D01*
X185337617Y-124516704D01*
X185397890Y-124398981D01*
X185457365Y-124280379D01*
X185516027Y-124160934D01*
X185573862Y-124040682D01*
X185630854Y-123919661D01*
X185686989Y-123797906D01*
X185742252Y-123675455D01*
X185796629Y-123552343D01*
X185850104Y-123428606D01*
X185902663Y-123304282D01*
X185954292Y-123179407D01*
X186004975Y-123054018D01*
X186054697Y-122928150D01*
X186103444Y-122801840D01*
X186151202Y-122675124D01*
X186197955Y-122548040D01*
X186243689Y-122420624D01*
X186288389Y-122292911D01*
X186332040Y-122164939D01*
X186374628Y-122036744D01*
X186416138Y-121908363D01*
X186456554Y-121779831D01*
X186495863Y-121651185D01*
X186534049Y-121522463D01*
X186571099Y-121393699D01*
X186606996Y-121264931D01*
X186641727Y-121136196D01*
X186675276Y-121007529D01*
X186707629Y-120878966D01*
X186738772Y-120750546D01*
X186768688Y-120622303D01*
X186797365Y-120494275D01*
X186824786Y-120366498D01*
X186850937Y-120239008D01*
X186875804Y-120111842D01*
X186899372Y-119985036D01*
X186921625Y-119858626D01*
X186942550Y-119732650D01*
X186962131Y-119607144D01*
X186980354Y-119482143D01*
X186997204Y-119357685D01*
X187012667Y-119233806D01*
X187026726Y-119110543D01*
X187039369Y-118987931D01*
X187050580Y-118866008D01*
X187060344Y-118744810D01*
X187068239Y-118625009D01*
X187074105Y-118504136D01*
X187077958Y-118382254D01*
X187079814Y-118259422D01*
X187079693Y-118135703D01*
X187077609Y-118011159D01*
X187073582Y-117885850D01*
X187067628Y-117759839D01*
X187059765Y-117633185D01*
X187050009Y-117505952D01*
X187038378Y-117378201D01*
X187024889Y-117249992D01*
X187009559Y-117121388D01*
X186992406Y-116992450D01*
X186973447Y-116863239D01*
X186952699Y-116733818D01*
X186930179Y-116604246D01*
X186905905Y-116474586D01*
X186879893Y-116344900D01*
X186852162Y-116215248D01*
X186822728Y-116085692D01*
X186791608Y-115956294D01*
X186758820Y-115827115D01*
X186724381Y-115698217D01*
X186688308Y-115569660D01*
X186650619Y-115441507D01*
X186611330Y-115313820D01*
X186570459Y-115186658D01*
X186528024Y-115060085D01*
X186484041Y-114934160D01*
X186438527Y-114808947D01*
X186391500Y-114684506D01*
X186342978Y-114560899D01*
X186292977Y-114438187D01*
X186241514Y-114316431D01*
X186188607Y-114195694D01*
X186134273Y-114076036D01*
X186078530Y-113957520D01*
X186021394Y-113840206D01*
X185962883Y-113724156D01*
X185903014Y-113609431D01*
X185841804Y-113496094D01*
X185779271Y-113384205D01*
X185715431Y-113273825D01*
X185650303Y-113165018D01*
X185583902Y-113057842D01*
X185516247Y-112952362D01*
X185447355Y-112848636D01*
X185377243Y-112746729D01*
X185291620Y-112625069D01*
X185211854Y-112513191D01*
X185136734Y-112409696D01*
X185065048Y-112313186D01*
X184995587Y-112222262D01*
X184927140Y-112135526D01*
X184858496Y-112051578D01*
X184788445Y-111969020D01*
X184715776Y-111886453D01*
X184639278Y-111802479D01*
X184557742Y-111715698D01*
X184469956Y-111624713D01*
X184374709Y-111528124D01*
X184270793Y-111424533D01*
X184156994Y-111312542D01*
X184032105Y-111190751D01*
X183940852Y-111103231D01*
X183848719Y-111017191D01*
X183755709Y-110932630D01*
X183661823Y-110849550D01*
X183567061Y-110767950D01*
X183471427Y-110687831D01*
X183374921Y-110609195D01*
X183277546Y-110532041D01*
X183179302Y-110456370D01*
X183080191Y-110382183D01*
X182980216Y-110309480D01*
X182879377Y-110238262D01*
X182777675Y-110168530D01*
X182675114Y-110100284D01*
X182571694Y-110033524D01*
X182467417Y-109968252D01*
X182362284Y-109904468D01*
X182256297Y-109842172D01*
X182149458Y-109781365D01*
X182041769Y-109722048D01*
X181933230Y-109664221D01*
X181823844Y-109607885D01*
X181713611Y-109553041D01*
X181602535Y-109499688D01*
X181490615Y-109447828D01*
X181377855Y-109397462D01*
X181264254Y-109348589D01*
X181149816Y-109301211D01*
X181034542Y-109255327D01*
X180918433Y-109210940D01*
X180801490Y-109168048D01*
X180683716Y-109126653D01*
X180565112Y-109086756D01*
X180445680Y-109048357D01*
X180325421Y-109011456D01*
X180204336Y-108976054D01*
X180082428Y-108942153D01*
X179959698Y-108909751D01*
X179836148Y-108878851D01*
X179711779Y-108849452D01*
X179586592Y-108821555D01*
X179460590Y-108795161D01*
X179333774Y-108770270D01*
X179206146Y-108746883D01*
X179077707Y-108725001D01*
X178948458Y-108704624D01*
X178818402Y-108685752D01*
X178687540Y-108668387D01*
X178555873Y-108652529D01*
X178423403Y-108638178D01*
X178290133Y-108625336D01*
X178156062Y-108614002D01*
X178021194Y-108604177D01*
X177885529Y-108595862D01*
X177749069Y-108589058D01*
X177611816Y-108583764D01*
X177473771Y-108579983D01*
X177334936Y-108577713D01*
X177195312Y-108576957D01*
X177195833Y-108577474D01*
X177066575Y-108578064D01*
X176938084Y-108579843D01*
X176810323Y-108582819D01*
X176683257Y-108587000D01*
X176556849Y-108592397D01*
X176431062Y-108599017D01*
X176305862Y-108606871D01*
X176181210Y-108615967D01*
X176057072Y-108626313D01*
X175933412Y-108637920D01*
X175810191Y-108650796D01*
X175687376Y-108664950D01*
X175564929Y-108680391D01*
X175442815Y-108697129D01*
X175320997Y-108715172D01*
X175199438Y-108734529D01*
X175078104Y-108755210D01*
X174956956Y-108777222D01*
X174835961Y-108800577D01*
X174715080Y-108825281D01*
X174594278Y-108851346D01*
X174473520Y-108878778D01*
X174352767Y-108907589D01*
X174231986Y-108937786D01*
X174111138Y-108969378D01*
X173990188Y-109002375D01*
X173869101Y-109036786D01*
X173747838Y-109072619D01*
X173626366Y-109109885D01*
X173504646Y-109148591D01*
X173382644Y-109188746D01*
X173260322Y-109230361D01*
X173137646Y-109273443D01*
X173014577Y-109318003D01*
X172891081Y-109364048D01*
X172767121Y-109411588D01*
X172642661Y-109460633D01*
X172517665Y-109511190D01*
X172392096Y-109563269D01*
X172265918Y-109616880D01*
X172139096Y-109672030D01*
X172011592Y-109728730D01*
X171883372Y-109786988D01*
X171754397Y-109846813D01*
X171624634Y-109908215D01*
X171494044Y-109971201D01*
X171362592Y-110035783D01*
X171224909Y-110105085D01*
X171083940Y-110178046D01*
X170940631Y-110254073D01*
X170795926Y-110332576D01*
X170650770Y-110412963D01*
X170506109Y-110494644D01*
X170362888Y-110577027D01*
X170222051Y-110659522D01*
X170084544Y-110741537D01*
X169951311Y-110822480D01*
X169823298Y-110901762D01*
X169701449Y-110978791D01*
X169586710Y-111052976D01*
X169480026Y-111123726D01*
X169382341Y-111190449D01*
X169294601Y-111252555D01*
X169217751Y-111309452D01*
X169152736Y-111360550D01*
X169100500Y-111405258D01*
X169061989Y-111442983D01*
X169038149Y-111473136D01*
X169029923Y-111495125D01*
X168438537Y-111495125D01*
X168449336Y-111489820D01*
X168516460Y-111431879D01*
X168550443Y-111366190D01*
X168545193Y-111296688D01*
X168529906Y-111273895D01*
X168499017Y-111243167D01*
X168453537Y-111205104D01*
X168394476Y-111160303D01*
X168322845Y-111109363D01*
X168239655Y-111052883D01*
X168145916Y-110991463D01*
X168042640Y-110925700D01*
X167930836Y-110856193D01*
X167811517Y-110783542D01*
X167685693Y-110708344D01*
X167554374Y-110631199D01*
X167418571Y-110552706D01*
X167279295Y-110473462D01*
X167137558Y-110394068D01*
X166994369Y-110315121D01*
X166850739Y-110237221D01*
X166707680Y-110160965D01*
X166566202Y-110086954D01*
X166427316Y-110015785D01*
X166292033Y-109948058D01*
X166161363Y-109884370D01*
X166029424Y-109821596D01*
X165898580Y-109760498D01*
X165768780Y-109701065D01*
X165639974Y-109643285D01*
X165512112Y-109587145D01*
X165385144Y-109532634D01*
X165259019Y-109479741D01*
X165133688Y-109428451D01*
X165009100Y-109378755D01*
X164885204Y-109330639D01*
X164761951Y-109284092D01*
X164639291Y-109239102D01*
X164517173Y-109195656D01*
X164395547Y-109153743D01*
X164274363Y-109113351D01*
X164153570Y-109074467D01*
X164033119Y-109037080D01*
X163912960Y-109001177D01*
X163793041Y-108966747D01*
X163673313Y-108933777D01*
X163553726Y-108902256D01*
X163434229Y-108872172D01*
X163314772Y-108843511D01*
X163195306Y-108816264D01*
X163075779Y-108790416D01*
X162956142Y-108765958D01*
X162836344Y-108742875D01*
X162716336Y-108721157D01*
X162596066Y-108700791D01*
X162475485Y-108681766D01*
X162354543Y-108664069D01*
X162233190Y-108647688D01*
X162111374Y-108632611D01*
X161989047Y-108618827D01*
X161866157Y-108606323D01*
X161742655Y-108595087D01*
X161618490Y-108585107D01*
X161493612Y-108576372D01*
X161367972Y-108568869D01*
X161241518Y-108562586D01*
X161114200Y-108557511D01*
X160985969Y-108553632D01*
X160856775Y-108550937D01*
X160726566Y-108549414D01*
X160595292Y-108549051D01*
X160430887Y-108549830D01*
X160272841Y-108551672D01*
X160120706Y-108554642D01*
X159974037Y-108558804D01*
X159832385Y-108564222D01*
X159695304Y-108570958D01*
X159562347Y-108579077D01*
X159433067Y-108588642D01*
X159307017Y-108599718D01*
X159183750Y-108612367D01*
X159062818Y-108626653D01*
X158943775Y-108642641D01*
X158826174Y-108660394D01*
X158709568Y-108679975D01*
X158593509Y-108701449D01*
X158477551Y-108724878D01*
X158361247Y-108750327D01*
X158244149Y-108777859D01*
X158125812Y-108807538D01*
X158005786Y-108839428D01*
X157883627Y-108873593D01*
X157758886Y-108910095D01*
X157631117Y-108948999D01*
X157499873Y-108990368D01*
X157376262Y-109030853D01*
X157253475Y-109072884D01*
X157131523Y-109116451D01*
X157010416Y-109161543D01*
X156890165Y-109208150D01*
X156770779Y-109256261D01*
X156652269Y-109305866D01*
X156534646Y-109356955D01*
X156417920Y-109409517D01*
X156302102Y-109463542D01*
X156187202Y-109519019D01*
X156073230Y-109575938D01*
X155960197Y-109634288D01*
X155848114Y-109694060D01*
X155736990Y-109755242D01*
X155626836Y-109817825D01*
X155517663Y-109881797D01*
X155409481Y-109947149D01*
X155302301Y-110013869D01*
X155196133Y-110081949D01*
X155090987Y-110151376D01*
X154986874Y-110222141D01*
X154883804Y-110294234D01*
X154781788Y-110367643D01*
X154680836Y-110442359D01*
X154580959Y-110518371D01*
X154482166Y-110595669D01*
X154384469Y-110674242D01*
X154287878Y-110754080D01*
X154192404Y-110835172D01*
X154098056Y-110917508D01*
X154004846Y-111001078D01*
X153912783Y-111085870D01*
X153821878Y-111171876D01*
X153732142Y-111259084D01*
X153643584Y-111347484D01*
X153556217Y-111437065D01*
X153470049Y-111527818D01*
X153385091Y-111619731D01*
X153301354Y-111712794D01*
X153218848Y-111806997D01*
X153137584Y-111902330D01*
X153057572Y-111998781D01*
X152978823Y-112096341D01*
X152901346Y-112195000D01*
X152825153Y-112294746D01*
X152750253Y-112395569D01*
X152676658Y-112497459D01*
X152604378Y-112600406D01*
X152533422Y-112704399D01*
X152463803Y-112809427D01*
X152395529Y-112915481D01*
X152328611Y-113022549D01*
X152263061Y-113130622D01*
X152198888Y-113239689D01*
X152136103Y-113349739D01*
X152074715Y-113460763D01*
X152014737Y-113572749D01*
X151956178Y-113685688D01*
X151899048Y-113799568D01*
X151843358Y-113914380D01*
X151789118Y-114030113D01*
X151736339Y-114146757D01*
X151685032Y-114264301D01*
X151635206Y-114382734D01*
X151586873Y-114502048D01*
X151540042Y-114622230D01*
X151494724Y-114743270D01*
X151450929Y-114865159D01*
X151408669Y-114987886D01*
X151367952Y-115111440D01*
X151329222Y-115233985D01*
X151292007Y-115356520D01*
X151256309Y-115479056D01*
X151222127Y-115601601D01*
X151189462Y-115724166D01*
X151158314Y-115846762D01*
X151128684Y-115969397D01*
X151100571Y-116092083D01*
X151073975Y-116214828D01*
X151048898Y-116337644D01*
X151025339Y-116460540D01*
X151003298Y-116583526D01*
X150982776Y-116706611D01*
X150963773Y-116829807D01*
X150946290Y-116953124D01*
X150930326Y-117076570D01*
X150915881Y-117200156D01*
X150902957Y-117323893D01*
X150891553Y-117447790D01*
X150881669Y-117571857D01*
X150873306Y-117696104D01*
X150866464Y-117820541D01*
X150861143Y-117945179D01*
X150857343Y-118070027D01*
X150855066Y-118195095D01*
X150854310Y-118320393D01*
X150855076Y-118445932D01*
X150857365Y-118571721D01*
X150861176Y-118697770D01*
X150866511Y-118824089D01*
X150873368Y-118950689D01*
X150881749Y-119077579D01*
X150891654Y-119204770D01*
X150903082Y-119332271D01*
X150916035Y-119460092D01*
X150930512Y-119588243D01*
X150946514Y-119716735D01*
X150964040Y-119845578D01*
X150983092Y-119974780D01*
X151003669Y-120104353D01*
X151025772Y-120234307D01*
X151049400Y-120364651D01*
X151074555Y-120495395D01*
X151101236Y-120626550D01*
X151129444Y-120758126D01*
X151159178Y-120890132D01*
X151190439Y-121022578D01*
X151223228Y-121155475D01*
X151257545Y-121288832D01*
X151293389Y-121422660D01*
X151330761Y-121556969D01*
X151369662Y-121691768D01*
X151410091Y-121827067D01*
X151452049Y-121962877D01*
X151495536Y-122099208D01*
X151540553Y-122236069D01*
X151585802Y-122370002D01*
X151631760Y-122502863D01*
X151678428Y-122634657D01*
X151725808Y-122765385D01*
X151773902Y-122895050D01*
X151822710Y-123023655D01*
X151872234Y-123151203D01*
X151922476Y-123277696D01*
X151973436Y-123403138D01*
X152025116Y-123527530D01*
X152077519Y-123650875D01*
X152130644Y-123773177D01*
X152184493Y-123894437D01*
X152239068Y-124014659D01*
X152294371Y-124133845D01*
X152350402Y-124251998D01*
X152407163Y-124369120D01*
X152464655Y-124485215D01*
X152522881Y-124600285D01*
X152581840Y-124714332D01*
X152641535Y-124827360D01*
X152701967Y-124939370D01*
X152763137Y-125050366D01*
X152825047Y-125160351D01*
X152887699Y-125269326D01*
X152951092Y-125377296D01*
X153015230Y-125484262D01*
X153080113Y-125590227D01*
X153145743Y-125695193D01*
X153212121Y-125799165D01*
X153279249Y-125902143D01*
X153347127Y-126004131D01*
X153415758Y-126105132D01*
X153485143Y-126205148D01*
X153555283Y-126304182D01*
X153626179Y-126402237D01*
X153697833Y-126499315D01*
X153770247Y-126595419D01*
X153843421Y-126690552D01*
X153917358Y-126784716D01*
X153992058Y-126877914D01*
X154067522Y-126970150D01*
X154419442Y-127395959D01*
X154277852Y-127587170D01*
X154210415Y-127689988D01*
X154177178Y-127776732D01*
X154175027Y-127862100D01*
X154200852Y-127960790D01*
X154211387Y-127982044D01*
X154230335Y-128010105D01*
X154257479Y-128044771D01*
X154292600Y-128085842D01*
X154335481Y-128133119D01*
X154385902Y-128186401D01*
X154443647Y-128245489D01*
X154508495Y-128310182D01*
X154580230Y-128380281D01*
X154658633Y-128455585D01*
X154743485Y-128535895D01*
X154834569Y-128621011D01*
X154931666Y-128710732D01*
X155034558Y-128804859D01*
X155143026Y-128903191D01*
X155256853Y-129005529D01*
X155375820Y-129111672D01*
X155499708Y-129221421D01*
X155628300Y-129334576D01*
X155761377Y-129450937D01*
X155898722Y-129570303D01*
X156040115Y-129692475D01*
X156185338Y-129817252D01*
X156334174Y-129944435D01*
X156486404Y-130073824D01*
X156641810Y-130205219D01*
X156800172Y-130338420D01*
X156850501Y-130380774D01*
X156911773Y-130432568D01*
X156983066Y-130493012D01*
X157063454Y-130561318D01*
X157152015Y-130636697D01*
X157247824Y-130718362D01*
X157349957Y-130805522D01*
X157457490Y-130897390D01*
X157569499Y-130993177D01*
X157685060Y-131092095D01*
X157803249Y-131193355D01*
X157923141Y-131296167D01*
X158043814Y-131399745D01*
X158164342Y-131503298D01*
X158283803Y-131606040D01*
X158505045Y-131796687D01*
X158693813Y-131960351D01*
X158852679Y-132099833D01*
X158984213Y-132217937D01*
X159090987Y-132317463D01*
X159175570Y-132401215D01*
X159240534Y-132471994D01*
X159288450Y-132532602D01*
X159321889Y-132585842D01*
X159343422Y-132634515D01*
X159355620Y-132681425D01*
X159361053Y-132729372D01*
X159362293Y-132781159D01*
X159373149Y-132918670D01*
X159406681Y-133025087D01*
X159464327Y-133101674D01*
X159547531Y-133149699D01*
X159657732Y-133170425D01*
X159796373Y-133165120D01*
X159947137Y-133158126D01*
X160026558Y-133190730D01*
X160063543Y-133274670D01*
X160077639Y-133343131D01*
X160095804Y-133439586D01*
X160117289Y-133559395D01*
X160141348Y-133697918D01*
X160167234Y-133850516D01*
X160194200Y-134012548D01*
X160221498Y-134179376D01*
X160248382Y-134346359D01*
X160274106Y-134508858D01*
X160297921Y-134662233D01*
X160319081Y-134801845D01*
X160336839Y-134923053D01*
X160350449Y-135021217D01*
X160359162Y-135091700D01*
X160362232Y-135129860D01*
X160351504Y-135156482D01*
X160318511Y-135187341D01*
X160262040Y-135222974D01*
X160180879Y-135263915D01*
X160073816Y-135310702D01*
X159939638Y-135363872D01*
X159777134Y-135423961D01*
X159585089Y-135491504D01*
X159362293Y-135567040D01*
X159098740Y-135654825D01*
X158886025Y-135724557D01*
X158718701Y-135777268D01*
X158591320Y-135813987D01*
X158498435Y-135835745D01*
X158434599Y-135843571D01*
X158394365Y-135838498D01*
X158372286Y-135821554D01*
X158362914Y-135793771D01*
X158360802Y-135756180D01*
X158346712Y-135649668D01*
X158308767Y-135554761D01*
X158251109Y-135474257D01*
X158177876Y-135410952D01*
X158093209Y-135367643D01*
X158001248Y-135347127D01*
X157906133Y-135352200D01*
X157812003Y-135385660D01*
X157696203Y-135455187D01*
X157628552Y-135511229D01*
X157620687Y-135511778D01*
X157601391Y-135507840D01*
X157571009Y-135499543D01*
X157529883Y-135487013D01*
X157478358Y-135470377D01*
X157416777Y-135449762D01*
X157345483Y-135425295D01*
X157264819Y-135397104D01*
X157175128Y-135365315D01*
X157076754Y-135330056D01*
X156970041Y-135291452D01*
X156855332Y-135249632D01*
X156732969Y-135204722D01*
X156603297Y-135156849D01*
X156466658Y-135106141D01*
X156323396Y-135052723D01*
X156173855Y-134996724D01*
X156018377Y-134938270D01*
X155857306Y-134877488D01*
X155690986Y-134814506D01*
X155519759Y-134749449D01*
X155343969Y-134682445D01*
X155163960Y-134613622D01*
X154980074Y-134543106D01*
X154792655Y-134471024D01*
X154602047Y-134397503D01*
X154408592Y-134322670D01*
X154127708Y-134213942D01*
X153863036Y-134111668D01*
X153614082Y-134015675D01*
X153380348Y-133925789D01*
X153161337Y-133841837D01*
X152956553Y-133763646D01*
X152765499Y-133691042D01*
X152587679Y-133623853D01*
X152422596Y-133561904D01*
X152269754Y-133505022D01*
X152128654Y-133453035D01*
X151998802Y-133405769D01*
X151879701Y-133363050D01*
X151770852Y-133324706D01*
X151671761Y-133290562D01*
X151581931Y-133260446D01*
X151500864Y-133234185D01*
X151428064Y-133211604D01*
X151363035Y-133192532D01*
X151305279Y-133176793D01*
X151254301Y-133164216D01*
X151209603Y-133154627D01*
X151170689Y-133147852D01*
X151137062Y-133143718D01*
X151108225Y-133142053D01*
X151083683Y-133142681D01*
X151062937Y-133145431D01*
X151045492Y-133150130D01*
X150980220Y-133181997D01*
X150919921Y-133232944D01*
X150860706Y-133308840D01*
X150798687Y-133415555D01*
X150729976Y-133558962D01*
X150650683Y-133744930D01*
X150576087Y-133933970D01*
X150519721Y-134095184D01*
X150481505Y-134231852D01*
X150461362Y-134347254D01*
X150459212Y-134444669D01*
X149025453Y-134444669D01*
X149025453Y-109372257D01*
X149029088Y-109250070D01*
X149039859Y-109129868D01*
X149057558Y-109011856D01*
X149081980Y-108896241D01*
X149112918Y-108783229D01*
X149150167Y-108673025D01*
X149193521Y-108565836D01*
X149242773Y-108461868D01*
X149297718Y-108361327D01*
X149358149Y-108264418D01*
X149423861Y-108171348D01*
X149494648Y-108082323D01*
X149570303Y-107997548D01*
X149650622Y-107917230D01*
X149735396Y-107841574D01*
X149824422Y-107770788D01*
X149917492Y-107705076D01*
X150014401Y-107644644D01*
X150114942Y-107589700D01*
X150218910Y-107540447D01*
X150326099Y-107497094D01*
X150436303Y-107459845D01*
X150549315Y-107428907D01*
X150664931Y-107404485D01*
X150782942Y-107386786D01*
X150903145Y-107376015D01*
X151025332Y-107372380D01*
X187025204Y-107372380D01*
X187147391Y-107376015D01*
G37*
G36*
X151392550Y-86352929D02*
G01*
X151618871Y-86455951D01*
X151827635Y-86578460D01*
X152018863Y-86717996D01*
X152192576Y-86872103D01*
X152348797Y-87038319D01*
X152487548Y-87214188D01*
X152608850Y-87397250D01*
X152712726Y-87585047D01*
X152799197Y-87775120D01*
X152867547Y-87962299D01*
X152923100Y-88159293D01*
X152964304Y-88364546D01*
X152989609Y-88576501D01*
X152997465Y-88793601D01*
X152986322Y-89014291D01*
X152954629Y-89237013D01*
X152900835Y-89460211D01*
X152823391Y-89682328D01*
X152720747Y-89901809D01*
X152591350Y-90117095D01*
X152433653Y-90326632D01*
X152246103Y-90528861D01*
X152027151Y-90722227D01*
X151871586Y-90845950D01*
X151715336Y-90968403D01*
X151558443Y-91089644D01*
X151148649Y-86271852D01*
X151392550Y-86352929D01*
G37*
G36*
X115273538Y-50801583D02*
G01*
X115531320Y-50841237D01*
X115777665Y-50903738D01*
X116009709Y-50986150D01*
X116193043Y-51069232D01*
X116374414Y-51168486D01*
X116551602Y-51283933D01*
X116722386Y-51415589D01*
X116884545Y-51563475D01*
X117035859Y-51727609D01*
X117174107Y-51908009D01*
X117297069Y-52104694D01*
X117402523Y-52317684D01*
X117488249Y-52546996D01*
X117552026Y-52792650D01*
X117591634Y-53054665D01*
X117604851Y-53333058D01*
X117589458Y-53627849D01*
X117567130Y-53859930D01*
X117546702Y-54092661D01*
X117528134Y-54325952D01*
X117511384Y-54559712D01*
X117496412Y-54793849D01*
X117483176Y-55028273D01*
X117471636Y-55262892D01*
X111843555Y-53399956D01*
X111988895Y-53190983D01*
X112136214Y-52983046D01*
X112285539Y-52776165D01*
X112436893Y-52570356D01*
X112590303Y-52365637D01*
X112745794Y-52162025D01*
X112903391Y-51959539D01*
X113063119Y-51758196D01*
X113258066Y-51537609D01*
X113461988Y-51348908D01*
X113673293Y-51190510D01*
X113890394Y-51060829D01*
X114111700Y-50958281D01*
X114335621Y-50881280D01*
X114560569Y-50828241D01*
X114784954Y-50797581D01*
X115007186Y-50787712D01*
X115273538Y-50801583D01*
G37*
G36*
X117447864Y-57354237D02*
G01*
X117455180Y-57615222D01*
X117464732Y-57875823D01*
X117476513Y-58136029D01*
X117490521Y-58395828D01*
X117506750Y-58655210D01*
X117525196Y-58914164D01*
X117545854Y-59172678D01*
X117568719Y-59430741D01*
X117593788Y-59688343D01*
X117621055Y-59945473D01*
X117650516Y-60202118D01*
X117682167Y-60458269D01*
X117716002Y-60713915D01*
X117752018Y-60969043D01*
X117790209Y-61223644D01*
X117830571Y-61477706D01*
X117873100Y-61731218D01*
X117917791Y-61984170D01*
X117964639Y-62236549D01*
X118013640Y-62488345D01*
X118064790Y-62739548D01*
X118118082Y-62990145D01*
X118173514Y-63240127D01*
X118231081Y-63489481D01*
X118290777Y-63738197D01*
X118352599Y-63986264D01*
X118416542Y-64233671D01*
X118482601Y-64480406D01*
X118550772Y-64726459D01*
X118621049Y-64971819D01*
X118693430Y-65216475D01*
X118767908Y-65460415D01*
X118844480Y-65703629D01*
X118923140Y-65946105D01*
X119003885Y-66187833D01*
X119086709Y-66428801D01*
X119171609Y-66668999D01*
X119258579Y-66908415D01*
X119347615Y-67147038D01*
X119438713Y-67384858D01*
X119531867Y-67621863D01*
X119627074Y-67858042D01*
X119724328Y-68093385D01*
X119823625Y-68327880D01*
X119924961Y-68561516D01*
X120028331Y-68794282D01*
X120133731Y-69026167D01*
X120241155Y-69257160D01*
X120350600Y-69487250D01*
X120462060Y-69716426D01*
X120575531Y-69944677D01*
X120691009Y-70171992D01*
X120808489Y-70398360D01*
X120927967Y-70623769D01*
X121049437Y-70848210D01*
X121172896Y-71071670D01*
X121298338Y-71294139D01*
X121425760Y-71515605D01*
X121555156Y-71736059D01*
X121686522Y-71955488D01*
X121819853Y-72173881D01*
X121955145Y-72391228D01*
X122092394Y-72607517D01*
X122231594Y-72822738D01*
X122372742Y-73036880D01*
X122515832Y-73249930D01*
X122660860Y-73461879D01*
X122807822Y-73672716D01*
X122956712Y-73882429D01*
X123107527Y-74091006D01*
X123260262Y-74298439D01*
X123414912Y-74504714D01*
X123571472Y-74709822D01*
X123729938Y-74913750D01*
X123890306Y-75116489D01*
X124052571Y-75318027D01*
X124216728Y-75518352D01*
X124382773Y-75717455D01*
X124550701Y-75915324D01*
X124720507Y-76111947D01*
X124892188Y-76307314D01*
X125065738Y-76501415D01*
X125241153Y-76694237D01*
X125418428Y-76885769D01*
X125597559Y-77076002D01*
X125778542Y-77264923D01*
X125961370Y-77452522D01*
X126146041Y-77638787D01*
X126331818Y-77822982D01*
X126518921Y-78005345D01*
X126707339Y-78185871D01*
X126897061Y-78364555D01*
X127088077Y-78541393D01*
X127280374Y-78716380D01*
X127473944Y-78889513D01*
X127668773Y-79060785D01*
X127864852Y-79230194D01*
X128062170Y-79397733D01*
X128260716Y-79563399D01*
X128460478Y-79727188D01*
X128661446Y-79889094D01*
X128863608Y-80049113D01*
X129066955Y-80207240D01*
X129271474Y-80363472D01*
X129477156Y-80517803D01*
X129683988Y-80670229D01*
X129891961Y-80820746D01*
X130101062Y-80969348D01*
X130311282Y-81116032D01*
X130522610Y-81260793D01*
X130735033Y-81403626D01*
X130948543Y-81544527D01*
X131163126Y-81683491D01*
X131378773Y-81820513D01*
X131595473Y-81955590D01*
X131813214Y-82088716D01*
X132031986Y-82219888D01*
X132251778Y-82349100D01*
X132472579Y-82476348D01*
X132694377Y-82601628D01*
X132917163Y-82724935D01*
X133140924Y-82846264D01*
X133365651Y-82965611D01*
X133591332Y-83082971D01*
X133817955Y-83198340D01*
X134045512Y-83311714D01*
X134273989Y-83423087D01*
X134503377Y-83532456D01*
X134733664Y-83639815D01*
X134964840Y-83745160D01*
X135196893Y-83848487D01*
X135429813Y-83949791D01*
X135663589Y-84049068D01*
X135898209Y-84146313D01*
X136133663Y-84241521D01*
X136369940Y-84334688D01*
X136607029Y-84425810D01*
X136844919Y-84514882D01*
X137083599Y-84601899D01*
X137323058Y-84686856D01*
X137563285Y-84769751D01*
X137804269Y-84850576D01*
X138046000Y-84929330D01*
X138288466Y-85006005D01*
X138531656Y-85080600D01*
X138775560Y-85153107D01*
X139020166Y-85223524D01*
X139265464Y-85291845D01*
X139511442Y-85358067D01*
X139758091Y-85422184D01*
X140005398Y-85484192D01*
X140253352Y-85544086D01*
X140501944Y-85601862D01*
X140751161Y-85657516D01*
X141000994Y-85711043D01*
X141251430Y-85762438D01*
X141502460Y-85811696D01*
X141754072Y-85858814D01*
X142006255Y-85903787D01*
X142258998Y-85946609D01*
X142512291Y-85987278D01*
X142766122Y-86025788D01*
X143020481Y-86062134D01*
X143275356Y-86096312D01*
X143530737Y-86128318D01*
X143786612Y-86158146D01*
X144042971Y-86185794D01*
X144299803Y-86211255D01*
X144557097Y-86234525D01*
X144814841Y-86255600D01*
X145073026Y-86274476D01*
X145331639Y-86291148D01*
X145590671Y-86305610D01*
X145850110Y-86317860D01*
X146109944Y-86327891D01*
X146370165Y-86335701D01*
X146630759Y-86341283D01*
X146891717Y-86344634D01*
X147153027Y-86345749D01*
X147402320Y-86344623D01*
X147651838Y-86341279D01*
X147901493Y-86335768D01*
X148151199Y-86328144D01*
X148400867Y-86318456D01*
X148650410Y-86306758D01*
X148899741Y-86293101D01*
X149148771Y-86277537D01*
X149671223Y-92419279D01*
X149451697Y-92559426D01*
X149231109Y-92697365D01*
X149009469Y-92833093D01*
X148786789Y-92966604D01*
X148563077Y-93097897D01*
X148338345Y-93226967D01*
X148112602Y-93353811D01*
X147885860Y-93478424D01*
X147658129Y-93600804D01*
X147429418Y-93720947D01*
X147199739Y-93838849D01*
X146969101Y-93954506D01*
X146737515Y-94067915D01*
X146504991Y-94179072D01*
X146271540Y-94287974D01*
X146037172Y-94394616D01*
X145801897Y-94498996D01*
X145565726Y-94601109D01*
X145328669Y-94700952D01*
X145090737Y-94798521D01*
X144851939Y-94893814D01*
X144612286Y-94986825D01*
X144371789Y-95077551D01*
X144130458Y-95165989D01*
X143888302Y-95252136D01*
X143645333Y-95335986D01*
X143401561Y-95417538D01*
X143156997Y-95496787D01*
X142911649Y-95573729D01*
X142665530Y-95648361D01*
X142418649Y-95720679D01*
X142171017Y-95790680D01*
X141922643Y-95858360D01*
X141673539Y-95923715D01*
X141423714Y-95986742D01*
X141173180Y-96047437D01*
X140921946Y-96105797D01*
X140670022Y-96161817D01*
X140419589Y-96215033D01*
X140417420Y-96215494D01*
X140164149Y-96266825D01*
X139910219Y-96315805D01*
X139655642Y-96362432D01*
X139400428Y-96406701D01*
X139144586Y-96448610D01*
X138888127Y-96488153D01*
X138631062Y-96525328D01*
X138373400Y-96560131D01*
X138115153Y-96592559D01*
X137856331Y-96622607D01*
X137596943Y-96650272D01*
X137337001Y-96675551D01*
X137076514Y-96698439D01*
X136815493Y-96718934D01*
X136553949Y-96737031D01*
X136291891Y-96752727D01*
X136029330Y-96766018D01*
X135766276Y-96776901D01*
X135502741Y-96785372D01*
X135238733Y-96791427D01*
X134974264Y-96795062D01*
X134709343Y-96796275D01*
X134447450Y-96795086D01*
X134185950Y-96791512D01*
X133924856Y-96785559D01*
X133664180Y-96777232D01*
X133403936Y-96766536D01*
X133144135Y-96753477D01*
X132884790Y-96738059D01*
X132625913Y-96720287D01*
X132367518Y-96700167D01*
X132109617Y-96677705D01*
X131852222Y-96652904D01*
X131595345Y-96625771D01*
X131339000Y-96596310D01*
X131083199Y-96564527D01*
X130827954Y-96530426D01*
X130573278Y-96494014D01*
X130319184Y-96455295D01*
X130065684Y-96414274D01*
X129812790Y-96370957D01*
X129560516Y-96325349D01*
X129308873Y-96277454D01*
X129057874Y-96227279D01*
X128807532Y-96174828D01*
X128557859Y-96120106D01*
X128308869Y-96063119D01*
X128060572Y-96003871D01*
X127812982Y-95942369D01*
X127566112Y-95878616D01*
X127319974Y-95812619D01*
X127074580Y-95744383D01*
X126829944Y-95673912D01*
X126586077Y-95601212D01*
X126342992Y-95526288D01*
X126100702Y-95449145D01*
X125859219Y-95369788D01*
X125618556Y-95288223D01*
X125378725Y-95204455D01*
X125139739Y-95118489D01*
X124901610Y-95030329D01*
X124664351Y-94939982D01*
X124427975Y-94847452D01*
X124192494Y-94752745D01*
X123957920Y-94655866D01*
X123724267Y-94556819D01*
X123491546Y-94455611D01*
X123259770Y-94352245D01*
X123028952Y-94246729D01*
X122799104Y-94139066D01*
X122570239Y-94029261D01*
X122342369Y-93917321D01*
X122115507Y-93803250D01*
X121889665Y-93687053D01*
X121664857Y-93568736D01*
X121441094Y-93448303D01*
X121218389Y-93325760D01*
X120996754Y-93201113D01*
X120776203Y-93074365D01*
X120556747Y-92945523D01*
X120338399Y-92814591D01*
X120121173Y-92681575D01*
X119905079Y-92546480D01*
X119690131Y-92409312D01*
X119476342Y-92270074D01*
X119263723Y-92128773D01*
X119052288Y-91985413D01*
X118842049Y-91840000D01*
X118633019Y-91692539D01*
X118425209Y-91543035D01*
X118218633Y-91391494D01*
X118013303Y-91237920D01*
X117809232Y-91082319D01*
X117606432Y-90924695D01*
X117404916Y-90765055D01*
X117204696Y-90603402D01*
X117005785Y-90439743D01*
X116808195Y-90274083D01*
X116611940Y-90106426D01*
X116417030Y-89936778D01*
X116223480Y-89765144D01*
X116031301Y-89591530D01*
X115840506Y-89415940D01*
X115651108Y-89238379D01*
X115463119Y-89058853D01*
X115276552Y-88877367D01*
X115091419Y-88693927D01*
X114907978Y-88508794D01*
X114726492Y-88322226D01*
X114546965Y-88134237D01*
X114369404Y-87944839D01*
X114193812Y-87754045D01*
X114020196Y-87561866D01*
X113848560Y-87368315D01*
X113678910Y-87173406D01*
X113511251Y-86977150D01*
X113345588Y-86779561D01*
X113181926Y-86580650D01*
X113020270Y-86380430D01*
X112860627Y-86178914D01*
X112702999Y-85976114D01*
X112547394Y-85772042D01*
X112393816Y-85566713D01*
X112242270Y-85360137D01*
X112092762Y-85152327D01*
X111945296Y-84943297D01*
X111799878Y-84733058D01*
X111656513Y-84521622D01*
X111515207Y-84309004D01*
X111375963Y-84095215D01*
X111238789Y-83880267D01*
X111103688Y-83664173D01*
X110970666Y-83446946D01*
X110839728Y-83228599D01*
X110710879Y-83009143D01*
X110584125Y-82788592D01*
X110459471Y-82566957D01*
X110336921Y-82344252D01*
X110216482Y-82120489D01*
X110098157Y-81895681D01*
X109981953Y-81669839D01*
X109867875Y-81442977D01*
X109755927Y-81215107D01*
X109646115Y-80986242D01*
X109538445Y-80756394D01*
X109432920Y-80525576D01*
X109329547Y-80293800D01*
X109228331Y-80061079D01*
X109129277Y-79827426D01*
X109032389Y-79592852D01*
X108937674Y-79357371D01*
X108845136Y-79120995D01*
X108754781Y-78883736D01*
X108666613Y-78645607D01*
X108580639Y-78406621D01*
X108496862Y-78166790D01*
X108415289Y-77926127D01*
X108335924Y-77684644D01*
X108258773Y-77442354D01*
X108183841Y-77199269D01*
X108111133Y-76955402D01*
X108040654Y-76710765D01*
X107972409Y-76465372D01*
X107906404Y-76219234D01*
X107842643Y-75972363D01*
X107781133Y-75724774D01*
X107721877Y-75476477D01*
X107664882Y-75227486D01*
X107610152Y-74977814D01*
X107557693Y-74727472D01*
X107507510Y-74476473D01*
X107459608Y-74224830D01*
X107413992Y-73972556D01*
X107370667Y-73719662D01*
X107329639Y-73466162D01*
X107290913Y-73212067D01*
X107254493Y-72957392D01*
X107220386Y-72702147D01*
X107188596Y-72446346D01*
X107159128Y-72190001D01*
X107131988Y-71933124D01*
X107107181Y-71675729D01*
X107084712Y-71417828D01*
X107064586Y-71159432D01*
X107046808Y-70900556D01*
X107031384Y-70641211D01*
X107018319Y-70381410D01*
X107007617Y-70121165D01*
X106999285Y-69860490D01*
X106993327Y-69599396D01*
X106989748Y-69337896D01*
X106988554Y-69076002D01*
X106989784Y-68809222D01*
X106993473Y-68542899D01*
X106999615Y-68277043D01*
X107008208Y-68011665D01*
X107019248Y-67746776D01*
X107032731Y-67482385D01*
X107048653Y-67218505D01*
X107067010Y-66955144D01*
X107087799Y-66692315D01*
X107111017Y-66430027D01*
X107136658Y-66168291D01*
X107164720Y-65907118D01*
X107195199Y-65646518D01*
X107228090Y-65386503D01*
X107263391Y-65127082D01*
X107301097Y-64868266D01*
X107341205Y-64610066D01*
X107383711Y-64352492D01*
X107428611Y-64095556D01*
X107475902Y-63839267D01*
X107525579Y-63583636D01*
X107570173Y-63365240D01*
X110706157Y-63365240D01*
X110707273Y-63627415D01*
X110710621Y-63889223D01*
X110716194Y-64150654D01*
X110723989Y-64411697D01*
X110734000Y-64672341D01*
X110746224Y-64932574D01*
X110760656Y-65192386D01*
X110777292Y-65451766D01*
X110796126Y-65710703D01*
X110817154Y-65969186D01*
X110840373Y-66227204D01*
X110865776Y-66484746D01*
X110893361Y-66741802D01*
X110923122Y-66998359D01*
X110955054Y-67254407D01*
X110989154Y-67509936D01*
X111025416Y-67764934D01*
X111063836Y-68019391D01*
X111104410Y-68273295D01*
X111147134Y-68526635D01*
X111192002Y-68779401D01*
X111239009Y-69031582D01*
X111288153Y-69283166D01*
X111339427Y-69534143D01*
X111392828Y-69784501D01*
X111448352Y-70034230D01*
X111505992Y-70283320D01*
X111565746Y-70531758D01*
X111627607Y-70779533D01*
X111691573Y-71026636D01*
X111757638Y-71273055D01*
X111825799Y-71518779D01*
X111896049Y-71763797D01*
X111968385Y-72008098D01*
X112042803Y-72251672D01*
X112119297Y-72494507D01*
X112197864Y-72736592D01*
X112278498Y-72977916D01*
X112361196Y-73218469D01*
X112445952Y-73458239D01*
X112532762Y-73697216D01*
X112621623Y-73935389D01*
X112712528Y-74172746D01*
X112805474Y-74409276D01*
X112900456Y-74644970D01*
X112997469Y-74879815D01*
X113096510Y-75113801D01*
X113197573Y-75346917D01*
X113300654Y-75579152D01*
X113405749Y-75810494D01*
X113512852Y-76040934D01*
X113621960Y-76270460D01*
X113733068Y-76499061D01*
X113846172Y-76726726D01*
X113961266Y-76953444D01*
X114078347Y-77179205D01*
X114197409Y-77403997D01*
X114318449Y-77627809D01*
X114441462Y-77850631D01*
X114566442Y-78072451D01*
X114693387Y-78293259D01*
X114822291Y-78513043D01*
X114953150Y-78731793D01*
X115085958Y-78949498D01*
X115220713Y-79166146D01*
X115357408Y-79381727D01*
X115496041Y-79596230D01*
X115636605Y-79809644D01*
X115779097Y-80021958D01*
X115923512Y-80233160D01*
X116069845Y-80443241D01*
X116218093Y-80652189D01*
X116368250Y-80859993D01*
X116520312Y-81066642D01*
X116674275Y-81272125D01*
X116830133Y-81476432D01*
X116987883Y-81679550D01*
X117147520Y-81881471D01*
X117309039Y-82082181D01*
X117472436Y-82281671D01*
X117637706Y-82479930D01*
X117804845Y-82676946D01*
X117973849Y-82872709D01*
X118144712Y-83067208D01*
X118317431Y-83260431D01*
X118492000Y-83452368D01*
X118668415Y-83643008D01*
X118846672Y-83832339D01*
X119026767Y-84020352D01*
X119208694Y-84207034D01*
X119392449Y-84392376D01*
X119577790Y-84576131D01*
X119764473Y-84758059D01*
X119952486Y-84938154D01*
X120141818Y-85116412D01*
X120332459Y-85292829D01*
X120524396Y-85467400D01*
X120717620Y-85640121D01*
X120912119Y-85810987D01*
X121107883Y-85979993D01*
X121304900Y-86147136D01*
X121503160Y-86312410D01*
X121702651Y-86475810D01*
X121903362Y-86637334D01*
X122105284Y-86796975D01*
X122308404Y-86954729D01*
X122512712Y-87110593D01*
X122718196Y-87264560D01*
X122924846Y-87416628D01*
X123132652Y-87566790D01*
X123341601Y-87715043D01*
X123551683Y-87861383D01*
X123762887Y-88005804D01*
X123975202Y-88148302D01*
X124188617Y-88288873D01*
X124403122Y-88427512D01*
X124618704Y-88564215D01*
X124835354Y-88698976D01*
X125053060Y-88831792D01*
X125271812Y-88962658D01*
X125491598Y-89091569D01*
X125712407Y-89218522D01*
X125934229Y-89343510D01*
X126157052Y-89466531D01*
X126380866Y-89587579D01*
X126605659Y-89706649D01*
X126831421Y-89823738D01*
X127058141Y-89938840D01*
X127285808Y-90051952D01*
X127514410Y-90163068D01*
X127743937Y-90272185D01*
X127974378Y-90379297D01*
X128205723Y-90484400D01*
X128437959Y-90587489D01*
X128671076Y-90688561D01*
X128905063Y-90787610D01*
X129139909Y-90884632D01*
X129375604Y-90979623D01*
X129612135Y-91072577D01*
X129849493Y-91163491D01*
X130087667Y-91252359D01*
X130326644Y-91339178D01*
X130566416Y-91423943D01*
X130806969Y-91506649D01*
X131048294Y-91587291D01*
X131290380Y-91665866D01*
X131533215Y-91742369D01*
X131776789Y-91816794D01*
X132021090Y-91889139D01*
X132266109Y-91959397D01*
X132511833Y-92027565D01*
X132758252Y-92093637D01*
X133005355Y-92157611D01*
X133253130Y-92219480D01*
X133501568Y-92279241D01*
X133750657Y-92336888D01*
X134000385Y-92392418D01*
X134250743Y-92445826D01*
X134501719Y-92497107D01*
X134753303Y-92546257D01*
X135005482Y-92593271D01*
X135258247Y-92638144D01*
X135511586Y-92680873D01*
X135765489Y-92721453D01*
X136019944Y-92759879D01*
X136274940Y-92796146D01*
X136530467Y-92830251D01*
X136786514Y-92862188D01*
X137043069Y-92891953D01*
X137300122Y-92919541D01*
X137557662Y-92944948D01*
X137815677Y-92968170D01*
X138074158Y-92989202D01*
X138333092Y-93008039D01*
X138592469Y-93024677D01*
X138852278Y-93039111D01*
X139112508Y-93051337D01*
X139373148Y-93061351D01*
X139634187Y-93069146D01*
X139895614Y-93074721D01*
X140157419Y-93078068D01*
X140419589Y-93079185D01*
X140664373Y-93078191D01*
X140909499Y-93075208D01*
X141154832Y-93070239D01*
X141400235Y-93063285D01*
X141645571Y-93054348D01*
X141890704Y-93043429D01*
X142135496Y-93030530D01*
X142379812Y-93015652D01*
X142623515Y-92998798D01*
X142866467Y-92979968D01*
X143092051Y-92935142D01*
X143294983Y-92843346D01*
X143469799Y-92711032D01*
X143611031Y-92544651D01*
X143713212Y-92350653D01*
X143770876Y-92135490D01*
X143778556Y-91905612D01*
X143733666Y-91680066D01*
X143641805Y-91477134D01*
X143509439Y-91302297D01*
X143343030Y-91161037D01*
X143149045Y-91058833D01*
X142933948Y-91001168D01*
X142704203Y-90993523D01*
X142452164Y-91012894D01*
X142199252Y-91030001D01*
X141945648Y-91044841D01*
X141691532Y-91057408D01*
X141437084Y-91067700D01*
X141182485Y-91075712D01*
X140927916Y-91081439D01*
X140673558Y-91084879D01*
X140419589Y-91086026D01*
X140157701Y-91084832D01*
X139896205Y-91081253D01*
X139635115Y-91075295D01*
X139374444Y-91066963D01*
X139114204Y-91056261D01*
X138854407Y-91043196D01*
X138595066Y-91027772D01*
X138336193Y-91009994D01*
X138282769Y-91005833D01*
X138077802Y-90989868D01*
X137819904Y-90967399D01*
X137562512Y-90942592D01*
X137305639Y-90915452D01*
X137049298Y-90885984D01*
X136793500Y-90854194D01*
X136538258Y-90820087D01*
X136283585Y-90783667D01*
X136029494Y-90744941D01*
X135775996Y-90703913D01*
X135523105Y-90660588D01*
X135270833Y-90614972D01*
X135019193Y-90567070D01*
X134768196Y-90516887D01*
X134517857Y-90464428D01*
X134268186Y-90409698D01*
X134019197Y-90352703D01*
X133770902Y-90293447D01*
X133523315Y-90231937D01*
X133276446Y-90168176D01*
X133030310Y-90102171D01*
X132784917Y-90033927D01*
X132540282Y-89963447D01*
X132296416Y-89890739D01*
X132053332Y-89815807D01*
X131811043Y-89738656D01*
X131569561Y-89659291D01*
X131328899Y-89577718D01*
X131089069Y-89493941D01*
X130850083Y-89407967D01*
X130611955Y-89319799D01*
X130374697Y-89229444D01*
X130138320Y-89136906D01*
X129902839Y-89042191D01*
X129668266Y-88945303D01*
X129434612Y-88846249D01*
X129201891Y-88745033D01*
X128970114Y-88641660D01*
X128739296Y-88536135D01*
X128509447Y-88428465D01*
X128280582Y-88318653D01*
X128052711Y-88206705D01*
X127825848Y-88092627D01*
X127600006Y-87976423D01*
X127375196Y-87858098D01*
X127151432Y-87737659D01*
X126928725Y-87615109D01*
X126707090Y-87490454D01*
X126486537Y-87363700D01*
X126267079Y-87234852D01*
X126048730Y-87103914D01*
X125831501Y-86970892D01*
X125615406Y-86835791D01*
X125400456Y-86698616D01*
X125186664Y-86559373D01*
X124974043Y-86418066D01*
X124762606Y-86274701D01*
X124552364Y-86129283D01*
X124343331Y-85981818D01*
X124135519Y-85832309D01*
X123928940Y-85680763D01*
X123723607Y-85527185D01*
X123519533Y-85371580D01*
X123316730Y-85213953D01*
X123115210Y-85054309D01*
X122914987Y-84892653D01*
X122716072Y-84728991D01*
X122518479Y-84563328D01*
X122322219Y-84395669D01*
X122127306Y-84226019D01*
X121933752Y-84054383D01*
X121741569Y-83880767D01*
X121550770Y-83705175D01*
X121361368Y-83527614D01*
X121173374Y-83348087D01*
X120986803Y-83166601D01*
X120801665Y-82983160D01*
X120618229Y-82798022D01*
X120436747Y-82611450D01*
X120257226Y-82423457D01*
X120079670Y-82234055D01*
X119904084Y-82043257D01*
X119730473Y-81851074D01*
X119558844Y-81657521D01*
X119389200Y-81462608D01*
X119221547Y-81266349D01*
X119055890Y-81068757D01*
X118892235Y-80869843D01*
X118730586Y-80669621D01*
X118570949Y-80468103D01*
X118413328Y-80265301D01*
X118257730Y-80061227D01*
X118104159Y-79855896D01*
X117952621Y-79649318D01*
X117803120Y-79441507D01*
X117655661Y-79232476D01*
X117510251Y-79022235D01*
X117366894Y-78810799D01*
X117225595Y-78598180D01*
X117086360Y-78384390D01*
X116949193Y-78169442D01*
X116814100Y-77953348D01*
X116681086Y-77736120D01*
X116550156Y-77517773D01*
X116421315Y-77298317D01*
X116294569Y-77077765D01*
X116169923Y-76856131D01*
X116047382Y-76633426D01*
X115926950Y-76409664D01*
X115808634Y-76184855D01*
X115692438Y-75959014D01*
X115578368Y-75732153D01*
X115466428Y-75504284D01*
X115356625Y-75275420D01*
X115248962Y-75045573D01*
X115143446Y-74814755D01*
X115040081Y-74582981D01*
X114938873Y-74350261D01*
X114839827Y-74116608D01*
X114742947Y-73882036D01*
X114648240Y-73646556D01*
X114555710Y-73410181D01*
X114465362Y-73172923D01*
X114377203Y-72934796D01*
X114291236Y-72695811D01*
X114207467Y-72455982D01*
X114125901Y-72215320D01*
X114046543Y-71973839D01*
X113969399Y-71731550D01*
X113894474Y-71488467D01*
X113821773Y-71244601D01*
X113751301Y-70999966D01*
X113683063Y-70754574D01*
X113617064Y-70508437D01*
X113553310Y-70261569D01*
X113491806Y-70013981D01*
X113432556Y-69765686D01*
X113375567Y-69516697D01*
X113320843Y-69267025D01*
X113268390Y-69016685D01*
X113218212Y-68765688D01*
X113170315Y-68514046D01*
X113124704Y-68261773D01*
X113081384Y-68008881D01*
X113040361Y-67755382D01*
X113001639Y-67501289D01*
X112965224Y-67246614D01*
X112931120Y-66991371D01*
X112899334Y-66735571D01*
X112869870Y-66479227D01*
X112842733Y-66222351D01*
X112817929Y-65964957D01*
X112795462Y-65707057D01*
X112775339Y-65448662D01*
X112757564Y-65189787D01*
X112742141Y-64930442D01*
X112729078Y-64670642D01*
X112718378Y-64410398D01*
X112710046Y-64149722D01*
X112704089Y-63888629D01*
X112700946Y-63658949D01*
X115160931Y-63658949D01*
X115185470Y-63887688D01*
X115243649Y-64141175D01*
X115303833Y-64394052D01*
X115366017Y-64646309D01*
X115430196Y-64897936D01*
X115496363Y-65148924D01*
X115564514Y-65399261D01*
X115634643Y-65648939D01*
X115706745Y-65897947D01*
X115780813Y-66146275D01*
X115856843Y-66393913D01*
X115934828Y-66640852D01*
X116014764Y-66887081D01*
X116096645Y-67132590D01*
X116180465Y-67377370D01*
X116266219Y-67621411D01*
X116353902Y-67864702D01*
X116443507Y-68107233D01*
X116535030Y-68348995D01*
X116628464Y-68589978D01*
X116723805Y-68830171D01*
X116821047Y-69069565D01*
X116920184Y-69308149D01*
X117021210Y-69545915D01*
X117124121Y-69782851D01*
X117228911Y-70018948D01*
X117335574Y-70254196D01*
X117444105Y-70488584D01*
X117554498Y-70722104D01*
X117666748Y-70954745D01*
X117780849Y-71186496D01*
X117896796Y-71417349D01*
X118014583Y-71647293D01*
X118134205Y-71876317D01*
X118255656Y-72104413D01*
X118378930Y-72331570D01*
X118504023Y-72557779D01*
X118630929Y-72783028D01*
X118759641Y-73007309D01*
X118890156Y-73230611D01*
X119022466Y-73452924D01*
X119156568Y-73674239D01*
X119292454Y-73894545D01*
X119430120Y-74113833D01*
X119569560Y-74332092D01*
X119710769Y-74549313D01*
X119853740Y-74765485D01*
X119998470Y-74980599D01*
X120144951Y-75194644D01*
X120293179Y-75407611D01*
X120443148Y-75619490D01*
X120594853Y-75830271D01*
X120748288Y-76039943D01*
X120903447Y-76248497D01*
X121060326Y-76455923D01*
X121218917Y-76662210D01*
X121379217Y-76867350D01*
X121541220Y-77071331D01*
X121704919Y-77274145D01*
X121870310Y-77475780D01*
X122037387Y-77676228D01*
X122206144Y-77875478D01*
X122376577Y-78073519D01*
X122548679Y-78270343D01*
X122722444Y-78465939D01*
X122897869Y-78660298D01*
X123074946Y-78853408D01*
X123253670Y-79045261D01*
X123434037Y-79235846D01*
X123616040Y-79425153D01*
X123799674Y-79613173D01*
X123984933Y-79799895D01*
X124172192Y-79985664D01*
X124360845Y-80169848D01*
X124550880Y-80352441D01*
X124742284Y-80533435D01*
X124935044Y-80712822D01*
X125129148Y-80890595D01*
X125324583Y-81066747D01*
X125521337Y-81241270D01*
X125719397Y-81414157D01*
X125918750Y-81585399D01*
X126119385Y-81754991D01*
X126321287Y-81922924D01*
X126524445Y-82089190D01*
X126728847Y-82253783D01*
X126934478Y-82416695D01*
X127141328Y-82577918D01*
X127349383Y-82737445D01*
X127558631Y-82895269D01*
X127769059Y-83051381D01*
X127980655Y-83205775D01*
X128193406Y-83358443D01*
X128407299Y-83509378D01*
X128622322Y-83658572D01*
X128838462Y-83806017D01*
X129055707Y-83951707D01*
X129274045Y-84095633D01*
X129493461Y-84237789D01*
X129713945Y-84378166D01*
X129935483Y-84516758D01*
X130158063Y-84653557D01*
X130381672Y-84788554D01*
X130606297Y-84921744D01*
X130831927Y-85053119D01*
X131058548Y-85182670D01*
X131286147Y-85310391D01*
X131514714Y-85436274D01*
X131744233Y-85560311D01*
X131974694Y-85682496D01*
X132206084Y-85802820D01*
X132438389Y-85921276D01*
X132671598Y-86037857D01*
X132905697Y-86152556D01*
X133140675Y-86265364D01*
X133376518Y-86376274D01*
X133613214Y-86485280D01*
X133850751Y-86592373D01*
X134089116Y-86697545D01*
X134328295Y-86800790D01*
X134568278Y-86902100D01*
X134809051Y-87001468D01*
X135050601Y-87098886D01*
X135292916Y-87194346D01*
X135535983Y-87287841D01*
X135779790Y-87379364D01*
X136024324Y-87468907D01*
X136269573Y-87556463D01*
X136515524Y-87642024D01*
X136762164Y-87725583D01*
X137009481Y-87807133D01*
X137257463Y-87886665D01*
X137506096Y-87964172D01*
X137755368Y-88039648D01*
X138005266Y-88113084D01*
X138144317Y-88142737D01*
X138282769Y-88152358D01*
X138494965Y-88129331D01*
X138694880Y-88062674D01*
X138875893Y-87956025D01*
X139031381Y-87813022D01*
X139154724Y-87637302D01*
X139239300Y-87432505D01*
X139277575Y-87205663D01*
X139263910Y-86983284D01*
X139202384Y-86772785D01*
X139097075Y-86581585D01*
X138952062Y-86417101D01*
X138771423Y-86286752D01*
X138559238Y-86197955D01*
X138312956Y-86125525D01*
X138067321Y-86050983D01*
X137822345Y-85974336D01*
X137578042Y-85895593D01*
X137334427Y-85814761D01*
X137091511Y-85731848D01*
X136849311Y-85646864D01*
X136607838Y-85559815D01*
X136367107Y-85470710D01*
X136127131Y-85379557D01*
X135887925Y-85286364D01*
X135649501Y-85191140D01*
X135411874Y-85093892D01*
X135175056Y-84994628D01*
X134939063Y-84893357D01*
X134703908Y-84790087D01*
X134469603Y-84684826D01*
X134236164Y-84577582D01*
X134003603Y-84468362D01*
X133771935Y-84357176D01*
X133541172Y-84244032D01*
X133311330Y-84128937D01*
X133082421Y-84011899D01*
X132854459Y-83892927D01*
X132627457Y-83772029D01*
X132401431Y-83649213D01*
X132176392Y-83524487D01*
X131952356Y-83397859D01*
X131729335Y-83269337D01*
X131507343Y-83138930D01*
X131286394Y-83006645D01*
X131066503Y-82872491D01*
X130847681Y-82736476D01*
X130629944Y-82598607D01*
X130413304Y-82458893D01*
X130197776Y-82317343D01*
X129983373Y-82173964D01*
X129770109Y-82028764D01*
X129557997Y-81881751D01*
X129347052Y-81732934D01*
X129137286Y-81582321D01*
X128928715Y-81429920D01*
X128721350Y-81275738D01*
X128515207Y-81119784D01*
X128310298Y-80962067D01*
X128106638Y-80802594D01*
X127904240Y-80641373D01*
X127703118Y-80478413D01*
X127503285Y-80313721D01*
X127304755Y-80147306D01*
X127107543Y-79979176D01*
X126911661Y-79809339D01*
X126717123Y-79637803D01*
X126523943Y-79464576D01*
X126332135Y-79289667D01*
X126141712Y-79113082D01*
X125952689Y-78934832D01*
X125765078Y-78754923D01*
X125578894Y-78573364D01*
X125394149Y-78390163D01*
X125209786Y-78204257D01*
X125027138Y-78016986D01*
X124846213Y-77828361D01*
X124667015Y-77638393D01*
X124489553Y-77447093D01*
X124313830Y-77254473D01*
X124139855Y-77060543D01*
X123967632Y-76865315D01*
X123797168Y-76668799D01*
X123628470Y-76471008D01*
X123461542Y-76271952D01*
X123296392Y-76071641D01*
X123133026Y-75870088D01*
X122971449Y-75667304D01*
X122811668Y-75463299D01*
X122653689Y-75258085D01*
X122497519Y-75051673D01*
X122343162Y-74844073D01*
X122190626Y-74635298D01*
X122039916Y-74425358D01*
X121891039Y-74214264D01*
X121744001Y-74002028D01*
X121598808Y-73788661D01*
X121455466Y-73574173D01*
X121313981Y-73358577D01*
X121174360Y-73141882D01*
X121036608Y-72924100D01*
X120900732Y-72705243D01*
X120766737Y-72485322D01*
X120634631Y-72264347D01*
X120504419Y-72042329D01*
X120376107Y-71819281D01*
X120249701Y-71595212D01*
X120125208Y-71370135D01*
X120002633Y-71144060D01*
X119881983Y-70916998D01*
X119763265Y-70688961D01*
X119646483Y-70459959D01*
X119531644Y-70230004D01*
X119418755Y-69999107D01*
X119307822Y-69767280D01*
X119198850Y-69534532D01*
X119091846Y-69300876D01*
X118986816Y-69066322D01*
X118883765Y-68830882D01*
X118782702Y-68594566D01*
X118683630Y-68357387D01*
X118586557Y-68119354D01*
X118491489Y-67880480D01*
X118398431Y-67640774D01*
X118307390Y-67400250D01*
X118218373Y-67158916D01*
X118131384Y-66916786D01*
X118046431Y-66673869D01*
X117963520Y-66430177D01*
X117882656Y-66185721D01*
X117803846Y-65940513D01*
X117727096Y-65694562D01*
X117652412Y-65447882D01*
X117579800Y-65200481D01*
X117509266Y-64952373D01*
X117440817Y-64703567D01*
X117374459Y-64454076D01*
X117310197Y-64203909D01*
X117248038Y-63953079D01*
X117187989Y-63701596D01*
X117130054Y-63449472D01*
X117052087Y-63228090D01*
X116929072Y-63037000D01*
X116768626Y-62881010D01*
X116578370Y-62764931D01*
X116365922Y-62693572D01*
X116138900Y-62671742D01*
X116138900Y-62671743D01*
X115938396Y-62696030D01*
X115721309Y-62771935D01*
X115533207Y-62891227D01*
X115435584Y-62989424D01*
X115378602Y-63046741D01*
X115262012Y-63231309D01*
X115187950Y-63437767D01*
X115160931Y-63658949D01*
X112700946Y-63658949D01*
X112700511Y-63627129D01*
X112699317Y-63365235D01*
X112700466Y-63111608D01*
X112703911Y-62857795D01*
X112709648Y-62603878D01*
X112717671Y-62349944D01*
X112727977Y-62096074D01*
X112740562Y-61842355D01*
X112755420Y-61588870D01*
X112772547Y-61335702D01*
X112791939Y-61082937D01*
X112813592Y-60830658D01*
X112837501Y-60578950D01*
X112863662Y-60327896D01*
X112892070Y-60077581D01*
X112892737Y-59847595D01*
X112842880Y-59630523D01*
X112747742Y-59433004D01*
X112677754Y-59344296D01*
X114438746Y-59344296D01*
X114457861Y-59538786D01*
X114514563Y-59725806D01*
X114606672Y-59898165D01*
X114730645Y-60049236D01*
X114881715Y-60173209D01*
X115054074Y-60265317D01*
X115241094Y-60322019D01*
X115435584Y-60341135D01*
X115630000Y-60321931D01*
X115816935Y-60265169D01*
X115989204Y-60173029D01*
X116140189Y-60049053D01*
X116264087Y-59898004D01*
X116356137Y-59725687D01*
X116412803Y-59538723D01*
X116431905Y-59344296D01*
X116412803Y-59149870D01*
X116356137Y-58962906D01*
X116264087Y-58790589D01*
X116140189Y-58639540D01*
X115989204Y-58515563D01*
X115816935Y-58423424D01*
X115630000Y-58366662D01*
X115435584Y-58347458D01*
X115241094Y-58366573D01*
X115054074Y-58423275D01*
X114881715Y-58515384D01*
X114730645Y-58639357D01*
X114606672Y-58790428D01*
X114514563Y-58962787D01*
X114457861Y-59149807D01*
X114438746Y-59344296D01*
X112677754Y-59344296D01*
X112612567Y-59261673D01*
X112442599Y-59123169D01*
X112243080Y-59024128D01*
X112019255Y-58971188D01*
X111817717Y-58968092D01*
X111594251Y-59013376D01*
X111390331Y-59106333D01*
X111213070Y-59241417D01*
X111069577Y-59413087D01*
X110966966Y-59615798D01*
X110912346Y-59844007D01*
X110884002Y-60092980D01*
X110857745Y-60342631D01*
X110833576Y-60592888D01*
X110811498Y-60843679D01*
X110791512Y-61094933D01*
X110773621Y-61346579D01*
X110757826Y-61598544D01*
X110744131Y-61850758D01*
X110732537Y-62103148D01*
X110723045Y-62355643D01*
X110715660Y-62608171D01*
X110710382Y-62860661D01*
X110707213Y-63113041D01*
X110706157Y-63365240D01*
X107570173Y-63365240D01*
X107577639Y-63328674D01*
X107632078Y-63074392D01*
X107688893Y-62820800D01*
X107748079Y-62567908D01*
X107809633Y-62315728D01*
X107873552Y-62064270D01*
X107939831Y-61813544D01*
X108008466Y-61563561D01*
X108079454Y-61314332D01*
X108152792Y-61065868D01*
X108228475Y-60818178D01*
X108306499Y-60571274D01*
X108386861Y-60325166D01*
X108469558Y-60079865D01*
X108554584Y-59835381D01*
X108641938Y-59591725D01*
X108731614Y-59348908D01*
X108823609Y-59106941D01*
X108917920Y-58865833D01*
X109014542Y-58625595D01*
X109113472Y-58386239D01*
X109214706Y-58147774D01*
X109318241Y-57910211D01*
X109424072Y-57673562D01*
X109532196Y-57437835D01*
X109642609Y-57203043D01*
X109755307Y-56969196D01*
X109870287Y-56736304D01*
X109987544Y-56504378D01*
X110107076Y-56273428D01*
X110228878Y-56043466D01*
X110352946Y-55814502D01*
X110479277Y-55586545D01*
X110607867Y-55359608D01*
X110738713Y-55133700D01*
X117447864Y-57354237D01*
G37*
%TD*%
M02*
