%TF.GenerationSoftware,KiCad,Pcbnew,10.0.1*%
%TF.CreationDate,2026-05-30T16:30:33-04:00*%
%TF.ProjectId,pcb-artwork-zoo,7063622d-6172-4747-976f-726b2d7a6f6f,rev?*%
%TF.SameCoordinates,Original*%
%TF.FileFunction,Legend,Top*%
%TF.FilePolarity,Positive*%
%FSLAX46Y46*%
G04 Gerber Fmt 4.6, Leading zero omitted, Abs format (unit mm)*
G04 Created by KiCad (PCBNEW 10.0.1) date 2026-05-30 16:30:33*
%MOMM*%
%LPD*%
G01*
G04 APERTURE LIST*
%ADD10C,0.150000*%
%ADD11C,0.000000*%
G04 APERTURE END LIST*
D10*
X102365350Y-146509931D02*
X102365350Y-145986121D01*
X102365350Y-145986121D02*
X102317731Y-145890883D01*
X102317731Y-145890883D02*
X102222493Y-145843264D01*
X102222493Y-145843264D02*
X102032017Y-145843264D01*
X102032017Y-145843264D02*
X101936779Y-145890883D01*
X102365350Y-146462312D02*
X102270112Y-146509931D01*
X102270112Y-146509931D02*
X102032017Y-146509931D01*
X102032017Y-146509931D02*
X101936779Y-146462312D01*
X101936779Y-146462312D02*
X101889160Y-146367073D01*
X101889160Y-146367073D02*
X101889160Y-146271835D01*
X101889160Y-146271835D02*
X101936779Y-146176597D01*
X101936779Y-146176597D02*
X102032017Y-146128978D01*
X102032017Y-146128978D02*
X102270112Y-146128978D01*
X102270112Y-146128978D02*
X102365350Y-146081359D01*
X102841541Y-146509931D02*
X102841541Y-145843264D01*
X102841541Y-146033740D02*
X102889160Y-145938502D01*
X102889160Y-145938502D02*
X102936779Y-145890883D01*
X102936779Y-145890883D02*
X103032017Y-145843264D01*
X103032017Y-145843264D02*
X103127255Y-145843264D01*
X103317732Y-145843264D02*
X103698684Y-145843264D01*
X103460589Y-145509931D02*
X103460589Y-146367073D01*
X103460589Y-146367073D02*
X103508208Y-146462312D01*
X103508208Y-146462312D02*
X103603446Y-146509931D01*
X103603446Y-146509931D02*
X103698684Y-146509931D01*
X103936780Y-145843264D02*
X104127256Y-146509931D01*
X104127256Y-146509931D02*
X104317732Y-146033740D01*
X104317732Y-146033740D02*
X104508208Y-146509931D01*
X104508208Y-146509931D02*
X104698684Y-145843264D01*
X105222494Y-146509931D02*
X105127256Y-146462312D01*
X105127256Y-146462312D02*
X105079637Y-146414692D01*
X105079637Y-146414692D02*
X105032018Y-146319454D01*
X105032018Y-146319454D02*
X105032018Y-146033740D01*
X105032018Y-146033740D02*
X105079637Y-145938502D01*
X105079637Y-145938502D02*
X105127256Y-145890883D01*
X105127256Y-145890883D02*
X105222494Y-145843264D01*
X105222494Y-145843264D02*
X105365351Y-145843264D01*
X105365351Y-145843264D02*
X105460589Y-145890883D01*
X105460589Y-145890883D02*
X105508208Y-145938502D01*
X105508208Y-145938502D02*
X105555827Y-146033740D01*
X105555827Y-146033740D02*
X105555827Y-146319454D01*
X105555827Y-146319454D02*
X105508208Y-146414692D01*
X105508208Y-146414692D02*
X105460589Y-146462312D01*
X105460589Y-146462312D02*
X105365351Y-146509931D01*
X105365351Y-146509931D02*
X105222494Y-146509931D01*
X105984399Y-146509931D02*
X105984399Y-145843264D01*
X105984399Y-146033740D02*
X106032018Y-145938502D01*
X106032018Y-145938502D02*
X106079637Y-145890883D01*
X106079637Y-145890883D02*
X106174875Y-145843264D01*
X106174875Y-145843264D02*
X106270113Y-145843264D01*
X106603447Y-146509931D02*
X106603447Y-145509931D01*
X106698685Y-146128978D02*
X106984399Y-146509931D01*
X106984399Y-145843264D02*
X106603447Y-146224216D01*
X107412971Y-146128978D02*
X108174876Y-146128978D01*
X108555828Y-145843264D02*
X109079637Y-145843264D01*
X109079637Y-145843264D02*
X108555828Y-146509931D01*
X108555828Y-146509931D02*
X109079637Y-146509931D01*
X109603447Y-146509931D02*
X109508209Y-146462312D01*
X109508209Y-146462312D02*
X109460590Y-146414692D01*
X109460590Y-146414692D02*
X109412971Y-146319454D01*
X109412971Y-146319454D02*
X109412971Y-146033740D01*
X109412971Y-146033740D02*
X109460590Y-145938502D01*
X109460590Y-145938502D02*
X109508209Y-145890883D01*
X109508209Y-145890883D02*
X109603447Y-145843264D01*
X109603447Y-145843264D02*
X109746304Y-145843264D01*
X109746304Y-145843264D02*
X109841542Y-145890883D01*
X109841542Y-145890883D02*
X109889161Y-145938502D01*
X109889161Y-145938502D02*
X109936780Y-146033740D01*
X109936780Y-146033740D02*
X109936780Y-146319454D01*
X109936780Y-146319454D02*
X109889161Y-146414692D01*
X109889161Y-146414692D02*
X109841542Y-146462312D01*
X109841542Y-146462312D02*
X109746304Y-146509931D01*
X109746304Y-146509931D02*
X109603447Y-146509931D01*
X110508209Y-146509931D02*
X110412971Y-146462312D01*
X110412971Y-146462312D02*
X110365352Y-146414692D01*
X110365352Y-146414692D02*
X110317733Y-146319454D01*
X110317733Y-146319454D02*
X110317733Y-146033740D01*
X110317733Y-146033740D02*
X110365352Y-145938502D01*
X110365352Y-145938502D02*
X110412971Y-145890883D01*
X110412971Y-145890883D02*
X110508209Y-145843264D01*
X110508209Y-145843264D02*
X110651066Y-145843264D01*
X110651066Y-145843264D02*
X110746304Y-145890883D01*
X110746304Y-145890883D02*
X110793923Y-145938502D01*
X110793923Y-145938502D02*
X110841542Y-146033740D01*
X110841542Y-146033740D02*
X110841542Y-146319454D01*
X110841542Y-146319454D02*
X110793923Y-146414692D01*
X110793923Y-146414692D02*
X110746304Y-146462312D01*
X110746304Y-146462312D02*
X110651066Y-146509931D01*
X110651066Y-146509931D02*
X110508209Y-146509931D01*
X111270114Y-146128978D02*
X112032019Y-146128978D01*
X112412971Y-145843264D02*
X112651066Y-146509931D01*
X112651066Y-146509931D02*
X112889161Y-145843264D01*
X113793923Y-146509931D02*
X113222495Y-146509931D01*
X113508209Y-146509931D02*
X113508209Y-145509931D01*
X113508209Y-145509931D02*
X113412971Y-145652788D01*
X113412971Y-145652788D02*
X113317733Y-145748026D01*
X113317733Y-145748026D02*
X113222495Y-145795645D01*
X101889160Y-147834160D02*
X102365350Y-147834160D01*
X101793922Y-148119875D02*
X102127255Y-147119875D01*
X102127255Y-147119875D02*
X102460588Y-148119875D01*
X102793922Y-148024636D02*
X102841541Y-148072256D01*
X102841541Y-148072256D02*
X102793922Y-148119875D01*
X102793922Y-148119875D02*
X102746303Y-148072256D01*
X102746303Y-148072256D02*
X102793922Y-148024636D01*
X102793922Y-148024636D02*
X102793922Y-148119875D01*
X103889160Y-147119875D02*
X104460588Y-147119875D01*
X104174874Y-148119875D02*
X104174874Y-147119875D01*
X105222493Y-148119875D02*
X105222493Y-147596065D01*
X105222493Y-147596065D02*
X105174874Y-147500827D01*
X105174874Y-147500827D02*
X105079636Y-147453208D01*
X105079636Y-147453208D02*
X104889160Y-147453208D01*
X104889160Y-147453208D02*
X104793922Y-147500827D01*
X105222493Y-148072256D02*
X105127255Y-148119875D01*
X105127255Y-148119875D02*
X104889160Y-148119875D01*
X104889160Y-148119875D02*
X104793922Y-148072256D01*
X104793922Y-148072256D02*
X104746303Y-147977017D01*
X104746303Y-147977017D02*
X104746303Y-147881779D01*
X104746303Y-147881779D02*
X104793922Y-147786541D01*
X104793922Y-147786541D02*
X104889160Y-147738922D01*
X104889160Y-147738922D02*
X105127255Y-147738922D01*
X105127255Y-147738922D02*
X105222493Y-147691303D01*
X105698684Y-148119875D02*
X105698684Y-147453208D01*
X105698684Y-147119875D02*
X105651065Y-147167494D01*
X105651065Y-147167494D02*
X105698684Y-147215113D01*
X105698684Y-147215113D02*
X105746303Y-147167494D01*
X105746303Y-147167494D02*
X105698684Y-147119875D01*
X105698684Y-147119875D02*
X105698684Y-147215113D01*
X106032017Y-147453208D02*
X106412969Y-147453208D01*
X106174874Y-147119875D02*
X106174874Y-147977017D01*
X106174874Y-147977017D02*
X106222493Y-148072256D01*
X106222493Y-148072256D02*
X106317731Y-148119875D01*
X106317731Y-148119875D02*
X106412969Y-148119875D01*
X102412969Y-148729819D02*
X101936779Y-148729819D01*
X101936779Y-148729819D02*
X101889160Y-149206009D01*
X101889160Y-149206009D02*
X101936779Y-149158390D01*
X101936779Y-149158390D02*
X102032017Y-149110771D01*
X102032017Y-149110771D02*
X102270112Y-149110771D01*
X102270112Y-149110771D02*
X102365350Y-149158390D01*
X102365350Y-149158390D02*
X102412969Y-149206009D01*
X102412969Y-149206009D02*
X102460588Y-149301247D01*
X102460588Y-149301247D02*
X102460588Y-149539342D01*
X102460588Y-149539342D02*
X102412969Y-149634580D01*
X102412969Y-149634580D02*
X102365350Y-149682200D01*
X102365350Y-149682200D02*
X102270112Y-149729819D01*
X102270112Y-149729819D02*
X102032017Y-149729819D01*
X102032017Y-149729819D02*
X101936779Y-149682200D01*
X101936779Y-149682200D02*
X101889160Y-149634580D01*
X103603445Y-148682200D02*
X102746303Y-149967914D01*
X103889160Y-148825057D02*
X103936779Y-148777438D01*
X103936779Y-148777438D02*
X104032017Y-148729819D01*
X104032017Y-148729819D02*
X104270112Y-148729819D01*
X104270112Y-148729819D02*
X104365350Y-148777438D01*
X104365350Y-148777438D02*
X104412969Y-148825057D01*
X104412969Y-148825057D02*
X104460588Y-148920295D01*
X104460588Y-148920295D02*
X104460588Y-149015533D01*
X104460588Y-149015533D02*
X104412969Y-149158390D01*
X104412969Y-149158390D02*
X103841541Y-149729819D01*
X103841541Y-149729819D02*
X104460588Y-149729819D01*
X105317731Y-148729819D02*
X105127255Y-148729819D01*
X105127255Y-148729819D02*
X105032017Y-148777438D01*
X105032017Y-148777438D02*
X104984398Y-148825057D01*
X104984398Y-148825057D02*
X104889160Y-148967914D01*
X104889160Y-148967914D02*
X104841541Y-149158390D01*
X104841541Y-149158390D02*
X104841541Y-149539342D01*
X104841541Y-149539342D02*
X104889160Y-149634580D01*
X104889160Y-149634580D02*
X104936779Y-149682200D01*
X104936779Y-149682200D02*
X105032017Y-149729819D01*
X105032017Y-149729819D02*
X105222493Y-149729819D01*
X105222493Y-149729819D02*
X105317731Y-149682200D01*
X105317731Y-149682200D02*
X105365350Y-149634580D01*
X105365350Y-149634580D02*
X105412969Y-149539342D01*
X105412969Y-149539342D02*
X105412969Y-149301247D01*
X105412969Y-149301247D02*
X105365350Y-149206009D01*
X105365350Y-149206009D02*
X105317731Y-149158390D01*
X105317731Y-149158390D02*
X105222493Y-149110771D01*
X105222493Y-149110771D02*
X105032017Y-149110771D01*
X105032017Y-149110771D02*
X104936779Y-149158390D01*
X104936779Y-149158390D02*
X104889160Y-149206009D01*
X104889160Y-149206009D02*
X104841541Y-149301247D01*
D11*
G36*
X135278090Y-109538639D02*
G01*
X135349529Y-109547259D01*
X135420938Y-109560832D01*
X135455901Y-109569431D01*
X135490455Y-109579152D01*
X135524569Y-109589987D01*
X135558213Y-109601930D01*
X135591355Y-109614970D01*
X135623962Y-109629102D01*
X135656005Y-109644317D01*
X135687452Y-109660607D01*
X135718271Y-109677964D01*
X135748431Y-109696381D01*
X135777900Y-109715850D01*
X135806648Y-109736362D01*
X135834643Y-109757910D01*
X135861854Y-109780486D01*
X135888249Y-109804083D01*
X135913797Y-109828692D01*
X137237039Y-111082293D01*
X137304205Y-111149188D01*
X137367039Y-111219167D01*
X137425478Y-111292049D01*
X137479459Y-111367655D01*
X137528920Y-111445802D01*
X137573798Y-111526312D01*
X137614030Y-111609003D01*
X137649553Y-111693695D01*
X137680304Y-111780208D01*
X137706222Y-111868361D01*
X137727242Y-111957973D01*
X137743303Y-112048864D01*
X137754341Y-112140854D01*
X137760294Y-112233762D01*
X137761098Y-112327408D01*
X137756692Y-112421610D01*
X137579904Y-114837732D01*
X137572501Y-114920965D01*
X137562360Y-115003869D01*
X137549503Y-115086364D01*
X137533955Y-115168373D01*
X137515738Y-115249817D01*
X137494877Y-115330618D01*
X137471394Y-115410697D01*
X137445314Y-115489975D01*
X137416659Y-115568374D01*
X137385454Y-115645817D01*
X137351722Y-115722223D01*
X137315485Y-115797515D01*
X137276769Y-115871614D01*
X137235596Y-115944442D01*
X137191990Y-116015920D01*
X137145975Y-116085970D01*
X133438760Y-121545015D01*
X133438760Y-132420244D01*
X133436946Y-132507550D01*
X133431530Y-132594605D01*
X133422551Y-132681284D01*
X133410048Y-132767460D01*
X133394061Y-132853009D01*
X133374629Y-132937804D01*
X133351791Y-133021720D01*
X133325586Y-133104632D01*
X133296054Y-133186414D01*
X133263234Y-133266940D01*
X133227164Y-133346085D01*
X133187886Y-133423724D01*
X133145437Y-133499730D01*
X133099856Y-133573978D01*
X133051184Y-133646343D01*
X132999460Y-133716699D01*
X129865457Y-137836427D01*
X129823986Y-137888092D01*
X129780043Y-137936594D01*
X129733794Y-137981909D01*
X129685402Y-138024015D01*
X129635033Y-138062888D01*
X129582850Y-138098504D01*
X129529020Y-138130840D01*
X129473707Y-138159872D01*
X129417075Y-138185576D01*
X129359289Y-138207930D01*
X129300514Y-138226909D01*
X129240914Y-138242490D01*
X129180655Y-138254650D01*
X129119901Y-138263364D01*
X129058817Y-138268610D01*
X128997568Y-138270364D01*
X128956332Y-138269608D01*
X128915026Y-138267330D01*
X128873704Y-138263514D01*
X128832420Y-138258143D01*
X128791231Y-138251204D01*
X128750190Y-138242679D01*
X128709353Y-138232553D01*
X128668775Y-138220810D01*
X128628510Y-138207436D01*
X128588615Y-138192413D01*
X128549142Y-138175727D01*
X128510148Y-138157361D01*
X128471687Y-138137300D01*
X128433815Y-138115528D01*
X128396586Y-138092030D01*
X128360055Y-138066789D01*
X123372447Y-134514925D01*
X119649149Y-137970354D01*
X119607793Y-138006813D01*
X119565144Y-138040856D01*
X119521292Y-138072482D01*
X119476327Y-138101690D01*
X119430338Y-138128482D01*
X119383414Y-138152857D01*
X119335644Y-138174814D01*
X119287118Y-138194354D01*
X119237925Y-138211478D01*
X119188153Y-138226184D01*
X119137894Y-138238474D01*
X119087235Y-138248346D01*
X119036266Y-138255801D01*
X118985076Y-138260839D01*
X118933755Y-138263461D01*
X118882391Y-138263665D01*
X118831075Y-138261452D01*
X118779895Y-138256822D01*
X118728941Y-138249775D01*
X118678302Y-138240311D01*
X118628067Y-138228430D01*
X118578326Y-138214131D01*
X118529167Y-138197416D01*
X118480680Y-138178284D01*
X118432955Y-138156735D01*
X118386081Y-138132768D01*
X118340146Y-138106385D01*
X118295240Y-138077584D01*
X118251453Y-138046366D01*
X118208874Y-138012732D01*
X118167592Y-137976680D01*
X118127696Y-137938211D01*
X111409709Y-131155923D01*
X111355971Y-131100177D01*
X111303260Y-131043451D01*
X111251602Y-130985767D01*
X111201019Y-130927149D01*
X111151536Y-130867622D01*
X111103175Y-130807207D01*
X111055959Y-130745930D01*
X111009914Y-130683813D01*
X110965061Y-130620879D01*
X110921425Y-130557154D01*
X110879029Y-130492659D01*
X110837897Y-130427418D01*
X110798051Y-130361456D01*
X110777294Y-130325548D01*
X112116954Y-130325548D01*
X112121141Y-130329982D01*
X112125627Y-130335154D01*
X112130333Y-130340922D01*
X112135182Y-130347145D01*
X112144991Y-130360392D01*
X112154426Y-130373765D01*
X112162857Y-130386132D01*
X112169658Y-130396366D01*
X112175853Y-130405908D01*
X118893839Y-137188196D01*
X122589748Y-133786325D01*
X124213541Y-133786325D01*
X128986856Y-137188188D01*
X128992197Y-137188188D01*
X132158334Y-133063097D01*
X132160754Y-133060022D01*
X132162997Y-133056828D01*
X132165073Y-133053522D01*
X132166993Y-133050112D01*
X132170411Y-133043003D01*
X132173334Y-133035557D01*
X132175850Y-133027829D01*
X132178045Y-133019873D01*
X132181814Y-133003498D01*
X132185329Y-132986872D01*
X132187208Y-132978602D01*
X132189280Y-132970434D01*
X132191634Y-132962423D01*
X132194355Y-132954624D01*
X132197529Y-132947092D01*
X132201242Y-132939882D01*
X129367227Y-129521951D01*
X124213541Y-133786325D01*
X122589748Y-133786325D01*
X122799265Y-133593477D01*
X122788554Y-123961122D01*
X122783274Y-123966486D01*
X116729563Y-123966486D01*
X116699568Y-123967421D01*
X116669895Y-123970200D01*
X116640614Y-123974784D01*
X116611795Y-123981133D01*
X116583510Y-123989209D01*
X116555830Y-123998973D01*
X116528823Y-124010384D01*
X116502562Y-124023404D01*
X116477117Y-124037993D01*
X116452557Y-124054113D01*
X116428955Y-124071724D01*
X116406381Y-124090787D01*
X116384904Y-124111262D01*
X116364596Y-124133111D01*
X116345528Y-124156294D01*
X116327769Y-124180772D01*
X112116954Y-130325548D01*
X110777294Y-130325548D01*
X110759517Y-130294795D01*
X110722316Y-130227459D01*
X110686473Y-130159471D01*
X108117696Y-125186381D01*
X109333029Y-125186381D01*
X111484691Y-129350526D01*
X113022227Y-127105836D01*
X109333029Y-125186381D01*
X108117696Y-125186381D01*
X107841777Y-124652208D01*
X107822943Y-124613556D01*
X107806620Y-124574026D01*
X107792808Y-124533741D01*
X107781507Y-124492829D01*
X107772718Y-124451415D01*
X107766439Y-124409624D01*
X107762673Y-124367582D01*
X107761417Y-124325414D01*
X107762673Y-124283247D01*
X107766439Y-124241204D01*
X107772718Y-124199413D01*
X107781507Y-124157999D01*
X107792808Y-124117087D01*
X107806620Y-124076803D01*
X107822943Y-124037272D01*
X107841777Y-123998621D01*
X107859549Y-123967092D01*
X107878675Y-123936807D01*
X107899098Y-123907783D01*
X107920761Y-123880039D01*
X107943604Y-123853594D01*
X107967571Y-123828466D01*
X107992604Y-123804675D01*
X108018644Y-123782238D01*
X108045634Y-123761175D01*
X108073515Y-123741503D01*
X108102230Y-123723242D01*
X108131722Y-123706411D01*
X108161931Y-123691027D01*
X108192801Y-123677110D01*
X108224273Y-123664677D01*
X108256290Y-123653749D01*
X108288793Y-123644343D01*
X108321725Y-123636478D01*
X108355027Y-123630173D01*
X108388643Y-123625446D01*
X108422513Y-123622316D01*
X108456581Y-123620802D01*
X108490787Y-123620922D01*
X108525075Y-123622695D01*
X108559387Y-123626139D01*
X108593664Y-123631274D01*
X108627848Y-123638117D01*
X108661883Y-123646688D01*
X108695709Y-123657005D01*
X108729269Y-123669086D01*
X108762505Y-123682951D01*
X108795360Y-123698618D01*
X113627604Y-126216531D01*
X115443706Y-123570047D01*
X115438395Y-123575418D01*
X115494856Y-123497148D01*
X115555601Y-123423125D01*
X115558465Y-123420045D01*
X115620396Y-123353450D01*
X115689005Y-123288225D01*
X115761193Y-123227551D01*
X115836724Y-123171532D01*
X115915363Y-123120268D01*
X115996875Y-123073861D01*
X116081023Y-123032413D01*
X116167574Y-122996026D01*
X116256291Y-122964802D01*
X116346939Y-122938843D01*
X116439282Y-122918250D01*
X116533085Y-122903125D01*
X116628114Y-122893571D01*
X116724131Y-122889688D01*
X122777842Y-122889688D01*
X122777842Y-122873598D01*
X123859964Y-122873598D01*
X123859964Y-123420045D01*
X123870676Y-132682741D01*
X128681497Y-128696939D01*
X123859964Y-122873598D01*
X122777842Y-122873598D01*
X122777842Y-121930742D01*
X120731364Y-121930742D01*
X120692976Y-121929978D01*
X120654272Y-121927644D01*
X120634860Y-121925869D01*
X120615440Y-121923678D01*
X120596035Y-121921063D01*
X120589274Y-121920000D01*
X124460000Y-121920000D01*
X132372659Y-131471994D01*
X132372659Y-121920000D01*
X124460000Y-121920000D01*
X120589274Y-121920000D01*
X120576670Y-121918017D01*
X120557368Y-121914531D01*
X120538152Y-121910598D01*
X120519047Y-121906210D01*
X120500076Y-121901359D01*
X120481262Y-121896037D01*
X120462630Y-121890236D01*
X120444203Y-121883949D01*
X120426005Y-121877168D01*
X120383381Y-121860161D01*
X120341927Y-121841310D01*
X120301683Y-121820655D01*
X120262686Y-121798233D01*
X120224977Y-121774085D01*
X120188595Y-121748250D01*
X120153579Y-121720767D01*
X120119967Y-121691676D01*
X120087800Y-121661014D01*
X120057115Y-121628823D01*
X120027954Y-121595140D01*
X120000353Y-121560006D01*
X119974354Y-121523458D01*
X119949994Y-121485538D01*
X119927314Y-121446283D01*
X119906352Y-121405733D01*
X119887379Y-121364186D01*
X119870661Y-121321964D01*
X119856189Y-121279146D01*
X119843955Y-121235810D01*
X119833950Y-121192034D01*
X119826169Y-121147897D01*
X119820601Y-121103477D01*
X119817240Y-121058854D01*
X119816078Y-121014104D01*
X119817107Y-120969308D01*
X119820318Y-120924543D01*
X119825705Y-120879888D01*
X119829209Y-120859259D01*
X120952905Y-120859259D01*
X131301248Y-120843195D01*
X123131419Y-114725206D01*
X120952905Y-120859259D01*
X119829209Y-120859259D01*
X119833259Y-120835421D01*
X119842972Y-120791221D01*
X119854837Y-120747366D01*
X119868845Y-120703935D01*
X122183176Y-114189509D01*
X122210104Y-114115554D01*
X122238640Y-114042361D01*
X122268762Y-113969937D01*
X122300445Y-113898290D01*
X122333666Y-113827428D01*
X122361338Y-113771608D01*
X123635050Y-113771608D01*
X132779886Y-120618181D01*
X136262094Y-115491289D01*
X131802904Y-112593012D01*
X133765542Y-112593012D01*
X136540597Y-114398409D01*
X136685251Y-112416224D01*
X133765542Y-112593012D01*
X131802904Y-112593012D01*
X129956583Y-111392985D01*
X129917033Y-111367684D01*
X129876762Y-111344016D01*
X129835801Y-111321980D01*
X129794181Y-111301576D01*
X129751935Y-111282805D01*
X129709092Y-111265666D01*
X129665684Y-111250160D01*
X129621744Y-111236286D01*
X129577301Y-111224044D01*
X129532387Y-111213434D01*
X129487034Y-111204457D01*
X129441272Y-111197112D01*
X129395134Y-111191399D01*
X129348650Y-111187318D01*
X129301851Y-111184870D01*
X129254770Y-111184054D01*
X126013620Y-111184054D01*
X125979602Y-111184990D01*
X125945906Y-111187779D01*
X125912603Y-111192388D01*
X125879763Y-111198787D01*
X125847456Y-111206943D01*
X125815754Y-111216826D01*
X125784727Y-111228404D01*
X125754446Y-111241645D01*
X125724981Y-111256519D01*
X125696403Y-111272994D01*
X125668783Y-111291038D01*
X125642192Y-111310621D01*
X125616700Y-111331710D01*
X125592377Y-111354275D01*
X125569296Y-111378283D01*
X125547525Y-111403704D01*
X125547586Y-111409060D01*
X123635050Y-113771608D01*
X122361338Y-113771608D01*
X122368402Y-113757358D01*
X122404629Y-113688089D01*
X122442324Y-113619628D01*
X122481463Y-113551984D01*
X122522022Y-113485163D01*
X122563979Y-113419174D01*
X122607309Y-113354025D01*
X122651989Y-113289724D01*
X122697996Y-113226278D01*
X122745305Y-113163696D01*
X122793894Y-113101984D01*
X124717142Y-110728716D01*
X124778256Y-110657350D01*
X124842941Y-110589963D01*
X124911001Y-110526640D01*
X124982239Y-110467469D01*
X125056460Y-110412535D01*
X125133467Y-110361925D01*
X125213063Y-110315726D01*
X125295053Y-110274023D01*
X125379240Y-110236903D01*
X125465428Y-110204452D01*
X125553421Y-110176756D01*
X125643023Y-110153903D01*
X125734037Y-110135978D01*
X125826267Y-110123067D01*
X125919516Y-110115258D01*
X126013589Y-110112635D01*
X129254739Y-110112635D01*
X129339981Y-110114200D01*
X129424902Y-110118872D01*
X129509430Y-110126620D01*
X129593497Y-110137413D01*
X129677030Y-110151219D01*
X129759959Y-110168008D01*
X129842214Y-110187747D01*
X129923723Y-110210406D01*
X130004416Y-110235952D01*
X130084222Y-110264355D01*
X130163071Y-110295583D01*
X130240891Y-110329604D01*
X130317612Y-110366388D01*
X130393164Y-110405903D01*
X130467475Y-110448117D01*
X130540475Y-110492999D01*
X132260141Y-111612666D01*
X132956583Y-111569804D01*
X133035129Y-111478701D01*
X134445932Y-111478701D01*
X135999521Y-111382273D01*
X135190591Y-110616183D01*
X134445932Y-111478701D01*
X133035129Y-111478701D01*
X134397684Y-109898341D01*
X134446492Y-109845052D01*
X134498345Y-109795727D01*
X134553023Y-109750435D01*
X134610306Y-109709247D01*
X134669974Y-109672234D01*
X134731809Y-109639466D01*
X134795590Y-109611015D01*
X134861097Y-109586950D01*
X134928111Y-109567343D01*
X134996411Y-109552263D01*
X135065779Y-109541783D01*
X135135995Y-109535971D01*
X135206838Y-109534900D01*
X135278090Y-109538639D01*
G37*
%TO.C,svg2mod*%
G36*
X170205671Y-96607896D02*
G01*
X170394726Y-96853956D01*
X170538577Y-97059883D01*
X170619979Y-97209920D01*
X170621691Y-97288307D01*
X170479607Y-97422239D01*
X170333827Y-97548555D01*
X170158605Y-97633630D01*
X169928193Y-97643841D01*
X169689517Y-97549379D01*
X169456152Y-97448425D01*
X169228348Y-97341015D01*
X169006357Y-97227190D01*
X168790429Y-97106987D01*
X168580814Y-96980445D01*
X168377764Y-96847602D01*
X168181529Y-96708497D01*
X167979006Y-96552011D01*
X167787238Y-96390170D01*
X167940076Y-96401120D01*
X168093005Y-96410714D01*
X168246012Y-96418949D01*
X168399087Y-96425827D01*
X168630455Y-96423814D01*
X168860246Y-96417914D01*
X169088549Y-96408337D01*
X169315453Y-96395293D01*
X169541046Y-96378992D01*
X169765417Y-96359645D01*
X169988654Y-96337461D01*
X170205671Y-96607896D01*
G37*
G36*
X174991450Y-59008474D02*
G01*
X175151938Y-59195433D01*
X175317581Y-59380906D01*
X175488271Y-59564814D01*
X175663897Y-59747078D01*
X175844352Y-59927618D01*
X176029524Y-60106354D01*
X176219305Y-60283207D01*
X176413586Y-60458098D01*
X176612258Y-60630946D01*
X176815211Y-60801672D01*
X177022336Y-60970196D01*
X177233523Y-61136440D01*
X177448664Y-61300323D01*
X177662604Y-66221987D01*
X177501505Y-66162365D01*
X177339333Y-66105723D01*
X177176146Y-66052079D01*
X177011998Y-66001451D01*
X176846944Y-65953858D01*
X176681042Y-65909314D01*
X176514346Y-65867835D01*
X176346915Y-65829435D01*
X176178805Y-65794127D01*
X176010072Y-65761923D01*
X175840774Y-65732835D01*
X175670969Y-65706871D01*
X175500715Y-65684041D01*
X175330068Y-65664352D01*
X175159088Y-65647812D01*
X174987832Y-65634426D01*
X174987832Y-59004856D01*
X174991450Y-59008474D01*
G37*
G36*
X164450711Y-94278443D02*
G01*
X164469839Y-94494650D01*
X164501475Y-94711464D01*
X164545417Y-94928549D01*
X164601466Y-95145568D01*
X164669420Y-95362185D01*
X164749080Y-95578062D01*
X164840245Y-95792864D01*
X164942713Y-96006254D01*
X165056286Y-96217894D01*
X165180761Y-96427449D01*
X165315940Y-96634582D01*
X165461620Y-96838956D01*
X165617603Y-97040235D01*
X165783686Y-97238082D01*
X165959671Y-97432160D01*
X166145355Y-97622132D01*
X166340540Y-97807663D01*
X166545023Y-97988415D01*
X166758605Y-98164053D01*
X166981086Y-98334238D01*
X167171211Y-98470252D01*
X167366034Y-98601625D01*
X167565428Y-98728319D01*
X167769265Y-98850295D01*
X167977417Y-98967515D01*
X168189756Y-99079940D01*
X168406157Y-99187531D01*
X168626490Y-99290250D01*
X168850629Y-99388058D01*
X169078445Y-99480917D01*
X169309813Y-99568787D01*
X169544603Y-99651632D01*
X169782688Y-99729411D01*
X170023942Y-99802086D01*
X170268236Y-99869619D01*
X170515443Y-99931971D01*
X170765436Y-99989104D01*
X171018086Y-100040978D01*
X171273267Y-100087556D01*
X171530851Y-100128799D01*
X171790711Y-100164668D01*
X172052718Y-100195124D01*
X172316746Y-100220129D01*
X172582667Y-100239645D01*
X172850354Y-100253633D01*
X173119678Y-100262054D01*
X173390514Y-100264869D01*
X164444290Y-100264869D01*
X164444290Y-94063181D01*
X164450711Y-94278443D01*
G37*
G36*
X178310110Y-52490008D02*
G01*
X178534713Y-52501238D01*
X178762141Y-52519068D01*
X178992239Y-52543235D01*
X179091458Y-52558221D01*
X179295168Y-52585927D01*
X179500411Y-52617678D01*
X179707441Y-52654856D01*
X179758083Y-52666225D01*
X179985695Y-52713793D01*
X180214778Y-52766506D01*
X180445380Y-52824872D01*
X180692240Y-52893078D01*
X180940344Y-52967140D01*
X181189521Y-53047080D01*
X180903902Y-53059865D01*
X180626277Y-53083518D01*
X180357062Y-53118042D01*
X180096677Y-53163443D01*
X179845538Y-53219723D01*
X179604063Y-53286887D01*
X179372671Y-53364940D01*
X179151779Y-53453885D01*
X178941805Y-53553726D01*
X178743167Y-53664467D01*
X178556283Y-53786113D01*
X178381570Y-53918667D01*
X178219447Y-54062134D01*
X178070331Y-54216518D01*
X178044763Y-54259870D01*
X177975475Y-54380164D01*
X177873588Y-54562757D01*
X177750228Y-54793008D01*
X177616516Y-55056273D01*
X177483576Y-55337911D01*
X177362530Y-55623278D01*
X177264503Y-55897733D01*
X177200617Y-56146633D01*
X177170554Y-56401618D01*
X177163113Y-56692710D01*
X177173198Y-57002257D01*
X177195713Y-57312609D01*
X177225561Y-57606114D01*
X177257647Y-57865121D01*
X177286875Y-58071980D01*
X177308148Y-58209040D01*
X177316372Y-58258649D01*
X177130042Y-58066365D01*
X176951126Y-57872232D01*
X176779133Y-57676487D01*
X176613573Y-57479368D01*
X176450275Y-57275246D01*
X176364061Y-57164062D01*
X176280260Y-57052521D01*
X176166591Y-56893363D01*
X176057312Y-56733701D01*
X175953665Y-56573480D01*
X175816177Y-56344631D01*
X175691907Y-56118938D01*
X175580950Y-55896826D01*
X175483400Y-55678722D01*
X175399351Y-55465054D01*
X175328897Y-55256248D01*
X175328897Y-55255731D01*
X175272183Y-55052394D01*
X175229161Y-54854722D01*
X175229161Y-54854205D01*
X175199760Y-54662598D01*
X175184203Y-54477484D01*
X175184203Y-54476967D01*
X175182891Y-54298898D01*
X175195571Y-54128151D01*
X175195571Y-54127634D01*
X175222347Y-53964653D01*
X175263268Y-53809824D01*
X175263268Y-53809308D01*
X175318366Y-53662950D01*
X175387808Y-53525604D01*
X175466209Y-53404303D01*
X175557823Y-53289960D01*
X175558340Y-53289443D01*
X175572809Y-53276007D01*
X175719155Y-53137282D01*
X175887519Y-53011424D01*
X176035135Y-52918055D01*
X176194787Y-52832619D01*
X176368626Y-52756659D01*
X176544189Y-52694304D01*
X176730361Y-52639870D01*
X176932088Y-52592677D01*
X177144290Y-52554087D01*
X177354565Y-52525374D01*
X177573586Y-52504657D01*
X177801071Y-52491990D01*
X178036742Y-52487425D01*
X178050177Y-52486908D01*
X178310110Y-52490008D01*
G37*
G36*
X191687691Y-89976929D02*
G01*
X191912318Y-90101666D01*
X192139651Y-90220538D01*
X192369564Y-90333488D01*
X192601928Y-90440458D01*
X192836615Y-90541390D01*
X193073498Y-90636228D01*
X193312449Y-90724912D01*
X193553339Y-90807387D01*
X193796041Y-90883595D01*
X194040428Y-90953477D01*
X194286370Y-91016977D01*
X194533742Y-91074037D01*
X194782413Y-91124599D01*
X195032258Y-91168607D01*
X195283147Y-91206002D01*
X195534953Y-91236726D01*
X195787549Y-91260723D01*
X196040805Y-91277935D01*
X196294595Y-91288305D01*
X196548791Y-91291774D01*
X197558548Y-91291774D01*
X197558548Y-100264869D01*
X173390514Y-100264869D01*
X173510360Y-100264455D01*
X173640985Y-100263100D01*
X173782121Y-100260639D01*
X173933500Y-100256905D01*
X174094854Y-100251731D01*
X174265916Y-100244951D01*
X174446418Y-100236399D01*
X174636092Y-100225907D01*
X174834671Y-100213310D01*
X175041886Y-100198440D01*
X175257470Y-100181132D01*
X175481155Y-100161219D01*
X175712673Y-100138534D01*
X175951757Y-100112910D01*
X176198139Y-100084182D01*
X176451551Y-100052183D01*
X176711726Y-100016746D01*
X176978395Y-99977704D01*
X177251291Y-99934892D01*
X177530146Y-99888142D01*
X177814693Y-99837289D01*
X178104663Y-99782165D01*
X178399789Y-99722604D01*
X178699803Y-99658440D01*
X179004438Y-99589506D01*
X179313425Y-99515636D01*
X179626498Y-99436662D01*
X179943387Y-99352420D01*
X180263826Y-99262741D01*
X180587546Y-99167459D01*
X180914281Y-99066409D01*
X181243761Y-98959423D01*
X181575720Y-98846335D01*
X181909890Y-98726979D01*
X181924359Y-98721294D01*
X182005491Y-98686671D01*
X182310845Y-98538576D01*
X182610998Y-98389995D01*
X182905974Y-98240905D01*
X183195793Y-98091283D01*
X183480477Y-97941108D01*
X183760048Y-97790357D01*
X184034528Y-97639008D01*
X184303937Y-97487038D01*
X184568297Y-97334425D01*
X184827631Y-97181146D01*
X185081959Y-97027180D01*
X185331303Y-96872503D01*
X185575684Y-96717094D01*
X185815125Y-96560931D01*
X186049647Y-96403989D01*
X186279271Y-96246249D01*
X186504020Y-96087686D01*
X186723913Y-95928279D01*
X186938974Y-95768005D01*
X187149223Y-95606842D01*
X187354683Y-95444768D01*
X187555374Y-95281760D01*
X187751319Y-95117796D01*
X187942539Y-94952853D01*
X188129055Y-94786909D01*
X188310890Y-94619942D01*
X188488064Y-94451930D01*
X188660599Y-94282850D01*
X188828517Y-94112679D01*
X188991840Y-93941395D01*
X189150588Y-93768977D01*
X189304784Y-93595401D01*
X189454449Y-93420645D01*
X189599605Y-93244687D01*
X189740273Y-93067505D01*
X189876474Y-92889076D01*
X190008231Y-92709377D01*
X190135565Y-92528387D01*
X190258498Y-92346083D01*
X190377050Y-92162443D01*
X190491245Y-91977443D01*
X190601102Y-91791063D01*
X190706644Y-91603280D01*
X190807893Y-91414070D01*
X190904870Y-91223413D01*
X190997596Y-91031285D01*
X191086093Y-90837664D01*
X191170382Y-90642528D01*
X191250486Y-90445854D01*
X191326426Y-90247621D01*
X191398223Y-90047805D01*
X191465899Y-89846384D01*
X191687691Y-89976929D01*
G37*
G36*
X174540709Y-67589235D02*
G01*
X174737313Y-67597835D01*
X174933614Y-67611727D01*
X175129470Y-67630901D01*
X175324739Y-67655343D01*
X175519278Y-67685036D01*
X175712947Y-67719958D01*
X175905606Y-67760084D01*
X175908189Y-67760601D01*
X176035848Y-67795092D01*
X176162954Y-67831914D01*
X176320371Y-67873714D01*
X176476817Y-67919012D01*
X176632214Y-67967787D01*
X176786485Y-68020013D01*
X176939554Y-68075666D01*
X177091344Y-68134717D01*
X177241779Y-68197138D01*
X177390786Y-68262896D01*
X177399054Y-68265997D01*
X177261177Y-68252963D01*
X177123102Y-68242225D01*
X176872997Y-68245907D01*
X176624721Y-68256882D01*
X176378378Y-68275047D01*
X176134071Y-68300301D01*
X175891903Y-68332539D01*
X175651978Y-68371658D01*
X175414399Y-68417556D01*
X175179268Y-68470129D01*
X174946689Y-68529274D01*
X174716765Y-68594889D01*
X174489599Y-68666869D01*
X174265295Y-68745112D01*
X174043955Y-68829515D01*
X173825683Y-68919975D01*
X173610581Y-69016388D01*
X173398754Y-69118652D01*
X173190303Y-69226664D01*
X172985333Y-69340320D01*
X172783947Y-69459517D01*
X172586247Y-69584152D01*
X172392336Y-69714122D01*
X172202319Y-69849325D01*
X172016298Y-69989656D01*
X171834375Y-70135013D01*
X171656655Y-70285293D01*
X171483241Y-70440392D01*
X171314235Y-70600208D01*
X171149741Y-70764638D01*
X170989863Y-70933578D01*
X170834702Y-71106925D01*
X170684362Y-71284576D01*
X170538947Y-71466428D01*
X170398560Y-71652379D01*
X170263303Y-71842324D01*
X170133280Y-72036162D01*
X170008594Y-72233787D01*
X169889348Y-72435099D01*
X169775646Y-72639993D01*
X169667590Y-72848367D01*
X169565284Y-73060117D01*
X169468830Y-73275140D01*
X169378333Y-73493334D01*
X169293895Y-73714594D01*
X169215619Y-73938819D01*
X169143608Y-74165905D01*
X169077966Y-74395748D01*
X169018796Y-74628246D01*
X168966200Y-74863296D01*
X168920283Y-75100795D01*
X168881147Y-75340639D01*
X168848895Y-75582725D01*
X168823631Y-75826950D01*
X168805457Y-76073212D01*
X168794477Y-76321407D01*
X168790795Y-76571432D01*
X168790795Y-78792485D01*
X168797390Y-79053926D01*
X168812177Y-79314543D01*
X168835102Y-79574150D01*
X168866114Y-79832565D01*
X168905161Y-80089601D01*
X168952190Y-80345076D01*
X169007149Y-80598804D01*
X169069987Y-80850601D01*
X169140650Y-81100283D01*
X169219086Y-81347665D01*
X169305244Y-81592563D01*
X169399071Y-81834793D01*
X169500516Y-82074170D01*
X169609525Y-82310510D01*
X169726046Y-82543629D01*
X169850029Y-82773341D01*
X169981419Y-82999463D01*
X169784807Y-82847303D01*
X169593578Y-82688718D01*
X169407883Y-82523880D01*
X169227872Y-82352961D01*
X169053695Y-82176133D01*
X168885503Y-81993569D01*
X168723445Y-81805441D01*
X168567672Y-81611921D01*
X168418334Y-81413180D01*
X168275581Y-81209392D01*
X168242508Y-81159783D01*
X168101159Y-80938617D01*
X167967580Y-80712252D01*
X167842015Y-80480754D01*
X167827029Y-80453882D01*
X167734658Y-80267603D01*
X167647486Y-80078446D01*
X167565595Y-79886451D01*
X167489065Y-79691655D01*
X167480797Y-79667884D01*
X167398962Y-79433273D01*
X167325660Y-79194760D01*
X167259622Y-78953199D01*
X167211563Y-78748043D01*
X167170020Y-78552336D01*
X167133952Y-78354731D01*
X167103042Y-78155315D01*
X167072553Y-77937757D01*
X167052353Y-77736836D01*
X167036870Y-77534548D01*
X167026955Y-77330776D01*
X167023461Y-77125404D01*
X167023461Y-74906934D01*
X167023461Y-74906314D01*
X167027684Y-74655248D01*
X167040291Y-74406330D01*
X167061184Y-74159590D01*
X167061184Y-74159176D01*
X167090282Y-73914658D01*
X167127411Y-73672640D01*
X167172417Y-73433263D01*
X167225147Y-73196668D01*
X167285444Y-72962997D01*
X167353156Y-72732390D01*
X167353156Y-72731977D01*
X167428187Y-72504667D01*
X167510421Y-72280699D01*
X167599653Y-72060183D01*
X167599653Y-72059770D01*
X167695772Y-71842891D01*
X167798664Y-71629793D01*
X167908161Y-71420532D01*
X167908161Y-71420119D01*
X168024221Y-71214784D01*
X168146677Y-71013621D01*
X168275369Y-70816758D01*
X168410137Y-70624326D01*
X168550821Y-70436452D01*
X168697260Y-70253265D01*
X168697260Y-70252749D01*
X168849364Y-70074360D01*
X169006973Y-69900984D01*
X169169962Y-69732743D01*
X169338206Y-69569758D01*
X169511582Y-69412151D01*
X169689964Y-69260044D01*
X169873213Y-69113571D01*
X170061174Y-68972885D01*
X170253708Y-68838133D01*
X170450673Y-68709461D01*
X170651929Y-68587016D01*
X170857335Y-68470945D01*
X171081868Y-68353809D01*
X171310849Y-68244299D01*
X171544111Y-68142584D01*
X171781482Y-68048831D01*
X172022795Y-67963209D01*
X172267878Y-67885887D01*
X172516562Y-67817031D01*
X172768678Y-67756811D01*
X173024057Y-67705394D01*
X173282528Y-67662948D01*
X173543921Y-67629643D01*
X173808068Y-67605645D01*
X174074799Y-67591123D01*
X174343944Y-67586245D01*
X174343944Y-67585934D01*
X174540709Y-67589235D01*
G37*
G36*
X180930339Y-72530667D02*
G01*
X180937340Y-72762466D01*
X180735369Y-72922484D01*
X180539105Y-73088081D01*
X180348625Y-73259099D01*
X180164009Y-73435380D01*
X179985333Y-73616765D01*
X179812677Y-73803097D01*
X179646119Y-73994217D01*
X179485736Y-74189968D01*
X179331607Y-74390192D01*
X179183811Y-74594730D01*
X179042425Y-74803424D01*
X178907527Y-75016116D01*
X178779196Y-75232649D01*
X178657511Y-75452864D01*
X178542549Y-75676603D01*
X178434388Y-75903709D01*
X178333107Y-76134022D01*
X178238785Y-76367385D01*
X178151498Y-76603640D01*
X178071326Y-76842629D01*
X177998346Y-77084194D01*
X177932638Y-77328177D01*
X177874278Y-77574419D01*
X177823346Y-77822763D01*
X177779919Y-78073050D01*
X177744077Y-78325123D01*
X177715896Y-78578824D01*
X177695455Y-78833994D01*
X177682833Y-79090475D01*
X177678107Y-79348110D01*
X177648342Y-79685657D01*
X177616312Y-80015722D01*
X177582019Y-80338303D01*
X177545461Y-80653403D01*
X177506639Y-80961019D01*
X177465552Y-81261154D01*
X177422201Y-81553805D01*
X177376585Y-81838974D01*
X177328704Y-82116660D01*
X177278559Y-82386863D01*
X177226148Y-82649583D01*
X177171473Y-82904820D01*
X177114532Y-83152575D01*
X177055326Y-83392847D01*
X176993854Y-83625635D01*
X176930117Y-83850941D01*
X176864115Y-84068764D01*
X176795847Y-84279103D01*
X176725312Y-84481960D01*
X176652512Y-84677333D01*
X176577446Y-84865223D01*
X176500114Y-85045630D01*
X176420516Y-85218554D01*
X176338651Y-85383995D01*
X176254520Y-85541952D01*
X176168122Y-85692426D01*
X176018046Y-85934994D01*
X175858131Y-86176615D01*
X175689130Y-86417039D01*
X175511794Y-86656021D01*
X175326875Y-86893313D01*
X175135125Y-87128667D01*
X174937295Y-87361837D01*
X174734138Y-87592575D01*
X174526405Y-87820633D01*
X174314848Y-88045766D01*
X174100219Y-88267725D01*
X173883269Y-88486263D01*
X173664751Y-88701133D01*
X173445416Y-88912088D01*
X173226016Y-89118880D01*
X173007303Y-89321262D01*
X172790029Y-89518988D01*
X172574945Y-89711809D01*
X172362803Y-89899479D01*
X172154356Y-90081750D01*
X171950354Y-90258375D01*
X171751550Y-90429106D01*
X171558696Y-90593698D01*
X171372543Y-90751901D01*
X171193843Y-90903470D01*
X171023348Y-91048156D01*
X170861809Y-91185713D01*
X170709980Y-91315894D01*
X170568610Y-91438450D01*
X170438453Y-91553136D01*
X170320260Y-91659703D01*
X170214782Y-91757904D01*
X170122772Y-91847492D01*
X170044981Y-91928221D01*
X169912164Y-92064746D01*
X169767416Y-92223288D01*
X169615815Y-92402006D01*
X169462439Y-92599063D01*
X169312365Y-92812617D01*
X169170671Y-93040831D01*
X169042434Y-93281865D01*
X168932733Y-93533879D01*
X168846643Y-93795034D01*
X168789244Y-94063491D01*
X168797346Y-94267169D01*
X168821270Y-94473398D01*
X168860445Y-94681637D01*
X168914301Y-94891347D01*
X168913268Y-94892794D01*
X168665122Y-94900107D01*
X168415381Y-94903478D01*
X168164005Y-94902791D01*
X167910959Y-94897931D01*
X167656204Y-94888784D01*
X167399703Y-94875233D01*
X167141419Y-94857164D01*
X166881314Y-94834462D01*
X166619351Y-94807011D01*
X166602298Y-94766187D01*
X166566641Y-94654566D01*
X166512528Y-94453426D01*
X166478004Y-94255593D01*
X166465872Y-94062354D01*
X166503742Y-93850899D01*
X166558373Y-93656694D01*
X166628850Y-93503154D01*
X166721509Y-93342794D01*
X166837741Y-93174106D01*
X166978938Y-92995584D01*
X167146489Y-92805721D01*
X167341787Y-92603012D01*
X167385196Y-92558570D01*
X167388296Y-92555469D01*
X167431704Y-92511544D01*
X167431704Y-92511131D01*
X167611073Y-92316068D01*
X167788090Y-92121904D01*
X167962744Y-91928529D01*
X168135025Y-91735832D01*
X168304922Y-91543700D01*
X168472426Y-91352024D01*
X168637524Y-91160692D01*
X168800207Y-90969593D01*
X168960465Y-90778617D01*
X169118286Y-90587651D01*
X169273660Y-90396585D01*
X169426577Y-90205308D01*
X169577025Y-90013708D01*
X169724996Y-89821676D01*
X169870477Y-89629099D01*
X170013459Y-89435866D01*
X170015526Y-89432766D01*
X170155436Y-89239599D01*
X170292877Y-89045606D01*
X170427811Y-88850632D01*
X170560196Y-88654519D01*
X170562780Y-88650385D01*
X170692533Y-88453116D01*
X170819796Y-88254544D01*
X170944513Y-88054551D01*
X171066625Y-87853017D01*
X171069209Y-87848366D01*
X171189283Y-87644024D01*
X171306727Y-87437949D01*
X171421555Y-87229988D01*
X171533780Y-87019993D01*
X171642590Y-86809463D01*
X171748824Y-86596700D01*
X171852438Y-86381643D01*
X171953392Y-86164232D01*
X171977163Y-86169916D01*
X172199510Y-86225746D01*
X172423822Y-86276106D01*
X172650115Y-86321042D01*
X172878400Y-86360602D01*
X173058464Y-86389974D01*
X173239619Y-86415896D01*
X173401734Y-86434347D01*
X173564663Y-86450002D01*
X173763858Y-86466682D01*
X173964055Y-86479757D01*
X174165448Y-86488291D01*
X174368232Y-86491343D01*
X175383674Y-86491343D01*
X175383674Y-86490930D01*
X175354735Y-81379097D01*
X175354735Y-81378684D01*
X175354735Y-79348317D01*
X175359945Y-79153745D01*
X175370334Y-78959382D01*
X175385896Y-78765363D01*
X175406618Y-78571829D01*
X175432487Y-78378914D01*
X175463484Y-78186757D01*
X175499587Y-77995493D01*
X175540770Y-77805259D01*
X175541287Y-77803192D01*
X175603755Y-77552268D01*
X175675129Y-77303481D01*
X175676162Y-77300380D01*
X175754652Y-77057559D01*
X175841520Y-76817607D01*
X175936662Y-76580815D01*
X176039964Y-76347467D01*
X176150396Y-76118704D01*
X176268308Y-75894537D01*
X176393538Y-75675122D01*
X176525926Y-75460613D01*
X176665309Y-75251166D01*
X176811528Y-75046937D01*
X176964419Y-74848081D01*
X177123823Y-74654754D01*
X177289578Y-74467111D01*
X177461523Y-74285308D01*
X177639496Y-74109501D01*
X177823337Y-73939844D01*
X178012883Y-73776494D01*
X178207975Y-73619605D01*
X178408449Y-73469334D01*
X178614147Y-73325836D01*
X178824905Y-73189267D01*
X179040563Y-73059781D01*
X179260959Y-72937536D01*
X179485933Y-72822685D01*
X179715323Y-72715384D01*
X179948968Y-72615790D01*
X180186706Y-72524057D01*
X180428377Y-72440342D01*
X180673819Y-72364799D01*
X180922870Y-72297585D01*
X180922870Y-72297378D01*
X180930339Y-72530667D01*
G37*
G36*
X177792144Y-50268584D02*
G01*
X177505203Y-50281542D01*
X177225329Y-50303860D01*
X176952683Y-50335468D01*
X176687423Y-50376298D01*
X176429710Y-50426281D01*
X176179703Y-50485348D01*
X175937562Y-50553430D01*
X175703446Y-50630457D01*
X175477515Y-50716362D01*
X175259928Y-50811076D01*
X175050845Y-50914528D01*
X174850427Y-51026652D01*
X174658831Y-51147376D01*
X174476219Y-51276634D01*
X174302749Y-51414355D01*
X174138581Y-51560471D01*
X173983875Y-51714912D01*
X173838790Y-51877611D01*
X173703486Y-52048498D01*
X173578123Y-52227504D01*
X173462861Y-52414561D01*
X173343349Y-52639922D01*
X173240625Y-52871788D01*
X173154419Y-53109819D01*
X173084459Y-53353675D01*
X173030474Y-53603015D01*
X172992195Y-53857497D01*
X172969351Y-54116782D01*
X172968317Y-54116782D01*
X172968317Y-54126601D01*
X172964697Y-54304380D01*
X172968317Y-54484202D01*
X172968317Y-65676800D01*
X172723941Y-65716381D01*
X172481697Y-65762242D01*
X172241674Y-65814298D01*
X172003960Y-65872460D01*
X171768642Y-65936642D01*
X171535809Y-66006758D01*
X171305549Y-66082721D01*
X171077948Y-66164444D01*
X170853096Y-66251840D01*
X170631080Y-66344823D01*
X170411987Y-66443306D01*
X170195907Y-66547202D01*
X169982926Y-66656424D01*
X169773133Y-66770886D01*
X169566616Y-66890501D01*
X169363461Y-67015182D01*
X169163759Y-67144842D01*
X168967595Y-67279395D01*
X168775058Y-67418754D01*
X168586237Y-67562832D01*
X168401218Y-67711543D01*
X168220090Y-67864799D01*
X168042941Y-68022514D01*
X167869858Y-68184602D01*
X167700930Y-68350975D01*
X167536244Y-68521546D01*
X167375888Y-68696230D01*
X167219951Y-68874939D01*
X167068519Y-69057586D01*
X166921681Y-69244085D01*
X166779526Y-69434349D01*
X166642139Y-69628292D01*
X166509611Y-69825826D01*
X166382028Y-70026864D01*
X166259478Y-70231321D01*
X166142049Y-70439109D01*
X166029830Y-70650141D01*
X165922908Y-70864332D01*
X165821370Y-71081593D01*
X165725306Y-71301839D01*
X165634802Y-71524982D01*
X165549947Y-71750937D01*
X165470828Y-71979615D01*
X165397534Y-72210931D01*
X165330152Y-72444797D01*
X165268770Y-72681127D01*
X165213477Y-72919834D01*
X165164359Y-73160832D01*
X165121505Y-73404033D01*
X165085003Y-73649352D01*
X165054941Y-73896700D01*
X165031406Y-74145992D01*
X165014486Y-74397140D01*
X165004270Y-74650059D01*
X165000845Y-74904661D01*
X165000845Y-77126747D01*
X165004504Y-77390115D01*
X165015418Y-77651685D01*
X165033487Y-77911364D01*
X165058616Y-78169056D01*
X165090708Y-78424664D01*
X165129664Y-78678095D01*
X165175389Y-78929251D01*
X165227784Y-79178039D01*
X165286753Y-79424361D01*
X165352198Y-79668124D01*
X165424022Y-79909231D01*
X165502129Y-80147587D01*
X165586420Y-80383097D01*
X165676799Y-80615665D01*
X165773168Y-80845196D01*
X165875431Y-81071594D01*
X165983489Y-81294764D01*
X166097247Y-81514610D01*
X166216606Y-81731037D01*
X166341470Y-81943950D01*
X166471742Y-82153253D01*
X166607324Y-82358850D01*
X166748118Y-82560647D01*
X166894029Y-82758548D01*
X167044958Y-82952456D01*
X167200809Y-83142278D01*
X167361484Y-83327917D01*
X167526886Y-83509278D01*
X167696918Y-83686266D01*
X167871483Y-83858785D01*
X168050484Y-84026739D01*
X168233823Y-84190034D01*
X168421403Y-84348574D01*
X168613127Y-84502263D01*
X168808898Y-84651005D01*
X169008619Y-84794707D01*
X169212193Y-84933271D01*
X169419522Y-85066603D01*
X169630508Y-85194607D01*
X169845056Y-85317188D01*
X170063068Y-85434250D01*
X169955340Y-85661423D01*
X169844325Y-85885752D01*
X169730007Y-86107431D01*
X169612368Y-86326655D01*
X169491388Y-86543618D01*
X169367052Y-86758516D01*
X169239339Y-86971543D01*
X169108234Y-87182893D01*
X168973717Y-87392761D01*
X168835770Y-87601342D01*
X168694376Y-87808830D01*
X168549517Y-88015420D01*
X168401175Y-88221306D01*
X168249332Y-88426684D01*
X168093969Y-88631746D01*
X167935069Y-88836689D01*
X167772615Y-89041707D01*
X167606587Y-89246995D01*
X167436968Y-89452746D01*
X167263741Y-89659156D01*
X167086887Y-89866419D01*
X166906387Y-90074730D01*
X166722225Y-90284283D01*
X166534383Y-90495273D01*
X166342841Y-90707895D01*
X166147583Y-90922343D01*
X165948591Y-91138812D01*
X165912417Y-91175502D01*
X165764759Y-91325964D01*
X165615932Y-91484568D01*
X165467875Y-91651423D01*
X165322526Y-91826641D01*
X165181822Y-92010333D01*
X165047702Y-92202610D01*
X164922103Y-92403582D01*
X164806964Y-92613360D01*
X164704221Y-92832056D01*
X164615814Y-93059780D01*
X164543679Y-93296644D01*
X164489755Y-93542758D01*
X164455979Y-93798233D01*
X164444290Y-94063181D01*
X164444290Y-50265338D01*
X178062428Y-50265338D01*
X177792144Y-50268584D01*
G37*
G36*
X197558548Y-74126413D02*
G01*
X197556624Y-73929721D01*
X197550078Y-73733129D01*
X197538913Y-73536744D01*
X197523136Y-73340677D01*
X197502756Y-73145034D01*
X197477783Y-72949924D01*
X197448232Y-72755455D01*
X197414118Y-72561734D01*
X197375462Y-72368869D01*
X197332283Y-72176965D01*
X197284606Y-71986129D01*
X197232457Y-71796466D01*
X197175866Y-71608081D01*
X197114863Y-71421078D01*
X197049481Y-71235560D01*
X196979758Y-71051631D01*
X196905731Y-70869390D01*
X196827442Y-70688940D01*
X196744934Y-70510379D01*
X196658252Y-70333807D01*
X196567444Y-70159321D01*
X196472561Y-69987017D01*
X196373654Y-69816991D01*
X196270779Y-69649336D01*
X196163992Y-69484145D01*
X196053353Y-69321509D01*
X195938921Y-69161519D01*
X195820762Y-69004262D01*
X195698939Y-68849825D01*
X195573520Y-68698294D01*
X195444575Y-68549753D01*
X195312174Y-68404283D01*
X195132637Y-68217334D01*
X194948540Y-68037244D01*
X194760019Y-67864074D01*
X194567212Y-67697882D01*
X194370256Y-67538729D01*
X194169287Y-67386674D01*
X193964444Y-67241776D01*
X193755863Y-67104096D01*
X193543682Y-66973692D01*
X193328038Y-66850625D01*
X193109067Y-66734953D01*
X192886907Y-66626736D01*
X192661696Y-66526035D01*
X192433570Y-66432908D01*
X192202667Y-66347415D01*
X191969124Y-66269616D01*
X191733077Y-66199571D01*
X191494665Y-66137338D01*
X191254024Y-66082977D01*
X191254024Y-61196454D01*
X191222501Y-61196454D01*
X191255810Y-60976797D01*
X191277192Y-60753451D01*
X191286660Y-60526585D01*
X191284226Y-60296371D01*
X191269905Y-60062981D01*
X191243708Y-59826586D01*
X191205650Y-59587355D01*
X191155742Y-59345462D01*
X191093999Y-59101076D01*
X191020434Y-58854370D01*
X190935058Y-58605513D01*
X190837886Y-58354678D01*
X190728931Y-58102035D01*
X190608205Y-57847755D01*
X190475722Y-57592010D01*
X190331495Y-57334971D01*
X190175537Y-57076809D01*
X190050049Y-56881350D01*
X189918742Y-56686720D01*
X189781716Y-56493011D01*
X189639071Y-56300318D01*
X189490906Y-56108735D01*
X189337322Y-55918355D01*
X189178419Y-55729272D01*
X189014297Y-55541580D01*
X188845056Y-55355372D01*
X188670795Y-55170743D01*
X188491616Y-54987786D01*
X188307617Y-54806595D01*
X188118899Y-54627264D01*
X187925562Y-54449886D01*
X187727706Y-54274556D01*
X187525431Y-54101367D01*
X187318837Y-53930413D01*
X187108024Y-53761788D01*
X186893092Y-53595586D01*
X186674140Y-53431900D01*
X186451270Y-53270824D01*
X186224581Y-53112452D01*
X185994172Y-52956878D01*
X185760145Y-52804195D01*
X185522598Y-52654498D01*
X185281633Y-52507880D01*
X185037348Y-52364435D01*
X184790857Y-52224809D01*
X184543293Y-52089616D01*
X184294786Y-51958895D01*
X184045466Y-51832689D01*
X183795463Y-51711039D01*
X183544909Y-51593986D01*
X183293932Y-51481572D01*
X183042665Y-51373837D01*
X182791236Y-51270823D01*
X182539777Y-51172572D01*
X182288418Y-51079124D01*
X182037289Y-50990522D01*
X181786520Y-50906806D01*
X181536241Y-50828019D01*
X181286584Y-50754200D01*
X181037679Y-50685392D01*
X180789655Y-50621636D01*
X180542643Y-50562973D01*
X180296774Y-50509444D01*
X180052177Y-50461092D01*
X179808984Y-50417956D01*
X179567324Y-50380080D01*
X179327329Y-50347503D01*
X179089127Y-50320268D01*
X178852850Y-50298415D01*
X178618628Y-50281986D01*
X178386591Y-50271022D01*
X178100250Y-50265338D01*
X197558548Y-50265338D01*
X197558548Y-74126413D01*
G37*
G36*
X178100250Y-50265338D02*
G01*
X178062428Y-50265338D01*
X178085993Y-50265055D01*
X178100250Y-50265338D01*
G37*
G36*
X175303792Y-124245621D02*
G01*
X178985913Y-124245621D01*
X178985913Y-124719661D01*
X174074582Y-124719661D01*
X174074583Y-117410540D01*
X175303792Y-117410540D01*
X175303792Y-124245621D01*
G37*
G36*
X166346533Y-117884591D02*
G01*
X163700703Y-117884591D01*
X163700703Y-124719661D01*
X162471493Y-124719661D01*
X162471493Y-117884591D01*
X159825653Y-117884591D01*
X159825653Y-117410540D01*
X166346533Y-117410540D01*
X166346533Y-117884591D01*
G37*
G36*
X165879964Y-132566994D02*
G01*
X165929465Y-132606857D01*
X165983830Y-132674554D01*
X166046322Y-132771883D01*
X166120206Y-132900645D01*
X166208745Y-133062638D01*
X166315202Y-133259661D01*
X166593953Y-133774411D01*
X166843572Y-133530661D01*
X166974462Y-133413040D01*
X167077659Y-133338988D01*
X167130822Y-133324541D01*
X167139489Y-133346291D01*
X167152742Y-133397401D01*
X167170089Y-133475291D01*
X167191038Y-133577379D01*
X167215100Y-133701084D01*
X167241782Y-133843826D01*
X167270592Y-134003024D01*
X167301040Y-134176096D01*
X167332634Y-134360462D01*
X167364882Y-134553541D01*
X167394157Y-134730975D01*
X167422815Y-134904425D01*
X167450496Y-135071720D01*
X167476839Y-135230692D01*
X167501483Y-135379172D01*
X167524067Y-135514990D01*
X167544232Y-135635979D01*
X167561615Y-135739968D01*
X167575857Y-135824789D01*
X167586596Y-135888273D01*
X167593472Y-135928251D01*
X167605070Y-136012393D01*
X167605454Y-136069038D01*
X167594496Y-136098051D01*
X167572063Y-136099299D01*
X167538026Y-136072652D01*
X167492254Y-136017975D01*
X167434616Y-135935136D01*
X167364982Y-135824002D01*
X167283221Y-135684441D01*
X167189202Y-135516321D01*
X167189203Y-135516321D01*
X166862313Y-134921061D01*
X166645512Y-135129531D01*
X166521138Y-135234339D01*
X166425553Y-135283959D01*
X166365713Y-135274781D01*
X166348062Y-135250966D01*
X166316810Y-135201938D01*
X166273280Y-135129998D01*
X166218793Y-135037447D01*
X166154671Y-134926589D01*
X166082237Y-134799725D01*
X166002812Y-134659157D01*
X165917718Y-134507188D01*
X165828278Y-134346118D01*
X165735812Y-134178251D01*
X165168912Y-133144911D01*
X165502332Y-132811581D01*
X165591188Y-132722221D01*
X165665325Y-132649900D01*
X165728007Y-132596418D01*
X165782499Y-132563574D01*
X165832063Y-132553166D01*
X165879964Y-132566994D01*
G37*
G36*
X173314308Y-131457303D02*
G01*
X173451236Y-131490013D01*
X173607098Y-131536337D01*
X173762349Y-131589574D01*
X173897442Y-131643020D01*
X173992832Y-131689973D01*
X174028972Y-131723730D01*
X174015979Y-131759006D01*
X173979347Y-131830722D01*
X173922596Y-131932707D01*
X173849248Y-132058793D01*
X173762823Y-132202810D01*
X173666842Y-132358590D01*
X173571850Y-132514025D01*
X173488221Y-132657066D01*
X173419207Y-132781637D01*
X173368060Y-132881658D01*
X173338031Y-132951052D01*
X173332372Y-132983741D01*
X173389027Y-133017040D01*
X173510981Y-133061335D01*
X173671822Y-133107021D01*
X173829552Y-133150915D01*
X173910754Y-133187952D01*
X173926940Y-133227135D01*
X173889622Y-133277470D01*
X173852397Y-133311373D01*
X173795266Y-133360017D01*
X173720306Y-133421810D01*
X173629594Y-133495160D01*
X173525208Y-133578476D01*
X173409225Y-133670166D01*
X173283722Y-133768638D01*
X173150777Y-133872301D01*
X173012466Y-133979564D01*
X172870866Y-134088833D01*
X172728056Y-134198518D01*
X172586112Y-134307027D01*
X172447112Y-134412768D01*
X172313132Y-134514150D01*
X172186250Y-134609580D01*
X172068543Y-134697468D01*
X171962088Y-134776221D01*
X171868963Y-134844248D01*
X171791245Y-134899958D01*
X171731010Y-134941757D01*
X171690337Y-134968055D01*
X171671302Y-134977260D01*
X171659427Y-134933899D01*
X171711902Y-134828250D01*
X171711872Y-134828251D01*
X171780288Y-134722058D01*
X171858852Y-134597298D01*
X171943476Y-134460769D01*
X172030075Y-134319266D01*
X172114563Y-134179585D01*
X172192852Y-134048525D01*
X172260857Y-133932881D01*
X172314491Y-133839449D01*
X172349669Y-133775027D01*
X172362302Y-133746411D01*
X172325391Y-133720508D01*
X172228621Y-133680920D01*
X172092942Y-133636230D01*
X171959917Y-133585508D01*
X171870102Y-133530130D01*
X171842942Y-133482080D01*
X171861215Y-133435604D01*
X171896965Y-133365346D01*
X171948167Y-133274310D01*
X172012795Y-133165503D01*
X172088824Y-133041931D01*
X172174228Y-132906600D01*
X172266981Y-132762516D01*
X172365057Y-132612685D01*
X172466431Y-132460112D01*
X172569076Y-132307804D01*
X172670968Y-132158766D01*
X172770079Y-132016004D01*
X172864386Y-131882525D01*
X172951860Y-131761334D01*
X173030478Y-131655437D01*
X173098213Y-131567841D01*
X173153039Y-131501550D01*
X173192931Y-131459571D01*
X173215862Y-131444910D01*
X173314308Y-131457303D01*
G37*
G36*
X169989801Y-117412242D02*
G01*
X170114540Y-117417346D01*
X170237509Y-117425853D01*
X170358709Y-117437762D01*
X170478139Y-117453074D01*
X170595799Y-117471789D01*
X170711690Y-117493907D01*
X170825811Y-117519427D01*
X170938163Y-117548351D01*
X171061498Y-117584868D01*
X171180699Y-117625519D01*
X171295765Y-117670305D01*
X171406698Y-117719225D01*
X171513495Y-117772280D01*
X171616159Y-117829469D01*
X171714688Y-117890793D01*
X171809083Y-117956250D01*
X171912802Y-118034432D01*
X172009771Y-118117788D01*
X172099991Y-118206319D01*
X172183461Y-118300025D01*
X172260181Y-118398906D01*
X172330152Y-118502961D01*
X172393373Y-118612191D01*
X172443758Y-118710462D01*
X172487426Y-118812351D01*
X172524376Y-118917857D01*
X172554608Y-119026981D01*
X172578121Y-119139722D01*
X172594916Y-119256081D01*
X172604993Y-119376057D01*
X172608353Y-119499651D01*
X172604078Y-119638803D01*
X172591253Y-119772782D01*
X172569878Y-119901586D01*
X172539954Y-120025216D01*
X172501480Y-120143672D01*
X172454456Y-120256953D01*
X172398883Y-120365061D01*
X172337799Y-120467991D01*
X172271091Y-120565746D01*
X172198758Y-120658328D01*
X172120801Y-120745735D01*
X172037219Y-120827968D01*
X171948013Y-120905026D01*
X171853183Y-120976911D01*
X171755201Y-121043730D01*
X171653396Y-121105600D01*
X171547765Y-121162521D01*
X171438309Y-121214493D01*
X171325028Y-121261515D01*
X171207923Y-121303587D01*
X171086993Y-121340711D01*
X170963812Y-121371422D01*
X170839957Y-121397409D01*
X170715428Y-121418671D01*
X170590224Y-121435208D01*
X170464345Y-121447021D01*
X170337791Y-121454108D01*
X170210563Y-121456470D01*
X170113064Y-121456095D01*
X170013500Y-121454970D01*
X169911869Y-121453095D01*
X169808173Y-121450470D01*
X169708952Y-121444873D01*
X169704476Y-121444620D01*
X169602845Y-121438070D01*
X169503281Y-121430820D01*
X169405783Y-121422870D01*
X169280230Y-121411248D01*
X169160800Y-121398382D01*
X169047493Y-121384270D01*
X168943989Y-121369593D01*
X168853959Y-121354893D01*
X168777403Y-121340170D01*
X168777403Y-124719120D01*
X167548183Y-124719120D01*
X167548183Y-117950740D01*
X168777383Y-117950740D01*
X168777403Y-120927301D01*
X168883855Y-120961767D01*
X168993753Y-120993468D01*
X169107095Y-121022402D01*
X169223882Y-121048570D01*
X169343082Y-121067864D01*
X169463660Y-121081645D01*
X169585617Y-121089914D01*
X169708952Y-121092670D01*
X169838489Y-121089455D01*
X169962514Y-121079809D01*
X170081025Y-121063733D01*
X170194024Y-121041226D01*
X170301509Y-121012289D01*
X170403483Y-120976920D01*
X170518578Y-120925105D01*
X170625735Y-120866676D01*
X170724955Y-120801632D01*
X170816238Y-120729973D01*
X170899582Y-120651700D01*
X170974766Y-120565270D01*
X171041571Y-120473548D01*
X171099999Y-120376534D01*
X171150050Y-120274228D01*
X171191722Y-120166630D01*
X171227434Y-120052860D01*
X171255210Y-119936443D01*
X171275050Y-119817381D01*
X171286954Y-119695674D01*
X171290922Y-119571320D01*
X171287401Y-119450205D01*
X171276836Y-119333070D01*
X171259227Y-119219918D01*
X171234576Y-119110747D01*
X171202881Y-119005558D01*
X171164142Y-118904350D01*
X171109462Y-118788814D01*
X171046843Y-118680334D01*
X170976287Y-118578910D01*
X170897794Y-118484542D01*
X170811363Y-118397230D01*
X170719863Y-118315208D01*
X170621748Y-118241123D01*
X170517018Y-118174977D01*
X170405673Y-118116770D01*
X170287712Y-118066500D01*
X170166885Y-118024827D01*
X170042530Y-117992414D01*
X169914648Y-117969262D01*
X169783239Y-117955371D01*
X169648303Y-117950740D01*
X168777383Y-117950740D01*
X167548183Y-117950740D01*
X167548183Y-117410540D01*
X169863293Y-117410540D01*
X169989801Y-117412242D01*
G37*
G36*
X169139393Y-139618673D02*
G01*
X169155443Y-139667300D01*
X169174177Y-139742742D01*
X169195143Y-139842462D01*
X169217885Y-139963922D01*
X169241950Y-140104583D01*
X169266885Y-140261907D01*
X169292234Y-140433357D01*
X169317545Y-140616394D01*
X169342362Y-140808480D01*
X169366612Y-141000594D01*
X169390280Y-141183714D01*
X169413002Y-141355298D01*
X169434416Y-141512802D01*
X169454160Y-141653682D01*
X169471870Y-141775394D01*
X169487185Y-141875396D01*
X169499740Y-141951144D01*
X169509173Y-142000093D01*
X169515122Y-142019700D01*
X169557073Y-142016163D01*
X169653014Y-141988252D01*
X169788676Y-141940617D01*
X169949792Y-141877910D01*
X170154659Y-141798365D01*
X170312750Y-141746006D01*
X170428315Y-141720272D01*
X170505601Y-141720602D01*
X170548858Y-141746435D01*
X170562332Y-141797210D01*
X170563505Y-141817863D01*
X170566926Y-141858666D01*
X170572450Y-141918280D01*
X170579933Y-141995365D01*
X170589230Y-142088580D01*
X170600196Y-142196585D01*
X170612686Y-142318041D01*
X170626556Y-142451606D01*
X170641660Y-142595940D01*
X170657853Y-142749705D01*
X170674992Y-142911559D01*
X170692931Y-143080162D01*
X170711524Y-143254173D01*
X170730629Y-143432254D01*
X170750098Y-143613064D01*
X170769789Y-143795262D01*
X170789555Y-143977508D01*
X170809252Y-144158463D01*
X170828736Y-144336785D01*
X170847861Y-144511136D01*
X170866482Y-144680174D01*
X170884455Y-144842560D01*
X170901635Y-144996953D01*
X170917877Y-145142013D01*
X170933037Y-145276400D01*
X170946968Y-145398774D01*
X170959527Y-145507795D01*
X170970569Y-145602122D01*
X170979949Y-145680415D01*
X170987522Y-145741335D01*
X170993142Y-145783540D01*
X171027042Y-146022430D01*
X170344692Y-146300920D01*
X170185864Y-146364557D01*
X170034281Y-146423043D01*
X169894783Y-146474678D01*
X169772207Y-146517762D01*
X169671393Y-146550595D01*
X169597179Y-146571474D01*
X169554402Y-146578700D01*
X169515280Y-146567374D01*
X169482342Y-146529876D01*
X169453681Y-146460030D01*
X169427389Y-146351662D01*
X169401559Y-146198594D01*
X169374282Y-145994651D01*
X169374272Y-145994671D01*
X169361550Y-145891387D01*
X169347415Y-145775814D01*
X169332188Y-145650611D01*
X169316189Y-145518439D01*
X169299738Y-145381957D01*
X169283154Y-145243825D01*
X169266759Y-145106703D01*
X169250872Y-144973252D01*
X169235813Y-144846131D01*
X169221902Y-144728000D01*
X169198878Y-144546887D01*
X169174746Y-144383805D01*
X169150765Y-144245399D01*
X169128196Y-144138312D01*
X169108298Y-144069188D01*
X169092332Y-144044670D01*
X169052690Y-144054910D01*
X168972215Y-144083390D01*
X168859626Y-144126750D01*
X168723639Y-144181630D01*
X168572972Y-144244670D01*
X168370554Y-144329294D01*
X168217755Y-144388602D01*
X168107842Y-144423683D01*
X168034079Y-144435630D01*
X167989729Y-144425533D01*
X167968059Y-144394483D01*
X167962332Y-144343570D01*
X167965536Y-144315078D01*
X167974836Y-144261349D01*
X167989769Y-144184512D01*
X168009871Y-144086698D01*
X168034678Y-143970037D01*
X168063727Y-143836659D01*
X168096553Y-143688694D01*
X168132692Y-143528273D01*
X168171681Y-143357525D01*
X168213056Y-143178581D01*
X168256352Y-142993570D01*
X168282562Y-142882219D01*
X168310016Y-142765550D01*
X168338546Y-142644278D01*
X168367985Y-142519116D01*
X168398165Y-142390781D01*
X168428917Y-142259984D01*
X168460075Y-142127442D01*
X168491470Y-141993868D01*
X168522934Y-141859976D01*
X168554300Y-141726481D01*
X168585400Y-141594097D01*
X168616065Y-141463538D01*
X168646129Y-141335518D01*
X168675423Y-141210753D01*
X168703779Y-141089955D01*
X168731030Y-140973840D01*
X168757008Y-140863121D01*
X168781545Y-140758513D01*
X168804472Y-140660730D01*
X168851640Y-140464500D01*
X168897969Y-140281225D01*
X168942599Y-140113744D01*
X168984668Y-139964894D01*
X169023316Y-139837511D01*
X169057683Y-139734433D01*
X169086907Y-139658498D01*
X169110127Y-139612541D01*
X169126482Y-139599400D01*
X169139393Y-139618673D01*
G37*
G36*
X186746900Y-133154518D02*
G01*
X186812032Y-133183080D01*
X186867242Y-133225940D01*
X186924186Y-133291381D01*
X186982828Y-133379350D01*
X187043134Y-133489793D01*
X187105069Y-133622655D01*
X187168599Y-133777880D01*
X187243055Y-133977710D01*
X187298234Y-134143715D01*
X187334885Y-134280321D01*
X187353759Y-134391952D01*
X187355607Y-134483033D01*
X187341179Y-134557987D01*
X187311226Y-134621240D01*
X187303548Y-134630376D01*
X187291028Y-134641114D01*
X187273452Y-134653541D01*
X187250607Y-134667745D01*
X187222279Y-134683812D01*
X187188256Y-134701830D01*
X187148323Y-134721885D01*
X187102269Y-134744065D01*
X187049879Y-134768457D01*
X186990939Y-134795148D01*
X186925238Y-134824225D01*
X186852562Y-134855775D01*
X186772696Y-134889886D01*
X186685429Y-134926643D01*
X186590546Y-134966136D01*
X186487835Y-135008450D01*
X186377082Y-135053672D01*
X186258074Y-135101890D01*
X186130597Y-135153191D01*
X185994439Y-135207662D01*
X185849386Y-135265390D01*
X185695225Y-135326463D01*
X185531742Y-135390966D01*
X185358724Y-135458988D01*
X185175958Y-135530615D01*
X184983231Y-135605935D01*
X184780329Y-135685034D01*
X184567040Y-135768001D01*
X184343149Y-135854920D01*
X184108443Y-135945881D01*
X183862710Y-136040970D01*
X183605736Y-136140274D01*
X183337308Y-136243880D01*
X183152377Y-136315284D01*
X182970615Y-136385592D01*
X182792649Y-136454556D01*
X182619102Y-136521931D01*
X182450602Y-136587470D01*
X182287773Y-136650925D01*
X182131241Y-136712049D01*
X181981632Y-136770597D01*
X181839570Y-136826321D01*
X181705683Y-136878974D01*
X181580595Y-136928310D01*
X181464932Y-136974081D01*
X181359319Y-137016042D01*
X181264383Y-137053944D01*
X181180748Y-137087542D01*
X181109040Y-137116588D01*
X181049885Y-137140836D01*
X181003909Y-137160038D01*
X180971736Y-137173949D01*
X180953993Y-137182320D01*
X180890654Y-137238206D01*
X180845898Y-137320098D01*
X180828933Y-137411250D01*
X180813272Y-137502636D01*
X180770261Y-137579054D01*
X180705856Y-137639003D01*
X180626012Y-137680984D01*
X180536684Y-137703497D01*
X180443829Y-137705041D01*
X180353401Y-137684116D01*
X180271357Y-137639223D01*
X180203653Y-137568860D01*
X180134589Y-137496367D01*
X180057403Y-137459310D01*
X179983503Y-137235550D01*
X179978396Y-137174852D01*
X179956805Y-137078618D01*
X179920664Y-136954027D01*
X179871905Y-136808261D01*
X179812463Y-136648500D01*
X179664663Y-136270750D01*
X179495683Y-135744170D01*
X179510057Y-135650821D01*
X179547742Y-135556896D01*
X179600583Y-135482680D01*
X179684172Y-135425243D01*
X179787578Y-135391398D01*
X179898405Y-135381030D01*
X180004257Y-135394030D01*
X180092738Y-135430284D01*
X180151453Y-135489680D01*
X180166668Y-135509910D01*
X180188382Y-135524088D01*
X180219329Y-135531403D01*
X180262244Y-135531042D01*
X180319861Y-135522193D01*
X180394914Y-135504043D01*
X180490138Y-135475781D01*
X180608266Y-135436594D01*
X180752034Y-135385670D01*
X180924175Y-135322197D01*
X181127424Y-135245363D01*
X181364515Y-135154355D01*
X181638183Y-135048360D01*
X181757984Y-135001841D01*
X181881984Y-134953716D01*
X182009536Y-134904234D01*
X182139995Y-134853644D01*
X182272715Y-134802195D01*
X182407051Y-134750138D01*
X182542358Y-134697721D01*
X182677989Y-134645194D01*
X182813299Y-134592806D01*
X182947643Y-134540805D01*
X183080375Y-134489443D01*
X183210850Y-134438967D01*
X183338422Y-134389627D01*
X183462445Y-134341673D01*
X183582275Y-134295353D01*
X183697264Y-134250917D01*
X183806769Y-134208615D01*
X183910143Y-134168695D01*
X184006741Y-134131407D01*
X184095918Y-134097000D01*
X184250254Y-134037387D01*
X184401970Y-133978630D01*
X184549123Y-133921494D01*
X184689770Y-133866741D01*
X184821968Y-133815135D01*
X184943774Y-133767439D01*
X185053244Y-133724418D01*
X185148437Y-133686834D01*
X185227409Y-133655450D01*
X185288216Y-133631032D01*
X185328918Y-133614340D01*
X185546883Y-133523404D01*
X185740389Y-133443623D01*
X185911178Y-133374489D01*
X186060994Y-133315492D01*
X186191579Y-133266123D01*
X186304678Y-133225872D01*
X186402034Y-133194231D01*
X186485389Y-133170689D01*
X186556487Y-133154738D01*
X186617072Y-133145868D01*
X186668888Y-133143571D01*
X186668888Y-133143280D01*
X186746900Y-133154518D01*
G37*
G36*
X177195533Y-108577214D02*
G01*
X177335156Y-108577970D01*
X177473991Y-108580240D01*
X177612036Y-108584021D01*
X177749289Y-108589314D01*
X177885749Y-108596119D01*
X178021414Y-108604434D01*
X178156282Y-108614258D01*
X178290353Y-108625592D01*
X178423623Y-108638435D01*
X178556093Y-108652785D01*
X178687760Y-108668643D01*
X178818622Y-108686008D01*
X178948678Y-108704880D01*
X179077927Y-108725257D01*
X179206366Y-108747139D01*
X179333994Y-108770525D01*
X179460810Y-108795416D01*
X179586813Y-108821810D01*
X179711999Y-108849706D01*
X179836368Y-108879105D01*
X179959918Y-108910005D01*
X180082648Y-108942406D01*
X180204556Y-108976308D01*
X180325641Y-109011709D01*
X180445900Y-109048610D01*
X180565332Y-109087009D01*
X180683936Y-109126906D01*
X180801710Y-109168301D01*
X180918653Y-109211192D01*
X181034762Y-109255580D01*
X181150036Y-109301463D01*
X181264475Y-109348841D01*
X181378075Y-109397714D01*
X181490835Y-109448080D01*
X181602755Y-109499940D01*
X181713831Y-109553292D01*
X181824064Y-109608137D01*
X181933450Y-109664473D01*
X182041989Y-109722300D01*
X182149679Y-109781617D01*
X182256518Y-109842424D01*
X182362504Y-109904720D01*
X182467637Y-109968504D01*
X182571914Y-110033776D01*
X182675335Y-110100536D01*
X182777896Y-110168782D01*
X182879597Y-110238515D01*
X182980436Y-110309733D01*
X183080412Y-110382436D01*
X183179523Y-110456623D01*
X183277766Y-110532294D01*
X183375142Y-110609449D01*
X183471648Y-110688085D01*
X183567282Y-110768204D01*
X183662043Y-110849804D01*
X183755930Y-110932886D01*
X183848940Y-111017447D01*
X183941073Y-111103488D01*
X184032326Y-111191008D01*
X184157215Y-111312800D01*
X184271014Y-111424792D01*
X184374930Y-111528383D01*
X184470177Y-111624971D01*
X184557963Y-111715956D01*
X184639499Y-111802736D01*
X184715997Y-111886710D01*
X184788666Y-111969276D01*
X184858717Y-112051834D01*
X184927361Y-112135781D01*
X184995808Y-112222517D01*
X185065269Y-112313441D01*
X185136955Y-112409951D01*
X185212075Y-112513445D01*
X185291841Y-112625324D01*
X185377464Y-112746985D01*
X185447576Y-112848893D01*
X185516469Y-112952618D01*
X185584124Y-113058099D01*
X185650525Y-113165275D01*
X185715654Y-113274083D01*
X185779494Y-113384462D01*
X185842027Y-113496352D01*
X185903237Y-113609690D01*
X185963106Y-113724414D01*
X186021618Y-113840464D01*
X186078753Y-113957779D01*
X186134497Y-114076295D01*
X186188831Y-114195953D01*
X186241738Y-114316690D01*
X186293200Y-114438446D01*
X186343201Y-114561158D01*
X186391724Y-114684766D01*
X186438751Y-114809207D01*
X186484264Y-114934420D01*
X186528247Y-115060345D01*
X186570683Y-115186918D01*
X186611554Y-115314080D01*
X186650842Y-115441768D01*
X186688531Y-115569921D01*
X186724604Y-115698477D01*
X186759043Y-115827375D01*
X186791831Y-115956554D01*
X186822950Y-116085953D01*
X186852385Y-116215508D01*
X186880116Y-116345160D01*
X186906127Y-116474847D01*
X186930401Y-116604507D01*
X186952921Y-116734078D01*
X186973669Y-116863500D01*
X186992628Y-116992711D01*
X187009781Y-117121649D01*
X187025111Y-117250253D01*
X187038599Y-117378462D01*
X187050230Y-117506213D01*
X187059986Y-117633446D01*
X187067850Y-117760099D01*
X187073804Y-117886111D01*
X187077831Y-118011420D01*
X187079914Y-118135964D01*
X187080035Y-118259683D01*
X187078179Y-118382515D01*
X187074326Y-118504397D01*
X187068460Y-118625270D01*
X187060565Y-118745071D01*
X187050801Y-118866271D01*
X187039590Y-118988196D01*
X187026947Y-119110810D01*
X187012888Y-119234075D01*
X186997426Y-119357956D01*
X186980576Y-119482415D01*
X186962353Y-119607417D01*
X186942772Y-119732924D01*
X186921847Y-119858902D01*
X186899593Y-119985312D01*
X186876026Y-120112119D01*
X186851159Y-120239286D01*
X186825008Y-120366777D01*
X186797587Y-120494554D01*
X186768911Y-120622583D01*
X186738994Y-120750826D01*
X186707852Y-120879247D01*
X186675499Y-121007809D01*
X186641950Y-121136477D01*
X186607219Y-121265212D01*
X186571322Y-121393980D01*
X186534273Y-121522744D01*
X186496087Y-121651466D01*
X186456778Y-121780112D01*
X186416362Y-121908643D01*
X186374852Y-122037025D01*
X186332265Y-122165219D01*
X186288614Y-122293191D01*
X186243914Y-122420903D01*
X186198180Y-122548319D01*
X186151427Y-122675403D01*
X186103670Y-122802117D01*
X186054922Y-122928426D01*
X186005200Y-123054294D01*
X185954517Y-123179683D01*
X185902889Y-123304557D01*
X185850330Y-123428881D01*
X185796855Y-123552616D01*
X185742478Y-123675728D01*
X185687215Y-123798179D01*
X185631080Y-123919932D01*
X185574088Y-124040953D01*
X185516254Y-124161204D01*
X185457591Y-124280648D01*
X185398116Y-124399249D01*
X185337843Y-124516971D01*
X185276786Y-124633778D01*
X185214961Y-124749632D01*
X185152381Y-124864497D01*
X185089063Y-124978338D01*
X185025020Y-125091117D01*
X184960267Y-125202798D01*
X184894819Y-125313345D01*
X184828691Y-125422720D01*
X184761897Y-125530889D01*
X184694453Y-125637813D01*
X184626372Y-125743457D01*
X184557670Y-125847785D01*
X184488362Y-125950759D01*
X184418462Y-126052344D01*
X184347984Y-126152503D01*
X184276945Y-126251199D01*
X184205357Y-126348397D01*
X184133237Y-126444058D01*
X184060599Y-126538148D01*
X183987457Y-126630630D01*
X183913826Y-126721467D01*
X183839722Y-126810623D01*
X183765159Y-126898061D01*
X183345030Y-127384851D01*
X183487140Y-127535741D01*
X183559703Y-127637420D01*
X183607092Y-127754569D01*
X183627294Y-127875139D01*
X183618297Y-127987083D01*
X183578090Y-128078351D01*
X183552870Y-128107605D01*
X183509899Y-128151318D01*
X183450425Y-128208376D01*
X183375699Y-128277665D01*
X183286972Y-128358071D01*
X183185494Y-128448482D01*
X183072515Y-128547783D01*
X182949287Y-128654860D01*
X182817060Y-128768602D01*
X182677083Y-128887893D01*
X182530609Y-129011621D01*
X182432878Y-129094152D01*
X182329241Y-129182259D01*
X182223769Y-129272435D01*
X182120537Y-129361173D01*
X182023617Y-129444964D01*
X181937085Y-129520303D01*
X181865013Y-129583681D01*
X181823523Y-129620206D01*
X181768232Y-129668529D01*
X181700351Y-129727604D01*
X181621093Y-129796381D01*
X181531670Y-129873815D01*
X181433295Y-129958858D01*
X181327179Y-130050462D01*
X181214536Y-130147580D01*
X181096578Y-130249165D01*
X180974517Y-130354168D01*
X180849566Y-130461544D01*
X180722937Y-130570244D01*
X180595843Y-130679221D01*
X180447778Y-130806189D01*
X180304714Y-130929032D01*
X180168348Y-131046287D01*
X180040374Y-131156488D01*
X179922489Y-131258169D01*
X179816389Y-131349868D01*
X179723768Y-131430117D01*
X179646323Y-131497453D01*
X179585750Y-131550410D01*
X179543745Y-131587524D01*
X179522003Y-131607331D01*
X179484192Y-131641698D01*
X179415043Y-131702346D01*
X179320233Y-131784396D01*
X179205435Y-131882965D01*
X179076327Y-131993173D01*
X178938583Y-132110141D01*
X178765635Y-132258526D01*
X178636563Y-132375554D01*
X178545074Y-132469498D01*
X178484873Y-132548629D01*
X178449665Y-132621220D01*
X178433157Y-132695543D01*
X178429053Y-132779871D01*
X178418064Y-132910872D01*
X178389275Y-133025239D01*
X178348953Y-133098201D01*
X178251746Y-133155680D01*
X178129724Y-133175296D01*
X178007890Y-133156864D01*
X177911253Y-133100201D01*
X176700473Y-131750411D01*
X176662673Y-131675697D01*
X176641339Y-131573624D01*
X176641073Y-131466191D01*
X176674646Y-131356883D01*
X176742143Y-131264161D01*
X176833629Y-131193728D01*
X176939169Y-131151287D01*
X177048828Y-131142540D01*
X177152673Y-131173191D01*
X177165951Y-131178088D01*
X177181968Y-131179617D01*
X177201203Y-131177396D01*
X177224132Y-131171045D01*
X177251235Y-131160182D01*
X177282988Y-131144428D01*
X177319869Y-131123402D01*
X177362357Y-131096722D01*
X177410929Y-131064009D01*
X177466063Y-131024882D01*
X177528236Y-130978960D01*
X177597927Y-130925862D01*
X177675614Y-130865209D01*
X177761774Y-130796618D01*
X177856885Y-130719710D01*
X177961425Y-130634104D01*
X178075872Y-130539419D01*
X178200703Y-130435275D01*
X178336397Y-130321291D01*
X178483430Y-130197086D01*
X178642282Y-130062280D01*
X178813430Y-129916492D01*
X178997352Y-129759341D01*
X179194525Y-129590447D01*
X179405428Y-129409430D01*
X179630538Y-129215908D01*
X179870332Y-129009501D01*
X180120640Y-128794010D01*
X180355689Y-128591880D01*
X180576003Y-128402739D01*
X180782109Y-128226218D01*
X180974531Y-128061946D01*
X181153794Y-127909554D01*
X181320425Y-127768672D01*
X181474948Y-127638929D01*
X181617888Y-127519956D01*
X181749772Y-127411382D01*
X181871124Y-127312838D01*
X181982469Y-127223954D01*
X182084334Y-127144359D01*
X182177242Y-127073684D01*
X182261720Y-127011558D01*
X182338293Y-126957612D01*
X182407486Y-126911475D01*
X182469825Y-126872778D01*
X182525834Y-126841150D01*
X182576039Y-126816222D01*
X182620966Y-126797624D01*
X182661139Y-126784985D01*
X182697084Y-126777935D01*
X182729327Y-126776105D01*
X182758392Y-126779125D01*
X182784805Y-126786623D01*
X182809091Y-126798232D01*
X182831776Y-126813580D01*
X182853385Y-126832297D01*
X182874442Y-126854014D01*
X182895475Y-126878361D01*
X182970901Y-126948836D01*
X183035518Y-126978061D01*
X183055046Y-126968103D01*
X183086323Y-126939242D01*
X183128300Y-126892989D01*
X183179932Y-126830861D01*
X183240170Y-126754369D01*
X183307968Y-126665030D01*
X183382277Y-126564355D01*
X183462052Y-126453861D01*
X183546243Y-126335061D01*
X183633805Y-126209468D01*
X183723689Y-126078597D01*
X183814849Y-125943963D01*
X183906237Y-125807078D01*
X183996806Y-125669458D01*
X184085509Y-125532616D01*
X184171297Y-125398066D01*
X184253125Y-125267322D01*
X184329945Y-125141899D01*
X184400709Y-125023310D01*
X184464371Y-124913071D01*
X184521267Y-124811273D01*
X184577882Y-124707408D01*
X184634185Y-124601557D01*
X184690145Y-124493799D01*
X184745732Y-124384215D01*
X184800916Y-124272884D01*
X184855666Y-124159888D01*
X184909950Y-124045305D01*
X184963739Y-123929217D01*
X185017002Y-123811704D01*
X185069708Y-123692845D01*
X185121827Y-123572721D01*
X185173327Y-123451412D01*
X185224179Y-123328998D01*
X185274352Y-123205560D01*
X185323816Y-123081177D01*
X185372538Y-122955930D01*
X185420490Y-122829900D01*
X185467640Y-122703165D01*
X185513958Y-122575806D01*
X185559413Y-122447904D01*
X185603975Y-122319539D01*
X185647612Y-122190791D01*
X185690295Y-122061739D01*
X185731993Y-121932465D01*
X185772675Y-121803048D01*
X185812310Y-121673569D01*
X185850868Y-121544108D01*
X185888318Y-121414744D01*
X185924630Y-121285559D01*
X185959773Y-121156632D01*
X185993717Y-121028043D01*
X186026430Y-120899873D01*
X186057883Y-120772202D01*
X186088045Y-120645111D01*
X186116602Y-120518685D01*
X186143457Y-120392144D01*
X186168617Y-120265503D01*
X186192085Y-120138779D01*
X186213867Y-120011989D01*
X186233967Y-119885146D01*
X186252391Y-119758269D01*
X186269144Y-119631372D01*
X186284231Y-119504472D01*
X186297656Y-119377584D01*
X186309425Y-119250726D01*
X186319543Y-119123912D01*
X186328015Y-118997158D01*
X186334846Y-118870481D01*
X186340041Y-118743897D01*
X186343604Y-118617422D01*
X186345542Y-118491071D01*
X186345858Y-118364861D01*
X186344559Y-118238808D01*
X186341649Y-118112927D01*
X186337132Y-117987235D01*
X186331015Y-117861747D01*
X186323302Y-117736481D01*
X186313998Y-117611450D01*
X186303108Y-117486673D01*
X186290638Y-117362164D01*
X186276591Y-117237939D01*
X186260974Y-117114015D01*
X186243791Y-116990408D01*
X186225048Y-116867134D01*
X186204748Y-116744207D01*
X186182898Y-116621646D01*
X186159503Y-116499465D01*
X186134566Y-116377681D01*
X186108095Y-116256309D01*
X186080092Y-116135366D01*
X186050564Y-116014867D01*
X186019516Y-115894829D01*
X185986952Y-115775268D01*
X185952878Y-115656199D01*
X185917298Y-115537638D01*
X185880218Y-115419602D01*
X185841642Y-115302107D01*
X185801576Y-115185168D01*
X185760025Y-115068802D01*
X185716993Y-114953024D01*
X185672486Y-114837851D01*
X185626509Y-114723298D01*
X185579067Y-114609382D01*
X185530164Y-114496118D01*
X185479806Y-114383523D01*
X185427998Y-114271612D01*
X185374745Y-114160401D01*
X185320052Y-114049907D01*
X185263923Y-113940146D01*
X185206365Y-113831133D01*
X185147382Y-113722885D01*
X185086978Y-113615417D01*
X185025160Y-113508745D01*
X184961931Y-113402886D01*
X184897298Y-113297855D01*
X184831265Y-113193669D01*
X184763837Y-113090343D01*
X184695019Y-112987893D01*
X184624816Y-112886336D01*
X184553233Y-112785688D01*
X184480276Y-112685964D01*
X184405948Y-112587180D01*
X184330257Y-112489352D01*
X184253205Y-112392497D01*
X184174798Y-112296631D01*
X184095042Y-112201768D01*
X184013942Y-112107927D01*
X183931502Y-112015121D01*
X183847727Y-111923368D01*
X183762622Y-111832683D01*
X183676193Y-111743083D01*
X183588445Y-111654583D01*
X183499382Y-111567199D01*
X183409009Y-111480948D01*
X183317332Y-111395845D01*
X183224356Y-111311906D01*
X183130086Y-111229148D01*
X183032199Y-111145485D01*
X182933595Y-111063338D01*
X182834281Y-110982709D01*
X182734265Y-110903600D01*
X182633555Y-110826010D01*
X182532159Y-110749942D01*
X182430083Y-110675398D01*
X182327336Y-110602377D01*
X182223924Y-110530883D01*
X182119857Y-110460915D01*
X182015141Y-110392476D01*
X181909783Y-110325566D01*
X181803793Y-110260187D01*
X181697176Y-110196341D01*
X181589941Y-110134029D01*
X181482096Y-110073251D01*
X181373648Y-110014010D01*
X181264604Y-109956306D01*
X181154972Y-109900142D01*
X181044761Y-109845518D01*
X180933977Y-109792436D01*
X180822627Y-109740896D01*
X180710721Y-109690902D01*
X180598265Y-109642452D01*
X180485267Y-109595550D01*
X180371734Y-109550196D01*
X180257674Y-109506392D01*
X180143095Y-109464139D01*
X180028005Y-109423439D01*
X179912410Y-109384292D01*
X179796320Y-109346700D01*
X179679740Y-109310665D01*
X179562679Y-109276187D01*
X179445144Y-109243268D01*
X179327144Y-109211910D01*
X179208685Y-109182113D01*
X179089776Y-109153880D01*
X178970423Y-109127211D01*
X178850635Y-109102107D01*
X178730419Y-109078571D01*
X178609783Y-109056603D01*
X178488734Y-109036205D01*
X178367280Y-109017378D01*
X178245429Y-109000124D01*
X178123187Y-108984443D01*
X178000564Y-108970337D01*
X177877566Y-108957807D01*
X177754201Y-108946856D01*
X177630476Y-108937483D01*
X177506400Y-108929691D01*
X177381980Y-108923481D01*
X177257223Y-108918853D01*
X177132137Y-108915811D01*
X177006730Y-108914353D01*
X176881009Y-108914483D01*
X176754983Y-108916202D01*
X176628657Y-108919510D01*
X176502041Y-108924409D01*
X176375142Y-108930901D01*
X176247967Y-108938987D01*
X176120524Y-108948667D01*
X175992820Y-108959944D01*
X175864864Y-108972819D01*
X175736663Y-108987293D01*
X175608224Y-109003367D01*
X175479555Y-109021043D01*
X175350664Y-109040323D01*
X175221558Y-109061206D01*
X175092245Y-109083696D01*
X174962732Y-109107792D01*
X174833028Y-109133497D01*
X174703139Y-109160812D01*
X174573074Y-109189738D01*
X174442839Y-109220277D01*
X174312444Y-109252429D01*
X174181894Y-109286196D01*
X174051198Y-109321580D01*
X173920364Y-109358581D01*
X173789398Y-109397202D01*
X173658310Y-109437443D01*
X173527105Y-109479306D01*
X173395793Y-109522793D01*
X173305076Y-109554263D01*
X173209584Y-109589068D01*
X173109662Y-109627037D01*
X173005658Y-109668000D01*
X172897918Y-109711784D01*
X172786788Y-109758221D01*
X172672617Y-109807138D01*
X172555749Y-109858366D01*
X172436532Y-109911733D01*
X172315313Y-109967069D01*
X172192438Y-110024203D01*
X172068254Y-110082964D01*
X171943107Y-110143181D01*
X171817345Y-110204685D01*
X171691314Y-110267303D01*
X171565360Y-110330866D01*
X171439831Y-110395202D01*
X171315073Y-110460141D01*
X171191433Y-110525512D01*
X171069257Y-110591145D01*
X170948892Y-110656868D01*
X170830685Y-110722511D01*
X170714983Y-110787903D01*
X170602132Y-110852874D01*
X170492478Y-110917252D01*
X170386370Y-110980867D01*
X170284152Y-111043548D01*
X170186173Y-111105125D01*
X170023687Y-111207056D01*
X169876619Y-111296050D01*
X169744463Y-111372358D01*
X169626714Y-111436234D01*
X169522865Y-111487930D01*
X169432412Y-111527699D01*
X169354847Y-111555792D01*
X169289666Y-111572463D01*
X169236363Y-111577964D01*
X169087299Y-111554697D01*
X169029653Y-111494763D01*
X169037879Y-111472774D01*
X169061720Y-111442621D01*
X169100231Y-111404896D01*
X169152467Y-111360189D01*
X169217482Y-111309091D01*
X169294333Y-111252194D01*
X169382074Y-111190088D01*
X169479759Y-111123365D01*
X169586444Y-111052616D01*
X169701183Y-110978431D01*
X169823033Y-110901403D01*
X169951046Y-110822121D01*
X170084280Y-110741177D01*
X170221788Y-110659163D01*
X170362626Y-110576668D01*
X170505848Y-110494285D01*
X170650509Y-110412604D01*
X170795665Y-110332217D01*
X170940370Y-110253714D01*
X171083680Y-110177686D01*
X171224649Y-110104725D01*
X171362333Y-110035421D01*
X171493787Y-109970840D01*
X171624380Y-109907853D01*
X171754146Y-109846451D01*
X171883122Y-109786626D01*
X172011345Y-109728368D01*
X172138850Y-109671668D01*
X172265674Y-109616517D01*
X172391853Y-109562906D01*
X172517422Y-109510827D01*
X172642420Y-109460269D01*
X172766880Y-109411225D01*
X172890841Y-109363685D01*
X173014337Y-109317639D01*
X173137405Y-109273080D01*
X173260082Y-109229997D01*
X173382403Y-109188383D01*
X173504405Y-109148227D01*
X173626124Y-109109521D01*
X173747596Y-109072256D01*
X173868858Y-109036422D01*
X173989945Y-109002012D01*
X174110893Y-108969015D01*
X174231740Y-108937422D01*
X174352521Y-108907226D01*
X174473272Y-108878415D01*
X174594029Y-108850983D01*
X174714830Y-108824919D01*
X174835709Y-108800214D01*
X174956703Y-108776860D01*
X175077849Y-108754847D01*
X175199182Y-108734167D01*
X175320739Y-108714810D01*
X175442556Y-108696767D01*
X175564670Y-108680029D01*
X175687115Y-108664588D01*
X175809929Y-108650434D01*
X175933148Y-108637558D01*
X176056808Y-108625952D01*
X176180945Y-108615605D01*
X176305595Y-108606510D01*
X176430795Y-108598656D01*
X176556581Y-108592036D01*
X176682988Y-108586639D01*
X176810054Y-108582458D01*
X176937814Y-108579482D01*
X177066305Y-108577703D01*
X177195563Y-108577113D01*
X177195533Y-108577214D01*
G37*
G36*
X115630000Y-58366662D02*
G01*
X115816935Y-58423424D01*
X115989204Y-58515563D01*
X116140189Y-58639540D01*
X116264087Y-58790589D01*
X116356137Y-58962906D01*
X116412803Y-59149870D01*
X116431905Y-59344296D01*
X116412803Y-59538723D01*
X116356137Y-59725687D01*
X116264087Y-59898004D01*
X116140189Y-60049053D01*
X115989204Y-60173029D01*
X115816935Y-60265169D01*
X115630000Y-60321931D01*
X115435584Y-60341135D01*
X115241094Y-60322019D01*
X115054074Y-60265317D01*
X114881715Y-60173209D01*
X114730645Y-60049236D01*
X114606672Y-59898165D01*
X114514563Y-59725806D01*
X114457861Y-59538786D01*
X114438746Y-59344296D01*
X114457861Y-59149807D01*
X114514563Y-58962787D01*
X114606672Y-58790428D01*
X114730645Y-58639357D01*
X114881715Y-58515384D01*
X115054074Y-58423275D01*
X115241094Y-58366573D01*
X115435584Y-58347458D01*
X115630000Y-58366662D01*
G37*
G36*
X116334237Y-62687245D02*
G01*
X116555074Y-62754347D01*
X116753371Y-62869367D01*
X116920832Y-63027059D01*
X117049159Y-63222176D01*
X117130054Y-63449472D01*
X117187989Y-63701596D01*
X117248039Y-63953079D01*
X117310197Y-64203910D01*
X117374459Y-64454076D01*
X117440817Y-64703568D01*
X117509267Y-64952374D01*
X117579800Y-65200483D01*
X117652412Y-65447883D01*
X117727096Y-65694564D01*
X117803846Y-65940514D01*
X117882656Y-66185723D01*
X117963520Y-66430179D01*
X118046432Y-66673871D01*
X118131385Y-66916787D01*
X118218373Y-67158918D01*
X118307390Y-67400251D01*
X118398431Y-67640776D01*
X118491489Y-67880481D01*
X118586557Y-68119356D01*
X118683630Y-68357388D01*
X118782701Y-68594568D01*
X118883765Y-68830883D01*
X118986815Y-69066323D01*
X119091845Y-69300877D01*
X119198849Y-69534533D01*
X119307821Y-69767281D01*
X119418755Y-69999109D01*
X119531644Y-70230005D01*
X119646482Y-70459960D01*
X119763264Y-70688962D01*
X119881982Y-70916999D01*
X120002632Y-71144060D01*
X120125207Y-71370135D01*
X120249700Y-71595213D01*
X120376105Y-71819281D01*
X120504417Y-72042329D01*
X120634630Y-72264347D01*
X120766736Y-72485322D01*
X120900730Y-72705243D01*
X121036607Y-72924100D01*
X121174358Y-73141882D01*
X121313980Y-73358576D01*
X121455465Y-73574173D01*
X121598807Y-73788660D01*
X121744000Y-74002028D01*
X121891038Y-74214264D01*
X122039915Y-74425357D01*
X122190624Y-74635297D01*
X122343160Y-74844072D01*
X122497517Y-75051672D01*
X122653688Y-75258084D01*
X122811667Y-75463298D01*
X122971448Y-75667303D01*
X123133024Y-75870087D01*
X123296391Y-76071640D01*
X123461541Y-76271951D01*
X123628468Y-76471007D01*
X123797167Y-76668798D01*
X123967631Y-76865314D01*
X124139854Y-77060542D01*
X124313829Y-77254472D01*
X124489552Y-77447092D01*
X124667015Y-77638392D01*
X124846212Y-77828360D01*
X125027138Y-78016985D01*
X125209786Y-78204257D01*
X125394149Y-78390163D01*
X125578894Y-78573364D01*
X125765078Y-78754923D01*
X125952689Y-78934832D01*
X126141713Y-79113083D01*
X126332136Y-79289667D01*
X126523944Y-79464577D01*
X126717124Y-79637804D01*
X126911662Y-79809340D01*
X127107544Y-79979177D01*
X127304756Y-80147307D01*
X127503286Y-80313722D01*
X127703119Y-80478414D01*
X127904241Y-80641374D01*
X128106639Y-80802595D01*
X128310299Y-80962068D01*
X128515208Y-81119786D01*
X128721351Y-81275739D01*
X128928715Y-81429921D01*
X129137287Y-81582322D01*
X129347052Y-81732936D01*
X129557997Y-81881752D01*
X129770109Y-82028765D01*
X129983373Y-82173965D01*
X130197776Y-82317344D01*
X130413304Y-82458895D01*
X130629943Y-82598608D01*
X130847681Y-82736477D01*
X131066502Y-82872492D01*
X131286394Y-83006646D01*
X131507343Y-83138931D01*
X131729334Y-83269338D01*
X131952355Y-83397860D01*
X132176391Y-83524488D01*
X132401430Y-83649214D01*
X132627456Y-83772030D01*
X132854457Y-83892928D01*
X133082419Y-84011899D01*
X133311328Y-84128937D01*
X133541171Y-84244032D01*
X133771933Y-84357177D01*
X134003602Y-84468363D01*
X134236162Y-84577582D01*
X134469602Y-84684826D01*
X134703906Y-84790087D01*
X134939062Y-84893357D01*
X135175055Y-84994628D01*
X135411872Y-85093891D01*
X135649499Y-85191140D01*
X135887923Y-85286364D01*
X136127130Y-85379557D01*
X136367105Y-85470710D01*
X136607837Y-85559815D01*
X136849309Y-85646863D01*
X137091510Y-85731848D01*
X137334426Y-85814761D01*
X137578042Y-85895593D01*
X137822344Y-85974336D01*
X138067320Y-86050983D01*
X138312956Y-86125525D01*
X138559238Y-86197955D01*
X138771423Y-86286752D01*
X138952062Y-86417101D01*
X139097075Y-86581585D01*
X139202384Y-86772785D01*
X139263910Y-86983284D01*
X139277575Y-87205663D01*
X139239300Y-87432505D01*
X139154724Y-87637302D01*
X139031381Y-87813022D01*
X138875893Y-87956025D01*
X138694881Y-88062674D01*
X138494966Y-88129331D01*
X138282769Y-88152358D01*
X138144317Y-88142738D01*
X138005266Y-88113084D01*
X137755368Y-88039648D01*
X137506095Y-87964172D01*
X137257462Y-87886665D01*
X137009480Y-87807133D01*
X136762163Y-87725583D01*
X136515523Y-87642025D01*
X136269572Y-87556463D01*
X136024323Y-87468908D01*
X135779789Y-87379364D01*
X135535981Y-87287841D01*
X135292914Y-87194346D01*
X135050599Y-87098886D01*
X134809049Y-87001468D01*
X134568276Y-86902101D01*
X134328294Y-86800791D01*
X134089114Y-86697546D01*
X133850749Y-86592373D01*
X133613213Y-86485280D01*
X133376517Y-86376275D01*
X133140673Y-86265365D01*
X132905696Y-86152557D01*
X132671596Y-86037858D01*
X132438388Y-85921277D01*
X132206082Y-85802821D01*
X131974693Y-85682497D01*
X131744232Y-85560312D01*
X131514713Y-85436275D01*
X131286147Y-85310392D01*
X131058547Y-85182671D01*
X130831926Y-85053120D01*
X130606296Y-84921745D01*
X130381671Y-84788556D01*
X130158062Y-84653558D01*
X129935483Y-84516759D01*
X129713945Y-84378167D01*
X129493461Y-84237790D01*
X129274045Y-84095634D01*
X129055708Y-83951708D01*
X128838463Y-83806019D01*
X128622322Y-83658573D01*
X128407299Y-83509379D01*
X128193406Y-83358445D01*
X127980656Y-83205776D01*
X127769060Y-83051382D01*
X127558632Y-82895270D01*
X127349384Y-82737446D01*
X127141329Y-82577919D01*
X126934479Y-82416696D01*
X126728847Y-82253784D01*
X126524446Y-82089191D01*
X126321288Y-81922925D01*
X126119386Y-81754992D01*
X125918751Y-81585400D01*
X125719398Y-81414157D01*
X125521338Y-81241270D01*
X125324584Y-81066747D01*
X125129149Y-80890595D01*
X124935045Y-80712822D01*
X124742285Y-80533434D01*
X124550881Y-80352441D01*
X124360846Y-80169848D01*
X124172192Y-79985663D01*
X123984933Y-79799895D01*
X123799674Y-79613172D01*
X123616040Y-79425152D01*
X123434036Y-79235845D01*
X123253670Y-79045260D01*
X123074945Y-78853407D01*
X122897868Y-78660296D01*
X122722443Y-78465938D01*
X122548677Y-78270342D01*
X122376575Y-78073518D01*
X122206143Y-77875476D01*
X122037386Y-77676226D01*
X121870309Y-77475779D01*
X121704918Y-77274143D01*
X121541218Y-77071330D01*
X121379216Y-76867348D01*
X121218916Y-76662209D01*
X121060324Y-76455921D01*
X120903445Y-76248495D01*
X120748286Y-76039941D01*
X120594851Y-75830269D01*
X120443147Y-75619489D01*
X120293178Y-75407610D01*
X120144949Y-75194643D01*
X119998468Y-74980598D01*
X119853739Y-74765484D01*
X119710767Y-74549312D01*
X119569558Y-74332091D01*
X119430118Y-74113832D01*
X119292452Y-73894545D01*
X119156566Y-73674239D01*
X119022465Y-73452924D01*
X118890154Y-73230611D01*
X118759640Y-73007309D01*
X118630927Y-72783028D01*
X118504022Y-72557779D01*
X118378929Y-72331570D01*
X118255655Y-72104413D01*
X118134204Y-71876318D01*
X118014582Y-71647293D01*
X117896795Y-71417349D01*
X117780848Y-71186497D01*
X117666747Y-70954745D01*
X117554498Y-70722105D01*
X117444105Y-70488585D01*
X117335574Y-70254197D01*
X117228911Y-70018949D01*
X117124121Y-69782852D01*
X117021210Y-69545916D01*
X116920183Y-69308150D01*
X116821047Y-69069566D01*
X116723805Y-68830172D01*
X116628464Y-68589979D01*
X116535030Y-68348996D01*
X116443507Y-68107234D01*
X116353902Y-67864703D01*
X116266220Y-67621412D01*
X116180465Y-67377371D01*
X116096645Y-67132592D01*
X116014764Y-66887082D01*
X115934828Y-66640853D01*
X115856843Y-66393914D01*
X115780813Y-66146276D01*
X115706745Y-65897947D01*
X115634644Y-65648939D01*
X115564515Y-65399262D01*
X115496364Y-65148924D01*
X115430196Y-64897937D01*
X115366017Y-64646309D01*
X115303833Y-64394052D01*
X115243649Y-64141175D01*
X115185470Y-63887688D01*
X115160931Y-63658948D01*
X115187949Y-63437766D01*
X115262012Y-63231308D01*
X115378602Y-63046740D01*
X115533206Y-62891227D01*
X115721309Y-62771934D01*
X115938396Y-62696029D01*
X116138890Y-62671690D01*
X116334237Y-62687245D01*
G37*
G36*
X115171987Y-47800788D02*
G01*
X115392176Y-47810633D01*
X115644150Y-47832753D01*
X115896069Y-47866610D01*
X116147564Y-47912300D01*
X116398267Y-47969915D01*
X116647810Y-48039550D01*
X116895823Y-48121301D01*
X117141940Y-48215260D01*
X117376325Y-48317154D01*
X117603965Y-48428461D01*
X117824686Y-48548891D01*
X118038316Y-48678151D01*
X118244680Y-48815950D01*
X118443607Y-48961997D01*
X118634922Y-49116000D01*
X118818452Y-49277667D01*
X118994025Y-49446708D01*
X119161466Y-49622831D01*
X119320604Y-49805744D01*
X119471263Y-49995156D01*
X119613272Y-50190775D01*
X119746457Y-50392310D01*
X119870645Y-50599470D01*
X119985663Y-50811963D01*
X120091337Y-51029497D01*
X120187494Y-51251781D01*
X120273961Y-51478524D01*
X120350564Y-51709434D01*
X120417132Y-51944220D01*
X120473489Y-52182590D01*
X120519464Y-52424253D01*
X120554882Y-52668917D01*
X120579572Y-52916291D01*
X120593358Y-53166083D01*
X120596069Y-53418002D01*
X120587531Y-53671757D01*
X120567570Y-53927056D01*
X120544217Y-54170709D01*
X120523047Y-54415199D01*
X120504069Y-54660394D01*
X120487290Y-54906166D01*
X120472721Y-55152384D01*
X120460369Y-55398918D01*
X120450244Y-55645640D01*
X120442353Y-55892419D01*
X120436706Y-56139125D01*
X120433312Y-56385629D01*
X120432178Y-56631800D01*
X120433411Y-56892792D01*
X120437115Y-57153376D01*
X120443285Y-57413538D01*
X120451916Y-57673265D01*
X120463001Y-57932544D01*
X120476537Y-58191362D01*
X120492517Y-58449707D01*
X120510936Y-58707565D01*
X120531788Y-58964923D01*
X120555068Y-59221768D01*
X120580772Y-59478087D01*
X120608892Y-59733867D01*
X120639425Y-59989096D01*
X120672364Y-60243759D01*
X120707705Y-60497844D01*
X120745441Y-60751338D01*
X120785568Y-61004228D01*
X120828079Y-61256501D01*
X120872970Y-61508143D01*
X120920236Y-61759143D01*
X120969870Y-62009486D01*
X121021868Y-62259160D01*
X121076223Y-62508152D01*
X121132932Y-62756448D01*
X121191987Y-63004036D01*
X121253385Y-63250903D01*
X121317118Y-63497035D01*
X121383183Y-63742420D01*
X121451574Y-63987045D01*
X121522285Y-64230896D01*
X121595310Y-64473960D01*
X121670645Y-64716225D01*
X121748284Y-64957678D01*
X121828222Y-65198304D01*
X121910453Y-65438093D01*
X121994972Y-65677029D01*
X122081774Y-65915101D01*
X122170852Y-66152295D01*
X122262202Y-66388598D01*
X122355819Y-66623998D01*
X122451696Y-66858481D01*
X122549829Y-67092034D01*
X122650212Y-67324644D01*
X122752840Y-67556298D01*
X122857707Y-67786983D01*
X122964808Y-68016687D01*
X123074137Y-68245395D01*
X123185690Y-68473096D01*
X123299460Y-68699775D01*
X123415443Y-68925420D01*
X123533632Y-69150018D01*
X123654023Y-69373557D01*
X123776610Y-69596021D01*
X123901388Y-69817400D01*
X124028352Y-70037680D01*
X124157495Y-70256847D01*
X124288813Y-70474889D01*
X124422300Y-70691793D01*
X124557951Y-70907545D01*
X124695760Y-71122134D01*
X124835722Y-71335544D01*
X124977832Y-71547765D01*
X125122084Y-71758781D01*
X125268472Y-71968582D01*
X125416992Y-72177153D01*
X125567639Y-72384481D01*
X125720405Y-72590554D01*
X125875287Y-72795358D01*
X126032279Y-72998881D01*
X126191375Y-73201109D01*
X126352570Y-73402029D01*
X126515859Y-73601629D01*
X126681236Y-73799895D01*
X126848696Y-73996814D01*
X127018233Y-74192373D01*
X127189842Y-74386560D01*
X127363518Y-74579361D01*
X127539255Y-74770762D01*
X127717048Y-74960752D01*
X127896892Y-75149317D01*
X128078780Y-75336444D01*
X128262708Y-75522120D01*
X128448380Y-75706048D01*
X128635503Y-75887936D01*
X128824064Y-76067779D01*
X129014052Y-76245571D01*
X129205451Y-76421308D01*
X129398251Y-76594983D01*
X129592436Y-76766591D01*
X129787996Y-76936127D01*
X129984915Y-77103586D01*
X130183182Y-77268962D01*
X130382783Y-77432250D01*
X130583705Y-77593444D01*
X130785936Y-77752538D01*
X130989461Y-77909529D01*
X131194269Y-78064409D01*
X131400346Y-78217174D01*
X131607679Y-78367819D01*
X131816254Y-78516338D01*
X132026060Y-78662725D01*
X132237083Y-78806975D01*
X132449309Y-78949083D01*
X132662726Y-79089044D01*
X132877321Y-79226852D01*
X133093080Y-79362501D01*
X133309992Y-79495986D01*
X133528041Y-79627302D01*
X133747217Y-79756444D01*
X133967505Y-79883406D01*
X134188892Y-80008182D01*
X134411366Y-80130768D01*
X134634913Y-80251158D01*
X134859520Y-80369346D01*
X135085175Y-80485327D01*
X135311864Y-80599096D01*
X135539575Y-80710647D01*
X135768293Y-80819975D01*
X135998007Y-80927074D01*
X136228702Y-81031940D01*
X136460367Y-81134567D01*
X136692987Y-81234948D01*
X136926551Y-81333080D01*
X137161044Y-81428956D01*
X137396455Y-81522572D01*
X137632769Y-81613921D01*
X137869974Y-81702999D01*
X138108056Y-81789800D01*
X138347003Y-81874318D01*
X138586802Y-81956548D01*
X138827440Y-82036486D01*
X139068903Y-82114124D01*
X139311178Y-82189459D01*
X139554253Y-82262484D01*
X139798115Y-82333195D01*
X140042749Y-82401586D01*
X140288144Y-82467650D01*
X140534287Y-82531385D01*
X140781163Y-82592782D01*
X141028761Y-82651838D01*
X141277067Y-82708547D01*
X141526068Y-82762904D01*
X141775751Y-82814902D01*
X142026103Y-82864537D01*
X142277111Y-82911804D01*
X142528762Y-82956696D01*
X142781042Y-82999210D01*
X143033940Y-83039338D01*
X143287441Y-83077076D01*
X143541533Y-83112418D01*
X143796203Y-83145359D01*
X144051438Y-83175894D01*
X144307224Y-83204017D01*
X144563548Y-83229723D01*
X144820398Y-83253007D01*
X145077761Y-83273862D01*
X145335623Y-83292284D01*
X145593971Y-83308267D01*
X145852793Y-83321806D01*
X146112075Y-83332896D01*
X146371805Y-83341530D01*
X146631968Y-83347704D01*
X146892553Y-83351413D01*
X147153546Y-83352650D01*
X147399846Y-83351528D01*
X147646432Y-83348165D01*
X147893177Y-83342564D01*
X148139957Y-83334732D01*
X148386644Y-83324671D01*
X148633113Y-83312388D01*
X148879238Y-83297885D01*
X149124892Y-83281168D01*
X149369950Y-83262241D01*
X149614286Y-83241108D01*
X149857774Y-83217775D01*
X150112970Y-83197725D01*
X150366639Y-83189107D01*
X150618487Y-83191748D01*
X150868222Y-83205473D01*
X151115552Y-83230110D01*
X151360185Y-83265484D01*
X151601828Y-83311422D01*
X151840189Y-83367751D01*
X152074977Y-83434296D01*
X152305898Y-83510885D01*
X152532660Y-83597343D01*
X152754972Y-83693498D01*
X152972540Y-83799175D01*
X153185074Y-83914200D01*
X153392279Y-84038401D01*
X153593865Y-84171604D01*
X153789538Y-84313635D01*
X153979007Y-84464320D01*
X154161979Y-84623486D01*
X154338163Y-84790959D01*
X154507265Y-84966566D01*
X154668993Y-85150134D01*
X154823056Y-85341487D01*
X154969161Y-85540454D01*
X155107016Y-85746860D01*
X155236328Y-85960532D01*
X155356805Y-86181296D01*
X155468155Y-86408978D01*
X155570086Y-86643405D01*
X155660995Y-86880971D01*
X155740518Y-87120305D01*
X155808742Y-87361080D01*
X155865752Y-87602972D01*
X155911634Y-87845652D01*
X155946475Y-88088795D01*
X155970362Y-88332075D01*
X155983380Y-88575164D01*
X155985615Y-88817737D01*
X155977155Y-89059466D01*
X155958085Y-89300026D01*
X155928491Y-89539091D01*
X155888460Y-89776333D01*
X155838077Y-90011426D01*
X155777430Y-90244044D01*
X155706605Y-90473860D01*
X155625687Y-90700549D01*
X155534763Y-90923783D01*
X155433919Y-91143236D01*
X155323242Y-91358581D01*
X155202818Y-91569493D01*
X155072732Y-91775645D01*
X154933072Y-91976710D01*
X154783923Y-92172362D01*
X154625372Y-92362275D01*
X154457505Y-92546122D01*
X154280408Y-92723576D01*
X154094167Y-92894312D01*
X153898869Y-93058002D01*
X153694929Y-93219957D01*
X153489700Y-93380074D01*
X153283199Y-93538349D01*
X153075439Y-93694776D01*
X152866436Y-93849350D01*
X152656203Y-94002066D01*
X152444755Y-94152920D01*
X152232107Y-94301905D01*
X152018273Y-94449017D01*
X151803267Y-94594251D01*
X151587105Y-94737602D01*
X151369801Y-94879064D01*
X151151369Y-95018633D01*
X150931824Y-95156303D01*
X150711181Y-95292069D01*
X150489453Y-95425927D01*
X150266656Y-95557871D01*
X150042803Y-95687896D01*
X149817910Y-95815997D01*
X149591992Y-95942169D01*
X149365061Y-96066407D01*
X149137134Y-96188705D01*
X148908225Y-96309059D01*
X148678347Y-96427464D01*
X148447516Y-96543914D01*
X148215747Y-96658405D01*
X147983053Y-96770930D01*
X147749449Y-96881486D01*
X147514951Y-96990068D01*
X147279571Y-97096669D01*
X147043326Y-97201285D01*
X146806228Y-97303911D01*
X146568294Y-97404542D01*
X146329537Y-97503173D01*
X146089972Y-97599798D01*
X145849614Y-97694413D01*
X145608476Y-97787012D01*
X145366575Y-97877591D01*
X145123923Y-97966143D01*
X144880536Y-98052665D01*
X144636428Y-98137151D01*
X144391613Y-98219597D01*
X144146107Y-98299996D01*
X143899924Y-98378344D01*
X143653078Y-98454635D01*
X143405583Y-98528866D01*
X143157455Y-98601029D01*
X142908708Y-98671122D01*
X142659356Y-98739138D01*
X142409414Y-98805072D01*
X142158897Y-98868919D01*
X141907818Y-98930675D01*
X141656193Y-98990333D01*
X141404036Y-99047890D01*
X141151362Y-99103339D01*
X140898184Y-99156677D01*
X140644518Y-99207897D01*
X140390379Y-99256994D01*
X140135780Y-99303965D01*
X139880736Y-99348802D01*
X139625262Y-99391502D01*
X139369372Y-99432060D01*
X139113081Y-99470469D01*
X138856403Y-99506726D01*
X138599354Y-99540824D01*
X138341946Y-99572760D01*
X138084195Y-99602528D01*
X137826116Y-99630122D01*
X137567723Y-99655538D01*
X137309030Y-99678770D01*
X137050053Y-99699814D01*
X136790805Y-99718665D01*
X136531301Y-99735317D01*
X136271555Y-99749765D01*
X136011583Y-99762004D01*
X135751398Y-99772029D01*
X135491016Y-99779836D01*
X135230450Y-99785418D01*
X134969716Y-99788771D01*
X134708827Y-99789890D01*
X134446764Y-99788806D01*
X134185041Y-99785558D01*
X133923668Y-99780150D01*
X133662656Y-99772586D01*
X133402016Y-99762871D01*
X133141758Y-99751009D01*
X132881892Y-99737005D01*
X132622429Y-99720862D01*
X132363380Y-99702585D01*
X132104755Y-99682178D01*
X131846564Y-99659646D01*
X131588819Y-99634993D01*
X131331530Y-99608224D01*
X131074708Y-99579342D01*
X130818362Y-99548353D01*
X130562504Y-99515260D01*
X130307144Y-99480068D01*
X130052292Y-99442781D01*
X129797960Y-99403403D01*
X129544158Y-99361939D01*
X129290895Y-99318394D01*
X129038184Y-99272771D01*
X128786034Y-99225075D01*
X128534456Y-99175310D01*
X128283460Y-99123481D01*
X128033058Y-99069591D01*
X127783259Y-99013646D01*
X127534074Y-98955650D01*
X127285514Y-98895606D01*
X127037590Y-98833520D01*
X126790311Y-98769396D01*
X126543688Y-98703237D01*
X126297733Y-98635049D01*
X126052455Y-98564835D01*
X125807865Y-98492601D01*
X125563974Y-98418350D01*
X125320791Y-98342087D01*
X125078329Y-98263815D01*
X124836597Y-98183540D01*
X124595605Y-98101266D01*
X124355365Y-98016997D01*
X124115887Y-97930738D01*
X123877182Y-97842492D01*
X123639259Y-97752265D01*
X123402130Y-97660060D01*
X123165805Y-97565881D01*
X122930295Y-97469734D01*
X122695610Y-97371623D01*
X122461761Y-97271551D01*
X122228759Y-97169524D01*
X121996613Y-97065545D01*
X121765335Y-96959619D01*
X121534934Y-96851750D01*
X121305423Y-96741943D01*
X121076810Y-96630202D01*
X120849107Y-96516532D01*
X120622324Y-96400936D01*
X120396473Y-96283418D01*
X120171562Y-96163985D01*
X119947604Y-96042639D01*
X119724607Y-95919384D01*
X119502584Y-95794227D01*
X119281545Y-95667170D01*
X119061499Y-95538218D01*
X118842459Y-95407376D01*
X118624433Y-95274647D01*
X118407433Y-95140036D01*
X118191470Y-95003548D01*
X117976554Y-94865187D01*
X117762694Y-94724957D01*
X117549903Y-94582862D01*
X117338191Y-94438907D01*
X117127568Y-94293096D01*
X116918044Y-94145434D01*
X116709630Y-93995925D01*
X116502338Y-93844573D01*
X116296176Y-93691382D01*
X116091157Y-93536358D01*
X115887290Y-93379504D01*
X115684585Y-93220824D01*
X115483055Y-93060323D01*
X115282708Y-92898006D01*
X115083557Y-92733876D01*
X114885610Y-92567938D01*
X114688879Y-92400197D01*
X114493375Y-92230656D01*
X114299107Y-92059320D01*
X114106087Y-91886194D01*
X113914324Y-91711281D01*
X113723831Y-91534586D01*
X113534616Y-91356114D01*
X113346691Y-91175869D01*
X113160066Y-90993854D01*
X112974752Y-90810075D01*
X112790974Y-90624757D01*
X112608960Y-90438129D01*
X112428716Y-90250200D01*
X112250245Y-90060981D01*
X112073552Y-89870484D01*
X111898641Y-89678719D01*
X111725517Y-89485695D01*
X111554184Y-89291425D01*
X111384646Y-89095917D01*
X111216908Y-88899184D01*
X111050973Y-88701235D01*
X110886847Y-88502081D01*
X110724534Y-88301732D01*
X110564037Y-88100199D01*
X110405362Y-87897493D01*
X110248512Y-87693624D01*
X110093493Y-87488603D01*
X109940307Y-87282440D01*
X109788961Y-87075146D01*
X109639457Y-86866731D01*
X109491800Y-86657206D01*
X109345996Y-86446582D01*
X109202047Y-86234868D01*
X109059958Y-86022076D01*
X108919734Y-85808216D01*
X108781380Y-85593299D01*
X108644898Y-85377335D01*
X108510295Y-85160335D01*
X108377573Y-84942309D01*
X108246737Y-84723268D01*
X108117793Y-84503223D01*
X107990743Y-84282183D01*
X107865593Y-84060160D01*
X107742347Y-83837164D01*
X107621008Y-83613205D01*
X107501582Y-83388295D01*
X107384073Y-83162444D01*
X107268485Y-82935661D01*
X107154822Y-82707959D01*
X107043089Y-82479347D01*
X106933290Y-82249836D01*
X106825429Y-82019436D01*
X106719511Y-81788159D01*
X106615541Y-81556014D01*
X106513522Y-81323012D01*
X106413458Y-81089164D01*
X106315355Y-80854480D01*
X106219216Y-80618971D01*
X106125046Y-80382647D01*
X106032849Y-80145519D01*
X105942630Y-79907598D01*
X105854392Y-79668893D01*
X105768141Y-79429416D01*
X105683880Y-79189178D01*
X105601614Y-78948187D01*
X105521347Y-78706457D01*
X105443083Y-78463995D01*
X105366828Y-78220815D01*
X105292584Y-77976925D01*
X105220357Y-77732336D01*
X105150151Y-77487059D01*
X105081971Y-77241105D01*
X105015819Y-76994484D01*
X104951702Y-76747207D01*
X104889623Y-76499284D01*
X104829586Y-76250725D01*
X104771596Y-76001542D01*
X104715658Y-75751744D01*
X104661775Y-75501343D01*
X104609952Y-75250349D01*
X104560193Y-74998773D01*
X104512503Y-74746624D01*
X104466886Y-74493914D01*
X104423346Y-74240653D01*
X104381888Y-73986852D01*
X104342515Y-73732521D01*
X104305233Y-73477671D01*
X104270046Y-73222312D01*
X104236957Y-72966455D01*
X104205972Y-72710110D01*
X104177094Y-72453289D01*
X104150329Y-72196001D01*
X104125679Y-71938257D01*
X104103151Y-71680068D01*
X104082747Y-71421444D01*
X104064473Y-71162395D01*
X104048332Y-70902933D01*
X104034330Y-70643068D01*
X104022469Y-70382810D01*
X104012756Y-70122171D01*
X104005193Y-69861159D01*
X103999786Y-69599787D01*
X103996538Y-69338065D01*
X103995455Y-69076002D01*
X104995394Y-69076002D01*
X104996511Y-69338177D01*
X104999858Y-69599986D01*
X105005431Y-69861417D01*
X105013226Y-70122460D01*
X105023238Y-70383103D01*
X105035462Y-70643337D01*
X105049894Y-70903149D01*
X105066529Y-71162529D01*
X105085363Y-71421466D01*
X105106392Y-71679949D01*
X105129610Y-71937967D01*
X105155014Y-72195509D01*
X105182598Y-72452564D01*
X105212359Y-72709121D01*
X105244291Y-72965170D01*
X105278391Y-73220699D01*
X105314653Y-73475697D01*
X105353074Y-73730153D01*
X105393648Y-73984057D01*
X105436371Y-74237398D01*
X105481239Y-74490164D01*
X105528247Y-74742344D01*
X105577390Y-74993928D01*
X105628665Y-75244905D01*
X105682066Y-75495264D01*
X105737589Y-75744993D01*
X105795229Y-75994082D01*
X105854983Y-76242520D01*
X105916845Y-76490296D01*
X105980811Y-76737399D01*
X106046876Y-76983818D01*
X106115036Y-77229542D01*
X106185286Y-77474560D01*
X106257623Y-77718861D01*
X106332040Y-77962435D01*
X106408534Y-78205269D01*
X106487101Y-78447354D01*
X106567735Y-78688679D01*
X106650433Y-78929232D01*
X106735189Y-79169002D01*
X106822000Y-79407979D01*
X106910860Y-79646151D01*
X107001765Y-79883508D01*
X107094711Y-80120039D01*
X107189693Y-80355733D01*
X107286707Y-80590578D01*
X107385747Y-80824564D01*
X107486810Y-81057680D01*
X107589891Y-81289915D01*
X107694986Y-81521258D01*
X107802090Y-81751697D01*
X107911198Y-81981223D01*
X108022306Y-82209824D01*
X108135409Y-82437490D01*
X108250503Y-82664208D01*
X108367584Y-82889969D01*
X108486646Y-83114761D01*
X108607686Y-83338573D01*
X108730699Y-83561395D01*
X108855680Y-83783215D01*
X108982624Y-84004023D01*
X109111528Y-84223807D01*
X109242387Y-84442557D01*
X109375196Y-84660262D01*
X109509950Y-84876910D01*
X109646646Y-85092492D01*
X109785278Y-85306995D01*
X109925842Y-85520408D01*
X110068334Y-85732722D01*
X110212749Y-85943925D01*
X110359083Y-86154006D01*
X110507330Y-86362954D01*
X110657487Y-86570758D01*
X110809549Y-86777407D01*
X110963512Y-86982890D01*
X111119370Y-87187197D01*
X111277120Y-87390316D01*
X111436757Y-87592236D01*
X111598276Y-87792947D01*
X111761673Y-87992437D01*
X111926944Y-88190696D01*
X112094083Y-88387712D01*
X112263086Y-88583475D01*
X112433949Y-88777974D01*
X112606668Y-88971197D01*
X112781237Y-89163134D01*
X112957653Y-89353774D01*
X113135910Y-89543106D01*
X113316004Y-89731119D01*
X113497931Y-89917801D01*
X113681686Y-90103143D01*
X113867023Y-90286898D01*
X114053702Y-90468826D01*
X114241711Y-90648921D01*
X114431039Y-90827179D01*
X114621675Y-91003596D01*
X114813609Y-91178167D01*
X115006829Y-91350888D01*
X115201325Y-91521754D01*
X115397085Y-91690760D01*
X115594098Y-91857902D01*
X115792355Y-92023176D01*
X115991842Y-92186577D01*
X116192551Y-92348100D01*
X116394469Y-92507741D01*
X116597586Y-92665495D01*
X116801891Y-92821358D01*
X117007373Y-92975326D01*
X117214020Y-93127393D01*
X117421823Y-93277556D01*
X117630770Y-93425809D01*
X117840849Y-93572148D01*
X118052051Y-93716570D01*
X118264364Y-93859068D01*
X118477777Y-93999639D01*
X118692279Y-94138278D01*
X118907860Y-94274980D01*
X119124508Y-94409741D01*
X119342213Y-94542557D01*
X119560962Y-94673423D01*
X119780747Y-94802335D01*
X120001554Y-94929287D01*
X120223375Y-95054275D01*
X120446197Y-95177296D01*
X120670010Y-95298343D01*
X120894802Y-95417414D01*
X121120563Y-95534503D01*
X121347282Y-95649605D01*
X121574948Y-95762717D01*
X121803550Y-95873833D01*
X122033076Y-95982949D01*
X122263517Y-96090061D01*
X122494861Y-96195164D01*
X122727096Y-96298254D01*
X122960213Y-96399325D01*
X123194200Y-96498375D01*
X123429047Y-96595397D01*
X123664741Y-96690387D01*
X123901273Y-96783341D01*
X124138631Y-96874255D01*
X124376805Y-96963124D01*
X124615783Y-97049943D01*
X124855555Y-97134707D01*
X125096109Y-97217413D01*
X125337435Y-97298056D01*
X125579522Y-97376631D01*
X125822358Y-97453133D01*
X126065933Y-97527559D01*
X126310235Y-97599903D01*
X126555255Y-97670161D01*
X126800980Y-97738329D01*
X127047401Y-97804402D01*
X127294505Y-97868375D01*
X127542282Y-97930244D01*
X127790722Y-97990005D01*
X128039812Y-98047652D01*
X128289543Y-98103182D01*
X128539903Y-98156590D01*
X128790881Y-98207871D01*
X129042467Y-98257021D01*
X129294649Y-98304035D01*
X129547416Y-98348909D01*
X129800758Y-98391638D01*
X130054663Y-98432217D01*
X130309121Y-98470643D01*
X130564120Y-98506910D01*
X130819650Y-98541015D01*
X131075699Y-98572952D01*
X131332258Y-98602717D01*
X131589314Y-98630305D01*
X131846857Y-98655712D01*
X132104876Y-98678934D01*
X132363359Y-98699966D01*
X132622297Y-98718803D01*
X132881678Y-98735441D01*
X133141491Y-98749875D01*
X133401724Y-98762101D01*
X133662368Y-98772115D01*
X133923412Y-98779911D01*
X134184843Y-98785485D01*
X134446652Y-98788832D01*
X134708827Y-98789949D01*
X134967598Y-98788810D01*
X135226219Y-98785395D01*
X135484675Y-98779710D01*
X135742950Y-98771760D01*
X136001029Y-98761550D01*
X136258896Y-98749087D01*
X136516537Y-98734375D01*
X136773935Y-98717420D01*
X137031076Y-98698228D01*
X137287943Y-98676803D01*
X137544522Y-98653150D01*
X137800798Y-98627277D01*
X138056755Y-98599187D01*
X138312377Y-98568886D01*
X138567649Y-98536379D01*
X138822556Y-98501673D01*
X139077083Y-98464772D01*
X139331214Y-98425682D01*
X139584933Y-98384407D01*
X139838226Y-98340955D01*
X140091077Y-98295329D01*
X140343471Y-98247535D01*
X140595391Y-98197579D01*
X140846824Y-98145466D01*
X141097754Y-98091202D01*
X141348165Y-98034791D01*
X141598041Y-97976240D01*
X141847368Y-97915553D01*
X142096130Y-97852736D01*
X142344312Y-97787795D01*
X142591899Y-97720734D01*
X142838874Y-97651560D01*
X143085223Y-97580277D01*
X143330931Y-97506891D01*
X143575981Y-97431407D01*
X143820359Y-97353831D01*
X144064049Y-97274169D01*
X144307036Y-97192424D01*
X144549305Y-97108604D01*
X144790839Y-97022713D01*
X145031625Y-96934756D01*
X145271646Y-96844740D01*
X145510887Y-96752669D01*
X145749332Y-96658549D01*
X145986967Y-96562385D01*
X146223776Y-96464182D01*
X146459744Y-96363947D01*
X146694855Y-96261684D01*
X146929093Y-96157399D01*
X147162445Y-96051097D01*
X147394893Y-95942783D01*
X147626423Y-95832464D01*
X147857020Y-95720144D01*
X148086667Y-95605828D01*
X148315350Y-95489523D01*
X148543054Y-95371233D01*
X148769763Y-95250964D01*
X148995461Y-95128722D01*
X149220133Y-95004511D01*
X149443765Y-94878337D01*
X149666340Y-94750205D01*
X149887843Y-94620122D01*
X150108259Y-94488091D01*
X150327572Y-94354119D01*
X150545767Y-94218212D01*
X150762829Y-94080373D01*
X150978743Y-93940610D01*
X151193492Y-93798926D01*
X151407062Y-93655328D01*
X151619438Y-93509821D01*
X151830603Y-93362411D01*
X152040543Y-93213102D01*
X152249241Y-93061900D01*
X152456684Y-92908811D01*
X152662855Y-92753840D01*
X152867740Y-92596992D01*
X153071321Y-92438272D01*
X153273586Y-92277687D01*
X153469247Y-92112494D01*
X153653632Y-91939651D01*
X153826635Y-91759565D01*
X153988151Y-91572641D01*
X154138075Y-91379282D01*
X154276302Y-91179895D01*
X154402725Y-90974885D01*
X154517241Y-90764655D01*
X154619743Y-90549611D01*
X154710126Y-90330159D01*
X154788285Y-90106703D01*
X154854114Y-89879647D01*
X154907509Y-89649398D01*
X154948364Y-89416360D01*
X154976573Y-89180938D01*
X154992032Y-88943536D01*
X154994635Y-88704561D01*
X154984277Y-88464417D01*
X154960852Y-88223508D01*
X154924255Y-87982240D01*
X154874381Y-87741018D01*
X154811124Y-87500247D01*
X154734380Y-87260332D01*
X154644043Y-87021677D01*
X154540854Y-86786699D01*
X154426995Y-86560380D01*
X154302829Y-86342939D01*
X154168720Y-86134591D01*
X154025032Y-85935556D01*
X153872127Y-85746051D01*
X153710369Y-85566292D01*
X153540121Y-85396498D01*
X153361747Y-85236887D01*
X153175610Y-85087676D01*
X152982073Y-84949082D01*
X152781499Y-84821323D01*
X152574252Y-84704616D01*
X152360696Y-84599180D01*
X152141193Y-84505232D01*
X151916107Y-84422989D01*
X151685801Y-84352669D01*
X151450638Y-84294489D01*
X151210983Y-84248668D01*
X150967197Y-84215422D01*
X150719646Y-84194969D01*
X150468691Y-84187527D01*
X150214696Y-84193314D01*
X149958025Y-84212546D01*
X149705276Y-84236773D01*
X149451717Y-84258715D01*
X149197467Y-84278367D01*
X148942648Y-84295725D01*
X148687379Y-84310783D01*
X148431779Y-84323538D01*
X148175969Y-84333984D01*
X147920069Y-84342117D01*
X147664199Y-84347932D01*
X147408478Y-84351424D01*
X147153027Y-84352589D01*
X146892064Y-84351392D01*
X146631478Y-84347805D01*
X146371282Y-84341833D01*
X146111489Y-84333481D01*
X145852111Y-84322755D01*
X145593161Y-84309658D01*
X145334651Y-84294198D01*
X145076593Y-84276378D01*
X144819001Y-84256205D01*
X144561886Y-84233683D01*
X144305262Y-84208817D01*
X144049140Y-84181613D01*
X143793534Y-84152075D01*
X143538455Y-84120209D01*
X143283917Y-84086021D01*
X143029932Y-84049515D01*
X142776512Y-84010696D01*
X142523670Y-83969571D01*
X142271418Y-83926143D01*
X142019769Y-83880418D01*
X141768736Y-83832401D01*
X141518331Y-83782097D01*
X141268566Y-83729513D01*
X141019454Y-83674652D01*
X140771008Y-83617520D01*
X140523240Y-83558122D01*
X140276163Y-83496463D01*
X140029788Y-83432549D01*
X139784130Y-83366385D01*
X139539199Y-83297976D01*
X139295009Y-83227326D01*
X139051572Y-83154442D01*
X138808901Y-83079328D01*
X138567009Y-83001990D01*
X138325907Y-82922433D01*
X138085608Y-82840661D01*
X137846125Y-82756681D01*
X137607471Y-82670497D01*
X137369657Y-82582115D01*
X137132697Y-82491539D01*
X136896602Y-82398775D01*
X136661387Y-82303828D01*
X136427062Y-82206703D01*
X136193640Y-82107406D01*
X135961134Y-82005941D01*
X135729557Y-81902315D01*
X135498921Y-81796531D01*
X135269239Y-81688595D01*
X135040523Y-81578513D01*
X134812785Y-81466289D01*
X134586038Y-81351928D01*
X134360295Y-81235437D01*
X134135568Y-81116820D01*
X133911870Y-80996082D01*
X133689213Y-80873228D01*
X133467610Y-80748264D01*
X133247073Y-80621194D01*
X133027615Y-80492025D01*
X132809248Y-80360761D01*
X132591985Y-80227407D01*
X132375838Y-80091969D01*
X132160820Y-79954451D01*
X131946944Y-79814859D01*
X131734221Y-79673198D01*
X131522665Y-79529474D01*
X131312288Y-79383691D01*
X131103102Y-79235854D01*
X130895120Y-79085969D01*
X130688355Y-78934041D01*
X130482819Y-78780076D01*
X130278524Y-78624077D01*
X130075483Y-78466051D01*
X129873709Y-78306003D01*
X129673215Y-78143938D01*
X129474011Y-77979861D01*
X129276112Y-77813777D01*
X129079530Y-77645691D01*
X128884277Y-77475609D01*
X128690365Y-77303536D01*
X128497808Y-77129477D01*
X128306618Y-76953436D01*
X128116807Y-76775421D01*
X127928388Y-76595434D01*
X127741373Y-76413483D01*
X127555775Y-76229571D01*
X127371863Y-76043968D01*
X127189910Y-75856948D01*
X127009923Y-75668524D01*
X126831905Y-75478707D01*
X126655863Y-75287511D01*
X126481800Y-75094948D01*
X126309724Y-74901031D01*
X126139638Y-74705772D01*
X125971549Y-74509183D01*
X125805460Y-74311278D01*
X125641378Y-74112068D01*
X125479307Y-73911567D01*
X125319254Y-73709786D01*
X125161222Y-73506738D01*
X125005217Y-73302437D01*
X124851245Y-73096893D01*
X124699310Y-72890121D01*
X124549418Y-72682132D01*
X124401574Y-72472938D01*
X124255783Y-72262553D01*
X124112050Y-72050990D01*
X123970381Y-71838259D01*
X123830780Y-71624375D01*
X123693254Y-71409349D01*
X123557806Y-71193195D01*
X123424443Y-70975923D01*
X123293170Y-70757548D01*
X123163991Y-70538082D01*
X123036912Y-70317537D01*
X122911938Y-70095926D01*
X122789074Y-69873261D01*
X122668326Y-69649554D01*
X122549698Y-69424819D01*
X122433197Y-69199068D01*
X122318826Y-68972313D01*
X122206592Y-68744567D01*
X122096499Y-68515843D01*
X121988553Y-68286152D01*
X121882759Y-68055508D01*
X121779122Y-67823923D01*
X121677647Y-67591409D01*
X121578339Y-67357980D01*
X121481204Y-67123647D01*
X121386247Y-66888423D01*
X121293473Y-66652321D01*
X121202887Y-66415353D01*
X121114495Y-66177531D01*
X121028301Y-65938869D01*
X120944311Y-65699379D01*
X120862530Y-65459073D01*
X120782963Y-65217963D01*
X120705616Y-64976063D01*
X120630493Y-64733385D01*
X120557600Y-64489942D01*
X120486942Y-64245745D01*
X120418524Y-64000808D01*
X120352351Y-63755142D01*
X120288429Y-63508761D01*
X120226763Y-63261678D01*
X120167358Y-63013903D01*
X120110219Y-62765451D01*
X120055351Y-62516334D01*
X120002760Y-62266563D01*
X119952451Y-62016153D01*
X119904428Y-61765114D01*
X119858698Y-61513460D01*
X119815265Y-61261204D01*
X119774135Y-61008357D01*
X119735312Y-60754933D01*
X119698802Y-60500943D01*
X119664611Y-60246401D01*
X119632742Y-59991319D01*
X119603202Y-59735709D01*
X119575996Y-59479584D01*
X119551129Y-59222957D01*
X119528606Y-58965839D01*
X119508432Y-58708244D01*
X119490613Y-58450185D01*
X119475153Y-58191672D01*
X119462058Y-57932720D01*
X119451333Y-57673341D01*
X119442984Y-57413547D01*
X119437015Y-57153350D01*
X119433432Y-56892764D01*
X119432239Y-56631800D01*
X119433416Y-56376491D01*
X119436942Y-56120901D01*
X119442806Y-55865148D01*
X119451000Y-55609350D01*
X119461514Y-55353623D01*
X119474339Y-55098085D01*
X119489465Y-54842852D01*
X119506884Y-54588042D01*
X119526585Y-54333772D01*
X119548560Y-54080159D01*
X119572799Y-53827320D01*
X119591955Y-53570435D01*
X119597679Y-53316261D01*
X119590186Y-53065160D01*
X119569693Y-52817493D01*
X119536418Y-52573621D01*
X119490576Y-52333904D01*
X119432385Y-52098705D01*
X119362061Y-51868383D01*
X119279822Y-51643301D01*
X119185882Y-51423819D01*
X119080461Y-51210298D01*
X118963773Y-51003100D01*
X118836037Y-50802585D01*
X118697468Y-50609115D01*
X118548283Y-50423050D01*
X118388699Y-50244753D01*
X118218933Y-50074582D01*
X118039201Y-49912901D01*
X117849720Y-49760070D01*
X117650707Y-49616450D01*
X117442379Y-49482402D01*
X117224952Y-49358287D01*
X116998643Y-49244466D01*
X116763668Y-49141301D01*
X116539951Y-49056198D01*
X116315123Y-48983053D01*
X116089512Y-48921779D01*
X115863446Y-48872289D01*
X115637254Y-48834495D01*
X115411262Y-48808310D01*
X115185800Y-48793647D01*
X114961194Y-48790418D01*
X114715524Y-48799967D01*
X114471759Y-48823126D01*
X114230341Y-48859779D01*
X113991717Y-48909812D01*
X113756328Y-48973109D01*
X113524621Y-49049553D01*
X113297038Y-49139031D01*
X113074023Y-49241426D01*
X112856021Y-49356623D01*
X112643476Y-49484507D01*
X112436831Y-49624962D01*
X112236531Y-49777872D01*
X112043020Y-49943122D01*
X111856741Y-50120598D01*
X111678139Y-50310182D01*
X111507658Y-50511760D01*
X111347078Y-50714024D01*
X111188363Y-50917606D01*
X111031520Y-51122489D01*
X110876553Y-51328659D01*
X110723468Y-51536100D01*
X110572270Y-51744797D01*
X110422964Y-51954734D01*
X110275557Y-52165897D01*
X110130053Y-52378269D01*
X109986458Y-52591836D01*
X109844777Y-52806582D01*
X109705016Y-53022492D01*
X109567180Y-53239550D01*
X109431274Y-53457741D01*
X109297304Y-53677049D01*
X109165276Y-53897460D01*
X109035193Y-54118958D01*
X108907063Y-54341528D01*
X108780890Y-54565153D01*
X108656680Y-54789820D01*
X108534439Y-55015512D01*
X108414170Y-55242214D01*
X108295881Y-55469912D01*
X108179576Y-55698588D01*
X108065261Y-55928229D01*
X107952940Y-56158818D01*
X107842621Y-56390341D01*
X107734307Y-56622782D01*
X107628005Y-56856126D01*
X107523719Y-57090357D01*
X107421456Y-57325460D01*
X107321220Y-57561419D01*
X107223017Y-57798220D01*
X107126852Y-58035847D01*
X107032731Y-58274284D01*
X106940659Y-58513517D01*
X106850641Y-58753529D01*
X106762683Y-58994306D01*
X106676791Y-59235832D01*
X106592969Y-59478092D01*
X106511223Y-59721070D01*
X106431559Y-59964752D01*
X106353982Y-60209121D01*
X106278496Y-60454162D01*
X106205109Y-60699861D01*
X106133824Y-60946201D01*
X106064648Y-61193168D01*
X105997586Y-61440745D01*
X105932643Y-61688918D01*
X105869824Y-61937671D01*
X105809135Y-62186989D01*
X105750582Y-62436857D01*
X105694170Y-62687259D01*
X105639904Y-62938180D01*
X105587789Y-63189604D01*
X105537832Y-63441516D01*
X105490036Y-63693901D01*
X105444409Y-63946744D01*
X105400954Y-64200028D01*
X105359678Y-64453739D01*
X105320587Y-64707862D01*
X105283684Y-64962381D01*
X105248976Y-65217280D01*
X105216468Y-65472544D01*
X105186166Y-65728159D01*
X105158075Y-65984107D01*
X105132200Y-66240376D01*
X105108547Y-66496948D01*
X105087121Y-66753808D01*
X105067927Y-67010942D01*
X105050971Y-67268333D01*
X105036258Y-67525967D01*
X105023795Y-67783828D01*
X105013585Y-68041901D01*
X105005634Y-68300170D01*
X104999949Y-68558620D01*
X104996534Y-68817236D01*
X104995394Y-69076002D01*
X103995455Y-69076002D01*
X103996574Y-68815118D01*
X103999927Y-68554388D01*
X104005510Y-68293827D01*
X104013317Y-68033450D01*
X104023343Y-67773271D01*
X104035583Y-67513304D01*
X104050031Y-67253565D01*
X104066684Y-66994067D01*
X104085536Y-66734825D01*
X104106581Y-66475853D01*
X104129815Y-66217167D01*
X104155232Y-65958781D01*
X104182828Y-65700709D01*
X104212597Y-65442965D01*
X104244534Y-65185565D01*
X104278634Y-64928522D01*
X104314892Y-64671852D01*
X104353304Y-64415569D01*
X104393863Y-64159686D01*
X104436565Y-63904220D01*
X104481404Y-63649184D01*
X104528376Y-63394593D01*
X104577476Y-63140462D01*
X104628698Y-62886804D01*
X104682037Y-62633635D01*
X104737488Y-62380969D01*
X104795047Y-62128820D01*
X104854707Y-61877203D01*
X104916465Y-61626133D01*
X104980314Y-61375624D01*
X105046250Y-61125691D01*
X105114268Y-60876348D01*
X105184362Y-60627609D01*
X105256528Y-60379489D01*
X105330760Y-60132004D01*
X105407053Y-59885166D01*
X105485403Y-59638991D01*
X105565804Y-59393493D01*
X105648250Y-59148687D01*
X105732738Y-58904588D01*
X105819261Y-58661209D01*
X105907816Y-58418566D01*
X105998395Y-58176672D01*
X106090996Y-57935543D01*
X106185612Y-57695193D01*
X106282238Y-57455636D01*
X106380869Y-57216887D01*
X106481501Y-56978960D01*
X106584128Y-56741871D01*
X106688744Y-56505633D01*
X106795346Y-56270261D01*
X106903928Y-56035770D01*
X107014484Y-55802173D01*
X107127010Y-55569486D01*
X107241500Y-55337724D01*
X107357950Y-55106900D01*
X107476354Y-54877029D01*
X107596708Y-54648126D01*
X107719005Y-54420205D01*
X107843242Y-54193281D01*
X107969413Y-53967368D01*
X108097512Y-53742481D01*
X108227536Y-53518634D01*
X108359478Y-53295842D01*
X108493334Y-53074120D01*
X108629098Y-52853481D01*
X108766766Y-52633940D01*
X108906332Y-52415513D01*
X109047792Y-52198213D01*
X109191139Y-51982055D01*
X109336370Y-51767053D01*
X109483478Y-51553222D01*
X109632460Y-51340577D01*
X109783309Y-51129132D01*
X109936021Y-50918902D01*
X110090591Y-50709900D01*
X110247013Y-50502142D01*
X110405283Y-50295642D01*
X110565395Y-50090415D01*
X110727344Y-49886475D01*
X110891304Y-49690883D01*
X111062330Y-49504370D01*
X111240095Y-49327024D01*
X111424270Y-49158933D01*
X111614529Y-49000184D01*
X111810543Y-48850864D01*
X112011984Y-48711061D01*
X112218525Y-48580862D01*
X112429838Y-48460355D01*
X112645595Y-48349626D01*
X112865468Y-48248764D01*
X113089129Y-48157855D01*
X113316252Y-48076987D01*
X113546507Y-48006247D01*
X113779567Y-47945723D01*
X114015104Y-47895503D01*
X114252791Y-47855672D01*
X114492299Y-47826320D01*
X114733301Y-47807533D01*
X114952311Y-47799752D01*
X115171987Y-47800788D01*
G37*
%TD*%
M02*
