%TF.GenerationSoftware,KiCad,Pcbnew,10.0.1*%
%TF.CreationDate,2026-06-08T19:00:18-04:00*%
%TF.ProjectId,ITPcamp-card-example,49545063-616d-4702-9d63-6172642d6578,rev?*%
%TF.SameCoordinates,Original*%
%TF.FileFunction,Copper,L1,Top*%
%TF.FilePolarity,Positive*%
%FSLAX46Y46*%
G04 Gerber Fmt 4.6, Leading zero omitted, Abs format (unit mm)*
G04 Created by KiCad (PCBNEW 10.0.1) date 2026-06-08 19:00:18*
%MOMM*%
%LPD*%
G01*
G04 APERTURE LIST*
%TA.AperFunction,EtchedComponent*%
%ADD10C,0.000000*%
%TD*%
G04 APERTURE END LIST*
D10*
%TA.AperFunction,EtchedComponent*%
%TO.C,itp-camp*%
G36*
X94108377Y-35695484D02*
G01*
X94175632Y-35695559D01*
X94241104Y-35695692D01*
X94304662Y-35695884D01*
X94366175Y-35696132D01*
X94425513Y-35696436D01*
X94482544Y-35696795D01*
X94537138Y-35697209D01*
X94589163Y-35697675D01*
X94638489Y-35698194D01*
X94684984Y-35698765D01*
X94728519Y-35699386D01*
X94768960Y-35700056D01*
X94806179Y-35700776D01*
X94840043Y-35701543D01*
X94870422Y-35702357D01*
X94897185Y-35703217D01*
X94920200Y-35704122D01*
X94939338Y-35705072D01*
X94954467Y-35706064D01*
X94965455Y-35707099D01*
X95019793Y-35715555D01*
X95070598Y-35727447D01*
X95118023Y-35742882D01*
X95162226Y-35761970D01*
X95203361Y-35784820D01*
X95241585Y-35811541D01*
X95277053Y-35842242D01*
X95309920Y-35877030D01*
X95340342Y-35916016D01*
X95368476Y-35959308D01*
X95394475Y-36007015D01*
X95469475Y-36156971D01*
X95478475Y-37739473D01*
X95487475Y-39321970D01*
X95080995Y-39321970D01*
X94674525Y-39321970D01*
X94674525Y-39021974D01*
X94674525Y-38721972D01*
X93778195Y-38721972D01*
X93657143Y-38722039D01*
X93547017Y-38722257D01*
X93447296Y-38722652D01*
X93357456Y-38723249D01*
X93276975Y-38724073D01*
X93205330Y-38725149D01*
X93141998Y-38726503D01*
X93086457Y-38728161D01*
X93038184Y-38730147D01*
X92996655Y-38732486D01*
X92961349Y-38735204D01*
X92931743Y-38738327D01*
X92907314Y-38741879D01*
X92887539Y-38745887D01*
X92871895Y-38750374D01*
X92859860Y-38755367D01*
X92850911Y-38760891D01*
X92844525Y-38766972D01*
X92815095Y-38793292D01*
X92781885Y-38807777D01*
X92746515Y-38811366D01*
X92710605Y-38804999D01*
X92675775Y-38789614D01*
X92643645Y-38766150D01*
X92615835Y-38735548D01*
X92593965Y-38698745D01*
X92579655Y-38656682D01*
X92574525Y-38610298D01*
X92582047Y-38569434D01*
X92602269Y-38527023D01*
X92631674Y-38487068D01*
X92666744Y-38453572D01*
X92703964Y-38430538D01*
X92739815Y-38421971D01*
X92769663Y-38430193D01*
X92804400Y-38451748D01*
X92836515Y-38481971D01*
X92843961Y-38490217D01*
X92851928Y-38497672D01*
X92861095Y-38504375D01*
X92872138Y-38510367D01*
X92885734Y-38515688D01*
X92902559Y-38520376D01*
X92923291Y-38524473D01*
X92948605Y-38528017D01*
X92979180Y-38531049D01*
X93015691Y-38533608D01*
X93058816Y-38535735D01*
X93109232Y-38537468D01*
X93167614Y-38538849D01*
X93234641Y-38539916D01*
X93310988Y-38540710D01*
X93397333Y-38541270D01*
X93494352Y-38541636D01*
X93602723Y-38541848D01*
X93723122Y-38541947D01*
X93856225Y-38541971D01*
X94824555Y-38541971D01*
X94824555Y-38841973D01*
X94824555Y-39141970D01*
X95080635Y-39141970D01*
X95336725Y-39141970D01*
X95327725Y-37679470D01*
X95326939Y-37543844D01*
X95326173Y-37416805D01*
X95325413Y-37298051D01*
X95324646Y-37187277D01*
X95323859Y-37084181D01*
X95323039Y-36988460D01*
X95322172Y-36899809D01*
X95321246Y-36817927D01*
X95320247Y-36742509D01*
X95319162Y-36673253D01*
X95317978Y-36609855D01*
X95316682Y-36552013D01*
X95315260Y-36499422D01*
X95313700Y-36451780D01*
X95311987Y-36408783D01*
X95310110Y-36370129D01*
X95308055Y-36335514D01*
X95305808Y-36304634D01*
X95303357Y-36277188D01*
X95300688Y-36252870D01*
X95297788Y-36231379D01*
X95294644Y-36212411D01*
X95291243Y-36195662D01*
X95287571Y-36180831D01*
X95283616Y-36167612D01*
X95279364Y-36155704D01*
X95274802Y-36144802D01*
X95269917Y-36134604D01*
X95264696Y-36124807D01*
X95259125Y-36115107D01*
X95235878Y-36079764D01*
X95207357Y-36042822D01*
X95175993Y-36007050D01*
X95144216Y-35975221D01*
X95114455Y-35950106D01*
X95106004Y-35943926D01*
X95097573Y-35938159D01*
X95088817Y-35932790D01*
X95079394Y-35927801D01*
X95068959Y-35923177D01*
X95057169Y-35918900D01*
X95043678Y-35914954D01*
X95028144Y-35911324D01*
X95010222Y-35907991D01*
X94989569Y-35904940D01*
X94965840Y-35902154D01*
X94938692Y-35899618D01*
X94907780Y-35897313D01*
X94872761Y-35895225D01*
X94833291Y-35893336D01*
X94789025Y-35891630D01*
X94739621Y-35890091D01*
X94684733Y-35888702D01*
X94624018Y-35887446D01*
X94557132Y-35886308D01*
X94483731Y-35885270D01*
X94403472Y-35884316D01*
X94316009Y-35883430D01*
X94221000Y-35882596D01*
X94118100Y-35881796D01*
X94006966Y-35881014D01*
X93887253Y-35880235D01*
X93758617Y-35879441D01*
X93620715Y-35878616D01*
X93489831Y-35877851D01*
X93367232Y-35877164D01*
X93252618Y-35876564D01*
X93145688Y-35876061D01*
X93046140Y-35875666D01*
X92953674Y-35875388D01*
X92867989Y-35875237D01*
X92788783Y-35875224D01*
X92715758Y-35875358D01*
X92648610Y-35875650D01*
X92587039Y-35876109D01*
X92530746Y-35876745D01*
X92479427Y-35877569D01*
X92432784Y-35878591D01*
X92390514Y-35879819D01*
X92352317Y-35881265D01*
X92317892Y-35882939D01*
X92286938Y-35884850D01*
X92259154Y-35887008D01*
X92234240Y-35889424D01*
X92211894Y-35892108D01*
X92191816Y-35895069D01*
X92173705Y-35898317D01*
X92157259Y-35901863D01*
X92142178Y-35905716D01*
X92128161Y-35909887D01*
X92114907Y-35914385D01*
X92102115Y-35919221D01*
X92089485Y-35924405D01*
X92076715Y-35929946D01*
X92027639Y-35953700D01*
X91987954Y-35978299D01*
X91955276Y-36006151D01*
X91927222Y-36039664D01*
X91901410Y-36081245D01*
X91875455Y-36133303D01*
X91869351Y-36146642D01*
X91863631Y-36159592D01*
X91858280Y-36172450D01*
X91853283Y-36185516D01*
X91848626Y-36199089D01*
X91844295Y-36213467D01*
X91840276Y-36228951D01*
X91836553Y-36245838D01*
X91833113Y-36264428D01*
X91829940Y-36285020D01*
X91827022Y-36307913D01*
X91824343Y-36333405D01*
X91821889Y-36361797D01*
X91819645Y-36393387D01*
X91817597Y-36428474D01*
X91815731Y-36467357D01*
X91814033Y-36510335D01*
X91812487Y-36557707D01*
X91811080Y-36609772D01*
X91809797Y-36666830D01*
X91808623Y-36729178D01*
X91807545Y-36797117D01*
X91806548Y-36870946D01*
X91805617Y-36950963D01*
X91804739Y-37037467D01*
X91803898Y-37130757D01*
X91803080Y-37231133D01*
X91802272Y-37338893D01*
X91801457Y-37454337D01*
X91800623Y-37577764D01*
X91799755Y-37709472D01*
X91790755Y-39141971D01*
X92062595Y-39141971D01*
X92334445Y-39141971D01*
X92334445Y-38631972D01*
X92334445Y-38121974D01*
X93744435Y-38121974D01*
X95154445Y-38121974D01*
X95154445Y-38374541D01*
X95155335Y-38446854D01*
X95158088Y-38509816D01*
X95162828Y-38564264D01*
X95169680Y-38611040D01*
X95178767Y-38650982D01*
X95190214Y-38684931D01*
X95204145Y-38713727D01*
X95225554Y-38761516D01*
X95236220Y-38809876D01*
X95236540Y-38856974D01*
X95226914Y-38900976D01*
X95207740Y-38940050D01*
X95179417Y-38972361D01*
X95142345Y-38996079D01*
X95101003Y-39009471D01*
X95062375Y-39011709D01*
X95027196Y-39003915D01*
X94996202Y-38987213D01*
X94970129Y-38962725D01*
X94949714Y-38931574D01*
X94935693Y-38894884D01*
X94928801Y-38853778D01*
X94929775Y-38809379D01*
X94939351Y-38762810D01*
X94958265Y-38715194D01*
X94972813Y-38677845D01*
X94985465Y-38629640D01*
X94995453Y-38574826D01*
X95002009Y-38517650D01*
X95004365Y-38462361D01*
X95004365Y-38301974D01*
X93744365Y-38301974D01*
X92484365Y-38301974D01*
X92484365Y-38811972D01*
X92484365Y-39321970D01*
X92064375Y-39321970D01*
X91644375Y-39321970D01*
X91644605Y-37949470D01*
X91644735Y-37949445D01*
X91644786Y-37876491D01*
X91644916Y-37803809D01*
X91645122Y-37731513D01*
X91645402Y-37659718D01*
X91645754Y-37588537D01*
X91646176Y-37518086D01*
X91646667Y-37448478D01*
X91647223Y-37379828D01*
X91647843Y-37312250D01*
X91648525Y-37245858D01*
X91649267Y-37180767D01*
X91650067Y-37117091D01*
X91650923Y-37054945D01*
X91651832Y-36994441D01*
X91652793Y-36935696D01*
X91653804Y-36878823D01*
X91654862Y-36823936D01*
X91655966Y-36771150D01*
X91657114Y-36720578D01*
X91658303Y-36672337D01*
X91659531Y-36626538D01*
X91660797Y-36583298D01*
X91662098Y-36542729D01*
X91663432Y-36504947D01*
X91664798Y-36470066D01*
X91666193Y-36438200D01*
X91667615Y-36409463D01*
X91669063Y-36383970D01*
X91670533Y-36361835D01*
X91672024Y-36343172D01*
X91673535Y-36328095D01*
X91682497Y-36260067D01*
X91693251Y-36196976D01*
X91705901Y-36138623D01*
X91720548Y-36084805D01*
X91737296Y-36035321D01*
X91756247Y-35989971D01*
X91777505Y-35948552D01*
X91801171Y-35910865D01*
X91827349Y-35876707D01*
X91856142Y-35845878D01*
X91887652Y-35818176D01*
X91921982Y-35793400D01*
X91959235Y-35771349D01*
X91971127Y-35765074D01*
X91982794Y-35759216D01*
X91994575Y-35753759D01*
X92006806Y-35748685D01*
X92019824Y-35743978D01*
X92033966Y-35739622D01*
X92049569Y-35735599D01*
X92066970Y-35731892D01*
X92086505Y-35728486D01*
X92108513Y-35725363D01*
X92133329Y-35722507D01*
X92161292Y-35719900D01*
X92192737Y-35717527D01*
X92228001Y-35715370D01*
X92267423Y-35713412D01*
X92311338Y-35711638D01*
X92360083Y-35710029D01*
X92413996Y-35708570D01*
X92473414Y-35707244D01*
X92538674Y-35706034D01*
X92610111Y-35704923D01*
X92688065Y-35703895D01*
X92772870Y-35702932D01*
X92864865Y-35702018D01*
X92964387Y-35701137D01*
X93071771Y-35700271D01*
X93187356Y-35699404D01*
X93311479Y-35698519D01*
X93444475Y-35697599D01*
X93521880Y-35697106D01*
X93598682Y-35696679D01*
X93674748Y-35696317D01*
X93749949Y-35696021D01*
X93824152Y-35695789D01*
X93897228Y-35695620D01*
X93969044Y-35695514D01*
X94039471Y-35695469D01*
X94108377Y-35695484D01*
G37*
%TD.AperFunction*%
%TA.AperFunction,EtchedComponent*%
G36*
X93709093Y-36096963D02*
G01*
X93830501Y-36097022D01*
X93943745Y-36097135D01*
X94049130Y-36097313D01*
X94146961Y-36097568D01*
X94237543Y-36097910D01*
X94321182Y-36098353D01*
X94398183Y-36098906D01*
X94468852Y-36099582D01*
X94533492Y-36100393D01*
X94592411Y-36101348D01*
X94645913Y-36102461D01*
X94694303Y-36103743D01*
X94737888Y-36105204D01*
X94776971Y-36106857D01*
X94811858Y-36108714D01*
X94842855Y-36110785D01*
X94870267Y-36113081D01*
X94894399Y-36115616D01*
X94915556Y-36118400D01*
X94934044Y-36121444D01*
X94950168Y-36124760D01*
X94964234Y-36128360D01*
X94976546Y-36132255D01*
X94987409Y-36136456D01*
X94997130Y-36140976D01*
X95006014Y-36145825D01*
X95014365Y-36151016D01*
X95034177Y-36164558D01*
X95052166Y-36178374D01*
X95068423Y-36193040D01*
X95083037Y-36209134D01*
X95096098Y-36227233D01*
X95107695Y-36247914D01*
X95117918Y-36271755D01*
X95126856Y-36299333D01*
X95134599Y-36331226D01*
X95141236Y-36368011D01*
X95146858Y-36410266D01*
X95151552Y-36458567D01*
X95155410Y-36513492D01*
X95158521Y-36575619D01*
X95160974Y-36645525D01*
X95162858Y-36723787D01*
X95164264Y-36810983D01*
X95165281Y-36907690D01*
X95165998Y-37014486D01*
X95166505Y-37131948D01*
X95169505Y-37896948D01*
X93752005Y-37904748D01*
X92334505Y-37912548D01*
X92334505Y-37243253D01*
X92334662Y-37144547D01*
X92335140Y-37054226D01*
X92335952Y-36972054D01*
X92337111Y-36897791D01*
X92338629Y-36831201D01*
X92340519Y-36772046D01*
X92342793Y-36720089D01*
X92345462Y-36675091D01*
X92348541Y-36636816D01*
X92352041Y-36605026D01*
X92355975Y-36579482D01*
X92360356Y-36559949D01*
X92365195Y-36546187D01*
X92370505Y-36537961D01*
X92376835Y-36534731D01*
X92389049Y-36531641D01*
X92406887Y-36528692D01*
X92430086Y-36525884D01*
X92458386Y-36523216D01*
X92491524Y-36520688D01*
X92529240Y-36518301D01*
X92571271Y-36516054D01*
X92617356Y-36513948D01*
X92667234Y-36511982D01*
X92720642Y-36510156D01*
X92777320Y-36508471D01*
X92837005Y-36506926D01*
X92899437Y-36505522D01*
X92964354Y-36504258D01*
X93031494Y-36503135D01*
X93100595Y-36502152D01*
X93171396Y-36501309D01*
X93243636Y-36500607D01*
X93317053Y-36500046D01*
X93391386Y-36499624D01*
X93466372Y-36499343D01*
X93541750Y-36499203D01*
X93617260Y-36499203D01*
X93692638Y-36499343D01*
X93767624Y-36499624D01*
X93841957Y-36500046D01*
X93915374Y-36500607D01*
X93987614Y-36501309D01*
X94058415Y-36502152D01*
X94127516Y-36503135D01*
X94194656Y-36504258D01*
X94259573Y-36505522D01*
X94322005Y-36506926D01*
X94381690Y-36508471D01*
X94438368Y-36510156D01*
X94491776Y-36511982D01*
X94541654Y-36513948D01*
X94587739Y-36516054D01*
X94629770Y-36518301D01*
X94667486Y-36520688D01*
X94700624Y-36523216D01*
X94728924Y-36525884D01*
X94752123Y-36528692D01*
X94769961Y-36531641D01*
X94782175Y-36534731D01*
X94788505Y-36537961D01*
X94797854Y-36554069D01*
X94805907Y-36582180D01*
X94812629Y-36621942D01*
X94817985Y-36673003D01*
X94821939Y-36735011D01*
X94824458Y-36807614D01*
X94825505Y-36890460D01*
X94826326Y-36971042D01*
X94828322Y-37040348D01*
X94831591Y-37099196D01*
X94836234Y-37148404D01*
X94842347Y-37188790D01*
X94850031Y-37221171D01*
X94859384Y-37246366D01*
X94870505Y-37265193D01*
X94894411Y-37304600D01*
X94909401Y-37346394D01*
X94915974Y-37389035D01*
X94914628Y-37430984D01*
X94905860Y-37470703D01*
X94890170Y-37506651D01*
X94868055Y-37537290D01*
X94840013Y-37561081D01*
X94806544Y-37576484D01*
X94768145Y-37581961D01*
X94724076Y-37576040D01*
X94684322Y-37559577D01*
X94649782Y-37534517D01*
X94621356Y-37502809D01*
X94599944Y-37466398D01*
X94586444Y-37427233D01*
X94581755Y-37387259D01*
X94586778Y-37348424D01*
X94602412Y-37312675D01*
X94629555Y-37281960D01*
X94642764Y-37261981D01*
X94653861Y-37227599D01*
X94662799Y-37181661D01*
X94669533Y-37127014D01*
X94674017Y-37066505D01*
X94676205Y-37002980D01*
X94676052Y-36939288D01*
X94673511Y-36878275D01*
X94668536Y-36822789D01*
X94661083Y-36775676D01*
X94651104Y-36739784D01*
X94638555Y-36717961D01*
X94631333Y-36714279D01*
X94617445Y-36710782D01*
X94597233Y-36707469D01*
X94571040Y-36704339D01*
X94539206Y-36701394D01*
X94502074Y-36698633D01*
X94459986Y-36696056D01*
X94413284Y-36693663D01*
X94362308Y-36691455D01*
X94307402Y-36689430D01*
X94248906Y-36687589D01*
X94187163Y-36685932D01*
X94122515Y-36684460D01*
X94055303Y-36683171D01*
X93985869Y-36682067D01*
X93914555Y-36681147D01*
X93841703Y-36680410D01*
X93767655Y-36679858D01*
X93692752Y-36679490D01*
X93617337Y-36679306D01*
X93541751Y-36679306D01*
X93466335Y-36679490D01*
X93391433Y-36679858D01*
X93317385Y-36680410D01*
X93244533Y-36681147D01*
X93173220Y-36682067D01*
X93103787Y-36683171D01*
X93036576Y-36684460D01*
X92971928Y-36685932D01*
X92910186Y-36687589D01*
X92851692Y-36689430D01*
X92796787Y-36691455D01*
X92745812Y-36693663D01*
X92699111Y-36696056D01*
X92657024Y-36698633D01*
X92619894Y-36701394D01*
X92588062Y-36704339D01*
X92561871Y-36707469D01*
X92541661Y-36710782D01*
X92527775Y-36714279D01*
X92520555Y-36717961D01*
X92513496Y-36729429D01*
X92507249Y-36749029D01*
X92501798Y-36777005D01*
X92497126Y-36813602D01*
X92493217Y-36859066D01*
X92490056Y-36913641D01*
X92487625Y-36977573D01*
X92485909Y-37051107D01*
X92484891Y-37134487D01*
X92484555Y-37227960D01*
X92484555Y-37701958D01*
X93746175Y-37701958D01*
X95007795Y-37701958D01*
X94998795Y-37042967D01*
X94997079Y-36925162D01*
X94995301Y-36821785D01*
X94993369Y-36731803D01*
X94991193Y-36654181D01*
X94988682Y-36587887D01*
X94985746Y-36531887D01*
X94982295Y-36485147D01*
X94978238Y-36446635D01*
X94973483Y-36415317D01*
X94967942Y-36390159D01*
X94961523Y-36370129D01*
X94954136Y-36354192D01*
X94945690Y-36341316D01*
X94936095Y-36330468D01*
X94929873Y-36324764D01*
X94922791Y-36319468D01*
X94914477Y-36314561D01*
X94904562Y-36310025D01*
X94892673Y-36305843D01*
X94878441Y-36301994D01*
X94861492Y-36298463D01*
X94841458Y-36295229D01*
X94817965Y-36292275D01*
X94790644Y-36289583D01*
X94759124Y-36287134D01*
X94723032Y-36284911D01*
X94681999Y-36282894D01*
X94635652Y-36281066D01*
X94583621Y-36279408D01*
X94525535Y-36277902D01*
X94461023Y-36276531D01*
X94389713Y-36275275D01*
X94311235Y-36274116D01*
X94225217Y-36273036D01*
X94131288Y-36272018D01*
X94029078Y-36271042D01*
X93918215Y-36270090D01*
X93798327Y-36269145D01*
X93669045Y-36268188D01*
X93541362Y-36267308D01*
X93421407Y-36266585D01*
X93308930Y-36266041D01*
X93203679Y-36265698D01*
X93105405Y-36265578D01*
X93013857Y-36265703D01*
X92928784Y-36266096D01*
X92849936Y-36266780D01*
X92777063Y-36267776D01*
X92709914Y-36269108D01*
X92648239Y-36270796D01*
X92591787Y-36272864D01*
X92540308Y-36275333D01*
X92493551Y-36278227D01*
X92451266Y-36281568D01*
X92413203Y-36285377D01*
X92379111Y-36289677D01*
X92348739Y-36294491D01*
X92321838Y-36299840D01*
X92298156Y-36305748D01*
X92277444Y-36312235D01*
X92259450Y-36319326D01*
X92243925Y-36327042D01*
X92230617Y-36335405D01*
X92219278Y-36344438D01*
X92209655Y-36354162D01*
X92201499Y-36364601D01*
X92194559Y-36375777D01*
X92188584Y-36387712D01*
X92183325Y-36400428D01*
X92181127Y-36409054D01*
X92178983Y-36423111D01*
X92176896Y-36442406D01*
X92174872Y-36466748D01*
X92172915Y-36495947D01*
X92171031Y-36529813D01*
X92169224Y-36568153D01*
X92167499Y-36610778D01*
X92165860Y-36657496D01*
X92164313Y-36708116D01*
X92162862Y-36762448D01*
X92161513Y-36820301D01*
X92160269Y-36881484D01*
X92159135Y-36945806D01*
X92158117Y-37013076D01*
X92157220Y-37083104D01*
X92156447Y-37155698D01*
X92155804Y-37230667D01*
X92155295Y-37307822D01*
X92154926Y-37386970D01*
X92154701Y-37467922D01*
X92154625Y-37550486D01*
X92154667Y-37663285D01*
X92154799Y-37768420D01*
X92155035Y-37866177D01*
X92155385Y-37956841D01*
X92155862Y-38040697D01*
X92156477Y-38118031D01*
X92157241Y-38189126D01*
X92158167Y-38254269D01*
X92159267Y-38313745D01*
X92160551Y-38367839D01*
X92162032Y-38416835D01*
X92163722Y-38461020D01*
X92165631Y-38500678D01*
X92167773Y-38536095D01*
X92170159Y-38567556D01*
X92172800Y-38595345D01*
X92175708Y-38619748D01*
X92178895Y-38641051D01*
X92182373Y-38659538D01*
X92186153Y-38675494D01*
X92190247Y-38689205D01*
X92194667Y-38700956D01*
X92199425Y-38711033D01*
X92224266Y-38764880D01*
X92238321Y-38811691D01*
X92241488Y-38853135D01*
X92233662Y-38890882D01*
X92214742Y-38926601D01*
X92184625Y-38961962D01*
X92146858Y-38993257D01*
X92108673Y-39012395D01*
X92070696Y-39019359D01*
X92033554Y-39014135D01*
X91997872Y-38996707D01*
X91964275Y-38967061D01*
X91964155Y-38967084D01*
X91941641Y-38933982D01*
X91926400Y-38894106D01*
X91918457Y-38849901D01*
X91917837Y-38803813D01*
X91924563Y-38758288D01*
X91938661Y-38715772D01*
X91960155Y-38678712D01*
X91964801Y-38671479D01*
X91969120Y-38662314D01*
X91973124Y-38650914D01*
X91976823Y-38636977D01*
X91980228Y-38620200D01*
X91983352Y-38600282D01*
X91986205Y-38576919D01*
X91988799Y-38549811D01*
X91991144Y-38518655D01*
X91993251Y-38483148D01*
X91995133Y-38442988D01*
X91996800Y-38397874D01*
X91998263Y-38347502D01*
X91999533Y-38291572D01*
X92000623Y-38229780D01*
X92001542Y-38161824D01*
X92002302Y-38087402D01*
X92002915Y-38006213D01*
X92003391Y-37917953D01*
X92003742Y-37822321D01*
X92003979Y-37719014D01*
X92004113Y-37607730D01*
X92004155Y-37488168D01*
X92004224Y-37404538D01*
X92004429Y-37322546D01*
X92004765Y-37242361D01*
X92005228Y-37164155D01*
X92005815Y-37088098D01*
X92006521Y-37014358D01*
X92007342Y-36943108D01*
X92008274Y-36874517D01*
X92009314Y-36808755D01*
X92010456Y-36745992D01*
X92011698Y-36686399D01*
X92013035Y-36630145D01*
X92014463Y-36577402D01*
X92015978Y-36528339D01*
X92017575Y-36483127D01*
X92019252Y-36441935D01*
X92021003Y-36404934D01*
X92022825Y-36372294D01*
X92024714Y-36344186D01*
X92026665Y-36320779D01*
X92028675Y-36302244D01*
X92030740Y-36288751D01*
X92032855Y-36280470D01*
X92050511Y-36246934D01*
X92077355Y-36211349D01*
X92109749Y-36177961D01*
X92144055Y-36151016D01*
X92152405Y-36145825D01*
X92161288Y-36140976D01*
X92171009Y-36136456D01*
X92181873Y-36132255D01*
X92194186Y-36128360D01*
X92208252Y-36124760D01*
X92224377Y-36121444D01*
X92242867Y-36118400D01*
X92264026Y-36115616D01*
X92288159Y-36113081D01*
X92315573Y-36110785D01*
X92346571Y-36108714D01*
X92381460Y-36106857D01*
X92420545Y-36105204D01*
X92464131Y-36103743D01*
X92512522Y-36102461D01*
X92566026Y-36101348D01*
X92624945Y-36100393D01*
X92689587Y-36099582D01*
X92760256Y-36098906D01*
X92837258Y-36098353D01*
X92920896Y-36097910D01*
X93011478Y-36097568D01*
X93109308Y-36097313D01*
X93214692Y-36097135D01*
X93327934Y-36097022D01*
X93449340Y-36096963D01*
X93579215Y-36096946D01*
X93709093Y-36096963D01*
G37*
%TD.AperFunction*%
%TA.AperFunction,EtchedComponent*%
G36*
X100645545Y-37349135D02*
G01*
X100645627Y-37474156D01*
X100645750Y-37592979D01*
X100645917Y-37705762D01*
X100646132Y-37812663D01*
X100646398Y-37913841D01*
X100646720Y-38009453D01*
X100647102Y-38099658D01*
X100647547Y-38184614D01*
X100648059Y-38264478D01*
X100648642Y-38339410D01*
X100649301Y-38409566D01*
X100650038Y-38475105D01*
X100650857Y-38536186D01*
X100651763Y-38592965D01*
X100652760Y-38645602D01*
X100653851Y-38694254D01*
X100655039Y-38739080D01*
X100656330Y-38780237D01*
X100657727Y-38817884D01*
X100659233Y-38852178D01*
X100660852Y-38883278D01*
X100662589Y-38911342D01*
X100664448Y-38936528D01*
X100666431Y-38958994D01*
X100668543Y-38978898D01*
X100670788Y-38996398D01*
X100673170Y-39011652D01*
X100675692Y-39024819D01*
X100678358Y-39036055D01*
X100681173Y-39045521D01*
X100684140Y-39053373D01*
X100687263Y-39059769D01*
X100690545Y-39064868D01*
X100715603Y-39107162D01*
X100729441Y-39151779D01*
X100732158Y-39197128D01*
X100723849Y-39241615D01*
X100704612Y-39283648D01*
X100674545Y-39321634D01*
X100637234Y-39354194D01*
X100602694Y-39373017D01*
X100568395Y-39378507D01*
X100531805Y-39371071D01*
X100490395Y-39351115D01*
X100490355Y-39351427D01*
X100461595Y-39327823D01*
X100439958Y-39295873D01*
X100425723Y-39257413D01*
X100419167Y-39214277D01*
X100420568Y-39168302D01*
X100430205Y-39121323D01*
X100448355Y-39075176D01*
X100451980Y-39067247D01*
X100455415Y-39058266D01*
X100458665Y-39048059D01*
X100461734Y-39036447D01*
X100464628Y-39023257D01*
X100467351Y-39008311D01*
X100469909Y-38991434D01*
X100472307Y-38972450D01*
X100474548Y-38951183D01*
X100476639Y-38927457D01*
X100478584Y-38901097D01*
X100480388Y-38871925D01*
X100482056Y-38839767D01*
X100483592Y-38804447D01*
X100485003Y-38765788D01*
X100486292Y-38723614D01*
X100487466Y-38677751D01*
X100488527Y-38628021D01*
X100489483Y-38574249D01*
X100490336Y-38516259D01*
X100491094Y-38453875D01*
X100491759Y-38386922D01*
X100492338Y-38315222D01*
X100492835Y-38238601D01*
X100493255Y-38156883D01*
X100493603Y-38069890D01*
X100493884Y-37977449D01*
X100494102Y-37879382D01*
X100494264Y-37775514D01*
X100494373Y-37665669D01*
X100494435Y-37549671D01*
X100494455Y-37427344D01*
X100494455Y-35871956D01*
X100002885Y-35871956D01*
X99511315Y-35871956D01*
X98919455Y-36591956D01*
X98865702Y-36657246D01*
X98813095Y-36720943D01*
X98761854Y-36782789D01*
X98712199Y-36842523D01*
X98664351Y-36899888D01*
X98618530Y-36954622D01*
X98574957Y-37006468D01*
X98533853Y-37055165D01*
X98495437Y-37100456D01*
X98459931Y-37142079D01*
X98427555Y-37179776D01*
X98398530Y-37213289D01*
X98373075Y-37242357D01*
X98351412Y-37266721D01*
X98333761Y-37286122D01*
X98320342Y-37300301D01*
X98311377Y-37308999D01*
X98307085Y-37311956D01*
X98302788Y-37308999D01*
X98293810Y-37300301D01*
X98280374Y-37286122D01*
X98262698Y-37266721D01*
X98241004Y-37242357D01*
X98215513Y-37213289D01*
X98186446Y-37179776D01*
X98154023Y-37142079D01*
X98118465Y-37100456D01*
X98079993Y-37055165D01*
X98038828Y-37006468D01*
X97995190Y-36954622D01*
X97949301Y-36899888D01*
X97901380Y-36842523D01*
X97851650Y-36782789D01*
X97800330Y-36720943D01*
X97747641Y-36657246D01*
X97693805Y-36591956D01*
X97101055Y-35871956D01*
X96607755Y-35871956D01*
X96114455Y-35871956D01*
X96114455Y-37508124D01*
X96114455Y-39144292D01*
X96376955Y-39135592D01*
X96639455Y-39126891D01*
X96639455Y-37814386D01*
X96639455Y-36501882D01*
X96762145Y-36501886D01*
X96884835Y-36501892D01*
X97587145Y-37356545D01*
X97639407Y-37420087D01*
X97690751Y-37482403D01*
X97741035Y-37543324D01*
X97790118Y-37602682D01*
X97837858Y-37660307D01*
X97884113Y-37716032D01*
X97928740Y-37769688D01*
X97971599Y-37821106D01*
X98012547Y-37870117D01*
X98051443Y-37916553D01*
X98088144Y-37960245D01*
X98122508Y-38001025D01*
X98154395Y-38038724D01*
X98183661Y-38073173D01*
X98210166Y-38104204D01*
X98233766Y-38131648D01*
X98254321Y-38155337D01*
X98271689Y-38175101D01*
X98285726Y-38190773D01*
X98296293Y-38202183D01*
X98303247Y-38209164D01*
X98306445Y-38211546D01*
X98309601Y-38209213D01*
X98316518Y-38202280D01*
X98327054Y-38190913D01*
X98341067Y-38175283D01*
X98358414Y-38155557D01*
X98378954Y-38131904D01*
X98402543Y-38104492D01*
X98429039Y-38073490D01*
X98458300Y-38039067D01*
X98490184Y-38001391D01*
X98524547Y-37960630D01*
X98561249Y-37916954D01*
X98600145Y-37870530D01*
X98641095Y-37821527D01*
X98683954Y-37770114D01*
X98728582Y-37716459D01*
X98774836Y-37660731D01*
X98822573Y-37603099D01*
X98871650Y-37543730D01*
X98921927Y-37482794D01*
X98973259Y-37420458D01*
X99025505Y-37356893D01*
X99727585Y-36501892D01*
X99856025Y-36501892D01*
X99984455Y-36501892D01*
X99984455Y-37821891D01*
X99984455Y-39141890D01*
X100075355Y-39141890D01*
X100166255Y-39141890D01*
X100158255Y-37745781D01*
X100157501Y-37620821D01*
X100156735Y-37503313D01*
X100155947Y-37393031D01*
X100155129Y-37289746D01*
X100154273Y-37193234D01*
X100153371Y-37103266D01*
X100152414Y-37019615D01*
X100151394Y-36942056D01*
X100150303Y-36870361D01*
X100149131Y-36804302D01*
X100147872Y-36743654D01*
X100146516Y-36688190D01*
X100145054Y-36637682D01*
X100143480Y-36591903D01*
X100141784Y-36550628D01*
X100139958Y-36513628D01*
X100137993Y-36480677D01*
X100135882Y-36451549D01*
X100133615Y-36426015D01*
X100131185Y-36403850D01*
X100128583Y-36384827D01*
X100125801Y-36368718D01*
X100122830Y-36355297D01*
X100119663Y-36344337D01*
X100116290Y-36335611D01*
X100112703Y-36328892D01*
X100108894Y-36323953D01*
X100104855Y-36320567D01*
X100079933Y-36311782D01*
X100037770Y-36304890D01*
X99982632Y-36300251D01*
X99918785Y-36298223D01*
X99850495Y-36299168D01*
X99641145Y-36306867D01*
X98987375Y-37101868D01*
X98936367Y-37163762D01*
X98886179Y-37224394D01*
X98836969Y-37283583D01*
X98788891Y-37341150D01*
X98742103Y-37396914D01*
X98696762Y-37450696D01*
X98653025Y-37502314D01*
X98611047Y-37551588D01*
X98570985Y-37598339D01*
X98532997Y-37642385D01*
X98497238Y-37683547D01*
X98463865Y-37721645D01*
X98433036Y-37756498D01*
X98404905Y-37787925D01*
X98379631Y-37815747D01*
X98357370Y-37839783D01*
X98338278Y-37859854D01*
X98322512Y-37875778D01*
X98310228Y-37887375D01*
X98301584Y-37894466D01*
X98296735Y-37896869D01*
X98290014Y-37893597D01*
X98278177Y-37884010D01*
X98261533Y-37868453D01*
X98240392Y-37847273D01*
X98215062Y-37820814D01*
X98185854Y-37789421D01*
X98153077Y-37753441D01*
X98117039Y-37713218D01*
X98078051Y-37669097D01*
X98036421Y-37621424D01*
X97992459Y-37570545D01*
X97946474Y-37516804D01*
X97898775Y-37460548D01*
X97849673Y-37402120D01*
X97799475Y-37341868D01*
X97761168Y-37295696D01*
X97722326Y-37248897D01*
X97683124Y-37201682D01*
X97643738Y-37154260D01*
X97604344Y-37106842D01*
X97565115Y-37059640D01*
X97526229Y-37012864D01*
X97487860Y-36966724D01*
X97450183Y-36921431D01*
X97413374Y-36877196D01*
X97377608Y-36834229D01*
X97343060Y-36792742D01*
X97309906Y-36752944D01*
X97278320Y-36715046D01*
X97248480Y-36679260D01*
X97220558Y-36645796D01*
X97194732Y-36614864D01*
X97171176Y-36586675D01*
X97150065Y-36561439D01*
X97131575Y-36539368D01*
X96924045Y-36291869D01*
X96720455Y-36291869D01*
X96652099Y-36293602D01*
X96591016Y-36298510D01*
X96540151Y-36306150D01*
X96502449Y-36316084D01*
X96480855Y-36327868D01*
X96477470Y-36332951D01*
X96474279Y-36341308D01*
X96471277Y-36353074D01*
X96468461Y-36368381D01*
X96465826Y-36387363D01*
X96463368Y-36410152D01*
X96461084Y-36436883D01*
X96458969Y-36467687D01*
X96457019Y-36502699D01*
X96455231Y-36542051D01*
X96453600Y-36585877D01*
X96452123Y-36634310D01*
X96450795Y-36687482D01*
X96449612Y-36745528D01*
X96448571Y-36808579D01*
X96447668Y-36876770D01*
X96446897Y-36950234D01*
X96446257Y-37029103D01*
X96445741Y-37113512D01*
X96445348Y-37203592D01*
X96445071Y-37299477D01*
X96444908Y-37401301D01*
X96444855Y-37509196D01*
X96444891Y-37632663D01*
X96445009Y-37747250D01*
X96445221Y-37853289D01*
X96445541Y-37951115D01*
X96445983Y-38041059D01*
X96446559Y-38123455D01*
X96447283Y-38198635D01*
X96448169Y-38266933D01*
X96449229Y-38328681D01*
X96450477Y-38384212D01*
X96451926Y-38433860D01*
X96453589Y-38477957D01*
X96455481Y-38516835D01*
X96457613Y-38550829D01*
X96460000Y-38580270D01*
X96462655Y-38605492D01*
X96465591Y-38626827D01*
X96468821Y-38644609D01*
X96472359Y-38659170D01*
X96476219Y-38670844D01*
X96480412Y-38679963D01*
X96484953Y-38686860D01*
X96489855Y-38691867D01*
X96513569Y-38719762D01*
X96528285Y-38754849D01*
X96534695Y-38795052D01*
X96533490Y-38838297D01*
X96525360Y-38882508D01*
X96510996Y-38925611D01*
X96491089Y-38965530D01*
X96466331Y-39000190D01*
X96437412Y-39027516D01*
X96405023Y-39045434D01*
X96369855Y-39051867D01*
X96334052Y-39043279D01*
X96296910Y-39020218D01*
X96261978Y-38986740D01*
X96232803Y-38946901D01*
X96212936Y-38904759D01*
X96205925Y-38864369D01*
X96212378Y-38820089D01*
X96228112Y-38768896D01*
X96249825Y-38721868D01*
X96253777Y-38713919D01*
X96257492Y-38704165D01*
X96260977Y-38692390D01*
X96264239Y-38678377D01*
X96267285Y-38661908D01*
X96270122Y-38642767D01*
X96272757Y-38620737D01*
X96275196Y-38595600D01*
X96277448Y-38567139D01*
X96279518Y-38535137D01*
X96281414Y-38499378D01*
X96283143Y-38459643D01*
X96284713Y-38415715D01*
X96286128Y-38367379D01*
X96287398Y-38314415D01*
X96288529Y-38256608D01*
X96289528Y-38193741D01*
X96290401Y-38125595D01*
X96291157Y-38051954D01*
X96291801Y-37972601D01*
X96292341Y-37887319D01*
X96292784Y-37795890D01*
X96293137Y-37698097D01*
X96293407Y-37593724D01*
X96293600Y-37482553D01*
X96293725Y-37364367D01*
X96294725Y-36081867D01*
X96654685Y-36081867D01*
X97014645Y-36081867D01*
X97649545Y-36847749D01*
X97701528Y-36910292D01*
X97752605Y-36971418D01*
X97802599Y-37030927D01*
X97851335Y-37088623D01*
X97898638Y-37144307D01*
X97944334Y-37197779D01*
X97988246Y-37248843D01*
X98030200Y-37297300D01*
X98070019Y-37342952D01*
X98107530Y-37385599D01*
X98142556Y-37425044D01*
X98174923Y-37461089D01*
X98204455Y-37493536D01*
X98230977Y-37522185D01*
X98254314Y-37546838D01*
X98274290Y-37567298D01*
X98290731Y-37583366D01*
X98303460Y-37594844D01*
X98312303Y-37601533D01*
X98317085Y-37603236D01*
X98321857Y-37599875D01*
X98330657Y-37591637D01*
X98343312Y-37578722D01*
X98359648Y-37561332D01*
X98379490Y-37539666D01*
X98402665Y-37513927D01*
X98428999Y-37484314D01*
X98458318Y-37451029D01*
X98490449Y-37414273D01*
X98525218Y-37374245D01*
X98562450Y-37331148D01*
X98601972Y-37285182D01*
X98643610Y-37236548D01*
X98687190Y-37185446D01*
X98732539Y-37132077D01*
X98779482Y-37076643D01*
X98827847Y-37019345D01*
X98877458Y-36960382D01*
X98928142Y-36899956D01*
X98979725Y-36838267D01*
X99609725Y-36083698D01*
X99962225Y-36082599D01*
X100314725Y-36081499D01*
X100314725Y-37701499D01*
X100314725Y-39321499D01*
X100074725Y-39321499D01*
X99834725Y-39321499D01*
X99834725Y-37999133D01*
X99834674Y-37915191D01*
X99834523Y-37832721D01*
X99834275Y-37751873D01*
X99833933Y-37672798D01*
X99833501Y-37595647D01*
X99832980Y-37520570D01*
X99832374Y-37447717D01*
X99831687Y-37377241D01*
X99830920Y-37309291D01*
X99830078Y-37244017D01*
X99829162Y-37181571D01*
X99828177Y-37122104D01*
X99827125Y-37065765D01*
X99826009Y-37012706D01*
X99824832Y-36963077D01*
X99823597Y-36917029D01*
X99822307Y-36874712D01*
X99820966Y-36836277D01*
X99819575Y-36801876D01*
X99818139Y-36771657D01*
X99816659Y-36745773D01*
X99815140Y-36724373D01*
X99813584Y-36707609D01*
X99811994Y-36695631D01*
X99810374Y-36688590D01*
X99808725Y-36686635D01*
X99805016Y-36689596D01*
X99797707Y-36696940D01*
X99786931Y-36708511D01*
X99772818Y-36724154D01*
X99755500Y-36743713D01*
X99735109Y-36767033D01*
X99711777Y-36793957D01*
X99685636Y-36824331D01*
X99656816Y-36857999D01*
X99625450Y-36894806D01*
X99591669Y-36934595D01*
X99555605Y-36977211D01*
X99517389Y-37022498D01*
X99477154Y-37070302D01*
X99435031Y-37120465D01*
X99391151Y-37172834D01*
X99345647Y-37227252D01*
X99298650Y-37283563D01*
X99250291Y-37341613D01*
X99200702Y-37401244D01*
X99150016Y-37462303D01*
X99098363Y-37524633D01*
X99045875Y-37588078D01*
X98309005Y-38479525D01*
X97968395Y-38068079D01*
X97943150Y-38037578D01*
X97916368Y-38005210D01*
X97888178Y-37971131D01*
X97858708Y-37935496D01*
X97828086Y-37898460D01*
X97796440Y-37860178D01*
X97763898Y-37820806D01*
X97730589Y-37780498D01*
X97696641Y-37739410D01*
X97662181Y-37697697D01*
X97627339Y-37655514D01*
X97592241Y-37613016D01*
X97557017Y-37570358D01*
X97521794Y-37527696D01*
X97486700Y-37485185D01*
X97451865Y-37442979D01*
X97417415Y-37401234D01*
X97383479Y-37360106D01*
X97350185Y-37319748D01*
X97317662Y-37280318D01*
X97286037Y-37241968D01*
X97255439Y-37204856D01*
X97225995Y-37169135D01*
X97175578Y-37108203D01*
X97126591Y-37049468D01*
X97079442Y-36993396D01*
X97034540Y-36940452D01*
X96992291Y-36891103D01*
X96953105Y-36845815D01*
X96917391Y-36805053D01*
X96885555Y-36769284D01*
X96858007Y-36738973D01*
X96835155Y-36714587D01*
X96817407Y-36696592D01*
X96805171Y-36685453D01*
X96798855Y-36681637D01*
X96797268Y-36684246D01*
X96795739Y-36691971D01*
X96794269Y-36704652D01*
X96792862Y-36722132D01*
X96791518Y-36744253D01*
X96790240Y-36770859D01*
X96789030Y-36801790D01*
X96787890Y-36836889D01*
X96786822Y-36875999D01*
X96785827Y-36918961D01*
X96784908Y-36965619D01*
X96784067Y-37015814D01*
X96783305Y-37069388D01*
X96782625Y-37126185D01*
X96782029Y-37186045D01*
X96781518Y-37248813D01*
X96781095Y-37314329D01*
X96780761Y-37382435D01*
X96780519Y-37452976D01*
X96780371Y-37525792D01*
X96780318Y-37600725D01*
X96780362Y-37677619D01*
X96780506Y-37756316D01*
X96780752Y-37836657D01*
X96781101Y-37918485D01*
X96781555Y-38001643D01*
X96789555Y-39321652D01*
X96377045Y-39321645D01*
X95964555Y-39321634D01*
X95964555Y-37506636D01*
X95964555Y-35691637D01*
X96563825Y-35691637D01*
X97163085Y-35691637D01*
X97592105Y-36209136D01*
X97633886Y-36259576D01*
X97675790Y-36310243D01*
X97717576Y-36360842D01*
X97759002Y-36411081D01*
X97799829Y-36460665D01*
X97839815Y-36509298D01*
X97878719Y-36556689D01*
X97916302Y-36602541D01*
X97952322Y-36646561D01*
X97986539Y-36688455D01*
X98018711Y-36727928D01*
X98048598Y-36764687D01*
X98075960Y-36798436D01*
X98100555Y-36828882D01*
X98122143Y-36855731D01*
X98140483Y-36878688D01*
X98155335Y-36897459D01*
X98198400Y-36951315D01*
X98237363Y-36998224D01*
X98269716Y-37035312D01*
X98292949Y-37059704D01*
X98304555Y-37068526D01*
X98308195Y-37065719D01*
X98316311Y-37057421D01*
X98328691Y-37043881D01*
X98345128Y-37025346D01*
X98365411Y-37002064D01*
X98389332Y-36974284D01*
X98416680Y-36942252D01*
X98447247Y-36906217D01*
X98480824Y-36866426D01*
X98517200Y-36823127D01*
X98556167Y-36776569D01*
X98597515Y-36726999D01*
X98641035Y-36674664D01*
X98686517Y-36619813D01*
X98733753Y-36562693D01*
X98782532Y-36503553D01*
X98832646Y-36442639D01*
X98883885Y-36380200D01*
X99448215Y-35691636D01*
X100046385Y-35691636D01*
X100644545Y-35691636D01*
X100645545Y-37349135D01*
G37*
%TD.AperFunction*%
%TA.AperFunction,EtchedComponent*%
G36*
X102818105Y-35698620D02*
G01*
X102956980Y-35699309D01*
X103088161Y-35699976D01*
X103211886Y-35700630D01*
X103328391Y-35701280D01*
X103437911Y-35701936D01*
X103540684Y-35702606D01*
X103636945Y-35703300D01*
X103726931Y-35704027D01*
X103810878Y-35704795D01*
X103889023Y-35705616D01*
X103961601Y-35706496D01*
X104028850Y-35707446D01*
X104091006Y-35708475D01*
X104148304Y-35709592D01*
X104200982Y-35710805D01*
X104249274Y-35712125D01*
X104293419Y-35713561D01*
X104333652Y-35715120D01*
X104370210Y-35716814D01*
X104403328Y-35718650D01*
X104433244Y-35720638D01*
X104460193Y-35722787D01*
X104484411Y-35725107D01*
X104506136Y-35727606D01*
X104525604Y-35730294D01*
X104543050Y-35733179D01*
X104558711Y-35736272D01*
X104572824Y-35739580D01*
X104585624Y-35743114D01*
X104597349Y-35746883D01*
X104608234Y-35750894D01*
X104618516Y-35755159D01*
X104628431Y-35759685D01*
X104638215Y-35764483D01*
X104648105Y-35769560D01*
X104671656Y-35782506D01*
X104694093Y-35796294D01*
X104715439Y-35811038D01*
X104735714Y-35826853D01*
X104754941Y-35843853D01*
X104773142Y-35862152D01*
X104790339Y-35881866D01*
X104806555Y-35903107D01*
X104821810Y-35925991D01*
X104836127Y-35950631D01*
X104849529Y-35977143D01*
X104862036Y-36005640D01*
X104873672Y-36036236D01*
X104884458Y-36069047D01*
X104894416Y-36104186D01*
X104903568Y-36141767D01*
X104911936Y-36181905D01*
X104919543Y-36224715D01*
X104926409Y-36270310D01*
X104932558Y-36318804D01*
X104938012Y-36370313D01*
X104942791Y-36424951D01*
X104946919Y-36482831D01*
X104950417Y-36544069D01*
X104953307Y-36608777D01*
X104955612Y-36677072D01*
X104957352Y-36749066D01*
X104958552Y-36824875D01*
X104959231Y-36904613D01*
X104959413Y-36988393D01*
X104959120Y-37076331D01*
X104958372Y-37168541D01*
X104957193Y-37265136D01*
X104955605Y-37366231D01*
X104953642Y-37472714D01*
X104951518Y-37571948D01*
X104949184Y-37664241D01*
X104946587Y-37749905D01*
X104943678Y-37829247D01*
X104940405Y-37902577D01*
X104936717Y-37970205D01*
X104932564Y-38032440D01*
X104927895Y-38089590D01*
X104922658Y-38141966D01*
X104916804Y-38189877D01*
X104910280Y-38233631D01*
X104903037Y-38273539D01*
X104895023Y-38309909D01*
X104886187Y-38343051D01*
X104876479Y-38373275D01*
X104865848Y-38400888D01*
X104854243Y-38426202D01*
X104841612Y-38449524D01*
X104827906Y-38471164D01*
X104813073Y-38491433D01*
X104797062Y-38510638D01*
X104779823Y-38529089D01*
X104761305Y-38547095D01*
X104745525Y-38561853D01*
X104730655Y-38575670D01*
X104716400Y-38588582D01*
X104702462Y-38600622D01*
X104688545Y-38611824D01*
X104674354Y-38622223D01*
X104659591Y-38631853D01*
X104643961Y-38640747D01*
X104627167Y-38648939D01*
X104608913Y-38656464D01*
X104588902Y-38663356D01*
X104566838Y-38669648D01*
X104542425Y-38675375D01*
X104515367Y-38680571D01*
X104485366Y-38685270D01*
X104452128Y-38689505D01*
X104415354Y-38693311D01*
X104374750Y-38696722D01*
X104330019Y-38699772D01*
X104280864Y-38702495D01*
X104226989Y-38704925D01*
X104168098Y-38707096D01*
X104103895Y-38709042D01*
X104034083Y-38710797D01*
X103958365Y-38712395D01*
X103876446Y-38713871D01*
X103788029Y-38715257D01*
X103692818Y-38716589D01*
X103590516Y-38717900D01*
X103480828Y-38719225D01*
X103363456Y-38720596D01*
X103238105Y-38722049D01*
X101948105Y-38737039D01*
X101939105Y-38874668D01*
X101937863Y-38938991D01*
X101943418Y-38988726D01*
X101956191Y-39025476D01*
X101976605Y-39050842D01*
X102001465Y-39081702D01*
X102016351Y-39122459D01*
X102021271Y-39169657D01*
X102016236Y-39219844D01*
X102001254Y-39269565D01*
X101976335Y-39315364D01*
X101944617Y-39348510D01*
X101905922Y-39370023D01*
X101863191Y-39379661D01*
X101819365Y-39377179D01*
X101777382Y-39362335D01*
X101740185Y-39334884D01*
X101741655Y-39334806D01*
X101716829Y-39299553D01*
X101701677Y-39255518D01*
X101696242Y-39206382D01*
X101700566Y-39155826D01*
X101714690Y-39107533D01*
X101738655Y-39065181D01*
X101752224Y-39040961D01*
X101763344Y-39007359D01*
X101772030Y-38964241D01*
X101778299Y-38911469D01*
X101782169Y-38848910D01*
X101783655Y-38776427D01*
X101784655Y-38545907D01*
X103097155Y-38536406D01*
X103225823Y-38535460D01*
X103345903Y-38534537D01*
X103457724Y-38533624D01*
X103561614Y-38532703D01*
X103657901Y-38531758D01*
X103746915Y-38530774D01*
X103828982Y-38529735D01*
X103904433Y-38528625D01*
X103973595Y-38527428D01*
X104036797Y-38526127D01*
X104094367Y-38524708D01*
X104146633Y-38523154D01*
X104193925Y-38521448D01*
X104236570Y-38519577D01*
X104274897Y-38517522D01*
X104309235Y-38515268D01*
X104339911Y-38512800D01*
X104367255Y-38510102D01*
X104391595Y-38507156D01*
X104413258Y-38503949D01*
X104432575Y-38500463D01*
X104449873Y-38496682D01*
X104465480Y-38492592D01*
X104479725Y-38488175D01*
X104492937Y-38483416D01*
X104505443Y-38478299D01*
X104517573Y-38472808D01*
X104529655Y-38466927D01*
X104569394Y-38444479D01*
X104605144Y-38418700D01*
X104637404Y-38389074D01*
X104666673Y-38355081D01*
X104693450Y-38316205D01*
X104718235Y-38271927D01*
X104727070Y-38254379D01*
X104735106Y-38237734D01*
X104742375Y-38221397D01*
X104748910Y-38204771D01*
X104754744Y-38187260D01*
X104759910Y-38168270D01*
X104764439Y-38147203D01*
X104768365Y-38123465D01*
X104771719Y-38096459D01*
X104774536Y-38065590D01*
X104776847Y-38030262D01*
X104778686Y-37989878D01*
X104780084Y-37943843D01*
X104781074Y-37891562D01*
X104781689Y-37832438D01*
X104781962Y-37765876D01*
X104781925Y-37691279D01*
X104781611Y-37608053D01*
X104781052Y-37515600D01*
X104780282Y-37413326D01*
X104779332Y-37300634D01*
X104778235Y-37176929D01*
X104777111Y-37053778D01*
X104776001Y-36941437D01*
X104774868Y-36839345D01*
X104773676Y-36746936D01*
X104772387Y-36663649D01*
X104770966Y-36588919D01*
X104769376Y-36522184D01*
X104767579Y-36462880D01*
X104765541Y-36410445D01*
X104763223Y-36364315D01*
X104760589Y-36323926D01*
X104757603Y-36288716D01*
X104754228Y-36258121D01*
X104750428Y-36231578D01*
X104746165Y-36208524D01*
X104741404Y-36188396D01*
X104736107Y-36170630D01*
X104730238Y-36154664D01*
X104723761Y-36139933D01*
X104716639Y-36125876D01*
X104708835Y-36111928D01*
X104683521Y-36075595D01*
X104649956Y-36038269D01*
X104611049Y-36002610D01*
X104569706Y-35971276D01*
X104528835Y-35946927D01*
X104518549Y-35941862D01*
X104508235Y-35937086D01*
X104497648Y-35932589D01*
X104486545Y-35928362D01*
X104474680Y-35924393D01*
X104461810Y-35920674D01*
X104447691Y-35917194D01*
X104432078Y-35913943D01*
X104414728Y-35910911D01*
X104395396Y-35908088D01*
X104373837Y-35905465D01*
X104349809Y-35903031D01*
X104323066Y-35900776D01*
X104293364Y-35898690D01*
X104260460Y-35896764D01*
X104224109Y-35894987D01*
X104184067Y-35893349D01*
X104140090Y-35891841D01*
X104091934Y-35890452D01*
X104039354Y-35889172D01*
X103982106Y-35887992D01*
X103919946Y-35886901D01*
X103852630Y-35885890D01*
X103779915Y-35884948D01*
X103701554Y-35884065D01*
X103617306Y-35883232D01*
X103526924Y-35882438D01*
X103430166Y-35881674D01*
X103326786Y-35880930D01*
X103216542Y-35880195D01*
X103099188Y-35879459D01*
X102974480Y-35878713D01*
X102842175Y-35877947D01*
X101274675Y-35868947D01*
X101274675Y-37507425D01*
X101274675Y-39145904D01*
X101357175Y-39136404D01*
X101439675Y-39126904D01*
X101447675Y-38624402D01*
X101455675Y-38121904D01*
X101537475Y-38117705D01*
X101544574Y-38117493D01*
X101556135Y-38117308D01*
X101572021Y-38117149D01*
X101592096Y-38117016D01*
X101616221Y-38116910D01*
X101644260Y-38116829D01*
X101676075Y-38116774D01*
X101711528Y-38116744D01*
X101750483Y-38116739D01*
X101792802Y-38116760D01*
X101838348Y-38116805D01*
X101886983Y-38116875D01*
X101938570Y-38116970D01*
X101992971Y-38117089D01*
X102050050Y-38117232D01*
X102109670Y-38117399D01*
X102171691Y-38117589D01*
X102235979Y-38117804D01*
X102302394Y-38118042D01*
X102370800Y-38118303D01*
X102441060Y-38118587D01*
X102513035Y-38118894D01*
X102586589Y-38119223D01*
X102661585Y-38119575D01*
X102737885Y-38119949D01*
X102815351Y-38120346D01*
X102893847Y-38120764D01*
X102973235Y-38121205D01*
X103112193Y-38121986D01*
X103241325Y-38122691D01*
X103361009Y-38123305D01*
X103471624Y-38123813D01*
X103573549Y-38124200D01*
X103667163Y-38124451D01*
X103752845Y-38124551D01*
X103830973Y-38124486D01*
X103901926Y-38124240D01*
X103966084Y-38123798D01*
X104023825Y-38123146D01*
X104075527Y-38122268D01*
X104121571Y-38121150D01*
X104162334Y-38119777D01*
X104198195Y-38118134D01*
X104229534Y-38116205D01*
X104256729Y-38113976D01*
X104280159Y-38111432D01*
X104300203Y-38108559D01*
X104317240Y-38105340D01*
X104331649Y-38101762D01*
X104343807Y-38097809D01*
X104354095Y-38093466D01*
X104362892Y-38088718D01*
X104370575Y-38083552D01*
X104377524Y-38077950D01*
X104384118Y-38071900D01*
X104390735Y-38065385D01*
X104400966Y-38054739D01*
X104410036Y-38043864D01*
X104418015Y-38031829D01*
X104424972Y-38017704D01*
X104430978Y-38000557D01*
X104436101Y-37979459D01*
X104440412Y-37953480D01*
X104443982Y-37921689D01*
X104446879Y-37883155D01*
X104449173Y-37836948D01*
X104450935Y-37782139D01*
X104452235Y-37717795D01*
X104453141Y-37642988D01*
X104453724Y-37556786D01*
X104454055Y-37458260D01*
X104454202Y-37346479D01*
X104454235Y-37220511D01*
X104454235Y-36439149D01*
X104380635Y-36365509D01*
X104307035Y-36291869D01*
X102955675Y-36291869D01*
X101604315Y-36291869D01*
X101604315Y-36997196D01*
X101604315Y-37702527D01*
X102856815Y-37694727D01*
X104109305Y-37686926D01*
X104117305Y-37213973D01*
X104125305Y-36741024D01*
X104046505Y-36711084D01*
X104037091Y-36708524D01*
X104022724Y-36706101D01*
X104003517Y-36703818D01*
X103979581Y-36701675D01*
X103951030Y-36699676D01*
X103917975Y-36697823D01*
X103880530Y-36696118D01*
X103838807Y-36694563D01*
X103792918Y-36693161D01*
X103742975Y-36691914D01*
X103689091Y-36690823D01*
X103631379Y-36689892D01*
X103569951Y-36689122D01*
X103504920Y-36688515D01*
X103436397Y-36688075D01*
X103364496Y-36687803D01*
X103289328Y-36687701D01*
X103211007Y-36687772D01*
X103129644Y-36688018D01*
X103045353Y-36688441D01*
X102958245Y-36689044D01*
X101948735Y-36696944D01*
X101939735Y-36960403D01*
X101937693Y-37040444D01*
X101937723Y-37105456D01*
X101940063Y-37157294D01*
X101944948Y-37197816D01*
X101952614Y-37228878D01*
X101963298Y-37252337D01*
X101977235Y-37270049D01*
X102000599Y-37301190D01*
X102015024Y-37337394D01*
X102021148Y-37376970D01*
X102019611Y-37418226D01*
X102011053Y-37459470D01*
X101996113Y-37499010D01*
X101975431Y-37535154D01*
X101949646Y-37566211D01*
X101919396Y-37590490D01*
X101885323Y-37606297D01*
X101848065Y-37611943D01*
X101810692Y-37606275D01*
X101777614Y-37590383D01*
X101749413Y-37565934D01*
X101726672Y-37534593D01*
X101709973Y-37498029D01*
X101699896Y-37457907D01*
X101697025Y-37415894D01*
X101701942Y-37373657D01*
X101715228Y-37332863D01*
X101737465Y-37295177D01*
X101747677Y-37278149D01*
X101756372Y-37255589D01*
X101763643Y-37226623D01*
X101769580Y-37190380D01*
X101774276Y-37145986D01*
X101777821Y-37092568D01*
X101780306Y-37029253D01*
X101781824Y-36955169D01*
X101782465Y-36869442D01*
X101783465Y-36501944D01*
X102992465Y-36501944D01*
X103101994Y-36501993D01*
X103205581Y-36502141D01*
X103303355Y-36502392D01*
X103395440Y-36502750D01*
X103481964Y-36503218D01*
X103563053Y-36503801D01*
X103638833Y-36504501D01*
X103709432Y-36505322D01*
X103774975Y-36506269D01*
X103835588Y-36507344D01*
X103891400Y-36508551D01*
X103942535Y-36509894D01*
X103989121Y-36511377D01*
X104031283Y-36513004D01*
X104069149Y-36514777D01*
X104102845Y-36516700D01*
X104132497Y-36518778D01*
X104158232Y-36521013D01*
X104180177Y-36523410D01*
X104198457Y-36525972D01*
X104213199Y-36528703D01*
X104224530Y-36531606D01*
X104232577Y-36534686D01*
X104237465Y-36537944D01*
X104242922Y-36548363D01*
X104247959Y-36567814D01*
X104252576Y-36595573D01*
X104256774Y-36630919D01*
X104260551Y-36673129D01*
X104263909Y-36721480D01*
X104266848Y-36775250D01*
X104269366Y-36833716D01*
X104271465Y-36896157D01*
X104273144Y-36961849D01*
X104274403Y-37030069D01*
X104275243Y-37100096D01*
X104275663Y-37171207D01*
X104275663Y-37242679D01*
X104275243Y-37313790D01*
X104274403Y-37383817D01*
X104273144Y-37452037D01*
X104271465Y-37517729D01*
X104269366Y-37580170D01*
X104266848Y-37638636D01*
X104263909Y-37692407D01*
X104260551Y-37740758D01*
X104256774Y-37782968D01*
X104252576Y-37818314D01*
X104247959Y-37846074D01*
X104242922Y-37865524D01*
X104237465Y-37875943D01*
X104233297Y-37878765D01*
X104226516Y-37881451D01*
X104217026Y-37884006D01*
X104204731Y-37886430D01*
X104189536Y-37888726D01*
X104171345Y-37890898D01*
X104150064Y-37892947D01*
X104125596Y-37894875D01*
X104097845Y-37896686D01*
X104066718Y-37898382D01*
X104032117Y-37899965D01*
X103993947Y-37901437D01*
X103952113Y-37902801D01*
X103906520Y-37904060D01*
X103857072Y-37905215D01*
X103803672Y-37906270D01*
X103746227Y-37907227D01*
X103684640Y-37908088D01*
X103618816Y-37908855D01*
X103548659Y-37909532D01*
X103474074Y-37910120D01*
X103394965Y-37910622D01*
X103311237Y-37911040D01*
X103222794Y-37911377D01*
X103129541Y-37911636D01*
X103031382Y-37911818D01*
X102928222Y-37911926D01*
X102819965Y-37911963D01*
X101438465Y-37911977D01*
X101446465Y-36996960D01*
X101454465Y-36081944D01*
X102871115Y-36083744D01*
X103002005Y-36083913D01*
X103125439Y-36084117D01*
X103241655Y-36084377D01*
X103350889Y-36084716D01*
X103453377Y-36085157D01*
X103549356Y-36085721D01*
X103639063Y-36086430D01*
X103722735Y-36087308D01*
X103800608Y-36088375D01*
X103872918Y-36089655D01*
X103939903Y-36091169D01*
X104001798Y-36092940D01*
X104058842Y-36094990D01*
X104111270Y-36097340D01*
X104159318Y-36100014D01*
X104203225Y-36103033D01*
X104243225Y-36106420D01*
X104279556Y-36110197D01*
X104312455Y-36114386D01*
X104342158Y-36119008D01*
X104368902Y-36124088D01*
X104392923Y-36129646D01*
X104414458Y-36135704D01*
X104433744Y-36142286D01*
X104451018Y-36149413D01*
X104466515Y-36157107D01*
X104480473Y-36165391D01*
X104493128Y-36174287D01*
X104504718Y-36183816D01*
X104515477Y-36194002D01*
X104525644Y-36204866D01*
X104535455Y-36216431D01*
X104545147Y-36228718D01*
X104554955Y-36241750D01*
X104564004Y-36254351D01*
X104572140Y-36266950D01*
X104579413Y-36280278D01*
X104585870Y-36295062D01*
X104591560Y-36312030D01*
X104596531Y-36331910D01*
X104600831Y-36355432D01*
X104604510Y-36383322D01*
X104607615Y-36416310D01*
X104610195Y-36455123D01*
X104612297Y-36500490D01*
X104613972Y-36553139D01*
X104615266Y-36613798D01*
X104616228Y-36683196D01*
X104616907Y-36762060D01*
X104617350Y-36851120D01*
X104617607Y-36951102D01*
X104617726Y-37062737D01*
X104617755Y-37186750D01*
X104617700Y-37302110D01*
X104617515Y-37407087D01*
X104617169Y-37502238D01*
X104616633Y-37588121D01*
X104615874Y-37665295D01*
X104614864Y-37734317D01*
X104613572Y-37795745D01*
X104611966Y-37850138D01*
X104610018Y-37898052D01*
X104607695Y-37940047D01*
X104604969Y-37976679D01*
X104601808Y-38008508D01*
X104598182Y-38036090D01*
X104594060Y-38059984D01*
X104589413Y-38080748D01*
X104584209Y-38098940D01*
X104578418Y-38115117D01*
X104572010Y-38129837D01*
X104564955Y-38143659D01*
X104556511Y-38159178D01*
X104548483Y-38173739D01*
X104540595Y-38187375D01*
X104532567Y-38200118D01*
X104524123Y-38212001D01*
X104514984Y-38223056D01*
X104504873Y-38233314D01*
X104493511Y-38242808D01*
X104480621Y-38251570D01*
X104465925Y-38259633D01*
X104449145Y-38267028D01*
X104430002Y-38273788D01*
X104408220Y-38279944D01*
X104383521Y-38285530D01*
X104355625Y-38290577D01*
X104324256Y-38295117D01*
X104289136Y-38299182D01*
X104249987Y-38302805D01*
X104206530Y-38306018D01*
X104158488Y-38308853D01*
X104105584Y-38311342D01*
X104047539Y-38313517D01*
X103984075Y-38315411D01*
X103914914Y-38317056D01*
X103839779Y-38318483D01*
X103758392Y-38319726D01*
X103670475Y-38320815D01*
X103575749Y-38321784D01*
X103473938Y-38322665D01*
X103364763Y-38323489D01*
X103247946Y-38324289D01*
X103123209Y-38325097D01*
X102990275Y-38325945D01*
X101602775Y-38334845D01*
X101602775Y-38844663D01*
X101602775Y-39354477D01*
X101362445Y-39345777D01*
X101122105Y-39337077D01*
X101115105Y-37513649D01*
X101108105Y-35690220D01*
X102818105Y-35698620D01*
G37*
%TD.AperFunction*%
%TA.AperFunction,EtchedComponent*%
G36*
X89417934Y-35692504D02*
G01*
X89491126Y-35692613D01*
X89563779Y-35692799D01*
X89635733Y-35693060D01*
X89706826Y-35693398D01*
X89776897Y-35693812D01*
X89845786Y-35694304D01*
X89913330Y-35694873D01*
X89979370Y-35695519D01*
X90043744Y-35696243D01*
X90106291Y-35697046D01*
X90166850Y-35697926D01*
X90225261Y-35698885D01*
X90281361Y-35699923D01*
X90334991Y-35701040D01*
X90385989Y-35702237D01*
X90434194Y-35703513D01*
X90479445Y-35704869D01*
X90521582Y-35706305D01*
X90560442Y-35707821D01*
X90595865Y-35709418D01*
X90627691Y-35711096D01*
X90655758Y-35712855D01*
X90679904Y-35714695D01*
X90699970Y-35716617D01*
X90715794Y-35718621D01*
X90727215Y-35720708D01*
X90775083Y-35733540D01*
X90819008Y-35749072D01*
X90859371Y-35767619D01*
X90896555Y-35789500D01*
X90930942Y-35815031D01*
X90962916Y-35844530D01*
X90992859Y-35878313D01*
X91021153Y-35916699D01*
X91048181Y-35960004D01*
X91074325Y-36008545D01*
X91088295Y-36036999D01*
X91100480Y-36063958D01*
X91111037Y-36090654D01*
X91120121Y-36118319D01*
X91127889Y-36148187D01*
X91134496Y-36181491D01*
X91140100Y-36219463D01*
X91144856Y-36263336D01*
X91148919Y-36314342D01*
X91152447Y-36373716D01*
X91155596Y-36442689D01*
X91158521Y-36522494D01*
X91161379Y-36614365D01*
X91164325Y-36719533D01*
X91179525Y-37282084D01*
X90932025Y-37282027D01*
X90684525Y-37281984D01*
X90684525Y-36850306D01*
X90684279Y-36745507D01*
X90683395Y-36657999D01*
X90681655Y-36585844D01*
X90678842Y-36527104D01*
X90674737Y-36479840D01*
X90669124Y-36442114D01*
X90661784Y-36411986D01*
X90652499Y-36387518D01*
X90641052Y-36366772D01*
X90627225Y-36347808D01*
X90569925Y-36276988D01*
X89259625Y-36276988D01*
X87949325Y-36276988D01*
X87891925Y-36347808D01*
X87885153Y-36356597D01*
X87878933Y-36365844D01*
X87873243Y-36376027D01*
X87868059Y-36387620D01*
X87863357Y-36401098D01*
X87859114Y-36416938D01*
X87855307Y-36435614D01*
X87851912Y-36457602D01*
X87848906Y-36483377D01*
X87846265Y-36513415D01*
X87843966Y-36548192D01*
X87841986Y-36588181D01*
X87840300Y-36633860D01*
X87838887Y-36685703D01*
X87837722Y-36744186D01*
X87836781Y-36809784D01*
X87836042Y-36882972D01*
X87835481Y-36964227D01*
X87835074Y-37054023D01*
X87834799Y-37152835D01*
X87834631Y-37261140D01*
X87834548Y-37379413D01*
X87834525Y-37508129D01*
X87834525Y-38597628D01*
X87914725Y-38660719D01*
X87923334Y-38667381D01*
X87931848Y-38673553D01*
X87940667Y-38679251D01*
X87950191Y-38684492D01*
X87960818Y-38689290D01*
X87972949Y-38693663D01*
X87986983Y-38697626D01*
X88003319Y-38701195D01*
X88022357Y-38704386D01*
X88044496Y-38707215D01*
X88070136Y-38709698D01*
X88099675Y-38711851D01*
X88133515Y-38713689D01*
X88172053Y-38715230D01*
X88215689Y-38716489D01*
X88264823Y-38717481D01*
X88319855Y-38718223D01*
X88381183Y-38718731D01*
X88449207Y-38719021D01*
X88524327Y-38719108D01*
X88606942Y-38719009D01*
X88697451Y-38718740D01*
X88796254Y-38718317D01*
X88903751Y-38717755D01*
X89020340Y-38717070D01*
X89146422Y-38716280D01*
X89282395Y-38715399D01*
X90569865Y-38706999D01*
X90627165Y-38636179D01*
X90652982Y-38597441D01*
X90670684Y-38555297D01*
X90680262Y-38510112D01*
X90681708Y-38462249D01*
X90675013Y-38412075D01*
X90660168Y-38359953D01*
X90637165Y-38306248D01*
X90618487Y-38259646D01*
X90608977Y-38214134D01*
X90608337Y-38170670D01*
X90616265Y-38130213D01*
X90632462Y-38093720D01*
X90656627Y-38062149D01*
X90688462Y-38036458D01*
X90727665Y-38017606D01*
X90772645Y-38005005D01*
X90806109Y-38006193D01*
X90835363Y-38023292D01*
X90867715Y-38058426D01*
X90893021Y-38096720D01*
X90910608Y-38138644D01*
X90920414Y-38182657D01*
X90922372Y-38227217D01*
X90916418Y-38270782D01*
X90902487Y-38311811D01*
X90880515Y-38348764D01*
X90863327Y-38378478D01*
X90849065Y-38416332D01*
X90839227Y-38457460D01*
X90835315Y-38496999D01*
X90832372Y-38540817D01*
X90825299Y-38593593D01*
X90815134Y-38648685D01*
X90802915Y-38699449D01*
X90797908Y-38717492D01*
X90793039Y-38734432D01*
X90788040Y-38750301D01*
X90782647Y-38765136D01*
X90776593Y-38778970D01*
X90769612Y-38791840D01*
X90761439Y-38803780D01*
X90751808Y-38814824D01*
X90740453Y-38825007D01*
X90727107Y-38834365D01*
X90711506Y-38842933D01*
X90693384Y-38850745D01*
X90672474Y-38857836D01*
X90648510Y-38864241D01*
X90621228Y-38869994D01*
X90590360Y-38875132D01*
X90555641Y-38879688D01*
X90516806Y-38883698D01*
X90473588Y-38887197D01*
X90425722Y-38890218D01*
X90372941Y-38892798D01*
X90314980Y-38894971D01*
X90251573Y-38896772D01*
X90182454Y-38898236D01*
X90107358Y-38899398D01*
X90026018Y-38900292D01*
X89938168Y-38900954D01*
X89843543Y-38901419D01*
X89741877Y-38901721D01*
X89632904Y-38901894D01*
X89516359Y-38901976D01*
X89391974Y-38901999D01*
X89259485Y-38901999D01*
X89125388Y-38901992D01*
X88999647Y-38901951D01*
X88881980Y-38901841D01*
X88772106Y-38901630D01*
X88669744Y-38901283D01*
X88574612Y-38900768D01*
X88486430Y-38900050D01*
X88404916Y-38899096D01*
X88329789Y-38897874D01*
X88260767Y-38896348D01*
X88197569Y-38894486D01*
X88139915Y-38892255D01*
X88087522Y-38889620D01*
X88040110Y-38886549D01*
X87997397Y-38883007D01*
X87959102Y-38878963D01*
X87924944Y-38874380D01*
X87894642Y-38869228D01*
X87867914Y-38863471D01*
X87844479Y-38857077D01*
X87824055Y-38850012D01*
X87806362Y-38842242D01*
X87791118Y-38833734D01*
X87778043Y-38824455D01*
X87766854Y-38814371D01*
X87757270Y-38803449D01*
X87749011Y-38791655D01*
X87741795Y-38778955D01*
X87735341Y-38765317D01*
X87729367Y-38750706D01*
X87723592Y-38735089D01*
X87717735Y-38718434D01*
X87715030Y-38708703D01*
X87712439Y-38695338D01*
X87709963Y-38678343D01*
X87707602Y-38657723D01*
X87705356Y-38633483D01*
X87703224Y-38605629D01*
X87701207Y-38574166D01*
X87699305Y-38539098D01*
X87697518Y-38500432D01*
X87695846Y-38458171D01*
X87694289Y-38412321D01*
X87692847Y-38362887D01*
X87691521Y-38309875D01*
X87690309Y-38253289D01*
X87689213Y-38193134D01*
X87688231Y-38129416D01*
X87687365Y-38062139D01*
X87686615Y-37991310D01*
X87685979Y-37916932D01*
X87685460Y-37839011D01*
X87685055Y-37757552D01*
X87684766Y-37672561D01*
X87684593Y-37584041D01*
X87684535Y-37492000D01*
X87684593Y-37399957D01*
X87684768Y-37311437D01*
X87685059Y-37226445D01*
X87685466Y-37144986D01*
X87685990Y-37067065D01*
X87686629Y-36992687D01*
X87687383Y-36921856D01*
X87688254Y-36854580D01*
X87689239Y-36790861D01*
X87690339Y-36730706D01*
X87691555Y-36674120D01*
X87692885Y-36621107D01*
X87694330Y-36571673D01*
X87695889Y-36525823D01*
X87697562Y-36483562D01*
X87699350Y-36444895D01*
X87701251Y-36409828D01*
X87703266Y-36378364D01*
X87705395Y-36350511D01*
X87707637Y-36326271D01*
X87709992Y-36305652D01*
X87712460Y-36288657D01*
X87715041Y-36275292D01*
X87717735Y-36265562D01*
X87723593Y-36248909D01*
X87729371Y-36233295D01*
X87735349Y-36218686D01*
X87741807Y-36205049D01*
X87749022Y-36192351D01*
X87757274Y-36180558D01*
X87766843Y-36169638D01*
X87778008Y-36159555D01*
X87791047Y-36150278D01*
X87806240Y-36141773D01*
X87823867Y-36134007D01*
X87844205Y-36126945D01*
X87867535Y-36120556D01*
X87894136Y-36114804D01*
X87924287Y-36109658D01*
X87958266Y-36105084D01*
X87996354Y-36101048D01*
X88038829Y-36097517D01*
X88085971Y-36094458D01*
X88138058Y-36091838D01*
X88195370Y-36089622D01*
X88258186Y-36087778D01*
X88326785Y-36086272D01*
X88401447Y-36085071D01*
X88482450Y-36084142D01*
X88570074Y-36083451D01*
X88664597Y-36082965D01*
X88766300Y-36082650D01*
X88875461Y-36082473D01*
X88992359Y-36082402D01*
X89117274Y-36082402D01*
X89250485Y-36082440D01*
X89359130Y-36082514D01*
X89462484Y-36082666D01*
X89560659Y-36082899D01*
X89653768Y-36083214D01*
X89741922Y-36083616D01*
X89825233Y-36084108D01*
X89903813Y-36084691D01*
X89977775Y-36085370D01*
X90047229Y-36086148D01*
X90112290Y-36087026D01*
X90173067Y-36088009D01*
X90229674Y-36089099D01*
X90282223Y-36090299D01*
X90330825Y-36091613D01*
X90375592Y-36093043D01*
X90416637Y-36094592D01*
X90454071Y-36096264D01*
X90488007Y-36098060D01*
X90518557Y-36099985D01*
X90545832Y-36102041D01*
X90569945Y-36104231D01*
X90591007Y-36106559D01*
X90609131Y-36109027D01*
X90624429Y-36111638D01*
X90637013Y-36114395D01*
X90646994Y-36117301D01*
X90654485Y-36120360D01*
X90682899Y-36136424D01*
X90708403Y-36155020D01*
X90731126Y-36176589D01*
X90751197Y-36201573D01*
X90768745Y-36230413D01*
X90783898Y-36263551D01*
X90796787Y-36301429D01*
X90807541Y-36344489D01*
X90816287Y-36393173D01*
X90823156Y-36447921D01*
X90828276Y-36509177D01*
X90831777Y-36577381D01*
X90833787Y-36652976D01*
X90834435Y-36736403D01*
X90834495Y-37105804D01*
X90931995Y-37096404D01*
X91029495Y-37087004D01*
X91022495Y-36698813D01*
X91020433Y-36614014D01*
X91017602Y-36536950D01*
X91013892Y-36467099D01*
X91009191Y-36403940D01*
X91003389Y-36346952D01*
X90996375Y-36295611D01*
X90988039Y-36249398D01*
X90978269Y-36207789D01*
X90966955Y-36170264D01*
X90953986Y-36136301D01*
X90939251Y-36105378D01*
X90922640Y-36076974D01*
X90904041Y-36050567D01*
X90883345Y-36025635D01*
X90871298Y-36012269D01*
X90859612Y-35999702D01*
X90848027Y-35987909D01*
X90836283Y-35976865D01*
X90824117Y-35966546D01*
X90811271Y-35956926D01*
X90797484Y-35947982D01*
X90782494Y-35939690D01*
X90766042Y-35932023D01*
X90747867Y-35924958D01*
X90727708Y-35918470D01*
X90705305Y-35912535D01*
X90680397Y-35907128D01*
X90652723Y-35902224D01*
X90622024Y-35897800D01*
X90588038Y-35893829D01*
X90550505Y-35890288D01*
X90509165Y-35887152D01*
X90463756Y-35884396D01*
X90414019Y-35881997D01*
X90359692Y-35879928D01*
X90300515Y-35878167D01*
X90236228Y-35876687D01*
X90166571Y-35875466D01*
X90091281Y-35874477D01*
X90010100Y-35873696D01*
X89922766Y-35873100D01*
X89829018Y-35872662D01*
X89728598Y-35872360D01*
X89621242Y-35872167D01*
X89506692Y-35872060D01*
X89384687Y-35872013D01*
X89254965Y-35872004D01*
X89124283Y-35872016D01*
X89002085Y-35872060D01*
X88888056Y-35872150D01*
X88781881Y-35872297D01*
X88683247Y-35872514D01*
X88591838Y-35872814D01*
X88507341Y-35873210D01*
X88429442Y-35873713D01*
X88357825Y-35874336D01*
X88292177Y-35875092D01*
X88232184Y-35875993D01*
X88177530Y-35877052D01*
X88127902Y-35878282D01*
X88082985Y-35879695D01*
X88042465Y-35881303D01*
X88006028Y-35883119D01*
X87973359Y-35885156D01*
X87944144Y-35887425D01*
X87918069Y-35889941D01*
X87894819Y-35892714D01*
X87874080Y-35895759D01*
X87855538Y-35899086D01*
X87838878Y-35902710D01*
X87823786Y-35906641D01*
X87809948Y-35910894D01*
X87797049Y-35915480D01*
X87784775Y-35920412D01*
X87772812Y-35925702D01*
X87760845Y-35931364D01*
X87719509Y-35954642D01*
X87678348Y-35983653D01*
X87640316Y-36015895D01*
X87608364Y-36048866D01*
X87585445Y-36080065D01*
X87577120Y-36095225D01*
X87569167Y-36111924D01*
X87561580Y-36130238D01*
X87554355Y-36150242D01*
X87547488Y-36172010D01*
X87540972Y-36195616D01*
X87534804Y-36221136D01*
X87528978Y-36248645D01*
X87523489Y-36278217D01*
X87518333Y-36309927D01*
X87513504Y-36343850D01*
X87508998Y-36380060D01*
X87504810Y-36418632D01*
X87500935Y-36459642D01*
X87497368Y-36503163D01*
X87494104Y-36549271D01*
X87491138Y-36598041D01*
X87488465Y-36649546D01*
X87486081Y-36703863D01*
X87483981Y-36761065D01*
X87482159Y-36821227D01*
X87480610Y-36884425D01*
X87479331Y-36950732D01*
X87478315Y-37020225D01*
X87477559Y-37092977D01*
X87477057Y-37169063D01*
X87476804Y-37248558D01*
X87476795Y-37331537D01*
X87477025Y-37418074D01*
X87477491Y-37508245D01*
X87478185Y-37602124D01*
X87479105Y-37699786D01*
X87480411Y-37825251D01*
X87481642Y-37939919D01*
X87482842Y-38044356D01*
X87484052Y-38139128D01*
X87485313Y-38224801D01*
X87486667Y-38301941D01*
X87488157Y-38371115D01*
X87489824Y-38432889D01*
X87491709Y-38487829D01*
X87493855Y-38536501D01*
X87496304Y-38579471D01*
X87499097Y-38617306D01*
X87502276Y-38650572D01*
X87505883Y-38679836D01*
X87509960Y-38705662D01*
X87514549Y-38728618D01*
X87519691Y-38749270D01*
X87525428Y-38768183D01*
X87531802Y-38785925D01*
X87538855Y-38803061D01*
X87546628Y-38820158D01*
X87555165Y-38837782D01*
X87564505Y-38856499D01*
X87575241Y-38878088D01*
X87585324Y-38898498D01*
X87594959Y-38917763D01*
X87604355Y-38935915D01*
X87613718Y-38952988D01*
X87623255Y-38969014D01*
X87633173Y-38984027D01*
X87643680Y-38998059D01*
X87654983Y-39011143D01*
X87667287Y-39023313D01*
X87680802Y-39034602D01*
X87695733Y-39045043D01*
X87712288Y-39054668D01*
X87730673Y-39063512D01*
X87751096Y-39071606D01*
X87773764Y-39078983D01*
X87798885Y-39085678D01*
X87826664Y-39091723D01*
X87857309Y-39097151D01*
X87891027Y-39101995D01*
X87928025Y-39106288D01*
X87968511Y-39110063D01*
X88012691Y-39113353D01*
X88060772Y-39116192D01*
X88112962Y-39118612D01*
X88169467Y-39120646D01*
X88230495Y-39122327D01*
X88296252Y-39123689D01*
X88366946Y-39124765D01*
X88442783Y-39125587D01*
X88523972Y-39126188D01*
X88610718Y-39126602D01*
X88703229Y-39126862D01*
X88801712Y-39127000D01*
X88906374Y-39127050D01*
X89017422Y-39127045D01*
X89135064Y-39127018D01*
X89259505Y-39127002D01*
X89395513Y-39126992D01*
X89522547Y-39126954D01*
X89640937Y-39126874D01*
X89751017Y-39126739D01*
X89853120Y-39126536D01*
X89947576Y-39126252D01*
X90034720Y-39125872D01*
X90114883Y-39125384D01*
X90188397Y-39124775D01*
X90255596Y-39124030D01*
X90316812Y-39123137D01*
X90372376Y-39122083D01*
X90422622Y-39120853D01*
X90467882Y-39119435D01*
X90508488Y-39117816D01*
X90544773Y-39115981D01*
X90577069Y-39113918D01*
X90605709Y-39111614D01*
X90631025Y-39109054D01*
X90653349Y-39106227D01*
X90673014Y-39103117D01*
X90690352Y-39099713D01*
X90705696Y-39096000D01*
X90719378Y-39091965D01*
X90731731Y-39087596D01*
X90743086Y-39082878D01*
X90753777Y-39077799D01*
X90764136Y-39072344D01*
X90774495Y-39066502D01*
X90804717Y-39047716D01*
X90832503Y-39027422D01*
X90857963Y-39005299D01*
X90881210Y-38981028D01*
X90902354Y-38954288D01*
X90921507Y-38924760D01*
X90938779Y-38892124D01*
X90954282Y-38856061D01*
X90968127Y-38816251D01*
X90980426Y-38772374D01*
X90991289Y-38724110D01*
X91000827Y-38671140D01*
X91009152Y-38613144D01*
X91016376Y-38549802D01*
X91022608Y-38480795D01*
X91027961Y-38405802D01*
X91032545Y-38324505D01*
X91053245Y-37912003D01*
X90778875Y-37912003D01*
X90504515Y-37912003D01*
X90504515Y-38164861D01*
X90503484Y-38250551D01*
X90500171Y-38319158D01*
X90494240Y-38372786D01*
X90485359Y-38413542D01*
X90473196Y-38443531D01*
X90457415Y-38464859D01*
X90451360Y-38470037D01*
X90443696Y-38474830D01*
X90434056Y-38479252D01*
X90422071Y-38483316D01*
X90407375Y-38487038D01*
X90389598Y-38490432D01*
X90368373Y-38493513D01*
X90343332Y-38496295D01*
X90314106Y-38498792D01*
X90280329Y-38501020D01*
X90241631Y-38502991D01*
X90197646Y-38504722D01*
X90148004Y-38506226D01*
X90092339Y-38507519D01*
X90030281Y-38508614D01*
X89961464Y-38509525D01*
X89885518Y-38510268D01*
X89802077Y-38510857D01*
X89710772Y-38511307D01*
X89611236Y-38511631D01*
X89503099Y-38511845D01*
X89385995Y-38511963D01*
X89259555Y-38511999D01*
X89133115Y-38511963D01*
X89016011Y-38511845D01*
X88907875Y-38511632D01*
X88808339Y-38511308D01*
X88717035Y-38510860D01*
X88633595Y-38510271D01*
X88557650Y-38509529D01*
X88488834Y-38508618D01*
X88426777Y-38507524D01*
X88371112Y-38506233D01*
X88321471Y-38504729D01*
X88277487Y-38502999D01*
X88238790Y-38501028D01*
X88205012Y-38498801D01*
X88175787Y-38496304D01*
X88150746Y-38493522D01*
X88129521Y-38490441D01*
X88111743Y-38487046D01*
X88097046Y-38483323D01*
X88085060Y-38479257D01*
X88075419Y-38474834D01*
X88067753Y-38470040D01*
X88061695Y-38464859D01*
X88055817Y-38457974D01*
X88050437Y-38449279D01*
X88045536Y-38438328D01*
X88041091Y-38424676D01*
X88037081Y-38407879D01*
X88033484Y-38387491D01*
X88030280Y-38363068D01*
X88027447Y-38334165D01*
X88024963Y-38300336D01*
X88022807Y-38261138D01*
X88020959Y-38216124D01*
X88019395Y-38164851D01*
X88018095Y-38106872D01*
X88017038Y-38041744D01*
X88016203Y-37969021D01*
X88015567Y-37888259D01*
X88015110Y-37799012D01*
X88014809Y-37700835D01*
X88014645Y-37593285D01*
X88014595Y-37475915D01*
X88014616Y-37347178D01*
X88014707Y-37230673D01*
X88014905Y-37125766D01*
X88015251Y-37031825D01*
X88015782Y-36948214D01*
X88016539Y-36874302D01*
X88017559Y-36809454D01*
X88018883Y-36753036D01*
X88020548Y-36704417D01*
X88022595Y-36662961D01*
X88025061Y-36628036D01*
X88027987Y-36599007D01*
X88031410Y-36575243D01*
X88035371Y-36556108D01*
X88039907Y-36540970D01*
X88045059Y-36529195D01*
X88050864Y-36520150D01*
X88057363Y-36513200D01*
X88064593Y-36507714D01*
X88072595Y-36503057D01*
X88079663Y-36500518D01*
X88091157Y-36498079D01*
X88107028Y-36495740D01*
X88127226Y-36493503D01*
X88151703Y-36491369D01*
X88180409Y-36489339D01*
X88213296Y-36487415D01*
X88250314Y-36485597D01*
X88291413Y-36483888D01*
X88336546Y-36482288D01*
X88385663Y-36480799D01*
X88438715Y-36479422D01*
X88495652Y-36478158D01*
X88556426Y-36477008D01*
X88620988Y-36475974D01*
X88689288Y-36475057D01*
X88761278Y-36474258D01*
X88836908Y-36473578D01*
X88916129Y-36473019D01*
X88998893Y-36472582D01*
X89085149Y-36472269D01*
X89174850Y-36472080D01*
X89267945Y-36472017D01*
X89381397Y-36471966D01*
X89487719Y-36471853D01*
X89587141Y-36471737D01*
X89679896Y-36471678D01*
X89766212Y-36471734D01*
X89846321Y-36471964D01*
X89920453Y-36472428D01*
X89988839Y-36473185D01*
X90051710Y-36474294D01*
X90109295Y-36475814D01*
X90161827Y-36477804D01*
X90209535Y-36480323D01*
X90252650Y-36483431D01*
X90291403Y-36487187D01*
X90326023Y-36491649D01*
X90356743Y-36496877D01*
X90383792Y-36502931D01*
X90407402Y-36509868D01*
X90427802Y-36517749D01*
X90445223Y-36526632D01*
X90459897Y-36536577D01*
X90472053Y-36547643D01*
X90481922Y-36559889D01*
X90489735Y-36573374D01*
X90495723Y-36588156D01*
X90500116Y-36604297D01*
X90503144Y-36621853D01*
X90505039Y-36640886D01*
X90506031Y-36661453D01*
X90506350Y-36683614D01*
X90506227Y-36707428D01*
X90505894Y-36732954D01*
X90505579Y-36760252D01*
X90505515Y-36789379D01*
X90507109Y-36853264D01*
X90511142Y-36909831D01*
X90517556Y-36958696D01*
X90526295Y-36999478D01*
X90537300Y-37031791D01*
X90550515Y-37055252D01*
X90573806Y-37092471D01*
X90588918Y-37130598D01*
X90596503Y-37168796D01*
X90597214Y-37206228D01*
X90591702Y-37242057D01*
X90580621Y-37275445D01*
X90564623Y-37305558D01*
X90544360Y-37331556D01*
X90520484Y-37352605D01*
X90493648Y-37367866D01*
X90464503Y-37376503D01*
X90433704Y-37377680D01*
X90401901Y-37370559D01*
X90369747Y-37354303D01*
X90337895Y-37328077D01*
X90306732Y-37291323D01*
X90284436Y-37252689D01*
X90271082Y-37212857D01*
X90266746Y-37172513D01*
X90271503Y-37132341D01*
X90285427Y-37093026D01*
X90308595Y-37055252D01*
X90326724Y-37020209D01*
X90340353Y-36972155D01*
X90349155Y-36916300D01*
X90352806Y-36857858D01*
X90350980Y-36802040D01*
X90343351Y-36754059D01*
X90329595Y-36719127D01*
X90325379Y-36715055D01*
X90317942Y-36711290D01*
X90307041Y-36707824D01*
X90292434Y-36704652D01*
X90273879Y-36701767D01*
X90251135Y-36699161D01*
X90223958Y-36696828D01*
X90192108Y-36694762D01*
X90155341Y-36692956D01*
X90113415Y-36691403D01*
X90066089Y-36690096D01*
X90013121Y-36689029D01*
X89954268Y-36688195D01*
X89889288Y-36687588D01*
X89817940Y-36687200D01*
X89739980Y-36687026D01*
X89655168Y-36687058D01*
X89563260Y-36687290D01*
X89464015Y-36687714D01*
X89357191Y-36688326D01*
X89242545Y-36689116D01*
X88179565Y-36697017D01*
X88179565Y-37492018D01*
X88179565Y-38287016D01*
X89242545Y-38294916D01*
X89357191Y-38295713D01*
X89464015Y-38296331D01*
X89563260Y-38296762D01*
X89655168Y-38296999D01*
X89739980Y-38297035D01*
X89817940Y-38296865D01*
X89889288Y-38296481D01*
X89954268Y-38295876D01*
X90013121Y-38295045D01*
X90066089Y-38293979D01*
X90113415Y-38292673D01*
X90155341Y-38291120D01*
X90192108Y-38289312D01*
X90223958Y-38287244D01*
X90251135Y-38284909D01*
X90273879Y-38282299D01*
X90292434Y-38279409D01*
X90307041Y-38276231D01*
X90317942Y-38272759D01*
X90325379Y-38268986D01*
X90329595Y-38264906D01*
X90335979Y-38245444D01*
X90341769Y-38209848D01*
X90346720Y-38161036D01*
X90350588Y-38101930D01*
X90353127Y-38035450D01*
X90354095Y-37964518D01*
X90354445Y-37702016D01*
X90762205Y-37702016D01*
X91169965Y-37702016D01*
X91159165Y-38279518D01*
X91157032Y-38382381D01*
X91154845Y-38473228D01*
X91152498Y-38553073D01*
X91149882Y-38622927D01*
X91146889Y-38683803D01*
X91143411Y-38736714D01*
X91139340Y-38782673D01*
X91134568Y-38822692D01*
X91128987Y-38857783D01*
X91122489Y-38888961D01*
X91114965Y-38917237D01*
X91106309Y-38943623D01*
X91096412Y-38969134D01*
X91085165Y-38994781D01*
X91061678Y-39041095D01*
X91035513Y-39083358D01*
X91006518Y-39121690D01*
X90974539Y-39156212D01*
X90939422Y-39187046D01*
X90901015Y-39214312D01*
X90859163Y-39238131D01*
X90813713Y-39258624D01*
X90764511Y-39275913D01*
X90711405Y-39290119D01*
X90697981Y-39292646D01*
X90680227Y-39295061D01*
X90658306Y-39297366D01*
X90632379Y-39299560D01*
X90602605Y-39301644D01*
X90569148Y-39303619D01*
X90532167Y-39305486D01*
X90491824Y-39307246D01*
X90448281Y-39308898D01*
X90401698Y-39310444D01*
X90352236Y-39311884D01*
X90300057Y-39313219D01*
X90245322Y-39314449D01*
X90188191Y-39315576D01*
X90128827Y-39316600D01*
X90067390Y-39317522D01*
X90004042Y-39318341D01*
X89938943Y-39319060D01*
X89872255Y-39319678D01*
X89804139Y-39320196D01*
X89734757Y-39320615D01*
X89664268Y-39320936D01*
X89592835Y-39321159D01*
X89520619Y-39321285D01*
X89447780Y-39321315D01*
X89374480Y-39321248D01*
X89300881Y-39321087D01*
X89227142Y-39320831D01*
X89153427Y-39320481D01*
X89079894Y-39320038D01*
X89006707Y-39319503D01*
X88934025Y-39318876D01*
X88862011Y-39318157D01*
X88790825Y-39317349D01*
X88720628Y-39316450D01*
X88651582Y-39315462D01*
X88583847Y-39314386D01*
X88517586Y-39313222D01*
X88452959Y-39311970D01*
X88390126Y-39310632D01*
X88329251Y-39309208D01*
X88270492Y-39307699D01*
X88214013Y-39306106D01*
X88159974Y-39304429D01*
X88108535Y-39302668D01*
X88059859Y-39300825D01*
X88014106Y-39298900D01*
X87971438Y-39296893D01*
X87932015Y-39294807D01*
X87895999Y-39292640D01*
X87863552Y-39290394D01*
X87834833Y-39288069D01*
X87810005Y-39285667D01*
X87789229Y-39283187D01*
X87772665Y-39280631D01*
X87760475Y-39277999D01*
X87760585Y-39277926D01*
X87712744Y-39262875D01*
X87667716Y-39244193D01*
X87625575Y-39221956D01*
X87586390Y-39196242D01*
X87550232Y-39167128D01*
X87517174Y-39134690D01*
X87487285Y-39099006D01*
X87460637Y-39060153D01*
X87437301Y-39018207D01*
X87417348Y-38973246D01*
X87400849Y-38925347D01*
X87387875Y-38874585D01*
X87385273Y-38859912D01*
X87382774Y-38840771D01*
X87380379Y-38817340D01*
X87378086Y-38789798D01*
X87375897Y-38758325D01*
X87373811Y-38723098D01*
X87371829Y-38684296D01*
X87369949Y-38642099D01*
X87368173Y-38596684D01*
X87366499Y-38548230D01*
X87364928Y-38496917D01*
X87363460Y-38442923D01*
X87362095Y-38386426D01*
X87360833Y-38327605D01*
X87359674Y-38266639D01*
X87358617Y-38203707D01*
X87357663Y-38138987D01*
X87356812Y-38072658D01*
X87356063Y-38004898D01*
X87355417Y-37935887D01*
X87354873Y-37865803D01*
X87354431Y-37794825D01*
X87354092Y-37723131D01*
X87353855Y-37650900D01*
X87353721Y-37578311D01*
X87353689Y-37505542D01*
X87353759Y-37432772D01*
X87353931Y-37360181D01*
X87354205Y-37287945D01*
X87354581Y-37216245D01*
X87355060Y-37145259D01*
X87355640Y-37075166D01*
X87356322Y-37006144D01*
X87357106Y-36938372D01*
X87357992Y-36872028D01*
X87358980Y-36807292D01*
X87360069Y-36744342D01*
X87361260Y-36683356D01*
X87362553Y-36624514D01*
X87363947Y-36567995D01*
X87365443Y-36513976D01*
X87367040Y-36462636D01*
X87368739Y-36414155D01*
X87370539Y-36368710D01*
X87372440Y-36326481D01*
X87374443Y-36287647D01*
X87376547Y-36252385D01*
X87378753Y-36220875D01*
X87381059Y-36193295D01*
X87383467Y-36169824D01*
X87385975Y-36150641D01*
X87388585Y-36135924D01*
X87401171Y-36088246D01*
X87418081Y-36041933D01*
X87439022Y-35997310D01*
X87463698Y-35954703D01*
X87491814Y-35914436D01*
X87523076Y-35876835D01*
X87557190Y-35842224D01*
X87593859Y-35810929D01*
X87632790Y-35783275D01*
X87673688Y-35759587D01*
X87716258Y-35740189D01*
X87760205Y-35725407D01*
X87770239Y-35723289D01*
X87784726Y-35721238D01*
X87803504Y-35719256D01*
X87826412Y-35717342D01*
X87853290Y-35715496D01*
X87883977Y-35713720D01*
X87918310Y-35712013D01*
X87956131Y-35710376D01*
X87997276Y-35708809D01*
X88041587Y-35707311D01*
X88088900Y-35705884D01*
X88139056Y-35704527D01*
X88191893Y-35703242D01*
X88247251Y-35702027D01*
X88304968Y-35700884D01*
X88364883Y-35699812D01*
X88426836Y-35698812D01*
X88490665Y-35697884D01*
X88556210Y-35697029D01*
X88623309Y-35696246D01*
X88691801Y-35695536D01*
X88761525Y-35694900D01*
X88832321Y-35694337D01*
X88904027Y-35693847D01*
X88976482Y-35693431D01*
X89049526Y-35693090D01*
X89122997Y-35692823D01*
X89196734Y-35692631D01*
X89270577Y-35692513D01*
X89344364Y-35692471D01*
X89417934Y-35692504D01*
G37*
%TD.AperFunction*%
%TD*%
M02*
