%TF.GenerationSoftware,KiCad,Pcbnew,10.0.1*%
%TF.CreationDate,2026-06-08T19:00:18-04:00*%
%TF.ProjectId,ITPcamp-card-example,49545063-616d-4702-9d63-6172642d6578,rev?*%
%TF.SameCoordinates,Original*%
%TF.FileFunction,Legend,Bot*%
%TF.FilePolarity,Positive*%
%FSLAX46Y46*%
G04 Gerber Fmt 4.6, Leading zero omitted, Abs format (unit mm)*
G04 Created by KiCad (PCBNEW 10.0.1) date 2026-06-08 19:00:18*
%MOMM*%
%LPD*%
G01*
G04 APERTURE LIST*
%ADD10C,0.000000*%
G04 APERTURE END LIST*
D10*
%TO.C,itp-camp*%
G36*
X44869348Y-30351096D02*
G01*
X44913594Y-30358457D01*
X44952995Y-30370159D01*
X44985903Y-30393817D01*
X44999058Y-30426280D01*
X44991681Y-30458663D01*
X44962995Y-30482083D01*
X44962945Y-30482081D01*
X44931205Y-30489997D01*
X44884697Y-30495363D01*
X44827885Y-30498289D01*
X44765229Y-30498889D01*
X44701191Y-30497275D01*
X44640232Y-30493558D01*
X44586813Y-30487852D01*
X44545397Y-30480269D01*
X44520445Y-30470921D01*
X44502838Y-30454143D01*
X44498847Y-30437406D01*
X44506933Y-30421067D01*
X44525558Y-30405485D01*
X44553183Y-30391019D01*
X44588271Y-30378026D01*
X44629283Y-30366866D01*
X44674679Y-30357896D01*
X44722922Y-30351476D01*
X44772474Y-30347964D01*
X44821796Y-30347717D01*
X44869348Y-30351096D01*
G37*
G36*
X44821460Y-29914501D02*
G01*
X44880086Y-29918186D01*
X44935862Y-29924221D01*
X44987355Y-29932602D01*
X45033135Y-29943328D01*
X45071769Y-29956393D01*
X45101825Y-29971797D01*
X45147244Y-30003582D01*
X45166150Y-30026805D01*
X45161169Y-30050230D01*
X45134925Y-30082621D01*
X45100600Y-30112549D01*
X45059266Y-30137189D01*
X45019895Y-30151190D01*
X45019835Y-30151047D01*
X44965970Y-30159746D01*
X44908860Y-30165641D01*
X44849536Y-30168878D01*
X44789030Y-30169604D01*
X44728373Y-30167967D01*
X44668597Y-30164115D01*
X44610733Y-30158193D01*
X44555814Y-30150351D01*
X44504870Y-30140734D01*
X44458934Y-30129490D01*
X44419036Y-30116767D01*
X44386208Y-30102712D01*
X44361483Y-30087472D01*
X44345891Y-30071194D01*
X44340465Y-30054027D01*
X44351584Y-30031208D01*
X44380746Y-30001022D01*
X44421665Y-29969997D01*
X44451546Y-29954769D01*
X44490032Y-29941916D01*
X44535690Y-29931435D01*
X44587090Y-29923323D01*
X44642798Y-29917577D01*
X44701384Y-29914193D01*
X44761415Y-29913169D01*
X44821460Y-29914501D01*
G37*
G36*
X44717383Y-30747246D02*
G01*
X44792705Y-30748451D01*
X45165235Y-30756951D01*
X45173235Y-32459450D01*
X45180875Y-34161909D01*
X44795485Y-34161909D01*
X44410085Y-34161909D01*
X44391385Y-32474721D01*
X44390474Y-32390813D01*
X44389634Y-32307877D01*
X44388862Y-32226011D01*
X44388160Y-32145316D01*
X44387526Y-32065891D01*
X44386960Y-31987837D01*
X44386463Y-31911253D01*
X44386033Y-31836240D01*
X44385671Y-31762897D01*
X44385376Y-31691325D01*
X44385148Y-31621623D01*
X44384986Y-31553891D01*
X44384891Y-31488230D01*
X44384861Y-31424739D01*
X44384897Y-31363519D01*
X44384998Y-31304669D01*
X44385164Y-31248289D01*
X44385394Y-31194480D01*
X44385689Y-31143341D01*
X44386047Y-31094972D01*
X44386470Y-31049473D01*
X44386955Y-31006945D01*
X44387504Y-30967487D01*
X44388115Y-30931199D01*
X44388789Y-30898181D01*
X44389525Y-30868533D01*
X44390322Y-30842355D01*
X44391181Y-30819748D01*
X44392101Y-30800810D01*
X44393081Y-30785643D01*
X44394123Y-30774345D01*
X44395224Y-30767018D01*
X44396385Y-30763761D01*
X44408766Y-30759121D01*
X44435014Y-30755148D01*
X44473505Y-30751898D01*
X44522613Y-30749427D01*
X44580712Y-30747790D01*
X44646177Y-30747044D01*
X44717383Y-30747246D01*
G37*
G36*
X44849311Y-29413245D02*
G01*
X44914401Y-29417564D01*
X44973085Y-29424413D01*
X45025572Y-29433855D01*
X45072073Y-29445957D01*
X45112795Y-29460783D01*
X45147950Y-29478398D01*
X45177747Y-29498867D01*
X45202395Y-29522255D01*
X45222105Y-29548626D01*
X45235945Y-29579435D01*
X45235800Y-29606871D01*
X45220491Y-29632185D01*
X45188840Y-29656625D01*
X45139667Y-29681439D01*
X45071795Y-29707876D01*
X45071795Y-29707877D01*
X45033986Y-29718893D01*
X44986516Y-29728886D01*
X44932411Y-29737449D01*
X44874697Y-29744173D01*
X44816400Y-29748648D01*
X44760545Y-29750467D01*
X44690961Y-29749488D01*
X44625494Y-29745803D01*
X44564472Y-29739553D01*
X44508223Y-29730881D01*
X44457074Y-29719931D01*
X44411354Y-29706842D01*
X44371390Y-29691759D01*
X44337511Y-29674823D01*
X44310044Y-29656177D01*
X44289318Y-29635963D01*
X44275660Y-29614323D01*
X44269398Y-29591399D01*
X44270860Y-29567334D01*
X44280375Y-29542269D01*
X44296137Y-29520081D01*
X44318533Y-29499762D01*
X44347315Y-29481376D01*
X44382232Y-29464985D01*
X44423038Y-29450652D01*
X44469483Y-29438440D01*
X44521320Y-29428411D01*
X44578299Y-29420629D01*
X44640171Y-29415157D01*
X44706690Y-29412056D01*
X44777605Y-29411391D01*
X44849311Y-29413245D01*
G37*
G36*
X43014395Y-30839450D02*
G01*
X43022395Y-31191952D01*
X43246445Y-31191952D01*
X43470495Y-31191952D01*
X43470495Y-31506951D01*
X43470495Y-31821951D01*
X43245495Y-31821951D01*
X43020495Y-31821951D01*
X43020495Y-32472535D01*
X43020346Y-32557496D01*
X43019873Y-32637457D01*
X43019038Y-32712683D01*
X43017805Y-32783442D01*
X43016136Y-32849999D01*
X43013992Y-32912621D01*
X43011337Y-32971575D01*
X43008133Y-33027127D01*
X43004342Y-33079543D01*
X42999927Y-33129090D01*
X42994850Y-33176033D01*
X42989074Y-33220640D01*
X42982561Y-33263177D01*
X42975273Y-33303910D01*
X42967173Y-33343105D01*
X42958224Y-33381029D01*
X42948387Y-33417948D01*
X42937626Y-33454129D01*
X42925903Y-33489838D01*
X42913179Y-33525342D01*
X42899418Y-33560906D01*
X42884582Y-33596797D01*
X42868634Y-33633282D01*
X42851535Y-33670626D01*
X42831004Y-33711081D01*
X42808253Y-33749156D01*
X42783139Y-33784963D01*
X42755516Y-33818614D01*
X42725241Y-33850221D01*
X42692167Y-33879896D01*
X42656151Y-33907751D01*
X42617049Y-33933897D01*
X42574714Y-33958446D01*
X42529003Y-33981510D01*
X42479771Y-34003201D01*
X42426873Y-34023631D01*
X42370165Y-34042912D01*
X42370185Y-34042746D01*
X42326075Y-34055665D01*
X42279745Y-34066945D01*
X42231472Y-34076588D01*
X42181534Y-34084595D01*
X42130207Y-34090966D01*
X42077771Y-34095702D01*
X42024502Y-34098806D01*
X41970678Y-34100278D01*
X41916577Y-34100118D01*
X41862476Y-34098328D01*
X41808652Y-34094909D01*
X41755384Y-34089863D01*
X41702948Y-34083189D01*
X41651623Y-34074890D01*
X41601686Y-34064965D01*
X41553414Y-34053417D01*
X41507085Y-34040246D01*
X41443230Y-34018552D01*
X41385963Y-33995368D01*
X41338961Y-33972468D01*
X41305902Y-33951626D01*
X41290465Y-33934616D01*
X41290450Y-33917719D01*
X41296171Y-33885580D01*
X41306712Y-33841088D01*
X41321156Y-33787130D01*
X41338586Y-33726593D01*
X41358086Y-33662365D01*
X41378738Y-33597333D01*
X41399627Y-33534384D01*
X41419835Y-33476405D01*
X41438445Y-33426285D01*
X41454542Y-33386909D01*
X41467207Y-33361167D01*
X41475525Y-33351944D01*
X41494153Y-33358107D01*
X41535604Y-33374269D01*
X41590885Y-33396944D01*
X41641063Y-33415409D01*
X41690885Y-33428899D01*
X41740009Y-33437533D01*
X41788090Y-33441428D01*
X41834783Y-33440703D01*
X41879743Y-33435476D01*
X41922627Y-33425864D01*
X41963090Y-33411987D01*
X42000787Y-33393962D01*
X42035374Y-33371907D01*
X42066507Y-33345941D01*
X42093841Y-33316181D01*
X42117031Y-33282746D01*
X42135734Y-33245754D01*
X42149605Y-33205322D01*
X42153283Y-33187987D01*
X42156711Y-33164956D01*
X42159877Y-33136480D01*
X42162771Y-33102810D01*
X42165383Y-33064198D01*
X42167701Y-33020894D01*
X42169715Y-32973150D01*
X42171415Y-32921216D01*
X42172789Y-32865344D01*
X42173827Y-32805784D01*
X42174519Y-32742787D01*
X42174853Y-32676605D01*
X42174819Y-32607489D01*
X42174407Y-32535688D01*
X42173605Y-32461455D01*
X42165605Y-31836943D01*
X41817285Y-31847963D01*
X41468965Y-31858983D01*
X41453365Y-31547969D01*
X41450368Y-31476282D01*
X41448245Y-31409206D01*
X41447015Y-31348781D01*
X41446694Y-31297051D01*
X41447301Y-31256058D01*
X41448852Y-31227844D01*
X41451365Y-31214451D01*
X41461346Y-31209933D01*
X41484855Y-31205717D01*
X41520361Y-31201896D01*
X41566335Y-31198563D01*
X41621247Y-31195809D01*
X41683568Y-31193728D01*
X41751767Y-31192411D01*
X41824315Y-31191952D01*
X42184135Y-31191952D01*
X42179135Y-30839450D01*
X42174135Y-30486951D01*
X42590265Y-30486951D01*
X43006395Y-30486951D01*
X43014395Y-30839450D01*
G37*
G36*
X38601582Y-31113135D02*
G01*
X38647330Y-31114718D01*
X38692906Y-31117744D01*
X38738262Y-31122225D01*
X38783350Y-31128170D01*
X38828123Y-31135591D01*
X38872534Y-31144499D01*
X38916533Y-31154903D01*
X38960075Y-31166816D01*
X39003111Y-31180247D01*
X39045593Y-31195208D01*
X39087474Y-31211710D01*
X39128706Y-31229763D01*
X39169242Y-31249377D01*
X39209033Y-31270564D01*
X39248033Y-31293335D01*
X39286193Y-31317700D01*
X39323467Y-31343670D01*
X39359805Y-31371256D01*
X39418875Y-31416912D01*
X39463802Y-31449478D01*
X39484925Y-31461906D01*
X39488727Y-31441790D01*
X39489040Y-31389036D01*
X39485275Y-31315065D01*
X39475075Y-31168205D01*
X39860265Y-31155595D01*
X39938050Y-31153431D01*
X40011410Y-31152077D01*
X40078680Y-31151516D01*
X40138199Y-31151732D01*
X40188303Y-31152705D01*
X40227329Y-31154418D01*
X40253614Y-31156855D01*
X40265495Y-31159995D01*
X40266369Y-31162559D01*
X40267255Y-31168725D01*
X40268150Y-31178418D01*
X40269054Y-31191561D01*
X40269966Y-31208079D01*
X40270883Y-31227896D01*
X40271804Y-31250935D01*
X40272729Y-31277120D01*
X40273656Y-31306375D01*
X40274584Y-31338625D01*
X40275511Y-31373792D01*
X40276436Y-31411801D01*
X40277357Y-31452576D01*
X40278274Y-31496041D01*
X40279186Y-31542119D01*
X40280090Y-31590735D01*
X40280985Y-31641812D01*
X40281871Y-31695275D01*
X40282745Y-31751047D01*
X40283607Y-31809052D01*
X40284455Y-31869214D01*
X40285288Y-31931457D01*
X40286105Y-31995705D01*
X40286904Y-32061881D01*
X40287684Y-32129911D01*
X40288444Y-32199717D01*
X40289182Y-32271223D01*
X40289897Y-32344354D01*
X40290587Y-32419033D01*
X40291252Y-32495185D01*
X40291891Y-32572732D01*
X40292501Y-32651600D01*
X40293081Y-32731712D01*
X40293631Y-32812991D01*
X40294148Y-32895362D01*
X40294632Y-32978749D01*
X40295082Y-33063076D01*
X40295495Y-33148265D01*
X40305495Y-35119570D01*
X40110495Y-35129881D01*
X40110645Y-35129845D01*
X40067035Y-35132037D01*
X40017769Y-35134316D01*
X39964539Y-35136615D01*
X39909038Y-35138866D01*
X39852956Y-35141001D01*
X39797985Y-35142952D01*
X39745818Y-35144653D01*
X39698145Y-35146035D01*
X39480645Y-35151934D01*
X39480645Y-34461888D01*
X39480517Y-34381712D01*
X39480144Y-34304175D01*
X39479539Y-34229807D01*
X39478717Y-34159135D01*
X39477693Y-34092687D01*
X39476481Y-34030992D01*
X39475095Y-33974578D01*
X39473550Y-33923972D01*
X39471860Y-33879703D01*
X39470040Y-33842299D01*
X39468104Y-33812287D01*
X39466067Y-33790197D01*
X39463942Y-33776555D01*
X39461745Y-33771890D01*
X39445561Y-33779889D01*
X39415450Y-33801669D01*
X39375716Y-33833904D01*
X39330665Y-33873267D01*
X39299338Y-33899885D01*
X39265848Y-33925131D01*
X39230304Y-33948982D01*
X39192816Y-33971412D01*
X39153495Y-33992397D01*
X39112449Y-34011912D01*
X39069789Y-34029931D01*
X39025624Y-34046432D01*
X38980065Y-34061387D01*
X38933221Y-34074774D01*
X38885201Y-34086566D01*
X38836117Y-34096739D01*
X38793950Y-34103926D01*
X38786076Y-34105268D01*
X38735190Y-34112129D01*
X38683569Y-34117296D01*
X38631321Y-34120745D01*
X38578557Y-34122451D01*
X38525386Y-34122389D01*
X38471919Y-34120534D01*
X38418265Y-34116862D01*
X38364533Y-34111347D01*
X38310835Y-34103965D01*
X38259945Y-34095180D01*
X38209762Y-34084741D01*
X38160314Y-34072674D01*
X38111632Y-34059006D01*
X38063744Y-34043763D01*
X38016680Y-34026971D01*
X37970471Y-34008656D01*
X37925145Y-33988846D01*
X37880732Y-33967565D01*
X37837262Y-33944841D01*
X37794764Y-33920700D01*
X37753267Y-33895168D01*
X37712802Y-33868272D01*
X37673398Y-33840037D01*
X37635084Y-33810491D01*
X37597890Y-33779658D01*
X37561846Y-33747567D01*
X37526981Y-33714243D01*
X37493324Y-33679712D01*
X37460906Y-33644001D01*
X37429756Y-33607136D01*
X37399903Y-33569143D01*
X37371377Y-33530049D01*
X37344208Y-33489880D01*
X37318424Y-33448662D01*
X37294057Y-33406422D01*
X37271134Y-33363186D01*
X37249687Y-33318980D01*
X37229743Y-33273830D01*
X37211334Y-33227764D01*
X37194488Y-33180807D01*
X37179235Y-33132985D01*
X37165605Y-33084325D01*
X37153958Y-33036258D01*
X37143776Y-32987011D01*
X37135044Y-32936721D01*
X37127750Y-32885524D01*
X37121882Y-32833555D01*
X37117425Y-32780950D01*
X37114368Y-32727844D01*
X37112697Y-32674374D01*
X37112400Y-32620675D01*
X37113463Y-32566883D01*
X37115874Y-32513133D01*
X37119619Y-32459561D01*
X37124687Y-32406303D01*
X37125863Y-32396566D01*
X37457508Y-32396566D01*
X37460673Y-32431146D01*
X37467227Y-32466120D01*
X37477082Y-32501392D01*
X37490147Y-32536862D01*
X37506332Y-32572434D01*
X37525546Y-32608010D01*
X37547700Y-32643492D01*
X37572704Y-32678783D01*
X37600467Y-32713785D01*
X37630899Y-32748400D01*
X37663910Y-32782531D01*
X37699410Y-32816079D01*
X37737308Y-32848948D01*
X37777516Y-32881040D01*
X37819942Y-32912256D01*
X37864496Y-32942500D01*
X37911088Y-32971673D01*
X37959629Y-32999679D01*
X38010027Y-33026419D01*
X38062194Y-33051795D01*
X38116038Y-33075710D01*
X38171470Y-33098067D01*
X38228399Y-33118767D01*
X38286735Y-33137714D01*
X38344959Y-33154527D01*
X38402939Y-33169334D01*
X38460578Y-33182155D01*
X38517783Y-33193013D01*
X38574457Y-33201927D01*
X38630506Y-33208921D01*
X38685834Y-33214015D01*
X38740348Y-33217231D01*
X38793950Y-33218589D01*
X38846547Y-33218112D01*
X38898043Y-33215820D01*
X38948343Y-33211736D01*
X38997352Y-33205879D01*
X39044975Y-33198273D01*
X39091116Y-33188938D01*
X39135681Y-33177895D01*
X39178575Y-33165166D01*
X39219702Y-33150772D01*
X39258968Y-33134735D01*
X39296276Y-33117075D01*
X39331533Y-33097815D01*
X39364643Y-33076976D01*
X39395511Y-33054579D01*
X39424041Y-33030645D01*
X39450139Y-33005196D01*
X39473709Y-32978253D01*
X39494657Y-32949838D01*
X39512888Y-32919971D01*
X39528305Y-32888675D01*
X39540815Y-32855971D01*
X39550917Y-32818772D01*
X39556542Y-32781545D01*
X39557587Y-32743974D01*
X39553948Y-32705743D01*
X39545521Y-32666536D01*
X39532201Y-32626037D01*
X39513885Y-32583931D01*
X39490470Y-32539901D01*
X39461851Y-32493633D01*
X39427924Y-32444810D01*
X39388585Y-32393116D01*
X39361701Y-32360752D01*
X39333032Y-32329397D01*
X39302627Y-32299070D01*
X39270534Y-32269791D01*
X39236801Y-32241578D01*
X39201478Y-32214452D01*
X39164611Y-32188431D01*
X39126251Y-32163535D01*
X39086445Y-32139784D01*
X39045242Y-32117197D01*
X39002689Y-32095793D01*
X38958837Y-32075592D01*
X38913733Y-32056614D01*
X38867425Y-32038877D01*
X38819962Y-32022401D01*
X38771392Y-32007206D01*
X38721765Y-31993310D01*
X38671127Y-31980735D01*
X38619529Y-31969498D01*
X38567018Y-31959619D01*
X38513642Y-31951118D01*
X38459451Y-31944014D01*
X38404492Y-31938327D01*
X38348814Y-31934076D01*
X38292465Y-31931280D01*
X38235495Y-31929960D01*
X38165950Y-31930220D01*
X38100056Y-31932456D01*
X38037737Y-31936700D01*
X37978917Y-31942987D01*
X37923520Y-31951349D01*
X37871472Y-31961820D01*
X37822697Y-31974433D01*
X37777118Y-31989223D01*
X37734661Y-32006221D01*
X37695250Y-32025463D01*
X37658810Y-32046980D01*
X37625265Y-32070807D01*
X37594539Y-32096978D01*
X37566556Y-32125525D01*
X37541242Y-32156481D01*
X37518521Y-32189882D01*
X37498317Y-32225759D01*
X37480555Y-32264147D01*
X37469257Y-32296171D01*
X37461710Y-32328981D01*
X37457824Y-32362479D01*
X37457508Y-32396566D01*
X37125863Y-32396566D01*
X37131063Y-32353494D01*
X37138735Y-32301271D01*
X37147691Y-32249768D01*
X37157916Y-32199122D01*
X37169399Y-32149468D01*
X37182126Y-32100942D01*
X37196084Y-32053680D01*
X37211261Y-32007817D01*
X37227643Y-31963489D01*
X37245218Y-31920831D01*
X37263973Y-31879980D01*
X37283895Y-31841071D01*
X37307146Y-31799999D01*
X37331845Y-31760004D01*
X37357944Y-31721096D01*
X37385396Y-31683286D01*
X37414153Y-31646585D01*
X37444167Y-31611004D01*
X37475391Y-31576553D01*
X37507777Y-31543244D01*
X37541277Y-31511087D01*
X37575845Y-31480092D01*
X37611431Y-31450272D01*
X37647989Y-31421635D01*
X37685470Y-31394194D01*
X37723828Y-31367959D01*
X37763014Y-31342941D01*
X37802981Y-31319151D01*
X37843681Y-31296598D01*
X37885067Y-31275295D01*
X37927091Y-31255252D01*
X37969704Y-31236480D01*
X38012861Y-31218989D01*
X38056512Y-31202791D01*
X38100610Y-31187895D01*
X38145108Y-31174314D01*
X38189958Y-31162057D01*
X38235113Y-31151136D01*
X38280523Y-31141560D01*
X38326143Y-31133342D01*
X38371924Y-31126492D01*
X38417819Y-31121020D01*
X38463780Y-31116938D01*
X38509759Y-31114256D01*
X38555709Y-31112985D01*
X38601582Y-31113135D01*
G37*
%TD*%
M02*
