%TF.GenerationSoftware,KiCad,Pcbnew,10.0.1*%
%TF.CreationDate,2026-06-08T19:00:18-04:00*%
%TF.ProjectId,ITPcamp-card-example,49545063-616d-4702-9d63-6172642d6578,rev?*%
%TF.SameCoordinates,Original*%
%TF.FileFunction,Legend,Top*%
%TF.FilePolarity,Positive*%
%FSLAX46Y46*%
G04 Gerber Fmt 4.6, Leading zero omitted, Abs format (unit mm)*
G04 Created by KiCad (PCBNEW 10.0.1) date 2026-06-08 19:00:18*
%MOMM*%
%LPD*%
G01*
G04 APERTURE LIST*
%ADD10C,0.000000*%
G04 APERTURE END LIST*
D10*
%TO.C,itp-camp*%
G36*
X99410916Y-26216175D02*
G01*
X99472630Y-26216374D01*
X99534694Y-26216675D01*
X99597039Y-26217079D01*
X99659598Y-26217584D01*
X99722301Y-26218189D01*
X99785079Y-26218893D01*
X99847865Y-26219696D01*
X99910589Y-26220595D01*
X99973183Y-26221591D01*
X100035579Y-26222683D01*
X100097707Y-26223868D01*
X100159499Y-26225147D01*
X100220887Y-26226518D01*
X100281802Y-26227980D01*
X100342176Y-26229533D01*
X100401939Y-26231175D01*
X100461023Y-26232905D01*
X100519360Y-26234723D01*
X100576880Y-26236627D01*
X100633517Y-26238617D01*
X100689199Y-26240691D01*
X100743860Y-26242848D01*
X100797431Y-26245088D01*
X100849842Y-26247410D01*
X100901026Y-26249812D01*
X100950914Y-26252293D01*
X100999437Y-26254853D01*
X101046526Y-26257490D01*
X101092113Y-26260204D01*
X101136130Y-26262994D01*
X101178507Y-26265858D01*
X101219177Y-26268796D01*
X101258070Y-26271806D01*
X101295117Y-26274888D01*
X101330252Y-26278040D01*
X101363404Y-26281263D01*
X101394505Y-26284553D01*
X101456007Y-26291448D01*
X101517289Y-26298497D01*
X101578352Y-26305702D01*
X101639195Y-26313062D01*
X101699820Y-26320578D01*
X101760226Y-26328250D01*
X101820414Y-26336076D01*
X101880385Y-26344059D01*
X101940137Y-26352198D01*
X101999672Y-26360493D01*
X102058991Y-26368943D01*
X102118092Y-26377550D01*
X102176977Y-26386314D01*
X102235646Y-26395233D01*
X102294098Y-26404309D01*
X102352336Y-26413542D01*
X102410358Y-26422931D01*
X102468164Y-26432478D01*
X102525757Y-26442181D01*
X102583134Y-26452041D01*
X102640298Y-26462058D01*
X102697247Y-26472232D01*
X102753984Y-26482564D01*
X102810506Y-26493053D01*
X102866816Y-26503700D01*
X102922913Y-26514504D01*
X102978798Y-26525466D01*
X103034470Y-26536585D01*
X103089931Y-26547863D01*
X103145180Y-26559298D01*
X103200218Y-26570892D01*
X103255045Y-26582644D01*
X103309661Y-26594554D01*
X103364067Y-26606623D01*
X103418263Y-26618850D01*
X103472249Y-26631236D01*
X103526025Y-26643780D01*
X103579592Y-26656483D01*
X103632950Y-26669345D01*
X103686100Y-26682366D01*
X103739041Y-26695547D01*
X103791774Y-26708886D01*
X103844300Y-26722385D01*
X103896617Y-26736043D01*
X103948728Y-26749861D01*
X104000632Y-26763838D01*
X104052329Y-26777975D01*
X104103819Y-26792272D01*
X104155104Y-26806728D01*
X104206183Y-26821345D01*
X104257056Y-26836122D01*
X104307725Y-26851059D01*
X104358188Y-26866156D01*
X104408447Y-26881414D01*
X104458501Y-26896832D01*
X104508352Y-26912411D01*
X104557998Y-26928151D01*
X104607442Y-26944051D01*
X104656682Y-26960113D01*
X104705719Y-26976335D01*
X104754554Y-26992719D01*
X104803186Y-27009263D01*
X104851616Y-27025969D01*
X104899845Y-27042837D01*
X104947872Y-27059866D01*
X104995698Y-27077056D01*
X105043324Y-27094409D01*
X105090748Y-27111923D01*
X105137973Y-27129599D01*
X105184997Y-27147437D01*
X105231822Y-27165437D01*
X105278448Y-27183600D01*
X105324874Y-27201924D01*
X105371101Y-27220411D01*
X105417130Y-27239061D01*
X105462961Y-27257874D01*
X105508594Y-27276849D01*
X105554029Y-27295987D01*
X105599267Y-27315287D01*
X105644308Y-27334751D01*
X105689152Y-27354378D01*
X105733799Y-27374168D01*
X105778250Y-27394122D01*
X105822506Y-27414239D01*
X105866565Y-27434520D01*
X105910430Y-27454964D01*
X105954099Y-27475572D01*
X105997574Y-27496343D01*
X106040854Y-27517279D01*
X106083940Y-27538379D01*
X106126832Y-27559642D01*
X106169530Y-27581070D01*
X106212036Y-27602663D01*
X106254348Y-27624420D01*
X106296467Y-27646341D01*
X106338394Y-27668427D01*
X106380129Y-27690678D01*
X106421672Y-27713093D01*
X106463023Y-27735674D01*
X106504183Y-27758420D01*
X106545152Y-27781330D01*
X106585931Y-27804406D01*
X106626519Y-27827648D01*
X106666917Y-27851054D01*
X106707125Y-27874627D01*
X106747143Y-27898365D01*
X106786972Y-27922268D01*
X106826613Y-27946338D01*
X106866064Y-27970573D01*
X106905328Y-27994975D01*
X106944403Y-28019542D01*
X106983290Y-28044276D01*
X107021990Y-28069177D01*
X107060502Y-28094243D01*
X107098828Y-28119477D01*
X107136967Y-28144876D01*
X107174920Y-28170443D01*
X107212686Y-28196177D01*
X107250267Y-28222077D01*
X107287662Y-28248145D01*
X107324872Y-28274379D01*
X107361898Y-28300781D01*
X107398738Y-28327351D01*
X107435394Y-28354087D01*
X107471867Y-28380992D01*
X107508155Y-28408063D01*
X107542860Y-28434458D01*
X107578701Y-28462408D01*
X107615584Y-28491821D01*
X107653414Y-28522606D01*
X107692097Y-28554671D01*
X107731538Y-28587927D01*
X107771643Y-28622281D01*
X107812317Y-28657643D01*
X107853466Y-28693920D01*
X107894995Y-28731023D01*
X107936810Y-28768859D01*
X107978816Y-28807338D01*
X108020918Y-28846368D01*
X108063023Y-28885858D01*
X108105036Y-28925717D01*
X108146861Y-28965854D01*
X108188406Y-29006177D01*
X108229574Y-29046595D01*
X108270272Y-29087017D01*
X108310405Y-29127353D01*
X108349879Y-29167510D01*
X108388599Y-29207397D01*
X108426471Y-29246923D01*
X108463400Y-29285998D01*
X108499291Y-29324529D01*
X108534050Y-29362426D01*
X108567583Y-29399597D01*
X108599796Y-29435952D01*
X108630592Y-29471398D01*
X108659879Y-29505846D01*
X108687562Y-29539202D01*
X108713545Y-29571377D01*
X108746142Y-29612754D01*
X108778335Y-29654426D01*
X108810124Y-29696388D01*
X108841504Y-29738636D01*
X108872475Y-29781164D01*
X108903033Y-29823968D01*
X108933177Y-29867043D01*
X108962904Y-29910383D01*
X108992211Y-29953985D01*
X109021097Y-29997842D01*
X109049560Y-30041950D01*
X109077596Y-30086305D01*
X109105203Y-30130901D01*
X109132379Y-30175734D01*
X109159123Y-30220797D01*
X109185431Y-30266088D01*
X109211301Y-30311600D01*
X109236731Y-30357329D01*
X109261718Y-30403270D01*
X109286261Y-30449418D01*
X109310356Y-30495767D01*
X109334002Y-30542314D01*
X109357197Y-30589054D01*
X109379937Y-30635980D01*
X109402221Y-30683089D01*
X109424046Y-30730375D01*
X109445410Y-30777835D01*
X109466311Y-30825461D01*
X109486746Y-30873251D01*
X109506714Y-30921198D01*
X109526211Y-30969299D01*
X109545235Y-31017547D01*
X109563784Y-31065939D01*
X109581856Y-31114469D01*
X109599448Y-31163133D01*
X109616559Y-31211925D01*
X109633185Y-31260840D01*
X109649325Y-31309874D01*
X109664976Y-31359022D01*
X109680135Y-31408278D01*
X109694802Y-31457639D01*
X109708972Y-31507099D01*
X109722644Y-31556652D01*
X109735815Y-31606295D01*
X109748484Y-31656023D01*
X109760648Y-31705829D01*
X109772304Y-31755710D01*
X109783451Y-31805661D01*
X109794085Y-31855676D01*
X109801818Y-31895650D01*
X109809750Y-31941729D01*
X109817812Y-31993163D01*
X109825932Y-32049201D01*
X109834039Y-32109092D01*
X109842063Y-32172086D01*
X109849932Y-32237431D01*
X109857576Y-32304376D01*
X109864923Y-32372171D01*
X109871903Y-32440065D01*
X109878445Y-32507307D01*
X109884478Y-32573146D01*
X109889931Y-32636832D01*
X109894733Y-32697613D01*
X109898814Y-32754738D01*
X109902102Y-32807457D01*
X109904526Y-32855019D01*
X109906017Y-32896673D01*
X109906501Y-32931668D01*
X109905910Y-32959253D01*
X109904171Y-32978678D01*
X109901215Y-32989191D01*
X109900315Y-33002817D01*
X109903345Y-33031567D01*
X109909903Y-33072931D01*
X109919585Y-33124396D01*
X109931990Y-33183449D01*
X109946715Y-33247579D01*
X109956408Y-33289742D01*
X109965612Y-33333016D01*
X109974324Y-33377350D01*
X109982546Y-33422691D01*
X109990276Y-33468985D01*
X109997515Y-33516181D01*
X110004261Y-33564225D01*
X110010516Y-33613064D01*
X110016278Y-33662646D01*
X110021547Y-33712918D01*
X110026323Y-33763828D01*
X110030606Y-33815322D01*
X110034394Y-33867347D01*
X110037689Y-33919851D01*
X110040489Y-33972782D01*
X110042794Y-34026086D01*
X110044604Y-34079710D01*
X110045919Y-34133602D01*
X110046738Y-34187709D01*
X110047061Y-34241979D01*
X110046887Y-34296357D01*
X110046217Y-34350793D01*
X110045050Y-34405232D01*
X110043385Y-34459623D01*
X110041223Y-34513912D01*
X110038562Y-34568046D01*
X110035404Y-34621973D01*
X110031747Y-34675640D01*
X110027590Y-34728995D01*
X110022935Y-34781984D01*
X110017780Y-34834555D01*
X110012125Y-34886654D01*
X110005970Y-34938230D01*
X109999314Y-34989229D01*
X109992157Y-35039599D01*
X109984499Y-35089286D01*
X109976340Y-35138239D01*
X109967678Y-35186403D01*
X109958515Y-35233727D01*
X109950803Y-35271472D01*
X109942818Y-35309222D01*
X109934561Y-35346978D01*
X109926032Y-35384738D01*
X109917233Y-35422502D01*
X109908163Y-35460270D01*
X109898824Y-35498041D01*
X109889215Y-35535815D01*
X109879338Y-35573591D01*
X109869192Y-35611368D01*
X109858780Y-35649146D01*
X109848100Y-35686924D01*
X109837155Y-35724703D01*
X109825943Y-35762481D01*
X109814467Y-35800258D01*
X109802726Y-35838033D01*
X109790721Y-35875806D01*
X109778453Y-35913576D01*
X109765922Y-35951343D01*
X109753129Y-35989106D01*
X109740074Y-36026865D01*
X109726759Y-36064620D01*
X109713183Y-36102368D01*
X109699347Y-36140111D01*
X109685252Y-36177848D01*
X109670899Y-36215578D01*
X109656287Y-36253300D01*
X109641418Y-36291014D01*
X109626292Y-36328720D01*
X109610910Y-36366417D01*
X109595272Y-36404104D01*
X109579379Y-36441781D01*
X109563231Y-36479448D01*
X109546830Y-36517103D01*
X109530175Y-36554747D01*
X109513267Y-36592378D01*
X109496107Y-36629997D01*
X109478696Y-36667603D01*
X109461033Y-36705195D01*
X109443120Y-36742772D01*
X109424958Y-36780335D01*
X109406546Y-36817882D01*
X109387885Y-36855414D01*
X109368976Y-36892929D01*
X109349820Y-36930427D01*
X109330416Y-36967908D01*
X109310767Y-37005370D01*
X109290871Y-37042815D01*
X109270731Y-37080240D01*
X109250346Y-37117645D01*
X109229717Y-37155031D01*
X109208844Y-37192396D01*
X109187729Y-37229740D01*
X109166371Y-37267062D01*
X109144772Y-37304362D01*
X109122932Y-37341639D01*
X109100851Y-37378893D01*
X109078530Y-37416123D01*
X109055970Y-37453329D01*
X109033172Y-37490510D01*
X109010135Y-37527666D01*
X108986860Y-37564796D01*
X108963349Y-37601899D01*
X108939601Y-37638976D01*
X108915617Y-37676025D01*
X108891399Y-37713046D01*
X108866945Y-37750038D01*
X108842258Y-37787002D01*
X108817337Y-37823935D01*
X108792183Y-37860839D01*
X108766797Y-37897712D01*
X108741179Y-37934554D01*
X108715330Y-37971365D01*
X108689250Y-38008143D01*
X108662941Y-38044888D01*
X108636402Y-38081600D01*
X108609634Y-38118279D01*
X108582638Y-38154923D01*
X108555415Y-38191532D01*
X108527965Y-38228106D01*
X108500288Y-38264644D01*
X108472385Y-38301145D01*
X108444257Y-38337610D01*
X108415904Y-38374037D01*
X108387328Y-38410426D01*
X108358527Y-38446777D01*
X108329504Y-38483088D01*
X108300258Y-38519360D01*
X108270791Y-38555592D01*
X108241103Y-38591783D01*
X108211194Y-38627934D01*
X108181064Y-38664042D01*
X108150716Y-38700108D01*
X108120149Y-38736132D01*
X108089363Y-38772112D01*
X108058360Y-38808048D01*
X108027139Y-38843940D01*
X107995703Y-38879787D01*
X107964050Y-38915589D01*
X107932182Y-38951345D01*
X107900099Y-38987055D01*
X107867802Y-39022717D01*
X107835292Y-39058332D01*
X107802568Y-39093899D01*
X107769632Y-39129418D01*
X107736485Y-39164887D01*
X107703126Y-39200307D01*
X107669556Y-39235677D01*
X107635777Y-39270996D01*
X107601788Y-39306264D01*
X107567590Y-39341480D01*
X107533184Y-39376644D01*
X107498570Y-39411755D01*
X107463749Y-39446813D01*
X107428721Y-39481817D01*
X107393488Y-39516767D01*
X107358049Y-39551662D01*
X107322405Y-39586502D01*
X107286557Y-39621286D01*
X107250506Y-39656013D01*
X107214251Y-39690683D01*
X107177794Y-39725296D01*
X107141135Y-39759851D01*
X107104275Y-39794347D01*
X107067215Y-39828784D01*
X107029954Y-39863162D01*
X106992493Y-39897479D01*
X106954834Y-39931736D01*
X106916976Y-39965932D01*
X106878921Y-40000066D01*
X106840668Y-40034137D01*
X106802219Y-40068146D01*
X106763574Y-40102092D01*
X106724733Y-40135974D01*
X106685698Y-40169791D01*
X106646468Y-40203544D01*
X106607045Y-40237231D01*
X106567428Y-40270852D01*
X106527619Y-40304407D01*
X106487618Y-40337895D01*
X106447426Y-40371316D01*
X106407043Y-40404668D01*
X106366470Y-40437952D01*
X106325708Y-40471166D01*
X106284756Y-40504312D01*
X106243616Y-40537387D01*
X106202288Y-40570391D01*
X106160773Y-40603324D01*
X106119071Y-40636185D01*
X106077184Y-40668975D01*
X106035110Y-40701691D01*
X105992852Y-40734334D01*
X105950410Y-40766903D01*
X105907784Y-40799398D01*
X105864975Y-40831818D01*
X105821983Y-40864163D01*
X105778809Y-40896432D01*
X105735454Y-40928624D01*
X105691918Y-40960739D01*
X105648202Y-40992777D01*
X105604306Y-41024737D01*
X105560232Y-41056618D01*
X105515978Y-41088420D01*
X105471547Y-41120143D01*
X105426939Y-41151785D01*
X105382154Y-41183347D01*
X105337193Y-41214827D01*
X105292056Y-41246226D01*
X105246745Y-41277542D01*
X105201259Y-41308776D01*
X105155599Y-41339927D01*
X105109766Y-41370993D01*
X105063761Y-41401975D01*
X105017583Y-41432873D01*
X104971234Y-41463685D01*
X104924715Y-41494411D01*
X104878025Y-41525050D01*
X104831165Y-41555603D01*
X104784136Y-41586068D01*
X104736939Y-41616445D01*
X104689574Y-41646733D01*
X104642041Y-41676932D01*
X104594342Y-41707042D01*
X104546477Y-41737061D01*
X104498446Y-41766990D01*
X104450250Y-41796828D01*
X104401890Y-41826574D01*
X104353366Y-41856227D01*
X104304678Y-41885788D01*
X104255828Y-41915256D01*
X104206816Y-41944629D01*
X104157643Y-41973909D01*
X104108308Y-42003093D01*
X104058813Y-42032182D01*
X104009159Y-42061175D01*
X103959345Y-42090072D01*
X103909373Y-42118871D01*
X103859243Y-42147573D01*
X103808956Y-42176177D01*
X103758512Y-42204683D01*
X103707911Y-42233089D01*
X103657155Y-42261396D01*
X103606244Y-42289602D01*
X103555178Y-42317708D01*
X103503959Y-42345713D01*
X103452586Y-42373616D01*
X103401061Y-42401416D01*
X103349383Y-42429114D01*
X103297554Y-42456708D01*
X103245574Y-42484199D01*
X103193444Y-42511585D01*
X103141164Y-42538866D01*
X103088735Y-42566042D01*
X103036157Y-42593112D01*
X102983431Y-42620076D01*
X102930558Y-42646932D01*
X102877538Y-42673681D01*
X102824371Y-42700322D01*
X102771059Y-42726854D01*
X102717602Y-42753277D01*
X102664000Y-42779591D01*
X102610255Y-42805794D01*
X102556366Y-42831887D01*
X102502334Y-42857868D01*
X102448160Y-42883738D01*
X102393845Y-42909495D01*
X102339389Y-42935140D01*
X102284792Y-42960671D01*
X102230055Y-42986088D01*
X102175180Y-43011391D01*
X102120165Y-43036579D01*
X102065013Y-43061652D01*
X102009723Y-43086609D01*
X101954296Y-43111449D01*
X101898733Y-43136172D01*
X101843034Y-43160777D01*
X101787200Y-43185265D01*
X101731231Y-43209634D01*
X101675128Y-43233884D01*
X101618892Y-43258014D01*
X101562524Y-43282024D01*
X101506023Y-43305913D01*
X101449390Y-43329681D01*
X101392627Y-43353327D01*
X101335733Y-43376851D01*
X101278709Y-43400252D01*
X101221555Y-43423530D01*
X101164274Y-43446684D01*
X101106864Y-43469714D01*
X101049326Y-43492618D01*
X100991662Y-43515397D01*
X100933871Y-43538050D01*
X100875954Y-43560577D01*
X100817912Y-43582977D01*
X100759746Y-43605249D01*
X100701456Y-43627393D01*
X100643042Y-43649408D01*
X100584505Y-43671295D01*
X100534085Y-43690012D01*
X100483645Y-43708620D01*
X100433184Y-43727119D01*
X100382704Y-43745509D01*
X100332204Y-43763789D01*
X100281685Y-43781960D01*
X100231147Y-43800021D01*
X100180589Y-43817972D01*
X100130013Y-43835814D01*
X100079419Y-43853547D01*
X100028806Y-43871169D01*
X99978176Y-43888682D01*
X99927527Y-43906085D01*
X99876861Y-43923378D01*
X99826178Y-43940562D01*
X99775477Y-43957635D01*
X99724760Y-43974598D01*
X99674026Y-43991452D01*
X99623276Y-44008195D01*
X99572509Y-44024828D01*
X99521727Y-44041351D01*
X99470928Y-44057764D01*
X99420115Y-44074066D01*
X99369286Y-44090258D01*
X99318442Y-44106340D01*
X99267583Y-44122312D01*
X99216709Y-44138173D01*
X99165821Y-44153923D01*
X99114919Y-44169563D01*
X99064004Y-44185092D01*
X99013074Y-44200511D01*
X98962131Y-44215819D01*
X98911175Y-44231016D01*
X98860206Y-44246103D01*
X98809224Y-44261078D01*
X98758229Y-44275943D01*
X98707222Y-44290697D01*
X98656203Y-44305340D01*
X98605173Y-44319872D01*
X98554130Y-44334293D01*
X98503077Y-44348603D01*
X98452012Y-44362801D01*
X98400936Y-44376889D01*
X98349849Y-44390865D01*
X98298752Y-44404730D01*
X98247645Y-44418483D01*
X98196527Y-44432126D01*
X98145400Y-44445656D01*
X98094264Y-44459076D01*
X98043118Y-44472383D01*
X97991962Y-44485580D01*
X97940798Y-44498664D01*
X97889626Y-44511637D01*
X97838445Y-44524498D01*
X97787255Y-44537248D01*
X97736058Y-44549886D01*
X97684853Y-44562411D01*
X97633640Y-44574825D01*
X97582420Y-44587127D01*
X97531193Y-44599317D01*
X97479960Y-44611395D01*
X97428719Y-44623361D01*
X97377473Y-44635215D01*
X97326220Y-44646957D01*
X97274961Y-44658586D01*
X97223696Y-44670103D01*
X97172426Y-44681508D01*
X97121151Y-44692801D01*
X97069871Y-44703981D01*
X97018586Y-44715048D01*
X96967297Y-44726004D01*
X96916003Y-44736846D01*
X96864705Y-44747576D01*
X96813403Y-44758194D01*
X96762098Y-44768698D01*
X96710789Y-44779090D01*
X96659477Y-44789369D01*
X96608162Y-44799536D01*
X96556844Y-44809589D01*
X96505524Y-44819530D01*
X96454201Y-44829358D01*
X96402877Y-44839072D01*
X96351550Y-44848674D01*
X96300222Y-44858162D01*
X96248893Y-44867538D01*
X96197563Y-44876800D01*
X96146231Y-44885949D01*
X96094899Y-44894984D01*
X96043567Y-44903907D01*
X95992234Y-44912716D01*
X95940901Y-44921411D01*
X95889569Y-44929993D01*
X95838237Y-44938462D01*
X95786906Y-44946817D01*
X95735576Y-44955058D01*
X95684246Y-44963186D01*
X95632919Y-44971200D01*
X95581592Y-44979100D01*
X95530268Y-44986886D01*
X95478946Y-44994559D01*
X95427626Y-45002118D01*
X95376308Y-45009562D01*
X95324994Y-45016893D01*
X95273682Y-45024110D01*
X95222373Y-45031213D01*
X95171068Y-45038201D01*
X95119767Y-45045076D01*
X95068469Y-45051836D01*
X95017176Y-45058482D01*
X94965887Y-45065013D01*
X94914602Y-45071431D01*
X94863322Y-45077734D01*
X94812048Y-45083922D01*
X94760778Y-45089996D01*
X94709514Y-45095955D01*
X94658256Y-45101800D01*
X94607004Y-45107530D01*
X94555758Y-45113146D01*
X94504518Y-45118647D01*
X94453285Y-45124033D01*
X94402059Y-45129304D01*
X94350839Y-45134460D01*
X94299628Y-45139502D01*
X94248423Y-45144428D01*
X94197227Y-45149240D01*
X94146038Y-45153936D01*
X94094858Y-45158517D01*
X94043686Y-45162984D01*
X93992523Y-45167335D01*
X93941369Y-45171570D01*
X93890223Y-45175691D01*
X93839088Y-45179696D01*
X93787961Y-45183586D01*
X93736845Y-45187360D01*
X93685739Y-45191019D01*
X93634643Y-45194562D01*
X93583557Y-45197990D01*
X93532482Y-45201302D01*
X93481419Y-45204499D01*
X93430366Y-45207580D01*
X93379325Y-45210545D01*
X93328295Y-45213394D01*
X93277277Y-45216128D01*
X93226272Y-45218745D01*
X93175278Y-45221247D01*
X93124298Y-45223633D01*
X93073330Y-45225902D01*
X93022375Y-45228056D01*
X92971433Y-45230093D01*
X92920505Y-45232014D01*
X92845154Y-45234736D01*
X92770957Y-45237350D01*
X92698284Y-45239848D01*
X92627509Y-45242218D01*
X92559004Y-45244450D01*
X92493141Y-45246532D01*
X92430293Y-45248454D01*
X92370831Y-45250206D01*
X92335038Y-45251215D01*
X92315128Y-45251776D01*
X92263556Y-45253154D01*
X92216488Y-45254329D01*
X92174296Y-45255290D01*
X92137353Y-45256027D01*
X92106029Y-45256529D01*
X92080699Y-45256784D01*
X92061733Y-45256783D01*
X92049505Y-45256514D01*
X92034788Y-45255929D01*
X92012219Y-45255045D01*
X91982349Y-45253884D01*
X91945729Y-45252469D01*
X91902911Y-45250823D01*
X91854444Y-45248968D01*
X91800880Y-45246927D01*
X91742770Y-45244722D01*
X91680666Y-45242376D01*
X91615117Y-45239911D01*
X91546676Y-45237350D01*
X91475893Y-45234715D01*
X91403319Y-45232029D01*
X91329505Y-45229315D01*
X91329505Y-45229295D01*
X91283284Y-45227482D01*
X91235150Y-45225394D01*
X91185307Y-45223045D01*
X91133959Y-45220450D01*
X91081311Y-45217623D01*
X91027567Y-45214580D01*
X90972933Y-45211334D01*
X90917612Y-45207900D01*
X90861809Y-45204294D01*
X90805729Y-45200530D01*
X90749576Y-45196623D01*
X90693555Y-45192586D01*
X90637870Y-45188436D01*
X90582725Y-45184186D01*
X90528326Y-45179852D01*
X90474877Y-45175448D01*
X90422581Y-45170988D01*
X90371645Y-45166488D01*
X90322272Y-45161962D01*
X90274667Y-45157425D01*
X90229035Y-45152892D01*
X90185579Y-45148377D01*
X90144505Y-45143895D01*
X90079658Y-45136507D01*
X90015027Y-45128910D01*
X89950616Y-45121103D01*
X89886422Y-45113087D01*
X89822449Y-45104862D01*
X89758695Y-45096429D01*
X89695163Y-45087787D01*
X89631852Y-45078939D01*
X89568764Y-45069883D01*
X89505898Y-45060620D01*
X89443257Y-45051151D01*
X89380840Y-45041476D01*
X89318648Y-45031596D01*
X89256682Y-45021511D01*
X89194942Y-45011222D01*
X89133430Y-45000728D01*
X89072146Y-44990031D01*
X89011091Y-44979130D01*
X88950265Y-44968027D01*
X88889669Y-44956721D01*
X88829304Y-44945213D01*
X88769171Y-44933504D01*
X88709270Y-44921593D01*
X88649602Y-44909482D01*
X88590168Y-44897170D01*
X88530968Y-44884659D01*
X88472003Y-44871948D01*
X88413274Y-44859039D01*
X88354781Y-44845930D01*
X88296526Y-44832624D01*
X88238509Y-44819120D01*
X88180730Y-44805419D01*
X88123190Y-44791520D01*
X88065891Y-44777426D01*
X88008833Y-44763135D01*
X87952016Y-44748649D01*
X87895441Y-44733968D01*
X87839109Y-44719092D01*
X87783020Y-44704021D01*
X87727176Y-44688757D01*
X87671577Y-44673300D01*
X87616224Y-44657649D01*
X87561117Y-44641806D01*
X87506257Y-44625770D01*
X87451646Y-44609543D01*
X87397282Y-44593125D01*
X87343168Y-44576516D01*
X87289304Y-44559716D01*
X87235691Y-44542727D01*
X87182329Y-44525547D01*
X87129219Y-44508179D01*
X87076362Y-44490622D01*
X87023758Y-44472876D01*
X86971409Y-44454943D01*
X86919314Y-44436822D01*
X86867476Y-44418514D01*
X86815893Y-44400020D01*
X86764568Y-44381340D01*
X86713500Y-44362473D01*
X86662691Y-44343422D01*
X86612141Y-44324185D01*
X86561851Y-44304764D01*
X86511822Y-44285159D01*
X86462054Y-44265371D01*
X86412547Y-44245399D01*
X86363304Y-44225244D01*
X86314324Y-44204908D01*
X86265608Y-44184389D01*
X86217157Y-44163689D01*
X86168972Y-44142807D01*
X86121053Y-44121746D01*
X86073401Y-44100504D01*
X86026016Y-44079082D01*
X85978900Y-44057481D01*
X85932053Y-44035701D01*
X85885476Y-44013742D01*
X85839169Y-43991606D01*
X85793133Y-43969291D01*
X85747370Y-43946800D01*
X85701879Y-43924132D01*
X85656661Y-43901287D01*
X85611718Y-43878267D01*
X85567049Y-43855071D01*
X85522656Y-43831700D01*
X85478539Y-43808155D01*
X85434698Y-43784435D01*
X85391136Y-43760541D01*
X85347851Y-43736474D01*
X85304846Y-43712235D01*
X85262120Y-43687822D01*
X85219675Y-43663238D01*
X85177511Y-43638482D01*
X85135629Y-43613555D01*
X85094029Y-43588457D01*
X85052713Y-43563188D01*
X85011680Y-43537750D01*
X84970933Y-43512142D01*
X84930470Y-43486365D01*
X84890294Y-43460420D01*
X84850405Y-43434306D01*
X84810803Y-43408024D01*
X84771489Y-43381575D01*
X84732464Y-43354959D01*
X84693729Y-43328177D01*
X84655284Y-43301229D01*
X84617130Y-43274114D01*
X84579268Y-43246835D01*
X84541698Y-43219391D01*
X84504422Y-43191782D01*
X84467439Y-43164010D01*
X84430751Y-43136074D01*
X84394359Y-43107975D01*
X84358262Y-43079713D01*
X84322462Y-43051289D01*
X84286960Y-43022703D01*
X84251755Y-42993956D01*
X84216850Y-42965047D01*
X84182244Y-42935979D01*
X84147938Y-42906750D01*
X84113933Y-42877361D01*
X84080230Y-42847813D01*
X84046829Y-42818107D01*
X84013732Y-42788242D01*
X83980938Y-42758219D01*
X83948448Y-42728038D01*
X83916264Y-42697701D01*
X83884386Y-42667206D01*
X83852814Y-42636556D01*
X83821550Y-42605749D01*
X83790594Y-42574788D01*
X83759946Y-42543671D01*
X83729608Y-42512399D01*
X83699581Y-42480974D01*
X83669864Y-42449395D01*
X83640458Y-42417662D01*
X83611365Y-42385777D01*
X83582585Y-42353739D01*
X83554119Y-42321550D01*
X83525967Y-42289208D01*
X83498130Y-42256716D01*
X83470609Y-42224073D01*
X83443404Y-42191279D01*
X83416517Y-42158336D01*
X83389948Y-42125243D01*
X83363697Y-42092002D01*
X83337766Y-42058612D01*
X83312155Y-42025073D01*
X83286864Y-41991387D01*
X83261896Y-41957554D01*
X83237249Y-41923573D01*
X83212925Y-41889447D01*
X83188925Y-41855174D01*
X83165249Y-41820756D01*
X83141898Y-41786192D01*
X83118873Y-41751484D01*
X83096175Y-41716632D01*
X83073804Y-41681635D01*
X83051760Y-41646496D01*
X83030045Y-41611213D01*
X83008659Y-41575788D01*
X82987604Y-41540220D01*
X82966879Y-41504511D01*
X82946485Y-41468660D01*
X82926424Y-41432669D01*
X82906695Y-41396537D01*
X82887300Y-41360265D01*
X82868239Y-41323853D01*
X82849514Y-41287303D01*
X82831123Y-41250613D01*
X82813070Y-41213785D01*
X82795353Y-41176820D01*
X82777974Y-41139717D01*
X82760933Y-41102476D01*
X82744232Y-41065100D01*
X82727871Y-41027587D01*
X82711850Y-40989938D01*
X82696171Y-40952154D01*
X82680833Y-40914235D01*
X82665838Y-40876182D01*
X82651187Y-40837994D01*
X82636880Y-40799673D01*
X82622918Y-40761219D01*
X82609301Y-40722632D01*
X82596031Y-40683912D01*
X82583108Y-40645061D01*
X82570532Y-40606078D01*
X82558305Y-40566964D01*
X82542766Y-40515005D01*
X82527376Y-40460719D01*
X82512225Y-40404557D01*
X82497402Y-40346970D01*
X82482996Y-40288408D01*
X82469098Y-40229322D01*
X82455796Y-40170162D01*
X82443181Y-40111379D01*
X82431342Y-40053423D01*
X82420369Y-39996745D01*
X82410352Y-39941795D01*
X82401379Y-39889025D01*
X82393541Y-39838883D01*
X82386927Y-39791822D01*
X82381627Y-39748291D01*
X82377730Y-39708742D01*
X82375326Y-39673624D01*
X82374505Y-39643387D01*
X82372836Y-39621969D01*
X82368026Y-39591767D01*
X82360373Y-39553962D01*
X82350173Y-39509734D01*
X82337722Y-39460265D01*
X82323317Y-39406733D01*
X82307255Y-39350320D01*
X82289832Y-39292207D01*
X82271345Y-39233573D01*
X82256750Y-39187747D01*
X82242573Y-39141854D01*
X82228812Y-39095892D01*
X82215467Y-39049863D01*
X82202539Y-39003767D01*
X82190026Y-38957606D01*
X82177930Y-38911379D01*
X82166250Y-38865088D01*
X82154986Y-38818734D01*
X82144137Y-38772317D01*
X82133704Y-38725837D01*
X82123686Y-38679296D01*
X82114083Y-38632695D01*
X82104895Y-38586033D01*
X82096123Y-38539313D01*
X82087765Y-38492533D01*
X82079821Y-38445696D01*
X82072292Y-38398802D01*
X82065178Y-38351852D01*
X82058477Y-38304846D01*
X82052191Y-38257786D01*
X82046318Y-38210671D01*
X82040860Y-38163503D01*
X82035814Y-38116282D01*
X82031183Y-38069009D01*
X82026964Y-38021685D01*
X82023159Y-37974311D01*
X82019767Y-37926887D01*
X82016788Y-37879414D01*
X82014221Y-37831892D01*
X82012068Y-37784323D01*
X82010326Y-37736708D01*
X82008997Y-37689046D01*
X82008080Y-37641339D01*
X82007575Y-37593588D01*
X82007494Y-37551955D01*
X82150755Y-37551955D01*
X82150795Y-37631319D01*
X82151046Y-37704862D01*
X82151538Y-37773042D01*
X82152305Y-37836314D01*
X82153379Y-37895135D01*
X82154793Y-37949962D01*
X82156577Y-38001251D01*
X82158766Y-38049459D01*
X82161391Y-38095043D01*
X82164485Y-38138458D01*
X82168080Y-38180162D01*
X82172208Y-38220611D01*
X82176901Y-38260262D01*
X82182193Y-38299571D01*
X82188115Y-38338994D01*
X82194700Y-38378989D01*
X82201980Y-38420012D01*
X82209988Y-38462519D01*
X82218755Y-38506968D01*
X82228971Y-38556562D01*
X82239616Y-38605972D01*
X82250689Y-38655196D01*
X82262190Y-38704235D01*
X82274120Y-38753089D01*
X82286478Y-38801757D01*
X82299265Y-38850241D01*
X82312481Y-38898540D01*
X82326125Y-38946655D01*
X82340198Y-38994584D01*
X82354700Y-39042330D01*
X82369631Y-39089891D01*
X82384991Y-39137268D01*
X82400780Y-39184460D01*
X82416998Y-39231469D01*
X82433645Y-39278294D01*
X82450722Y-39324935D01*
X82468228Y-39371392D01*
X82486164Y-39417666D01*
X82504529Y-39463756D01*
X82523323Y-39509664D01*
X82542547Y-39555387D01*
X82562201Y-39600928D01*
X82582285Y-39646286D01*
X82602799Y-39691461D01*
X82623742Y-39736453D01*
X82645116Y-39781263D01*
X82666919Y-39825889D01*
X82689153Y-39870334D01*
X82711817Y-39914596D01*
X82734911Y-39958676D01*
X82758436Y-40002574D01*
X82782391Y-40046290D01*
X82806776Y-40089824D01*
X82831592Y-40133177D01*
X82856839Y-40176347D01*
X82882516Y-40219337D01*
X82908625Y-40262144D01*
X82935164Y-40304771D01*
X82962134Y-40347216D01*
X82989535Y-40389481D01*
X83017367Y-40431564D01*
X83045630Y-40473466D01*
X83074324Y-40515188D01*
X83103450Y-40556729D01*
X83133007Y-40598090D01*
X83162995Y-40639270D01*
X83193415Y-40680270D01*
X83224267Y-40721090D01*
X83255550Y-40761729D01*
X83287265Y-40802189D01*
X83319411Y-40842469D01*
X83351990Y-40882569D01*
X83385000Y-40922490D01*
X83418442Y-40962231D01*
X83452317Y-41001793D01*
X83486623Y-41041175D01*
X83521362Y-41080378D01*
X83556533Y-41119403D01*
X83592136Y-41158248D01*
X83628172Y-41196914D01*
X83664640Y-41235402D01*
X83701541Y-41273711D01*
X83738874Y-41311842D01*
X83776640Y-41349794D01*
X83814839Y-41387568D01*
X83853470Y-41425164D01*
X83892535Y-41462582D01*
X83932032Y-41499822D01*
X83971963Y-41536884D01*
X84012326Y-41573769D01*
X84053123Y-41610476D01*
X84094353Y-41647005D01*
X84136017Y-41683357D01*
X84178114Y-41719532D01*
X84220644Y-41755530D01*
X84263608Y-41791351D01*
X84307005Y-41826995D01*
X84341309Y-41854756D01*
X84375964Y-41882399D01*
X84410968Y-41909921D01*
X84446317Y-41937323D01*
X84482011Y-41964602D01*
X84518045Y-41991757D01*
X84554419Y-42018789D01*
X84591129Y-42045694D01*
X84628172Y-42072474D01*
X84665547Y-42099126D01*
X84703251Y-42125649D01*
X84741281Y-42152043D01*
X84779635Y-42178306D01*
X84818310Y-42204438D01*
X84857305Y-42230437D01*
X84896616Y-42256302D01*
X84936242Y-42282032D01*
X84976178Y-42307626D01*
X85016425Y-42333083D01*
X85056977Y-42358402D01*
X85097834Y-42383582D01*
X85138993Y-42408623D01*
X85180451Y-42433522D01*
X85222206Y-42458278D01*
X85264255Y-42482892D01*
X85306596Y-42507361D01*
X85349227Y-42531685D01*
X85392144Y-42555862D01*
X85435346Y-42579892D01*
X85478830Y-42603774D01*
X85522594Y-42627506D01*
X85566635Y-42651087D01*
X85610950Y-42674517D01*
X85655538Y-42697794D01*
X85700395Y-42720917D01*
X85745520Y-42743885D01*
X85790909Y-42766698D01*
X85836560Y-42789354D01*
X85882472Y-42811852D01*
X85928641Y-42834190D01*
X85975064Y-42856369D01*
X86021741Y-42878387D01*
X86068667Y-42900242D01*
X86115841Y-42921935D01*
X86163259Y-42943463D01*
X86210921Y-42964825D01*
X86258822Y-42986022D01*
X86306961Y-43007051D01*
X86355335Y-43027911D01*
X86403942Y-43048603D01*
X86452780Y-43069123D01*
X86501845Y-43089472D01*
X86551135Y-43109648D01*
X86600648Y-43129651D01*
X86650382Y-43149479D01*
X86700334Y-43169131D01*
X86750501Y-43188606D01*
X86800881Y-43207904D01*
X86851471Y-43227022D01*
X86902270Y-43245960D01*
X86953274Y-43264718D01*
X87004482Y-43283293D01*
X87055890Y-43301685D01*
X87107496Y-43319893D01*
X87159298Y-43337916D01*
X87211293Y-43355752D01*
X87263479Y-43373401D01*
X87315854Y-43390862D01*
X87368414Y-43408133D01*
X87421158Y-43425214D01*
X87474082Y-43442103D01*
X87527185Y-43458800D01*
X87580465Y-43475303D01*
X87633917Y-43491611D01*
X87687541Y-43507724D01*
X87741333Y-43523640D01*
X87795292Y-43539358D01*
X87849414Y-43554877D01*
X87903698Y-43570196D01*
X87958140Y-43585314D01*
X88012738Y-43600230D01*
X88067490Y-43614943D01*
X88122394Y-43629452D01*
X88177447Y-43643756D01*
X88232646Y-43657853D01*
X88287989Y-43671743D01*
X88343473Y-43685425D01*
X88399096Y-43698897D01*
X88454856Y-43712159D01*
X88510751Y-43725210D01*
X88566776Y-43738048D01*
X88622931Y-43750672D01*
X88679213Y-43763082D01*
X88735619Y-43775276D01*
X88792146Y-43787253D01*
X88848793Y-43799013D01*
X88905557Y-43810554D01*
X88962435Y-43821875D01*
X89019425Y-43832975D01*
X89068188Y-43842290D01*
X89117006Y-43851458D01*
X89165879Y-43860480D01*
X89214807Y-43869356D01*
X89263792Y-43878085D01*
X89312835Y-43886667D01*
X89361935Y-43895104D01*
X89411095Y-43903394D01*
X89460314Y-43911537D01*
X89509594Y-43919535D01*
X89558934Y-43927386D01*
X89608337Y-43935092D01*
X89657802Y-43942651D01*
X89707331Y-43950064D01*
X89756924Y-43957331D01*
X89806581Y-43964452D01*
X89856305Y-43971427D01*
X89906094Y-43978256D01*
X89955951Y-43984940D01*
X90005876Y-43991477D01*
X90055870Y-43997869D01*
X90105933Y-44004115D01*
X90156066Y-44010216D01*
X90206270Y-44016170D01*
X90256546Y-44021980D01*
X90306894Y-44027643D01*
X90357316Y-44033161D01*
X90407811Y-44038534D01*
X90458382Y-44043761D01*
X90509027Y-44048843D01*
X90559749Y-44053779D01*
X90610548Y-44058570D01*
X90661425Y-44063216D01*
X90712380Y-44067716D01*
X90763414Y-44072072D01*
X90814529Y-44076282D01*
X90865724Y-44080347D01*
X90917000Y-44084267D01*
X90968359Y-44088042D01*
X91019801Y-44091672D01*
X91071327Y-44095157D01*
X91122937Y-44098497D01*
X91174633Y-44101692D01*
X91226414Y-44104743D01*
X91278282Y-44107648D01*
X91330238Y-44110409D01*
X91382283Y-44113025D01*
X91434416Y-44115497D01*
X91486639Y-44117824D01*
X91538953Y-44120006D01*
X91591358Y-44122044D01*
X91643855Y-44123937D01*
X91696444Y-44125686D01*
X91749128Y-44127290D01*
X91801906Y-44128750D01*
X91854779Y-44130066D01*
X91907747Y-44131237D01*
X91960813Y-44132265D01*
X92013975Y-44133148D01*
X92067236Y-44133886D01*
X92120596Y-44134481D01*
X92174055Y-44134932D01*
X92227615Y-44135238D01*
X92281276Y-44135401D01*
X92335038Y-44135419D01*
X92388904Y-44135294D01*
X92442872Y-44135024D01*
X92496945Y-44134611D01*
X92551123Y-44134054D01*
X92605406Y-44133354D01*
X92659796Y-44132509D01*
X92714293Y-44131521D01*
X92768898Y-44130390D01*
X92823612Y-44129114D01*
X92878435Y-44127696D01*
X92933368Y-44126133D01*
X92988412Y-44124427D01*
X93043568Y-44122578D01*
X93098836Y-44120585D01*
X93154218Y-44118450D01*
X93209713Y-44116170D01*
X93265323Y-44113748D01*
X93321049Y-44111182D01*
X93376891Y-44108473D01*
X93432850Y-44105621D01*
X93488926Y-44102626D01*
X93545121Y-44099487D01*
X93601436Y-44096206D01*
X93657870Y-44092782D01*
X93714425Y-44089215D01*
X93714505Y-44089215D01*
X93765501Y-44085872D01*
X93816533Y-44082398D01*
X93867599Y-44078792D01*
X93918700Y-44075055D01*
X93969835Y-44071186D01*
X94021001Y-44067187D01*
X94072200Y-44063056D01*
X94123430Y-44058796D01*
X94174691Y-44054404D01*
X94225981Y-44049883D01*
X94277300Y-44045231D01*
X94328647Y-44040450D01*
X94380021Y-44035540D01*
X94431422Y-44030500D01*
X94482849Y-44025331D01*
X94534301Y-44020033D01*
X94585777Y-44014606D01*
X94637277Y-44009051D01*
X94688800Y-44003367D01*
X94740345Y-43997556D01*
X94791911Y-43991617D01*
X94843498Y-43985550D01*
X94895104Y-43979355D01*
X94946730Y-43973033D01*
X94998373Y-43966585D01*
X95050035Y-43960009D01*
X95101713Y-43953307D01*
X95153407Y-43946479D01*
X95205116Y-43939524D01*
X95256840Y-43932443D01*
X95308578Y-43925237D01*
X95360328Y-43917905D01*
X95412091Y-43910448D01*
X95463866Y-43902865D01*
X95515651Y-43895158D01*
X95567446Y-43887326D01*
X95619250Y-43879370D01*
X95671062Y-43871289D01*
X95722883Y-43863084D01*
X95774710Y-43854755D01*
X95826543Y-43846303D01*
X95878382Y-43837727D01*
X95930226Y-43829028D01*
X95982073Y-43820206D01*
X96033924Y-43811261D01*
X96085777Y-43802193D01*
X96137631Y-43793003D01*
X96189486Y-43783691D01*
X96241342Y-43774257D01*
X96293197Y-43764701D01*
X96345050Y-43755024D01*
X96396902Y-43745225D01*
X96448750Y-43735305D01*
X96500595Y-43725264D01*
X96552435Y-43715103D01*
X96604270Y-43704821D01*
X96656100Y-43694418D01*
X96707922Y-43683896D01*
X96759737Y-43673253D01*
X96811544Y-43662491D01*
X96863342Y-43651610D01*
X96915130Y-43640609D01*
X96966908Y-43629489D01*
X97018674Y-43618251D01*
X97070429Y-43606893D01*
X97122171Y-43595418D01*
X97173899Y-43583824D01*
X97225613Y-43572112D01*
X97277312Y-43560282D01*
X97328995Y-43548335D01*
X97380661Y-43536271D01*
X97432311Y-43524089D01*
X97483942Y-43511790D01*
X97535554Y-43499375D01*
X97587147Y-43486843D01*
X97638720Y-43474195D01*
X97690271Y-43461430D01*
X97741801Y-43448550D01*
X97793308Y-43435554D01*
X97844791Y-43422443D01*
X97896251Y-43409216D01*
X97947686Y-43395874D01*
X97999095Y-43382418D01*
X98050477Y-43368846D01*
X98101833Y-43355161D01*
X98153161Y-43341361D01*
X98204460Y-43327447D01*
X98255729Y-43313419D01*
X98306969Y-43299278D01*
X98358177Y-43285024D01*
X98409354Y-43270656D01*
X98460499Y-43256175D01*
X98511610Y-43241582D01*
X98562687Y-43226876D01*
X98613730Y-43212057D01*
X98664737Y-43197127D01*
X98715708Y-43182084D01*
X98766641Y-43166930D01*
X98817538Y-43151665D01*
X98868395Y-43136288D01*
X98919214Y-43120800D01*
X98969992Y-43105201D01*
X99020730Y-43089492D01*
X99071426Y-43073672D01*
X99122080Y-43057742D01*
X99172691Y-43041702D01*
X99223258Y-43025552D01*
X99273780Y-43009292D01*
X99324257Y-42992923D01*
X99374689Y-42976445D01*
X99425073Y-42959858D01*
X99475410Y-42943162D01*
X99525698Y-42926358D01*
X99575937Y-42909445D01*
X99626127Y-42892425D01*
X99676266Y-42875296D01*
X99726353Y-42858059D01*
X99776389Y-42840715D01*
X99826371Y-42823264D01*
X99876300Y-42805706D01*
X99926174Y-42788040D01*
X99975994Y-42770269D01*
X100025757Y-42752390D01*
X100075464Y-42734406D01*
X100125113Y-42716315D01*
X100174704Y-42698119D01*
X100224237Y-42679817D01*
X100273709Y-42661409D01*
X100323121Y-42642896D01*
X100372472Y-42624279D01*
X100421761Y-42605556D01*
X100470988Y-42586729D01*
X100520150Y-42567798D01*
X100569249Y-42548763D01*
X100618282Y-42529623D01*
X100667250Y-42510380D01*
X100716152Y-42491034D01*
X100764986Y-42471584D01*
X100813752Y-42452031D01*
X100862449Y-42432375D01*
X100911077Y-42412616D01*
X100959634Y-42392755D01*
X101008120Y-42372792D01*
X101056535Y-42352726D01*
X101104877Y-42332559D01*
X101153146Y-42312290D01*
X101201340Y-42291920D01*
X101249460Y-42271449D01*
X101297505Y-42250876D01*
X101345472Y-42230203D01*
X101393363Y-42209429D01*
X101441176Y-42188555D01*
X101488911Y-42167580D01*
X101536565Y-42146506D01*
X101584140Y-42125332D01*
X101631634Y-42104059D01*
X101679047Y-42082686D01*
X101726376Y-42061214D01*
X101773623Y-42039643D01*
X101820786Y-42017973D01*
X101867864Y-41996205D01*
X101914857Y-41974339D01*
X101961764Y-41952375D01*
X102008583Y-41930312D01*
X102055315Y-41908152D01*
X102101958Y-41885895D01*
X102148513Y-41863541D01*
X102194977Y-41841089D01*
X102241351Y-41818541D01*
X102287633Y-41795896D01*
X102333822Y-41773155D01*
X102379919Y-41750317D01*
X102425922Y-41727384D01*
X102471831Y-41704355D01*
X102517644Y-41681230D01*
X102563362Y-41658010D01*
X102608982Y-41634695D01*
X102654505Y-41611284D01*
X102709222Y-41582958D01*
X102763771Y-41554517D01*
X102818152Y-41525961D01*
X102872365Y-41497292D01*
X102926409Y-41468509D01*
X102980284Y-41439612D01*
X103033988Y-41410604D01*
X103087523Y-41381484D01*
X103140886Y-41352253D01*
X103194077Y-41322911D01*
X103247096Y-41293459D01*
X103299943Y-41263898D01*
X103352616Y-41234227D01*
X103405115Y-41204449D01*
X103457440Y-41174562D01*
X103509591Y-41144569D01*
X103561565Y-41114469D01*
X103613364Y-41084262D01*
X103664987Y-41053951D01*
X103716432Y-41023534D01*
X103767700Y-40993013D01*
X103818789Y-40962388D01*
X103869700Y-40931660D01*
X103920432Y-40900829D01*
X103970984Y-40869897D01*
X104021356Y-40838862D01*
X104071547Y-40807727D01*
X104121556Y-40776491D01*
X104171384Y-40745156D01*
X104221029Y-40713721D01*
X104270491Y-40682188D01*
X104319770Y-40650556D01*
X104368865Y-40618827D01*
X104417775Y-40587001D01*
X104466499Y-40555079D01*
X104515039Y-40523061D01*
X104563392Y-40490947D01*
X104611558Y-40458739D01*
X104659537Y-40426436D01*
X104707327Y-40394040D01*
X104754930Y-40361551D01*
X104802344Y-40328970D01*
X104849568Y-40296296D01*
X104896602Y-40263532D01*
X104943446Y-40230676D01*
X104990098Y-40197731D01*
X105036559Y-40164696D01*
X105082827Y-40131572D01*
X105128903Y-40098359D01*
X105174786Y-40065058D01*
X105220475Y-40031670D01*
X105265969Y-39998196D01*
X105311269Y-39964635D01*
X105356373Y-39930988D01*
X105401281Y-39897257D01*
X105445993Y-39863441D01*
X105490508Y-39829541D01*
X105534825Y-39795557D01*
X105578944Y-39761491D01*
X105622864Y-39727343D01*
X105666585Y-39693113D01*
X105710106Y-39658801D01*
X105753427Y-39624410D01*
X105796547Y-39589938D01*
X105839466Y-39555387D01*
X105882183Y-39520757D01*
X105924697Y-39486049D01*
X105967008Y-39451263D01*
X106009116Y-39416400D01*
X106051020Y-39381461D01*
X106092719Y-39346445D01*
X106134213Y-39311354D01*
X106175501Y-39276188D01*
X106216583Y-39240948D01*
X106257458Y-39205635D01*
X106298126Y-39170248D01*
X106338586Y-39134788D01*
X106378837Y-39099257D01*
X106418880Y-39063654D01*
X106458713Y-39027980D01*
X106498336Y-38992236D01*
X106537748Y-38956422D01*
X106576950Y-38920539D01*
X106615939Y-38884587D01*
X106654717Y-38848567D01*
X106693281Y-38812480D01*
X106731633Y-38776326D01*
X106769771Y-38740105D01*
X106807694Y-38703819D01*
X106845402Y-38667467D01*
X106882895Y-38631051D01*
X106920172Y-38594571D01*
X106957232Y-38558027D01*
X106994076Y-38521421D01*
X107030701Y-38484752D01*
X107067109Y-38448021D01*
X107103298Y-38411229D01*
X107139267Y-38374376D01*
X107175017Y-38337463D01*
X107210547Y-38300491D01*
X107245855Y-38263460D01*
X107280943Y-38226370D01*
X107315808Y-38189222D01*
X107350451Y-38152018D01*
X107384871Y-38114756D01*
X107419067Y-38077438D01*
X107453039Y-38040065D01*
X107486787Y-38002637D01*
X107520309Y-37965154D01*
X107553606Y-37927618D01*
X107586676Y-37890028D01*
X107619520Y-37852385D01*
X107652136Y-37814691D01*
X107684524Y-37776944D01*
X107716684Y-37739147D01*
X107748615Y-37701299D01*
X107780316Y-37663402D01*
X107811787Y-37625455D01*
X107843028Y-37587459D01*
X107874038Y-37549415D01*
X107904816Y-37511324D01*
X107935361Y-37473185D01*
X107965674Y-37435000D01*
X107995754Y-37396769D01*
X108025600Y-37358493D01*
X108055211Y-37320171D01*
X108084588Y-37281806D01*
X108113729Y-37243397D01*
X108142634Y-37204945D01*
X108171302Y-37166451D01*
X108199734Y-37127914D01*
X108227927Y-37089336D01*
X108255883Y-37050717D01*
X108283600Y-37012058D01*
X108311077Y-36973360D01*
X108338315Y-36934622D01*
X108365313Y-36895846D01*
X108392069Y-36857031D01*
X108418585Y-36818180D01*
X108444858Y-36779291D01*
X108470889Y-36740367D01*
X108496676Y-36701406D01*
X108522221Y-36662410D01*
X108547521Y-36623380D01*
X108572576Y-36584316D01*
X108597386Y-36545218D01*
X108621951Y-36506088D01*
X108646269Y-36466925D01*
X108670340Y-36427731D01*
X108694164Y-36388505D01*
X108717740Y-36349249D01*
X108741068Y-36309962D01*
X108764146Y-36270646D01*
X108786975Y-36231302D01*
X108809554Y-36191929D01*
X108831883Y-36152528D01*
X108853960Y-36113100D01*
X108875785Y-36073645D01*
X108897359Y-36034165D01*
X108918679Y-35994659D01*
X108939746Y-35955127D01*
X108960560Y-35915572D01*
X108981119Y-35875993D01*
X109001423Y-35836390D01*
X109021471Y-35796765D01*
X109041264Y-35757118D01*
X109060800Y-35717449D01*
X109080079Y-35677760D01*
X109099100Y-35638050D01*
X109117863Y-35598320D01*
X109136367Y-35558571D01*
X109154612Y-35518803D01*
X109172597Y-35479017D01*
X109190322Y-35439213D01*
X109207786Y-35399393D01*
X109224989Y-35359556D01*
X109241929Y-35319703D01*
X109258608Y-35279835D01*
X109275023Y-35239953D01*
X109291174Y-35200056D01*
X109307061Y-35160145D01*
X109322684Y-35120222D01*
X109338041Y-35080286D01*
X109353133Y-35040338D01*
X109367958Y-35000379D01*
X109382517Y-34960410D01*
X109396808Y-34920430D01*
X109410831Y-34880440D01*
X109424586Y-34840441D01*
X109438071Y-34800434D01*
X109451287Y-34760419D01*
X109464234Y-34720397D01*
X109476909Y-34680368D01*
X109489313Y-34640333D01*
X109501446Y-34600292D01*
X109513306Y-34560246D01*
X109524894Y-34520195D01*
X109536208Y-34480141D01*
X109547248Y-34440083D01*
X109558014Y-34400022D01*
X109568505Y-34359960D01*
X109584712Y-34296923D01*
X109599935Y-34236962D01*
X109614204Y-34179833D01*
X109627548Y-34125290D01*
X109639998Y-34073090D01*
X109651582Y-34022988D01*
X109662332Y-33974738D01*
X109672276Y-33928097D01*
X109681444Y-33882819D01*
X109689867Y-33838661D01*
X109697573Y-33795377D01*
X109704593Y-33752723D01*
X109710957Y-33710455D01*
X109716694Y-33668327D01*
X109721833Y-33626095D01*
X109726406Y-33583515D01*
X109730441Y-33540341D01*
X109733968Y-33496330D01*
X109737018Y-33451236D01*
X109739619Y-33404816D01*
X109741802Y-33356823D01*
X109743596Y-33307015D01*
X109745031Y-33255146D01*
X109746138Y-33200971D01*
X109746945Y-33144246D01*
X109747482Y-33084726D01*
X109747780Y-33022168D01*
X109747868Y-32956325D01*
X109747775Y-32886954D01*
X109747514Y-32801184D01*
X109747039Y-32722207D01*
X109746311Y-32649488D01*
X109745292Y-32582490D01*
X109743943Y-32520679D01*
X109742227Y-32463519D01*
X109740104Y-32410476D01*
X109737537Y-32361013D01*
X109734487Y-32314596D01*
X109730916Y-32270689D01*
X109726785Y-32228757D01*
X109722056Y-32188264D01*
X109716691Y-32148676D01*
X109710651Y-32109457D01*
X109703898Y-32070072D01*
X109696393Y-32029986D01*
X109688098Y-31988663D01*
X109678975Y-31945568D01*
X109667796Y-31894829D01*
X109656219Y-31844320D01*
X109644242Y-31794043D01*
X109631866Y-31743995D01*
X109619091Y-31694176D01*
X109605915Y-31644587D01*
X109592339Y-31595225D01*
X109578363Y-31546091D01*
X109563985Y-31497184D01*
X109549206Y-31448504D01*
X109534025Y-31400050D01*
X109518441Y-31351822D01*
X109502456Y-31303819D01*
X109486067Y-31256040D01*
X109469275Y-31208485D01*
X109452080Y-31161154D01*
X109434481Y-31114045D01*
X109416478Y-31067159D01*
X109398069Y-31020495D01*
X109379256Y-30974052D01*
X109360038Y-30927830D01*
X109340414Y-30881829D01*
X109320384Y-30836047D01*
X109299948Y-30790484D01*
X109279105Y-30745140D01*
X109257855Y-30700014D01*
X109236197Y-30655105D01*
X109214132Y-30610414D01*
X109191658Y-30565939D01*
X109168776Y-30521680D01*
X109145486Y-30477637D01*
X109121786Y-30433809D01*
X109097676Y-30390195D01*
X109073157Y-30346795D01*
X109048228Y-30303608D01*
X109022887Y-30260635D01*
X108997136Y-30217873D01*
X108970974Y-30175323D01*
X108944400Y-30132985D01*
X108917414Y-30090857D01*
X108890016Y-30048940D01*
X108862205Y-30007232D01*
X108833981Y-29965733D01*
X108805344Y-29924443D01*
X108776293Y-29883360D01*
X108746828Y-29842486D01*
X108716949Y-29801818D01*
X108686654Y-29761357D01*
X108655945Y-29721102D01*
X108624820Y-29681052D01*
X108593279Y-29641207D01*
X108561322Y-29601566D01*
X108528949Y-29562129D01*
X108496158Y-29522895D01*
X108462951Y-29483865D01*
X108429325Y-29445036D01*
X108395282Y-29406409D01*
X108360821Y-29367983D01*
X108325941Y-29329758D01*
X108290641Y-29291733D01*
X108254923Y-29253907D01*
X108218785Y-29216280D01*
X108182227Y-29178852D01*
X108145248Y-29141622D01*
X108107849Y-29104590D01*
X108070028Y-29067754D01*
X108031786Y-29031114D01*
X107993123Y-28994671D01*
X107954037Y-28958422D01*
X107914528Y-28922369D01*
X107874597Y-28886510D01*
X107834243Y-28850844D01*
X107793465Y-28815372D01*
X107752263Y-28780092D01*
X107710637Y-28745004D01*
X107668586Y-28710108D01*
X107626110Y-28675403D01*
X107583209Y-28640889D01*
X107539883Y-28606564D01*
X107496130Y-28572429D01*
X107451951Y-28538483D01*
X107407345Y-28504726D01*
X107373863Y-28479717D01*
X107340194Y-28454848D01*
X107306339Y-28430118D01*
X107272297Y-28405528D01*
X107238070Y-28381077D01*
X107203658Y-28356765D01*
X107169063Y-28332593D01*
X107134284Y-28308561D01*
X107099323Y-28284668D01*
X107064179Y-28260916D01*
X107028854Y-28237303D01*
X106993348Y-28213831D01*
X106957663Y-28190499D01*
X106921797Y-28167307D01*
X106885753Y-28144256D01*
X106849531Y-28121346D01*
X106813132Y-28098576D01*
X106776556Y-28075946D01*
X106739803Y-28053458D01*
X106702875Y-28031111D01*
X106665772Y-28008905D01*
X106628495Y-27986840D01*
X106591045Y-27964916D01*
X106553421Y-27943133D01*
X106515625Y-27921493D01*
X106477658Y-27899993D01*
X106439520Y-27878636D01*
X106401212Y-27857420D01*
X106362733Y-27836346D01*
X106324086Y-27815415D01*
X106285271Y-27794625D01*
X106246288Y-27773978D01*
X106207138Y-27753472D01*
X106167821Y-27733110D01*
X106128339Y-27712890D01*
X106088692Y-27692812D01*
X106048880Y-27672878D01*
X106008905Y-27653086D01*
X105968767Y-27633437D01*
X105928466Y-27613931D01*
X105888003Y-27594568D01*
X105847379Y-27575349D01*
X105806595Y-27556273D01*
X105765651Y-27537340D01*
X105724548Y-27518551D01*
X105683286Y-27499906D01*
X105641866Y-27481405D01*
X105600289Y-27463047D01*
X105558556Y-27444833D01*
X105516666Y-27426764D01*
X105474622Y-27408839D01*
X105432422Y-27391058D01*
X105390069Y-27373421D01*
X105347563Y-27355929D01*
X105304904Y-27338582D01*
X105262092Y-27321379D01*
X105219130Y-27304321D01*
X105176017Y-27287408D01*
X105132754Y-27270640D01*
X105089341Y-27254017D01*
X105045780Y-27237540D01*
X105002070Y-27221208D01*
X104958213Y-27205021D01*
X104914210Y-27188980D01*
X104870060Y-27173084D01*
X104825765Y-27157334D01*
X104781325Y-27141731D01*
X104736741Y-27126273D01*
X104692013Y-27110961D01*
X104647143Y-27095795D01*
X104602130Y-27080776D01*
X104556976Y-27065903D01*
X104511681Y-27051176D01*
X104466245Y-27036596D01*
X104420670Y-27022163D01*
X104374957Y-27007877D01*
X104329104Y-26993737D01*
X104283115Y-26979745D01*
X104236988Y-26965900D01*
X104190725Y-26952201D01*
X104144326Y-26938651D01*
X104097792Y-26925247D01*
X104051124Y-26911991D01*
X104004322Y-26898883D01*
X103957387Y-26885923D01*
X103910320Y-26873110D01*
X103863121Y-26860445D01*
X103815791Y-26847929D01*
X103768330Y-26835560D01*
X103720740Y-26823340D01*
X103673020Y-26811268D01*
X103625172Y-26799345D01*
X103577196Y-26787570D01*
X103529093Y-26775944D01*
X103480864Y-26764466D01*
X103432508Y-26753138D01*
X103384028Y-26741958D01*
X103335422Y-26730928D01*
X103286693Y-26720047D01*
X103237841Y-26709315D01*
X103188866Y-26698732D01*
X103139769Y-26688299D01*
X103090551Y-26678016D01*
X103041212Y-26667882D01*
X102991753Y-26657898D01*
X102942175Y-26648064D01*
X102892478Y-26638381D01*
X102842663Y-26628847D01*
X102792730Y-26619463D01*
X102742681Y-26610230D01*
X102692516Y-26601147D01*
X102642235Y-26592215D01*
X102591840Y-26583433D01*
X102541330Y-26574803D01*
X102490707Y-26566323D01*
X102439972Y-26557994D01*
X102389124Y-26549816D01*
X102338164Y-26541789D01*
X102287094Y-26533913D01*
X102235913Y-26526189D01*
X102184623Y-26518617D01*
X102133224Y-26511195D01*
X102081717Y-26503926D01*
X102030102Y-26496809D01*
X101978381Y-26489843D01*
X101926553Y-26483029D01*
X101874619Y-26476368D01*
X101822580Y-26469858D01*
X101770437Y-26463501D01*
X101718191Y-26457297D01*
X101665841Y-26451244D01*
X101613389Y-26445345D01*
X101560835Y-26439598D01*
X101508181Y-26434004D01*
X101455425Y-26428563D01*
X101402571Y-26423275D01*
X101349616Y-26418140D01*
X101296564Y-26413159D01*
X101243414Y-26408331D01*
X101190166Y-26403656D01*
X101136822Y-26399135D01*
X101083383Y-26394767D01*
X101029848Y-26390553D01*
X100976218Y-26386493D01*
X100922495Y-26382587D01*
X100868678Y-26378836D01*
X100814769Y-26375238D01*
X100760768Y-26371795D01*
X100706676Y-26368506D01*
X100652493Y-26365371D01*
X100598220Y-26362391D01*
X100543858Y-26359566D01*
X100489407Y-26356896D01*
X100434868Y-26354380D01*
X100380242Y-26352020D01*
X100325529Y-26349814D01*
X100270730Y-26347764D01*
X100215845Y-26345869D01*
X100160876Y-26344130D01*
X100105823Y-26342546D01*
X100050687Y-26341118D01*
X99995467Y-26339846D01*
X99940166Y-26338729D01*
X99884783Y-26337768D01*
X99829319Y-26336964D01*
X99773775Y-26336315D01*
X99718152Y-26335823D01*
X99662449Y-26335487D01*
X99606669Y-26335308D01*
X99550811Y-26335285D01*
X99494876Y-26335419D01*
X99438865Y-26335710D01*
X99382778Y-26336158D01*
X99326616Y-26336762D01*
X99270380Y-26337524D01*
X99214070Y-26338443D01*
X99157688Y-26339519D01*
X99101233Y-26340752D01*
X99044706Y-26342143D01*
X98988108Y-26343692D01*
X98931440Y-26345399D01*
X98874702Y-26347263D01*
X98817896Y-26349285D01*
X98761020Y-26351465D01*
X98704077Y-26353803D01*
X98647067Y-26356300D01*
X98589991Y-26358955D01*
X98532848Y-26361768D01*
X98475641Y-26364740D01*
X98418369Y-26367871D01*
X98361033Y-26371160D01*
X98303634Y-26374608D01*
X98246172Y-26378215D01*
X98188649Y-26381981D01*
X98131064Y-26385907D01*
X98073419Y-26389991D01*
X98015714Y-26394235D01*
X97957949Y-26398639D01*
X97900126Y-26403202D01*
X97842245Y-26407925D01*
X97784307Y-26412807D01*
X97726312Y-26417850D01*
X97668261Y-26423052D01*
X97610155Y-26428415D01*
X97551994Y-26433938D01*
X97493779Y-26439621D01*
X97435510Y-26445464D01*
X97377189Y-26451469D01*
X97318816Y-26457633D01*
X97260391Y-26463959D01*
X97201915Y-26470445D01*
X97143390Y-26477092D01*
X97084815Y-26483900D01*
X97026191Y-26490870D01*
X96967518Y-26498000D01*
X96908799Y-26505292D01*
X96850032Y-26512746D01*
X96791220Y-26520361D01*
X96732361Y-26528138D01*
X96673458Y-26536076D01*
X96614511Y-26544176D01*
X96555520Y-26552439D01*
X96496486Y-26560863D01*
X96437410Y-26569450D01*
X96378292Y-26578198D01*
X96319133Y-26587110D01*
X96259934Y-26596183D01*
X96200695Y-26605420D01*
X96141417Y-26614819D01*
X96082101Y-26624381D01*
X96022747Y-26634106D01*
X95963356Y-26643993D01*
X95903928Y-26654044D01*
X95844465Y-26664259D01*
X95786437Y-26674378D01*
X95728460Y-26684639D01*
X95670532Y-26695041D01*
X95612656Y-26705584D01*
X95554831Y-26716267D01*
X95497058Y-26727091D01*
X95439338Y-26738054D01*
X95381671Y-26749156D01*
X95324057Y-26760398D01*
X95266497Y-26771778D01*
X95208992Y-26783297D01*
X95151542Y-26794953D01*
X95094147Y-26806747D01*
X95036809Y-26818679D01*
X94979527Y-26830747D01*
X94922303Y-26842951D01*
X94865136Y-26855292D01*
X94808028Y-26867769D01*
X94750978Y-26880381D01*
X94693988Y-26893128D01*
X94637057Y-26906010D01*
X94580187Y-26919026D01*
X94523378Y-26932176D01*
X94466630Y-26945460D01*
X94409944Y-26958877D01*
X94353320Y-26972427D01*
X94296759Y-26986109D01*
X94240262Y-26999924D01*
X94183828Y-27013870D01*
X94127459Y-27027949D01*
X94071155Y-27042158D01*
X94014917Y-27056498D01*
X93958745Y-27070968D01*
X93902639Y-27085568D01*
X93846601Y-27100298D01*
X93790630Y-27115158D01*
X93734727Y-27130146D01*
X93678893Y-27145263D01*
X93623128Y-27160509D01*
X93567432Y-27175882D01*
X93511807Y-27191382D01*
X93456253Y-27207010D01*
X93400770Y-27222765D01*
X93345359Y-27238646D01*
X93290020Y-27254653D01*
X93234754Y-27270786D01*
X93179561Y-27287045D01*
X93124443Y-27303428D01*
X93069398Y-27319936D01*
X93014429Y-27336569D01*
X92959535Y-27353325D01*
X92904716Y-27370205D01*
X92849975Y-27387208D01*
X92795310Y-27404334D01*
X92740723Y-27421583D01*
X92686214Y-27438953D01*
X92631784Y-27456446D01*
X92577432Y-27474060D01*
X92523161Y-27491795D01*
X92468969Y-27509651D01*
X92414858Y-27527627D01*
X92360828Y-27545723D01*
X92306880Y-27563939D01*
X92253015Y-27582274D01*
X92199231Y-27600728D01*
X92145532Y-27619300D01*
X92091916Y-27637991D01*
X92038384Y-27656800D01*
X91984937Y-27675726D01*
X91931575Y-27694769D01*
X91878300Y-27713929D01*
X91825110Y-27733205D01*
X91772008Y-27752598D01*
X91718993Y-27772106D01*
X91666066Y-27791730D01*
X91613227Y-27811468D01*
X91560478Y-27831321D01*
X91507818Y-27851289D01*
X91455248Y-27871370D01*
X91402768Y-27891565D01*
X91350380Y-27911873D01*
X91298083Y-27932294D01*
X91245879Y-27952827D01*
X91193767Y-27973473D01*
X91141748Y-27994230D01*
X91089823Y-28015098D01*
X91037992Y-28036078D01*
X90986256Y-28057168D01*
X90934615Y-28078369D01*
X90883070Y-28099680D01*
X90831621Y-28121100D01*
X90780269Y-28142629D01*
X90729015Y-28164268D01*
X90677858Y-28186015D01*
X90626799Y-28207870D01*
X90575840Y-28229832D01*
X90524980Y-28251903D01*
X90474220Y-28274080D01*
X90423560Y-28296364D01*
X90373001Y-28318755D01*
X90322544Y-28341251D01*
X90272189Y-28363853D01*
X90221936Y-28386561D01*
X90171787Y-28409373D01*
X90121741Y-28432290D01*
X90071799Y-28455311D01*
X90021962Y-28478436D01*
X89972230Y-28501665D01*
X89922603Y-28524997D01*
X89873083Y-28548431D01*
X89823670Y-28571968D01*
X89774364Y-28595607D01*
X89725165Y-28619348D01*
X89676075Y-28643190D01*
X89627094Y-28667133D01*
X89578222Y-28691176D01*
X89529460Y-28715320D01*
X89480808Y-28739564D01*
X89432267Y-28763908D01*
X89383838Y-28788350D01*
X89335520Y-28812892D01*
X89287315Y-28837532D01*
X89239223Y-28862270D01*
X89191244Y-28887106D01*
X89143380Y-28912039D01*
X89095630Y-28937069D01*
X89047995Y-28962196D01*
X89000476Y-28987419D01*
X88953072Y-29012739D01*
X88905786Y-29038154D01*
X88858616Y-29063664D01*
X88811564Y-29089269D01*
X88764631Y-29114968D01*
X88717816Y-29140762D01*
X88671120Y-29166650D01*
X88624544Y-29192631D01*
X88578089Y-29218705D01*
X88531754Y-29244872D01*
X88485540Y-29271131D01*
X88439449Y-29297482D01*
X88393479Y-29323925D01*
X88347633Y-29350459D01*
X88301910Y-29377085D01*
X88256311Y-29403800D01*
X88210836Y-29430606D01*
X88165486Y-29457502D01*
X88120262Y-29484488D01*
X88075164Y-29511562D01*
X88030192Y-29538726D01*
X87985348Y-29565977D01*
X87940631Y-29593317D01*
X87896042Y-29620745D01*
X87851581Y-29648260D01*
X87807250Y-29675862D01*
X87763049Y-29703550D01*
X87718977Y-29731325D01*
X87675037Y-29759186D01*
X87631227Y-29787132D01*
X87587550Y-29815164D01*
X87544004Y-29843280D01*
X87500592Y-29871481D01*
X87457313Y-29899766D01*
X87414167Y-29928135D01*
X87371156Y-29956588D01*
X87328280Y-29985123D01*
X87285539Y-30013741D01*
X87242934Y-30042441D01*
X87200466Y-30071224D01*
X87158134Y-30100088D01*
X87115940Y-30129033D01*
X87073884Y-30158059D01*
X87031966Y-30187166D01*
X86990188Y-30216352D01*
X86948549Y-30245619D01*
X86907050Y-30274965D01*
X86865692Y-30304391D01*
X86824475Y-30333895D01*
X86783400Y-30363477D01*
X86742466Y-30393137D01*
X86701676Y-30422876D01*
X86661028Y-30452691D01*
X86620525Y-30482583D01*
X86580166Y-30512552D01*
X86539951Y-30542598D01*
X86499882Y-30572719D01*
X86459958Y-30602915D01*
X86420181Y-30633187D01*
X86380551Y-30663534D01*
X86341068Y-30693955D01*
X86301733Y-30724450D01*
X86262547Y-30755019D01*
X86223509Y-30785661D01*
X86184621Y-30816376D01*
X86145883Y-30847164D01*
X86107295Y-30878025D01*
X86068859Y-30908957D01*
X86030574Y-30939961D01*
X85992441Y-30971035D01*
X85954461Y-31002181D01*
X85916633Y-31033398D01*
X85878960Y-31064684D01*
X85841440Y-31096040D01*
X85804076Y-31127466D01*
X85766866Y-31158961D01*
X85729812Y-31190524D01*
X85692915Y-31222156D01*
X85656174Y-31253856D01*
X85619591Y-31285623D01*
X85583165Y-31317458D01*
X85546898Y-31349360D01*
X85510789Y-31381328D01*
X85474840Y-31413362D01*
X85439051Y-31445462D01*
X85403422Y-31477628D01*
X85367954Y-31509859D01*
X85332648Y-31542154D01*
X85297504Y-31574514D01*
X85262522Y-31606938D01*
X85227703Y-31639426D01*
X85193048Y-31671977D01*
X85158556Y-31704591D01*
X85124230Y-31737268D01*
X85090068Y-31770007D01*
X85056072Y-31802807D01*
X85022242Y-31835670D01*
X84988579Y-31868593D01*
X84955083Y-31901577D01*
X84921755Y-31934622D01*
X84888595Y-31967727D01*
X84855604Y-32000891D01*
X84822782Y-32034115D01*
X84790130Y-32067398D01*
X84757648Y-32100740D01*
X84725338Y-32134140D01*
X84693198Y-32167598D01*
X84661230Y-32201113D01*
X84629435Y-32234686D01*
X84597813Y-32268316D01*
X84566364Y-32302002D01*
X84535089Y-32335744D01*
X84503989Y-32369542D01*
X84473063Y-32403396D01*
X84442313Y-32437304D01*
X84411740Y-32471268D01*
X84381342Y-32505285D01*
X84351122Y-32539357D01*
X84321080Y-32573482D01*
X84291215Y-32607661D01*
X84261530Y-32641892D01*
X84232023Y-32676176D01*
X84202697Y-32710513D01*
X84173550Y-32744901D01*
X84144584Y-32779340D01*
X84115800Y-32813831D01*
X84087197Y-32848373D01*
X84058776Y-32882964D01*
X84030539Y-32917606D01*
X84002485Y-32952298D01*
X83974614Y-32987039D01*
X83946928Y-33021829D01*
X83919427Y-33056668D01*
X83892112Y-33091555D01*
X83864982Y-33126489D01*
X83838039Y-33161472D01*
X83811283Y-33196501D01*
X83784714Y-33231578D01*
X83758334Y-33266700D01*
X83732142Y-33301869D01*
X83706139Y-33337084D01*
X83680325Y-33372344D01*
X83654702Y-33407649D01*
X83629270Y-33442999D01*
X83604028Y-33478393D01*
X83578979Y-33513831D01*
X83554121Y-33549313D01*
X83529457Y-33584838D01*
X83504985Y-33620405D01*
X83480708Y-33656016D01*
X83456624Y-33691668D01*
X83432736Y-33727362D01*
X83409043Y-33763098D01*
X83385546Y-33798875D01*
X83362245Y-33834692D01*
X83339141Y-33870550D01*
X83316234Y-33906448D01*
X83293526Y-33942386D01*
X83271016Y-33978363D01*
X83248704Y-34014378D01*
X83226593Y-34050433D01*
X83204681Y-34086525D01*
X83182970Y-34122656D01*
X83161460Y-34158824D01*
X83140152Y-34195029D01*
X83119046Y-34231271D01*
X83098142Y-34267549D01*
X83077442Y-34303863D01*
X83056945Y-34340213D01*
X83036653Y-34376599D01*
X83016565Y-34413019D01*
X82996683Y-34449474D01*
X82977006Y-34485963D01*
X82957535Y-34522487D01*
X82938272Y-34559043D01*
X82919216Y-34595633D01*
X82900367Y-34632256D01*
X82881727Y-34668912D01*
X82863296Y-34705599D01*
X82845074Y-34742318D01*
X82827063Y-34779069D01*
X82809261Y-34815850D01*
X82791671Y-34852663D01*
X82774292Y-34889505D01*
X82757125Y-34926378D01*
X82740171Y-34963280D01*
X82723430Y-35000211D01*
X82706903Y-35037172D01*
X82690589Y-35074161D01*
X82674490Y-35111178D01*
X82658607Y-35148222D01*
X82642939Y-35185295D01*
X82627487Y-35222394D01*
X82612252Y-35259520D01*
X82597234Y-35296673D01*
X82582434Y-35333851D01*
X82567852Y-35371056D01*
X82553489Y-35408285D01*
X82539346Y-35445540D01*
X82525422Y-35482819D01*
X82511719Y-35520122D01*
X82498236Y-35557449D01*
X82484975Y-35594800D01*
X82471936Y-35632174D01*
X82459119Y-35669570D01*
X82446526Y-35706989D01*
X82434155Y-35744430D01*
X82422009Y-35781893D01*
X82410088Y-35819377D01*
X82398391Y-35856883D01*
X82386920Y-35894408D01*
X82375675Y-35931955D01*
X82359416Y-35987345D01*
X82343906Y-36041321D01*
X82329130Y-36093993D01*
X82315073Y-36145473D01*
X82301718Y-36195870D01*
X82289052Y-36245295D01*
X82277057Y-36293860D01*
X82265720Y-36341674D01*
X82255024Y-36388849D01*
X82244955Y-36435495D01*
X82235496Y-36481722D01*
X82226633Y-36527643D01*
X82218350Y-36573366D01*
X82210632Y-36619004D01*
X82203464Y-36664666D01*
X82196829Y-36710463D01*
X82190713Y-36756507D01*
X82185100Y-36802907D01*
X82179975Y-36849774D01*
X82175322Y-36897220D01*
X82171127Y-36945355D01*
X82167374Y-36994289D01*
X82164047Y-37044133D01*
X82161130Y-37094998D01*
X82158610Y-37146995D01*
X82156470Y-37200234D01*
X82154695Y-37254826D01*
X82153269Y-37310881D01*
X82152178Y-37368511D01*
X82151405Y-37427826D01*
X82150936Y-37488937D01*
X82150755Y-37551955D01*
X82007494Y-37551955D01*
X82007482Y-37545792D01*
X82007801Y-37497954D01*
X82008532Y-37450073D01*
X82009673Y-37402150D01*
X82011226Y-37354186D01*
X82013191Y-37306182D01*
X82015566Y-37258139D01*
X82018352Y-37210057D01*
X82021549Y-37161937D01*
X82025157Y-37113780D01*
X82029175Y-37065586D01*
X82033603Y-37017356D01*
X82038442Y-36969091D01*
X82043690Y-36920792D01*
X82049349Y-36872459D01*
X82055417Y-36824094D01*
X82061894Y-36775696D01*
X82068782Y-36727266D01*
X82076078Y-36678806D01*
X82083784Y-36630316D01*
X82091898Y-36581797D01*
X82100422Y-36533249D01*
X82109354Y-36484674D01*
X82118695Y-36436071D01*
X82128444Y-36387443D01*
X82138602Y-36338788D01*
X82149168Y-36290109D01*
X82160141Y-36241405D01*
X82171523Y-36192678D01*
X82183312Y-36143929D01*
X82195509Y-36095158D01*
X82208114Y-36046365D01*
X82221125Y-35997552D01*
X82234544Y-35948719D01*
X82248370Y-35899867D01*
X82262603Y-35850997D01*
X82277242Y-35802110D01*
X82292288Y-35753205D01*
X82307740Y-35704285D01*
X82323599Y-35655349D01*
X82339864Y-35606398D01*
X82356535Y-35557434D01*
X82373611Y-35508456D01*
X82391094Y-35459467D01*
X82408982Y-35410465D01*
X82427275Y-35361452D01*
X82445974Y-35312429D01*
X82465078Y-35263397D01*
X82484587Y-35214356D01*
X82504500Y-35165307D01*
X82524819Y-35116251D01*
X82545542Y-35067188D01*
X82566669Y-35018119D01*
X82588201Y-34969045D01*
X82610137Y-34919966D01*
X82632476Y-34870885D01*
X82655220Y-34821800D01*
X82678367Y-34772713D01*
X82701918Y-34723624D01*
X82725873Y-34674535D01*
X82750230Y-34625446D01*
X82774991Y-34576357D01*
X82800155Y-34527270D01*
X82825721Y-34478185D01*
X82851690Y-34429103D01*
X82878062Y-34380025D01*
X82904836Y-34330951D01*
X82932013Y-34281883D01*
X82959592Y-34232820D01*
X82987572Y-34183763D01*
X83015955Y-34134715D01*
X83044739Y-34085674D01*
X83073924Y-34036642D01*
X83103512Y-33987619D01*
X83133500Y-33938607D01*
X83163889Y-33889605D01*
X83194680Y-33840616D01*
X83225871Y-33791638D01*
X83257463Y-33742674D01*
X83289456Y-33693724D01*
X83321849Y-33644789D01*
X83354642Y-33595869D01*
X83387835Y-33546964D01*
X83414015Y-33508850D01*
X83440544Y-33470660D01*
X83467420Y-33432397D01*
X83494640Y-33394065D01*
X83522200Y-33355668D01*
X83550096Y-33317209D01*
X83578326Y-33278692D01*
X83606886Y-33240119D01*
X83635773Y-33201494D01*
X83664984Y-33162821D01*
X83694515Y-33124103D01*
X83724363Y-33085343D01*
X83754524Y-33046545D01*
X83784996Y-33007713D01*
X83815775Y-32968849D01*
X83846857Y-32929958D01*
X83878241Y-32891041D01*
X83909921Y-32852104D01*
X83941895Y-32813150D01*
X83974159Y-32774181D01*
X84006711Y-32735201D01*
X84039546Y-32696214D01*
X84072663Y-32657223D01*
X84106056Y-32618231D01*
X84139724Y-32579243D01*
X84173662Y-32540261D01*
X84207868Y-32501288D01*
X84242337Y-32462329D01*
X84277068Y-32423386D01*
X84312056Y-32384463D01*
X84347298Y-32345563D01*
X84382791Y-32306691D01*
X84418532Y-32267849D01*
X84454516Y-32229040D01*
X84490742Y-32190268D01*
X84527206Y-32151537D01*
X84563903Y-32112850D01*
X84600832Y-32074210D01*
X84637989Y-32035621D01*
X84675370Y-31997086D01*
X84712972Y-31958609D01*
X84750792Y-31920193D01*
X84788826Y-31881841D01*
X84827072Y-31843557D01*
X84865526Y-31805344D01*
X84904184Y-31767207D01*
X84943043Y-31729147D01*
X84982101Y-31691168D01*
X85021353Y-31653275D01*
X85060797Y-31615470D01*
X85100428Y-31577757D01*
X85140245Y-31540139D01*
X85180243Y-31502619D01*
X85220419Y-31465202D01*
X85260770Y-31427890D01*
X85301292Y-31390687D01*
X85341983Y-31353597D01*
X85382839Y-31316622D01*
X85423856Y-31279766D01*
X85465032Y-31243033D01*
X85506363Y-31206425D01*
X85547845Y-31169947D01*
X85589476Y-31133602D01*
X85631252Y-31097394D01*
X85673170Y-31061324D01*
X85715226Y-31025398D01*
X85757418Y-30989619D01*
X85799742Y-30953989D01*
X85842194Y-30918513D01*
X85884771Y-30883193D01*
X85927471Y-30848034D01*
X85970289Y-30813038D01*
X86013222Y-30778209D01*
X86056268Y-30743551D01*
X86099422Y-30709066D01*
X86142682Y-30674759D01*
X86186044Y-30640632D01*
X86229505Y-30606689D01*
X86267449Y-30577258D01*
X86305518Y-30547908D01*
X86343711Y-30518639D01*
X86382026Y-30489451D01*
X86420465Y-30460345D01*
X86459025Y-30431320D01*
X86497707Y-30402377D01*
X86536511Y-30373517D01*
X86575435Y-30344738D01*
X86614479Y-30316042D01*
X86653643Y-30287429D01*
X86692927Y-30258898D01*
X86732328Y-30230450D01*
X86771848Y-30202086D01*
X86811486Y-30173804D01*
X86851241Y-30145607D01*
X86891112Y-30117492D01*
X86931100Y-30089462D01*
X86971203Y-30061516D01*
X87011421Y-30033654D01*
X87051754Y-30005877D01*
X87092201Y-29978184D01*
X87132762Y-29950576D01*
X87173436Y-29923053D01*
X87214222Y-29895615D01*
X87255120Y-29868262D01*
X87296130Y-29840995D01*
X87337251Y-29813814D01*
X87378483Y-29786718D01*
X87419825Y-29759709D01*
X87461276Y-29732786D01*
X87502836Y-29705949D01*
X87544505Y-29679199D01*
X87586282Y-29652536D01*
X87628167Y-29625960D01*
X87670158Y-29599471D01*
X87712256Y-29573069D01*
X87754460Y-29546755D01*
X87796770Y-29520528D01*
X87839184Y-29494390D01*
X87881703Y-29468339D01*
X87924326Y-29442377D01*
X87967053Y-29416503D01*
X88009882Y-29390718D01*
X88052814Y-29365022D01*
X88095848Y-29339415D01*
X88138984Y-29313897D01*
X88182220Y-29288468D01*
X88225557Y-29263129D01*
X88268994Y-29237880D01*
X88312530Y-29212720D01*
X88356165Y-29187651D01*
X88399898Y-29162672D01*
X88443730Y-29137783D01*
X88487659Y-29112986D01*
X88531685Y-29088278D01*
X88575807Y-29063662D01*
X88620025Y-29039138D01*
X88664339Y-29014704D01*
X88708747Y-28990362D01*
X88753250Y-28966112D01*
X88797846Y-28941954D01*
X88842537Y-28917888D01*
X88887319Y-28893914D01*
X88932195Y-28870033D01*
X88977162Y-28846245D01*
X89022220Y-28822549D01*
X89067370Y-28798946D01*
X89112609Y-28775437D01*
X89157939Y-28752021D01*
X89203357Y-28728698D01*
X89248865Y-28705470D01*
X89294461Y-28682335D01*
X89340145Y-28659294D01*
X89385916Y-28636348D01*
X89431774Y-28613496D01*
X89477718Y-28590739D01*
X89523748Y-28568077D01*
X89569863Y-28545510D01*
X89616063Y-28523038D01*
X89662347Y-28500662D01*
X89708715Y-28478381D01*
X89755166Y-28456196D01*
X89801700Y-28434107D01*
X89848316Y-28412114D01*
X89895014Y-28390217D01*
X89941794Y-28368417D01*
X89988653Y-28346714D01*
X90035594Y-28325108D01*
X90082613Y-28303598D01*
X90129712Y-28282186D01*
X90176890Y-28260872D01*
X90224146Y-28239654D01*
X90271480Y-28218535D01*
X90318891Y-28197514D01*
X90366378Y-28176591D01*
X90413942Y-28155766D01*
X90461581Y-28135040D01*
X90509296Y-28114413D01*
X90557085Y-28093884D01*
X90604948Y-28073455D01*
X90652885Y-28053124D01*
X90700895Y-28032894D01*
X90748978Y-28012763D01*
X90797133Y-27992731D01*
X90845359Y-27972800D01*
X90893657Y-27952969D01*
X90942025Y-27933238D01*
X90990463Y-27913608D01*
X91038971Y-27894079D01*
X91087548Y-27874650D01*
X91136193Y-27855323D01*
X91184907Y-27836097D01*
X91233688Y-27816972D01*
X91282536Y-27797949D01*
X91331451Y-27779028D01*
X91380432Y-27760209D01*
X91429478Y-27741492D01*
X91478590Y-27722878D01*
X91527766Y-27704366D01*
X91577006Y-27685957D01*
X91626309Y-27667650D01*
X91675676Y-27649447D01*
X91725105Y-27631347D01*
X91774596Y-27613351D01*
X91824149Y-27595458D01*
X91873762Y-27577670D01*
X91923437Y-27559985D01*
X91973171Y-27542404D01*
X92022964Y-27524928D01*
X92072817Y-27507557D01*
X92122728Y-27490290D01*
X92172697Y-27473128D01*
X92222723Y-27456072D01*
X92272806Y-27439120D01*
X92322946Y-27422274D01*
X92373142Y-27405534D01*
X92423393Y-27388900D01*
X92473699Y-27372372D01*
X92524060Y-27355950D01*
X92574474Y-27339634D01*
X92624942Y-27323425D01*
X92675463Y-27307323D01*
X92726036Y-27291328D01*
X92776661Y-27275440D01*
X92827337Y-27259659D01*
X92878064Y-27243986D01*
X92928842Y-27228421D01*
X92979670Y-27212963D01*
X93030547Y-27197613D01*
X93081472Y-27182372D01*
X93132446Y-27167239D01*
X93183468Y-27152215D01*
X93234538Y-27137300D01*
X93285654Y-27122493D01*
X93336816Y-27107796D01*
X93388024Y-27093208D01*
X93439278Y-27078730D01*
X93490576Y-27064361D01*
X93541919Y-27050103D01*
X93593305Y-27035954D01*
X93644735Y-27021916D01*
X93696208Y-27007988D01*
X93747723Y-26994170D01*
X93799279Y-26980464D01*
X93850877Y-26966869D01*
X93902516Y-26953384D01*
X93954195Y-26940011D01*
X94005913Y-26926750D01*
X94057671Y-26913600D01*
X94109468Y-26900563D01*
X94161303Y-26887637D01*
X94213175Y-26874824D01*
X94265085Y-26862123D01*
X94317032Y-26849535D01*
X94369014Y-26837060D01*
X94421033Y-26824697D01*
X94473086Y-26812448D01*
X94525175Y-26800313D01*
X94577297Y-26788290D01*
X94629453Y-26776382D01*
X94681643Y-26764588D01*
X94733865Y-26752907D01*
X94786119Y-26741341D01*
X94838405Y-26729890D01*
X94890722Y-26718553D01*
X94943069Y-26707331D01*
X94995447Y-26696224D01*
X95047855Y-26685232D01*
X95100291Y-26674356D01*
X95152756Y-26663595D01*
X95205250Y-26652950D01*
X95257770Y-26642421D01*
X95310318Y-26632008D01*
X95362893Y-26621711D01*
X95415494Y-26611531D01*
X95468120Y-26601468D01*
X95520771Y-26591521D01*
X95573447Y-26581692D01*
X95626147Y-26571980D01*
X95678871Y-26562385D01*
X95731617Y-26552907D01*
X95784387Y-26543548D01*
X95837178Y-26534307D01*
X95889991Y-26525183D01*
X95942824Y-26516178D01*
X95995679Y-26507292D01*
X96048553Y-26498524D01*
X96101447Y-26489875D01*
X96154360Y-26481345D01*
X96207291Y-26472935D01*
X96260240Y-26464644D01*
X96313207Y-26456472D01*
X96366191Y-26448420D01*
X96419191Y-26440489D01*
X96472208Y-26432677D01*
X96525239Y-26424986D01*
X96578286Y-26417415D01*
X96631347Y-26409965D01*
X96684422Y-26402636D01*
X96737511Y-26395428D01*
X96790613Y-26388342D01*
X96843727Y-26381376D01*
X96896852Y-26374533D01*
X96949990Y-26367811D01*
X97003138Y-26361211D01*
X97056297Y-26354734D01*
X97109465Y-26348378D01*
X97162643Y-26342146D01*
X97215830Y-26336036D01*
X97269025Y-26330049D01*
X97322228Y-26324185D01*
X97375439Y-26318444D01*
X97428656Y-26312827D01*
X97481880Y-26307334D01*
X97535109Y-26301964D01*
X97588344Y-26296718D01*
X97641584Y-26291597D01*
X97694828Y-26286600D01*
X97748076Y-26281727D01*
X97801327Y-26276979D01*
X97854581Y-26272357D01*
X97907838Y-26267859D01*
X97961096Y-26263486D01*
X98014356Y-26259239D01*
X98067616Y-26255118D01*
X98120876Y-26251123D01*
X98174137Y-26247253D01*
X98227397Y-26243510D01*
X98280655Y-26239894D01*
X98317309Y-26237574D01*
X98355823Y-26235379D01*
X98396127Y-26233308D01*
X98438153Y-26231360D01*
X98481833Y-26229534D01*
X98527098Y-26227829D01*
X98573880Y-26226243D01*
X98622109Y-26224777D01*
X98671717Y-26223428D01*
X98722636Y-26222196D01*
X98774797Y-26221080D01*
X98828131Y-26220079D01*
X98882570Y-26219192D01*
X98938045Y-26218418D01*
X98994488Y-26217756D01*
X99051830Y-26217205D01*
X99110002Y-26216764D01*
X99168935Y-26216432D01*
X99228562Y-26216208D01*
X99288814Y-26216092D01*
X99349622Y-26216081D01*
X99410916Y-26216175D01*
G37*
%TD*%
M02*
