%TF.GenerationSoftware,KiCad,Pcbnew,10.0.1*%
%TF.CreationDate,2026-06-08T19:00:18-04:00*%
%TF.ProjectId,ITPcamp-card-example,49545063-616d-4702-9d63-6172642d6578,rev?*%
%TF.SameCoordinates,Original*%
%TF.FileFunction,Copper,L2,Bot*%
%TF.FilePolarity,Positive*%
%FSLAX46Y46*%
G04 Gerber Fmt 4.6, Leading zero omitted, Abs format (unit mm)*
G04 Created by KiCad (PCBNEW 10.0.1) date 2026-06-08 19:00:18*
%MOMM*%
%LPD*%
G01*
G04 APERTURE LIST*
%TA.AperFunction,EtchedComponent*%
%ADD10C,0.000000*%
%TD*%
G04 APERTURE END LIST*
D10*
%TA.AperFunction,EtchedComponent*%
%TO.C,itp-camp*%
G36*
X42555956Y-35695514D02*
G01*
X42627772Y-35695620D01*
X42700848Y-35695789D01*
X42775051Y-35696021D01*
X42850252Y-35696317D01*
X42926318Y-35696679D01*
X43003120Y-35697106D01*
X43080525Y-35697599D01*
X43213521Y-35698519D01*
X43337644Y-35699404D01*
X43453229Y-35700271D01*
X43560613Y-35701137D01*
X43660135Y-35702018D01*
X43752130Y-35702932D01*
X43836935Y-35703895D01*
X43914889Y-35704923D01*
X43986326Y-35706034D01*
X44051586Y-35707244D01*
X44111004Y-35708570D01*
X44164917Y-35710029D01*
X44213662Y-35711638D01*
X44257577Y-35713412D01*
X44296999Y-35715370D01*
X44332263Y-35717527D01*
X44363708Y-35719900D01*
X44391671Y-35722507D01*
X44416487Y-35725363D01*
X44438495Y-35728486D01*
X44458030Y-35731892D01*
X44475431Y-35735599D01*
X44491034Y-35739622D01*
X44505176Y-35743978D01*
X44518194Y-35748685D01*
X44530425Y-35753759D01*
X44542206Y-35759216D01*
X44553873Y-35765074D01*
X44565765Y-35771349D01*
X44603018Y-35793400D01*
X44637348Y-35818176D01*
X44668858Y-35845878D01*
X44697651Y-35876707D01*
X44723829Y-35910865D01*
X44747495Y-35948552D01*
X44768753Y-35989971D01*
X44787704Y-36035321D01*
X44804452Y-36084805D01*
X44819099Y-36138623D01*
X44831749Y-36196976D01*
X44842503Y-36260067D01*
X44851465Y-36328095D01*
X44852976Y-36343172D01*
X44854467Y-36361835D01*
X44855937Y-36383970D01*
X44857385Y-36409463D01*
X44858807Y-36438200D01*
X44860202Y-36470066D01*
X44861568Y-36504947D01*
X44862902Y-36542729D01*
X44864203Y-36583298D01*
X44865469Y-36626538D01*
X44866697Y-36672337D01*
X44867886Y-36720578D01*
X44869034Y-36771150D01*
X44870138Y-36823936D01*
X44871196Y-36878823D01*
X44872207Y-36935696D01*
X44873168Y-36994441D01*
X44874077Y-37054945D01*
X44874933Y-37117091D01*
X44875733Y-37180767D01*
X44876475Y-37245858D01*
X44877157Y-37312250D01*
X44877777Y-37379828D01*
X44878333Y-37448478D01*
X44878824Y-37518086D01*
X44879246Y-37588537D01*
X44879598Y-37659718D01*
X44879878Y-37731513D01*
X44880084Y-37803809D01*
X44880214Y-37876491D01*
X44880265Y-37949445D01*
X44880395Y-37949470D01*
X44880625Y-39321970D01*
X44460625Y-39321970D01*
X44040635Y-39321970D01*
X44040635Y-38811972D01*
X44040635Y-38301974D01*
X42780635Y-38301974D01*
X41520635Y-38301974D01*
X41520635Y-38462361D01*
X41522991Y-38517650D01*
X41529547Y-38574826D01*
X41539535Y-38629640D01*
X41552187Y-38677845D01*
X41566735Y-38715194D01*
X41585649Y-38762810D01*
X41595225Y-38809379D01*
X41596199Y-38853778D01*
X41589307Y-38894884D01*
X41575286Y-38931574D01*
X41554871Y-38962725D01*
X41528798Y-38987213D01*
X41497804Y-39003915D01*
X41462625Y-39011709D01*
X41423997Y-39009471D01*
X41382655Y-38996079D01*
X41345583Y-38972361D01*
X41317260Y-38940050D01*
X41298086Y-38900976D01*
X41288460Y-38856974D01*
X41288780Y-38809876D01*
X41299446Y-38761516D01*
X41320855Y-38713727D01*
X41334786Y-38684931D01*
X41346233Y-38650982D01*
X41355320Y-38611040D01*
X41362172Y-38564264D01*
X41366912Y-38509816D01*
X41369665Y-38446854D01*
X41370555Y-38374541D01*
X41370555Y-38121974D01*
X42780565Y-38121974D01*
X44190555Y-38121974D01*
X44190555Y-38631972D01*
X44190555Y-39141971D01*
X44462405Y-39141971D01*
X44734245Y-39141971D01*
X44725245Y-37709472D01*
X44724377Y-37577764D01*
X44723543Y-37454337D01*
X44722728Y-37338893D01*
X44721920Y-37231133D01*
X44721102Y-37130757D01*
X44720261Y-37037467D01*
X44719383Y-36950963D01*
X44718452Y-36870946D01*
X44717455Y-36797117D01*
X44716377Y-36729178D01*
X44715203Y-36666830D01*
X44713920Y-36609772D01*
X44712513Y-36557707D01*
X44710967Y-36510335D01*
X44709269Y-36467357D01*
X44707403Y-36428474D01*
X44705355Y-36393387D01*
X44703111Y-36361797D01*
X44700657Y-36333405D01*
X44697978Y-36307913D01*
X44695060Y-36285020D01*
X44691887Y-36264428D01*
X44688447Y-36245838D01*
X44684724Y-36228951D01*
X44680705Y-36213467D01*
X44676374Y-36199089D01*
X44671717Y-36185516D01*
X44666720Y-36172450D01*
X44661369Y-36159592D01*
X44655649Y-36146642D01*
X44649545Y-36133303D01*
X44623590Y-36081245D01*
X44597778Y-36039664D01*
X44569724Y-36006151D01*
X44537046Y-35978299D01*
X44497361Y-35953700D01*
X44448285Y-35929946D01*
X44435515Y-35924405D01*
X44422885Y-35919221D01*
X44410093Y-35914385D01*
X44396839Y-35909887D01*
X44382822Y-35905716D01*
X44367741Y-35901863D01*
X44351295Y-35898317D01*
X44333184Y-35895069D01*
X44313106Y-35892108D01*
X44290760Y-35889424D01*
X44265846Y-35887008D01*
X44238062Y-35884850D01*
X44207108Y-35882939D01*
X44172683Y-35881265D01*
X44134486Y-35879819D01*
X44092216Y-35878591D01*
X44045573Y-35877569D01*
X43994254Y-35876745D01*
X43937961Y-35876109D01*
X43876390Y-35875650D01*
X43809242Y-35875358D01*
X43736217Y-35875224D01*
X43657011Y-35875237D01*
X43571326Y-35875388D01*
X43478860Y-35875666D01*
X43379312Y-35876061D01*
X43272382Y-35876564D01*
X43157768Y-35877164D01*
X43035169Y-35877851D01*
X42904285Y-35878616D01*
X42766383Y-35879441D01*
X42637747Y-35880235D01*
X42518034Y-35881014D01*
X42406900Y-35881796D01*
X42304000Y-35882596D01*
X42208991Y-35883430D01*
X42121528Y-35884316D01*
X42041269Y-35885270D01*
X41967868Y-35886308D01*
X41900982Y-35887446D01*
X41840267Y-35888702D01*
X41785379Y-35890091D01*
X41735975Y-35891630D01*
X41691709Y-35893336D01*
X41652239Y-35895225D01*
X41617220Y-35897313D01*
X41586308Y-35899618D01*
X41559160Y-35902154D01*
X41535431Y-35904940D01*
X41514778Y-35907991D01*
X41496856Y-35911324D01*
X41481322Y-35914954D01*
X41467831Y-35918900D01*
X41456041Y-35923177D01*
X41445606Y-35927801D01*
X41436183Y-35932790D01*
X41427427Y-35938159D01*
X41418996Y-35943926D01*
X41410545Y-35950106D01*
X41380784Y-35975221D01*
X41349007Y-36007050D01*
X41317643Y-36042822D01*
X41289122Y-36079764D01*
X41265875Y-36115107D01*
X41260304Y-36124807D01*
X41255083Y-36134604D01*
X41250198Y-36144802D01*
X41245636Y-36155704D01*
X41241384Y-36167612D01*
X41237429Y-36180831D01*
X41233757Y-36195662D01*
X41230356Y-36212411D01*
X41227212Y-36231379D01*
X41224312Y-36252870D01*
X41221643Y-36277188D01*
X41219192Y-36304634D01*
X41216945Y-36335514D01*
X41214890Y-36370129D01*
X41213013Y-36408783D01*
X41211300Y-36451780D01*
X41209740Y-36499422D01*
X41208318Y-36552013D01*
X41207022Y-36609855D01*
X41205838Y-36673253D01*
X41204753Y-36742509D01*
X41203754Y-36817927D01*
X41202828Y-36899809D01*
X41201961Y-36988460D01*
X41201141Y-37084181D01*
X41200354Y-37187277D01*
X41199587Y-37298051D01*
X41198827Y-37416805D01*
X41198061Y-37543844D01*
X41197275Y-37679470D01*
X41188275Y-39141970D01*
X41444365Y-39141970D01*
X41700445Y-39141970D01*
X41700445Y-38841973D01*
X41700445Y-38541971D01*
X42668775Y-38541971D01*
X42801878Y-38541947D01*
X42922277Y-38541848D01*
X43030648Y-38541636D01*
X43127667Y-38541270D01*
X43214012Y-38540710D01*
X43290359Y-38539916D01*
X43357386Y-38538849D01*
X43415768Y-38537468D01*
X43466184Y-38535735D01*
X43509309Y-38533608D01*
X43545820Y-38531049D01*
X43576395Y-38528017D01*
X43601709Y-38524473D01*
X43622441Y-38520376D01*
X43639266Y-38515688D01*
X43652862Y-38510367D01*
X43663905Y-38504375D01*
X43673072Y-38497672D01*
X43681039Y-38490217D01*
X43688485Y-38481971D01*
X43720600Y-38451748D01*
X43755337Y-38430193D01*
X43785185Y-38421971D01*
X43821036Y-38430538D01*
X43858256Y-38453572D01*
X43893326Y-38487068D01*
X43922731Y-38527023D01*
X43942953Y-38569434D01*
X43950475Y-38610298D01*
X43945345Y-38656682D01*
X43931035Y-38698745D01*
X43909165Y-38735548D01*
X43881355Y-38766150D01*
X43849225Y-38789614D01*
X43814395Y-38804999D01*
X43778485Y-38811366D01*
X43743115Y-38807777D01*
X43709905Y-38793292D01*
X43680475Y-38766972D01*
X43674089Y-38760891D01*
X43665140Y-38755367D01*
X43653105Y-38750374D01*
X43637461Y-38745887D01*
X43617686Y-38741879D01*
X43593257Y-38738327D01*
X43563651Y-38735204D01*
X43528345Y-38732486D01*
X43486816Y-38730147D01*
X43438543Y-38728161D01*
X43383002Y-38726503D01*
X43319670Y-38725149D01*
X43248025Y-38724073D01*
X43167544Y-38723249D01*
X43077704Y-38722652D01*
X42977983Y-38722257D01*
X42867857Y-38722039D01*
X42746805Y-38721972D01*
X41850475Y-38721972D01*
X41850475Y-39021974D01*
X41850475Y-39321970D01*
X41444005Y-39321970D01*
X41037525Y-39321970D01*
X41046525Y-37739473D01*
X41055525Y-36156971D01*
X41130525Y-36007015D01*
X41156524Y-35959308D01*
X41184658Y-35916016D01*
X41215080Y-35877030D01*
X41247947Y-35842242D01*
X41283415Y-35811541D01*
X41321639Y-35784820D01*
X41362774Y-35761970D01*
X41406977Y-35742882D01*
X41454402Y-35727447D01*
X41505207Y-35715555D01*
X41559545Y-35707099D01*
X41570533Y-35706064D01*
X41585662Y-35705072D01*
X41604800Y-35704122D01*
X41627815Y-35703217D01*
X41654578Y-35702357D01*
X41684957Y-35701543D01*
X41718821Y-35700776D01*
X41756040Y-35700056D01*
X41796481Y-35699386D01*
X41840016Y-35698765D01*
X41886511Y-35698194D01*
X41935837Y-35697675D01*
X41987862Y-35697209D01*
X42042456Y-35696795D01*
X42099487Y-35696436D01*
X42158825Y-35696132D01*
X42220338Y-35695884D01*
X42283896Y-35695692D01*
X42349368Y-35695559D01*
X42416623Y-35695484D01*
X42485529Y-35695469D01*
X42555956Y-35695514D01*
G37*
%TD.AperFunction*%
%TA.AperFunction,EtchedComponent*%
G36*
X43075660Y-36096963D02*
G01*
X43197066Y-36097022D01*
X43310308Y-36097135D01*
X43415692Y-36097313D01*
X43513522Y-36097568D01*
X43604104Y-36097910D01*
X43687742Y-36098353D01*
X43764744Y-36098906D01*
X43835413Y-36099582D01*
X43900055Y-36100393D01*
X43958974Y-36101348D01*
X44012478Y-36102461D01*
X44060869Y-36103743D01*
X44104455Y-36105204D01*
X44143540Y-36106857D01*
X44178429Y-36108714D01*
X44209427Y-36110785D01*
X44236841Y-36113081D01*
X44260974Y-36115616D01*
X44282133Y-36118400D01*
X44300623Y-36121444D01*
X44316748Y-36124760D01*
X44330814Y-36128360D01*
X44343127Y-36132255D01*
X44353991Y-36136456D01*
X44363712Y-36140976D01*
X44372595Y-36145825D01*
X44380945Y-36151016D01*
X44415251Y-36177961D01*
X44447645Y-36211349D01*
X44474489Y-36246934D01*
X44492145Y-36280470D01*
X44494260Y-36288751D01*
X44496325Y-36302244D01*
X44498335Y-36320779D01*
X44500286Y-36344186D01*
X44502175Y-36372294D01*
X44503997Y-36404934D01*
X44505748Y-36441935D01*
X44507425Y-36483127D01*
X44509022Y-36528339D01*
X44510537Y-36577402D01*
X44511965Y-36630145D01*
X44513302Y-36686399D01*
X44514544Y-36745992D01*
X44515686Y-36808755D01*
X44516726Y-36874517D01*
X44517658Y-36943108D01*
X44518479Y-37014358D01*
X44519185Y-37088098D01*
X44519772Y-37164155D01*
X44520235Y-37242361D01*
X44520571Y-37322546D01*
X44520776Y-37404538D01*
X44520845Y-37488168D01*
X44520887Y-37607730D01*
X44521021Y-37719014D01*
X44521258Y-37822321D01*
X44521609Y-37917953D01*
X44522085Y-38006213D01*
X44522698Y-38087402D01*
X44523458Y-38161824D01*
X44524377Y-38229780D01*
X44525467Y-38291572D01*
X44526737Y-38347502D01*
X44528200Y-38397874D01*
X44529867Y-38442988D01*
X44531749Y-38483148D01*
X44533856Y-38518655D01*
X44536201Y-38549811D01*
X44538795Y-38576919D01*
X44541648Y-38600282D01*
X44544772Y-38620200D01*
X44548177Y-38636977D01*
X44551876Y-38650914D01*
X44555880Y-38662314D01*
X44560199Y-38671479D01*
X44564845Y-38678712D01*
X44586339Y-38715772D01*
X44600437Y-38758288D01*
X44607163Y-38803813D01*
X44606543Y-38849901D01*
X44598600Y-38894106D01*
X44583359Y-38933982D01*
X44560845Y-38967084D01*
X44560725Y-38967061D01*
X44527128Y-38996707D01*
X44491446Y-39014135D01*
X44454304Y-39019359D01*
X44416327Y-39012395D01*
X44378142Y-38993257D01*
X44340375Y-38961962D01*
X44310258Y-38926601D01*
X44291338Y-38890882D01*
X44283512Y-38853135D01*
X44286679Y-38811691D01*
X44300734Y-38764880D01*
X44325575Y-38711033D01*
X44330333Y-38700956D01*
X44334753Y-38689205D01*
X44338847Y-38675494D01*
X44342627Y-38659538D01*
X44346105Y-38641051D01*
X44349292Y-38619748D01*
X44352200Y-38595345D01*
X44354841Y-38567556D01*
X44357227Y-38536095D01*
X44359369Y-38500678D01*
X44361278Y-38461020D01*
X44362968Y-38416835D01*
X44364449Y-38367839D01*
X44365733Y-38313745D01*
X44366833Y-38254269D01*
X44367759Y-38189126D01*
X44368523Y-38118031D01*
X44369138Y-38040697D01*
X44369615Y-37956841D01*
X44369965Y-37866177D01*
X44370201Y-37768420D01*
X44370333Y-37663285D01*
X44370375Y-37550486D01*
X44370299Y-37467922D01*
X44370074Y-37386970D01*
X44369705Y-37307822D01*
X44369196Y-37230667D01*
X44368553Y-37155698D01*
X44367780Y-37083104D01*
X44366883Y-37013076D01*
X44365865Y-36945806D01*
X44364731Y-36881484D01*
X44363487Y-36820301D01*
X44362138Y-36762448D01*
X44360687Y-36708116D01*
X44359140Y-36657496D01*
X44357501Y-36610778D01*
X44355776Y-36568153D01*
X44353969Y-36529813D01*
X44352085Y-36495947D01*
X44350128Y-36466748D01*
X44348104Y-36442406D01*
X44346017Y-36423111D01*
X44343873Y-36409054D01*
X44341675Y-36400428D01*
X44336416Y-36387712D01*
X44330441Y-36375777D01*
X44323501Y-36364601D01*
X44315345Y-36354162D01*
X44305722Y-36344438D01*
X44294383Y-36335405D01*
X44281075Y-36327042D01*
X44265550Y-36319326D01*
X44247556Y-36312235D01*
X44226844Y-36305748D01*
X44203162Y-36299840D01*
X44176261Y-36294491D01*
X44145889Y-36289677D01*
X44111797Y-36285377D01*
X44073734Y-36281568D01*
X44031449Y-36278227D01*
X43984692Y-36275333D01*
X43933213Y-36272864D01*
X43876761Y-36270796D01*
X43815086Y-36269108D01*
X43747937Y-36267776D01*
X43675064Y-36266780D01*
X43596216Y-36266096D01*
X43511143Y-36265703D01*
X43419595Y-36265578D01*
X43321321Y-36265698D01*
X43216070Y-36266041D01*
X43103593Y-36266585D01*
X42983638Y-36267308D01*
X42855955Y-36268188D01*
X42726673Y-36269145D01*
X42606785Y-36270090D01*
X42495922Y-36271042D01*
X42393712Y-36272018D01*
X42299783Y-36273036D01*
X42213765Y-36274116D01*
X42135287Y-36275275D01*
X42063977Y-36276531D01*
X41999465Y-36277902D01*
X41941379Y-36279408D01*
X41889348Y-36281066D01*
X41843001Y-36282894D01*
X41801968Y-36284911D01*
X41765876Y-36287134D01*
X41734356Y-36289583D01*
X41707035Y-36292275D01*
X41683542Y-36295229D01*
X41663508Y-36298463D01*
X41646559Y-36301994D01*
X41632327Y-36305843D01*
X41620438Y-36310025D01*
X41610523Y-36314561D01*
X41602209Y-36319468D01*
X41595127Y-36324764D01*
X41588905Y-36330468D01*
X41579310Y-36341316D01*
X41570864Y-36354192D01*
X41563477Y-36370129D01*
X41557058Y-36390159D01*
X41551517Y-36415317D01*
X41546762Y-36446635D01*
X41542705Y-36485147D01*
X41539254Y-36531887D01*
X41536318Y-36587887D01*
X41533807Y-36654181D01*
X41531631Y-36731803D01*
X41529699Y-36821785D01*
X41527921Y-36925162D01*
X41526205Y-37042967D01*
X41517205Y-37701958D01*
X42778825Y-37701958D01*
X44040445Y-37701958D01*
X44040445Y-37227960D01*
X44040109Y-37134487D01*
X44039091Y-37051107D01*
X44037375Y-36977573D01*
X44034944Y-36913641D01*
X44031783Y-36859066D01*
X44027874Y-36813602D01*
X44023202Y-36777005D01*
X44017751Y-36749029D01*
X44011504Y-36729429D01*
X44004445Y-36717961D01*
X43997225Y-36714279D01*
X43983339Y-36710782D01*
X43963129Y-36707469D01*
X43936938Y-36704339D01*
X43905106Y-36701394D01*
X43867976Y-36698633D01*
X43825889Y-36696056D01*
X43779188Y-36693663D01*
X43728213Y-36691455D01*
X43673308Y-36689430D01*
X43614814Y-36687589D01*
X43553072Y-36685932D01*
X43488424Y-36684460D01*
X43421213Y-36683171D01*
X43351780Y-36682067D01*
X43280467Y-36681147D01*
X43207615Y-36680410D01*
X43133567Y-36679858D01*
X43058665Y-36679490D01*
X42983249Y-36679306D01*
X42907663Y-36679306D01*
X42832248Y-36679490D01*
X42757345Y-36679858D01*
X42683297Y-36680410D01*
X42610445Y-36681147D01*
X42539131Y-36682067D01*
X42469697Y-36683171D01*
X42402485Y-36684460D01*
X42337837Y-36685932D01*
X42276094Y-36687589D01*
X42217598Y-36689430D01*
X42162692Y-36691455D01*
X42111716Y-36693663D01*
X42065014Y-36696056D01*
X42022926Y-36698633D01*
X41985794Y-36701394D01*
X41953960Y-36704339D01*
X41927767Y-36707469D01*
X41907555Y-36710782D01*
X41893667Y-36714279D01*
X41886445Y-36717961D01*
X41873896Y-36739784D01*
X41863917Y-36775676D01*
X41856464Y-36822789D01*
X41851489Y-36878275D01*
X41848948Y-36939288D01*
X41848795Y-37002980D01*
X41850983Y-37066505D01*
X41855467Y-37127014D01*
X41862201Y-37181661D01*
X41871139Y-37227599D01*
X41882236Y-37261981D01*
X41895445Y-37281960D01*
X41922588Y-37312675D01*
X41938222Y-37348424D01*
X41943245Y-37387259D01*
X41938556Y-37427233D01*
X41925056Y-37466398D01*
X41903644Y-37502809D01*
X41875218Y-37534517D01*
X41840678Y-37559577D01*
X41800924Y-37576040D01*
X41756855Y-37581961D01*
X41718456Y-37576484D01*
X41684987Y-37561081D01*
X41656945Y-37537290D01*
X41634830Y-37506651D01*
X41619140Y-37470703D01*
X41610372Y-37430984D01*
X41609026Y-37389035D01*
X41615599Y-37346394D01*
X41630589Y-37304600D01*
X41654495Y-37265193D01*
X41665616Y-37246366D01*
X41674969Y-37221171D01*
X41682653Y-37188790D01*
X41688766Y-37148404D01*
X41693409Y-37099196D01*
X41696678Y-37040348D01*
X41698674Y-36971042D01*
X41699495Y-36890460D01*
X41700542Y-36807614D01*
X41703061Y-36735011D01*
X41707015Y-36673003D01*
X41712371Y-36621942D01*
X41719093Y-36582180D01*
X41727146Y-36554069D01*
X41736495Y-36537961D01*
X41742825Y-36534731D01*
X41755039Y-36531641D01*
X41772877Y-36528692D01*
X41796076Y-36525884D01*
X41824376Y-36523216D01*
X41857514Y-36520688D01*
X41895230Y-36518301D01*
X41937261Y-36516054D01*
X41983346Y-36513948D01*
X42033224Y-36511982D01*
X42086632Y-36510156D01*
X42143310Y-36508471D01*
X42202995Y-36506926D01*
X42265427Y-36505522D01*
X42330344Y-36504258D01*
X42397484Y-36503135D01*
X42466585Y-36502152D01*
X42537386Y-36501309D01*
X42609626Y-36500607D01*
X42683043Y-36500046D01*
X42757376Y-36499624D01*
X42832362Y-36499343D01*
X42907740Y-36499203D01*
X42983250Y-36499203D01*
X43058628Y-36499343D01*
X43133614Y-36499624D01*
X43207947Y-36500046D01*
X43281364Y-36500607D01*
X43353604Y-36501309D01*
X43424405Y-36502152D01*
X43493506Y-36503135D01*
X43560646Y-36504258D01*
X43625563Y-36505522D01*
X43687995Y-36506926D01*
X43747680Y-36508471D01*
X43804358Y-36510156D01*
X43857766Y-36511982D01*
X43907644Y-36513948D01*
X43953729Y-36516054D01*
X43995760Y-36518301D01*
X44033476Y-36520688D01*
X44066614Y-36523216D01*
X44094914Y-36525884D01*
X44118113Y-36528692D01*
X44135951Y-36531641D01*
X44148165Y-36534731D01*
X44154495Y-36537961D01*
X44159805Y-36546187D01*
X44164644Y-36559949D01*
X44169025Y-36579482D01*
X44172959Y-36605026D01*
X44176459Y-36636816D01*
X44179538Y-36675091D01*
X44182207Y-36720089D01*
X44184481Y-36772046D01*
X44186371Y-36831201D01*
X44187889Y-36897791D01*
X44189048Y-36972054D01*
X44189860Y-37054226D01*
X44190338Y-37144547D01*
X44190495Y-37243253D01*
X44190495Y-37912548D01*
X42772995Y-37904748D01*
X41355495Y-37896948D01*
X41358495Y-37131948D01*
X41359002Y-37014486D01*
X41359719Y-36907690D01*
X41360736Y-36810983D01*
X41362142Y-36723787D01*
X41364026Y-36645525D01*
X41366479Y-36575619D01*
X41369590Y-36513492D01*
X41373448Y-36458567D01*
X41378142Y-36410266D01*
X41383764Y-36368011D01*
X41390401Y-36331226D01*
X41398144Y-36299333D01*
X41407082Y-36271755D01*
X41417305Y-36247914D01*
X41428902Y-36227233D01*
X41441963Y-36209134D01*
X41456577Y-36193040D01*
X41472834Y-36178374D01*
X41490823Y-36164558D01*
X41510635Y-36151016D01*
X41518986Y-36145825D01*
X41527870Y-36140976D01*
X41537591Y-36136456D01*
X41548454Y-36132255D01*
X41560766Y-36128360D01*
X41574832Y-36124760D01*
X41590956Y-36121444D01*
X41609444Y-36118400D01*
X41630601Y-36115616D01*
X41654733Y-36113081D01*
X41682145Y-36110785D01*
X41713142Y-36108714D01*
X41748029Y-36106857D01*
X41787112Y-36105204D01*
X41830697Y-36103743D01*
X41879087Y-36102461D01*
X41932589Y-36101348D01*
X41991508Y-36100393D01*
X42056148Y-36099582D01*
X42126817Y-36098906D01*
X42203818Y-36098353D01*
X42287457Y-36097910D01*
X42378039Y-36097568D01*
X42475870Y-36097313D01*
X42581255Y-36097135D01*
X42694499Y-36097022D01*
X42815907Y-36096963D01*
X42945785Y-36096946D01*
X43075660Y-36096963D01*
G37*
%TD.AperFunction*%
%TA.AperFunction,EtchedComponent*%
G36*
X37641115Y-36380200D02*
G01*
X37692354Y-36442639D01*
X37742468Y-36503553D01*
X37791247Y-36562693D01*
X37838483Y-36619813D01*
X37883965Y-36674664D01*
X37927485Y-36726999D01*
X37968833Y-36776569D01*
X38007800Y-36823127D01*
X38044176Y-36866426D01*
X38077753Y-36906217D01*
X38108320Y-36942252D01*
X38135668Y-36974284D01*
X38159589Y-37002064D01*
X38179872Y-37025346D01*
X38196309Y-37043881D01*
X38208689Y-37057421D01*
X38216805Y-37065719D01*
X38220445Y-37068526D01*
X38232051Y-37059704D01*
X38255284Y-37035312D01*
X38287637Y-36998224D01*
X38326600Y-36951315D01*
X38369665Y-36897459D01*
X38384517Y-36878688D01*
X38402857Y-36855731D01*
X38424445Y-36828882D01*
X38449040Y-36798436D01*
X38476402Y-36764687D01*
X38506289Y-36727928D01*
X38538461Y-36688455D01*
X38572678Y-36646561D01*
X38608698Y-36602541D01*
X38646281Y-36556689D01*
X38685185Y-36509298D01*
X38725171Y-36460665D01*
X38765998Y-36411081D01*
X38807424Y-36360842D01*
X38849210Y-36310243D01*
X38891114Y-36259576D01*
X38932895Y-36209136D01*
X39361915Y-35691637D01*
X39961175Y-35691637D01*
X40560445Y-35691637D01*
X40560445Y-37506636D01*
X40560445Y-39321634D01*
X40147955Y-39321645D01*
X39735445Y-39321652D01*
X39743445Y-38001643D01*
X39743899Y-37918485D01*
X39744248Y-37836657D01*
X39744494Y-37756316D01*
X39744638Y-37677619D01*
X39744682Y-37600725D01*
X39744629Y-37525792D01*
X39744481Y-37452976D01*
X39744239Y-37382435D01*
X39743905Y-37314329D01*
X39743482Y-37248813D01*
X39742971Y-37186045D01*
X39742375Y-37126185D01*
X39741695Y-37069388D01*
X39740933Y-37015814D01*
X39740092Y-36965619D01*
X39739173Y-36918961D01*
X39738178Y-36875999D01*
X39737110Y-36836889D01*
X39735970Y-36801790D01*
X39734760Y-36770859D01*
X39733482Y-36744253D01*
X39732138Y-36722132D01*
X39730731Y-36704652D01*
X39729261Y-36691971D01*
X39727732Y-36684246D01*
X39726145Y-36681637D01*
X39719829Y-36685453D01*
X39707593Y-36696592D01*
X39689845Y-36714587D01*
X39666993Y-36738973D01*
X39639445Y-36769284D01*
X39607609Y-36805053D01*
X39571895Y-36845815D01*
X39532709Y-36891103D01*
X39490460Y-36940452D01*
X39445558Y-36993396D01*
X39398409Y-37049468D01*
X39349422Y-37108203D01*
X39299005Y-37169135D01*
X39269561Y-37204856D01*
X39238963Y-37241968D01*
X39207338Y-37280318D01*
X39174815Y-37319748D01*
X39141521Y-37360106D01*
X39107585Y-37401234D01*
X39073135Y-37442979D01*
X39038300Y-37485185D01*
X39003206Y-37527696D01*
X38967983Y-37570358D01*
X38932759Y-37613016D01*
X38897661Y-37655514D01*
X38862819Y-37697697D01*
X38828359Y-37739410D01*
X38794411Y-37780498D01*
X38761102Y-37820806D01*
X38728560Y-37860178D01*
X38696914Y-37898460D01*
X38666292Y-37935496D01*
X38636822Y-37971131D01*
X38608632Y-38005210D01*
X38581850Y-38037578D01*
X38556605Y-38068079D01*
X38215995Y-38479525D01*
X37479125Y-37588078D01*
X37426637Y-37524633D01*
X37374984Y-37462303D01*
X37324298Y-37401244D01*
X37274709Y-37341613D01*
X37226350Y-37283563D01*
X37179353Y-37227252D01*
X37133849Y-37172834D01*
X37089969Y-37120465D01*
X37047846Y-37070302D01*
X37007611Y-37022498D01*
X36969395Y-36977211D01*
X36933331Y-36934595D01*
X36899550Y-36894806D01*
X36868184Y-36857999D01*
X36839364Y-36824331D01*
X36813223Y-36793957D01*
X36789891Y-36767033D01*
X36769500Y-36743713D01*
X36752182Y-36724154D01*
X36738069Y-36708511D01*
X36727293Y-36696940D01*
X36719984Y-36689596D01*
X36716275Y-36686635D01*
X36714626Y-36688590D01*
X36713006Y-36695631D01*
X36711416Y-36707609D01*
X36709860Y-36724373D01*
X36708341Y-36745773D01*
X36706861Y-36771657D01*
X36705425Y-36801876D01*
X36704034Y-36836277D01*
X36702693Y-36874712D01*
X36701403Y-36917029D01*
X36700168Y-36963077D01*
X36698991Y-37012706D01*
X36697875Y-37065765D01*
X36696823Y-37122104D01*
X36695838Y-37181571D01*
X36694922Y-37244017D01*
X36694080Y-37309291D01*
X36693313Y-37377241D01*
X36692626Y-37447717D01*
X36692020Y-37520570D01*
X36691499Y-37595647D01*
X36691067Y-37672798D01*
X36690725Y-37751873D01*
X36690477Y-37832721D01*
X36690326Y-37915191D01*
X36690275Y-37999133D01*
X36690275Y-39321499D01*
X36450275Y-39321499D01*
X36210275Y-39321499D01*
X36210275Y-37701499D01*
X36210275Y-36081499D01*
X36562775Y-36082599D01*
X36915275Y-36083698D01*
X37545275Y-36838267D01*
X37596858Y-36899956D01*
X37647542Y-36960382D01*
X37697153Y-37019345D01*
X37745518Y-37076643D01*
X37792461Y-37132077D01*
X37837810Y-37185446D01*
X37881390Y-37236548D01*
X37923028Y-37285182D01*
X37962550Y-37331148D01*
X37999782Y-37374245D01*
X38034551Y-37414273D01*
X38066682Y-37451029D01*
X38096001Y-37484314D01*
X38122335Y-37513927D01*
X38145510Y-37539666D01*
X38165352Y-37561332D01*
X38181688Y-37578722D01*
X38194343Y-37591637D01*
X38203143Y-37599875D01*
X38207915Y-37603236D01*
X38212697Y-37601533D01*
X38221540Y-37594844D01*
X38234269Y-37583366D01*
X38250710Y-37567298D01*
X38270686Y-37546838D01*
X38294023Y-37522185D01*
X38320545Y-37493536D01*
X38350077Y-37461089D01*
X38382444Y-37425044D01*
X38417470Y-37385599D01*
X38454981Y-37342952D01*
X38494800Y-37297300D01*
X38536754Y-37248843D01*
X38580666Y-37197779D01*
X38626362Y-37144307D01*
X38673665Y-37088623D01*
X38722401Y-37030927D01*
X38772395Y-36971418D01*
X38823472Y-36910292D01*
X38875455Y-36847749D01*
X39510355Y-36081867D01*
X39870315Y-36081867D01*
X40230275Y-36081867D01*
X40231275Y-37364367D01*
X40231400Y-37482553D01*
X40231593Y-37593724D01*
X40231863Y-37698097D01*
X40232216Y-37795890D01*
X40232659Y-37887319D01*
X40233199Y-37972601D01*
X40233843Y-38051954D01*
X40234599Y-38125595D01*
X40235472Y-38193741D01*
X40236471Y-38256608D01*
X40237602Y-38314415D01*
X40238872Y-38367379D01*
X40240287Y-38415715D01*
X40241857Y-38459643D01*
X40243586Y-38499378D01*
X40245482Y-38535137D01*
X40247552Y-38567139D01*
X40249804Y-38595600D01*
X40252243Y-38620737D01*
X40254878Y-38642767D01*
X40257715Y-38661908D01*
X40260761Y-38678377D01*
X40264023Y-38692390D01*
X40267508Y-38704165D01*
X40271223Y-38713919D01*
X40275175Y-38721868D01*
X40296888Y-38768896D01*
X40312622Y-38820089D01*
X40319075Y-38864369D01*
X40312064Y-38904759D01*
X40292197Y-38946901D01*
X40263022Y-38986740D01*
X40228090Y-39020218D01*
X40190948Y-39043279D01*
X40155145Y-39051867D01*
X40119977Y-39045434D01*
X40087588Y-39027516D01*
X40058669Y-39000190D01*
X40033911Y-38965530D01*
X40014004Y-38925611D01*
X39999640Y-38882508D01*
X39991510Y-38838297D01*
X39990305Y-38795052D01*
X39996715Y-38754849D01*
X40011431Y-38719762D01*
X40035145Y-38691867D01*
X40040047Y-38686860D01*
X40044588Y-38679963D01*
X40048781Y-38670844D01*
X40052641Y-38659170D01*
X40056179Y-38644609D01*
X40059409Y-38626827D01*
X40062345Y-38605492D01*
X40065000Y-38580270D01*
X40067387Y-38550829D01*
X40069519Y-38516835D01*
X40071411Y-38477957D01*
X40073074Y-38433860D01*
X40074523Y-38384212D01*
X40075771Y-38328681D01*
X40076831Y-38266933D01*
X40077717Y-38198635D01*
X40078441Y-38123455D01*
X40079017Y-38041059D01*
X40079459Y-37951115D01*
X40079779Y-37853289D01*
X40079991Y-37747250D01*
X40080109Y-37632663D01*
X40080145Y-37509196D01*
X40080092Y-37401301D01*
X40079929Y-37299477D01*
X40079652Y-37203592D01*
X40079259Y-37113512D01*
X40078743Y-37029103D01*
X40078103Y-36950234D01*
X40077332Y-36876770D01*
X40076429Y-36808579D01*
X40075388Y-36745528D01*
X40074205Y-36687482D01*
X40072877Y-36634310D01*
X40071400Y-36585877D01*
X40069769Y-36542051D01*
X40067981Y-36502699D01*
X40066031Y-36467687D01*
X40063916Y-36436883D01*
X40061632Y-36410152D01*
X40059174Y-36387363D01*
X40056539Y-36368381D01*
X40053723Y-36353074D01*
X40050721Y-36341308D01*
X40047530Y-36332951D01*
X40044145Y-36327868D01*
X40022551Y-36316084D01*
X39984849Y-36306150D01*
X39933984Y-36298510D01*
X39872901Y-36293602D01*
X39804545Y-36291869D01*
X39600955Y-36291869D01*
X39393425Y-36539368D01*
X39374935Y-36561439D01*
X39353824Y-36586675D01*
X39330268Y-36614864D01*
X39304442Y-36645796D01*
X39276520Y-36679260D01*
X39246680Y-36715046D01*
X39215094Y-36752944D01*
X39181940Y-36792742D01*
X39147392Y-36834229D01*
X39111626Y-36877196D01*
X39074817Y-36921431D01*
X39037140Y-36966724D01*
X38998771Y-37012864D01*
X38959885Y-37059640D01*
X38920656Y-37106842D01*
X38881262Y-37154260D01*
X38841876Y-37201682D01*
X38802674Y-37248897D01*
X38763832Y-37295696D01*
X38725525Y-37341868D01*
X38675327Y-37402120D01*
X38626225Y-37460548D01*
X38578526Y-37516804D01*
X38532541Y-37570545D01*
X38488579Y-37621424D01*
X38446949Y-37669097D01*
X38407961Y-37713218D01*
X38371923Y-37753441D01*
X38339146Y-37789421D01*
X38309938Y-37820814D01*
X38284608Y-37847273D01*
X38263467Y-37868453D01*
X38246823Y-37884010D01*
X38234986Y-37893597D01*
X38228265Y-37896869D01*
X38223416Y-37894466D01*
X38214772Y-37887375D01*
X38202488Y-37875778D01*
X38186722Y-37859854D01*
X38167630Y-37839783D01*
X38145369Y-37815747D01*
X38120095Y-37787925D01*
X38091964Y-37756498D01*
X38061135Y-37721645D01*
X38027762Y-37683547D01*
X37992003Y-37642385D01*
X37954015Y-37598339D01*
X37913953Y-37551588D01*
X37871975Y-37502314D01*
X37828238Y-37450696D01*
X37782897Y-37396914D01*
X37736109Y-37341150D01*
X37688031Y-37283583D01*
X37638821Y-37224394D01*
X37588633Y-37163762D01*
X37537625Y-37101868D01*
X36883855Y-36306867D01*
X36674505Y-36299168D01*
X36606215Y-36298223D01*
X36542368Y-36300251D01*
X36487230Y-36304890D01*
X36445067Y-36311782D01*
X36420145Y-36320567D01*
X36416106Y-36323953D01*
X36412297Y-36328892D01*
X36408710Y-36335611D01*
X36405337Y-36344337D01*
X36402170Y-36355297D01*
X36399199Y-36368718D01*
X36396417Y-36384827D01*
X36393815Y-36403850D01*
X36391385Y-36426015D01*
X36389118Y-36451549D01*
X36387007Y-36480677D01*
X36385042Y-36513628D01*
X36383216Y-36550628D01*
X36381520Y-36591903D01*
X36379946Y-36637682D01*
X36378484Y-36688190D01*
X36377128Y-36743654D01*
X36375869Y-36804302D01*
X36374697Y-36870361D01*
X36373606Y-36942056D01*
X36372586Y-37019615D01*
X36371629Y-37103266D01*
X36370727Y-37193234D01*
X36369871Y-37289746D01*
X36369053Y-37393031D01*
X36368265Y-37503313D01*
X36367499Y-37620821D01*
X36366745Y-37745781D01*
X36358745Y-39141890D01*
X36449645Y-39141890D01*
X36540545Y-39141890D01*
X36540545Y-37821891D01*
X36540545Y-36501892D01*
X36668975Y-36501892D01*
X36797415Y-36501892D01*
X37499495Y-37356893D01*
X37551741Y-37420458D01*
X37603073Y-37482794D01*
X37653350Y-37543730D01*
X37702427Y-37603099D01*
X37750164Y-37660731D01*
X37796418Y-37716459D01*
X37841046Y-37770114D01*
X37883905Y-37821527D01*
X37924855Y-37870530D01*
X37963751Y-37916954D01*
X38000453Y-37960630D01*
X38034816Y-38001391D01*
X38066700Y-38039067D01*
X38095961Y-38073490D01*
X38122457Y-38104492D01*
X38146046Y-38131904D01*
X38166586Y-38155557D01*
X38183933Y-38175283D01*
X38197946Y-38190913D01*
X38208482Y-38202280D01*
X38215399Y-38209213D01*
X38218555Y-38211546D01*
X38221753Y-38209164D01*
X38228707Y-38202183D01*
X38239274Y-38190773D01*
X38253311Y-38175101D01*
X38270679Y-38155337D01*
X38291234Y-38131648D01*
X38314834Y-38104204D01*
X38341339Y-38073173D01*
X38370605Y-38038724D01*
X38402492Y-38001025D01*
X38436856Y-37960245D01*
X38473557Y-37916553D01*
X38512453Y-37870117D01*
X38553401Y-37821106D01*
X38596260Y-37769688D01*
X38640887Y-37716032D01*
X38687142Y-37660307D01*
X38734882Y-37602682D01*
X38783965Y-37543324D01*
X38834249Y-37482403D01*
X38885593Y-37420087D01*
X38937855Y-37356545D01*
X39640165Y-36501892D01*
X39762855Y-36501886D01*
X39885545Y-36501882D01*
X39885545Y-37814386D01*
X39885545Y-39126891D01*
X40148045Y-39135592D01*
X40410545Y-39144292D01*
X40410545Y-37508124D01*
X40410545Y-35871956D01*
X39917245Y-35871956D01*
X39423945Y-35871956D01*
X38831195Y-36591956D01*
X38777359Y-36657246D01*
X38724670Y-36720943D01*
X38673350Y-36782789D01*
X38623620Y-36842523D01*
X38575699Y-36899888D01*
X38529810Y-36954622D01*
X38486172Y-37006468D01*
X38445007Y-37055165D01*
X38406535Y-37100456D01*
X38370977Y-37142079D01*
X38338554Y-37179776D01*
X38309487Y-37213289D01*
X38283996Y-37242357D01*
X38262302Y-37266721D01*
X38244626Y-37286122D01*
X38231190Y-37300301D01*
X38222212Y-37308999D01*
X38217915Y-37311956D01*
X38213623Y-37308999D01*
X38204658Y-37300301D01*
X38191239Y-37286122D01*
X38173588Y-37266721D01*
X38151925Y-37242357D01*
X38126470Y-37213289D01*
X38097445Y-37179776D01*
X38065069Y-37142079D01*
X38029563Y-37100456D01*
X37991147Y-37055165D01*
X37950043Y-37006468D01*
X37906470Y-36954622D01*
X37860649Y-36899888D01*
X37812801Y-36842523D01*
X37763146Y-36782789D01*
X37711905Y-36720943D01*
X37659298Y-36657246D01*
X37605545Y-36591956D01*
X37013685Y-35871956D01*
X36522115Y-35871956D01*
X36030545Y-35871956D01*
X36030545Y-37427344D01*
X36030565Y-37549671D01*
X36030627Y-37665669D01*
X36030736Y-37775514D01*
X36030898Y-37879382D01*
X36031116Y-37977449D01*
X36031397Y-38069890D01*
X36031745Y-38156883D01*
X36032165Y-38238601D01*
X36032662Y-38315222D01*
X36033241Y-38386922D01*
X36033906Y-38453875D01*
X36034664Y-38516259D01*
X36035517Y-38574249D01*
X36036473Y-38628021D01*
X36037534Y-38677751D01*
X36038708Y-38723614D01*
X36039997Y-38765788D01*
X36041408Y-38804447D01*
X36042944Y-38839767D01*
X36044612Y-38871925D01*
X36046416Y-38901097D01*
X36048361Y-38927457D01*
X36050452Y-38951183D01*
X36052693Y-38972450D01*
X36055091Y-38991434D01*
X36057649Y-39008311D01*
X36060372Y-39023257D01*
X36063266Y-39036447D01*
X36066335Y-39048059D01*
X36069585Y-39058266D01*
X36073020Y-39067247D01*
X36076645Y-39075176D01*
X36094795Y-39121323D01*
X36104432Y-39168302D01*
X36105833Y-39214277D01*
X36099277Y-39257413D01*
X36085042Y-39295873D01*
X36063405Y-39327823D01*
X36034645Y-39351427D01*
X36034605Y-39351115D01*
X35993195Y-39371071D01*
X35956605Y-39378507D01*
X35922306Y-39373017D01*
X35887766Y-39354194D01*
X35850455Y-39321634D01*
X35820388Y-39283648D01*
X35801151Y-39241615D01*
X35792842Y-39197128D01*
X35795559Y-39151779D01*
X35809397Y-39107162D01*
X35834455Y-39064868D01*
X35837737Y-39059769D01*
X35840860Y-39053373D01*
X35843827Y-39045521D01*
X35846642Y-39036055D01*
X35849308Y-39024819D01*
X35851830Y-39011652D01*
X35854212Y-38996398D01*
X35856457Y-38978898D01*
X35858569Y-38958994D01*
X35860552Y-38936528D01*
X35862411Y-38911342D01*
X35864148Y-38883278D01*
X35865767Y-38852178D01*
X35867273Y-38817884D01*
X35868670Y-38780237D01*
X35869961Y-38739080D01*
X35871149Y-38694254D01*
X35872240Y-38645602D01*
X35873237Y-38592965D01*
X35874143Y-38536186D01*
X35874962Y-38475105D01*
X35875699Y-38409566D01*
X35876358Y-38339410D01*
X35876941Y-38264478D01*
X35877453Y-38184614D01*
X35877898Y-38099658D01*
X35878280Y-38009453D01*
X35878602Y-37913841D01*
X35878868Y-37812663D01*
X35879083Y-37705762D01*
X35879250Y-37592979D01*
X35879373Y-37474156D01*
X35879455Y-37349135D01*
X35880455Y-35691636D01*
X36478615Y-35691636D01*
X37076785Y-35691636D01*
X37641115Y-36380200D01*
G37*
%TD.AperFunction*%
%TA.AperFunction,EtchedComponent*%
G36*
X35409895Y-37513649D02*
G01*
X35402895Y-39337077D01*
X35162555Y-39345777D01*
X34922225Y-39354477D01*
X34922225Y-38844663D01*
X34922225Y-38334845D01*
X33534725Y-38325945D01*
X33401791Y-38325097D01*
X33277054Y-38324289D01*
X33160237Y-38323489D01*
X33051062Y-38322665D01*
X32949251Y-38321784D01*
X32854525Y-38320815D01*
X32766608Y-38319726D01*
X32685221Y-38318483D01*
X32610086Y-38317056D01*
X32540925Y-38315411D01*
X32477461Y-38313517D01*
X32419416Y-38311342D01*
X32366512Y-38308853D01*
X32318470Y-38306018D01*
X32275013Y-38302805D01*
X32235864Y-38299182D01*
X32200744Y-38295117D01*
X32169375Y-38290577D01*
X32141479Y-38285530D01*
X32116780Y-38279944D01*
X32094998Y-38273788D01*
X32075855Y-38267028D01*
X32059075Y-38259633D01*
X32044379Y-38251570D01*
X32031489Y-38242808D01*
X32020127Y-38233314D01*
X32010016Y-38223056D01*
X32000877Y-38212001D01*
X31992433Y-38200118D01*
X31984405Y-38187375D01*
X31976517Y-38173739D01*
X31968489Y-38159178D01*
X31960045Y-38143659D01*
X31952990Y-38129837D01*
X31946582Y-38115117D01*
X31940791Y-38098940D01*
X31935587Y-38080748D01*
X31930940Y-38059984D01*
X31926818Y-38036090D01*
X31923192Y-38008508D01*
X31920031Y-37976679D01*
X31917305Y-37940047D01*
X31914982Y-37898052D01*
X31913034Y-37850138D01*
X31911428Y-37795745D01*
X31910136Y-37734317D01*
X31909126Y-37665295D01*
X31908367Y-37588121D01*
X31907831Y-37502238D01*
X31907485Y-37407087D01*
X31907300Y-37302110D01*
X31907245Y-37186750D01*
X31907274Y-37062737D01*
X31907393Y-36951102D01*
X31907650Y-36851120D01*
X31908093Y-36762060D01*
X31908772Y-36683196D01*
X31909734Y-36613798D01*
X31911028Y-36553139D01*
X31912703Y-36500490D01*
X31914805Y-36455123D01*
X31917385Y-36416310D01*
X31920490Y-36383322D01*
X31924169Y-36355432D01*
X31928469Y-36331910D01*
X31933440Y-36312030D01*
X31939130Y-36295062D01*
X31945587Y-36280278D01*
X31952860Y-36266950D01*
X31960996Y-36254351D01*
X31970045Y-36241750D01*
X31979853Y-36228718D01*
X31989545Y-36216431D01*
X31999356Y-36204866D01*
X32009523Y-36194002D01*
X32020282Y-36183816D01*
X32031872Y-36174287D01*
X32044527Y-36165391D01*
X32058485Y-36157107D01*
X32073982Y-36149413D01*
X32091256Y-36142286D01*
X32110542Y-36135704D01*
X32132077Y-36129646D01*
X32156098Y-36124088D01*
X32182842Y-36119008D01*
X32212545Y-36114386D01*
X32245444Y-36110197D01*
X32281775Y-36106420D01*
X32321775Y-36103033D01*
X32365682Y-36100014D01*
X32413730Y-36097340D01*
X32466158Y-36094990D01*
X32523202Y-36092940D01*
X32585097Y-36091169D01*
X32652082Y-36089655D01*
X32724392Y-36088375D01*
X32802265Y-36087308D01*
X32885937Y-36086430D01*
X32975644Y-36085721D01*
X33071623Y-36085157D01*
X33174111Y-36084716D01*
X33283345Y-36084377D01*
X33399561Y-36084117D01*
X33522995Y-36083913D01*
X33653885Y-36083744D01*
X35070535Y-36081944D01*
X35078535Y-36996960D01*
X35086535Y-37911977D01*
X33705035Y-37911963D01*
X33596778Y-37911926D01*
X33493618Y-37911818D01*
X33395459Y-37911636D01*
X33302206Y-37911377D01*
X33213763Y-37911040D01*
X33130035Y-37910622D01*
X33050926Y-37910120D01*
X32976341Y-37909532D01*
X32906184Y-37908855D01*
X32840360Y-37908088D01*
X32778773Y-37907227D01*
X32721328Y-37906270D01*
X32667928Y-37905215D01*
X32618480Y-37904060D01*
X32572887Y-37902801D01*
X32531053Y-37901437D01*
X32492883Y-37899965D01*
X32458282Y-37898382D01*
X32427155Y-37896686D01*
X32399404Y-37894875D01*
X32374936Y-37892947D01*
X32353655Y-37890898D01*
X32335464Y-37888726D01*
X32320269Y-37886430D01*
X32307974Y-37884006D01*
X32298484Y-37881451D01*
X32291703Y-37878765D01*
X32287535Y-37875943D01*
X32282078Y-37865524D01*
X32277041Y-37846074D01*
X32272424Y-37818314D01*
X32268226Y-37782968D01*
X32264449Y-37740758D01*
X32261091Y-37692407D01*
X32258152Y-37638636D01*
X32255634Y-37580170D01*
X32253535Y-37517729D01*
X32251856Y-37452037D01*
X32250597Y-37383817D01*
X32249757Y-37313790D01*
X32249337Y-37242679D01*
X32249337Y-37171207D01*
X32249757Y-37100096D01*
X32250597Y-37030069D01*
X32251856Y-36961849D01*
X32253535Y-36896157D01*
X32255634Y-36833716D01*
X32258152Y-36775250D01*
X32261091Y-36721480D01*
X32264449Y-36673129D01*
X32268226Y-36630919D01*
X32272424Y-36595573D01*
X32277041Y-36567814D01*
X32282078Y-36548363D01*
X32287535Y-36537944D01*
X32292423Y-36534686D01*
X32300470Y-36531606D01*
X32311801Y-36528703D01*
X32326543Y-36525972D01*
X32344823Y-36523410D01*
X32366768Y-36521013D01*
X32392503Y-36518778D01*
X32422155Y-36516700D01*
X32455851Y-36514777D01*
X32493717Y-36513004D01*
X32535879Y-36511377D01*
X32582465Y-36509894D01*
X32633600Y-36508551D01*
X32689412Y-36507344D01*
X32750025Y-36506269D01*
X32815568Y-36505322D01*
X32886167Y-36504501D01*
X32961947Y-36503801D01*
X33043036Y-36503218D01*
X33129560Y-36502750D01*
X33221645Y-36502392D01*
X33319419Y-36502141D01*
X33423006Y-36501993D01*
X33532535Y-36501944D01*
X34741535Y-36501944D01*
X34742535Y-36869442D01*
X34743176Y-36955169D01*
X34744694Y-37029253D01*
X34747179Y-37092568D01*
X34750724Y-37145986D01*
X34755420Y-37190380D01*
X34761357Y-37226623D01*
X34768628Y-37255589D01*
X34777323Y-37278149D01*
X34787535Y-37295177D01*
X34809772Y-37332863D01*
X34823058Y-37373657D01*
X34827975Y-37415894D01*
X34825104Y-37457907D01*
X34815027Y-37498029D01*
X34798328Y-37534593D01*
X34775587Y-37565934D01*
X34747386Y-37590383D01*
X34714308Y-37606275D01*
X34676935Y-37611943D01*
X34639677Y-37606297D01*
X34605604Y-37590490D01*
X34575354Y-37566211D01*
X34549569Y-37535154D01*
X34528887Y-37499010D01*
X34513947Y-37459470D01*
X34505389Y-37418226D01*
X34503852Y-37376970D01*
X34509976Y-37337394D01*
X34524401Y-37301190D01*
X34547765Y-37270049D01*
X34561702Y-37252337D01*
X34572386Y-37228878D01*
X34580052Y-37197816D01*
X34584937Y-37157294D01*
X34587277Y-37105456D01*
X34587307Y-37040444D01*
X34585265Y-36960403D01*
X34576265Y-36696944D01*
X33566755Y-36689044D01*
X33479647Y-36688441D01*
X33395356Y-36688018D01*
X33313993Y-36687772D01*
X33235672Y-36687701D01*
X33160504Y-36687803D01*
X33088603Y-36688075D01*
X33020080Y-36688515D01*
X32955049Y-36689122D01*
X32893621Y-36689892D01*
X32835909Y-36690823D01*
X32782025Y-36691914D01*
X32732082Y-36693161D01*
X32686193Y-36694563D01*
X32644470Y-36696118D01*
X32607025Y-36697823D01*
X32573970Y-36699676D01*
X32545419Y-36701675D01*
X32521483Y-36703818D01*
X32502276Y-36706101D01*
X32487909Y-36708524D01*
X32478495Y-36711084D01*
X32399695Y-36741024D01*
X32407695Y-37213973D01*
X32415695Y-37686926D01*
X33668185Y-37694727D01*
X34920685Y-37702527D01*
X34920685Y-36997196D01*
X34920685Y-36291869D01*
X33569325Y-36291869D01*
X32217965Y-36291869D01*
X32144365Y-36365509D01*
X32070765Y-36439149D01*
X32070765Y-37220511D01*
X32070798Y-37346479D01*
X32070945Y-37458260D01*
X32071276Y-37556786D01*
X32071859Y-37642988D01*
X32072765Y-37717795D01*
X32074065Y-37782139D01*
X32075827Y-37836948D01*
X32078121Y-37883155D01*
X32081018Y-37921689D01*
X32084588Y-37953480D01*
X32088899Y-37979459D01*
X32094022Y-38000557D01*
X32100028Y-38017704D01*
X32106985Y-38031829D01*
X32114964Y-38043864D01*
X32124034Y-38054739D01*
X32134265Y-38065385D01*
X32140882Y-38071900D01*
X32147476Y-38077950D01*
X32154425Y-38083552D01*
X32162108Y-38088718D01*
X32170905Y-38093466D01*
X32181193Y-38097809D01*
X32193351Y-38101762D01*
X32207760Y-38105340D01*
X32224797Y-38108559D01*
X32244841Y-38111432D01*
X32268271Y-38113976D01*
X32295466Y-38116205D01*
X32326805Y-38118134D01*
X32362666Y-38119777D01*
X32403429Y-38121150D01*
X32449473Y-38122268D01*
X32501175Y-38123146D01*
X32558916Y-38123798D01*
X32623074Y-38124240D01*
X32694027Y-38124486D01*
X32772155Y-38124551D01*
X32857837Y-38124451D01*
X32951451Y-38124200D01*
X33053376Y-38123813D01*
X33163991Y-38123305D01*
X33283675Y-38122691D01*
X33412807Y-38121986D01*
X33551765Y-38121205D01*
X33631153Y-38120764D01*
X33709649Y-38120346D01*
X33787115Y-38119949D01*
X33863415Y-38119575D01*
X33938411Y-38119223D01*
X34011965Y-38118894D01*
X34083940Y-38118587D01*
X34154200Y-38118303D01*
X34222606Y-38118042D01*
X34289021Y-38117804D01*
X34353309Y-38117589D01*
X34415330Y-38117399D01*
X34474950Y-38117232D01*
X34532029Y-38117089D01*
X34586430Y-38116970D01*
X34638017Y-38116875D01*
X34686652Y-38116805D01*
X34732198Y-38116760D01*
X34774517Y-38116739D01*
X34813472Y-38116744D01*
X34848925Y-38116774D01*
X34880740Y-38116829D01*
X34908779Y-38116910D01*
X34932904Y-38117016D01*
X34952979Y-38117149D01*
X34968865Y-38117308D01*
X34980426Y-38117493D01*
X34987525Y-38117705D01*
X35069325Y-38121904D01*
X35077325Y-38624402D01*
X35085325Y-39126904D01*
X35167825Y-39136404D01*
X35250325Y-39145904D01*
X35250325Y-37507425D01*
X35250325Y-35868947D01*
X33682825Y-35877947D01*
X33550520Y-35878713D01*
X33425812Y-35879459D01*
X33308458Y-35880195D01*
X33198214Y-35880930D01*
X33094834Y-35881674D01*
X32998076Y-35882438D01*
X32907694Y-35883232D01*
X32823446Y-35884065D01*
X32745085Y-35884948D01*
X32672370Y-35885890D01*
X32605054Y-35886901D01*
X32542894Y-35887992D01*
X32485646Y-35889172D01*
X32433066Y-35890452D01*
X32384910Y-35891841D01*
X32340933Y-35893349D01*
X32300891Y-35894987D01*
X32264540Y-35896764D01*
X32231636Y-35898690D01*
X32201934Y-35900776D01*
X32175191Y-35903031D01*
X32151163Y-35905465D01*
X32129604Y-35908088D01*
X32110272Y-35910911D01*
X32092922Y-35913943D01*
X32077309Y-35917194D01*
X32063190Y-35920674D01*
X32050320Y-35924393D01*
X32038455Y-35928362D01*
X32027352Y-35932589D01*
X32016765Y-35937086D01*
X32006451Y-35941862D01*
X31996165Y-35946927D01*
X31955294Y-35971276D01*
X31913951Y-36002610D01*
X31875044Y-36038269D01*
X31841479Y-36075595D01*
X31816165Y-36111928D01*
X31808361Y-36125876D01*
X31801239Y-36139933D01*
X31794762Y-36154664D01*
X31788893Y-36170630D01*
X31783596Y-36188396D01*
X31778835Y-36208524D01*
X31774572Y-36231578D01*
X31770772Y-36258121D01*
X31767397Y-36288716D01*
X31764411Y-36323926D01*
X31761777Y-36364315D01*
X31759459Y-36410445D01*
X31757421Y-36462880D01*
X31755624Y-36522184D01*
X31754034Y-36588919D01*
X31752613Y-36663649D01*
X31751324Y-36746936D01*
X31750132Y-36839345D01*
X31748999Y-36941437D01*
X31747889Y-37053778D01*
X31746765Y-37176929D01*
X31745668Y-37300634D01*
X31744718Y-37413326D01*
X31743948Y-37515600D01*
X31743389Y-37608053D01*
X31743075Y-37691279D01*
X31743038Y-37765876D01*
X31743311Y-37832438D01*
X31743926Y-37891562D01*
X31744916Y-37943843D01*
X31746314Y-37989878D01*
X31748153Y-38030262D01*
X31750464Y-38065590D01*
X31753281Y-38096459D01*
X31756635Y-38123465D01*
X31760561Y-38147203D01*
X31765090Y-38168270D01*
X31770256Y-38187260D01*
X31776090Y-38204771D01*
X31782625Y-38221397D01*
X31789894Y-38237734D01*
X31797930Y-38254379D01*
X31806765Y-38271927D01*
X31831550Y-38316205D01*
X31858327Y-38355081D01*
X31887596Y-38389074D01*
X31919856Y-38418700D01*
X31955606Y-38444479D01*
X31995345Y-38466927D01*
X32007427Y-38472808D01*
X32019557Y-38478299D01*
X32032063Y-38483416D01*
X32045275Y-38488175D01*
X32059520Y-38492592D01*
X32075127Y-38496682D01*
X32092425Y-38500463D01*
X32111742Y-38503949D01*
X32133405Y-38507156D01*
X32157745Y-38510102D01*
X32185089Y-38512800D01*
X32215765Y-38515268D01*
X32250103Y-38517522D01*
X32288430Y-38519577D01*
X32331075Y-38521448D01*
X32378367Y-38523154D01*
X32430633Y-38524708D01*
X32488203Y-38526127D01*
X32551405Y-38527428D01*
X32620567Y-38528625D01*
X32696018Y-38529735D01*
X32778085Y-38530774D01*
X32867099Y-38531758D01*
X32963386Y-38532703D01*
X33067276Y-38533624D01*
X33179097Y-38534537D01*
X33299177Y-38535460D01*
X33427845Y-38536406D01*
X34740345Y-38545907D01*
X34741345Y-38776427D01*
X34742831Y-38848910D01*
X34746701Y-38911469D01*
X34752970Y-38964241D01*
X34761656Y-39007359D01*
X34772776Y-39040961D01*
X34786345Y-39065181D01*
X34810310Y-39107533D01*
X34824434Y-39155826D01*
X34828758Y-39206382D01*
X34823323Y-39255518D01*
X34808171Y-39299553D01*
X34783345Y-39334806D01*
X34784815Y-39334884D01*
X34747618Y-39362335D01*
X34705635Y-39377179D01*
X34661809Y-39379661D01*
X34619078Y-39370023D01*
X34580383Y-39348510D01*
X34548665Y-39315364D01*
X34523746Y-39269565D01*
X34508764Y-39219844D01*
X34503729Y-39169657D01*
X34508649Y-39122459D01*
X34523535Y-39081702D01*
X34548395Y-39050842D01*
X34568809Y-39025476D01*
X34581582Y-38988726D01*
X34587137Y-38938991D01*
X34585895Y-38874668D01*
X34576895Y-38737039D01*
X33286895Y-38722049D01*
X33161544Y-38720596D01*
X33044172Y-38719225D01*
X32934484Y-38717900D01*
X32832182Y-38716589D01*
X32736971Y-38715257D01*
X32648554Y-38713871D01*
X32566635Y-38712395D01*
X32490917Y-38710797D01*
X32421105Y-38709042D01*
X32356902Y-38707096D01*
X32298011Y-38704925D01*
X32244136Y-38702495D01*
X32194981Y-38699772D01*
X32150250Y-38696722D01*
X32109646Y-38693311D01*
X32072872Y-38689505D01*
X32039634Y-38685270D01*
X32009633Y-38680571D01*
X31982575Y-38675375D01*
X31958162Y-38669648D01*
X31936098Y-38663356D01*
X31916087Y-38656464D01*
X31897833Y-38648939D01*
X31881039Y-38640747D01*
X31865409Y-38631853D01*
X31850646Y-38622223D01*
X31836455Y-38611824D01*
X31822538Y-38600622D01*
X31808600Y-38588582D01*
X31794345Y-38575670D01*
X31779475Y-38561853D01*
X31763695Y-38547095D01*
X31745177Y-38529089D01*
X31727938Y-38510638D01*
X31711927Y-38491433D01*
X31697094Y-38471164D01*
X31683388Y-38449524D01*
X31670757Y-38426202D01*
X31659152Y-38400888D01*
X31648521Y-38373275D01*
X31638813Y-38343051D01*
X31629977Y-38309909D01*
X31621963Y-38273539D01*
X31614720Y-38233631D01*
X31608196Y-38189877D01*
X31602342Y-38141966D01*
X31597105Y-38089590D01*
X31592436Y-38032440D01*
X31588283Y-37970205D01*
X31584595Y-37902577D01*
X31581322Y-37829247D01*
X31578413Y-37749905D01*
X31575816Y-37664241D01*
X31573482Y-37571948D01*
X31571358Y-37472714D01*
X31569395Y-37366231D01*
X31567807Y-37265136D01*
X31566628Y-37168541D01*
X31565880Y-37076331D01*
X31565587Y-36988393D01*
X31565769Y-36904613D01*
X31566448Y-36824875D01*
X31567648Y-36749066D01*
X31569388Y-36677072D01*
X31571693Y-36608777D01*
X31574583Y-36544069D01*
X31578081Y-36482831D01*
X31582209Y-36424951D01*
X31586988Y-36370313D01*
X31592442Y-36318804D01*
X31598591Y-36270310D01*
X31605457Y-36224715D01*
X31613064Y-36181905D01*
X31621432Y-36141767D01*
X31630584Y-36104186D01*
X31640542Y-36069047D01*
X31651328Y-36036236D01*
X31662964Y-36005640D01*
X31675471Y-35977143D01*
X31688873Y-35950631D01*
X31703190Y-35925991D01*
X31718445Y-35903107D01*
X31734661Y-35881866D01*
X31751858Y-35862152D01*
X31770059Y-35843853D01*
X31789286Y-35826853D01*
X31809561Y-35811038D01*
X31830907Y-35796294D01*
X31853344Y-35782506D01*
X31876895Y-35769560D01*
X31886785Y-35764483D01*
X31896569Y-35759685D01*
X31906484Y-35755159D01*
X31916766Y-35750894D01*
X31927651Y-35746883D01*
X31939376Y-35743114D01*
X31952176Y-35739580D01*
X31966289Y-35736272D01*
X31981950Y-35733179D01*
X31999396Y-35730294D01*
X32018864Y-35727606D01*
X32040589Y-35725107D01*
X32064807Y-35722787D01*
X32091756Y-35720638D01*
X32121672Y-35718650D01*
X32154790Y-35716814D01*
X32191348Y-35715120D01*
X32231581Y-35713561D01*
X32275726Y-35712125D01*
X32324018Y-35710805D01*
X32376696Y-35709592D01*
X32433994Y-35708475D01*
X32496150Y-35707446D01*
X32563399Y-35706496D01*
X32635977Y-35705616D01*
X32714122Y-35704795D01*
X32798069Y-35704027D01*
X32888055Y-35703300D01*
X32984316Y-35702606D01*
X33087089Y-35701936D01*
X33196609Y-35701280D01*
X33313114Y-35700630D01*
X33436839Y-35699976D01*
X33568020Y-35699309D01*
X33706895Y-35698620D01*
X35416895Y-35690220D01*
X35409895Y-37513649D01*
G37*
%TD.AperFunction*%
%TA.AperFunction,EtchedComponent*%
G36*
X47254423Y-35692513D02*
G01*
X47328266Y-35692631D01*
X47402003Y-35692823D01*
X47475474Y-35693090D01*
X47548518Y-35693431D01*
X47620973Y-35693847D01*
X47692679Y-35694337D01*
X47763475Y-35694900D01*
X47833199Y-35695536D01*
X47901691Y-35696246D01*
X47968790Y-35697029D01*
X48034335Y-35697884D01*
X48098164Y-35698812D01*
X48160117Y-35699812D01*
X48220032Y-35700884D01*
X48277749Y-35702027D01*
X48333107Y-35703242D01*
X48385944Y-35704527D01*
X48436100Y-35705884D01*
X48483413Y-35707311D01*
X48527724Y-35708809D01*
X48568869Y-35710376D01*
X48606690Y-35712013D01*
X48641023Y-35713720D01*
X48671710Y-35715496D01*
X48698588Y-35717342D01*
X48721496Y-35719256D01*
X48740274Y-35721238D01*
X48754761Y-35723289D01*
X48764795Y-35725407D01*
X48808742Y-35740189D01*
X48851312Y-35759587D01*
X48892210Y-35783275D01*
X48931141Y-35810929D01*
X48967810Y-35842224D01*
X49001924Y-35876835D01*
X49033186Y-35914436D01*
X49061302Y-35954703D01*
X49085978Y-35997310D01*
X49106919Y-36041933D01*
X49123829Y-36088246D01*
X49136415Y-36135924D01*
X49139025Y-36150641D01*
X49141533Y-36169824D01*
X49143941Y-36193295D01*
X49146247Y-36220875D01*
X49148453Y-36252385D01*
X49150557Y-36287647D01*
X49152560Y-36326481D01*
X49154461Y-36368710D01*
X49156261Y-36414155D01*
X49157960Y-36462636D01*
X49159557Y-36513976D01*
X49161053Y-36567995D01*
X49162447Y-36624514D01*
X49163740Y-36683356D01*
X49164931Y-36744342D01*
X49166020Y-36807292D01*
X49167008Y-36872028D01*
X49167894Y-36938372D01*
X49168678Y-37006144D01*
X49169360Y-37075166D01*
X49169940Y-37145259D01*
X49170419Y-37216245D01*
X49170795Y-37287945D01*
X49171069Y-37360181D01*
X49171241Y-37432772D01*
X49171311Y-37505542D01*
X49171279Y-37578311D01*
X49171145Y-37650900D01*
X49170908Y-37723131D01*
X49170569Y-37794825D01*
X49170127Y-37865803D01*
X49169583Y-37935887D01*
X49168937Y-38004898D01*
X49168188Y-38072658D01*
X49167337Y-38138987D01*
X49166383Y-38203707D01*
X49165326Y-38266639D01*
X49164167Y-38327605D01*
X49162905Y-38386426D01*
X49161540Y-38442923D01*
X49160072Y-38496917D01*
X49158501Y-38548230D01*
X49156827Y-38596684D01*
X49155051Y-38642099D01*
X49153171Y-38684296D01*
X49151189Y-38723098D01*
X49149103Y-38758325D01*
X49146914Y-38789798D01*
X49144621Y-38817340D01*
X49142226Y-38840771D01*
X49139727Y-38859912D01*
X49137125Y-38874585D01*
X49124151Y-38925347D01*
X49107652Y-38973246D01*
X49087699Y-39018207D01*
X49064363Y-39060153D01*
X49037715Y-39099006D01*
X49007826Y-39134690D01*
X48974768Y-39167128D01*
X48938610Y-39196242D01*
X48899425Y-39221956D01*
X48857284Y-39244193D01*
X48812256Y-39262875D01*
X48764415Y-39277926D01*
X48764525Y-39277999D01*
X48752335Y-39280631D01*
X48735771Y-39283187D01*
X48714995Y-39285667D01*
X48690167Y-39288069D01*
X48661448Y-39290394D01*
X48629001Y-39292640D01*
X48592985Y-39294807D01*
X48553562Y-39296893D01*
X48510894Y-39298900D01*
X48465141Y-39300825D01*
X48416465Y-39302668D01*
X48365026Y-39304429D01*
X48310987Y-39306106D01*
X48254508Y-39307699D01*
X48195749Y-39309208D01*
X48134874Y-39310632D01*
X48072041Y-39311970D01*
X48007414Y-39313222D01*
X47941153Y-39314386D01*
X47873418Y-39315462D01*
X47804372Y-39316450D01*
X47734175Y-39317349D01*
X47662989Y-39318157D01*
X47590975Y-39318876D01*
X47518293Y-39319503D01*
X47445106Y-39320038D01*
X47371573Y-39320481D01*
X47297858Y-39320831D01*
X47224119Y-39321087D01*
X47150520Y-39321248D01*
X47077220Y-39321315D01*
X47004381Y-39321285D01*
X46932165Y-39321159D01*
X46860732Y-39320936D01*
X46790243Y-39320615D01*
X46720861Y-39320196D01*
X46652745Y-39319678D01*
X46586057Y-39319060D01*
X46520958Y-39318341D01*
X46457610Y-39317522D01*
X46396173Y-39316600D01*
X46336809Y-39315576D01*
X46279678Y-39314449D01*
X46224943Y-39313219D01*
X46172764Y-39311884D01*
X46123302Y-39310444D01*
X46076719Y-39308898D01*
X46033176Y-39307246D01*
X45992833Y-39305486D01*
X45955852Y-39303619D01*
X45922395Y-39301644D01*
X45892621Y-39299560D01*
X45866694Y-39297366D01*
X45844773Y-39295061D01*
X45827019Y-39292646D01*
X45813595Y-39290119D01*
X45760489Y-39275913D01*
X45711287Y-39258624D01*
X45665837Y-39238131D01*
X45623985Y-39214312D01*
X45585578Y-39187046D01*
X45550461Y-39156212D01*
X45518482Y-39121690D01*
X45489487Y-39083358D01*
X45463322Y-39041095D01*
X45439835Y-38994781D01*
X45428588Y-38969134D01*
X45418691Y-38943623D01*
X45410035Y-38917237D01*
X45402511Y-38888961D01*
X45396013Y-38857783D01*
X45390432Y-38822692D01*
X45385660Y-38782673D01*
X45381589Y-38736714D01*
X45378111Y-38683803D01*
X45375118Y-38622927D01*
X45372502Y-38553073D01*
X45370155Y-38473228D01*
X45367968Y-38382381D01*
X45365835Y-38279518D01*
X45355035Y-37702016D01*
X45762795Y-37702016D01*
X46170555Y-37702016D01*
X46170905Y-37964518D01*
X46171873Y-38035450D01*
X46174412Y-38101930D01*
X46178280Y-38161036D01*
X46183231Y-38209848D01*
X46189021Y-38245444D01*
X46195405Y-38264906D01*
X46199621Y-38268986D01*
X46207058Y-38272759D01*
X46217959Y-38276231D01*
X46232566Y-38279409D01*
X46251121Y-38282299D01*
X46273865Y-38284909D01*
X46301042Y-38287244D01*
X46332892Y-38289312D01*
X46369659Y-38291120D01*
X46411585Y-38292673D01*
X46458911Y-38293979D01*
X46511879Y-38295045D01*
X46570732Y-38295876D01*
X46635712Y-38296481D01*
X46707060Y-38296865D01*
X46785020Y-38297035D01*
X46869832Y-38296999D01*
X46961740Y-38296762D01*
X47060985Y-38296331D01*
X47167809Y-38295713D01*
X47282455Y-38294916D01*
X48345435Y-38287016D01*
X48345435Y-37492018D01*
X48345435Y-36697017D01*
X47282455Y-36689116D01*
X47167809Y-36688326D01*
X47060985Y-36687714D01*
X46961740Y-36687290D01*
X46869832Y-36687058D01*
X46785020Y-36687026D01*
X46707060Y-36687200D01*
X46635712Y-36687588D01*
X46570732Y-36688195D01*
X46511879Y-36689029D01*
X46458911Y-36690096D01*
X46411585Y-36691403D01*
X46369659Y-36692956D01*
X46332892Y-36694762D01*
X46301042Y-36696828D01*
X46273865Y-36699161D01*
X46251121Y-36701767D01*
X46232566Y-36704652D01*
X46217959Y-36707824D01*
X46207058Y-36711290D01*
X46199621Y-36715055D01*
X46195405Y-36719127D01*
X46181649Y-36754059D01*
X46174020Y-36802040D01*
X46172194Y-36857858D01*
X46175845Y-36916300D01*
X46184647Y-36972155D01*
X46198276Y-37020209D01*
X46216405Y-37055252D01*
X46239573Y-37093026D01*
X46253497Y-37132341D01*
X46258254Y-37172513D01*
X46253918Y-37212857D01*
X46240564Y-37252689D01*
X46218268Y-37291323D01*
X46187105Y-37328077D01*
X46155253Y-37354303D01*
X46123099Y-37370559D01*
X46091296Y-37377680D01*
X46060497Y-37376503D01*
X46031352Y-37367866D01*
X46004516Y-37352605D01*
X45980640Y-37331556D01*
X45960377Y-37305558D01*
X45944379Y-37275445D01*
X45933298Y-37242057D01*
X45927786Y-37206228D01*
X45928497Y-37168796D01*
X45936082Y-37130598D01*
X45951194Y-37092471D01*
X45974485Y-37055252D01*
X45987700Y-37031791D01*
X45998705Y-36999478D01*
X46007444Y-36958696D01*
X46013858Y-36909831D01*
X46017891Y-36853264D01*
X46019485Y-36789379D01*
X46019421Y-36760252D01*
X46019106Y-36732954D01*
X46018773Y-36707428D01*
X46018650Y-36683614D01*
X46018969Y-36661453D01*
X46019961Y-36640886D01*
X46021856Y-36621853D01*
X46024884Y-36604297D01*
X46029277Y-36588156D01*
X46035265Y-36573374D01*
X46043078Y-36559889D01*
X46052947Y-36547643D01*
X46065103Y-36536577D01*
X46079777Y-36526632D01*
X46097198Y-36517749D01*
X46117598Y-36509868D01*
X46141208Y-36502931D01*
X46168257Y-36496877D01*
X46198977Y-36491649D01*
X46233597Y-36487187D01*
X46272350Y-36483431D01*
X46315465Y-36480323D01*
X46363173Y-36477804D01*
X46415705Y-36475814D01*
X46473290Y-36474294D01*
X46536161Y-36473185D01*
X46604547Y-36472428D01*
X46678679Y-36471964D01*
X46758788Y-36471734D01*
X46845104Y-36471678D01*
X46937859Y-36471737D01*
X47037281Y-36471853D01*
X47143603Y-36471966D01*
X47257055Y-36472017D01*
X47350150Y-36472080D01*
X47439851Y-36472269D01*
X47526107Y-36472582D01*
X47608871Y-36473019D01*
X47688092Y-36473578D01*
X47763722Y-36474258D01*
X47835712Y-36475057D01*
X47904012Y-36475974D01*
X47968574Y-36477008D01*
X48029348Y-36478158D01*
X48086285Y-36479422D01*
X48139337Y-36480799D01*
X48188454Y-36482288D01*
X48233587Y-36483888D01*
X48274686Y-36485597D01*
X48311704Y-36487415D01*
X48344591Y-36489339D01*
X48373297Y-36491369D01*
X48397774Y-36493503D01*
X48417972Y-36495740D01*
X48433843Y-36498079D01*
X48445337Y-36500518D01*
X48452405Y-36503057D01*
X48460407Y-36507714D01*
X48467637Y-36513200D01*
X48474136Y-36520150D01*
X48479941Y-36529195D01*
X48485093Y-36540970D01*
X48489629Y-36556108D01*
X48493590Y-36575243D01*
X48497013Y-36599007D01*
X48499939Y-36628036D01*
X48502405Y-36662961D01*
X48504452Y-36704417D01*
X48506117Y-36753036D01*
X48507441Y-36809454D01*
X48508461Y-36874302D01*
X48509218Y-36948214D01*
X48509749Y-37031825D01*
X48510095Y-37125766D01*
X48510293Y-37230673D01*
X48510384Y-37347178D01*
X48510405Y-37475915D01*
X48510355Y-37593285D01*
X48510191Y-37700835D01*
X48509890Y-37799012D01*
X48509433Y-37888259D01*
X48508797Y-37969021D01*
X48507962Y-38041744D01*
X48506905Y-38106872D01*
X48505605Y-38164851D01*
X48504041Y-38216124D01*
X48502193Y-38261138D01*
X48500037Y-38300336D01*
X48497553Y-38334165D01*
X48494720Y-38363068D01*
X48491516Y-38387491D01*
X48487919Y-38407879D01*
X48483909Y-38424676D01*
X48479464Y-38438328D01*
X48474563Y-38449279D01*
X48469183Y-38457974D01*
X48463305Y-38464859D01*
X48457247Y-38470040D01*
X48449581Y-38474834D01*
X48439940Y-38479257D01*
X48427954Y-38483323D01*
X48413257Y-38487046D01*
X48395479Y-38490441D01*
X48374254Y-38493522D01*
X48349213Y-38496304D01*
X48319988Y-38498801D01*
X48286210Y-38501028D01*
X48247513Y-38502999D01*
X48203529Y-38504729D01*
X48153888Y-38506233D01*
X48098223Y-38507524D01*
X48036166Y-38508618D01*
X47967350Y-38509529D01*
X47891405Y-38510271D01*
X47807965Y-38510860D01*
X47716661Y-38511308D01*
X47617125Y-38511632D01*
X47508989Y-38511845D01*
X47391885Y-38511963D01*
X47265445Y-38511999D01*
X47139005Y-38511963D01*
X47021901Y-38511845D01*
X46913764Y-38511631D01*
X46814228Y-38511307D01*
X46722923Y-38510857D01*
X46639482Y-38510268D01*
X46563536Y-38509525D01*
X46494719Y-38508614D01*
X46432661Y-38507519D01*
X46376996Y-38506226D01*
X46327354Y-38504722D01*
X46283369Y-38502991D01*
X46244671Y-38501020D01*
X46210894Y-38498792D01*
X46181668Y-38496295D01*
X46156627Y-38493513D01*
X46135402Y-38490432D01*
X46117625Y-38487038D01*
X46102929Y-38483316D01*
X46090944Y-38479252D01*
X46081304Y-38474830D01*
X46073640Y-38470037D01*
X46067585Y-38464859D01*
X46051804Y-38443531D01*
X46039641Y-38413542D01*
X46030760Y-38372786D01*
X46024829Y-38319158D01*
X46021516Y-38250551D01*
X46020485Y-38164861D01*
X46020485Y-37912003D01*
X45746125Y-37912003D01*
X45471755Y-37912003D01*
X45492455Y-38324505D01*
X45497039Y-38405802D01*
X45502392Y-38480795D01*
X45508624Y-38549802D01*
X45515848Y-38613144D01*
X45524173Y-38671140D01*
X45533711Y-38724110D01*
X45544574Y-38772374D01*
X45556873Y-38816251D01*
X45570718Y-38856061D01*
X45586221Y-38892124D01*
X45603493Y-38924760D01*
X45622646Y-38954288D01*
X45643790Y-38981028D01*
X45667037Y-39005299D01*
X45692497Y-39027422D01*
X45720283Y-39047716D01*
X45750505Y-39066502D01*
X45760864Y-39072344D01*
X45771223Y-39077799D01*
X45781914Y-39082878D01*
X45793269Y-39087596D01*
X45805622Y-39091965D01*
X45819304Y-39096000D01*
X45834648Y-39099713D01*
X45851986Y-39103117D01*
X45871651Y-39106227D01*
X45893975Y-39109054D01*
X45919291Y-39111614D01*
X45947931Y-39113918D01*
X45980227Y-39115981D01*
X46016512Y-39117816D01*
X46057118Y-39119435D01*
X46102378Y-39120853D01*
X46152624Y-39122083D01*
X46208188Y-39123137D01*
X46269404Y-39124030D01*
X46336603Y-39124775D01*
X46410117Y-39125384D01*
X46490280Y-39125872D01*
X46577424Y-39126252D01*
X46671880Y-39126536D01*
X46773983Y-39126739D01*
X46884063Y-39126874D01*
X47002453Y-39126954D01*
X47129487Y-39126992D01*
X47265495Y-39127002D01*
X47389936Y-39127018D01*
X47507578Y-39127045D01*
X47618626Y-39127050D01*
X47723288Y-39127000D01*
X47821771Y-39126862D01*
X47914282Y-39126602D01*
X48001028Y-39126188D01*
X48082217Y-39125587D01*
X48158054Y-39124765D01*
X48228748Y-39123689D01*
X48294505Y-39122327D01*
X48355533Y-39120646D01*
X48412038Y-39118612D01*
X48464228Y-39116192D01*
X48512309Y-39113353D01*
X48556489Y-39110063D01*
X48596975Y-39106288D01*
X48633973Y-39101995D01*
X48667691Y-39097151D01*
X48698336Y-39091723D01*
X48726115Y-39085678D01*
X48751236Y-39078983D01*
X48773904Y-39071606D01*
X48794327Y-39063512D01*
X48812712Y-39054668D01*
X48829267Y-39045043D01*
X48844198Y-39034602D01*
X48857713Y-39023313D01*
X48870017Y-39011143D01*
X48881320Y-38998059D01*
X48891827Y-38984027D01*
X48901745Y-38969014D01*
X48911282Y-38952988D01*
X48920645Y-38935915D01*
X48930041Y-38917763D01*
X48939676Y-38898498D01*
X48949759Y-38878088D01*
X48960495Y-38856499D01*
X48969835Y-38837782D01*
X48978372Y-38820158D01*
X48986145Y-38803061D01*
X48993198Y-38785925D01*
X48999572Y-38768183D01*
X49005309Y-38749270D01*
X49010451Y-38728618D01*
X49015040Y-38705662D01*
X49019117Y-38679836D01*
X49022724Y-38650572D01*
X49025903Y-38617306D01*
X49028696Y-38579471D01*
X49031145Y-38536501D01*
X49033291Y-38487829D01*
X49035176Y-38432889D01*
X49036843Y-38371115D01*
X49038333Y-38301941D01*
X49039687Y-38224801D01*
X49040948Y-38139128D01*
X49042158Y-38044356D01*
X49043358Y-37939919D01*
X49044589Y-37825251D01*
X49045895Y-37699786D01*
X49046815Y-37602124D01*
X49047509Y-37508245D01*
X49047975Y-37418074D01*
X49048205Y-37331537D01*
X49048196Y-37248558D01*
X49047943Y-37169063D01*
X49047441Y-37092977D01*
X49046685Y-37020225D01*
X49045669Y-36950732D01*
X49044390Y-36884425D01*
X49042841Y-36821227D01*
X49041019Y-36761065D01*
X49038919Y-36703863D01*
X49036535Y-36649546D01*
X49033862Y-36598041D01*
X49030896Y-36549271D01*
X49027632Y-36503163D01*
X49024065Y-36459642D01*
X49020190Y-36418632D01*
X49016002Y-36380060D01*
X49011496Y-36343850D01*
X49006667Y-36309927D01*
X49001511Y-36278217D01*
X48996022Y-36248645D01*
X48990196Y-36221136D01*
X48984028Y-36195616D01*
X48977512Y-36172010D01*
X48970645Y-36150242D01*
X48963420Y-36130238D01*
X48955833Y-36111924D01*
X48947880Y-36095225D01*
X48939555Y-36080065D01*
X48916636Y-36048866D01*
X48884684Y-36015895D01*
X48846652Y-35983653D01*
X48805491Y-35954642D01*
X48764155Y-35931364D01*
X48752188Y-35925702D01*
X48740225Y-35920412D01*
X48727951Y-35915480D01*
X48715052Y-35910894D01*
X48701214Y-35906641D01*
X48686122Y-35902710D01*
X48669462Y-35899086D01*
X48650920Y-35895759D01*
X48630181Y-35892714D01*
X48606931Y-35889941D01*
X48580856Y-35887425D01*
X48551641Y-35885156D01*
X48518972Y-35883119D01*
X48482535Y-35881303D01*
X48442015Y-35879695D01*
X48397098Y-35878282D01*
X48347470Y-35877052D01*
X48292816Y-35875993D01*
X48232823Y-35875092D01*
X48167175Y-35874336D01*
X48095558Y-35873713D01*
X48017659Y-35873210D01*
X47933162Y-35872814D01*
X47841753Y-35872514D01*
X47743119Y-35872297D01*
X47636944Y-35872150D01*
X47522915Y-35872060D01*
X47400717Y-35872016D01*
X47270035Y-35872004D01*
X47140313Y-35872013D01*
X47018308Y-35872060D01*
X46903758Y-35872167D01*
X46796402Y-35872360D01*
X46695982Y-35872662D01*
X46602234Y-35873100D01*
X46514900Y-35873696D01*
X46433719Y-35874477D01*
X46358429Y-35875466D01*
X46288772Y-35876687D01*
X46224485Y-35878167D01*
X46165308Y-35879928D01*
X46110981Y-35881997D01*
X46061244Y-35884396D01*
X46015835Y-35887152D01*
X45974495Y-35890288D01*
X45936962Y-35893829D01*
X45902976Y-35897800D01*
X45872277Y-35902224D01*
X45844603Y-35907128D01*
X45819695Y-35912535D01*
X45797292Y-35918470D01*
X45777133Y-35924958D01*
X45758958Y-35932023D01*
X45742506Y-35939690D01*
X45727516Y-35947982D01*
X45713729Y-35956926D01*
X45700883Y-35966546D01*
X45688717Y-35976865D01*
X45676973Y-35987909D01*
X45665388Y-35999702D01*
X45653702Y-36012269D01*
X45641655Y-36025635D01*
X45620959Y-36050567D01*
X45602360Y-36076974D01*
X45585749Y-36105378D01*
X45571014Y-36136301D01*
X45558045Y-36170264D01*
X45546731Y-36207789D01*
X45536961Y-36249398D01*
X45528625Y-36295611D01*
X45521611Y-36346952D01*
X45515809Y-36403940D01*
X45511108Y-36467099D01*
X45507398Y-36536950D01*
X45504567Y-36614014D01*
X45502505Y-36698813D01*
X45495505Y-37087004D01*
X45593005Y-37096404D01*
X45690505Y-37105804D01*
X45690565Y-36736403D01*
X45691213Y-36652976D01*
X45693223Y-36577381D01*
X45696724Y-36509177D01*
X45701844Y-36447921D01*
X45708713Y-36393173D01*
X45717459Y-36344489D01*
X45728213Y-36301429D01*
X45741102Y-36263551D01*
X45756255Y-36230413D01*
X45773803Y-36201573D01*
X45793874Y-36176589D01*
X45816597Y-36155020D01*
X45842101Y-36136424D01*
X45870515Y-36120360D01*
X45878006Y-36117301D01*
X45887987Y-36114395D01*
X45900571Y-36111638D01*
X45915869Y-36109027D01*
X45933993Y-36106559D01*
X45955055Y-36104231D01*
X45979168Y-36102041D01*
X46006443Y-36099985D01*
X46036993Y-36098060D01*
X46070929Y-36096264D01*
X46108363Y-36094592D01*
X46149408Y-36093043D01*
X46194175Y-36091613D01*
X46242777Y-36090299D01*
X46295326Y-36089099D01*
X46351933Y-36088009D01*
X46412710Y-36087026D01*
X46477771Y-36086148D01*
X46547225Y-36085370D01*
X46621187Y-36084691D01*
X46699767Y-36084108D01*
X46783078Y-36083616D01*
X46871232Y-36083214D01*
X46964341Y-36082899D01*
X47062516Y-36082666D01*
X47165870Y-36082514D01*
X47274515Y-36082440D01*
X47407726Y-36082402D01*
X47532641Y-36082402D01*
X47649539Y-36082473D01*
X47758700Y-36082650D01*
X47860403Y-36082965D01*
X47954926Y-36083451D01*
X48042550Y-36084142D01*
X48123553Y-36085071D01*
X48198215Y-36086272D01*
X48266814Y-36087778D01*
X48329630Y-36089622D01*
X48386942Y-36091838D01*
X48439029Y-36094458D01*
X48486171Y-36097517D01*
X48528646Y-36101048D01*
X48566734Y-36105084D01*
X48600713Y-36109658D01*
X48630864Y-36114804D01*
X48657465Y-36120556D01*
X48680795Y-36126945D01*
X48701133Y-36134007D01*
X48718760Y-36141773D01*
X48733953Y-36150278D01*
X48746992Y-36159555D01*
X48758157Y-36169638D01*
X48767726Y-36180558D01*
X48775978Y-36192351D01*
X48783193Y-36205049D01*
X48789651Y-36218686D01*
X48795629Y-36233295D01*
X48801407Y-36248909D01*
X48807265Y-36265562D01*
X48809959Y-36275292D01*
X48812540Y-36288657D01*
X48815008Y-36305652D01*
X48817363Y-36326271D01*
X48819605Y-36350511D01*
X48821734Y-36378364D01*
X48823749Y-36409828D01*
X48825650Y-36444895D01*
X48827438Y-36483562D01*
X48829111Y-36525823D01*
X48830670Y-36571673D01*
X48832115Y-36621107D01*
X48833445Y-36674120D01*
X48834661Y-36730706D01*
X48835761Y-36790861D01*
X48836746Y-36854580D01*
X48837617Y-36921856D01*
X48838371Y-36992687D01*
X48839010Y-37067065D01*
X48839534Y-37144986D01*
X48839941Y-37226445D01*
X48840232Y-37311437D01*
X48840407Y-37399957D01*
X48840465Y-37492000D01*
X48840407Y-37584041D01*
X48840234Y-37672561D01*
X48839945Y-37757552D01*
X48839540Y-37839011D01*
X48839021Y-37916932D01*
X48838385Y-37991310D01*
X48837635Y-38062139D01*
X48836769Y-38129416D01*
X48835787Y-38193134D01*
X48834691Y-38253289D01*
X48833479Y-38309875D01*
X48832153Y-38362887D01*
X48830711Y-38412321D01*
X48829154Y-38458171D01*
X48827482Y-38500432D01*
X48825695Y-38539098D01*
X48823793Y-38574166D01*
X48821776Y-38605629D01*
X48819644Y-38633483D01*
X48817398Y-38657723D01*
X48815037Y-38678343D01*
X48812561Y-38695338D01*
X48809970Y-38708703D01*
X48807265Y-38718434D01*
X48801408Y-38735089D01*
X48795633Y-38750706D01*
X48789659Y-38765317D01*
X48783205Y-38778955D01*
X48775989Y-38791655D01*
X48767730Y-38803449D01*
X48758146Y-38814371D01*
X48746957Y-38824455D01*
X48733882Y-38833734D01*
X48718638Y-38842242D01*
X48700945Y-38850012D01*
X48680521Y-38857077D01*
X48657086Y-38863471D01*
X48630358Y-38869228D01*
X48600056Y-38874380D01*
X48565898Y-38878963D01*
X48527603Y-38883007D01*
X48484890Y-38886549D01*
X48437478Y-38889620D01*
X48385085Y-38892255D01*
X48327431Y-38894486D01*
X48264233Y-38896348D01*
X48195211Y-38897874D01*
X48120084Y-38899096D01*
X48038570Y-38900050D01*
X47950388Y-38900768D01*
X47855256Y-38901283D01*
X47752894Y-38901630D01*
X47643020Y-38901841D01*
X47525353Y-38901951D01*
X47399612Y-38901992D01*
X47265515Y-38901999D01*
X47133026Y-38901999D01*
X47008641Y-38901976D01*
X46892096Y-38901894D01*
X46783123Y-38901721D01*
X46681457Y-38901419D01*
X46586832Y-38900954D01*
X46498982Y-38900292D01*
X46417642Y-38899398D01*
X46342546Y-38898236D01*
X46273427Y-38896772D01*
X46210020Y-38894971D01*
X46152059Y-38892798D01*
X46099278Y-38890218D01*
X46051412Y-38887197D01*
X46008194Y-38883698D01*
X45969359Y-38879688D01*
X45934640Y-38875132D01*
X45903772Y-38869994D01*
X45876490Y-38864241D01*
X45852526Y-38857836D01*
X45831616Y-38850745D01*
X45813494Y-38842933D01*
X45797893Y-38834365D01*
X45784547Y-38825007D01*
X45773192Y-38814824D01*
X45763561Y-38803780D01*
X45755388Y-38791840D01*
X45748407Y-38778970D01*
X45742353Y-38765136D01*
X45736960Y-38750301D01*
X45731961Y-38734432D01*
X45727092Y-38717492D01*
X45722085Y-38699449D01*
X45709866Y-38648685D01*
X45699701Y-38593593D01*
X45692628Y-38540817D01*
X45689685Y-38496999D01*
X45685773Y-38457460D01*
X45675935Y-38416332D01*
X45661673Y-38378478D01*
X45644485Y-38348764D01*
X45622513Y-38311811D01*
X45608582Y-38270782D01*
X45602628Y-38227217D01*
X45604586Y-38182657D01*
X45614392Y-38138644D01*
X45631979Y-38096720D01*
X45657285Y-38058426D01*
X45689637Y-38023292D01*
X45718891Y-38006193D01*
X45752355Y-38005005D01*
X45797335Y-38017606D01*
X45836538Y-38036458D01*
X45868373Y-38062149D01*
X45892538Y-38093720D01*
X45908735Y-38130213D01*
X45916663Y-38170670D01*
X45916023Y-38214134D01*
X45906513Y-38259646D01*
X45887835Y-38306248D01*
X45864832Y-38359953D01*
X45849987Y-38412075D01*
X45843292Y-38462249D01*
X45844738Y-38510112D01*
X45854316Y-38555297D01*
X45872018Y-38597441D01*
X45897835Y-38636179D01*
X45955135Y-38706999D01*
X47242605Y-38715399D01*
X47378578Y-38716280D01*
X47504660Y-38717070D01*
X47621249Y-38717755D01*
X47728746Y-38718317D01*
X47827549Y-38718740D01*
X47918058Y-38719009D01*
X48000673Y-38719108D01*
X48075793Y-38719021D01*
X48143817Y-38718731D01*
X48205145Y-38718223D01*
X48260177Y-38717481D01*
X48309311Y-38716489D01*
X48352947Y-38715230D01*
X48391485Y-38713689D01*
X48425325Y-38711851D01*
X48454864Y-38709698D01*
X48480504Y-38707215D01*
X48502643Y-38704386D01*
X48521681Y-38701195D01*
X48538017Y-38697626D01*
X48552051Y-38693663D01*
X48564182Y-38689290D01*
X48574809Y-38684492D01*
X48584333Y-38679251D01*
X48593152Y-38673553D01*
X48601666Y-38667381D01*
X48610275Y-38660719D01*
X48690475Y-38597628D01*
X48690475Y-37508129D01*
X48690452Y-37379413D01*
X48690369Y-37261140D01*
X48690201Y-37152835D01*
X48689926Y-37054023D01*
X48689519Y-36964227D01*
X48688958Y-36882972D01*
X48688219Y-36809784D01*
X48687278Y-36744186D01*
X48686113Y-36685703D01*
X48684700Y-36633860D01*
X48683014Y-36588181D01*
X48681034Y-36548192D01*
X48678735Y-36513415D01*
X48676094Y-36483377D01*
X48673088Y-36457602D01*
X48669693Y-36435614D01*
X48665886Y-36416938D01*
X48661643Y-36401098D01*
X48656941Y-36387620D01*
X48651757Y-36376027D01*
X48646067Y-36365844D01*
X48639847Y-36356597D01*
X48633075Y-36347808D01*
X48575675Y-36276988D01*
X47265375Y-36276988D01*
X45955075Y-36276988D01*
X45897775Y-36347808D01*
X45883948Y-36366772D01*
X45872501Y-36387518D01*
X45863216Y-36411986D01*
X45855876Y-36442114D01*
X45850263Y-36479840D01*
X45846158Y-36527104D01*
X45843345Y-36585844D01*
X45841605Y-36657999D01*
X45840721Y-36745507D01*
X45840475Y-36850306D01*
X45840475Y-37281984D01*
X45592975Y-37282027D01*
X45345475Y-37282084D01*
X45360675Y-36719533D01*
X45363621Y-36614365D01*
X45366479Y-36522494D01*
X45369404Y-36442689D01*
X45372553Y-36373716D01*
X45376081Y-36314342D01*
X45380144Y-36263336D01*
X45384900Y-36219463D01*
X45390504Y-36181491D01*
X45397111Y-36148187D01*
X45404879Y-36118319D01*
X45413963Y-36090654D01*
X45424520Y-36063958D01*
X45436705Y-36036999D01*
X45450675Y-36008545D01*
X45476819Y-35960004D01*
X45503847Y-35916699D01*
X45532141Y-35878313D01*
X45562084Y-35844530D01*
X45594058Y-35815031D01*
X45628445Y-35789500D01*
X45665629Y-35767619D01*
X45705992Y-35749072D01*
X45749917Y-35733540D01*
X45797785Y-35720708D01*
X45809206Y-35718621D01*
X45825030Y-35716617D01*
X45845096Y-35714695D01*
X45869242Y-35712855D01*
X45897309Y-35711096D01*
X45929135Y-35709418D01*
X45964558Y-35707821D01*
X46003418Y-35706305D01*
X46045555Y-35704869D01*
X46090806Y-35703513D01*
X46139011Y-35702237D01*
X46190009Y-35701040D01*
X46243639Y-35699923D01*
X46299739Y-35698885D01*
X46358150Y-35697926D01*
X46418709Y-35697046D01*
X46481256Y-35696243D01*
X46545630Y-35695519D01*
X46611670Y-35694873D01*
X46679214Y-35694304D01*
X46748103Y-35693812D01*
X46818174Y-35693398D01*
X46889267Y-35693060D01*
X46961221Y-35692799D01*
X47033874Y-35692613D01*
X47107066Y-35692504D01*
X47180636Y-35692471D01*
X47254423Y-35692513D01*
G37*
%TD.AperFunction*%
%TD*%
M02*
