%TF.GenerationSoftware,KiCad,Pcbnew,10.0.1*%
%TF.CreationDate,2026-06-08T19:00:18-04:00*%
%TF.ProjectId,ITPcamp-card-example,49545063-616d-4702-9d63-6172642d6578,rev?*%
%TF.SameCoordinates,Original*%
%TF.FileFunction,Soldermask,Top*%
%TF.FilePolarity,Negative*%
%FSLAX46Y46*%
G04 Gerber Fmt 4.6, Leading zero omitted, Abs format (unit mm)*
G04 Created by KiCad (PCBNEW 10.0.1) date 2026-06-08 19:00:18*
%MOMM*%
%LPD*%
G01*
G04 APERTURE LIST*
%ADD10C,0.000000*%
G04 APERTURE END LIST*
D10*
%TO.C,itp-camp*%
G36*
X91752526Y-30347964D02*
G01*
X91802078Y-30351476D01*
X91850321Y-30357896D01*
X91895717Y-30366866D01*
X91936729Y-30378026D01*
X91971817Y-30391019D01*
X91999442Y-30405485D01*
X92018067Y-30421067D01*
X92026153Y-30437406D01*
X92022162Y-30454143D01*
X92004555Y-30470921D01*
X91979603Y-30480269D01*
X91938187Y-30487852D01*
X91884768Y-30493558D01*
X91823809Y-30497275D01*
X91759771Y-30498889D01*
X91697115Y-30498289D01*
X91640303Y-30495363D01*
X91593795Y-30489997D01*
X91562055Y-30482081D01*
X91562005Y-30482083D01*
X91533319Y-30458663D01*
X91525942Y-30426280D01*
X91539097Y-30393817D01*
X91572005Y-30370159D01*
X91611406Y-30358457D01*
X91655652Y-30351096D01*
X91703204Y-30347717D01*
X91752526Y-30347964D01*
G37*
G36*
X91823616Y-29914193D02*
G01*
X91882202Y-29917577D01*
X91937910Y-29923323D01*
X91989310Y-29931435D01*
X92034968Y-29941916D01*
X92073454Y-29954769D01*
X92103335Y-29969997D01*
X92144254Y-30001022D01*
X92173416Y-30031208D01*
X92184535Y-30054027D01*
X92179109Y-30071194D01*
X92163517Y-30087472D01*
X92138792Y-30102712D01*
X92105964Y-30116767D01*
X92066066Y-30129490D01*
X92020130Y-30140734D01*
X91969186Y-30150351D01*
X91914267Y-30158193D01*
X91856403Y-30164115D01*
X91796627Y-30167967D01*
X91735970Y-30169604D01*
X91675464Y-30168878D01*
X91616140Y-30165641D01*
X91559030Y-30159746D01*
X91505165Y-30151047D01*
X91505105Y-30151190D01*
X91465734Y-30137189D01*
X91424400Y-30112549D01*
X91390075Y-30082621D01*
X91363831Y-30050230D01*
X91358850Y-30026805D01*
X91377756Y-30003582D01*
X91423175Y-29971797D01*
X91453231Y-29956393D01*
X91491865Y-29943328D01*
X91537645Y-29932602D01*
X91589138Y-29924221D01*
X91644914Y-29918186D01*
X91703540Y-29914501D01*
X91763585Y-29913169D01*
X91823616Y-29914193D01*
G37*
G36*
X91944288Y-30747790D02*
G01*
X92002387Y-30749427D01*
X92051495Y-30751898D01*
X92089986Y-30755148D01*
X92116234Y-30759121D01*
X92128615Y-30763761D01*
X92129776Y-30767018D01*
X92130877Y-30774345D01*
X92131919Y-30785643D01*
X92132899Y-30800810D01*
X92133819Y-30819748D01*
X92134678Y-30842355D01*
X92135475Y-30868533D01*
X92136211Y-30898181D01*
X92136885Y-30931199D01*
X92137496Y-30967487D01*
X92138045Y-31006945D01*
X92138530Y-31049473D01*
X92138953Y-31094972D01*
X92139311Y-31143341D01*
X92139606Y-31194480D01*
X92139836Y-31248289D01*
X92140002Y-31304669D01*
X92140103Y-31363519D01*
X92140139Y-31424739D01*
X92140109Y-31488230D01*
X92140014Y-31553891D01*
X92139852Y-31621623D01*
X92139624Y-31691325D01*
X92139329Y-31762897D01*
X92138967Y-31836240D01*
X92138537Y-31911253D01*
X92138040Y-31987837D01*
X92137474Y-32065891D01*
X92136840Y-32145316D01*
X92136138Y-32226011D01*
X92135366Y-32307877D01*
X92134526Y-32390813D01*
X92133615Y-32474721D01*
X92114915Y-34161909D01*
X91729515Y-34161909D01*
X91344125Y-34161909D01*
X91351765Y-32459450D01*
X91359765Y-30756951D01*
X91732295Y-30748451D01*
X91807617Y-30747246D01*
X91878823Y-30747044D01*
X91944288Y-30747790D01*
G37*
G36*
X91818310Y-29412056D02*
G01*
X91884829Y-29415157D01*
X91946701Y-29420629D01*
X92003680Y-29428411D01*
X92055517Y-29438440D01*
X92101962Y-29450652D01*
X92142768Y-29464985D01*
X92177685Y-29481376D01*
X92206467Y-29499762D01*
X92228863Y-29520081D01*
X92244625Y-29542269D01*
X92254140Y-29567334D01*
X92255602Y-29591399D01*
X92249340Y-29614323D01*
X92235682Y-29635963D01*
X92214956Y-29656177D01*
X92187489Y-29674823D01*
X92153610Y-29691759D01*
X92113646Y-29706842D01*
X92067926Y-29719931D01*
X92016777Y-29730881D01*
X91960528Y-29739553D01*
X91899506Y-29745803D01*
X91834039Y-29749488D01*
X91764455Y-29750467D01*
X91708600Y-29748648D01*
X91650303Y-29744173D01*
X91592589Y-29737449D01*
X91538484Y-29728886D01*
X91491014Y-29718893D01*
X91453205Y-29707877D01*
X91453205Y-29707876D01*
X91385333Y-29681439D01*
X91336160Y-29656625D01*
X91304509Y-29632185D01*
X91289200Y-29606871D01*
X91289055Y-29579435D01*
X91302895Y-29548626D01*
X91322605Y-29522255D01*
X91347253Y-29498867D01*
X91377050Y-29478398D01*
X91412205Y-29460783D01*
X91452927Y-29445957D01*
X91499428Y-29433855D01*
X91551915Y-29424413D01*
X91610599Y-29417564D01*
X91675689Y-29413245D01*
X91747395Y-29411391D01*
X91818310Y-29412056D01*
G37*
G36*
X94345865Y-30839450D02*
G01*
X94340865Y-31191952D01*
X94700685Y-31191952D01*
X94773233Y-31192411D01*
X94841432Y-31193728D01*
X94903753Y-31195809D01*
X94958665Y-31198563D01*
X95004639Y-31201896D01*
X95040145Y-31205717D01*
X95063654Y-31209933D01*
X95073635Y-31214451D01*
X95076148Y-31227844D01*
X95077699Y-31256058D01*
X95078306Y-31297051D01*
X95077985Y-31348781D01*
X95076755Y-31409206D01*
X95074632Y-31476282D01*
X95071635Y-31547969D01*
X95056035Y-31858983D01*
X94707715Y-31847963D01*
X94359395Y-31836943D01*
X94351395Y-32461455D01*
X94350593Y-32535688D01*
X94350181Y-32607489D01*
X94350147Y-32676605D01*
X94350481Y-32742787D01*
X94351173Y-32805784D01*
X94352211Y-32865344D01*
X94353585Y-32921216D01*
X94355285Y-32973150D01*
X94357299Y-33020894D01*
X94359617Y-33064198D01*
X94362229Y-33102810D01*
X94365123Y-33136480D01*
X94368289Y-33164956D01*
X94371717Y-33187987D01*
X94375395Y-33205322D01*
X94389266Y-33245754D01*
X94407969Y-33282746D01*
X94431159Y-33316181D01*
X94458493Y-33345941D01*
X94489626Y-33371907D01*
X94524213Y-33393962D01*
X94561910Y-33411987D01*
X94602373Y-33425864D01*
X94645257Y-33435476D01*
X94690217Y-33440703D01*
X94736910Y-33441428D01*
X94784991Y-33437533D01*
X94834115Y-33428899D01*
X94883937Y-33415409D01*
X94934115Y-33396944D01*
X94989396Y-33374269D01*
X95030847Y-33358107D01*
X95049475Y-33351944D01*
X95057793Y-33361167D01*
X95070458Y-33386909D01*
X95086555Y-33426285D01*
X95105165Y-33476405D01*
X95125373Y-33534384D01*
X95146262Y-33597333D01*
X95166914Y-33662365D01*
X95186414Y-33726593D01*
X95203844Y-33787130D01*
X95218288Y-33841088D01*
X95228829Y-33885580D01*
X95234550Y-33917719D01*
X95234535Y-33934616D01*
X95219098Y-33951626D01*
X95186039Y-33972468D01*
X95139037Y-33995368D01*
X95081770Y-34018552D01*
X95017915Y-34040246D01*
X94971586Y-34053417D01*
X94923314Y-34064965D01*
X94873377Y-34074890D01*
X94822052Y-34083189D01*
X94769616Y-34089863D01*
X94716348Y-34094909D01*
X94662524Y-34098328D01*
X94608423Y-34100118D01*
X94554322Y-34100278D01*
X94500498Y-34098806D01*
X94447229Y-34095702D01*
X94394793Y-34090966D01*
X94343466Y-34084595D01*
X94293528Y-34076588D01*
X94245255Y-34066945D01*
X94198925Y-34055665D01*
X94154815Y-34042746D01*
X94154835Y-34042912D01*
X94098127Y-34023631D01*
X94045229Y-34003201D01*
X93995997Y-33981510D01*
X93950286Y-33958446D01*
X93907951Y-33933897D01*
X93868849Y-33907751D01*
X93832833Y-33879896D01*
X93799759Y-33850221D01*
X93769484Y-33818614D01*
X93741861Y-33784963D01*
X93716747Y-33749156D01*
X93693996Y-33711081D01*
X93673465Y-33670626D01*
X93656366Y-33633282D01*
X93640418Y-33596797D01*
X93625582Y-33560906D01*
X93611821Y-33525342D01*
X93599097Y-33489838D01*
X93587374Y-33454129D01*
X93576613Y-33417948D01*
X93566776Y-33381029D01*
X93557827Y-33343105D01*
X93549727Y-33303910D01*
X93542439Y-33263177D01*
X93535926Y-33220640D01*
X93530150Y-33176033D01*
X93525073Y-33129090D01*
X93520658Y-33079543D01*
X93516867Y-33027127D01*
X93513663Y-32971575D01*
X93511008Y-32912621D01*
X93508864Y-32849999D01*
X93507195Y-32783442D01*
X93505962Y-32712683D01*
X93505127Y-32637457D01*
X93504654Y-32557496D01*
X93504505Y-32472535D01*
X93504505Y-31821951D01*
X93279505Y-31821951D01*
X93054505Y-31821951D01*
X93054505Y-31506951D01*
X93054505Y-31191952D01*
X93278555Y-31191952D01*
X93502605Y-31191952D01*
X93510605Y-30839450D01*
X93518605Y-30486951D01*
X93934735Y-30486951D01*
X94350865Y-30486951D01*
X94345865Y-30839450D01*
G37*
G36*
X98015241Y-31114256D02*
G01*
X98061220Y-31116938D01*
X98107181Y-31121020D01*
X98153076Y-31126492D01*
X98198857Y-31133342D01*
X98244477Y-31141560D01*
X98289887Y-31151136D01*
X98335042Y-31162057D01*
X98379892Y-31174314D01*
X98424390Y-31187895D01*
X98468488Y-31202791D01*
X98512139Y-31218989D01*
X98555296Y-31236480D01*
X98597909Y-31255252D01*
X98639933Y-31275295D01*
X98681319Y-31296598D01*
X98722019Y-31319151D01*
X98761986Y-31342941D01*
X98801172Y-31367959D01*
X98839530Y-31394194D01*
X98877011Y-31421635D01*
X98913569Y-31450272D01*
X98949155Y-31480092D01*
X98983723Y-31511087D01*
X99017223Y-31543244D01*
X99049609Y-31576553D01*
X99080833Y-31611004D01*
X99110847Y-31646585D01*
X99139604Y-31683286D01*
X99167056Y-31721096D01*
X99193155Y-31760004D01*
X99217854Y-31799999D01*
X99241105Y-31841071D01*
X99261027Y-31879980D01*
X99279782Y-31920831D01*
X99297357Y-31963489D01*
X99313739Y-32007817D01*
X99328916Y-32053680D01*
X99342874Y-32100942D01*
X99355601Y-32149468D01*
X99367084Y-32199122D01*
X99377309Y-32249768D01*
X99386265Y-32301271D01*
X99393937Y-32353494D01*
X99400313Y-32406303D01*
X99405381Y-32459561D01*
X99409126Y-32513133D01*
X99411537Y-32566883D01*
X99412600Y-32620675D01*
X99412303Y-32674374D01*
X99410632Y-32727844D01*
X99407575Y-32780950D01*
X99403118Y-32833555D01*
X99397250Y-32885524D01*
X99389956Y-32936721D01*
X99381224Y-32987011D01*
X99371042Y-33036258D01*
X99359395Y-33084325D01*
X99345765Y-33132985D01*
X99330512Y-33180807D01*
X99313666Y-33227764D01*
X99295257Y-33273830D01*
X99275313Y-33318980D01*
X99253866Y-33363186D01*
X99230943Y-33406422D01*
X99206576Y-33448662D01*
X99180792Y-33489880D01*
X99153623Y-33530049D01*
X99125097Y-33569143D01*
X99095244Y-33607136D01*
X99064094Y-33644001D01*
X99031676Y-33679712D01*
X98998019Y-33714243D01*
X98963154Y-33747567D01*
X98927110Y-33779658D01*
X98889916Y-33810491D01*
X98851602Y-33840037D01*
X98812198Y-33868272D01*
X98771733Y-33895168D01*
X98730236Y-33920700D01*
X98687738Y-33944841D01*
X98644268Y-33967565D01*
X98599855Y-33988846D01*
X98554529Y-34008656D01*
X98508320Y-34026971D01*
X98461256Y-34043763D01*
X98413368Y-34059006D01*
X98364686Y-34072674D01*
X98315238Y-34084741D01*
X98265055Y-34095180D01*
X98214165Y-34103965D01*
X98160467Y-34111347D01*
X98106735Y-34116862D01*
X98053081Y-34120534D01*
X97999614Y-34122389D01*
X97946443Y-34122451D01*
X97893679Y-34120745D01*
X97841431Y-34117296D01*
X97789810Y-34112129D01*
X97738924Y-34105268D01*
X97731050Y-34103926D01*
X97688883Y-34096739D01*
X97639799Y-34086566D01*
X97591779Y-34074774D01*
X97544935Y-34061387D01*
X97499376Y-34046432D01*
X97455211Y-34029931D01*
X97412551Y-34011912D01*
X97371505Y-33992397D01*
X97332184Y-33971412D01*
X97294696Y-33948982D01*
X97259152Y-33925131D01*
X97225662Y-33899885D01*
X97194335Y-33873267D01*
X97149284Y-33833904D01*
X97109550Y-33801669D01*
X97079439Y-33779889D01*
X97063255Y-33771890D01*
X97061058Y-33776555D01*
X97058933Y-33790197D01*
X97056896Y-33812287D01*
X97054960Y-33842299D01*
X97053140Y-33879703D01*
X97051450Y-33923972D01*
X97049905Y-33974578D01*
X97048519Y-34030992D01*
X97047307Y-34092687D01*
X97046283Y-34159135D01*
X97045461Y-34229807D01*
X97044856Y-34304175D01*
X97044483Y-34381712D01*
X97044355Y-34461888D01*
X97044355Y-35151934D01*
X96826855Y-35146035D01*
X96779182Y-35144653D01*
X96727015Y-35142952D01*
X96672044Y-35141001D01*
X96615962Y-35138866D01*
X96560461Y-35136615D01*
X96507231Y-35134316D01*
X96457965Y-35132037D01*
X96414355Y-35129845D01*
X96414505Y-35129881D01*
X96219505Y-35119570D01*
X96229505Y-33148265D01*
X96229918Y-33063076D01*
X96230368Y-32978749D01*
X96230852Y-32895362D01*
X96231369Y-32812991D01*
X96231836Y-32743974D01*
X96967413Y-32743974D01*
X96968458Y-32781545D01*
X96974083Y-32818772D01*
X96984185Y-32855971D01*
X96996695Y-32888675D01*
X97012112Y-32919971D01*
X97030343Y-32949838D01*
X97051291Y-32978253D01*
X97074861Y-33005196D01*
X97100959Y-33030645D01*
X97129489Y-33054579D01*
X97160357Y-33076976D01*
X97193467Y-33097815D01*
X97228724Y-33117075D01*
X97266032Y-33134735D01*
X97305298Y-33150772D01*
X97346425Y-33165166D01*
X97389319Y-33177895D01*
X97433884Y-33188938D01*
X97480025Y-33198273D01*
X97527648Y-33205879D01*
X97576657Y-33211736D01*
X97626957Y-33215820D01*
X97678453Y-33218112D01*
X97731050Y-33218589D01*
X97784652Y-33217231D01*
X97839166Y-33214015D01*
X97894494Y-33208921D01*
X97950543Y-33201927D01*
X98007217Y-33193013D01*
X98064422Y-33182155D01*
X98122061Y-33169334D01*
X98180041Y-33154527D01*
X98238265Y-33137714D01*
X98296601Y-33118767D01*
X98353530Y-33098067D01*
X98408962Y-33075710D01*
X98462806Y-33051795D01*
X98514973Y-33026419D01*
X98565371Y-32999679D01*
X98613912Y-32971673D01*
X98660504Y-32942500D01*
X98705058Y-32912256D01*
X98747484Y-32881040D01*
X98787692Y-32848948D01*
X98825590Y-32816079D01*
X98861090Y-32782531D01*
X98894101Y-32748400D01*
X98924533Y-32713785D01*
X98952296Y-32678783D01*
X98977300Y-32643492D01*
X98999454Y-32608010D01*
X99018668Y-32572434D01*
X99034853Y-32536862D01*
X99047918Y-32501392D01*
X99057773Y-32466120D01*
X99064327Y-32431146D01*
X99067492Y-32396566D01*
X99067176Y-32362479D01*
X99063290Y-32328981D01*
X99055743Y-32296171D01*
X99044445Y-32264147D01*
X99026683Y-32225759D01*
X99006479Y-32189882D01*
X98983758Y-32156481D01*
X98958444Y-32125525D01*
X98930461Y-32096978D01*
X98899735Y-32070807D01*
X98866190Y-32046980D01*
X98829750Y-32025463D01*
X98790339Y-32006221D01*
X98747882Y-31989223D01*
X98702303Y-31974433D01*
X98653528Y-31961820D01*
X98601480Y-31951349D01*
X98546083Y-31942987D01*
X98487263Y-31936700D01*
X98424944Y-31932456D01*
X98359050Y-31930220D01*
X98289505Y-31929960D01*
X98232535Y-31931280D01*
X98176186Y-31934076D01*
X98120508Y-31938327D01*
X98065549Y-31944014D01*
X98011358Y-31951118D01*
X97957982Y-31959619D01*
X97905471Y-31969498D01*
X97853873Y-31980735D01*
X97803235Y-31993310D01*
X97753608Y-32007206D01*
X97705038Y-32022401D01*
X97657575Y-32038877D01*
X97611267Y-32056614D01*
X97566163Y-32075592D01*
X97522311Y-32095793D01*
X97479758Y-32117197D01*
X97438555Y-32139784D01*
X97398749Y-32163535D01*
X97360389Y-32188431D01*
X97323522Y-32214452D01*
X97288199Y-32241578D01*
X97254466Y-32269791D01*
X97222373Y-32299070D01*
X97191968Y-32329397D01*
X97163299Y-32360752D01*
X97136415Y-32393116D01*
X97097076Y-32444810D01*
X97063149Y-32493633D01*
X97034530Y-32539901D01*
X97011115Y-32583931D01*
X96992799Y-32626037D01*
X96979479Y-32666536D01*
X96971052Y-32705743D01*
X96967413Y-32743974D01*
X96231836Y-32743974D01*
X96231919Y-32731712D01*
X96232499Y-32651600D01*
X96233109Y-32572732D01*
X96233748Y-32495185D01*
X96234413Y-32419033D01*
X96235103Y-32344354D01*
X96235818Y-32271223D01*
X96236556Y-32199717D01*
X96237316Y-32129911D01*
X96238096Y-32061881D01*
X96238895Y-31995705D01*
X96239712Y-31931457D01*
X96240545Y-31869214D01*
X96241393Y-31809052D01*
X96242255Y-31751047D01*
X96243129Y-31695275D01*
X96244015Y-31641812D01*
X96244910Y-31590735D01*
X96245814Y-31542119D01*
X96246726Y-31496041D01*
X96247643Y-31452576D01*
X96248564Y-31411801D01*
X96249489Y-31373792D01*
X96250416Y-31338625D01*
X96251344Y-31306375D01*
X96252271Y-31277120D01*
X96253196Y-31250935D01*
X96254117Y-31227896D01*
X96255034Y-31208079D01*
X96255946Y-31191561D01*
X96256850Y-31178418D01*
X96257745Y-31168725D01*
X96258631Y-31162559D01*
X96259505Y-31159995D01*
X96271386Y-31156855D01*
X96297671Y-31154418D01*
X96336697Y-31152705D01*
X96386801Y-31151732D01*
X96446320Y-31151516D01*
X96513590Y-31152077D01*
X96586950Y-31153431D01*
X96664735Y-31155595D01*
X97049925Y-31168205D01*
X97039725Y-31315065D01*
X97035960Y-31389036D01*
X97036273Y-31441790D01*
X97040075Y-31461906D01*
X97061198Y-31449478D01*
X97106125Y-31416912D01*
X97165195Y-31371256D01*
X97201533Y-31343670D01*
X97238807Y-31317700D01*
X97276967Y-31293335D01*
X97315967Y-31270564D01*
X97355758Y-31249377D01*
X97396294Y-31229763D01*
X97437526Y-31211710D01*
X97479407Y-31195208D01*
X97521889Y-31180247D01*
X97564925Y-31166816D01*
X97608467Y-31154903D01*
X97652466Y-31144499D01*
X97696877Y-31135591D01*
X97741650Y-31128170D01*
X97786738Y-31122225D01*
X97832094Y-31117744D01*
X97877670Y-31114718D01*
X97923418Y-31113135D01*
X97969291Y-31112985D01*
X98015241Y-31114256D01*
G37*
G36*
X94108377Y-35695484D02*
G01*
X94175632Y-35695559D01*
X94241104Y-35695692D01*
X94304662Y-35695884D01*
X94366175Y-35696132D01*
X94425513Y-35696436D01*
X94482544Y-35696795D01*
X94537138Y-35697208D01*
X94589163Y-35697675D01*
X94638489Y-35698194D01*
X94684984Y-35698764D01*
X94728519Y-35699385D01*
X94768960Y-35700056D01*
X94806179Y-35700775D01*
X94840043Y-35701543D01*
X94870422Y-35702357D01*
X94897185Y-35703217D01*
X94920200Y-35704122D01*
X94939338Y-35705072D01*
X94954467Y-35706064D01*
X94965455Y-35707099D01*
X95019793Y-35715555D01*
X95070598Y-35727447D01*
X95118023Y-35742882D01*
X95162226Y-35761970D01*
X95203361Y-35784820D01*
X95241585Y-35811541D01*
X95277053Y-35842242D01*
X95309920Y-35877030D01*
X95340342Y-35916016D01*
X95368476Y-35959308D01*
X95394475Y-36007015D01*
X95469475Y-36156972D01*
X95478475Y-37739473D01*
X95487475Y-39321971D01*
X95080995Y-39321971D01*
X94674525Y-39321971D01*
X94674525Y-39021973D01*
X94674525Y-38721972D01*
X93778195Y-38721972D01*
X93657143Y-38722040D01*
X93547017Y-38722258D01*
X93447296Y-38722653D01*
X93357456Y-38723250D01*
X93276975Y-38724074D01*
X93205330Y-38725150D01*
X93141998Y-38726504D01*
X93086457Y-38728162D01*
X93038184Y-38730147D01*
X92996655Y-38732487D01*
X92961349Y-38735205D01*
X92931743Y-38738328D01*
X92907314Y-38741880D01*
X92887539Y-38745888D01*
X92871895Y-38750375D01*
X92859860Y-38755368D01*
X92850911Y-38760892D01*
X92844525Y-38766972D01*
X92815095Y-38793293D01*
X92781885Y-38807778D01*
X92746515Y-38811367D01*
X92710605Y-38804999D01*
X92675775Y-38789614D01*
X92643645Y-38766151D01*
X92615835Y-38735548D01*
X92593965Y-38698746D01*
X92579655Y-38656682D01*
X92574525Y-38610297D01*
X92582047Y-38569434D01*
X92602269Y-38527023D01*
X92631674Y-38487068D01*
X92666744Y-38453572D01*
X92703964Y-38430539D01*
X92739815Y-38421971D01*
X92769663Y-38430194D01*
X92804400Y-38451749D01*
X92836515Y-38481971D01*
X92843961Y-38490218D01*
X92851928Y-38497673D01*
X92861095Y-38504376D01*
X92872138Y-38510368D01*
X92885734Y-38515689D01*
X92902559Y-38520377D01*
X92923291Y-38524474D01*
X92948605Y-38528018D01*
X92979180Y-38531050D01*
X93015691Y-38533609D01*
X93058816Y-38535736D01*
X93109232Y-38537469D01*
X93167614Y-38538850D01*
X93234641Y-38539917D01*
X93310988Y-38540711D01*
X93397333Y-38541271D01*
X93494352Y-38541637D01*
X93602723Y-38541849D01*
X93723122Y-38541948D01*
X93856225Y-38541971D01*
X94824555Y-38541971D01*
X94824555Y-38841972D01*
X94824555Y-39141970D01*
X95080635Y-39141970D01*
X95336725Y-39141970D01*
X95327725Y-37679470D01*
X95326939Y-37543845D01*
X95326173Y-37416806D01*
X95325413Y-37298051D01*
X95324646Y-37187278D01*
X95323859Y-37084182D01*
X95323039Y-36988460D01*
X95322172Y-36899810D01*
X95321246Y-36817927D01*
X95320247Y-36742510D01*
X95319162Y-36673254D01*
X95317978Y-36609856D01*
X95316682Y-36552013D01*
X95315260Y-36499423D01*
X95313700Y-36451781D01*
X95311987Y-36408784D01*
X95310110Y-36370130D01*
X95308055Y-36335515D01*
X95305808Y-36304635D01*
X95303357Y-36277188D01*
X95300688Y-36252871D01*
X95297788Y-36231380D01*
X95294644Y-36212412D01*
X95291243Y-36195663D01*
X95287571Y-36180831D01*
X95283616Y-36167613D01*
X95279364Y-36155704D01*
X95274802Y-36144803D01*
X95269917Y-36134605D01*
X95264696Y-36124808D01*
X95259125Y-36115107D01*
X95235878Y-36079765D01*
X95207357Y-36042823D01*
X95175993Y-36007051D01*
X95144216Y-35975221D01*
X95114455Y-35950105D01*
X95106004Y-35943927D01*
X95097573Y-35938161D01*
X95088817Y-35932793D01*
X95079394Y-35927805D01*
X95068959Y-35923181D01*
X95057169Y-35918904D01*
X95043678Y-35914959D01*
X95028144Y-35911328D01*
X95010222Y-35907995D01*
X94989569Y-35904944D01*
X94965840Y-35902159D01*
X94938692Y-35899622D01*
X94907780Y-35897318D01*
X94872761Y-35895229D01*
X94833291Y-35893340D01*
X94789025Y-35891634D01*
X94739621Y-35890094D01*
X94684733Y-35888704D01*
X94624018Y-35887448D01*
X94557132Y-35886310D01*
X94483731Y-35885271D01*
X94403472Y-35884317D01*
X94316009Y-35883431D01*
X94221000Y-35882596D01*
X94118100Y-35881796D01*
X94006966Y-35881015D01*
X93887253Y-35880235D01*
X93758617Y-35879441D01*
X93620715Y-35878615D01*
X93489831Y-35877851D01*
X93367232Y-35877164D01*
X93252618Y-35876564D01*
X93145688Y-35876061D01*
X93046140Y-35875666D01*
X92953674Y-35875388D01*
X92867989Y-35875237D01*
X92788783Y-35875224D01*
X92715758Y-35875358D01*
X92648610Y-35875650D01*
X92587039Y-35876109D01*
X92530746Y-35876745D01*
X92479427Y-35877569D01*
X92432784Y-35878591D01*
X92390514Y-35879819D01*
X92352317Y-35881265D01*
X92317892Y-35882939D01*
X92286938Y-35884850D01*
X92259154Y-35887008D01*
X92234240Y-35889424D01*
X92211894Y-35892108D01*
X92191816Y-35895069D01*
X92173705Y-35898317D01*
X92157259Y-35901863D01*
X92142178Y-35905716D01*
X92128161Y-35909887D01*
X92114907Y-35914385D01*
X92102115Y-35919221D01*
X92089485Y-35924405D01*
X92076715Y-35929945D01*
X92027639Y-35953700D01*
X91987954Y-35978299D01*
X91955276Y-36006151D01*
X91927222Y-36039664D01*
X91901410Y-36081245D01*
X91875455Y-36133302D01*
X91869351Y-36146642D01*
X91863631Y-36159592D01*
X91858280Y-36172450D01*
X91853283Y-36185516D01*
X91848626Y-36199089D01*
X91844295Y-36213467D01*
X91840276Y-36228951D01*
X91836553Y-36245838D01*
X91833113Y-36264428D01*
X91829940Y-36285020D01*
X91827022Y-36307913D01*
X91824343Y-36333405D01*
X91821889Y-36361797D01*
X91819645Y-36393387D01*
X91817597Y-36428474D01*
X91815731Y-36467357D01*
X91814033Y-36510335D01*
X91812487Y-36557707D01*
X91811080Y-36609772D01*
X91809797Y-36666830D01*
X91808623Y-36729179D01*
X91807545Y-36797118D01*
X91806548Y-36870946D01*
X91805617Y-36950963D01*
X91804739Y-37037467D01*
X91803898Y-37130758D01*
X91803080Y-37231134D01*
X91802272Y-37338894D01*
X91801457Y-37454338D01*
X91800623Y-37577764D01*
X91799755Y-37709472D01*
X91790755Y-39141971D01*
X92062595Y-39141971D01*
X92334445Y-39141971D01*
X92334445Y-38631972D01*
X92334445Y-38121973D01*
X93744435Y-38121973D01*
X95154445Y-38121973D01*
X95154445Y-38374540D01*
X95155335Y-38446855D01*
X95158088Y-38509816D01*
X95162828Y-38564265D01*
X95169680Y-38611040D01*
X95178767Y-38650983D01*
X95190214Y-38684932D01*
X95204145Y-38713727D01*
X95225554Y-38761517D01*
X95236220Y-38809877D01*
X95236540Y-38856974D01*
X95226914Y-38900976D01*
X95207740Y-38940050D01*
X95179417Y-38972362D01*
X95142345Y-38996079D01*
X95101003Y-39009472D01*
X95062375Y-39011710D01*
X95027196Y-39003916D01*
X94996202Y-38987213D01*
X94970129Y-38962725D01*
X94949714Y-38931574D01*
X94935693Y-38894884D01*
X94928801Y-38853778D01*
X94929775Y-38809379D01*
X94939351Y-38762810D01*
X94958265Y-38715193D01*
X94972813Y-38677845D01*
X94985465Y-38629641D01*
X94995453Y-38574827D01*
X95002009Y-38517651D01*
X95004365Y-38462361D01*
X95004365Y-38301974D01*
X93744365Y-38301974D01*
X92484365Y-38301974D01*
X92484365Y-38811972D01*
X92484365Y-39321971D01*
X92064375Y-39321971D01*
X91644375Y-39321971D01*
X91644605Y-37949471D01*
X91644735Y-37949444D01*
X91644786Y-37876490D01*
X91644916Y-37803808D01*
X91645122Y-37731512D01*
X91645402Y-37659717D01*
X91645754Y-37588536D01*
X91646176Y-37518085D01*
X91646667Y-37448477D01*
X91647223Y-37379827D01*
X91647843Y-37312249D01*
X91648525Y-37245858D01*
X91649267Y-37180767D01*
X91650067Y-37117091D01*
X91650923Y-37054944D01*
X91651832Y-36994441D01*
X91652793Y-36935695D01*
X91653804Y-36878822D01*
X91654862Y-36823935D01*
X91655966Y-36771149D01*
X91657114Y-36720578D01*
X91658303Y-36672336D01*
X91659531Y-36626538D01*
X91660797Y-36583297D01*
X91662098Y-36542729D01*
X91663432Y-36504947D01*
X91664798Y-36470066D01*
X91666193Y-36438200D01*
X91667615Y-36409463D01*
X91669063Y-36383970D01*
X91670533Y-36361834D01*
X91672024Y-36343171D01*
X91673535Y-36328094D01*
X91682497Y-36260066D01*
X91693251Y-36196975D01*
X91705901Y-36138622D01*
X91720548Y-36084804D01*
X91737296Y-36035320D01*
X91756247Y-35989970D01*
X91777505Y-35948551D01*
X91801171Y-35910864D01*
X91827349Y-35876706D01*
X91856142Y-35845877D01*
X91887652Y-35818176D01*
X91921982Y-35793400D01*
X91959235Y-35771349D01*
X91971127Y-35765073D01*
X91982794Y-35759215D01*
X91994575Y-35753756D01*
X92006806Y-35748682D01*
X92019824Y-35743975D01*
X92033966Y-35739618D01*
X92049569Y-35735594D01*
X92066970Y-35731888D01*
X92086505Y-35728482D01*
X92108513Y-35725359D01*
X92133329Y-35722502D01*
X92161292Y-35719896D01*
X92192737Y-35717523D01*
X92228001Y-35715366D01*
X92267423Y-35713409D01*
X92311338Y-35711634D01*
X92360083Y-35710026D01*
X92413996Y-35708568D01*
X92473414Y-35707242D01*
X92538674Y-35706032D01*
X92610111Y-35704921D01*
X92688065Y-35703893D01*
X92772870Y-35702931D01*
X92864865Y-35702017D01*
X92964387Y-35701136D01*
X93071771Y-35700271D01*
X93187356Y-35699404D01*
X93311479Y-35698519D01*
X93444475Y-35697599D01*
X93521880Y-35697106D01*
X93598682Y-35696679D01*
X93674748Y-35696317D01*
X93749949Y-35696021D01*
X93824152Y-35695789D01*
X93897228Y-35695620D01*
X93969044Y-35695514D01*
X94039471Y-35695468D01*
X94108377Y-35695484D01*
G37*
G36*
X93709093Y-36096962D02*
G01*
X93830501Y-36097021D01*
X93943745Y-36097134D01*
X94049130Y-36097312D01*
X94146961Y-36097567D01*
X94237543Y-36097909D01*
X94321182Y-36098352D01*
X94398183Y-36098905D01*
X94468852Y-36099581D01*
X94533492Y-36100392D01*
X94592411Y-36101347D01*
X94645913Y-36102460D01*
X94694303Y-36103742D01*
X94737888Y-36105203D01*
X94776971Y-36106856D01*
X94811858Y-36108713D01*
X94842855Y-36110784D01*
X94870267Y-36113080D01*
X94894399Y-36115615D01*
X94915556Y-36118399D01*
X94934044Y-36121443D01*
X94950168Y-36124759D01*
X94964234Y-36128359D01*
X94976546Y-36132254D01*
X94987409Y-36136455D01*
X94997130Y-36140975D01*
X95006014Y-36145824D01*
X95014365Y-36151015D01*
X95034177Y-36164557D01*
X95052166Y-36178373D01*
X95068423Y-36193039D01*
X95083037Y-36209133D01*
X95096098Y-36227232D01*
X95107695Y-36247913D01*
X95117918Y-36271754D01*
X95126856Y-36299333D01*
X95134599Y-36331225D01*
X95141236Y-36368010D01*
X95146858Y-36410265D01*
X95151552Y-36458566D01*
X95155410Y-36513491D01*
X95158521Y-36575618D01*
X95160974Y-36645524D01*
X95162858Y-36723786D01*
X95164264Y-36810983D01*
X95165281Y-36907690D01*
X95165998Y-37014486D01*
X95166505Y-37131948D01*
X95169505Y-37896948D01*
X93752005Y-37904748D01*
X92334505Y-37912548D01*
X92334505Y-37243253D01*
X92334662Y-37144547D01*
X92335140Y-37054227D01*
X92335952Y-36972054D01*
X92337111Y-36897792D01*
X92338629Y-36831202D01*
X92340519Y-36772047D01*
X92342793Y-36720090D01*
X92345462Y-36675092D01*
X92348541Y-36636817D01*
X92352041Y-36605026D01*
X92355975Y-36579483D01*
X92360356Y-36559949D01*
X92365195Y-36546188D01*
X92370505Y-36537961D01*
X92376835Y-36534731D01*
X92389049Y-36531641D01*
X92406887Y-36528692D01*
X92430086Y-36525884D01*
X92458386Y-36523216D01*
X92491524Y-36520688D01*
X92529240Y-36518301D01*
X92571271Y-36516054D01*
X92617356Y-36513948D01*
X92667234Y-36511982D01*
X92720642Y-36510156D01*
X92777320Y-36508471D01*
X92837005Y-36506926D01*
X92899437Y-36505522D01*
X92964354Y-36504258D01*
X93031494Y-36503135D01*
X93100595Y-36502152D01*
X93171396Y-36501309D01*
X93243636Y-36500607D01*
X93317053Y-36500046D01*
X93391386Y-36499624D01*
X93466372Y-36499343D01*
X93541750Y-36499203D01*
X93617260Y-36499203D01*
X93692638Y-36499343D01*
X93767624Y-36499624D01*
X93841957Y-36500046D01*
X93915374Y-36500607D01*
X93987614Y-36501309D01*
X94058415Y-36502152D01*
X94127516Y-36503135D01*
X94194656Y-36504258D01*
X94259573Y-36505522D01*
X94322005Y-36506926D01*
X94381690Y-36508471D01*
X94438368Y-36510156D01*
X94491776Y-36511982D01*
X94541654Y-36513948D01*
X94587739Y-36516054D01*
X94629770Y-36518301D01*
X94667486Y-36520688D01*
X94700624Y-36523216D01*
X94728924Y-36525884D01*
X94752123Y-36528692D01*
X94769961Y-36531641D01*
X94782175Y-36534731D01*
X94788505Y-36537961D01*
X94797854Y-36554072D01*
X94805907Y-36582185D01*
X94812629Y-36621946D01*
X94817985Y-36673006D01*
X94821939Y-36735012D01*
X94824458Y-36807614D01*
X94825505Y-36890460D01*
X94826326Y-36971042D01*
X94828322Y-37040348D01*
X94831591Y-37099197D01*
X94836234Y-37148405D01*
X94842347Y-37188791D01*
X94850031Y-37221172D01*
X94859384Y-37246367D01*
X94870505Y-37265193D01*
X94894411Y-37304600D01*
X94909401Y-37346394D01*
X94915974Y-37389035D01*
X94914628Y-37430985D01*
X94905860Y-37470703D01*
X94890170Y-37506651D01*
X94868055Y-37537290D01*
X94840013Y-37561081D01*
X94806544Y-37576484D01*
X94768145Y-37581961D01*
X94724076Y-37576040D01*
X94684322Y-37559577D01*
X94649782Y-37534517D01*
X94621356Y-37502809D01*
X94599944Y-37466398D01*
X94586444Y-37427233D01*
X94581755Y-37387259D01*
X94586778Y-37348424D01*
X94602412Y-37312675D01*
X94629555Y-37281960D01*
X94642764Y-37261981D01*
X94653861Y-37227599D01*
X94662799Y-37181661D01*
X94669533Y-37127014D01*
X94674017Y-37066505D01*
X94676205Y-37002980D01*
X94676052Y-36939288D01*
X94673511Y-36878275D01*
X94668536Y-36822789D01*
X94661083Y-36775676D01*
X94651104Y-36739784D01*
X94638555Y-36717961D01*
X94631333Y-36714279D01*
X94617445Y-36710782D01*
X94597233Y-36707469D01*
X94571040Y-36704339D01*
X94539206Y-36701394D01*
X94502074Y-36698633D01*
X94459986Y-36696056D01*
X94413284Y-36693663D01*
X94362308Y-36691455D01*
X94307402Y-36689430D01*
X94248906Y-36687589D01*
X94187163Y-36685932D01*
X94122515Y-36684460D01*
X94055303Y-36683171D01*
X93985869Y-36682067D01*
X93914555Y-36681147D01*
X93841703Y-36680410D01*
X93767655Y-36679858D01*
X93692752Y-36679490D01*
X93617337Y-36679306D01*
X93541751Y-36679306D01*
X93466335Y-36679490D01*
X93391433Y-36679858D01*
X93317385Y-36680410D01*
X93244533Y-36681147D01*
X93173220Y-36682067D01*
X93103787Y-36683171D01*
X93036576Y-36684460D01*
X92971928Y-36685932D01*
X92910186Y-36687589D01*
X92851692Y-36689430D01*
X92796787Y-36691455D01*
X92745812Y-36693663D01*
X92699111Y-36696056D01*
X92657024Y-36698633D01*
X92619894Y-36701394D01*
X92588062Y-36704339D01*
X92561871Y-36707469D01*
X92541661Y-36710782D01*
X92527775Y-36714279D01*
X92520555Y-36717961D01*
X92513496Y-36729429D01*
X92507249Y-36749029D01*
X92501798Y-36777005D01*
X92497126Y-36813602D01*
X92493217Y-36859066D01*
X92490056Y-36913641D01*
X92487625Y-36977573D01*
X92485909Y-37051107D01*
X92484891Y-37134487D01*
X92484555Y-37227960D01*
X92484555Y-37701959D01*
X93746175Y-37701959D01*
X95007795Y-37701959D01*
X94998795Y-37042967D01*
X94997079Y-36925162D01*
X94995301Y-36821786D01*
X94993369Y-36731803D01*
X94991193Y-36654182D01*
X94988682Y-36587888D01*
X94985746Y-36531887D01*
X94982295Y-36485148D01*
X94978238Y-36446636D01*
X94973483Y-36415318D01*
X94967942Y-36390160D01*
X94961523Y-36370130D01*
X94954136Y-36354193D01*
X94945690Y-36341317D01*
X94936095Y-36330469D01*
X94929873Y-36324765D01*
X94922791Y-36319469D01*
X94914477Y-36314562D01*
X94904562Y-36310026D01*
X94892673Y-36305843D01*
X94878441Y-36301995D01*
X94861492Y-36298463D01*
X94841458Y-36295230D01*
X94817965Y-36292276D01*
X94790644Y-36289583D01*
X94759124Y-36287134D01*
X94723032Y-36284910D01*
X94681999Y-36282893D01*
X94635652Y-36281065D01*
X94583621Y-36279407D01*
X94525535Y-36277901D01*
X94461023Y-36276529D01*
X94389713Y-36275272D01*
X94311235Y-36274113D01*
X94225217Y-36273032D01*
X94131288Y-36272013D01*
X94029078Y-36271036D01*
X93918215Y-36270084D01*
X93798327Y-36269137D01*
X93669045Y-36268179D01*
X93541362Y-36267299D01*
X93421407Y-36266576D01*
X93308930Y-36266032D01*
X93203679Y-36265689D01*
X93105405Y-36265569D01*
X93013857Y-36265694D01*
X92928784Y-36266087D01*
X92849936Y-36266771D01*
X92777063Y-36267767D01*
X92709914Y-36269099D01*
X92648239Y-36270787D01*
X92591787Y-36272855D01*
X92540308Y-36275324D01*
X92493551Y-36278218D01*
X92451266Y-36281559D01*
X92413203Y-36285368D01*
X92379111Y-36289668D01*
X92348739Y-36294482D01*
X92321838Y-36299831D01*
X92298156Y-36305739D01*
X92277444Y-36312226D01*
X92259450Y-36319317D01*
X92243925Y-36327033D01*
X92230617Y-36335396D01*
X92219278Y-36344429D01*
X92209655Y-36354153D01*
X92201499Y-36364592D01*
X92194559Y-36375768D01*
X92188584Y-36387703D01*
X92183325Y-36400419D01*
X92181127Y-36409045D01*
X92178983Y-36423102D01*
X92176896Y-36442397D01*
X92174872Y-36466739D01*
X92172915Y-36495938D01*
X92171031Y-36529804D01*
X92169224Y-36568144D01*
X92167499Y-36610769D01*
X92165860Y-36657487D01*
X92164313Y-36708107D01*
X92162862Y-36762439D01*
X92161513Y-36820292D01*
X92160269Y-36881475D01*
X92159135Y-36945797D01*
X92158117Y-37013067D01*
X92157220Y-37083095D01*
X92156447Y-37155689D01*
X92155804Y-37230658D01*
X92155295Y-37307813D01*
X92154926Y-37386961D01*
X92154701Y-37467913D01*
X92154625Y-37550477D01*
X92154667Y-37663276D01*
X92154799Y-37768411D01*
X92155035Y-37866168D01*
X92155385Y-37956832D01*
X92155862Y-38040688D01*
X92156477Y-38118022D01*
X92157241Y-38189117D01*
X92158167Y-38254261D01*
X92159267Y-38313736D01*
X92160551Y-38367830D01*
X92162032Y-38416827D01*
X92163722Y-38461012D01*
X92165631Y-38500670D01*
X92167773Y-38536087D01*
X92170159Y-38567547D01*
X92172800Y-38595336D01*
X92175708Y-38619740D01*
X92178895Y-38641042D01*
X92182373Y-38659529D01*
X92186153Y-38675486D01*
X92190247Y-38689197D01*
X92194667Y-38700948D01*
X92199425Y-38711024D01*
X92224266Y-38764871D01*
X92238321Y-38811683D01*
X92241488Y-38853127D01*
X92233662Y-38890874D01*
X92214742Y-38926593D01*
X92184625Y-38961954D01*
X92146858Y-38993246D01*
X92108673Y-39012382D01*
X92070696Y-39019347D01*
X92033554Y-39014125D01*
X91997872Y-38996699D01*
X91964275Y-38967054D01*
X91964155Y-38967083D01*
X91941641Y-38933981D01*
X91926400Y-38894105D01*
X91918457Y-38849900D01*
X91917837Y-38803812D01*
X91924563Y-38758287D01*
X91938661Y-38715771D01*
X91960155Y-38678711D01*
X91964801Y-38671478D01*
X91969120Y-38662313D01*
X91973124Y-38650913D01*
X91976823Y-38636976D01*
X91980228Y-38620199D01*
X91983352Y-38600281D01*
X91986205Y-38576918D01*
X91988799Y-38549810D01*
X91991144Y-38518654D01*
X91993251Y-38483147D01*
X91995133Y-38442987D01*
X91996800Y-38397873D01*
X91998263Y-38347501D01*
X91999533Y-38291571D01*
X92000623Y-38229779D01*
X92001542Y-38161823D01*
X92002302Y-38087401D01*
X92002915Y-38006212D01*
X92003391Y-37917952D01*
X92003742Y-37822320D01*
X92003979Y-37719013D01*
X92004113Y-37607729D01*
X92004155Y-37488167D01*
X92004224Y-37404537D01*
X92004429Y-37322545D01*
X92004765Y-37242361D01*
X92005228Y-37164155D01*
X92005815Y-37088097D01*
X92006521Y-37014358D01*
X92007342Y-36943108D01*
X92008274Y-36874516D01*
X92009314Y-36808754D01*
X92010456Y-36745991D01*
X92011698Y-36686398D01*
X92013035Y-36630145D01*
X92014463Y-36577402D01*
X92015978Y-36528339D01*
X92017575Y-36483126D01*
X92019252Y-36441935D01*
X92021003Y-36404934D01*
X92022825Y-36372294D01*
X92024714Y-36344185D01*
X92026665Y-36320779D01*
X92028675Y-36302244D01*
X92030740Y-36288750D01*
X92032855Y-36280470D01*
X92050511Y-36246933D01*
X92077355Y-36211345D01*
X92109749Y-36177956D01*
X92144055Y-36151015D01*
X92152405Y-36145824D01*
X92161288Y-36140975D01*
X92171009Y-36136455D01*
X92181873Y-36132254D01*
X92194186Y-36128359D01*
X92208252Y-36124759D01*
X92224377Y-36121443D01*
X92242867Y-36118399D01*
X92264026Y-36115615D01*
X92288159Y-36113080D01*
X92315573Y-36110784D01*
X92346571Y-36108713D01*
X92381460Y-36106856D01*
X92420545Y-36105203D01*
X92464131Y-36103742D01*
X92512522Y-36102460D01*
X92566026Y-36101347D01*
X92624945Y-36100392D01*
X92689587Y-36099581D01*
X92760256Y-36098905D01*
X92837258Y-36098352D01*
X92920896Y-36097909D01*
X93011478Y-36097567D01*
X93109308Y-36097312D01*
X93214692Y-36097134D01*
X93327934Y-36097021D01*
X93449340Y-36096962D01*
X93579215Y-36096945D01*
X93709093Y-36096962D01*
G37*
G36*
X97592105Y-36209040D02*
G01*
X97633886Y-36259479D01*
X97675790Y-36310146D01*
X97717576Y-36360745D01*
X97759002Y-36410984D01*
X97799829Y-36460568D01*
X97839815Y-36509202D01*
X97878719Y-36556592D01*
X97916302Y-36602444D01*
X97952322Y-36646465D01*
X97986539Y-36688358D01*
X98018711Y-36727832D01*
X98048598Y-36764590D01*
X98075960Y-36798339D01*
X98100555Y-36828786D01*
X98122143Y-36855634D01*
X98140483Y-36878591D01*
X98155335Y-36897363D01*
X98198400Y-36951218D01*
X98237363Y-36998127D01*
X98269716Y-37035215D01*
X98292949Y-37059607D01*
X98304555Y-37068430D01*
X98308195Y-37065622D01*
X98316311Y-37057324D01*
X98328691Y-37043784D01*
X98345128Y-37025249D01*
X98365411Y-37001967D01*
X98389332Y-36974187D01*
X98416680Y-36942155D01*
X98447247Y-36906120D01*
X98480824Y-36866329D01*
X98517200Y-36823030D01*
X98556167Y-36776472D01*
X98597515Y-36726902D01*
X98641035Y-36674567D01*
X98686517Y-36619716D01*
X98733753Y-36562596D01*
X98782532Y-36503456D01*
X98832646Y-36442542D01*
X98883885Y-36380104D01*
X99448215Y-35691540D01*
X100046385Y-35691540D01*
X100644545Y-35691540D01*
X100645545Y-37349039D01*
X100645627Y-37474059D01*
X100645750Y-37592882D01*
X100645917Y-37705665D01*
X100646132Y-37812566D01*
X100646398Y-37913744D01*
X100646720Y-38009356D01*
X100647102Y-38099562D01*
X100647547Y-38184517D01*
X100648059Y-38264382D01*
X100648642Y-38339313D01*
X100649301Y-38409470D01*
X100650038Y-38475009D01*
X100650857Y-38536089D01*
X100651763Y-38592869D01*
X100652760Y-38645506D01*
X100653851Y-38694158D01*
X100655039Y-38738984D01*
X100656330Y-38780141D01*
X100657727Y-38817787D01*
X100659233Y-38852082D01*
X100660852Y-38883182D01*
X100662589Y-38911246D01*
X100664448Y-38936432D01*
X100666431Y-38958897D01*
X100668543Y-38978801D01*
X100670788Y-38996301D01*
X100673170Y-39011555D01*
X100675692Y-39024722D01*
X100678358Y-39035959D01*
X100681173Y-39045424D01*
X100684140Y-39053276D01*
X100687263Y-39059672D01*
X100690545Y-39064772D01*
X100715603Y-39107065D01*
X100729441Y-39151682D01*
X100732158Y-39197031D01*
X100723849Y-39241518D01*
X100704612Y-39283551D01*
X100674545Y-39321538D01*
X100637234Y-39354098D01*
X100602694Y-39372920D01*
X100568395Y-39378410D01*
X100531805Y-39370974D01*
X100490395Y-39351018D01*
X100490355Y-39351427D01*
X100461595Y-39327823D01*
X100439958Y-39295873D01*
X100425723Y-39257413D01*
X100419167Y-39214277D01*
X100420568Y-39168302D01*
X100430205Y-39121323D01*
X100448355Y-39075177D01*
X100451980Y-39067248D01*
X100455415Y-39058267D01*
X100458665Y-39048060D01*
X100461734Y-39036448D01*
X100464628Y-39023258D01*
X100467351Y-39008312D01*
X100469909Y-38991435D01*
X100472307Y-38972451D01*
X100474548Y-38951184D01*
X100476639Y-38927458D01*
X100478584Y-38901098D01*
X100480388Y-38871926D01*
X100482056Y-38839768D01*
X100483592Y-38804448D01*
X100485003Y-38765789D01*
X100486292Y-38723615D01*
X100487466Y-38677752D01*
X100488527Y-38628022D01*
X100489483Y-38574250D01*
X100490336Y-38516260D01*
X100491094Y-38453876D01*
X100491759Y-38386922D01*
X100492338Y-38315223D01*
X100492835Y-38238602D01*
X100493255Y-38156883D01*
X100493603Y-38069891D01*
X100493884Y-37977449D01*
X100494102Y-37879382D01*
X100494264Y-37775514D01*
X100494373Y-37665669D01*
X100494435Y-37549671D01*
X100494455Y-37427344D01*
X100494455Y-35871955D01*
X100002885Y-35871955D01*
X99511315Y-35871955D01*
X98919455Y-36591956D01*
X98865702Y-36657246D01*
X98813095Y-36720943D01*
X98761854Y-36782789D01*
X98712199Y-36842523D01*
X98664351Y-36899888D01*
X98618530Y-36954622D01*
X98574957Y-37006468D01*
X98533853Y-37055165D01*
X98495437Y-37100455D01*
X98459931Y-37142079D01*
X98427555Y-37179776D01*
X98398530Y-37213289D01*
X98373075Y-37242357D01*
X98351412Y-37266721D01*
X98333761Y-37286122D01*
X98320342Y-37300301D01*
X98311377Y-37308999D01*
X98307085Y-37311955D01*
X98302788Y-37308999D01*
X98293810Y-37300301D01*
X98280374Y-37286122D01*
X98262698Y-37266721D01*
X98241004Y-37242357D01*
X98215513Y-37213289D01*
X98186446Y-37179776D01*
X98154023Y-37142079D01*
X98118465Y-37100455D01*
X98079993Y-37055165D01*
X98038828Y-37006468D01*
X97995190Y-36954622D01*
X97949301Y-36899888D01*
X97901380Y-36842523D01*
X97851650Y-36782789D01*
X97800330Y-36720943D01*
X97747641Y-36657246D01*
X97693805Y-36591956D01*
X97101055Y-35871955D01*
X96607755Y-35871955D01*
X96114455Y-35871955D01*
X96114455Y-37508123D01*
X96114455Y-39144292D01*
X96376955Y-39135591D01*
X96639455Y-39126891D01*
X96639455Y-37814425D01*
X96639455Y-36501921D01*
X96762145Y-36501924D01*
X96884835Y-36501931D01*
X97587145Y-37356584D01*
X97639407Y-37420126D01*
X97690751Y-37482441D01*
X97741035Y-37543363D01*
X97790118Y-37602720D01*
X97837858Y-37660346D01*
X97884113Y-37716071D01*
X97928740Y-37769727D01*
X97971599Y-37821144D01*
X98012547Y-37870156D01*
X98051443Y-37916592D01*
X98088144Y-37960284D01*
X98122508Y-38001064D01*
X98154395Y-38038763D01*
X98183661Y-38073212D01*
X98210166Y-38104243D01*
X98233766Y-38131687D01*
X98254321Y-38155376D01*
X98271689Y-38175140D01*
X98285726Y-38190811D01*
X98296293Y-38202222D01*
X98303247Y-38209202D01*
X98306445Y-38211584D01*
X98309601Y-38209251D01*
X98316518Y-38202318D01*
X98327054Y-38190952D01*
X98341067Y-38175321D01*
X98358414Y-38155595D01*
X98378954Y-38131942D01*
X98402543Y-38104531D01*
X98429039Y-38073529D01*
X98458300Y-38039106D01*
X98490184Y-38001429D01*
X98524547Y-37960669D01*
X98561249Y-37916992D01*
X98600145Y-37870568D01*
X98641095Y-37821565D01*
X98683954Y-37770152D01*
X98728582Y-37716498D01*
X98774836Y-37660770D01*
X98822573Y-37603137D01*
X98871650Y-37543768D01*
X98921927Y-37482832D01*
X98973259Y-37420496D01*
X99025505Y-37356931D01*
X99727585Y-36501931D01*
X99856025Y-36501931D01*
X99984455Y-36501931D01*
X99984455Y-37821929D01*
X99984455Y-39141929D01*
X100075355Y-39141929D01*
X100166255Y-39141929D01*
X100158255Y-37745820D01*
X100157501Y-37620859D01*
X100156735Y-37503352D01*
X100155947Y-37393069D01*
X100155129Y-37289785D01*
X100154273Y-37193272D01*
X100153371Y-37103304D01*
X100152414Y-37019654D01*
X100151394Y-36942095D01*
X100150303Y-36870399D01*
X100149131Y-36804341D01*
X100147872Y-36743693D01*
X100146516Y-36688229D01*
X100145054Y-36637721D01*
X100143480Y-36591942D01*
X100141784Y-36550666D01*
X100139958Y-36513667D01*
X100137993Y-36480716D01*
X100135882Y-36451587D01*
X100133615Y-36426054D01*
X100131185Y-36403889D01*
X100128583Y-36384866D01*
X100125801Y-36368757D01*
X100122830Y-36355336D01*
X100119663Y-36344375D01*
X100116290Y-36335649D01*
X100112703Y-36328930D01*
X100108894Y-36323991D01*
X100104855Y-36320606D01*
X100079933Y-36311820D01*
X100037770Y-36304928D01*
X99982632Y-36300289D01*
X99918785Y-36298261D01*
X99850495Y-36299205D01*
X99641145Y-36306906D01*
X98987375Y-37101906D01*
X98936367Y-37163800D01*
X98886179Y-37224432D01*
X98836969Y-37283621D01*
X98788891Y-37341188D01*
X98742103Y-37396952D01*
X98696762Y-37450734D01*
X98653025Y-37502352D01*
X98611047Y-37551626D01*
X98570985Y-37598377D01*
X98532997Y-37642423D01*
X98497238Y-37683585D01*
X98463865Y-37721683D01*
X98433036Y-37756536D01*
X98404905Y-37787963D01*
X98379631Y-37815785D01*
X98357370Y-37839821D01*
X98338278Y-37859892D01*
X98322512Y-37875816D01*
X98310228Y-37887413D01*
X98301584Y-37894504D01*
X98296735Y-37896908D01*
X98290014Y-37893635D01*
X98278177Y-37884048D01*
X98261533Y-37868491D01*
X98240392Y-37847311D01*
X98215062Y-37820852D01*
X98185854Y-37789459D01*
X98153077Y-37753479D01*
X98117039Y-37713256D01*
X98078051Y-37669135D01*
X98036421Y-37621462D01*
X97992459Y-37570583D01*
X97946474Y-37516842D01*
X97898775Y-37460586D01*
X97849673Y-37402158D01*
X97799475Y-37341905D01*
X97761168Y-37295734D01*
X97722326Y-37248935D01*
X97683124Y-37201720D01*
X97643738Y-37154298D01*
X97604344Y-37106880D01*
X97565115Y-37059678D01*
X97526229Y-37012902D01*
X97487860Y-36966762D01*
X97450183Y-36921469D01*
X97413374Y-36877234D01*
X97377608Y-36834267D01*
X97343060Y-36792780D01*
X97309906Y-36752982D01*
X97278320Y-36715084D01*
X97248480Y-36679298D01*
X97220558Y-36645834D01*
X97194732Y-36614902D01*
X97171176Y-36586713D01*
X97150065Y-36561477D01*
X97131575Y-36539407D01*
X96924045Y-36291906D01*
X96720455Y-36291906D01*
X96652099Y-36293640D01*
X96591016Y-36298548D01*
X96540151Y-36306188D01*
X96502449Y-36316122D01*
X96480855Y-36327907D01*
X96477470Y-36332989D01*
X96474279Y-36341346D01*
X96471277Y-36353112D01*
X96468461Y-36368419D01*
X96465826Y-36387401D01*
X96463368Y-36410190D01*
X96461084Y-36436921D01*
X96458969Y-36467725D01*
X96457019Y-36502737D01*
X96455231Y-36542089D01*
X96453600Y-36585915D01*
X96452123Y-36634348D01*
X96450795Y-36687520D01*
X96449612Y-36745566D01*
X96448571Y-36808617D01*
X96447668Y-36876808D01*
X96446897Y-36950272D01*
X96446257Y-37029141D01*
X96445741Y-37113550D01*
X96445348Y-37203630D01*
X96445071Y-37299515D01*
X96444908Y-37401339D01*
X96444855Y-37509234D01*
X96444891Y-37632701D01*
X96445009Y-37747288D01*
X96445221Y-37853327D01*
X96445541Y-37951153D01*
X96445983Y-38041097D01*
X96446559Y-38123493D01*
X96447283Y-38198673D01*
X96448169Y-38266971D01*
X96449229Y-38328719D01*
X96450477Y-38384250D01*
X96451926Y-38433898D01*
X96453589Y-38477995D01*
X96455481Y-38516873D01*
X96457613Y-38550867D01*
X96460000Y-38580308D01*
X96462655Y-38605530D01*
X96465591Y-38626865D01*
X96468821Y-38644647D01*
X96472359Y-38659208D01*
X96476219Y-38670882D01*
X96480412Y-38680001D01*
X96484953Y-38686898D01*
X96489855Y-38691905D01*
X96513569Y-38719800D01*
X96528285Y-38754887D01*
X96534695Y-38795090D01*
X96533490Y-38838335D01*
X96525360Y-38882546D01*
X96510996Y-38925649D01*
X96491089Y-38965568D01*
X96466331Y-39000228D01*
X96437412Y-39027554D01*
X96405023Y-39045472D01*
X96369855Y-39051905D01*
X96334052Y-39043317D01*
X96296910Y-39020256D01*
X96261978Y-38986778D01*
X96232803Y-38946939D01*
X96212936Y-38904797D01*
X96205925Y-38864407D01*
X96212378Y-38820127D01*
X96228112Y-38768934D01*
X96249825Y-38721906D01*
X96253777Y-38713957D01*
X96257492Y-38704203D01*
X96260977Y-38692428D01*
X96264239Y-38678415D01*
X96267285Y-38661946D01*
X96270122Y-38642805D01*
X96272757Y-38620775D01*
X96275196Y-38595638D01*
X96277448Y-38567177D01*
X96279518Y-38535175D01*
X96281414Y-38499416D01*
X96283143Y-38459681D01*
X96284713Y-38415753D01*
X96286128Y-38367417D01*
X96287398Y-38314453D01*
X96288529Y-38256646D01*
X96289528Y-38193779D01*
X96290401Y-38125633D01*
X96291157Y-38051992D01*
X96291801Y-37972639D01*
X96292341Y-37887357D01*
X96292784Y-37795928D01*
X96293137Y-37698135D01*
X96293407Y-37593762D01*
X96293600Y-37482591D01*
X96293725Y-37364405D01*
X96294725Y-36081905D01*
X96654685Y-36081905D01*
X97014645Y-36081905D01*
X97649545Y-36847787D01*
X97701528Y-36910330D01*
X97752605Y-36971456D01*
X97802599Y-37030966D01*
X97851335Y-37088661D01*
X97898638Y-37144345D01*
X97944334Y-37197818D01*
X97988246Y-37248882D01*
X98030200Y-37297339D01*
X98070019Y-37342990D01*
X98107530Y-37385638D01*
X98142556Y-37425083D01*
X98174923Y-37461128D01*
X98204455Y-37493574D01*
X98230977Y-37522223D01*
X98254314Y-37546877D01*
X98274290Y-37567337D01*
X98290731Y-37583405D01*
X98303460Y-37594883D01*
X98312303Y-37601572D01*
X98317085Y-37603275D01*
X98321857Y-37599914D01*
X98330657Y-37591676D01*
X98343312Y-37578761D01*
X98359648Y-37561371D01*
X98379490Y-37539705D01*
X98402665Y-37513966D01*
X98428999Y-37484353D01*
X98458318Y-37451068D01*
X98490449Y-37414311D01*
X98525218Y-37374284D01*
X98562450Y-37331187D01*
X98601972Y-37285220D01*
X98643610Y-37236586D01*
X98687190Y-37185484D01*
X98732539Y-37132116D01*
X98779482Y-37076682D01*
X98827847Y-37019383D01*
X98877458Y-36960420D01*
X98928142Y-36899994D01*
X98979725Y-36838306D01*
X99609725Y-36083738D01*
X99962225Y-36082638D01*
X100314725Y-36081538D01*
X100314725Y-37701538D01*
X100314725Y-39321538D01*
X100074725Y-39321538D01*
X99834725Y-39321538D01*
X99834725Y-37999038D01*
X99834674Y-37915095D01*
X99834523Y-37832625D01*
X99834275Y-37751777D01*
X99833933Y-37672702D01*
X99833501Y-37595551D01*
X99832980Y-37520474D01*
X99832374Y-37447621D01*
X99831687Y-37377145D01*
X99830920Y-37309195D01*
X99830078Y-37243921D01*
X99829162Y-37181475D01*
X99828177Y-37122008D01*
X99827125Y-37065669D01*
X99826009Y-37012610D01*
X99824832Y-36962981D01*
X99823597Y-36916933D01*
X99822307Y-36874616D01*
X99820966Y-36836181D01*
X99819575Y-36801780D01*
X99818139Y-36771561D01*
X99816659Y-36745677D01*
X99815140Y-36724277D01*
X99813584Y-36707513D01*
X99811994Y-36695535D01*
X99810374Y-36688494D01*
X99808725Y-36686540D01*
X99805016Y-36689500D01*
X99797707Y-36696844D01*
X99786931Y-36708415D01*
X99772818Y-36724058D01*
X99755500Y-36743617D01*
X99735109Y-36766936D01*
X99711777Y-36793861D01*
X99685636Y-36824235D01*
X99656816Y-36857903D01*
X99625450Y-36894709D01*
X99591669Y-36934498D01*
X99555605Y-36977114D01*
X99517389Y-37022402D01*
X99477154Y-37070205D01*
X99435031Y-37120369D01*
X99391151Y-37172737D01*
X99345647Y-37227155D01*
X99298650Y-37283466D01*
X99250291Y-37341516D01*
X99200702Y-37401147D01*
X99150016Y-37462206D01*
X99098363Y-37524536D01*
X99045875Y-37587982D01*
X98309005Y-38479428D01*
X97968395Y-38067983D01*
X97943150Y-38037481D01*
X97916368Y-38005113D01*
X97888178Y-37971034D01*
X97858708Y-37935399D01*
X97828086Y-37898363D01*
X97796440Y-37860082D01*
X97763898Y-37820709D01*
X97730589Y-37780402D01*
X97696641Y-37739314D01*
X97662181Y-37697600D01*
X97627339Y-37655417D01*
X97592241Y-37612919D01*
X97557017Y-37570262D01*
X97521794Y-37527599D01*
X97486700Y-37485088D01*
X97451865Y-37442882D01*
X97417415Y-37401138D01*
X97383479Y-37360009D01*
X97350185Y-37319652D01*
X97317662Y-37280221D01*
X97286037Y-37241872D01*
X97255439Y-37204759D01*
X97225995Y-37169039D01*
X97175578Y-37108106D01*
X97126591Y-37049371D01*
X97079442Y-36993299D01*
X97034540Y-36940355D01*
X96992291Y-36891006D01*
X96953105Y-36845718D01*
X96917391Y-36804956D01*
X96885555Y-36769187D01*
X96858007Y-36738876D01*
X96835155Y-36714490D01*
X96817407Y-36696495D01*
X96805171Y-36685356D01*
X96798855Y-36681540D01*
X96797268Y-36684149D01*
X96795739Y-36691874D01*
X96794269Y-36704555D01*
X96792862Y-36722035D01*
X96791518Y-36744157D01*
X96790240Y-36770762D01*
X96789030Y-36801693D01*
X96787890Y-36836792D01*
X96786822Y-36875902D01*
X96785827Y-36918865D01*
X96784908Y-36965522D01*
X96784067Y-37015717D01*
X96783305Y-37069292D01*
X96782625Y-37126088D01*
X96782029Y-37185949D01*
X96781518Y-37248716D01*
X96781095Y-37314232D01*
X96780761Y-37382339D01*
X96780519Y-37452879D01*
X96780371Y-37525695D01*
X96780318Y-37600629D01*
X96780362Y-37677523D01*
X96780506Y-37756219D01*
X96780752Y-37836560D01*
X96781101Y-37918388D01*
X96781555Y-38001546D01*
X96789555Y-39321556D01*
X96377045Y-39321549D01*
X95964555Y-39321538D01*
X95964555Y-37506539D01*
X95964555Y-35691540D01*
X96563825Y-35691540D01*
X97163085Y-35691540D01*
X97592105Y-36209040D01*
G37*
G36*
X102818105Y-35698620D02*
G01*
X102956980Y-35699309D01*
X103088161Y-35699976D01*
X103211886Y-35700630D01*
X103328391Y-35701280D01*
X103437911Y-35701936D01*
X103540684Y-35702606D01*
X103636945Y-35703300D01*
X103726931Y-35704027D01*
X103810878Y-35704795D01*
X103889023Y-35705616D01*
X103961601Y-35706496D01*
X104028850Y-35707446D01*
X104091006Y-35708475D01*
X104148304Y-35709592D01*
X104200982Y-35710805D01*
X104249274Y-35712125D01*
X104293419Y-35713561D01*
X104333652Y-35715120D01*
X104370210Y-35716814D01*
X104403328Y-35718650D01*
X104433244Y-35720638D01*
X104460193Y-35722787D01*
X104484411Y-35725107D01*
X104506136Y-35727606D01*
X104525604Y-35730294D01*
X104543050Y-35733179D01*
X104558711Y-35736272D01*
X104572824Y-35739580D01*
X104585624Y-35743114D01*
X104597349Y-35746883D01*
X104608234Y-35750894D01*
X104618516Y-35755159D01*
X104628431Y-35759685D01*
X104638215Y-35764483D01*
X104648105Y-35769560D01*
X104671656Y-35782506D01*
X104694093Y-35796294D01*
X104715439Y-35811038D01*
X104735714Y-35826853D01*
X104754941Y-35843853D01*
X104773142Y-35862152D01*
X104790339Y-35881866D01*
X104806555Y-35903107D01*
X104821810Y-35925991D01*
X104836127Y-35950631D01*
X104849529Y-35977143D01*
X104862036Y-36005640D01*
X104873672Y-36036236D01*
X104884458Y-36069047D01*
X104894416Y-36104186D01*
X104903568Y-36141767D01*
X104911936Y-36181905D01*
X104919543Y-36224715D01*
X104926409Y-36270310D01*
X104932558Y-36318804D01*
X104938012Y-36370313D01*
X104942791Y-36424951D01*
X104946919Y-36482831D01*
X104950417Y-36544069D01*
X104953307Y-36608777D01*
X104955612Y-36677072D01*
X104957352Y-36749066D01*
X104958552Y-36824875D01*
X104959231Y-36904613D01*
X104959413Y-36988393D01*
X104959120Y-37076331D01*
X104958372Y-37168541D01*
X104957193Y-37265136D01*
X104955605Y-37366231D01*
X104953642Y-37472714D01*
X104951518Y-37571948D01*
X104949184Y-37664241D01*
X104946587Y-37749905D01*
X104943678Y-37829247D01*
X104940405Y-37902577D01*
X104936717Y-37970205D01*
X104932564Y-38032440D01*
X104927895Y-38089590D01*
X104922658Y-38141966D01*
X104916804Y-38189877D01*
X104910280Y-38233631D01*
X104903037Y-38273539D01*
X104895023Y-38309909D01*
X104886187Y-38343051D01*
X104876479Y-38373275D01*
X104865848Y-38400888D01*
X104854243Y-38426202D01*
X104841612Y-38449524D01*
X104827906Y-38471164D01*
X104813073Y-38491433D01*
X104797062Y-38510638D01*
X104779823Y-38529089D01*
X104761305Y-38547095D01*
X104745525Y-38561853D01*
X104730655Y-38575670D01*
X104716400Y-38588582D01*
X104702462Y-38600622D01*
X104688545Y-38611824D01*
X104674354Y-38622223D01*
X104659591Y-38631853D01*
X104643961Y-38640747D01*
X104627167Y-38648939D01*
X104608913Y-38656465D01*
X104588902Y-38663356D01*
X104566838Y-38669649D01*
X104542425Y-38675376D01*
X104515367Y-38680572D01*
X104485366Y-38685270D01*
X104452128Y-38689505D01*
X104415354Y-38693312D01*
X104374750Y-38696723D01*
X104330019Y-38699773D01*
X104280864Y-38702496D01*
X104226989Y-38704926D01*
X104168098Y-38707097D01*
X104103895Y-38709043D01*
X104034083Y-38710798D01*
X103958365Y-38712396D01*
X103876446Y-38713871D01*
X103788029Y-38715258D01*
X103692818Y-38716589D01*
X103590516Y-38717900D01*
X103480828Y-38719225D01*
X103363456Y-38720596D01*
X103238105Y-38722049D01*
X101948105Y-38737039D01*
X101939105Y-38874668D01*
X101937863Y-38938991D01*
X101943418Y-38988726D01*
X101956191Y-39025476D01*
X101976605Y-39050841D01*
X102001465Y-39081701D01*
X102016351Y-39122458D01*
X102021271Y-39169656D01*
X102016236Y-39219843D01*
X102001254Y-39269564D01*
X101976335Y-39315363D01*
X101944617Y-39348509D01*
X101905922Y-39370022D01*
X101863191Y-39379660D01*
X101819365Y-39377178D01*
X101777382Y-39362334D01*
X101740185Y-39334883D01*
X101741655Y-39334806D01*
X101716829Y-39299553D01*
X101701677Y-39255518D01*
X101696242Y-39206383D01*
X101700566Y-39155827D01*
X101714690Y-39107533D01*
X101738655Y-39065183D01*
X101752224Y-39040962D01*
X101763344Y-39007360D01*
X101772030Y-38964242D01*
X101778299Y-38911470D01*
X101782169Y-38848911D01*
X101783655Y-38776428D01*
X101784655Y-38545907D01*
X103097155Y-38536407D01*
X103225823Y-38535460D01*
X103345903Y-38534537D01*
X103457724Y-38533624D01*
X103561614Y-38532703D01*
X103657901Y-38531758D01*
X103746915Y-38530774D01*
X103828982Y-38529735D01*
X103904433Y-38528625D01*
X103973595Y-38527428D01*
X104036797Y-38526127D01*
X104094367Y-38524708D01*
X104146633Y-38523154D01*
X104193925Y-38521448D01*
X104236570Y-38519577D01*
X104274897Y-38517522D01*
X104309235Y-38515268D01*
X104339911Y-38512800D01*
X104367255Y-38510102D01*
X104391595Y-38507156D01*
X104413258Y-38503949D01*
X104432575Y-38500463D01*
X104449873Y-38496682D01*
X104465480Y-38492592D01*
X104479725Y-38488175D01*
X104492937Y-38483416D01*
X104505443Y-38478299D01*
X104517573Y-38472808D01*
X104529655Y-38466927D01*
X104569394Y-38444479D01*
X104605144Y-38418701D01*
X104637404Y-38389074D01*
X104666673Y-38355081D01*
X104693450Y-38316205D01*
X104718235Y-38271928D01*
X104727070Y-38254379D01*
X104735106Y-38237734D01*
X104742375Y-38221397D01*
X104748910Y-38204771D01*
X104754744Y-38187260D01*
X104759910Y-38168270D01*
X104764439Y-38147203D01*
X104768365Y-38123465D01*
X104771719Y-38096459D01*
X104774536Y-38065590D01*
X104776847Y-38030262D01*
X104778686Y-37989878D01*
X104780084Y-37943843D01*
X104781074Y-37891562D01*
X104781689Y-37832438D01*
X104781962Y-37765876D01*
X104781925Y-37691279D01*
X104781611Y-37608053D01*
X104781052Y-37515600D01*
X104780282Y-37413326D01*
X104779332Y-37300634D01*
X104778235Y-37176929D01*
X104777111Y-37053778D01*
X104776001Y-36941437D01*
X104774868Y-36839345D01*
X104773676Y-36746936D01*
X104772387Y-36663649D01*
X104770966Y-36588919D01*
X104769376Y-36522184D01*
X104767579Y-36462881D01*
X104765541Y-36410445D01*
X104763223Y-36364315D01*
X104760589Y-36323926D01*
X104757603Y-36288716D01*
X104754228Y-36258121D01*
X104750428Y-36231578D01*
X104746165Y-36208525D01*
X104741404Y-36188396D01*
X104736107Y-36170631D01*
X104730238Y-36154664D01*
X104723761Y-36139933D01*
X104716639Y-36125876D01*
X104708835Y-36111928D01*
X104683521Y-36075595D01*
X104649956Y-36038270D01*
X104611049Y-36002610D01*
X104569706Y-35971276D01*
X104528835Y-35946927D01*
X104518549Y-35941862D01*
X104508235Y-35937086D01*
X104497648Y-35932589D01*
X104486545Y-35928362D01*
X104474680Y-35924393D01*
X104461810Y-35920674D01*
X104447691Y-35917194D01*
X104432078Y-35913943D01*
X104414728Y-35910911D01*
X104395396Y-35908088D01*
X104373837Y-35905465D01*
X104349809Y-35903031D01*
X104323066Y-35900776D01*
X104293364Y-35898690D01*
X104260460Y-35896764D01*
X104224109Y-35894987D01*
X104184067Y-35893349D01*
X104140090Y-35891841D01*
X104091934Y-35890452D01*
X104039354Y-35889172D01*
X103982106Y-35887992D01*
X103919946Y-35886901D01*
X103852630Y-35885890D01*
X103779915Y-35884948D01*
X103701554Y-35884065D01*
X103617306Y-35883232D01*
X103526924Y-35882438D01*
X103430166Y-35881674D01*
X103326786Y-35880930D01*
X103216542Y-35880195D01*
X103099188Y-35879459D01*
X102974480Y-35878713D01*
X102842175Y-35877947D01*
X101274675Y-35868947D01*
X101274675Y-37507426D01*
X101274675Y-39145904D01*
X101357175Y-39136404D01*
X101439675Y-39126904D01*
X101447675Y-38624403D01*
X101455675Y-38121905D01*
X101537475Y-38117705D01*
X101544574Y-38117493D01*
X101556135Y-38117308D01*
X101572021Y-38117149D01*
X101592096Y-38117016D01*
X101616221Y-38116910D01*
X101644260Y-38116829D01*
X101676075Y-38116774D01*
X101711528Y-38116744D01*
X101750483Y-38116739D01*
X101792802Y-38116760D01*
X101838348Y-38116805D01*
X101886983Y-38116875D01*
X101938570Y-38116970D01*
X101992971Y-38117089D01*
X102050050Y-38117232D01*
X102109670Y-38117399D01*
X102171691Y-38117589D01*
X102235979Y-38117804D01*
X102302394Y-38118042D01*
X102370800Y-38118303D01*
X102441060Y-38118587D01*
X102513035Y-38118894D01*
X102586589Y-38119223D01*
X102661585Y-38119575D01*
X102737885Y-38119949D01*
X102815351Y-38120346D01*
X102893847Y-38120764D01*
X102973235Y-38121205D01*
X103112193Y-38121986D01*
X103241325Y-38122691D01*
X103361009Y-38123305D01*
X103471624Y-38123813D01*
X103573549Y-38124200D01*
X103667163Y-38124451D01*
X103752845Y-38124551D01*
X103830973Y-38124486D01*
X103901926Y-38124240D01*
X103966084Y-38123798D01*
X104023825Y-38123146D01*
X104075527Y-38122268D01*
X104121571Y-38121150D01*
X104162334Y-38119777D01*
X104198195Y-38118134D01*
X104229534Y-38116205D01*
X104256729Y-38113976D01*
X104280159Y-38111432D01*
X104300203Y-38108559D01*
X104317240Y-38105340D01*
X104331649Y-38101762D01*
X104343807Y-38097809D01*
X104354095Y-38093466D01*
X104362892Y-38088718D01*
X104370575Y-38083552D01*
X104377524Y-38077950D01*
X104384118Y-38071900D01*
X104390735Y-38065385D01*
X104400966Y-38054739D01*
X104410036Y-38043864D01*
X104418015Y-38031829D01*
X104424972Y-38017704D01*
X104430978Y-38000557D01*
X104436101Y-37979459D01*
X104440412Y-37953480D01*
X104443982Y-37921689D01*
X104446879Y-37883155D01*
X104449173Y-37836948D01*
X104450935Y-37782138D01*
X104452235Y-37717795D01*
X104453141Y-37642988D01*
X104453724Y-37556786D01*
X104454055Y-37458259D01*
X104454202Y-37346478D01*
X104454235Y-37220511D01*
X104454235Y-36439148D01*
X104380635Y-36365508D01*
X104307035Y-36291868D01*
X102955675Y-36291868D01*
X101604315Y-36291868D01*
X101604315Y-36997195D01*
X101604315Y-37702526D01*
X102856815Y-37694726D01*
X104109305Y-37686926D01*
X104117305Y-37213972D01*
X104125305Y-36741022D01*
X104046505Y-36711082D01*
X104037091Y-36708522D01*
X104022724Y-36706099D01*
X104003517Y-36703816D01*
X103979581Y-36701673D01*
X103951030Y-36699674D01*
X103917975Y-36697821D01*
X103880530Y-36696116D01*
X103838807Y-36694561D01*
X103792918Y-36693159D01*
X103742975Y-36691912D01*
X103689091Y-36690821D01*
X103631379Y-36689890D01*
X103569951Y-36689120D01*
X103504920Y-36688513D01*
X103436397Y-36688073D01*
X103364496Y-36687801D01*
X103289328Y-36687699D01*
X103211007Y-36687770D01*
X103129644Y-36688016D01*
X103045353Y-36688439D01*
X102958245Y-36689042D01*
X101948735Y-36696942D01*
X101939735Y-36960402D01*
X101937693Y-37040443D01*
X101937723Y-37105454D01*
X101940063Y-37157293D01*
X101944948Y-37197815D01*
X101952614Y-37228877D01*
X101963298Y-37252335D01*
X101977235Y-37270048D01*
X102000599Y-37301188D01*
X102015024Y-37337393D01*
X102021148Y-37376968D01*
X102019611Y-37418224D01*
X102011053Y-37459468D01*
X101996113Y-37499008D01*
X101975431Y-37535152D01*
X101949646Y-37566209D01*
X101919396Y-37590488D01*
X101885323Y-37606295D01*
X101848065Y-37611941D01*
X101810692Y-37606273D01*
X101777614Y-37590381D01*
X101749413Y-37565932D01*
X101726672Y-37534592D01*
X101709973Y-37498028D01*
X101699896Y-37457906D01*
X101697025Y-37415893D01*
X101701942Y-37373656D01*
X101715228Y-37332862D01*
X101737465Y-37295177D01*
X101747677Y-37278148D01*
X101756372Y-37255588D01*
X101763643Y-37226622D01*
X101769580Y-37190379D01*
X101774276Y-37145984D01*
X101777821Y-37092566D01*
X101780306Y-37029252D01*
X101781824Y-36955167D01*
X101782465Y-36869441D01*
X101783465Y-36501944D01*
X102992465Y-36501944D01*
X103101994Y-36501992D01*
X103205581Y-36502140D01*
X103303355Y-36502391D01*
X103395440Y-36502749D01*
X103481964Y-36503217D01*
X103563053Y-36503800D01*
X103638833Y-36504500D01*
X103709432Y-36505321D01*
X103774975Y-36506268D01*
X103835588Y-36507343D01*
X103891400Y-36508550D01*
X103942535Y-36509894D01*
X103989121Y-36511376D01*
X104031283Y-36513003D01*
X104069149Y-36514776D01*
X104102845Y-36516699D01*
X104132497Y-36518777D01*
X104158232Y-36521012D01*
X104180177Y-36523409D01*
X104198457Y-36525971D01*
X104213199Y-36528702D01*
X104224530Y-36531605D01*
X104232577Y-36534685D01*
X104237465Y-36537944D01*
X104242922Y-36548362D01*
X104247959Y-36567813D01*
X104252576Y-36595572D01*
X104256774Y-36630918D01*
X104260551Y-36673128D01*
X104263909Y-36721479D01*
X104266848Y-36775249D01*
X104269366Y-36833715D01*
X104271465Y-36896156D01*
X104273144Y-36961847D01*
X104274403Y-37030068D01*
X104275243Y-37100095D01*
X104275663Y-37171206D01*
X104275663Y-37242677D01*
X104275243Y-37313788D01*
X104274403Y-37383815D01*
X104273144Y-37452036D01*
X104271465Y-37517728D01*
X104269366Y-37580168D01*
X104266848Y-37638635D01*
X104263909Y-37692405D01*
X104260551Y-37740757D01*
X104256774Y-37782967D01*
X104252576Y-37818313D01*
X104247959Y-37846073D01*
X104242922Y-37865523D01*
X104237465Y-37875943D01*
X104233297Y-37878763D01*
X104226516Y-37881449D01*
X104217026Y-37884002D01*
X104204731Y-37886426D01*
X104189536Y-37888722D01*
X104171345Y-37890893D01*
X104150064Y-37892942D01*
X104125596Y-37894870D01*
X104097845Y-37896681D01*
X104066718Y-37898377D01*
X104032117Y-37899959D01*
X103993947Y-37901432D01*
X103952113Y-37902796D01*
X103906520Y-37904055D01*
X103857072Y-37905211D01*
X103803672Y-37906266D01*
X103746227Y-37907223D01*
X103684640Y-37908084D01*
X103618816Y-37908852D01*
X103548659Y-37909529D01*
X103474074Y-37910117D01*
X103394965Y-37910620D01*
X103311237Y-37911038D01*
X103222794Y-37911376D01*
X103129541Y-37911634D01*
X103031382Y-37911817D01*
X102928222Y-37911925D01*
X102819965Y-37911963D01*
X101438465Y-37911977D01*
X101446465Y-36996961D01*
X101454465Y-36081944D01*
X102871115Y-36083744D01*
X103002005Y-36083912D01*
X103125439Y-36084116D01*
X103241655Y-36084376D01*
X103350889Y-36084715D01*
X103453377Y-36085156D01*
X103549356Y-36085720D01*
X103639063Y-36086429D01*
X103722735Y-36087307D01*
X103800608Y-36088374D01*
X103872918Y-36089654D01*
X103939903Y-36091168D01*
X104001798Y-36092939D01*
X104058842Y-36094989D01*
X104111270Y-36097339D01*
X104159318Y-36100013D01*
X104203225Y-36103032D01*
X104243225Y-36106419D01*
X104279556Y-36110196D01*
X104312455Y-36114385D01*
X104342158Y-36119008D01*
X104368902Y-36124087D01*
X104392923Y-36129645D01*
X104414458Y-36135704D01*
X104433744Y-36142285D01*
X104451018Y-36149412D01*
X104466515Y-36157107D01*
X104480473Y-36165390D01*
X104493128Y-36174286D01*
X104504718Y-36183816D01*
X104515477Y-36194002D01*
X104525644Y-36204866D01*
X104535455Y-36216430D01*
X104545147Y-36228718D01*
X104554955Y-36241751D01*
X104564004Y-36254351D01*
X104572140Y-36266950D01*
X104579413Y-36280278D01*
X104585870Y-36295062D01*
X104591560Y-36312030D01*
X104596531Y-36331910D01*
X104600831Y-36355432D01*
X104604510Y-36383322D01*
X104607615Y-36416310D01*
X104610195Y-36455123D01*
X104612297Y-36500490D01*
X104613972Y-36553139D01*
X104615266Y-36613798D01*
X104616228Y-36683196D01*
X104616907Y-36762060D01*
X104617350Y-36851120D01*
X104617607Y-36951102D01*
X104617726Y-37062737D01*
X104617755Y-37186751D01*
X104617700Y-37302110D01*
X104617515Y-37407086D01*
X104617169Y-37502237D01*
X104616633Y-37588121D01*
X104615874Y-37665294D01*
X104614864Y-37734316D01*
X104613572Y-37795745D01*
X104611966Y-37850137D01*
X104610018Y-37898052D01*
X104607695Y-37940046D01*
X104604969Y-37976679D01*
X104601808Y-38008508D01*
X104598182Y-38036090D01*
X104594060Y-38059984D01*
X104589413Y-38080748D01*
X104584209Y-38098940D01*
X104578418Y-38115117D01*
X104572010Y-38129837D01*
X104564955Y-38143659D01*
X104556511Y-38159178D01*
X104548483Y-38173739D01*
X104540595Y-38187375D01*
X104532567Y-38200118D01*
X104524123Y-38212001D01*
X104514984Y-38223055D01*
X104504873Y-38233314D01*
X104493511Y-38242808D01*
X104480621Y-38251570D01*
X104465925Y-38259633D01*
X104449145Y-38267028D01*
X104430002Y-38273788D01*
X104408220Y-38279944D01*
X104383521Y-38285530D01*
X104355625Y-38290576D01*
X104324256Y-38295116D01*
X104289136Y-38299182D01*
X104249987Y-38302805D01*
X104206530Y-38306017D01*
X104158488Y-38308852D01*
X104105584Y-38311341D01*
X104047539Y-38313517D01*
X103984075Y-38315411D01*
X103914914Y-38317055D01*
X103839779Y-38318483D01*
X103758392Y-38319725D01*
X103670475Y-38320815D01*
X103575749Y-38321784D01*
X103473938Y-38322664D01*
X103364763Y-38323488D01*
X103247946Y-38324288D01*
X103123209Y-38325096D01*
X102990275Y-38325944D01*
X101602775Y-38334844D01*
X101602775Y-38844662D01*
X101602775Y-39354477D01*
X101362445Y-39345777D01*
X101122105Y-39337077D01*
X101115105Y-37513648D01*
X101108105Y-35690220D01*
X102818105Y-35698620D01*
G37*
G36*
X89417934Y-35692503D02*
G01*
X89491126Y-35692612D01*
X89563779Y-35692798D01*
X89635733Y-35693059D01*
X89706826Y-35693397D01*
X89776897Y-35693811D01*
X89845786Y-35694303D01*
X89913330Y-35694872D01*
X89979370Y-35695518D01*
X90043744Y-35696242D01*
X90106291Y-35697045D01*
X90166850Y-35697925D01*
X90225261Y-35698884D01*
X90281361Y-35699922D01*
X90334991Y-35701039D01*
X90385989Y-35702236D01*
X90434194Y-35703512D01*
X90479445Y-35704868D01*
X90521582Y-35706304D01*
X90560442Y-35707820D01*
X90595865Y-35709417D01*
X90627691Y-35711095D01*
X90655758Y-35712854D01*
X90679904Y-35714694D01*
X90699970Y-35716616D01*
X90715794Y-35718620D01*
X90727215Y-35720707D01*
X90775083Y-35733539D01*
X90819008Y-35749071D01*
X90859371Y-35767618D01*
X90896555Y-35789499D01*
X90930942Y-35815030D01*
X90962916Y-35844529D01*
X90992859Y-35878312D01*
X91021153Y-35916698D01*
X91048181Y-35960003D01*
X91074325Y-36008544D01*
X91088295Y-36036998D01*
X91100480Y-36063957D01*
X91111037Y-36090653D01*
X91120121Y-36118318D01*
X91127889Y-36148186D01*
X91134496Y-36181490D01*
X91140100Y-36219462D01*
X91144856Y-36263335D01*
X91148919Y-36314342D01*
X91152447Y-36373715D01*
X91155596Y-36442688D01*
X91158521Y-36522494D01*
X91161379Y-36614364D01*
X91164325Y-36719532D01*
X91179525Y-37282083D01*
X90932025Y-37282026D01*
X90684525Y-37281984D01*
X90684525Y-36850306D01*
X90684279Y-36745506D01*
X90683395Y-36657998D01*
X90681655Y-36585844D01*
X90678842Y-36527104D01*
X90674737Y-36479840D01*
X90669124Y-36442114D01*
X90661784Y-36411986D01*
X90652499Y-36387518D01*
X90641052Y-36366772D01*
X90627225Y-36347809D01*
X90569925Y-36276988D01*
X89259625Y-36276988D01*
X87949325Y-36276988D01*
X87891925Y-36347809D01*
X87885153Y-36356597D01*
X87878933Y-36365844D01*
X87873243Y-36376027D01*
X87868059Y-36387620D01*
X87863357Y-36401098D01*
X87859114Y-36416938D01*
X87855307Y-36435614D01*
X87851912Y-36457602D01*
X87848906Y-36483377D01*
X87846265Y-36513415D01*
X87843966Y-36548191D01*
X87841986Y-36588181D01*
X87840300Y-36633860D01*
X87838887Y-36685703D01*
X87837722Y-36744185D01*
X87836781Y-36809783D01*
X87836042Y-36882972D01*
X87835481Y-36964226D01*
X87835074Y-37054022D01*
X87834799Y-37152835D01*
X87834631Y-37261140D01*
X87834548Y-37379412D01*
X87834525Y-37508128D01*
X87834525Y-38597628D01*
X87914725Y-38660718D01*
X87923334Y-38667380D01*
X87931848Y-38673552D01*
X87940667Y-38679250D01*
X87950191Y-38684491D01*
X87960818Y-38689289D01*
X87972949Y-38693662D01*
X87986983Y-38697625D01*
X88003319Y-38701194D01*
X88022357Y-38704385D01*
X88044496Y-38707214D01*
X88070136Y-38709697D01*
X88099675Y-38711850D01*
X88133515Y-38713688D01*
X88172053Y-38715229D01*
X88215689Y-38716488D01*
X88264823Y-38717480D01*
X88319855Y-38718222D01*
X88381183Y-38718730D01*
X88449207Y-38719020D01*
X88524327Y-38719107D01*
X88606942Y-38719008D01*
X88697451Y-38718739D01*
X88796254Y-38718316D01*
X88903751Y-38717754D01*
X89020340Y-38717069D01*
X89146422Y-38716279D01*
X89282395Y-38715398D01*
X90569865Y-38706998D01*
X90627165Y-38636178D01*
X90652982Y-38597440D01*
X90670684Y-38555296D01*
X90680262Y-38510110D01*
X90681708Y-38462248D01*
X90675013Y-38412073D01*
X90660168Y-38359951D01*
X90637165Y-38306246D01*
X90618487Y-38259644D01*
X90608977Y-38214132D01*
X90608337Y-38170669D01*
X90616265Y-38130212D01*
X90632462Y-38093719D01*
X90656627Y-38062148D01*
X90688462Y-38036457D01*
X90727665Y-38017605D01*
X90772645Y-38005004D01*
X90806109Y-38006192D01*
X90835363Y-38023291D01*
X90867715Y-38058425D01*
X90893021Y-38096719D01*
X90910608Y-38138643D01*
X90920414Y-38182656D01*
X90922372Y-38227216D01*
X90916418Y-38270781D01*
X90902487Y-38311811D01*
X90880515Y-38348764D01*
X90863327Y-38378476D01*
X90849065Y-38416328D01*
X90839227Y-38457456D01*
X90835315Y-38496998D01*
X90832372Y-38540816D01*
X90825299Y-38593592D01*
X90815134Y-38648684D01*
X90802915Y-38699448D01*
X90797908Y-38717491D01*
X90793039Y-38734431D01*
X90788040Y-38750300D01*
X90782647Y-38765135D01*
X90776593Y-38778970D01*
X90769612Y-38791839D01*
X90761439Y-38803779D01*
X90751808Y-38814823D01*
X90740453Y-38825007D01*
X90727107Y-38834365D01*
X90711506Y-38842932D01*
X90693384Y-38850744D01*
X90672474Y-38857835D01*
X90648510Y-38864240D01*
X90621228Y-38869994D01*
X90590360Y-38875131D01*
X90555641Y-38879688D01*
X90516806Y-38883698D01*
X90473588Y-38887196D01*
X90425722Y-38890218D01*
X90372941Y-38892798D01*
X90314980Y-38894971D01*
X90251573Y-38896772D01*
X90182454Y-38898235D01*
X90107358Y-38899397D01*
X90026018Y-38900292D01*
X89938168Y-38900953D01*
X89843543Y-38901418D01*
X89741877Y-38901720D01*
X89632904Y-38901893D01*
X89516359Y-38901975D01*
X89391974Y-38901998D01*
X89259485Y-38901998D01*
X89125388Y-38901991D01*
X88999647Y-38901950D01*
X88881980Y-38901840D01*
X88772106Y-38901629D01*
X88669744Y-38901282D01*
X88574612Y-38900767D01*
X88486430Y-38900049D01*
X88404916Y-38899095D01*
X88329789Y-38897873D01*
X88260767Y-38896347D01*
X88197569Y-38894485D01*
X88139915Y-38892254D01*
X88087522Y-38889619D01*
X88040110Y-38886548D01*
X87997397Y-38883006D01*
X87959102Y-38878962D01*
X87924944Y-38874379D01*
X87894642Y-38869227D01*
X87867914Y-38863470D01*
X87844479Y-38857076D01*
X87824055Y-38850011D01*
X87806362Y-38842241D01*
X87791118Y-38833733D01*
X87778043Y-38824454D01*
X87766854Y-38814370D01*
X87757270Y-38803448D01*
X87749011Y-38791654D01*
X87741795Y-38778954D01*
X87735341Y-38765316D01*
X87729367Y-38750705D01*
X87723592Y-38735088D01*
X87717735Y-38718433D01*
X87715030Y-38708702D01*
X87712439Y-38695337D01*
X87709963Y-38678342D01*
X87707602Y-38657722D01*
X87705356Y-38633482D01*
X87703224Y-38605628D01*
X87701207Y-38574165D01*
X87699305Y-38539097D01*
X87697518Y-38500431D01*
X87695846Y-38458170D01*
X87694289Y-38412320D01*
X87692847Y-38362886D01*
X87691521Y-38309874D01*
X87690309Y-38253288D01*
X87689213Y-38193133D01*
X87688231Y-38129415D01*
X87687365Y-38062138D01*
X87686615Y-37991309D01*
X87685979Y-37916931D01*
X87685460Y-37839010D01*
X87685055Y-37757551D01*
X87684766Y-37672560D01*
X87684593Y-37584040D01*
X87684535Y-37491999D01*
X87684593Y-37399956D01*
X87684768Y-37311436D01*
X87685059Y-37226444D01*
X87685466Y-37144985D01*
X87685990Y-37067064D01*
X87686629Y-36992686D01*
X87687383Y-36921855D01*
X87688254Y-36854579D01*
X87689239Y-36790860D01*
X87690339Y-36730705D01*
X87691555Y-36674119D01*
X87692885Y-36621106D01*
X87694330Y-36571672D01*
X87695889Y-36525822D01*
X87697562Y-36483561D01*
X87699350Y-36444894D01*
X87701251Y-36409827D01*
X87703266Y-36378363D01*
X87705395Y-36350510D01*
X87707637Y-36326270D01*
X87709992Y-36305651D01*
X87712460Y-36288656D01*
X87715041Y-36275291D01*
X87717735Y-36265561D01*
X87723593Y-36248908D01*
X87729371Y-36233294D01*
X87735349Y-36218685D01*
X87741807Y-36205048D01*
X87749022Y-36192350D01*
X87757274Y-36180557D01*
X87766843Y-36169637D01*
X87778008Y-36159554D01*
X87791047Y-36150277D01*
X87806240Y-36141772D01*
X87823867Y-36134006D01*
X87844205Y-36126944D01*
X87867535Y-36120555D01*
X87894136Y-36114804D01*
X87924287Y-36109658D01*
X87958266Y-36105084D01*
X87996354Y-36101048D01*
X88038829Y-36097517D01*
X88085971Y-36094458D01*
X88138058Y-36091837D01*
X88195370Y-36089622D01*
X88258186Y-36087778D01*
X88326785Y-36086272D01*
X88401447Y-36085071D01*
X88482450Y-36084142D01*
X88570074Y-36083451D01*
X88664597Y-36082965D01*
X88766300Y-36082650D01*
X88875461Y-36082473D01*
X88992359Y-36082402D01*
X89117274Y-36082402D01*
X89250485Y-36082440D01*
X89359130Y-36082514D01*
X89462484Y-36082666D01*
X89560659Y-36082899D01*
X89653768Y-36083214D01*
X89741922Y-36083616D01*
X89825233Y-36084108D01*
X89903813Y-36084691D01*
X89977775Y-36085370D01*
X90047229Y-36086148D01*
X90112290Y-36087026D01*
X90173067Y-36088009D01*
X90229674Y-36089099D01*
X90282223Y-36090299D01*
X90330825Y-36091613D01*
X90375592Y-36093043D01*
X90416637Y-36094592D01*
X90454071Y-36096264D01*
X90488007Y-36098060D01*
X90518557Y-36099985D01*
X90545832Y-36102041D01*
X90569945Y-36104231D01*
X90591007Y-36106559D01*
X90609131Y-36109027D01*
X90624429Y-36111638D01*
X90637013Y-36114395D01*
X90646994Y-36117301D01*
X90654485Y-36120360D01*
X90682899Y-36136424D01*
X90708403Y-36155020D01*
X90731126Y-36176589D01*
X90751197Y-36201573D01*
X90768745Y-36230413D01*
X90783898Y-36263551D01*
X90796787Y-36301429D01*
X90807541Y-36344489D01*
X90816287Y-36393172D01*
X90823156Y-36447921D01*
X90828276Y-36509176D01*
X90831777Y-36577381D01*
X90833787Y-36652975D01*
X90834435Y-36736403D01*
X90834495Y-37105803D01*
X90931995Y-37096403D01*
X91029495Y-37087003D01*
X91022495Y-36698813D01*
X91020433Y-36614014D01*
X91017602Y-36536950D01*
X91013892Y-36467099D01*
X91009191Y-36403940D01*
X91003389Y-36346951D01*
X90996375Y-36295611D01*
X90988039Y-36249397D01*
X90978269Y-36207789D01*
X90966955Y-36170264D01*
X90953986Y-36136300D01*
X90939251Y-36105377D01*
X90922640Y-36076973D01*
X90904041Y-36050566D01*
X90883345Y-36025634D01*
X90871298Y-36012268D01*
X90859612Y-35999701D01*
X90848027Y-35987908D01*
X90836283Y-35976864D01*
X90824117Y-35966545D01*
X90811271Y-35956925D01*
X90797484Y-35947981D01*
X90782494Y-35939689D01*
X90766042Y-35932022D01*
X90747867Y-35924957D01*
X90727708Y-35918469D01*
X90705305Y-35912534D01*
X90680397Y-35907127D01*
X90652723Y-35902223D01*
X90622024Y-35897799D01*
X90588038Y-35893828D01*
X90550505Y-35890287D01*
X90509165Y-35887151D01*
X90463756Y-35884395D01*
X90414019Y-35881996D01*
X90359692Y-35879927D01*
X90300515Y-35878166D01*
X90236228Y-35876686D01*
X90166571Y-35875465D01*
X90091281Y-35874476D01*
X90010100Y-35873695D01*
X89922766Y-35873099D01*
X89829018Y-35872661D01*
X89728598Y-35872359D01*
X89621242Y-35872166D01*
X89506692Y-35872059D01*
X89384687Y-35872012D01*
X89254965Y-35872003D01*
X89124283Y-35872015D01*
X89002085Y-35872059D01*
X88888056Y-35872149D01*
X88781881Y-35872296D01*
X88683247Y-35872513D01*
X88591838Y-35872813D01*
X88507341Y-35873209D01*
X88429442Y-35873712D01*
X88357825Y-35874335D01*
X88292177Y-35875091D01*
X88232184Y-35875992D01*
X88177530Y-35877051D01*
X88127902Y-35878281D01*
X88082985Y-35879694D01*
X88042465Y-35881302D01*
X88006028Y-35883118D01*
X87973359Y-35885155D01*
X87944144Y-35887424D01*
X87918069Y-35889940D01*
X87894819Y-35892713D01*
X87874080Y-35895758D01*
X87855538Y-35899085D01*
X87838878Y-35902709D01*
X87823786Y-35906640D01*
X87809948Y-35910893D01*
X87797049Y-35915479D01*
X87784775Y-35920411D01*
X87772812Y-35925701D01*
X87760845Y-35931363D01*
X87719509Y-35954641D01*
X87678348Y-35983652D01*
X87640316Y-36015894D01*
X87608364Y-36048865D01*
X87585445Y-36080065D01*
X87577120Y-36095224D01*
X87569167Y-36111923D01*
X87561580Y-36130237D01*
X87554355Y-36150241D01*
X87547488Y-36172009D01*
X87540972Y-36195615D01*
X87534804Y-36221135D01*
X87528978Y-36248644D01*
X87523489Y-36278216D01*
X87518333Y-36309926D01*
X87513504Y-36343849D01*
X87508998Y-36380059D01*
X87504810Y-36418631D01*
X87500935Y-36459641D01*
X87497368Y-36503162D01*
X87494104Y-36549270D01*
X87491138Y-36598040D01*
X87488465Y-36649545D01*
X87486081Y-36703862D01*
X87483981Y-36761064D01*
X87482159Y-36821226D01*
X87480610Y-36884424D01*
X87479331Y-36950731D01*
X87478315Y-37020224D01*
X87477559Y-37092976D01*
X87477057Y-37169062D01*
X87476804Y-37248557D01*
X87476795Y-37331536D01*
X87477025Y-37418073D01*
X87477491Y-37508244D01*
X87478185Y-37602123D01*
X87479105Y-37699785D01*
X87480411Y-37825250D01*
X87481642Y-37939918D01*
X87482842Y-38044355D01*
X87484052Y-38139127D01*
X87485313Y-38224800D01*
X87486667Y-38301941D01*
X87488157Y-38371115D01*
X87489824Y-38432888D01*
X87491709Y-38487828D01*
X87493855Y-38536500D01*
X87496304Y-38579471D01*
X87499097Y-38617306D01*
X87502276Y-38650572D01*
X87505883Y-38679835D01*
X87509960Y-38705661D01*
X87514549Y-38728617D01*
X87519691Y-38749269D01*
X87525428Y-38768183D01*
X87531802Y-38785924D01*
X87538855Y-38803061D01*
X87546628Y-38820157D01*
X87555165Y-38837781D01*
X87564505Y-38856498D01*
X87575241Y-38878087D01*
X87585324Y-38898497D01*
X87594959Y-38917762D01*
X87604355Y-38935914D01*
X87613718Y-38952987D01*
X87623255Y-38969013D01*
X87633173Y-38984026D01*
X87643680Y-38998058D01*
X87654983Y-39011142D01*
X87667287Y-39023312D01*
X87680802Y-39034601D01*
X87695733Y-39045042D01*
X87712288Y-39054667D01*
X87730673Y-39063511D01*
X87751096Y-39071605D01*
X87773764Y-39078982D01*
X87798885Y-39085677D01*
X87826664Y-39091722D01*
X87857309Y-39097150D01*
X87891027Y-39101994D01*
X87928025Y-39106287D01*
X87968511Y-39110062D01*
X88012691Y-39113352D01*
X88060772Y-39116191D01*
X88112962Y-39118611D01*
X88169467Y-39120645D01*
X88230495Y-39122326D01*
X88296252Y-39123688D01*
X88366946Y-39124764D01*
X88442783Y-39125586D01*
X88523972Y-39126187D01*
X88610718Y-39126601D01*
X88703229Y-39126861D01*
X88801712Y-39126999D01*
X88906374Y-39127049D01*
X89017422Y-39127044D01*
X89135064Y-39127017D01*
X89259505Y-39127001D01*
X89395513Y-39126991D01*
X89522547Y-39126953D01*
X89640937Y-39126873D01*
X89751017Y-39126738D01*
X89853120Y-39126535D01*
X89947576Y-39126251D01*
X90034720Y-39125871D01*
X90114883Y-39125383D01*
X90188397Y-39124774D01*
X90255596Y-39124029D01*
X90316812Y-39123136D01*
X90372376Y-39122082D01*
X90422622Y-39120852D01*
X90467882Y-39119434D01*
X90508488Y-39117815D01*
X90544773Y-39115980D01*
X90577069Y-39113917D01*
X90605709Y-39111613D01*
X90631025Y-39109053D01*
X90653349Y-39106226D01*
X90673014Y-39103116D01*
X90690352Y-39099712D01*
X90705696Y-39095999D01*
X90719378Y-39091964D01*
X90731731Y-39087595D01*
X90743086Y-39082877D01*
X90753777Y-39077798D01*
X90764136Y-39072343D01*
X90774495Y-39066501D01*
X90804717Y-39047715D01*
X90832503Y-39027421D01*
X90857963Y-39005298D01*
X90881210Y-38981027D01*
X90902354Y-38954287D01*
X90921507Y-38924759D01*
X90938779Y-38892123D01*
X90954282Y-38856060D01*
X90968127Y-38816250D01*
X90980426Y-38772373D01*
X90991289Y-38724110D01*
X91000827Y-38671139D01*
X91009152Y-38613143D01*
X91016376Y-38549801D01*
X91022608Y-38480794D01*
X91027961Y-38405801D01*
X91032545Y-38324504D01*
X91053245Y-37912003D01*
X90778875Y-37912003D01*
X90504515Y-37912003D01*
X90504515Y-38164861D01*
X90503484Y-38250551D01*
X90500171Y-38319157D01*
X90494240Y-38372786D01*
X90485359Y-38413541D01*
X90473196Y-38443530D01*
X90457415Y-38464858D01*
X90451360Y-38470036D01*
X90443696Y-38474829D01*
X90434056Y-38479251D01*
X90422071Y-38483315D01*
X90407375Y-38487037D01*
X90389598Y-38490431D01*
X90368373Y-38493512D01*
X90343332Y-38496294D01*
X90314106Y-38498791D01*
X90280329Y-38501019D01*
X90241631Y-38502990D01*
X90197646Y-38504721D01*
X90148004Y-38506225D01*
X90092339Y-38507518D01*
X90030281Y-38508613D01*
X89961464Y-38509524D01*
X89885518Y-38510267D01*
X89802077Y-38510856D01*
X89710772Y-38511306D01*
X89611236Y-38511630D01*
X89503099Y-38511844D01*
X89385995Y-38511962D01*
X89259555Y-38511998D01*
X89133115Y-38511962D01*
X89016011Y-38511844D01*
X88907875Y-38511631D01*
X88808339Y-38511307D01*
X88717035Y-38510859D01*
X88633595Y-38510270D01*
X88557650Y-38509528D01*
X88488834Y-38508617D01*
X88426777Y-38507523D01*
X88371112Y-38506232D01*
X88321471Y-38504728D01*
X88277487Y-38502998D01*
X88238790Y-38501027D01*
X88205012Y-38498800D01*
X88175787Y-38496303D01*
X88150746Y-38493521D01*
X88129521Y-38490440D01*
X88111743Y-38487045D01*
X88097046Y-38483322D01*
X88085060Y-38479256D01*
X88075419Y-38474833D01*
X88067753Y-38470039D01*
X88061695Y-38464858D01*
X88055817Y-38457973D01*
X88050437Y-38449278D01*
X88045536Y-38438327D01*
X88041091Y-38424675D01*
X88037081Y-38407878D01*
X88033484Y-38387490D01*
X88030280Y-38363067D01*
X88027447Y-38334164D01*
X88024963Y-38300335D01*
X88022807Y-38261137D01*
X88020959Y-38216123D01*
X88019395Y-38164850D01*
X88018095Y-38106871D01*
X88017038Y-38041743D01*
X88016203Y-37969020D01*
X88015567Y-37888258D01*
X88015110Y-37799011D01*
X88014809Y-37700834D01*
X88014645Y-37593284D01*
X88014595Y-37475914D01*
X88014616Y-37347177D01*
X88014707Y-37230672D01*
X88014905Y-37125765D01*
X88015251Y-37031824D01*
X88015782Y-36948213D01*
X88016539Y-36874301D01*
X88017559Y-36809453D01*
X88018883Y-36753036D01*
X88020548Y-36704416D01*
X88022595Y-36662961D01*
X88025061Y-36628035D01*
X88027987Y-36599007D01*
X88031410Y-36575242D01*
X88035371Y-36556108D01*
X88039907Y-36540970D01*
X88045059Y-36529195D01*
X88050864Y-36520150D01*
X88057363Y-36513200D01*
X88064593Y-36507714D01*
X88072595Y-36503057D01*
X88079663Y-36500518D01*
X88091157Y-36498079D01*
X88107028Y-36495740D01*
X88127226Y-36493503D01*
X88151703Y-36491369D01*
X88180409Y-36489339D01*
X88213296Y-36487415D01*
X88250314Y-36485597D01*
X88291413Y-36483888D01*
X88336546Y-36482288D01*
X88385663Y-36480799D01*
X88438715Y-36479422D01*
X88495652Y-36478158D01*
X88556426Y-36477008D01*
X88620988Y-36475974D01*
X88689288Y-36475057D01*
X88761278Y-36474258D01*
X88836908Y-36473578D01*
X88916129Y-36473019D01*
X88998893Y-36472582D01*
X89085149Y-36472269D01*
X89174850Y-36472080D01*
X89267945Y-36472017D01*
X89381397Y-36471966D01*
X89487719Y-36471853D01*
X89587141Y-36471737D01*
X89679896Y-36471678D01*
X89766212Y-36471734D01*
X89846321Y-36471964D01*
X89920453Y-36472428D01*
X89988839Y-36473185D01*
X90051710Y-36474294D01*
X90109295Y-36475814D01*
X90161827Y-36477804D01*
X90209535Y-36480323D01*
X90252650Y-36483431D01*
X90291403Y-36487187D01*
X90326023Y-36491649D01*
X90356743Y-36496877D01*
X90383792Y-36502931D01*
X90407402Y-36509868D01*
X90427802Y-36517749D01*
X90445223Y-36526633D01*
X90459897Y-36536578D01*
X90472053Y-36547643D01*
X90481922Y-36559889D01*
X90489735Y-36573374D01*
X90495723Y-36588157D01*
X90500116Y-36604297D01*
X90503144Y-36621854D01*
X90505039Y-36640886D01*
X90506031Y-36661453D01*
X90506350Y-36683615D01*
X90506227Y-36707429D01*
X90505894Y-36732955D01*
X90505579Y-36760252D01*
X90505515Y-36789381D01*
X90507109Y-36853265D01*
X90511142Y-36909832D01*
X90517556Y-36958698D01*
X90526295Y-36999479D01*
X90537300Y-37031792D01*
X90550515Y-37055253D01*
X90573806Y-37092472D01*
X90588918Y-37130599D01*
X90596503Y-37168797D01*
X90597214Y-37206228D01*
X90591702Y-37242057D01*
X90580621Y-37275446D01*
X90564623Y-37305558D01*
X90544360Y-37331556D01*
X90520484Y-37352605D01*
X90493648Y-37367866D01*
X90464503Y-37376503D01*
X90433704Y-37377680D01*
X90401901Y-37370559D01*
X90369747Y-37354303D01*
X90337895Y-37328077D01*
X90306732Y-37291323D01*
X90284436Y-37252689D01*
X90271082Y-37212857D01*
X90266746Y-37172513D01*
X90271503Y-37132341D01*
X90285427Y-37093026D01*
X90308595Y-37055253D01*
X90326724Y-37020210D01*
X90340353Y-36972156D01*
X90349155Y-36916301D01*
X90352806Y-36857859D01*
X90350980Y-36802041D01*
X90343351Y-36754060D01*
X90329595Y-36719128D01*
X90325379Y-36715056D01*
X90317942Y-36711291D01*
X90307041Y-36707825D01*
X90292434Y-36704653D01*
X90273879Y-36701768D01*
X90251135Y-36699162D01*
X90223958Y-36696829D01*
X90192108Y-36694763D01*
X90155341Y-36692957D01*
X90113415Y-36691404D01*
X90066089Y-36690097D01*
X90013121Y-36689030D01*
X89954268Y-36688196D01*
X89889288Y-36687589D01*
X89817940Y-36687201D01*
X89739980Y-36687027D01*
X89655168Y-36687059D01*
X89563260Y-36687291D01*
X89464015Y-36687715D01*
X89357191Y-36688327D01*
X89242545Y-36689118D01*
X88179565Y-36697018D01*
X88179565Y-37492020D01*
X88179565Y-38287017D01*
X89242545Y-38294917D01*
X89357191Y-38295714D01*
X89464015Y-38296332D01*
X89563260Y-38296763D01*
X89655168Y-38297000D01*
X89739980Y-38297036D01*
X89817940Y-38296866D01*
X89889288Y-38296482D01*
X89954268Y-38295877D01*
X90013121Y-38295045D01*
X90066089Y-38293980D01*
X90113415Y-38292674D01*
X90155341Y-38291120D01*
X90192108Y-38289313D01*
X90223958Y-38287245D01*
X90251135Y-38284909D01*
X90273879Y-38282300D01*
X90292434Y-38279409D01*
X90307041Y-38276232D01*
X90317942Y-38272760D01*
X90325379Y-38268987D01*
X90329595Y-38264907D01*
X90335979Y-38245449D01*
X90341769Y-38209853D01*
X90346720Y-38161041D01*
X90350588Y-38101934D01*
X90353127Y-38035453D01*
X90354095Y-37964520D01*
X90354445Y-37702017D01*
X90762205Y-37702017D01*
X91169965Y-37702017D01*
X91159165Y-38279520D01*
X91157032Y-38382383D01*
X91154845Y-38473230D01*
X91152498Y-38553075D01*
X91149882Y-38622928D01*
X91146889Y-38683805D01*
X91143411Y-38736716D01*
X91139340Y-38782674D01*
X91134568Y-38822693D01*
X91128987Y-38857785D01*
X91122489Y-38888962D01*
X91114965Y-38917238D01*
X91106309Y-38943624D01*
X91096412Y-38969135D01*
X91085165Y-38994782D01*
X91061678Y-39041096D01*
X91035513Y-39083359D01*
X91006518Y-39121691D01*
X90974539Y-39156213D01*
X90939422Y-39187047D01*
X90901015Y-39214313D01*
X90859163Y-39238132D01*
X90813713Y-39258625D01*
X90764511Y-39275914D01*
X90711405Y-39290120D01*
X90697981Y-39292647D01*
X90680227Y-39295062D01*
X90658306Y-39297367D01*
X90632379Y-39299561D01*
X90602605Y-39301645D01*
X90569148Y-39303620D01*
X90532167Y-39305487D01*
X90491824Y-39307247D01*
X90448281Y-39308899D01*
X90401698Y-39310445D01*
X90352236Y-39311885D01*
X90300057Y-39313220D01*
X90245322Y-39314450D01*
X90188191Y-39315577D01*
X90128827Y-39316601D01*
X90067390Y-39317523D01*
X90004042Y-39318342D01*
X89938943Y-39319061D01*
X89872255Y-39319679D01*
X89804139Y-39320197D01*
X89734757Y-39320616D01*
X89664268Y-39320937D01*
X89592835Y-39321160D01*
X89520619Y-39321286D01*
X89447780Y-39321316D01*
X89374480Y-39321249D01*
X89300881Y-39321088D01*
X89227142Y-39320832D01*
X89153427Y-39320482D01*
X89079894Y-39320039D01*
X89006707Y-39319504D01*
X88934025Y-39318877D01*
X88862011Y-39318158D01*
X88790825Y-39317350D01*
X88720628Y-39316451D01*
X88651582Y-39315463D01*
X88583847Y-39314387D01*
X88517586Y-39313223D01*
X88452959Y-39311971D01*
X88390126Y-39310633D01*
X88329251Y-39309209D01*
X88270492Y-39307700D01*
X88214013Y-39306107D01*
X88159974Y-39304430D01*
X88108535Y-39302669D01*
X88059859Y-39300826D01*
X88014106Y-39298901D01*
X87971438Y-39296894D01*
X87932015Y-39294808D01*
X87895999Y-39292641D01*
X87863552Y-39290395D01*
X87834833Y-39288070D01*
X87810005Y-39285668D01*
X87789229Y-39283188D01*
X87772665Y-39280632D01*
X87760475Y-39278000D01*
X87760585Y-39277926D01*
X87712744Y-39262875D01*
X87667716Y-39244193D01*
X87625575Y-39221956D01*
X87586390Y-39196242D01*
X87550232Y-39167128D01*
X87517174Y-39134690D01*
X87487285Y-39099006D01*
X87460637Y-39060152D01*
X87437301Y-39018207D01*
X87417348Y-38973245D01*
X87400849Y-38925346D01*
X87387875Y-38874584D01*
X87385273Y-38859911D01*
X87382774Y-38840770D01*
X87380379Y-38817339D01*
X87378086Y-38789797D01*
X87375897Y-38758324D01*
X87373811Y-38723097D01*
X87371829Y-38684295D01*
X87369949Y-38642098D01*
X87368173Y-38596683D01*
X87366499Y-38548229D01*
X87364928Y-38496916D01*
X87363460Y-38442922D01*
X87362095Y-38386425D01*
X87360833Y-38327604D01*
X87359674Y-38266638D01*
X87358617Y-38203706D01*
X87357663Y-38138986D01*
X87356812Y-38072657D01*
X87356063Y-38004897D01*
X87355417Y-37935886D01*
X87354873Y-37865802D01*
X87354431Y-37794824D01*
X87354092Y-37723130D01*
X87353855Y-37650899D01*
X87353721Y-37578310D01*
X87353689Y-37505541D01*
X87353759Y-37432771D01*
X87353931Y-37360180D01*
X87354205Y-37287944D01*
X87354581Y-37216244D01*
X87355060Y-37145258D01*
X87355640Y-37075165D01*
X87356322Y-37006143D01*
X87357106Y-36938371D01*
X87357992Y-36872027D01*
X87358980Y-36807291D01*
X87360069Y-36744341D01*
X87361260Y-36683355D01*
X87362553Y-36624513D01*
X87363947Y-36567994D01*
X87365443Y-36513975D01*
X87367040Y-36462635D01*
X87368739Y-36414154D01*
X87370539Y-36368709D01*
X87372440Y-36326480D01*
X87374443Y-36287646D01*
X87376547Y-36252384D01*
X87378753Y-36220874D01*
X87381059Y-36193294D01*
X87383467Y-36169823D01*
X87385975Y-36150640D01*
X87388585Y-36135924D01*
X87401171Y-36088245D01*
X87418081Y-36041932D01*
X87439022Y-35997309D01*
X87463698Y-35954702D01*
X87491814Y-35914435D01*
X87523076Y-35876834D01*
X87557190Y-35842223D01*
X87593859Y-35810928D01*
X87632790Y-35783274D01*
X87673688Y-35759586D01*
X87716258Y-35740188D01*
X87760205Y-35725407D01*
X87770239Y-35723288D01*
X87784726Y-35721237D01*
X87803504Y-35719255D01*
X87826412Y-35717341D01*
X87853290Y-35715495D01*
X87883977Y-35713719D01*
X87918310Y-35712012D01*
X87956131Y-35710375D01*
X87997276Y-35708808D01*
X88041587Y-35707310D01*
X88088900Y-35705883D01*
X88139056Y-35704526D01*
X88191893Y-35703241D01*
X88247251Y-35702026D01*
X88304968Y-35700883D01*
X88364883Y-35699811D01*
X88426836Y-35698811D01*
X88490665Y-35697883D01*
X88556210Y-35697028D01*
X88623309Y-35696245D01*
X88691801Y-35695535D01*
X88761525Y-35694899D01*
X88832321Y-35694336D01*
X88904027Y-35693846D01*
X88976482Y-35693430D01*
X89049526Y-35693089D01*
X89122997Y-35692822D01*
X89196734Y-35692630D01*
X89270577Y-35692512D01*
X89344364Y-35692470D01*
X89417934Y-35692503D01*
G37*
%TD*%
M02*
