G04 #@! TF.GenerationSoftware,KiCad,Pcbnew,10.0.1*
G04 #@! TF.CreationDate,2026-05-01T15:35:52-04:00*
G04 #@! TF.ProjectId,NYCresistor-test2,4e594372-6573-4697-9374-6f722d746573,rev?*
G04 #@! TF.SameCoordinates,Original*
G04 #@! TF.FileFunction,Soldermask,Bot*
G04 #@! TF.FilePolarity,Negative*
%FSLAX46Y46*%
G04 Gerber Fmt 4.6, Leading zero omitted, Abs format (unit mm)*
G04 Created by KiCad (PCBNEW 10.0.1) date 2026-05-01 15:35:52*
%MOMM*%
%LPD*%
G01*
G04 APERTURE LIST*
%ADD10C,0.000000*%
G04 APERTURE END LIST*
D10*
G04 #@! TO.C,svg2mod*
G36*
X105735553Y-98933327D02*
G01*
X104003567Y-98933327D01*
X104003567Y-90935506D01*
X105735553Y-90935506D01*
X105735553Y-98933327D01*
G37*
G36*
X97805823Y-92634928D02*
G01*
X95974134Y-92634928D01*
X95974134Y-98932716D01*
X94240868Y-98932716D01*
X94240868Y-92634928D01*
X92441134Y-92634928D01*
X92441134Y-90969407D01*
X97805823Y-90969407D01*
X97805823Y-92634928D01*
G37*
G36*
X116930675Y-98931438D02*
G01*
X112432619Y-98931438D01*
X112432619Y-97365619D01*
X115198687Y-97365619D01*
X115198687Y-95700099D01*
X112432619Y-95700099D01*
X112432619Y-94134279D01*
X115198687Y-94134279D01*
X115198687Y-92535227D01*
X112432619Y-92535227D01*
X112432619Y-90936174D01*
X116930675Y-90936174D01*
X116930675Y-98931438D01*
G37*
G36*
X83545481Y-90942705D02*
G01*
X83545481Y-90961556D01*
X83545481Y-90992457D01*
X83545481Y-91034986D01*
X83545481Y-91088720D01*
X83545481Y-91153236D01*
X83545481Y-91228111D01*
X83545481Y-91312923D01*
X83545481Y-91407247D01*
X83545481Y-91510662D01*
X83545481Y-91622745D01*
X83545481Y-91743072D01*
X83545481Y-91871222D01*
X83545481Y-92006770D01*
X83545481Y-92149295D01*
X83545481Y-92298373D01*
X83545481Y-92453581D01*
X83545481Y-92614497D01*
X83545481Y-92780698D01*
X83545481Y-92951761D01*
X83545481Y-93127262D01*
X83545481Y-93306780D01*
X83545481Y-93489891D01*
X83545481Y-93676173D01*
X83545481Y-93865202D01*
X83545481Y-94056555D01*
X83545481Y-94249811D01*
X83545481Y-94444546D01*
X83545481Y-94640336D01*
X83545481Y-94836760D01*
X83545481Y-95033395D01*
X83545481Y-95229817D01*
X83545481Y-95425603D01*
X83545481Y-95620332D01*
X83545481Y-95813579D01*
X83545481Y-96004923D01*
X83545481Y-96193939D01*
X83545481Y-96380206D01*
X83545481Y-96563301D01*
X83545481Y-96742800D01*
X83545481Y-96918281D01*
X83545481Y-97089321D01*
X83545481Y-97255497D01*
X83545481Y-97416386D01*
X83545481Y-97571566D01*
X83545481Y-97720613D01*
X83545481Y-97863105D01*
X83545481Y-97998618D01*
X83545481Y-98126730D01*
X83545481Y-98247019D01*
X83545481Y-98359060D01*
X83545481Y-98462432D01*
X83545481Y-98556711D01*
X83545481Y-98641475D01*
X83545481Y-98716301D01*
X83545481Y-98780765D01*
X83545481Y-98834445D01*
X83545481Y-98876919D01*
X83545481Y-98907763D01*
X83545481Y-98926554D01*
X83545481Y-98932870D01*
X81813493Y-98932870D01*
X81813493Y-95834465D01*
X81617926Y-95834465D01*
X79544653Y-98932870D01*
X77545518Y-98932870D01*
X79795184Y-95599273D01*
X79665351Y-95539483D01*
X79541920Y-95476332D01*
X79424895Y-95409816D01*
X79314278Y-95339931D01*
X79210075Y-95266674D01*
X79112287Y-95190041D01*
X79020919Y-95110029D01*
X78935974Y-95026635D01*
X78857456Y-94939854D01*
X78785368Y-94849684D01*
X78719713Y-94756121D01*
X78660495Y-94659162D01*
X78607718Y-94558802D01*
X78551815Y-94438595D01*
X78501235Y-94319207D01*
X78455980Y-94200631D01*
X78416049Y-94082862D01*
X78381442Y-93965894D01*
X78352159Y-93849721D01*
X78328200Y-93734338D01*
X78309566Y-93619738D01*
X78296255Y-93505916D01*
X78288269Y-93392866D01*
X78287849Y-93375170D01*
X80104514Y-93375170D01*
X80109145Y-93499963D01*
X80123039Y-93617192D01*
X80146198Y-93726858D01*
X80178623Y-93828960D01*
X80220316Y-93923500D01*
X80271278Y-94010476D01*
X80331511Y-94089890D01*
X80401017Y-94161740D01*
X80479797Y-94226027D01*
X80567852Y-94282751D01*
X80665185Y-94331911D01*
X80771796Y-94373509D01*
X80887687Y-94407543D01*
X81012861Y-94434014D01*
X81147318Y-94452922D01*
X81291060Y-94464267D01*
X81444088Y-94468048D01*
X81813493Y-94468048D01*
X81813493Y-92402445D01*
X81711141Y-92402445D01*
X81521302Y-92402445D01*
X81419802Y-92402445D01*
X81269651Y-92406577D01*
X81127888Y-92418962D01*
X80994514Y-92439586D01*
X80869528Y-92468433D01*
X80752931Y-92505489D01*
X80644721Y-92550738D01*
X80544900Y-92604167D01*
X80453468Y-92665758D01*
X80360888Y-92744564D01*
X80282551Y-92830883D01*
X80218458Y-92924715D01*
X80168607Y-93026060D01*
X80133000Y-93134917D01*
X80111635Y-93251287D01*
X80104514Y-93375170D01*
X78287849Y-93375170D01*
X78285607Y-93280582D01*
X78288726Y-93138648D01*
X78298082Y-93000700D01*
X78313677Y-92866735D01*
X78335509Y-92736752D01*
X78363578Y-92610748D01*
X78397886Y-92488720D01*
X78438431Y-92370666D01*
X78485214Y-92256585D01*
X78538234Y-92146474D01*
X78597493Y-92040330D01*
X78662989Y-91938152D01*
X78734722Y-91839936D01*
X78812694Y-91745682D01*
X78896903Y-91655386D01*
X78987350Y-91569046D01*
X79077045Y-91492427D01*
X79170694Y-91420752D01*
X79268298Y-91354020D01*
X79369857Y-91292231D01*
X79475370Y-91235385D01*
X79584837Y-91183483D01*
X79698259Y-91136523D01*
X79815636Y-91094507D01*
X79936967Y-91057433D01*
X80062253Y-91025303D01*
X80191493Y-90998116D01*
X80324687Y-90975872D01*
X80461836Y-90958571D01*
X80602939Y-90946213D01*
X80747997Y-90938799D01*
X80897010Y-90936327D01*
X83545481Y-90936327D01*
X83545481Y-90942705D01*
G37*
G36*
X123627818Y-90942705D02*
G01*
X123627818Y-90961556D01*
X123627818Y-90992457D01*
X123627818Y-91034986D01*
X123627818Y-91088720D01*
X123627818Y-91153236D01*
X123627818Y-91228111D01*
X123627818Y-91312923D01*
X123627818Y-91407247D01*
X123627818Y-91510662D01*
X123627818Y-91622745D01*
X123627818Y-91743072D01*
X123627818Y-91871222D01*
X123627818Y-92006770D01*
X123627818Y-92149295D01*
X123627818Y-92298373D01*
X123627818Y-92453581D01*
X123627818Y-92614497D01*
X123627818Y-92780698D01*
X123627818Y-92951761D01*
X123627818Y-93127262D01*
X123627818Y-93306780D01*
X123627818Y-93489891D01*
X123627818Y-93676173D01*
X123627818Y-93865202D01*
X123627818Y-94056555D01*
X123627818Y-94249811D01*
X123627818Y-94444546D01*
X123627818Y-94640336D01*
X123627818Y-94836760D01*
X123627818Y-95033395D01*
X123627818Y-95229817D01*
X123627818Y-95425603D01*
X123627818Y-95620332D01*
X123627818Y-95813579D01*
X123627818Y-96004923D01*
X123627818Y-96193939D01*
X123627818Y-96380206D01*
X123627818Y-96563301D01*
X123627818Y-96742800D01*
X123627818Y-96918281D01*
X123627818Y-97089321D01*
X123627818Y-97255497D01*
X123627818Y-97416386D01*
X123627818Y-97571566D01*
X123627818Y-97720613D01*
X123627818Y-97863105D01*
X123627818Y-97998618D01*
X123627818Y-98126730D01*
X123627818Y-98247019D01*
X123627818Y-98359060D01*
X123627818Y-98462432D01*
X123627818Y-98556711D01*
X123627818Y-98641475D01*
X123627818Y-98716301D01*
X123627818Y-98780765D01*
X123627818Y-98834445D01*
X123627818Y-98876919D01*
X123627818Y-98907763D01*
X123627818Y-98926554D01*
X123627818Y-98932870D01*
X121895830Y-98932870D01*
X121895830Y-95834465D01*
X121700262Y-95834465D01*
X119626990Y-98932870D01*
X117627854Y-98932870D01*
X119877521Y-95599273D01*
X119747960Y-95539483D01*
X119624760Y-95476332D01*
X119507927Y-95409816D01*
X119397469Y-95339931D01*
X119293391Y-95266674D01*
X119195702Y-95190041D01*
X119104408Y-95110029D01*
X119019516Y-95026635D01*
X118941033Y-94939854D01*
X118868966Y-94849684D01*
X118803323Y-94756121D01*
X118744109Y-94659162D01*
X118691333Y-94558802D01*
X118635429Y-94438595D01*
X118584850Y-94319207D01*
X118539594Y-94200631D01*
X118499663Y-94082862D01*
X118465056Y-93965894D01*
X118435773Y-93849721D01*
X118411815Y-93734338D01*
X118393180Y-93619738D01*
X118379870Y-93505916D01*
X118371884Y-93392866D01*
X118371464Y-93375170D01*
X120186850Y-93375170D01*
X120191481Y-93499963D01*
X120205375Y-93617192D01*
X120228534Y-93726858D01*
X120260959Y-93828960D01*
X120302652Y-93923500D01*
X120353614Y-94010476D01*
X120413848Y-94089890D01*
X120483353Y-94161740D01*
X120562133Y-94226027D01*
X120650188Y-94282751D01*
X120747521Y-94331911D01*
X120854132Y-94373509D01*
X120970024Y-94407543D01*
X121095197Y-94434014D01*
X121229654Y-94452922D01*
X121373396Y-94464267D01*
X121526424Y-94468048D01*
X121895830Y-94468048D01*
X121895830Y-92402445D01*
X121793762Y-92402445D01*
X121604206Y-92402445D01*
X121502138Y-92402445D01*
X121351987Y-92406577D01*
X121210225Y-92418962D01*
X121076850Y-92439586D01*
X120951865Y-92468433D01*
X120835267Y-92505489D01*
X120727058Y-92550738D01*
X120627237Y-92604167D01*
X120535804Y-92665758D01*
X120443224Y-92744564D01*
X120364888Y-92830883D01*
X120300794Y-92924715D01*
X120250944Y-93026060D01*
X120215336Y-93134917D01*
X120193972Y-93251287D01*
X120186850Y-93375170D01*
X118371464Y-93375170D01*
X118369221Y-93280582D01*
X118372340Y-93138648D01*
X118381697Y-93000700D01*
X118397291Y-92866735D01*
X118419123Y-92736752D01*
X118447193Y-92610748D01*
X118481500Y-92488720D01*
X118522045Y-92370666D01*
X118568828Y-92256585D01*
X118621849Y-92146474D01*
X118681107Y-92040330D01*
X118746603Y-91938152D01*
X118818337Y-91839936D01*
X118896308Y-91745682D01*
X118980517Y-91655386D01*
X119070964Y-91569046D01*
X119160659Y-91492427D01*
X119254309Y-91420752D01*
X119351913Y-91354020D01*
X119453471Y-91292231D01*
X119558984Y-91235385D01*
X119668452Y-91183483D01*
X119781874Y-91136523D01*
X119899251Y-91094507D01*
X120020582Y-91057433D01*
X120145867Y-91025303D01*
X120275107Y-90998116D01*
X120408302Y-90975872D01*
X120545451Y-90958571D01*
X120686554Y-90946213D01*
X120831612Y-90938799D01*
X120980624Y-90936327D01*
X123627818Y-90936327D01*
X123627818Y-90942705D01*
G37*
G36*
X100612733Y-90851246D02*
G01*
X100747513Y-90859020D01*
X100878994Y-90871977D01*
X101007174Y-90890117D01*
X101132051Y-90913440D01*
X101253623Y-90941945D01*
X101371888Y-90975633D01*
X101486846Y-91014504D01*
X101598492Y-91058557D01*
X101706827Y-91107794D01*
X101811847Y-91162213D01*
X101913551Y-91221815D01*
X102011938Y-91286600D01*
X102107004Y-91356567D01*
X102198749Y-91431718D01*
X102287171Y-91512051D01*
X102376390Y-91602293D01*
X102459472Y-91696111D01*
X102536414Y-91793505D01*
X102607213Y-91894470D01*
X102671868Y-91999005D01*
X102730376Y-92107108D01*
X102782735Y-92218776D01*
X102828942Y-92334008D01*
X102868996Y-92452800D01*
X102902894Y-92575151D01*
X102930634Y-92701058D01*
X102952213Y-92830519D01*
X102967630Y-92963532D01*
X102976882Y-93100094D01*
X102979966Y-93240204D01*
X102976608Y-93359737D01*
X102966525Y-93478672D01*
X102949701Y-93597007D01*
X102926121Y-93714743D01*
X102895771Y-93831880D01*
X102858635Y-93948418D01*
X102814699Y-94064356D01*
X102763947Y-94179695D01*
X102700483Y-94306232D01*
X102632816Y-94423958D01*
X102560967Y-94532831D01*
X102484960Y-94632804D01*
X102404816Y-94723833D01*
X102320557Y-94805874D01*
X102232207Y-94878882D01*
X102164564Y-94927161D01*
X102088178Y-94976139D01*
X102003048Y-95025822D01*
X101909176Y-95076218D01*
X101806560Y-95127336D01*
X101695202Y-95179182D01*
X101575100Y-95231764D01*
X101446256Y-95285090D01*
X101308668Y-95339167D01*
X101162337Y-95394004D01*
X100992078Y-95458308D01*
X100833576Y-95523909D01*
X100686830Y-95590809D01*
X100551835Y-95659012D01*
X100428592Y-95728519D01*
X100317097Y-95799333D01*
X100217348Y-95871456D01*
X100129342Y-95944889D01*
X100053078Y-96019637D01*
X99988553Y-96095700D01*
X99935765Y-96173081D01*
X99894712Y-96251782D01*
X99865391Y-96331806D01*
X99847800Y-96413154D01*
X99841936Y-96495830D01*
X99849919Y-96596602D01*
X99873845Y-96695705D01*
X99913677Y-96793176D01*
X99969380Y-96889048D01*
X100040919Y-96983358D01*
X100128258Y-97076141D01*
X100224130Y-97160504D01*
X100321316Y-97229528D01*
X100419852Y-97283213D01*
X100519772Y-97321560D01*
X100621112Y-97344568D01*
X100723908Y-97352237D01*
X100826537Y-97347586D01*
X100930304Y-97333636D01*
X101035212Y-97310389D01*
X101141265Y-97277850D01*
X101248467Y-97236022D01*
X101356821Y-97184908D01*
X101466330Y-97124513D01*
X101576998Y-97054838D01*
X101688828Y-96975889D01*
X101801825Y-96887668D01*
X101915991Y-96790179D01*
X102031330Y-96683425D01*
X102147845Y-96567410D01*
X103279069Y-97887811D01*
X103169013Y-97991553D01*
X103058816Y-98090477D01*
X102948479Y-98184582D01*
X102838004Y-98273868D01*
X102727392Y-98358334D01*
X102616644Y-98437979D01*
X102505763Y-98512803D01*
X102394749Y-98582805D01*
X102283604Y-98647984D01*
X102172329Y-98708340D01*
X102060926Y-98763871D01*
X101949396Y-98814577D01*
X101837741Y-98860457D01*
X101725962Y-98901511D01*
X101614061Y-98937738D01*
X101502039Y-98969137D01*
X101389897Y-98995707D01*
X101277637Y-99017448D01*
X101165260Y-99034359D01*
X101052768Y-99046439D01*
X100940162Y-99053688D01*
X100827444Y-99056104D01*
X100695394Y-99053476D01*
X100565415Y-99045593D01*
X100437510Y-99032452D01*
X100311679Y-99014052D01*
X100187924Y-98990391D01*
X100066247Y-98961468D01*
X99946650Y-98927282D01*
X99829133Y-98887830D01*
X99713698Y-98843111D01*
X99600348Y-98793123D01*
X99489083Y-98737866D01*
X99379905Y-98677337D01*
X99272816Y-98611534D01*
X99167817Y-98540458D01*
X99064909Y-98464104D01*
X98964096Y-98382474D01*
X98865377Y-98295563D01*
X98764837Y-98199592D01*
X98670770Y-98101498D01*
X98583178Y-98001285D01*
X98502063Y-97898956D01*
X98427426Y-97794514D01*
X98359269Y-97687964D01*
X98297595Y-97579310D01*
X98242404Y-97468555D01*
X98193700Y-97355703D01*
X98151483Y-97240757D01*
X98115757Y-97123722D01*
X98086521Y-97004601D01*
X98063780Y-96883398D01*
X98047533Y-96760117D01*
X98037784Y-96634761D01*
X98034534Y-96507334D01*
X98037893Y-96383913D01*
X98047965Y-96262470D01*
X98064738Y-96142994D01*
X98088201Y-96025475D01*
X98118346Y-95909902D01*
X98155160Y-95796265D01*
X98198633Y-95684553D01*
X98248756Y-95574756D01*
X98305516Y-95466863D01*
X98375194Y-95349846D01*
X98449036Y-95239420D01*
X98527013Y-95135584D01*
X98609094Y-95038340D01*
X98695249Y-94947686D01*
X98785448Y-94863623D01*
X98879662Y-94786151D01*
X98977860Y-94715270D01*
X99053917Y-94665577D01*
X99136365Y-94614808D01*
X99225191Y-94562961D01*
X99320384Y-94510036D01*
X99421933Y-94456034D01*
X99529826Y-94400954D01*
X99644052Y-94344797D01*
X99764598Y-94287562D01*
X99891454Y-94229250D01*
X100024608Y-94169861D01*
X100164048Y-94109393D01*
X100322313Y-94041821D01*
X100467916Y-93972425D01*
X100600859Y-93901201D01*
X100721140Y-93828141D01*
X100828760Y-93753237D01*
X100923719Y-93676484D01*
X101006017Y-93597873D01*
X101075653Y-93517398D01*
X101132628Y-93435052D01*
X101176942Y-93350828D01*
X101208595Y-93264719D01*
X101227587Y-93176718D01*
X101233918Y-93086818D01*
X101225635Y-92971164D01*
X101200786Y-92861953D01*
X101159372Y-92759184D01*
X101101392Y-92662858D01*
X101026846Y-92572973D01*
X100941430Y-92495043D01*
X100849388Y-92434537D01*
X100750843Y-92391394D01*
X100645916Y-92365554D01*
X100534732Y-92356954D01*
X100463203Y-92361074D01*
X100383873Y-92373434D01*
X100296735Y-92394033D01*
X100201784Y-92422872D01*
X100099013Y-92459951D01*
X99988418Y-92505270D01*
X99869992Y-92558828D01*
X99743730Y-92620627D01*
X99609625Y-92690665D01*
X99467673Y-92768942D01*
X99317866Y-92855460D01*
X98246718Y-91680776D01*
X98342563Y-91595288D01*
X98440788Y-91514413D01*
X98541392Y-91438156D01*
X98644376Y-91366518D01*
X98749738Y-91299504D01*
X98857481Y-91237117D01*
X98967602Y-91179360D01*
X99080103Y-91126237D01*
X99194984Y-91077750D01*
X99312244Y-91033904D01*
X99431883Y-90994702D01*
X99553902Y-90960146D01*
X99678300Y-90930241D01*
X99805077Y-90904989D01*
X99934234Y-90884395D01*
X100065770Y-90868461D01*
X100199686Y-90857191D01*
X100335981Y-90850587D01*
X100474655Y-90848655D01*
X100612733Y-90851246D01*
G37*
G36*
X109158706Y-90851246D02*
G01*
X109293486Y-90859020D01*
X109424967Y-90871977D01*
X109553147Y-90890117D01*
X109678024Y-90913440D01*
X109799596Y-90941945D01*
X109917862Y-90975633D01*
X110032819Y-91014504D01*
X110144466Y-91058557D01*
X110252800Y-91107794D01*
X110357820Y-91162213D01*
X110459525Y-91221815D01*
X110557911Y-91286600D01*
X110652978Y-91356567D01*
X110744723Y-91431718D01*
X110833144Y-91512051D01*
X110922603Y-91602293D01*
X111005891Y-91696111D01*
X111083011Y-91793505D01*
X111153960Y-91894470D01*
X111218741Y-91999005D01*
X111277351Y-92107108D01*
X111329792Y-92218776D01*
X111376064Y-92334008D01*
X111416166Y-92452800D01*
X111450098Y-92575151D01*
X111477861Y-92701058D01*
X111499455Y-92830519D01*
X111514878Y-92963532D01*
X111524133Y-93100094D01*
X111527218Y-93240204D01*
X111523860Y-93359737D01*
X111513776Y-93478672D01*
X111496952Y-93597007D01*
X111473373Y-93714743D01*
X111443022Y-93831880D01*
X111405887Y-93948418D01*
X111361950Y-94064356D01*
X111311198Y-94179695D01*
X111247735Y-94306232D01*
X111180067Y-94423958D01*
X111108219Y-94532831D01*
X111032211Y-94632804D01*
X110952067Y-94723833D01*
X110867809Y-94805874D01*
X110779459Y-94878882D01*
X110711780Y-94927161D01*
X110635296Y-94976139D01*
X110550024Y-95025822D01*
X110455977Y-95076218D01*
X110353173Y-95127336D01*
X110241625Y-95179182D01*
X110121350Y-95231764D01*
X109992362Y-95285090D01*
X109854677Y-95339167D01*
X109708311Y-95394004D01*
X109538052Y-95458308D01*
X109379550Y-95523909D01*
X109232803Y-95590809D01*
X109097809Y-95659012D01*
X108974565Y-95728519D01*
X108863070Y-95799333D01*
X108763321Y-95871456D01*
X108675315Y-95944889D01*
X108599051Y-96019637D01*
X108534526Y-96095700D01*
X108481738Y-96173081D01*
X108440685Y-96251782D01*
X108411364Y-96331806D01*
X108393773Y-96413154D01*
X108387910Y-96495830D01*
X108395893Y-96596602D01*
X108419818Y-96695705D01*
X108459650Y-96793176D01*
X108515353Y-96889048D01*
X108586892Y-96983358D01*
X108674231Y-97076141D01*
X108770103Y-97160504D01*
X108867290Y-97229528D01*
X108965825Y-97283213D01*
X109065745Y-97321560D01*
X109167085Y-97344568D01*
X109269881Y-97352237D01*
X109372510Y-97347586D01*
X109476277Y-97333636D01*
X109581185Y-97310389D01*
X109687239Y-97277850D01*
X109794440Y-97236022D01*
X109902794Y-97184908D01*
X110012303Y-97124513D01*
X110122971Y-97054838D01*
X110234802Y-96975889D01*
X110347798Y-96887668D01*
X110461964Y-96790179D01*
X110577303Y-96683425D01*
X110693818Y-96567410D01*
X111825043Y-97887811D01*
X111714987Y-97991553D01*
X111604789Y-98090477D01*
X111494453Y-98184582D01*
X111383977Y-98273868D01*
X111273365Y-98358334D01*
X111162618Y-98437979D01*
X111051736Y-98512803D01*
X110940722Y-98582805D01*
X110829577Y-98647984D01*
X110718302Y-98708340D01*
X110606899Y-98763871D01*
X110495370Y-98814577D01*
X110383715Y-98860457D01*
X110271936Y-98901511D01*
X110160034Y-98937738D01*
X110048012Y-98969137D01*
X109935870Y-98995707D01*
X109823610Y-99017448D01*
X109711233Y-99034359D01*
X109598741Y-99046439D01*
X109486135Y-99053688D01*
X109373417Y-99056104D01*
X109241367Y-99053476D01*
X109111389Y-99045593D01*
X108983483Y-99032452D01*
X108857652Y-99014052D01*
X108733898Y-98990391D01*
X108612221Y-98961468D01*
X108492623Y-98927282D01*
X108375106Y-98887830D01*
X108259672Y-98843111D01*
X108146321Y-98793123D01*
X108035056Y-98737866D01*
X107925878Y-98677337D01*
X107818789Y-98611534D01*
X107713790Y-98540458D01*
X107610883Y-98464104D01*
X107510069Y-98382474D01*
X107411350Y-98295563D01*
X107310810Y-98199592D01*
X107216743Y-98101498D01*
X107129151Y-98001285D01*
X107048036Y-97898956D01*
X106973399Y-97794514D01*
X106905242Y-97687964D01*
X106843568Y-97579310D01*
X106788378Y-97468555D01*
X106739673Y-97355703D01*
X106697457Y-97240757D01*
X106661730Y-97123722D01*
X106632495Y-97004601D01*
X106609753Y-96883398D01*
X106593506Y-96760117D01*
X106583757Y-96634761D01*
X106580507Y-96507334D01*
X106583867Y-96383913D01*
X106593938Y-96262470D01*
X106610711Y-96142994D01*
X106634175Y-96025475D01*
X106664319Y-95909902D01*
X106701133Y-95796265D01*
X106744607Y-95684553D01*
X106794729Y-95574756D01*
X106851490Y-95466863D01*
X106921168Y-95349846D01*
X106995010Y-95239420D01*
X107072986Y-95135584D01*
X107155067Y-95038340D01*
X107241222Y-94947686D01*
X107331421Y-94863623D01*
X107425635Y-94786151D01*
X107523833Y-94715270D01*
X107599891Y-94665577D01*
X107682338Y-94614808D01*
X107771164Y-94562961D01*
X107866358Y-94510036D01*
X107967907Y-94456034D01*
X108075799Y-94400954D01*
X108190025Y-94344797D01*
X108310571Y-94287562D01*
X108437427Y-94229250D01*
X108570581Y-94169861D01*
X108710021Y-94109393D01*
X108868286Y-94041821D01*
X109013890Y-93972425D01*
X109146832Y-93901201D01*
X109267113Y-93828141D01*
X109374733Y-93753237D01*
X109469692Y-93676484D01*
X109551990Y-93597873D01*
X109621626Y-93517398D01*
X109678602Y-93435052D01*
X109722916Y-93350828D01*
X109754569Y-93264719D01*
X109773561Y-93176718D01*
X109779891Y-93086818D01*
X109771608Y-92971164D01*
X109746760Y-92861953D01*
X109705345Y-92759184D01*
X109647365Y-92662858D01*
X109572820Y-92572973D01*
X109486780Y-92495043D01*
X109394360Y-92434537D01*
X109295620Y-92391394D01*
X109190622Y-92365554D01*
X109079427Y-92356954D01*
X109007898Y-92361074D01*
X108928568Y-92373434D01*
X108841430Y-92394033D01*
X108746479Y-92422872D01*
X108643708Y-92459951D01*
X108533113Y-92505270D01*
X108414687Y-92558828D01*
X108288425Y-92620627D01*
X108154320Y-92690665D01*
X108012368Y-92768942D01*
X107862562Y-92855460D01*
X106791413Y-91680776D01*
X106887259Y-91595288D01*
X106985485Y-91514413D01*
X107086092Y-91438156D01*
X107189083Y-91366518D01*
X107294457Y-91299504D01*
X107402216Y-91237117D01*
X107512361Y-91179360D01*
X107624894Y-91126237D01*
X107739815Y-91077750D01*
X107857125Y-91033904D01*
X107976826Y-90994702D01*
X108098919Y-90960146D01*
X108223404Y-90930241D01*
X108350284Y-90904989D01*
X108479558Y-90884395D01*
X108611229Y-90868461D01*
X108745296Y-90857191D01*
X108881763Y-90850587D01*
X109020629Y-90848655D01*
X109158706Y-90851246D01*
G37*
G36*
X88449747Y-90872652D02*
G01*
X88581365Y-90878663D01*
X88711465Y-90888681D01*
X88840050Y-90902705D01*
X88967118Y-90920734D01*
X89092672Y-90942768D01*
X89216711Y-90968807D01*
X89339236Y-90998849D01*
X89460247Y-91032895D01*
X89579746Y-91070944D01*
X89697732Y-91112995D01*
X89814207Y-91159047D01*
X89929170Y-91209100D01*
X90042623Y-91263155D01*
X90154565Y-91321209D01*
X90264998Y-91383262D01*
X90373922Y-91449314D01*
X90481338Y-91519365D01*
X90587245Y-91593414D01*
X90691646Y-91671459D01*
X90794539Y-91753502D01*
X90895926Y-91839540D01*
X90995808Y-91929574D01*
X91094184Y-92023603D01*
X91182563Y-92113161D01*
X91267471Y-92204557D01*
X91348908Y-92297788D01*
X91426874Y-92392855D01*
X91501371Y-92489757D01*
X91572398Y-92588492D01*
X91639956Y-92689059D01*
X91704046Y-92791459D01*
X91764667Y-92895689D01*
X91821821Y-93001749D01*
X91875508Y-93109639D01*
X91925728Y-93219357D01*
X91972481Y-93330902D01*
X92015769Y-93444274D01*
X92055591Y-93559472D01*
X92091947Y-93676494D01*
X92124840Y-93795340D01*
X92154268Y-93916010D01*
X92180232Y-94038501D01*
X92202733Y-94162814D01*
X92221771Y-94288948D01*
X92237347Y-94416901D01*
X92249460Y-94546673D01*
X92258113Y-94678262D01*
X92263303Y-94811669D01*
X92265034Y-94946891D01*
X92263366Y-95083124D01*
X92258362Y-95217496D01*
X92250020Y-95350009D01*
X92238341Y-95480663D01*
X92223322Y-95609457D01*
X92204964Y-95736393D01*
X92183265Y-95861471D01*
X92158224Y-95984692D01*
X92129841Y-96106055D01*
X92098115Y-96225562D01*
X92063044Y-96343213D01*
X92024628Y-96459007D01*
X91982867Y-96572947D01*
X91937758Y-96685031D01*
X91889302Y-96795261D01*
X91837497Y-96903637D01*
X91782343Y-97010159D01*
X91723839Y-97114828D01*
X91661983Y-97217645D01*
X91596775Y-97318609D01*
X91528215Y-97417721D01*
X91456300Y-97514982D01*
X91381031Y-97610391D01*
X91302407Y-97703950D01*
X91220426Y-97795659D01*
X91135087Y-97885519D01*
X91043761Y-97976158D01*
X90950470Y-98063092D01*
X90855214Y-98146321D01*
X90757992Y-98225845D01*
X90658802Y-98301666D01*
X90557644Y-98373784D01*
X90454517Y-98442198D01*
X90349420Y-98506910D01*
X90242351Y-98567921D01*
X90133311Y-98625230D01*
X90022297Y-98678838D01*
X89909309Y-98728745D01*
X89794346Y-98774953D01*
X89677407Y-98817461D01*
X89558490Y-98856270D01*
X89437596Y-98891381D01*
X89314722Y-98922794D01*
X89189869Y-98950509D01*
X89063034Y-98974528D01*
X88934218Y-98994850D01*
X88803418Y-99011476D01*
X88670635Y-99024406D01*
X88535867Y-99033642D01*
X88399112Y-99039183D01*
X88262928Y-99040995D01*
X88260371Y-99041029D01*
X88121741Y-99039170D01*
X87985012Y-99033593D01*
X87850185Y-99024298D01*
X87717261Y-99011285D01*
X87586238Y-98994553D01*
X87457117Y-98974104D01*
X87329899Y-98949936D01*
X87204582Y-98922051D01*
X87081167Y-98890447D01*
X86959655Y-98855125D01*
X86840044Y-98816085D01*
X86722335Y-98773327D01*
X86606529Y-98726851D01*
X86492624Y-98676657D01*
X86380621Y-98622745D01*
X86270520Y-98565114D01*
X86162322Y-98503766D01*
X86056025Y-98438699D01*
X85951630Y-98369915D01*
X85849137Y-98297412D01*
X85748547Y-98221191D01*
X85649858Y-98141253D01*
X85553071Y-98057596D01*
X85458186Y-97970221D01*
X85365203Y-97879128D01*
X85275159Y-97785224D01*
X85188785Y-97689419D01*
X85106081Y-97591710D01*
X85027047Y-97492098D01*
X84951684Y-97390582D01*
X84879992Y-97287161D01*
X84811973Y-97181836D01*
X84747626Y-97074605D01*
X84686952Y-96965468D01*
X84629951Y-96854425D01*
X84576624Y-96741475D01*
X84526972Y-96626617D01*
X84480994Y-96509852D01*
X84438692Y-96391178D01*
X84400066Y-96270595D01*
X84365116Y-96148103D01*
X84333843Y-96023702D01*
X84306247Y-95897389D01*
X84282329Y-95769166D01*
X84262089Y-95639032D01*
X84245529Y-95506986D01*
X84232647Y-95373028D01*
X84223446Y-95237156D01*
X84217924Y-95099372D01*
X84216084Y-94959674D01*
X84216263Y-94945613D01*
X86024765Y-94945613D01*
X86027176Y-95085519D01*
X86034411Y-95221951D01*
X86046470Y-95354912D01*
X86063351Y-95484403D01*
X86085056Y-95610426D01*
X86111584Y-95732984D01*
X86142935Y-95852078D01*
X86179110Y-95967710D01*
X86220108Y-96079881D01*
X86265929Y-96188595D01*
X86316573Y-96293851D01*
X86372041Y-96395654D01*
X86432332Y-96494003D01*
X86497446Y-96588902D01*
X86567384Y-96680352D01*
X86642145Y-96768355D01*
X86726167Y-96857319D01*
X86813603Y-96940147D01*
X86904456Y-97016841D01*
X86998731Y-97087398D01*
X87096434Y-97151821D01*
X87197567Y-97210107D01*
X87302137Y-97262259D01*
X87410146Y-97308275D01*
X87521601Y-97348155D01*
X87636505Y-97381900D01*
X87754863Y-97409510D01*
X87876680Y-97430984D01*
X88001960Y-97446322D01*
X88130708Y-97455526D01*
X88262928Y-97458593D01*
X88397650Y-97455032D01*
X88529010Y-97444347D01*
X88657010Y-97426534D01*
X88781654Y-97401591D01*
X88902943Y-97369516D01*
X89020882Y-97330305D01*
X89135472Y-97283957D01*
X89246717Y-97230466D01*
X89354619Y-97169833D01*
X89459181Y-97102052D01*
X89560406Y-97027122D01*
X89658296Y-96945040D01*
X89752855Y-96855802D01*
X89844085Y-96759407D01*
X89924886Y-96664478D01*
X90000099Y-96566311D01*
X90069727Y-96464905D01*
X90133771Y-96360262D01*
X90192235Y-96252380D01*
X90245119Y-96141260D01*
X90292427Y-96026902D01*
X90334161Y-95909306D01*
X90370323Y-95788471D01*
X90400916Y-95664399D01*
X90425941Y-95537088D01*
X90445401Y-95406539D01*
X90459298Y-95272752D01*
X90467635Y-95135727D01*
X90470413Y-94995464D01*
X90468016Y-94856397D01*
X90460826Y-94720567D01*
X90448843Y-94587971D01*
X90432066Y-94458611D01*
X90410497Y-94332487D01*
X90384133Y-94209598D01*
X90352977Y-94089945D01*
X90317027Y-93973527D01*
X90276283Y-93860345D01*
X90230747Y-93750398D01*
X90180417Y-93643686D01*
X90125294Y-93540211D01*
X90065377Y-93439970D01*
X90000667Y-93342965D01*
X89931164Y-93249196D01*
X89856868Y-93158662D01*
X89773307Y-93066834D01*
X89686243Y-92981543D01*
X89595681Y-92902783D01*
X89501629Y-92830547D01*
X89404094Y-92764828D01*
X89303081Y-92705620D01*
X89198599Y-92652915D01*
X89090654Y-92606707D01*
X88979252Y-92566989D01*
X88864401Y-92533755D01*
X88746107Y-92506996D01*
X88624377Y-92486707D01*
X88499219Y-92472881D01*
X88370638Y-92465510D01*
X88238641Y-92464589D01*
X88106473Y-92470059D01*
X87977878Y-92481356D01*
X87852854Y-92498477D01*
X87731395Y-92521420D01*
X87613497Y-92550182D01*
X87499155Y-92584762D01*
X87388365Y-92625157D01*
X87281123Y-92671364D01*
X87177422Y-92723382D01*
X87077260Y-92781208D01*
X86980632Y-92844841D01*
X86887532Y-92914277D01*
X86797957Y-92989514D01*
X86711902Y-93070550D01*
X86629363Y-93157384D01*
X86551511Y-93249314D01*
X86479013Y-93345132D01*
X86411871Y-93444840D01*
X86350087Y-93548441D01*
X86293664Y-93655937D01*
X86242604Y-93767330D01*
X86196909Y-93882622D01*
X86156581Y-94001816D01*
X86121623Y-94124914D01*
X86092037Y-94251919D01*
X86067825Y-94382831D01*
X86048990Y-94517655D01*
X86035533Y-94656392D01*
X86027457Y-94799044D01*
X86024765Y-94945613D01*
X84216263Y-94945613D01*
X84217803Y-94824303D01*
X84222959Y-94690748D01*
X84231553Y-94559008D01*
X84243584Y-94429084D01*
X84259053Y-94300974D01*
X84277960Y-94174680D01*
X84300304Y-94050201D01*
X84326086Y-93927538D01*
X84355306Y-93806689D01*
X84387963Y-93687656D01*
X84424057Y-93570438D01*
X84463589Y-93455035D01*
X84506559Y-93341447D01*
X84552967Y-93229675D01*
X84602811Y-93119718D01*
X84656094Y-93011576D01*
X84712814Y-92905249D01*
X84772972Y-92800738D01*
X84836567Y-92698042D01*
X84903600Y-92597160D01*
X84974070Y-92498095D01*
X85047978Y-92400844D01*
X85125323Y-92305409D01*
X85206107Y-92211789D01*
X85290327Y-92119984D01*
X85377986Y-92029994D01*
X85468276Y-91942483D01*
X85560392Y-91858409D01*
X85654332Y-91777772D01*
X85750097Y-91700572D01*
X85847685Y-91626807D01*
X85947095Y-91556477D01*
X86048326Y-91489583D01*
X86151378Y-91426123D01*
X86256249Y-91366097D01*
X86362939Y-91309504D01*
X86471447Y-91256345D01*
X86581772Y-91206619D01*
X86693913Y-91160325D01*
X86807869Y-91117463D01*
X86923639Y-91078033D01*
X87041223Y-91042033D01*
X87160620Y-91009464D01*
X87281828Y-90980325D01*
X87404848Y-90954616D01*
X87529677Y-90932337D01*
X87656315Y-90913486D01*
X87784762Y-90898063D01*
X87915016Y-90886069D01*
X88047076Y-90877502D01*
X88180942Y-90872362D01*
X88316613Y-90870649D01*
X88449747Y-90872652D01*
G37*
G36*
X152319330Y-88560510D02*
G01*
X152444494Y-88564132D01*
X152569047Y-88570144D01*
X152692966Y-88578521D01*
X152816228Y-88589242D01*
X152938812Y-88602284D01*
X153060696Y-88617626D01*
X153181856Y-88635245D01*
X153302272Y-88655120D01*
X153421920Y-88677227D01*
X153540778Y-88701545D01*
X153658825Y-88728052D01*
X153776038Y-88756725D01*
X153892395Y-88787542D01*
X154007873Y-88820481D01*
X154122450Y-88855520D01*
X154236105Y-88892637D01*
X154348815Y-88931809D01*
X154460557Y-88973015D01*
X154571310Y-89016232D01*
X154681051Y-89061438D01*
X154789758Y-89108610D01*
X154897409Y-89157727D01*
X155003982Y-89208767D01*
X155109454Y-89261707D01*
X155213803Y-89316524D01*
X155317008Y-89373198D01*
X155419045Y-89431706D01*
X155519892Y-89492025D01*
X155619528Y-89554133D01*
X155717930Y-89618009D01*
X155815076Y-89683629D01*
X155910944Y-89750972D01*
X156005511Y-89820016D01*
X156098755Y-89890739D01*
X156190654Y-89963118D01*
X156281186Y-90037131D01*
X156370329Y-90112755D01*
X156458060Y-90189970D01*
X156544358Y-90268752D01*
X156629199Y-90349080D01*
X156712562Y-90430930D01*
X156794424Y-90514282D01*
X156874764Y-90599113D01*
X156953559Y-90685400D01*
X157030786Y-90773122D01*
X157106424Y-90862256D01*
X157180451Y-90952780D01*
X157252844Y-91044673D01*
X157323581Y-91137911D01*
X157392639Y-91232472D01*
X157459998Y-91328335D01*
X157525633Y-91425478D01*
X157589524Y-91523877D01*
X157651647Y-91623511D01*
X157711982Y-91724359D01*
X157770504Y-91826396D01*
X157827193Y-91929602D01*
X157882026Y-92033954D01*
X157934981Y-92139430D01*
X157986035Y-92246008D01*
X158035167Y-92353666D01*
X158082354Y-92462381D01*
X158127574Y-92572131D01*
X158170804Y-92682895D01*
X158212023Y-92794649D01*
X158251209Y-92907373D01*
X158288338Y-93021042D01*
X158323389Y-93135637D01*
X158356340Y-93251133D01*
X158387169Y-93367509D01*
X158415852Y-93484744D01*
X158442369Y-93602814D01*
X158466696Y-93721697D01*
X158488812Y-93841372D01*
X158508694Y-93961816D01*
X158526321Y-94083007D01*
X158541669Y-94204923D01*
X158554717Y-94327541D01*
X158565442Y-94450840D01*
X158573823Y-94574797D01*
X158579837Y-94699390D01*
X158583461Y-94824597D01*
X158584674Y-94950396D01*
X158583462Y-95076195D01*
X158579839Y-95201402D01*
X158573828Y-95325995D01*
X158565451Y-95449952D01*
X158554730Y-95573251D01*
X158541687Y-95695869D01*
X158526345Y-95817785D01*
X158508726Y-95938976D01*
X158488851Y-96059420D01*
X158466744Y-96179095D01*
X158442426Y-96297978D01*
X158415919Y-96416048D01*
X158387246Y-96533282D01*
X158356429Y-96649659D01*
X158323490Y-96765155D01*
X158288451Y-96879749D01*
X158251334Y-96993419D01*
X158212162Y-97106142D01*
X158170956Y-97217897D01*
X158127739Y-97328660D01*
X158082534Y-97438411D01*
X158035361Y-97547126D01*
X157986244Y-97654783D01*
X157935204Y-97761361D01*
X157882265Y-97866838D01*
X157827447Y-97971190D01*
X157770773Y-98074396D01*
X157712266Y-98176433D01*
X157651947Y-98277280D01*
X157589838Y-98376915D01*
X157525963Y-98475314D01*
X157460342Y-98572456D01*
X157392999Y-98668319D01*
X157323955Y-98762881D01*
X157253232Y-98856119D01*
X157180854Y-98948011D01*
X157106841Y-99038536D01*
X157031216Y-99127670D01*
X156954001Y-99215392D01*
X156875219Y-99301679D01*
X156794892Y-99386510D01*
X156713041Y-99469861D01*
X156629689Y-99551712D01*
X156544859Y-99632040D01*
X156458571Y-99710822D01*
X156370849Y-99788036D01*
X156281715Y-99863661D01*
X156191191Y-99937674D01*
X156099299Y-100010053D01*
X156006061Y-100080775D01*
X155911499Y-100149819D01*
X155815636Y-100217163D01*
X155718494Y-100282783D01*
X155620094Y-100346659D01*
X155520460Y-100408767D01*
X155419613Y-100469086D01*
X155317575Y-100527593D01*
X155214369Y-100584267D01*
X155110017Y-100639085D01*
X155004541Y-100692025D01*
X154897963Y-100743064D01*
X154790305Y-100792181D01*
X154681590Y-100839354D01*
X154571840Y-100884560D01*
X154461076Y-100927776D01*
X154349322Y-100968982D01*
X154236599Y-101008154D01*
X154122929Y-101045271D01*
X154008335Y-101080310D01*
X153892838Y-101113250D01*
X153776462Y-101144067D01*
X153659228Y-101172740D01*
X153541158Y-101199246D01*
X153422274Y-101223564D01*
X153302599Y-101245672D01*
X153182155Y-101265546D01*
X153060964Y-101283165D01*
X152939049Y-101298507D01*
X152816430Y-101311550D01*
X152693131Y-101322271D01*
X152569174Y-101330648D01*
X152444581Y-101336659D01*
X152319374Y-101340282D01*
X152262114Y-101340834D01*
X152193575Y-101341495D01*
X152067777Y-101340282D01*
X151942570Y-101336659D01*
X151817976Y-101330648D01*
X151694019Y-101322271D01*
X151570721Y-101311550D01*
X151448102Y-101298507D01*
X151326186Y-101283165D01*
X151204995Y-101265546D01*
X151084551Y-101245672D01*
X150964877Y-101223564D01*
X150845993Y-101199246D01*
X150727923Y-101172740D01*
X150610689Y-101144067D01*
X150494312Y-101113250D01*
X150378816Y-101080310D01*
X150264222Y-101045271D01*
X150150552Y-101008154D01*
X150037829Y-100968982D01*
X149926074Y-100927776D01*
X149815311Y-100884560D01*
X149705560Y-100839354D01*
X149596845Y-100792181D01*
X149489188Y-100743064D01*
X149382610Y-100692025D01*
X149277134Y-100639085D01*
X149172781Y-100584267D01*
X149069576Y-100527593D01*
X148967538Y-100469086D01*
X148866691Y-100408767D01*
X148767057Y-100346659D01*
X148668657Y-100282783D01*
X148571515Y-100217163D01*
X148475652Y-100149819D01*
X148381090Y-100080775D01*
X148287852Y-100010053D01*
X148195960Y-99937674D01*
X148105435Y-99863661D01*
X148016301Y-99788036D01*
X147928579Y-99710822D01*
X147842292Y-99632040D01*
X147757461Y-99551712D01*
X147674110Y-99469861D01*
X147592259Y-99386510D01*
X147511931Y-99301679D01*
X147433149Y-99215392D01*
X147355935Y-99127670D01*
X147280310Y-99038536D01*
X147206297Y-98948011D01*
X147133918Y-98856119D01*
X147063196Y-98762881D01*
X146994152Y-98668319D01*
X146926808Y-98572456D01*
X146861188Y-98475314D01*
X146797312Y-98376915D01*
X146735204Y-98277280D01*
X146674885Y-98176433D01*
X146616378Y-98074396D01*
X146559704Y-97971190D01*
X146504886Y-97866838D01*
X146451946Y-97761361D01*
X146400907Y-97654783D01*
X146351790Y-97547126D01*
X146304617Y-97438411D01*
X146259411Y-97328660D01*
X146216195Y-97217897D01*
X146174989Y-97106142D01*
X146135817Y-96993419D01*
X146098700Y-96879749D01*
X146063661Y-96765155D01*
X146030721Y-96649659D01*
X145999904Y-96533282D01*
X145971231Y-96416048D01*
X145944725Y-96297978D01*
X145920406Y-96179095D01*
X145898299Y-96059420D01*
X145878425Y-95938976D01*
X145860805Y-95817785D01*
X145845463Y-95695869D01*
X145832421Y-95573251D01*
X145821700Y-95449952D01*
X145813323Y-95325995D01*
X145807312Y-95201402D01*
X145803689Y-95076195D01*
X145802519Y-94954880D01*
X146105112Y-94954880D01*
X146107299Y-95078877D01*
X146112005Y-95202837D01*
X146119218Y-95326712D01*
X146128927Y-95450449D01*
X146141119Y-95573998D01*
X146155784Y-95697310D01*
X146172910Y-95820333D01*
X146192486Y-95943017D01*
X146214499Y-96065312D01*
X146238938Y-96187167D01*
X146265792Y-96308531D01*
X146295049Y-96429354D01*
X146326698Y-96549586D01*
X146360726Y-96669177D01*
X146397123Y-96788074D01*
X146435877Y-96906229D01*
X146476976Y-97023591D01*
X146520409Y-97140109D01*
X146566164Y-97255732D01*
X146614230Y-97370411D01*
X146664594Y-97484095D01*
X146717246Y-97596732D01*
X146772174Y-97708274D01*
X146829367Y-97818669D01*
X146888812Y-97927866D01*
X146950499Y-98035816D01*
X147014415Y-98142468D01*
X147080549Y-98247771D01*
X147148890Y-98351675D01*
X147219425Y-98454129D01*
X147292145Y-98555083D01*
X147367036Y-98654487D01*
X147444087Y-98752289D01*
X147523287Y-98848440D01*
X147601509Y-98944773D01*
X147681782Y-99039044D01*
X147764056Y-99131244D01*
X147848283Y-99221366D01*
X147934415Y-99309401D01*
X148022403Y-99395341D01*
X148112198Y-99479178D01*
X148203753Y-99560905D01*
X148297018Y-99640512D01*
X148391946Y-99717992D01*
X148488487Y-99793337D01*
X148586593Y-99866539D01*
X148686216Y-99937589D01*
X148787307Y-100006479D01*
X148889818Y-100073202D01*
X148993700Y-100137750D01*
X149098904Y-100200113D01*
X149205382Y-100260284D01*
X149313086Y-100318256D01*
X149421967Y-100374019D01*
X149531976Y-100427566D01*
X149643066Y-100478889D01*
X149755187Y-100527980D01*
X149868291Y-100574830D01*
X149982330Y-100619431D01*
X150097255Y-100661776D01*
X150213017Y-100701856D01*
X150329568Y-100739663D01*
X150446860Y-100775189D01*
X150564844Y-100808426D01*
X150683471Y-100839366D01*
X150802693Y-100868000D01*
X150922462Y-100894321D01*
X151042729Y-100918321D01*
X151163445Y-100939991D01*
X151284562Y-100959324D01*
X151406032Y-100976311D01*
X151527805Y-100990944D01*
X151649834Y-101003215D01*
X151772070Y-101013116D01*
X151894465Y-101020639D01*
X152016969Y-101025776D01*
X152139535Y-101028518D01*
X152262114Y-101028858D01*
X152384657Y-101026787D01*
X152507116Y-101022298D01*
X152629442Y-101015383D01*
X152751588Y-101006032D01*
X152873503Y-100994238D01*
X152995141Y-100979994D01*
X153116452Y-100963290D01*
X153237388Y-100944120D01*
X153357900Y-100922473D01*
X153477940Y-100898344D01*
X153597459Y-100871723D01*
X153716410Y-100842603D01*
X153834742Y-100810975D01*
X153952409Y-100776831D01*
X154069361Y-100740163D01*
X154185549Y-100700963D01*
X154300926Y-100659224D01*
X154417649Y-100617998D01*
X154533126Y-100574137D01*
X154647333Y-100527683D01*
X154760247Y-100478679D01*
X154871843Y-100427168D01*
X154982098Y-100373195D01*
X155090988Y-100316800D01*
X155198488Y-100258029D01*
X155304576Y-100196924D01*
X155409226Y-100133527D01*
X155512416Y-100067883D01*
X155614121Y-100000033D01*
X155714317Y-99930022D01*
X155812980Y-99857893D01*
X155910087Y-99783688D01*
X156005614Y-99707450D01*
X156099536Y-99629223D01*
X156191831Y-99549050D01*
X156282473Y-99466973D01*
X156371439Y-99383037D01*
X156458705Y-99297284D01*
X156544247Y-99209757D01*
X156628041Y-99120499D01*
X156710064Y-99029553D01*
X156790291Y-98936963D01*
X156868699Y-98842772D01*
X156945263Y-98747022D01*
X157019961Y-98649757D01*
X157092767Y-98551019D01*
X157163657Y-98450853D01*
X157232609Y-98349301D01*
X157299598Y-98246406D01*
X157364600Y-98142211D01*
X157427592Y-98036760D01*
X157488549Y-97930095D01*
X157547447Y-97822259D01*
X157604263Y-97713297D01*
X157658973Y-97603250D01*
X157711552Y-97492161D01*
X157761977Y-97380075D01*
X157810224Y-97267034D01*
X157856270Y-97153081D01*
X157900089Y-97038259D01*
X157941659Y-96922612D01*
X157980955Y-96806182D01*
X158017953Y-96689013D01*
X158052630Y-96571147D01*
X158084961Y-96452628D01*
X158114924Y-96333499D01*
X158142493Y-96213803D01*
X158167644Y-96093583D01*
X158190355Y-95972882D01*
X158210601Y-95851743D01*
X158228358Y-95730210D01*
X158243603Y-95608325D01*
X158256311Y-95486132D01*
X158266458Y-95363673D01*
X158274021Y-95240992D01*
X158278975Y-95118132D01*
X158281297Y-94995136D01*
X158280964Y-94872047D01*
X158277950Y-94748908D01*
X158272232Y-94625762D01*
X158267721Y-94505665D01*
X158260453Y-94385973D01*
X158250461Y-94266717D01*
X158237779Y-94147929D01*
X158222439Y-94029640D01*
X158204473Y-93911882D01*
X158183915Y-93794687D01*
X158160797Y-93678085D01*
X158135153Y-93562110D01*
X158107016Y-93446791D01*
X158076417Y-93332162D01*
X158043391Y-93218252D01*
X158007969Y-93105095D01*
X157970186Y-92992721D01*
X157930073Y-92881163D01*
X157887664Y-92770451D01*
X157842991Y-92660617D01*
X157796088Y-92551694D01*
X157746986Y-92443711D01*
X157695721Y-92336702D01*
X157642323Y-92230697D01*
X157586826Y-92125729D01*
X157529262Y-92021828D01*
X157469666Y-91919026D01*
X157408069Y-91817355D01*
X157344504Y-91716847D01*
X157279005Y-91617533D01*
X157211604Y-91519444D01*
X157142334Y-91422613D01*
X157071228Y-91327070D01*
X156998319Y-91232848D01*
X156923639Y-91139977D01*
X156847222Y-91048490D01*
X156769101Y-90958418D01*
X156689308Y-90869793D01*
X156607876Y-90782646D01*
X156524838Y-90697009D01*
X156440228Y-90612913D01*
X156354077Y-90530390D01*
X156266419Y-90449471D01*
X156177287Y-90370189D01*
X156086713Y-90292574D01*
X155994730Y-90216658D01*
X155901372Y-90142474D01*
X155806671Y-90070051D01*
X155710661Y-89999423D01*
X155613373Y-89930620D01*
X155514841Y-89863674D01*
X155415097Y-89798617D01*
X155314175Y-89735481D01*
X155212108Y-89674296D01*
X155108928Y-89615094D01*
X155004668Y-89557908D01*
X154899362Y-89502768D01*
X154793041Y-89449706D01*
X154685739Y-89398754D01*
X154577489Y-89349943D01*
X154468324Y-89303305D01*
X154358276Y-89258871D01*
X154247378Y-89216674D01*
X154135664Y-89176744D01*
X154023166Y-89139113D01*
X153909917Y-89103813D01*
X153795950Y-89070876D01*
X153681298Y-89040332D01*
X153565993Y-89012214D01*
X153450069Y-88986552D01*
X153333559Y-88963380D01*
X153216495Y-88942727D01*
X153098910Y-88924627D01*
X152980837Y-88909109D01*
X152862309Y-88896207D01*
X152743359Y-88885951D01*
X152624019Y-88878373D01*
X152504324Y-88873505D01*
X152401364Y-88872793D01*
X152298409Y-88871973D01*
X152195461Y-88872126D01*
X152092521Y-88874332D01*
X151967283Y-88875126D01*
X151842288Y-88878846D01*
X151717578Y-88885462D01*
X151593195Y-88894942D01*
X151469180Y-88907254D01*
X151345576Y-88922366D01*
X151222423Y-88940246D01*
X151099765Y-88960864D01*
X150977642Y-88984186D01*
X150856097Y-89010182D01*
X150735170Y-89038819D01*
X150614905Y-89070065D01*
X150495342Y-89103890D01*
X150376524Y-89140261D01*
X150258492Y-89179147D01*
X150141288Y-89220515D01*
X150024954Y-89264334D01*
X149909532Y-89310573D01*
X149795063Y-89359199D01*
X149681589Y-89410181D01*
X149569151Y-89463487D01*
X149457793Y-89519085D01*
X149347555Y-89576944D01*
X149238479Y-89637032D01*
X149130607Y-89699316D01*
X149023981Y-89763766D01*
X148918642Y-89830350D01*
X148814633Y-89899035D01*
X148711995Y-89969790D01*
X148610769Y-90042584D01*
X148510998Y-90117385D01*
X148412724Y-90194160D01*
X148315987Y-90272878D01*
X148220831Y-90353507D01*
X148127296Y-90436017D01*
X148035425Y-90520374D01*
X147945259Y-90606547D01*
X147856840Y-90694504D01*
X147770209Y-90784214D01*
X147685410Y-90875645D01*
X147602482Y-90968765D01*
X147521469Y-91063542D01*
X147442412Y-91159945D01*
X147365352Y-91257942D01*
X147290331Y-91357501D01*
X147217392Y-91458590D01*
X147146576Y-91561178D01*
X147077924Y-91665233D01*
X147011479Y-91770723D01*
X146947282Y-91877617D01*
X146885376Y-91985882D01*
X146825801Y-92095487D01*
X146768599Y-92206400D01*
X146713813Y-92318590D01*
X146661484Y-92432024D01*
X146608108Y-92545116D01*
X146557492Y-92659233D01*
X146509627Y-92774323D01*
X146464500Y-92890336D01*
X146422100Y-93007222D01*
X146382415Y-93124930D01*
X146345434Y-93243409D01*
X146311145Y-93362610D01*
X146279536Y-93482482D01*
X146250597Y-93602973D01*
X146224315Y-93724035D01*
X146200679Y-93845616D01*
X146179677Y-93967665D01*
X146161298Y-94090133D01*
X146145531Y-94212969D01*
X146132363Y-94336122D01*
X146121783Y-94459542D01*
X146113779Y-94583178D01*
X146108341Y-94706980D01*
X146105456Y-94830898D01*
X146105112Y-94954880D01*
X145802519Y-94954880D01*
X145802476Y-94950396D01*
X145803689Y-94824597D01*
X145807314Y-94699390D01*
X145813328Y-94574797D01*
X145821708Y-94450840D01*
X145832434Y-94327541D01*
X145845482Y-94204923D01*
X145860830Y-94083007D01*
X145878456Y-93961816D01*
X145898338Y-93841372D01*
X145920454Y-93721697D01*
X145944782Y-93602814D01*
X145971298Y-93484744D01*
X145999982Y-93367509D01*
X146030810Y-93251133D01*
X146063761Y-93135637D01*
X146098812Y-93021042D01*
X146135942Y-92907373D01*
X146175127Y-92794649D01*
X146216346Y-92682895D01*
X146259577Y-92572131D01*
X146304797Y-92462381D01*
X146351984Y-92353666D01*
X146401115Y-92246008D01*
X146452170Y-92139430D01*
X146505125Y-92033954D01*
X146559957Y-91929602D01*
X146616646Y-91826396D01*
X146675169Y-91724359D01*
X146735503Y-91623511D01*
X146797627Y-91523877D01*
X146861517Y-91425478D01*
X146927153Y-91328335D01*
X146994511Y-91232472D01*
X147063570Y-91137911D01*
X147134307Y-91044673D01*
X147206700Y-90952780D01*
X147280726Y-90862256D01*
X147356365Y-90773122D01*
X147433592Y-90685400D01*
X147512387Y-90599113D01*
X147592727Y-90514282D01*
X147674589Y-90430930D01*
X147757952Y-90349080D01*
X147842793Y-90268752D01*
X147929090Y-90189970D01*
X148016822Y-90112755D01*
X148105964Y-90037131D01*
X148196496Y-89963118D01*
X148288396Y-89890739D01*
X148381640Y-89820016D01*
X148476207Y-89750972D01*
X148572075Y-89683629D01*
X148669221Y-89618009D01*
X148767623Y-89554133D01*
X148867258Y-89492025D01*
X148968106Y-89431706D01*
X149070143Y-89373198D01*
X149173347Y-89316524D01*
X149277697Y-89261707D01*
X149383169Y-89208767D01*
X149489741Y-89157727D01*
X149597393Y-89108610D01*
X149706100Y-89061438D01*
X149815841Y-89016232D01*
X149926594Y-88973015D01*
X150038336Y-88931809D01*
X150151046Y-88892637D01*
X150264700Y-88855520D01*
X150379278Y-88820481D01*
X150494756Y-88787542D01*
X150611113Y-88756725D01*
X150728326Y-88728052D01*
X150846372Y-88701545D01*
X150965231Y-88677227D01*
X151084879Y-88655120D01*
X151205294Y-88635245D01*
X151326455Y-88617626D01*
X151448338Y-88602284D01*
X151570922Y-88589242D01*
X151694185Y-88578521D01*
X151818104Y-88570144D01*
X151942657Y-88564132D01*
X152067821Y-88560510D01*
X152193575Y-88559297D01*
X152319330Y-88560510D01*
G37*
G04 #@! TD*
M02*
