<?xml version="1.0" encoding="UTF-8" standalone="no"?>
<!-- Uploaded to: SVG Repo, www.svgrepo.com, Generator: SVG Repo Mixer Tools -->

<svg
   width="125.15601"
   height="188.97638"
   viewBox="0 0 160.1997 241.88977"
   class="icon"
   version="1.1"
   id="svg208"
   sodipodi:docname="banana-svgrepo-com.svg"
   inkscape:version="1.2.1 (9c6d41e, 2022-07-14)"
   xmlns:inkscape="http://www.inkscape.org/namespaces/inkscape"
   xmlns:sodipodi="http://sodipodi.sourceforge.net/DTD/sodipodi-0.dtd"
   xmlns="http://www.w3.org/2000/svg"
   xmlns:svg="http://www.w3.org/2000/svg">
  <defs
     id="defs212" />
  <sodipodi:namedview
     id="namedview210"
     pagecolor="#ffffff"
     bordercolor="#000000"
     borderopacity="0.25"
     inkscape:showpageshadow="2"
     inkscape:pageopacity="0.0"
     inkscape:pagecheckerboard="0"
     inkscape:deskcolor="#d1d1d1"
     showgrid="false"
     inkscape:zoom="4.4547557"
     inkscape:cx="77.220846"
     inkscape:cy="95.964859"
     inkscape:current-layer="layer2" />
  <g
     inkscape:groupmode="layer"
     id="layer2"
     inkscape:label="F.Mask">
    <path
       id="path2818"
       style="stroke-width:0.238517;fill:#1d7513;fill-opacity:1"
       d="M 87.862502 105.4475 C 87.511426 105.44699 87.347907 105.45817 87.007502 105.46 C 88.864956 147.92143 86.191348 175.03675 78.717501 187.88 L 78.650001 187.99 C 65.16074 209.41695 47.310992 221.12452 25.485 223.01 C 26.721595 224.56427 28.171798 226.07629 29.885001 227.4875 C 28.667911 227.4029 27.453338 227.3238 26.2125 227.1825 C 26.138987 227.8027 26.101873 228.40269 26.0425 229.015 C 31.179447 231.03507 37.061528 232.1175 43.277501 232.1175 C 49.001891 232.1175 64.100408 231.45602 80.932501 225.35 C 95.117064 218.52128 105.34482 211.551 112.195 204.0425 C 117.49484 198.23224 120.78275 192.14586 122.3975 185.05 C 117.30041 179.88135 112.31898 173.16978 110.74 163.04 C 110.678 162.65837 110.68 162.65986 110.68 160.58 L 110.68 129.9525 C 110.68 118.27951 102.34989 107.80067 91.287502 105.53 C 90.730566 105.47395 89.303736 105.44959 87.862502 105.4475 z M 79.820001 109.035 A 40.30929 40.30929 0 0 0 64.022501 140.6975 C 62.82197 155.00688 60.387467 165.23788 56.717501 171.39 C 48.772532 184.71112 30.719076 197.02871 26.8575 201.2075 L 27.095 201.5575 C 23.238196 204.57712 21.02 208.11181 21.02 211.8875 C 21.02 213.19512 21.227505 214.54136 21.625 215.9 C 30.345718 215.57338 38.390636 213.60977 45.617501 209.9575 C 55.825998 204.79839 64.870273 196.09979 72.405001 184.1525 C 75.784777 178.3017 78.105954 168.38469 79.320001 154.67 C 80.384817 142.54135 80.516723 127.10576 79.820001 109.035 z M 80.747501 225.4475 L 80.717501 225.4625 L 80.747501 225.4475 z " />
    <path
       id="path546"
       style="display:inline;fill:#9c7513;fill-opacity:1;stroke-width:0.238517"
       d="m 81.215001,13.53 c -6.604909,0.140434 -12.053333,1.948108 -15.295,5.585 0,0 -3.482155,5.611337 -4.11625,8.781251 -0.705088,3.524818 0.46875,10.77375 0.46875,10.77375 4.020452,4.043383 8.956087,7.818943 14.5275,11.0375 9.194802,5.311758 18.841934,8.399239 27.189999,8.695 7.00284,0.238516 12.16496,-1.575365 14.1375,-5.01 1.97253,-3.434635 0.98347,-8.801174 -2.735,-14.745 C 110.9728,31.582649 103.46731,24.769258 94.272502,19.4575 89.956993,16.965761 85.54627,14.984302 81.215001,13.53 Z m -18.3025,39.855001 1.035,23.81 c 9.25542,3.547568 17.08405,10.045946 22.275001,18.490001 0.433843,-0.0044 0.818677,-0.0125 1.2625,-0.0125 h 0.2025 c 0.598927,0 0.711157,0.01902 1.18,0.025 C 95.221883,84.306428 106.9127,76.90839 119.9275,76.042501 v -10.18 c -3.95835,2.146175 -8.90725,3.3075 -14.695,3.3075 -0.54063,0 -1.08664,-0.0084 -1.64,-0.0275 -10.053459,-0.35539 -21.465503,-3.952313 -32.172499,-10.1275 -3.002594,-1.731725 -5.837434,-3.629102 -8.5075,-5.63 z M 122.285,85.525002 c -9.30739,0.01269 -18.03164,4.534616 -23.407498,12.1325 5.322658,2.158278 10.107538,5.718828 13.829998,10.374998 4.98127,6.21623 7.70957,13.93672 7.74,21.9025 v 31.95 c 1.30707,7.77803 5.1585,12.78803 10.5275,17.8875 0.12568,0.12213 0.245,0.25063 0.3575,0.385 l 0.055,-0.07 c 5.47005,4.4517 12.0566,7.31737 19.0425,8.285 V 115.435 c -0.0238,-7.79375 -2.96628,-15.29585 -8.2475,-21.027498 -5.33322,-5.724391 -12.40332,-8.8825 -19.8975,-8.8825 z m -60.947499,1.445 C 39.076777,86.970002 21.0275,105.01143 21.0275,127.265 v 10.745 c 0.0683,7.18973 2.06436,14.22945 5.78,20.385 2.613846,1.95326 5.498958,3.55101 8.595001,4.7325 0.02919,0.002 0.05835,0.004 0.0875,0.007 2.426844,0.90553 4.946289,1.54021 7.5125,1.8925 v -18.81 l -0.03,-5.4075 c 0.08874,-1.61738 0.263986,-3.22885 0.525,-4.8275 0.08819,-1.57955 0.25926,-3.15339 0.5125,-4.715 0.241544,-0.82822 0.506651,-1.64939 0.795,-2.4625 0.571516,-2.28843 1.321306,-4.52861 2.2425,-6.7 0.388174,-0.72174 0.795824,-1.43283 1.2225,-2.1325 1.056664,-2.14103 2.281331,-4.19496 3.6625,-6.1425 0.602397,-0.71749 1.226863,-1.41616 1.8725,-2.095 1.410324,-1.75318 2.949604,-3.39859 4.605,-4.9225 0.89576,-0.71126 1.818085,-1.38841 2.765,-2.03 1.584335,-1.25875 3.25142,-2.40967 4.99,-3.445 1.243683,-0.63246 2.515868,-1.20723 3.8125,-1.722498 1.577559,-0.757557 3.197787,-1.422844 4.8525,-1.9925 0.295369,-0.124807 0.592052,-0.24648 0.89,-0.365 -3.481689,-4.374722 -7.951586,-7.861018 -13.0425,-10.1725 -0.445995,-0.04579 -0.892724,-0.08413 -1.34,-0.115 z"
       sodipodi:nodetypes="ccacscsccccccsscccscsccccccccccccccsccccccccccccccccccccccc" />
  </g>
  <g
     inkscape:groupmode="layer"
     id="layer1"
     inkscape:label="F.Cu"
     style="display:inline">
    <path
       style="opacity:0.715596;fill:#ffdc53;fill-opacity:1;stroke-width:0.238517"
       d="m 91.117502,102.6175 a 40.30929,40.30929 0 0 0 -27.095001,38.08 c -1.200532,14.30939 -3.63503,24.54037 -7.305,30.6925 -7.944977,13.32113 -25.998422,25.6387 -29.860001,29.8175 l 0.2375,0.35 c -3.856808,3.01962 -6.075,6.5543 -6.075,10.33 0,5.14471 3.151401,10.89356 8.865001,15.6 -1.217091,-0.0846 -2.431662,-0.1637 -3.672501,-0.305 -0.174911,1.47562 -0.309593,2.92891 -0.405,4.36 a 30.05308,30.05308 0 0 0 3.765001,3.79 54.24581,54.24581 0 0 0 13.7075,1.6975 c 2.456269,0 5.561186,-0.13702 9.0575,-0.445 0.01373,0.002 0.02626,0.006 0.04,0.007 a 120.98511,120.98511 0 0 0 0.275,-0.035 c 2.878705,-0.26129 6.032001,-0.66441 9.4175,-1.24 a 120.98511,120.98511 0 0 0 1.2875,-0.2275 c 2.908989,-0.52619 5.943477,-1.18519 9.0925,-2.0075 a 120.98511,120.98511 0 0 0 1.0675,-0.295 c 3.045598,-0.82542 6.150285,-1.75838 9.3175,-2.915 17.475039,-8.39472 28.590859,-16.78481 35.474999,-25.48 5.35533,-6.76292 8.15281,-13.7107 9.3925,-20.985 a 40.201958,40.201958 0 0 1 -12.14,-23.0475 V 129.952 a 26.87127,26.87127 0 0 0 -0.005,-0.045 26.768708,26.768708 0 0 0 -0.815,-6.525 26.87127,26.87127 0 0 0 -0.0125,-0.0525 26.768708,26.768708 0 0 0 -2.41,-6.1675 26.768708,26.768708 0 0 0 -3.845,-5.3825 26.87127,26.87127 0 0 0 -0.0475,-0.05 26.768708,26.768708 0 0 0 -0.3625,-0.39 c -0.0365,-0.004 -0.0735,-0.006 -0.11,-0.01 a 26.87127,26.87127 0 0 0 -0.7325,-0.62 c 0.02,-0.05 0.0398,-0.10011 0.06,-0.15 a 27.016765,27.016765 0 0 0 -2.4675,-2.0925 h -0.2425 a 26.87127,26.87127 0 0 0 -13.674998,-5.29 c 0.07156,-0.18763 0.145264,-0.37396 0.22,-0.56 z"
       id="path2821" />
  </g>
  <g
     id="g569"
     style="display:inline">
    <path
       d="m 119.92849,52.884513 h 9.76963 v 26.868885 h -9.76963 z"
       fill=""
       id="path198"
       style="stroke-width:0.238517" />
    <path
       d="m 41.237119,18.633542 h 9.769636 v 61.062612 h -9.769636 z"
       fill=""
       id="path196"
       style="stroke-width:0.238517" />
    <path
       d="m 105.23348,69.17042 q -0.81095,0 -1.64099,-0.02862 C 93.539019,68.786409 82.126004,65.18958 71.418998,59.014387 60.711992,52.839195 51.896422,44.743944 46.560807,36.216979 40.578813,26.657237 39.543652,17.483892 43.62944,10.397567 47.715227,3.3112414 56.177793,-0.36906839 67.450083,0.02925418 77.503554,0.38702895 88.916569,3.9814728 99.623575,10.156665 c 10.707005,6.175193 19.522575,14.270443 24.858195,22.797408 5.98199,9.562127 7.02431,18.730702 2.93136,25.817027 -3.88782,6.738092 -11.72785,10.39932 -22.17965,10.39932 z M 65.823401,10.745801 c -6.368391,0 -11.029004,1.803185 -12.879892,5.025543 -1.979687,3.427482 -0.982688,8.801259 2.735785,14.74509 4.419711,7.06486 11.925825,13.879276 21.120637,19.191039 9.194811,5.311763 18.842804,8.398166 27.190879,8.693927 7.00285,0.238516 12.16434,-1.574209 14.13688,-5.008847 1.97253,-3.434638 0.98268,-8.801259 -2.73579,-14.745091 -4.41971,-7.064859 -11.92582,-13.879275 -21.120635,-19.191038 -9.199582,-5.311763 -18.842804,-8.400552 -27.190882,-8.693927 -0.431715,-0.0095 -0.846734,-0.0167 -1.256982,-0.0167 z M 43.27882,241.88977 c -11.823263,0 -22.833185,-3.31777 -31.007146,-9.34031 C 4.5890572,226.88231 -4.9289999e-7,219.15676 -4.9289999e-7,211.88677 -4.9289999e-7,205.79745 3.7947972,201.2227 7.100636,197.91686 l 0.1765022,-0.17889 C 17.187499,187.00473 24.273825,177.95303 28.932052,166.06775 a 5.1495715,5.1495715 0 0 1 6.556819,-2.93375 35.17403,35.17403 0 0 0 7.51327,1.89382 v -24.32868 a 45.194108,45.194108 0 0 1 40.147099,-44.903122 14.788024,14.788024 0 0 1 1.607601,-0.09541 c 0.775179,-0.0167 1.769793,-0.02862 2.728629,-0.02862 h 0.202739 c 4.162113,0 4.968299,0.162191 5.404784,0.238516 7.618217,1.524121 14.585287,5.829346 19.615597,12.121416 a 35.240814,35.240814 0 0 1 7.73986,21.90297 v 31.94928 c 1.30707,7.77803 5.15673,12.78926 10.52574,17.88874 a 5.1185643,5.1185643 0 0 1 1.51696,4.58667 c -3.53481,20.4194 -18.19404,35.8061 -47.533955,49.89289 -0.116873,0.0572 -0.250442,0.11448 -0.393552,0.16934 l -0.06917,0.0262 c -18.377697,6.71901 -34.945054,7.44172 -41.215653,7.44172 z m -6.93606,-68.24912 c -5.175808,11.37247 -12.56505,20.63645 -21.891045,30.73762 -0.112103,0.12165 -0.302916,0.31485 -0.4341,0.44364 -2.971916,2.97192 -4.2384386,5.08279 -4.2384386,7.06009 0,4.11918 3.1818106,9.02547 8.3003746,12.80118 6.49719,4.79419 15.446329,7.43456 25.196884,7.43456 5.724396,0 20.824877,-0.66069 37.656987,-6.76671 14.184577,-6.82873 24.412168,-13.80056 31.262358,-21.30906 5.29984,-5.81027 8.5866,-11.89721 10.20135,-18.99307 -5.0971,-5.16866 -10.07732,-11.87813 -11.6563,-22.00792 -0.062,-0.38163 -0.062,-0.38163 -0.062,-2.46149 v -30.62791 c 0,-11.673 -8.329,-22.15103 -19.391397,-24.4217 -1.113872,-0.11211 -5.7077,-0.093 -6.93606,-0.0358 l -0.119258,0.0119 A 35.357687,35.357687 0 0 0 52.781328,140.6967 v 29.30891 a 5.128105,5.128105 0 0 1 -5.128105,5.1281 h -0.03339 A 45.194108,45.194108 0 0 1 36.34276,173.64065 Z m 44.404619,51.80579 -0.03101,0.0167 z"
       fill=""
       id="path200"
       style="stroke-width:0.238517" />
    <path
       d="m 52.922043,175.25302 h -4.911055 c -24.984605,0 -45.3181371,-20.3216 -45.3181371,-45.30144 v -10.74994 c 0,-24.915431 20.2739031,-45.18695 45.1845681,-45.18695 a 45.091546,45.091546 0 0 1 40.142328,24.371617 l 3.281987,6.330233 -7.07917,0.7871 A 35.572352,35.572352 0 0 0 52.726459,140.80408 Z M 47.89173,83.793867 c -19.527347,0 -35.414932,15.887585 -35.414932,35.417313 v 10.73325 c 0,17.9269 13.356925,32.79602 30.63029,35.19549 L 42.973519,140.81124 A 45.389692,45.389692 0 0 1 75.719451,97.258124 35.343376,35.343376 0 0 0 47.89173,83.793867 Z"
       fill=""
       id="path202"
       style="stroke-width:0.238517" />
    <path
       d="m 160.19961,198.47976 h -4.88481 c -10.8048,0 -21.48557,-3.83534 -30.07932,-10.80241 l 6.15134,-7.5896 a 38.546653,38.546653 0 0 0 19.04316,8.28368 v -72.93596 a 31.171723,31.171723 0 0 0 -8.2479,-21.027618 c -5.33323,-5.724396 -12.40286,-8.882355 -19.89705,-8.882355 A 28.722158,28.722158 0 0 0 95.463847,103.96759 l -9.123256,-3.49188 A 38.491794,38.491794 0 0 1 122.28503,75.758246 c 10.2419,0 19.84696,4.259905 27.04777,11.994995 a 40.488178,40.488178 0 0 1 10.86681,27.682229 z"
       fill=""
       id="path204"
       style="stroke-width:0.238517" />
    <path
       d="m 19.131409,223.3141 a 83.538022,83.538022 0 0 1 -9.459565,-0.55097 3.6636136,3.6636136 0 1 1 0.830037,-7.27953 c 13.094557,1.49073 24.90828,-0.36731 35.116786,-5.52642 10.208507,-5.15912 19.250668,-13.85781 26.785404,-25.80511 3.379779,-5.85081 5.70293,-15.76832 6.916979,-29.48302 1.240286,-14.12733 1.285604,-32.50265 0.135954,-54.62028 a 3.6638158,3.6638158 0 1 1 7.317687,-0.381629 c 2.385165,45.921579 -0.238516,74.777309 -8.057088,88.212949 l -0.06678,0.10971 c -14.778483,23.4748 -34.775707,35.3243 -59.51941,35.3243 z"
       fill=""
       id="path206"
       style="stroke-width:0.238517" />
  </g>
  <g
     inkscape:groupmode="layer"
     id="layer3"
     inkscape:label="F.SilkS"
     style="display:inline">
    <path
       id="path182"
       style="fill:#ff2aff;fill-opacity:1;stroke-width:0.238517"
       d="m 65.822501,10.7475 c -0.02245,0 -0.04259,0.0025 -0.065,0.0025 -1.545969,0.0032 -2.989942,0.111617 -4.3175,0.3225 -0.700786,0.111154 -1.369286,0.248356 -2.0025,0.415 -0.61658,0.162267 -1.201852,0.351636 -1.75,0.565 -0.878784,0.342063 -1.639007,0.764111 -2.3275,1.2325 -0.570956,0.388427 -1.093568,0.808574 -1.5225,1.28 -0.02095,0.02305 -0.0494,0.04176 -0.07,0.065 -7.62e-4,8.59e-4 -0.0017,0.0016 -0.0025,0.0025 -0.316021,0.356923 -0.591712,0.738204 -0.8225,1.14 -0.247461,0.428435 -0.447562,0.885932 -0.6025,1.3725 -2.37e-4,7.42e-4 2.36e-4,0.0018 0,0.0025 -0.154554,0.485899 -0.264187,0.999012 -0.3275,1.5375 -9.9e-5,8.38e-4 9.8e-5,0.0017 0,0.0025 -0.06318,0.538603 -0.08208,1.101659 -0.055,1.6875 4e-5,8.67e-4 -4e-5,0.0016 0,0.0025 0.0272,0.585976 0.101008,1.194636 0.2175,1.8225 1.57e-4,8.5e-4 -1.58e-4,0.0017 0,0.0025 0.116616,0.628 0.277564,1.275463 0.4825,1.94 2.49e-4,8.07e-4 -2.49e-4,0.0017 0,0.0025 0.615617,1.995424 1.628575,4.144367 3.0225,6.372501 0.485806,0.776555 1.02147,1.548659 1.58,2.3175 0.262866,0.360384 0.544066,0.719419 0.8225,1.0775 0.256106,0.33087 0.521083,0.658816 0.79,0.9875 1.048243,1.275419 2.173132,2.536169 3.4,3.77 0,0 -1.185121,-6.864204 -0.56,-10.2175 0.625643,-3.356095 4.2075,-9.337501 4.2075,-9.337501 3.216523,-3.608681 8.554686,-5.491512 15.09,-5.6575 -1.207777,-0.400987 -2.409032,-0.759157 -3.6,-1.075 -1.119359,-0.296852 -2.22734,-0.549005 -3.325,-0.7675 -0.08112,-0.016 -0.164019,-0.03944 -0.245,-0.055 -1.006291,-0.195214 -1.997792,-0.341019 -2.98,-0.4675 -0.158536,-0.02016 -0.322165,-0.05414 -0.48,-0.0725 -1.119369,-0.131822 -2.220503,-0.219563 -3.3,-0.2575 -0.431708,-0.0095 -0.84725,-0.015 -1.2575,-0.015 z m -14.815,31.532501 v 32.0725 a 45.091546,45.091546 0 0 1 12.94,2.8425 l -1.035,-23.81 c -4.55084,-3.410315 -8.577863,-7.15312 -11.8875,-11.0875 -0.0052,-0.0062 -0.01228,-0.01129 -0.0175,-0.0175 z m -3.115,41.515 c -6.10229,0 -11.849874,1.550661 -16.8675,4.280001 -2.007054,1.091747 -3.897717,2.372765 -5.647501,3.8175 -1.749778,1.444721 -3.357835,3.052627 -4.8025,4.8025 -3.93e-4,4.76e-4 3.93e-4,0.002 0,0.0025 -1.444218,1.749339 -2.726011,3.638498 -3.8175,5.644998 -3.41e-4,6.3e-4 3.41e-4,0.002 0,0.002 -0.545434,1.00298 -1.04415,2.03424 -1.4925,3.0925 -2.94e-4,7e-4 2.94e-4,0.002 0,0.002 -0.448271,1.05828 -0.847281,2.14242 -1.1925,3.25 -2.34e-4,7.5e-4 2.34e-4,0.002 0,0.002 -0.690521,2.21598 -1.170321,4.525 -1.4125,6.9025 -8.4e-5,8.3e-4 8.4e-5,0.002 0,0.002 -0.120966,1.18837 -0.1825,2.39274 -0.1825,3.6125 v 0.003 10.7325 c 0,1.33015 0.09382,2.63814 0.2375,3.93 0.03923,0.35395 0.0979,0.70173 0.1475,1.0525 0.137568,0.96898 0.310266,1.92543 0.525,2.8675 0.07527,0.33168 0.147988,0.66439 0.2325,0.9925 0.30396,1.17462 0.65141,2.33332 1.07,3.4575 0.01406,0.0379 0.02581,0.0771 0.04,0.115 0.476186,1.26546 1.022572,2.49528 1.635,3.6875 0.02263,0.0443 0.04969,0.0858 0.0725,0.13 0.587672,1.13225 1.235292,2.22773 1.9375,3.285 0.05305,0.0802 0.106316,0.16022 0.16,0.24 2.248138,3.32606 5.039324,6.259 8.2525,8.66 -3.703036,-6.14806 -5.69194,-13.17569 -5.76,-20.3525 v -10.745 c 0,-22.25355 18.049299,-40.294998 40.310001,-40.294998 0.445607,0.03093 0.89067,0.06926 1.335,0.115 -0.01295,-0.006 -0.02704,-0.009 -0.04,-0.015 a 35.343376,35.343376 0 0 0 -5.94,-2.085001 c -0.412829,-0.107718 -0.816109,-0.252312 -1.2325,-0.345 -0.0041,-9.22e-4 -0.0084,-0.0016 -0.0125,-0.0025 a 35.343376,35.343376 0 0 0 -7.555,-0.8425 z m 31.8275,22.792499 c -10.515548,2.64138 -19.15141,9.90688 -23.6225,19.5925 a 35.572352,35.572352 0 0 0 -1.76,4.61 c -0.0015,0.005 -0.0035,0.01 -0.005,0.015 -0.244826,0.79853 -0.460124,1.60519 -0.6475,2.4175 -7.72e-4,0.003 -0.0017,0.007 -0.0025,0.01 a 35.357687,35.357687 0 0 0 -0.9,7.465 v 9.8225 0.002 l 0.14,24.73 v 0.002 h -4.9125 c -1.312934,0 -2.605434,-0.0828 -3.8875,-0.2 -0.527588,-0.0451 -1.050167,-0.10187 -1.5725,-0.165 -0.587189,-0.075 -1.167353,-0.17024 -1.7475,-0.2675 -1.478988,-0.23794 -2.932094,-0.54463 -4.36,-0.9225 -0.03797,-0.0101 -0.07706,-0.0173 -0.115,-0.0275 -0.642522,1.41011 -1.319907,2.78907 -2.03,4.14 -0.715533,1.36144 -1.464458,2.69468 -2.2475,4.0075 -0.0044,0.007 -0.0081,0.0152 -0.0125,0.0225 -0.779141,1.3052 -1.592638,2.58898 -2.4375,3.8575 -0.0044,0.007 -0.0081,0.0135 -0.0125,0.02 -0.845624,1.26901 -1.724658,2.52133 -2.635001,3.765 -0.0036,0.005 -0.0064,0.0101 -0.01,0.015 -3.656819,4.99511 -7.831751,9.83201 -12.49,14.8775 -4.36e-4,4.8e-4 4.37e-4,0.002 0,0.002 -0.05404,0.0586 -0.135173,0.13615 -0.21,0.2125 -0.0054,0.005 -0.0097,0.01 -0.015,0.015 -0.07559,0.0769 -0.146644,0.1528 -0.21,0.215 -2.028342,2.02835 -3.210915,3.64005 -3.79,5.0975 -0.197059,0.60318 -0.3585509,1.24805 -0.4474998,1.9625 0,0.92167 0.1828549,1.886 0.4874998,2.865 0.06702,0.198 0.08862,0.29218 0.1725,0.54 0.02378,0.0655 0.05746,0.1319 0.0825,0.1975 3.815635,0.43342 7.507475,0.54919 11.0975,0.415 0.0038,-4.3e-4 9.09e-4,-0.007 0.005,-0.007 -0.393509,-1.35629 -0.605,-2.70059 -0.605,-4.005 0.666997,-4.37812 4.05667,-8.3158 6.075,-10.33 3.861576,-4.17879 21.677532,-16.84638 29.622501,-30.1675 3.669966,-6.15212 6.104469,-16.38312 7.305,-30.6925 0.03634,-12.48919 5.859806,-24.25614 15.7675,-31.86 -0.03,-0.77032 -0.03698,-1.47007 -0.07,-2.25 z m -52.897501,116.3 c -2.513878,0.26564 -5.06905,0.4275 -7.69,0.4275 a 83.538022,83.538022 0 0 1 -2.96,-0.1725 c 0.601657,0.52953 1.236465,1.04501 1.9075,1.54 2.486545,1.83479 5.337713,3.34842 8.45,4.525 1.719601,0.24788 2.39507,-0.90381 3.355001,-1.72 0.353821,-0.30083 -1.246317,-2.36357 -3.062501,-4.6 z" />
    <path
       id="rect4886"
       style="opacity:0.715596;fill:#ff2aff;fill-opacity:1;stroke-width:9.6756;stroke-opacity:0.65098;stop-color:#000000"
       d="m 0,0 v 211.885 c 0,-6.08931 3.79667,-10.66416 7.1025,-13.97 l 0.175,-0.1775 c 8.74573,-9.4719 15.28575,-17.64162 19.905,-27.5975 -14.52655,-7.5552 -24.49,-22.71977 -24.49,-40.19 V 119.2 c 0,-22.65344 16.77854,-41.41305 38.545,-44.642499 V 20.41 c -0.015,-0.581443 -0.0317,-1.161735 0,-1.73 v -0.0475 h 0.005 c 0.17178,-2.952683 0.94266,-5.729084 2.3875,-8.235 4.08579,-7.0863184 12.54773,-10.7683216 23.82,-10.37 10.05346,0.3577746 21.46801,3.9523147 32.175005,10.1275 10.706985,6.175187 19.521885,14.270544 24.857505,22.797501 4.43615,7.091137 6.14175,13.960441 5.065,19.93 h 0.1525 v 23.64 c 7.40583,1.54436 14.20288,5.397518 19.6325,11.230001 A 40.488178,40.488178 0 0 1 160.20001,115.435 V 0 Z m 0,211.885 v 30.0025 h 43.28 c -11.82324,0 -22.83354,-3.31746 -31.0075,-9.34 C 4.58989,226.88036 0,219.15499 0,211.885 Z m 43.28,30.0025 h 116.92001 v -43.41 h -4.885 c -8.61365,0 -17.12855,-2.47398 -24.58999,-6.9925 -5.5028,16.95806 -19.94347,30.36877 -45.76752,42.7675 -0.11687,0.0572 -0.24939,0.11264 -0.3925,0.1675 l -0.07,0.0275 c -18.37768,6.71901 -34.9444,7.44 -41.215,7.44 z" />
  </g>
</svg>
